<svg width="112" height="235" viewBox="0 0 112 235" fill="none" xmlns="http://www.w3.org/2000/svg">
<mask id="path-1-inside-1_187_583" fill="white">
<path fill-rule="evenodd" clip-rule="evenodd" d="M177.186 86.5567L177.186 152L177.186 154.677C164.643 154.677 152.224 156.738 140.636 160.741C129.048 164.744 118.519 170.611 109.651 178.008C100.782 185.405 93.7466 194.187 88.9468 203.851C84.147 213.515 81.6766 223.874 81.6766 234.334L-3.05176e-05 234.334C-2.9978e-05 214.928 4.58301 195.712 13.4874 177.782C22.3918 159.853 35.4433 143.562 51.8965 129.84C57.0644 125.53 62.5362 121.499 68.2773 117.768C63.7918 114.539 59.4855 111.106 55.3767 107.48C39.3805 93.3658 26.6917 76.6094 18.0346 58.1679C9.37751 39.7264 4.92179 19.961 4.92179 2.69931e-05L84.3296 2.86178e-05C84.3296 10.7596 86.7314 21.4139 91.3979 31.3545C96.0643 41.2951 102.904 50.3273 111.527 57.9355C120.149 65.5437 130.385 71.5789 141.651 75.6964C152.917 79.8139 164.992 81.9332 177.186 81.9332L177.186 86.5567Z"/>
</mask>
<path d="M177.186 152L178.186 152L177.186 152ZM177.186 86.5567L178.186 86.5567L177.186 86.5567ZM177.186 154.677L177.186 155.677L178.186 155.677L178.186 154.677L177.186 154.677ZM140.636 160.741L140.309 159.796L140.636 160.741ZM88.9468 203.851L89.8424 204.296L88.9468 203.851ZM81.6766 234.334L81.6766 235.334L82.6766 235.334L82.6766 234.334L81.6766 234.334ZM-3.05176e-05 234.334L-1.00003 234.334L-1.00003 235.334L-3.05454e-05 235.334L-3.05176e-05 234.334ZM51.8965 129.84L52.537 130.608L52.537 130.608L51.8965 129.84ZM68.2773 117.768L68.8222 118.607L70.0474 117.81L68.8616 116.957L68.2773 117.768ZM55.3767 107.48L54.7151 108.23L55.3767 107.48ZM18.0346 58.1679L18.9398 57.743L18.0346 58.1679ZM4.92179 2.69931e-05L4.92179 -0.999973L3.92179 -0.999973L3.92179 2.69727e-05L4.92179 2.69931e-05ZM84.3296 2.86178e-05L85.3296 2.86382e-05L85.3296 -0.999971L84.3296 -0.999971L84.3296 2.86178e-05ZM91.3979 31.3545L90.4927 31.7794L91.3979 31.3545ZM111.527 57.9355L112.188 57.1857L111.527 57.9355ZM141.651 75.6964L141.995 74.7571L141.651 75.6964ZM177.186 81.9332L178.186 81.9332L178.186 80.9332L177.186 80.9332L177.186 81.9332ZM178.186 152L178.186 86.5567L176.186 86.5567L176.186 152L178.186 152ZM178.186 154.677L178.186 152L176.186 152L176.186 154.677L178.186 154.677ZM140.963 161.686C152.443 157.72 164.752 155.677 177.186 155.677L177.186 153.677C164.535 153.677 152.005 155.755 140.309 159.796L140.963 161.686ZM110.291 178.776C119.061 171.462 129.482 165.652 140.963 161.686L140.309 159.796C128.614 163.836 117.978 169.761 109.01 177.24L110.291 178.776ZM89.8424 204.296C94.5763 194.764 101.521 186.091 110.291 178.776L109.01 177.24C100.042 184.72 92.9169 193.609 88.0512 203.406L89.8424 204.296ZM82.6766 234.334C82.6766 224.033 85.1091 213.827 89.8424 204.296L88.0512 203.406C83.185 213.204 80.6766 223.714 80.6766 234.334L82.6766 234.334ZM-3.05454e-05 235.334L81.6766 235.334L81.6766 233.334L-3.04898e-05 233.334L-3.05454e-05 235.334ZM12.5918 177.338C3.62097 195.401 -1.00003 214.769 -1.00003 234.334L0.999969 234.334C0.99997 215.087 5.54505 196.023 14.3831 178.227L12.5918 177.338ZM51.256 129.072C34.7038 142.877 21.5622 159.276 12.5918 177.338L14.3831 178.227C23.2215 160.431 36.1827 144.248 52.537 130.608L51.256 129.072ZM67.7323 116.93C61.9589 120.682 56.4551 124.736 51.256 129.072L52.537 130.608C57.6738 126.324 63.1136 122.317 68.8222 118.607L67.7323 116.93ZM54.7151 108.23C58.8489 111.878 63.1811 115.331 67.693 118.58L68.8616 116.957C64.4025 113.746 60.122 110.334 56.0383 106.73L54.7151 108.23ZM17.1294 58.5928C25.8473 77.164 38.6213 94.0294 54.7151 108.23L56.0383 106.73C40.1398 92.7021 27.536 76.0548 18.9398 57.743L17.1294 58.5928ZM3.92179 2.69727e-05C3.92179 20.1109 8.4112 40.0212 17.1294 58.5928L18.9398 57.743C10.3438 39.4316 5.92179 19.811 5.92179 2.70136e-05L3.92179 2.69727e-05ZM84.3296 -0.999971L4.92179 -0.999973L4.92179 1.00003L84.3296 1.00003L84.3296 -0.999971ZM92.3031 30.9295C87.6977 21.1191 85.3296 10.6097 85.3296 2.86382e-05L83.3296 2.85973e-05C83.3296 10.9096 85.7651 21.7087 90.4927 31.7794L92.3031 30.9295ZM112.188 57.1857C103.663 49.6636 96.9087 40.7405 92.3031 30.9295L90.4927 31.7794C95.22 41.8497 102.145 50.991 110.865 58.6853L112.188 57.1857ZM141.995 74.7571C130.841 70.6805 120.713 64.7079 112.188 57.1857L110.865 58.6853C119.585 66.3795 129.93 72.4772 141.308 76.6356L141.995 74.7571ZM177.186 80.9332C165.107 80.9332 153.149 78.8338 141.995 74.7571L141.308 76.6356C152.686 80.794 164.877 82.9332 177.186 82.9332L177.186 80.9332ZM178.186 86.5567L178.186 81.9332L176.186 81.9332L176.186 86.5567L178.186 86.5567Z" fill="#FF6644" mask="url(#path-1-inside-1_187_583)"/>
</svg>
