<svg width="1500" height="254" viewBox="0 0 1500 254" fill="none" xmlns="http://www.w3.org/2000/svg">
<mask id="mask0_250_329" style="mask-type:alpha" maskUnits="userSpaceOnUse" x="0" y="0" width="1500" height="254">
<rect width="1500" height="254" fill="white" fill-opacity="0.3"/>
</mask>
<g mask="url(#mask0_250_329)">
<rect width="0.675684" height="519.383" rx="0.337842" transform="matrix(0.983224 0.182402 -0.184463 0.982839 1.99414 -190.503)" fill="black"/>
<rect width="0.675684" height="519.383" rx="0.337842" transform="matrix(0.983224 0.182402 -0.184463 0.982839 5.79004 -189.799)" fill="black"/>
<rect width="0.675684" height="519.383" rx="0.337842" transform="matrix(0.983224 0.182402 -0.184463 0.982839 9.58545 -189.094)" fill="black"/>
<rect width="0.675684" height="519.383" rx="0.337842" transform="matrix(0.983224 0.182402 -0.184463 0.982839 13.3818 -188.39)" fill="black"/>
<rect width="0.675684" height="519.383" rx="0.337842" transform="matrix(0.983224 0.182402 -0.184463 0.982839 17.1797 -187.686)" fill="black"/>
<rect width="0.675684" height="519.383" rx="0.337842" transform="matrix(0.983224 0.182402 -0.184463 0.982839 20.9751 -186.981)" fill="black"/>
<rect width="0.675684" height="519.383" rx="0.337842" transform="matrix(0.983224 0.182402 -0.184463 0.982839 24.771 -186.277)" fill="black"/>
<rect width="0.675684" height="519.383" rx="0.337842" transform="matrix(0.983224 0.182402 -0.184463 0.982839 47.5483 -182.052)" fill="black"/>
<rect width="0.675684" height="519.383" rx="0.337842" transform="matrix(0.983224 0.182402 -0.184463 0.982839 28.5669 -185.573)" fill="black"/>
<rect width="0.675684" height="519.383" rx="0.337842" transform="matrix(0.983224 0.182402 -0.184463 0.982839 51.3462 -181.348)" fill="black"/>
<rect width="0.675684" height="519.383" rx="0.337842" transform="matrix(0.983224 0.182402 -0.184463 0.982839 32.3647 -184.869)" fill="black"/>
<rect width="0.675684" height="519.383" rx="0.337842" transform="matrix(0.983224 0.182402 -0.184463 0.982839 55.1416 -180.644)" fill="black"/>
<rect width="0.675684" height="519.383" rx="0.337842" transform="matrix(0.983224 0.182402 -0.184463 0.982839 36.1606 -184.165)" fill="black"/>
<rect width="0.675684" height="519.383" rx="0.337842" transform="matrix(0.983224 0.182402 -0.184463 0.982839 58.9375 -179.939)" fill="black"/>
<rect width="0.675684" height="519.383" rx="0.337842" transform="matrix(0.983224 0.182402 -0.184463 0.982839 39.9565 -183.46)" fill="black"/>
<rect width="0.675684" height="519.383" rx="0.337842" transform="matrix(0.983224 0.182402 -0.184463 0.982839 62.7334 -179.235)" fill="black"/>
<rect width="0.675684" height="519.383" rx="0.337842" transform="matrix(0.983224 0.182402 -0.184463 0.982839 43.7524 -182.756)" fill="black"/>
<rect width="0.675684" height="519.383" rx="0.337842" transform="matrix(0.983224 0.182402 -0.184463 0.982839 66.5312 -178.531)" fill="black"/>
<rect width="0.675684" height="519.383" rx="0.337842" transform="matrix(0.983224 0.182402 -0.184463 0.982839 70.3271 -177.826)" fill="black"/>
<rect width="0.675684" height="519.383" rx="0.337842" transform="matrix(0.983224 0.182402 -0.184463 0.982839 93.1045 -173.601)" fill="black"/>
<rect width="0.675684" height="519.383" rx="0.337842" transform="matrix(0.983224 0.182402 -0.184463 0.982839 74.123 -177.122)" fill="black"/>
<rect width="0.675684" height="519.383" rx="0.337842" transform="matrix(0.983224 0.182402 -0.184463 0.982839 96.9004 -172.896)" fill="black"/>
<rect width="0.675684" height="519.383" rx="0.337842" transform="matrix(0.983224 0.182402 -0.184463 0.982839 77.9189 -176.418)" fill="black"/>
<rect width="0.675684" height="519.383" rx="0.337842" transform="matrix(0.983224 0.182402 -0.184463 0.982839 100.696 -172.192)" fill="black"/>
<rect width="0.675684" height="519.383" rx="0.337842" transform="matrix(0.983224 0.182402 -0.184463 0.982839 81.7148 -175.713)" fill="black"/>
<rect width="0.675684" height="519.383" rx="0.337842" transform="matrix(0.983224 0.182402 -0.184463 0.982839 104.494 -171.488)" fill="black"/>
<rect width="0.675684" height="519.383" rx="0.337842" transform="matrix(0.983224 0.182402 -0.184463 0.982839 85.5127 -175.009)" fill="black"/>
<rect width="0.675684" height="519.383" rx="0.337842" transform="matrix(0.983224 0.182402 -0.184463 0.982839 108.29 -170.784)" fill="black"/>
<rect width="0.675684" height="519.383" rx="0.337842" transform="matrix(0.983224 0.182402 -0.184463 0.982839 89.3086 -174.305)" fill="black"/>
<rect width="0.675684" height="519.383" rx="0.337842" transform="matrix(0.983224 0.182402 -0.184463 0.982839 112.085 -170.08)" fill="black"/>
<rect width="0.675684" height="519.383" rx="0.337842" transform="matrix(0.983224 0.182402 -0.184463 0.982839 115.882 -169.375)" fill="black"/>
<rect width="0.675684" height="519.383" rx="0.337842" transform="matrix(0.983224 0.182402 -0.184463 0.982839 138.661 -165.15)" fill="black"/>
<rect width="0.675684" height="519.383" rx="0.337842" transform="matrix(0.983224 0.182402 -0.184463 0.982839 119.679 -168.671)" fill="black"/>
<rect width="0.675684" height="519.383" rx="0.337842" transform="matrix(0.983224 0.182402 -0.184463 0.982839 142.456 -164.445)" fill="black"/>
<rect width="0.675684" height="519.383" rx="0.337842" transform="matrix(0.983224 0.182402 -0.184463 0.982839 123.475 -167.967)" fill="black"/>
<rect width="0.675684" height="519.383" rx="0.337842" transform="matrix(0.983224 0.182402 -0.184463 0.982839 146.252 -163.741)" fill="black"/>
<rect width="0.675684" height="519.383" rx="0.337842" transform="matrix(0.983224 0.182402 -0.184463 0.982839 127.271 -167.262)" fill="black"/>
<rect width="0.675684" height="519.383" rx="0.337842" transform="matrix(0.983224 0.182402 -0.184463 0.982839 150.048 -163.037)" fill="black"/>
<rect width="0.675684" height="519.383" rx="0.337842" transform="matrix(0.983224 0.182402 -0.184463 0.982839 131.067 -166.558)" fill="black"/>
<rect width="0.675684" height="519.383" rx="0.337842" transform="matrix(0.983224 0.182402 -0.184463 0.982839 153.844 -162.333)" fill="black"/>
<rect width="0.675684" height="519.383" rx="0.337842" transform="matrix(0.983224 0.182402 -0.184463 0.982839 134.862 -165.854)" fill="black"/>
<rect width="0.675684" height="519.383" rx="0.337842" transform="matrix(0.983224 0.182402 -0.184463 0.982839 157.642 -161.628)" fill="black"/>
<rect width="0.675684" height="519.383" rx="0.337842" transform="matrix(0.983224 0.182402 -0.184463 0.982839 161.438 -160.924)" fill="black"/>
<rect width="0.675684" height="519.383" rx="0.337842" transform="matrix(0.983224 0.182402 -0.184463 0.982839 184.214 -156.698)" fill="black"/>
<rect width="0.675684" height="519.383" rx="0.337842" transform="matrix(0.983224 0.182402 -0.184463 0.982839 165.233 -160.22)" fill="black"/>
<rect width="0.675684" height="519.383" rx="0.337842" transform="matrix(0.983224 0.182402 -0.184463 0.982839 188.011 -155.994)" fill="black"/>
<rect width="0.675684" height="519.383" rx="0.337842" transform="matrix(0.983224 0.182402 -0.184463 0.982839 169.029 -159.516)" fill="black"/>
<rect width="0.675684" height="519.383" rx="0.337842" transform="matrix(0.983224 0.182402 -0.184463 0.982839 191.809 -155.29)" fill="black"/>
<rect width="0.675684" height="519.383" rx="0.337842" transform="matrix(0.983224 0.182402 -0.184463 0.982839 172.827 -158.811)" fill="black"/>
<rect width="0.675684" height="519.383" rx="0.337842" transform="matrix(0.983224 0.182402 -0.184463 0.982839 195.604 -154.585)" fill="black"/>
<rect width="0.675684" height="519.383" rx="0.337842" transform="matrix(0.983224 0.182402 -0.184463 0.982839 176.623 -158.107)" fill="black"/>
<rect width="0.675684" height="519.383" rx="0.337842" transform="matrix(0.983224 0.182402 -0.184463 0.982839 199.4 -153.881)" fill="black"/>
<rect width="0.675684" height="519.383" rx="0.337842" transform="matrix(0.983224 0.182402 -0.184463 0.982839 180.419 -157.402)" fill="black"/>
<rect width="0.675684" height="519.383" rx="0.337842" transform="matrix(0.983224 0.182402 -0.184463 0.982839 203.196 -153.177)" fill="black"/>
<rect width="0.675684" height="519.383" rx="0.337842" transform="matrix(0.983224 0.182402 -0.184463 0.982839 206.994 -152.473)" fill="black"/>
<rect width="0.675684" height="519.383" rx="0.337842" transform="matrix(0.983224 0.182402 -0.184463 0.982839 229.771 -148.248)" fill="black"/>
<rect width="0.675684" height="519.383" rx="0.337842" transform="matrix(0.983224 0.182402 -0.184463 0.982839 210.79 -151.769)" fill="black"/>
<rect width="0.675684" height="519.383" rx="0.337842" transform="matrix(0.983224 0.182402 -0.184463 0.982839 233.567 -147.543)" fill="black"/>
<rect width="0.675684" height="519.383" rx="0.337842" transform="matrix(0.983224 0.182402 -0.184463 0.982839 214.585 -151.064)" fill="black"/>
<rect width="0.675684" height="519.383" rx="0.337842" transform="matrix(0.983224 0.182402 -0.184463 0.982839 237.363 -146.838)" fill="black"/>
<rect width="0.675684" height="519.383" rx="0.337842" transform="matrix(0.983224 0.182402 -0.184463 0.982839 218.381 -150.36)" fill="black"/>
<rect width="0.675684" height="519.383" rx="0.337842" transform="matrix(0.983224 0.182402 -0.184463 0.982839 241.158 -146.134)" fill="black"/>
<rect width="0.675684" height="519.383" rx="0.337842" transform="matrix(0.983224 0.182402 -0.184463 0.982839 222.177 -149.656)" fill="black"/>
<rect width="0.675684" height="519.383" rx="0.337842" transform="matrix(0.983224 0.182402 -0.184463 0.982839 244.956 -145.43)" fill="black"/>
<rect width="0.675684" height="519.383" rx="0.337842" transform="matrix(0.983224 0.182402 -0.184463 0.982839 225.975 -148.952)" fill="black"/>
<rect width="0.675684" height="519.383" rx="0.337842" transform="matrix(0.983224 0.182402 -0.184463 0.982839 248.752 -144.726)" fill="black"/>
<rect width="0.675684" height="519.383" rx="0.337842" transform="matrix(0.983224 0.182402 -0.184463 0.982839 252.548 -144.021)" fill="black"/>
<rect width="0.675684" height="519.383" rx="0.337842" transform="matrix(0.983224 0.182402 -0.184463 0.982839 275.325 -139.796)" fill="black"/>
<rect width="0.675684" height="519.383" rx="0.337842" transform="matrix(0.983224 0.182402 -0.184463 0.982839 256.344 -143.317)" fill="black"/>
<rect width="0.675684" height="519.383" rx="0.337842" transform="matrix(0.983224 0.182402 -0.184463 0.982839 279.123 -139.092)" fill="black"/>
<rect width="0.675684" height="519.383" rx="0.337842" transform="matrix(0.983224 0.182402 -0.184463 0.982839 260.142 -142.613)" fill="black"/>
<rect width="0.675684" height="519.383" rx="0.337842" transform="matrix(0.983224 0.182402 -0.184463 0.982839 282.919 -138.388)" fill="black"/>
<rect width="0.675684" height="519.383" rx="0.337842" transform="matrix(0.983224 0.182402 -0.184463 0.982839 263.938 -141.909)" fill="black"/>
<rect width="0.675684" height="519.383" rx="0.337842" transform="matrix(0.983224 0.182402 -0.184463 0.982839 286.714 -137.683)" fill="black"/>
<rect width="0.675684" height="519.383" rx="0.337842" transform="matrix(0.983224 0.182402 -0.184463 0.982839 267.733 -141.205)" fill="black"/>
<rect width="0.675684" height="519.383" rx="0.337842" transform="matrix(0.983224 0.182402 -0.184463 0.982839 290.51 -136.979)" fill="black"/>
<rect width="0.675684" height="519.383" rx="0.337842" transform="matrix(0.983224 0.182402 -0.184463 0.982839 271.529 -140.5)" fill="black"/>
<rect width="0.675684" height="519.383" rx="0.337842" transform="matrix(0.983224 0.182402 -0.184463 0.982839 294.306 -136.274)" fill="black"/>
<rect width="0.675684" height="519.383" rx="0.337842" transform="matrix(0.983224 0.182402 -0.184463 0.982839 297.611 -135.662)" fill="black"/>
<rect width="0.675684" height="519.383" rx="0.337842" transform="matrix(0.983224 0.182402 -0.184463 0.982839 320.388 -131.436)" fill="black"/>
<rect width="0.675684" height="519.383" rx="0.337842" transform="matrix(0.983224 0.182402 -0.184463 0.982839 301.406 -134.958)" fill="black"/>
<rect width="0.675684" height="519.383" rx="0.337842" transform="matrix(0.983224 0.182402 -0.184463 0.982839 324.186 -130.732)" fill="black"/>
<rect width="0.675684" height="519.383" rx="0.337842" transform="matrix(0.983224 0.182402 -0.184463 0.982839 305.203 -134.253)" fill="black"/>
<rect width="0.675684" height="519.383" rx="0.337842" transform="matrix(0.983224 0.182402 -0.184463 0.982839 327.981 -130.028)" fill="black"/>
<rect width="0.675684" height="519.383" rx="0.337842" transform="matrix(0.983224 0.182402 -0.184463 0.982839 309 -133.549)" fill="black"/>
<rect width="0.675684" height="519.383" rx="0.337842" transform="matrix(0.983224 0.182402 -0.184463 0.982839 331.777 -129.324)" fill="black"/>
<rect width="0.675684" height="519.383" rx="0.337842" transform="matrix(0.983224 0.182402 -0.184463 0.982839 312.796 -132.845)" fill="black"/>
<rect width="0.675684" height="519.383" rx="0.337842" transform="matrix(0.983224 0.182402 -0.184463 0.982839 335.573 -128.619)" fill="black"/>
<rect width="0.675684" height="519.383" rx="0.337842" transform="matrix(0.983224 0.182402 -0.184463 0.982839 316.592 -132.141)" fill="black"/>
<rect width="0.675684" height="519.383" rx="0.337842" transform="matrix(0.983224 0.182402 -0.184463 0.982839 339.369 -127.915)" fill="black"/>
<rect width="0.675684" height="519.383" rx="0.337842" transform="matrix(0.983224 0.182402 -0.184463 0.982839 343.167 -127.211)" fill="black"/>
<rect width="0.675684" height="519.383" rx="0.337842" transform="matrix(0.983224 0.182402 -0.184463 0.982839 365.944 -122.985)" fill="black"/>
<rect width="0.675684" height="519.383" rx="0.337842" transform="matrix(0.983224 0.182402 -0.184463 0.982839 346.962 -126.506)" fill="black"/>
<rect width="0.675684" height="519.383" rx="0.337842" transform="matrix(0.983224 0.182402 -0.184463 0.982839 369.74 -122.281)" fill="black"/>
<rect width="0.675684" height="519.383" rx="0.337842" transform="matrix(0.983224 0.182402 -0.184463 0.982839 350.759 -125.802)" fill="black"/>
<rect width="0.675684" height="519.383" rx="0.337842" transform="matrix(0.983224 0.182402 -0.184463 0.982839 373.536 -121.576)" fill="black"/>
<rect width="0.675684" height="519.383" rx="0.337842" transform="matrix(0.983224 0.182402 -0.184463 0.982839 354.554 -125.098)" fill="black"/>
<rect width="0.675684" height="519.383" rx="0.337842" transform="matrix(0.983224 0.182402 -0.184463 0.982839 377.333 -120.873)" fill="black"/>
<rect width="0.675684" height="519.383" rx="0.337842" transform="matrix(0.983224 0.182402 -0.184463 0.982839 358.35 -124.394)" fill="black"/>
<rect width="0.675684" height="519.383" rx="0.337842" transform="matrix(0.983224 0.182402 -0.184463 0.982839 381.129 -120.168)" fill="black"/>
<rect width="0.675684" height="519.383" rx="0.337842" transform="matrix(0.983224 0.182402 -0.184463 0.982839 362.148 -123.689)" fill="black"/>
<rect width="0.675684" height="519.383" rx="0.337842" transform="matrix(0.983224 0.182402 -0.184463 0.982839 384.925 -119.464)" fill="black"/>
<rect width="0.675684" height="519.383" rx="0.337842" transform="matrix(0.983224 0.182402 -0.184463 0.982839 388.721 -118.759)" fill="black"/>
<rect width="0.675684" height="519.383" rx="0.337842" transform="matrix(0.983224 0.182402 -0.184463 0.982839 411.499 -114.534)" fill="black"/>
<rect width="0.675684" height="519.383" rx="0.337842" transform="matrix(0.983224 0.182402 -0.184463 0.982839 392.517 -118.055)" fill="black"/>
<rect width="0.675684" height="519.383" rx="0.337842" transform="matrix(0.983224 0.182402 -0.184463 0.982839 415.296 -113.83)" fill="black"/>
<rect width="0.675684" height="519.383" rx="0.337842" transform="matrix(0.983224 0.182402 -0.184463 0.982839 396.315 -117.351)" fill="black"/>
<rect width="0.675684" height="519.383" rx="0.337842" transform="matrix(0.983224 0.182402 -0.184463 0.982839 419.092 -113.125)" fill="black"/>
<rect width="0.675684" height="519.383" rx="0.337842" transform="matrix(0.983224 0.182402 -0.184463 0.982839 400.11 -116.647)" fill="black"/>
<rect width="0.675684" height="519.383" rx="0.337842" transform="matrix(0.983224 0.182402 -0.184463 0.982839 422.888 -112.421)" fill="black"/>
<rect width="0.675684" height="519.383" rx="0.337842" transform="matrix(0.983224 0.182402 -0.184463 0.982839 403.906 -115.943)" fill="black"/>
<rect width="0.675684" height="519.383" rx="0.337842" transform="matrix(0.983224 0.182402 -0.184463 0.982839 426.684 -111.717)" fill="black"/>
<rect width="0.675684" height="519.383" rx="0.337842" transform="matrix(0.983224 0.182402 -0.184463 0.982839 407.702 -115.238)" fill="black"/>
<rect width="0.675684" height="519.383" rx="0.337842" transform="matrix(0.983224 0.182402 -0.184463 0.982839 430.481 -111.013)" fill="black"/>
<rect width="0.675684" height="519.383" rx="0.337842" transform="matrix(0.983224 0.182402 -0.184463 0.982839 434.277 -110.309)" fill="black"/>
<rect width="0.675684" height="519.383" rx="0.337842" transform="matrix(0.983224 0.182402 -0.184463 0.982839 457.054 -106.083)" fill="black"/>
<rect width="0.675684" height="519.383" rx="0.337842" transform="matrix(0.983224 0.182402 -0.184463 0.982839 438.073 -109.604)" fill="black"/>
<rect width="0.675684" height="519.383" rx="0.337842" transform="matrix(0.983224 0.182402 -0.184463 0.982839 460.85 -105.378)" fill="black"/>
<rect width="0.675684" height="519.383" rx="0.337842" transform="matrix(0.983224 0.182402 -0.184463 0.982839 441.869 -108.9)" fill="black"/>
<rect width="0.675684" height="519.383" rx="0.337842" transform="matrix(0.983224 0.182402 -0.184463 0.982839 464.648 -104.674)" fill="black"/>
<rect width="0.675684" height="519.383" rx="0.337842" transform="matrix(0.983224 0.182402 -0.184463 0.982839 445.665 -108.195)" fill="black"/>
<rect width="0.675684" height="519.383" rx="0.337842" transform="matrix(0.983224 0.182402 -0.184463 0.982839 468.444 -103.97)" fill="black"/>
<rect width="0.675684" height="519.383" rx="0.337842" transform="matrix(0.983224 0.182402 -0.184463 0.982839 449.462 -107.491)" fill="black"/>
<rect width="0.675684" height="519.383" rx="0.337842" transform="matrix(0.983224 0.182402 -0.184463 0.982839 472.24 -103.266)" fill="black"/>
<rect width="0.675684" height="519.383" rx="0.337842" transform="matrix(0.983224 0.182402 -0.184463 0.982839 453.258 -106.787)" fill="black"/>
<rect width="0.675684" height="519.383" rx="0.337842" transform="matrix(0.983224 0.182402 -0.184463 0.982839 476.036 -102.562)" fill="black"/>
<rect width="0.675684" height="519.383" rx="0.337842" transform="matrix(0.983224 0.182402 -0.184463 0.982839 479.832 -101.857)" fill="black"/>
<rect width="0.675684" height="519.383" rx="0.337842" transform="matrix(0.983224 0.182402 -0.184463 0.982839 502.61 -97.6318)" fill="black"/>
<rect width="0.675684" height="519.383" rx="0.337842" transform="matrix(0.983224 0.182402 -0.184463 0.982839 483.629 -101.153)" fill="black"/>
<rect width="0.675684" height="519.383" rx="0.337842" transform="matrix(0.983224 0.182402 -0.184463 0.982839 506.406 -96.9272)" fill="black"/>
<rect width="0.675684" height="519.383" rx="0.337842" transform="matrix(0.983224 0.182402 -0.184463 0.982839 487.425 -100.449)" fill="black"/>
<rect width="0.675684" height="519.383" rx="0.337842" transform="matrix(0.983224 0.182402 -0.184463 0.982839 510.202 -96.2231)" fill="black"/>
<rect width="0.675684" height="519.383" rx="0.337842" transform="matrix(0.983224 0.182402 -0.184463 0.982839 491.221 -99.7441)" fill="black"/>
<rect width="0.675684" height="519.383" rx="0.337842" transform="matrix(0.983224 0.182402 -0.184463 0.982839 513.998 -95.5186)" fill="black"/>
<rect width="0.675684" height="519.383" rx="0.337842" transform="matrix(0.983224 0.182402 -0.184463 0.982839 495.017 -99.04)" fill="black"/>
<rect width="0.675684" height="519.383" rx="0.337842" transform="matrix(0.983224 0.182402 -0.184463 0.982839 517.795 -94.8145)" fill="black"/>
<rect width="0.675684" height="519.383" rx="0.337842" transform="matrix(0.983224 0.182402 -0.184463 0.982839 498.812 -98.3359)" fill="black"/>
<rect width="0.675684" height="519.383" rx="0.337842" transform="matrix(0.983224 0.182402 -0.184463 0.982839 521.592 -94.1104)" fill="black"/>
<rect width="0.675684" height="519.383" rx="0.337842" transform="matrix(0.983224 0.182402 -0.184463 0.982839 525.387 -93.4062)" fill="black"/>
<rect width="0.675684" height="519.383" rx="0.337842" transform="matrix(0.983224 0.182402 -0.184463 0.982839 548.165 -89.1802)" fill="black"/>
<rect width="0.675684" height="519.383" rx="0.337842" transform="matrix(0.983224 0.182402 -0.184463 0.982839 529.184 -92.7017)" fill="black"/>
<rect width="0.675684" height="519.383" rx="0.337842" transform="matrix(0.983224 0.182402 -0.184463 0.982839 551.96 -88.4761)" fill="black"/>
<rect width="0.675684" height="519.383" rx="0.337842" transform="matrix(0.983224 0.182402 -0.184463 0.982839 532.979 -91.9971)" fill="black"/>
<rect width="0.675684" height="519.383" rx="0.337842" transform="matrix(0.983224 0.182402 -0.184463 0.982839 555.759 -87.7715)" fill="black"/>
<rect width="0.675684" height="519.383" rx="0.337842" transform="matrix(0.983224 0.182402 -0.184463 0.982839 536.777 -91.2935)" fill="black"/>
<rect width="0.675684" height="519.383" rx="0.337842" transform="matrix(0.983224 0.182402 -0.184463 0.982839 559.554 -87.0674)" fill="black"/>
<rect width="0.675684" height="519.383" rx="0.337842" transform="matrix(0.983224 0.182402 -0.184463 0.982839 540.573 -90.5889)" fill="black"/>
<rect width="0.675684" height="519.383" rx="0.337842" transform="matrix(0.983224 0.182402 -0.184463 0.982839 563.35 -86.3633)" fill="black"/>
<rect width="0.675684" height="519.383" rx="0.337842" transform="matrix(0.983224 0.182402 -0.184463 0.982839 544.369 -89.8848)" fill="black"/>
<rect width="0.675684" height="519.383" rx="0.337842" transform="matrix(0.983224 0.182402 -0.184463 0.982839 567.146 -85.6592)" fill="black"/>
<rect width="0.675684" height="519.383" rx="0.337842" transform="matrix(0.983224 0.182402 -0.184463 0.982839 570.944 -84.9551)" fill="black"/>
<rect width="0.675684" height="519.383" rx="0.337842" transform="matrix(0.983224 0.182402 -0.184463 0.982839 593.721 -80.7295)" fill="black"/>
<rect width="0.675684" height="519.383" rx="0.337842" transform="matrix(0.983224 0.182402 -0.184463 0.982839 574.74 -84.2505)" fill="black"/>
<rect width="0.675684" height="519.383" rx="0.337842" transform="matrix(0.983224 0.182402 -0.184463 0.982839 597.517 -80.0249)" fill="black"/>
<rect width="0.675684" height="519.383" rx="0.337842" transform="matrix(0.983224 0.182402 -0.184463 0.982839 578.535 -83.5464)" fill="black"/>
<rect width="0.675684" height="519.383" rx="0.337842" transform="matrix(0.983224 0.182402 -0.184463 0.982839 601.312 -79.3208)" fill="black"/>
<rect width="0.675684" height="519.383" rx="0.337842" transform="matrix(0.983224 0.182402 -0.184463 0.982839 582.331 -82.8418)" fill="black"/>
<rect width="0.675684" height="519.383" rx="0.337842" transform="matrix(0.983224 0.182402 -0.184463 0.982839 605.11 -78.6167)" fill="black"/>
<rect width="0.675684" height="519.383" rx="0.337842" transform="matrix(0.983224 0.182402 -0.184463 0.982839 586.127 -82.1377)" fill="black"/>
<rect width="0.675684" height="519.383" rx="0.337842" transform="matrix(0.983224 0.182402 -0.184463 0.982839 608.906 -77.9126)" fill="black"/>
<rect width="0.675684" height="519.383" rx="0.337842" transform="matrix(0.983224 0.182402 -0.184463 0.982839 589.925 -81.4336)" fill="black"/>
<rect width="0.675684" height="519.383" rx="0.337842" transform="matrix(0.983224 0.182402 -0.184463 0.982839 612.702 -77.2075)" fill="black"/>
<rect width="0.675684" height="519.383" rx="0.337842" transform="matrix(0.983224 0.182402 -0.184463 0.982839 616.498 -76.5034)" fill="black"/>
<rect width="0.675684" height="519.383" rx="0.337842" transform="matrix(0.983224 0.182402 -0.184463 0.982839 639.275 -72.2778)" fill="black"/>
<rect width="0.675684" height="519.383" rx="0.337842" transform="matrix(0.983224 0.182402 -0.184463 0.982839 620.293 -75.7993)" fill="black"/>
<rect width="0.675684" height="519.383" rx="0.337842" transform="matrix(0.983224 0.182402 -0.184463 0.982839 643.073 -71.5737)" fill="black"/>
<rect width="0.675684" height="519.383" rx="0.337842" transform="matrix(0.983224 0.182402 -0.184463 0.982839 624.092 -75.0952)" fill="black"/>
<rect width="0.675684" height="519.383" rx="0.337842" transform="matrix(0.983224 0.182402 -0.184463 0.982839 646.869 -70.8696)" fill="black"/>
<rect width="0.675684" height="519.383" rx="0.337842" transform="matrix(0.983224 0.182402 -0.184463 0.982839 627.887 -74.3911)" fill="black"/>
<rect width="0.675684" height="519.383" rx="0.337842" transform="matrix(0.983224 0.182402 -0.184463 0.982839 650.664 -70.1655)" fill="black"/>
<rect width="0.675684" height="519.383" rx="0.337842" transform="matrix(0.983224 0.182402 -0.184463 0.982839 631.683 -73.6865)" fill="black"/>
<rect width="0.675684" height="519.383" rx="0.337842" transform="matrix(0.983224 0.182402 -0.184463 0.982839 654.46 -69.4609)" fill="black"/>
<rect width="0.675684" height="519.383" rx="0.337842" transform="matrix(0.983224 0.182402 -0.184463 0.982839 635.479 -72.9824)" fill="black"/>
<rect width="0.675684" height="519.383" rx="0.337842" transform="matrix(0.983224 0.182402 -0.184463 0.982839 658.258 -68.7568)" fill="black"/>
<rect width="0.675684" height="519.383" rx="0.337842" transform="matrix(0.983224 0.182402 -0.184463 0.982839 684.812 -188.579)" fill="black"/>
<rect width="0.675684" height="519.383" rx="0.337842" transform="matrix(0.983224 0.182402 -0.184463 0.982839 707.589 -184.353)" fill="black"/>
<rect width="0.675684" height="519.383" rx="0.337842" transform="matrix(0.983224 0.182402 -0.184463 0.982839 688.607 -187.875)" fill="black"/>
<rect width="0.675684" height="519.383" rx="0.337842" transform="matrix(0.983224 0.182402 -0.184463 0.982839 711.385 -183.649)" fill="black"/>
<rect width="0.675684" height="519.383" rx="0.337842" transform="matrix(0.983224 0.182402 -0.184463 0.982839 692.404 -187.17)" fill="black"/>
<rect width="0.675684" height="519.383" rx="0.337842" transform="matrix(0.983224 0.182402 -0.184463 0.982839 715.182 -182.945)" fill="black"/>
<rect width="0.675684" height="519.383" rx="0.337842" transform="matrix(0.983224 0.182402 -0.184463 0.982839 696.201 -186.466)" fill="black"/>
<rect width="0.675684" height="519.383" rx="0.337842" transform="matrix(0.983224 0.182402 -0.184463 0.982839 718.978 -182.24)" fill="black"/>
<rect width="0.675684" height="519.383" rx="0.337842" transform="matrix(0.983224 0.182402 -0.184463 0.982839 699.997 -185.762)" fill="black"/>
<rect width="0.675684" height="519.383" rx="0.337842" transform="matrix(0.983224 0.182402 -0.184463 0.982839 722.774 -181.536)" fill="black"/>
<rect width="0.675684" height="519.383" rx="0.337842" transform="matrix(0.983224 0.182402 -0.184463 0.982839 703.793 -185.057)" fill="black"/>
<rect width="0.675684" height="519.383" rx="0.337842" transform="matrix(0.983224 0.182402 -0.184463 0.982839 726.57 -180.832)" fill="black"/>
<rect width="0.675684" height="519.383" rx="0.337842" transform="matrix(0.983224 0.182402 -0.184463 0.982839 730.368 -180.127)" fill="black"/>
<rect width="0.675684" height="519.383" rx="0.337842" transform="matrix(0.983224 0.182402 -0.184463 0.982839 753.145 -175.902)" fill="black"/>
<rect width="0.675684" height="519.383" rx="0.337842" transform="matrix(0.983224 0.182402 -0.184463 0.982839 734.164 -179.423)" fill="black"/>
<rect width="0.675684" height="519.383" rx="0.337842" transform="matrix(0.983224 0.182402 -0.184463 0.982839 756.941 -175.198)" fill="black"/>
<rect width="0.675684" height="519.383" rx="0.337842" transform="matrix(0.983224 0.182402 -0.184463 0.982839 737.959 -178.719)" fill="black"/>
<rect width="0.675684" height="519.383" rx="0.337842" transform="matrix(0.983224 0.182402 -0.184463 0.982839 760.737 -174.493)" fill="black"/>
<rect width="0.675684" height="519.383" rx="0.337842" transform="matrix(0.983224 0.182402 -0.184463 0.982839 741.755 -178.015)" fill="black"/>
<rect width="0.675684" height="519.383" rx="0.337842" transform="matrix(0.983224 0.182402 -0.184463 0.982839 764.532 -173.789)" fill="black"/>
<rect width="0.675684" height="519.383" rx="0.337842" transform="matrix(0.983224 0.182402 -0.184463 0.982839 745.551 -177.311)" fill="black"/>
<rect width="0.675684" height="519.383" rx="0.337842" transform="matrix(0.983224 0.182402 -0.184463 0.982839 768.33 -173.085)" fill="black"/>
<rect width="0.675684" height="519.383" rx="0.337842" transform="matrix(0.983224 0.182402 -0.184463 0.982839 749.349 -176.606)" fill="black"/>
<rect width="0.675684" height="519.383" rx="0.337842" transform="matrix(0.983224 0.182402 -0.184463 0.982839 772.126 -172.381)" fill="black"/>
<rect width="0.675684" height="519.383" rx="0.337842" transform="matrix(0.983224 0.182402 -0.184463 0.982839 775.922 -171.676)" fill="black"/>
<rect width="0.675684" height="519.383" rx="0.337842" transform="matrix(0.983224 0.182402 -0.184463 0.982839 798.699 -167.451)" fill="black"/>
<rect width="0.675684" height="519.383" rx="0.337842" transform="matrix(0.983224 0.182402 -0.184463 0.982839 779.718 -170.972)" fill="black"/>
<rect width="0.675684" height="519.383" rx="0.337842" transform="matrix(0.983224 0.182402 -0.184463 0.982839 802.497 -166.747)" fill="black"/>
<rect width="0.675684" height="519.383" rx="0.337842" transform="matrix(0.983224 0.182402 -0.184463 0.982839 783.515 -170.268)" fill="black"/>
<rect width="0.675684" height="519.383" rx="0.337842" transform="matrix(0.983224 0.182402 -0.184463 0.982839 806.293 -166.042)" fill="black"/>
<rect width="0.675684" height="519.383" rx="0.337842" transform="matrix(0.983224 0.182402 -0.184463 0.982839 787.311 -169.563)" fill="black"/>
<rect width="0.675684" height="519.383" rx="0.337842" transform="matrix(0.983224 0.182402 -0.184463 0.982839 810.088 -165.338)" fill="black"/>
<rect width="0.675684" height="519.383" rx="0.337842" transform="matrix(0.983224 0.182402 -0.184463 0.982839 791.107 -168.859)" fill="black"/>
<rect width="0.675684" height="519.383" rx="0.337842" transform="matrix(0.983224 0.182402 -0.184463 0.982839 813.885 -164.634)" fill="black"/>
<rect width="0.675684" height="519.383" rx="0.337842" transform="matrix(0.983224 0.182402 -0.184463 0.982839 794.903 -168.155)" fill="black"/>
<rect width="0.675684" height="519.383" rx="0.337842" transform="matrix(0.983224 0.182402 -0.184463 0.982839 817.682 -163.93)" fill="black"/>
<rect width="0.675684" height="519.383" rx="0.337842" transform="matrix(0.983224 0.182402 -0.184463 0.982839 821.478 -163.225)" fill="black"/>
<rect width="0.675684" height="519.383" rx="0.337842" transform="matrix(0.983224 0.182402 -0.184463 0.982839 844.255 -159)" fill="black"/>
<rect width="0.675684" height="519.383" rx="0.337842" transform="matrix(0.983224 0.182402 -0.184463 0.982839 825.274 -162.521)" fill="black"/>
<rect width="0.675684" height="519.383" rx="0.337842" transform="matrix(0.983224 0.182402 -0.184463 0.982839 848.051 -158.295)" fill="black"/>
<rect width="0.675684" height="519.383" rx="0.337842" transform="matrix(0.983224 0.182402 -0.184463 0.982839 829.07 -161.817)" fill="black"/>
<rect width="0.675684" height="519.383" rx="0.337842" transform="matrix(0.983224 0.182402 -0.184463 0.982839 851.847 -157.591)" fill="black"/>
<rect width="0.675684" height="519.383" rx="0.337842" transform="matrix(0.983224 0.182402 -0.184463 0.982839 832.866 -161.112)" fill="black"/>
<rect width="0.675684" height="519.383" rx="0.337842" transform="matrix(0.983224 0.182402 -0.184463 0.982839 855.645 -156.887)" fill="black"/>
<rect width="0.675684" height="519.383" rx="0.337842" transform="matrix(0.983224 0.182402 -0.184463 0.982839 836.663 -160.408)" fill="black"/>
<rect width="0.675684" height="519.383" rx="0.337842" transform="matrix(0.983224 0.182402 -0.184463 0.982839 859.441 -156.183)" fill="black"/>
<rect width="0.675684" height="519.383" rx="0.337842" transform="matrix(0.983224 0.182402 -0.184463 0.982839 840.459 -159.704)" fill="black"/>
<rect width="0.675684" height="519.383" rx="0.337842" transform="matrix(0.983224 0.182402 -0.184463 0.982839 863.236 -155.479)" fill="black"/>
<rect width="0.675684" height="519.383" rx="0.337842" transform="matrix(0.983224 0.182402 -0.184463 0.982839 867.032 -154.774)" fill="black"/>
<rect width="0.675684" height="519.383" rx="0.337842" transform="matrix(0.983224 0.182402 -0.184463 0.982839 889.811 -150.548)" fill="black"/>
<rect width="0.675684" height="519.383" rx="0.337842" transform="matrix(0.983224 0.182402 -0.184463 0.982839 870.83 -154.07)" fill="black"/>
<rect width="0.675684" height="519.383" rx="0.337842" transform="matrix(0.983224 0.182402 -0.184463 0.982839 893.607 -149.844)" fill="black"/>
<rect width="0.675684" height="519.383" rx="0.337842" transform="matrix(0.983224 0.182402 -0.184463 0.982839 874.626 -153.366)" fill="black"/>
<rect width="0.675684" height="519.383" rx="0.337842" transform="matrix(0.983224 0.182402 -0.184463 0.982839 897.403 -149.14)" fill="black"/>
<rect width="0.675684" height="519.383" rx="0.337842" transform="matrix(0.983224 0.182402 -0.184463 0.982839 878.422 -152.661)" fill="black"/>
<rect width="0.675684" height="519.383" rx="0.337842" transform="matrix(0.983224 0.182402 -0.184463 0.982839 901.199 -148.436)" fill="black"/>
<rect width="0.675684" height="519.383" rx="0.337842" transform="matrix(0.983224 0.182402 -0.184463 0.982839 882.218 -151.957)" fill="black"/>
<rect width="0.675684" height="519.383" rx="0.337842" transform="matrix(0.983224 0.182402 -0.184463 0.982839 904.994 -147.731)" fill="black"/>
<rect width="0.675684" height="519.383" rx="0.337842" transform="matrix(0.983224 0.182402 -0.184463 0.982839 886.014 -151.252)" fill="black"/>
<rect width="0.675684" height="519.383" rx="0.337842" transform="matrix(0.983224 0.182402 -0.184463 0.982839 908.792 -147.027)" fill="black"/>
<rect width="0.675684" height="519.383" rx="0.337842" transform="matrix(0.983224 0.182402 -0.184463 0.982839 912.588 -146.323)" fill="black"/>
<rect width="0.675684" height="519.383" rx="0.337842" transform="matrix(0.983224 0.182402 -0.184463 0.982839 935.365 -142.097)" fill="black"/>
<rect width="0.675684" height="519.383" rx="0.337842" transform="matrix(0.983224 0.182402 -0.184463 0.982839 916.384 -145.619)" fill="black"/>
<rect width="0.675684" height="519.383" rx="0.337842" transform="matrix(0.983224 0.182402 -0.184463 0.982839 939.162 -141.393)" fill="black"/>
<rect width="0.675684" height="519.383" rx="0.337842" transform="matrix(0.983224 0.182402 -0.184463 0.982839 920.18 -144.914)" fill="black"/>
<rect width="0.675684" height="519.383" rx="0.337842" transform="matrix(0.983224 0.182402 -0.184463 0.982839 942.959 -140.689)" fill="black"/>
<rect width="0.675684" height="519.383" rx="0.337842" transform="matrix(0.983224 0.182402 -0.184463 0.982839 923.978 -144.21)" fill="black"/>
<rect width="0.675684" height="519.383" rx="0.337842" transform="matrix(0.983224 0.182402 -0.184463 0.982839 946.755 -139.984)" fill="black"/>
<rect width="0.675684" height="519.383" rx="0.337842" transform="matrix(0.983224 0.182402 -0.184463 0.982839 927.774 -143.506)" fill="black"/>
<rect width="0.675684" height="519.383" rx="0.337842" transform="matrix(0.983224 0.182402 -0.184463 0.982839 950.551 -139.28)" fill="black"/>
<rect width="0.675684" height="519.383" rx="0.337842" transform="matrix(0.983224 0.182402 -0.184463 0.982839 931.57 -142.801)" fill="black"/>
<rect width="0.675684" height="519.383" rx="0.337842" transform="matrix(0.983224 0.182402 -0.184463 0.982839 954.347 -138.576)" fill="black"/>
<rect width="0.675684" height="519.383" rx="0.337842" transform="matrix(0.983224 0.182402 -0.184463 0.982839 958.144 -137.872)" fill="black"/>
<rect width="0.675684" height="519.383" rx="0.337842" transform="matrix(0.983224 0.182402 -0.184463 0.982839 980.922 -133.646)" fill="black"/>
<rect width="0.675684" height="519.383" rx="0.337842" transform="matrix(0.983224 0.182402 -0.184463 0.982839 961.94 -137.167)" fill="black"/>
<rect width="0.675684" height="519.383" rx="0.337842" transform="matrix(0.983224 0.182402 -0.184463 0.982839 984.718 -132.942)" fill="black"/>
<rect width="0.675684" height="519.383" rx="0.337842" transform="matrix(0.983224 0.182402 -0.184463 0.982839 965.736 -136.463)" fill="black"/>
<rect width="0.675684" height="519.383" rx="0.337842" transform="matrix(0.983224 0.182402 -0.184463 0.982839 988.513 -132.238)" fill="black"/>
<rect width="0.675684" height="519.383" rx="0.337842" transform="matrix(0.983224 0.182402 -0.184463 0.982839 969.532 -135.759)" fill="black"/>
<rect width="0.675684" height="519.383" rx="0.337842" transform="matrix(0.983224 0.182402 -0.184463 0.982839 992.309 -131.533)" fill="black"/>
<rect width="0.675684" height="519.383" rx="0.337842" transform="matrix(0.983224 0.182402 -0.184463 0.982839 973.328 -135.055)" fill="black"/>
<rect width="0.675684" height="519.383" rx="0.337842" transform="matrix(0.983224 0.182402 -0.184463 0.982839 996.107 -130.829)" fill="black"/>
<rect width="0.675684" height="519.383" rx="0.337842" transform="matrix(0.983224 0.182402 -0.184463 0.982839 977.126 -134.351)" fill="black"/>
<rect width="0.675684" height="519.383" rx="0.337842" transform="matrix(0.983224 0.182402 -0.184463 0.982839 999.903 -130.125)" fill="black"/>
<rect width="0.675684" height="519.383" rx="0.337842" transform="matrix(0.983224 0.182402 -0.184463 0.982839 1003.7 -129.42)" fill="black"/>
<rect width="0.675684" height="519.383" rx="0.337842" transform="matrix(0.983224 0.182402 -0.184463 0.982839 1026.48 -125.195)" fill="black"/>
<rect width="0.675684" height="519.383" rx="0.337842" transform="matrix(0.983224 0.182402 -0.184463 0.982839 1007.49 -128.716)" fill="black"/>
<rect width="0.675684" height="519.383" rx="0.337842" transform="matrix(0.983224 0.182402 -0.184463 0.982839 1030.27 -124.491)" fill="black"/>
<rect width="0.675684" height="519.383" rx="0.337842" transform="matrix(0.983224 0.182402 -0.184463 0.982839 1011.29 -128.012)" fill="black"/>
<rect width="0.675684" height="519.383" rx="0.337842" transform="matrix(0.983224 0.182402 -0.184463 0.982839 1034.07 -123.787)" fill="black"/>
<rect width="0.675684" height="519.383" rx="0.337842" transform="matrix(0.983224 0.182402 -0.184463 0.982839 1015.09 -127.308)" fill="black"/>
<rect width="0.675684" height="519.383" rx="0.337842" transform="matrix(0.983224 0.182402 -0.184463 0.982839 1037.87 -123.082)" fill="black"/>
<rect width="0.675684" height="519.383" rx="0.337842" transform="matrix(0.983224 0.182402 -0.184463 0.982839 1018.88 -126.604)" fill="black"/>
<rect width="0.675684" height="519.383" rx="0.337842" transform="matrix(0.983224 0.182402 -0.184463 0.982839 1041.66 -122.378)" fill="black"/>
<rect width="0.675684" height="519.383" rx="0.337842" transform="matrix(0.983224 0.182402 -0.184463 0.982839 1022.68 -125.899)" fill="black"/>
<rect width="0.675684" height="519.383" rx="0.337842" transform="matrix(0.983224 0.182402 -0.184463 0.982839 1045.46 -121.673)" fill="black"/>
<rect width="0.675684" height="519.383" rx="0.337842" transform="matrix(0.983224 0.182402 -0.184463 0.982839 1048.76 -121.061)" fill="black"/>
<rect width="0.675684" height="519.383" rx="0.337842" transform="matrix(0.983224 0.182402 -0.184463 0.982839 1071.54 -116.835)" fill="black"/>
<rect width="0.675684" height="519.383" rx="0.337842" transform="matrix(0.983224 0.182402 -0.184463 0.982839 1052.56 -120.356)" fill="black"/>
<rect width="0.675684" height="519.383" rx="0.337842" transform="matrix(0.983224 0.182402 -0.184463 0.982839 1075.34 -116.131)" fill="black"/>
<rect width="0.675684" height="519.383" rx="0.337842" transform="matrix(0.983224 0.182402 -0.184463 0.982839 1056.35 -119.652)" fill="black"/>
<rect width="0.675684" height="519.383" rx="0.337842" transform="matrix(0.983224 0.182402 -0.184463 0.982839 1079.13 -115.427)" fill="black"/>
<rect width="0.675684" height="519.383" rx="0.337842" transform="matrix(0.983224 0.182402 -0.184463 0.982839 1060.15 -118.948)" fill="black"/>
<rect width="0.675684" height="519.383" rx="0.337842" transform="matrix(0.983224 0.182402 -0.184463 0.982839 1082.93 -114.723)" fill="black"/>
<rect width="0.675684" height="519.383" rx="0.337842" transform="matrix(0.983224 0.182402 -0.184463 0.982839 1063.95 -118.244)" fill="black"/>
<rect width="0.675684" height="519.383" rx="0.337842" transform="matrix(0.983224 0.182402 -0.184463 0.982839 1086.72 -114.018)" fill="black"/>
<rect width="0.675684" height="519.383" rx="0.337842" transform="matrix(0.983224 0.182402 -0.184463 0.982839 1067.74 -117.54)" fill="black"/>
<rect width="0.675684" height="519.383" rx="0.337842" transform="matrix(0.983224 0.182402 -0.184463 0.982839 1090.52 -113.314)" fill="black"/>
<rect width="0.675684" height="519.383" rx="0.337842" transform="matrix(0.983224 0.182402 -0.184463 0.982839 1094.32 -112.61)" fill="black"/>
<rect width="0.675684" height="519.383" rx="0.337842" transform="matrix(0.983224 0.182402 -0.184463 0.982839 1117.09 -108.384)" fill="black"/>
<rect width="0.675684" height="519.383" rx="0.337842" transform="matrix(0.983224 0.182402 -0.184463 0.982839 1098.11 -111.905)" fill="black"/>
<rect width="0.675684" height="519.383" rx="0.337842" transform="matrix(0.983224 0.182402 -0.184463 0.982839 1120.89 -107.68)" fill="black"/>
<rect width="0.675684" height="519.383" rx="0.337842" transform="matrix(0.983224 0.182402 -0.184463 0.982839 1101.91 -111.201)" fill="black"/>
<rect width="0.675684" height="519.383" rx="0.337842" transform="matrix(0.983224 0.182402 -0.184463 0.982839 1124.69 -106.976)" fill="black"/>
<rect width="0.675684" height="519.383" rx="0.337842" transform="matrix(0.983224 0.182402 -0.184463 0.982839 1105.71 -110.497)" fill="black"/>
<rect width="0.675684" height="519.383" rx="0.337842" transform="matrix(0.983224 0.182402 -0.184463 0.982839 1128.48 -106.271)" fill="black"/>
<rect width="0.675684" height="519.383" rx="0.337842" transform="matrix(0.983224 0.182402 -0.184463 0.982839 1109.5 -109.792)" fill="black"/>
<rect width="0.675684" height="519.383" rx="0.337842" transform="matrix(0.983224 0.182402 -0.184463 0.982839 1132.28 -105.567)" fill="black"/>
<rect width="0.675684" height="519.383" rx="0.337842" transform="matrix(0.983224 0.182402 -0.184463 0.982839 1113.3 -109.088)" fill="black"/>
<rect width="0.675684" height="519.383" rx="0.337842" transform="matrix(0.983224 0.182402 -0.184463 0.982839 1136.08 -104.863)" fill="black"/>
<rect width="0.675684" height="519.383" rx="0.337842" transform="matrix(0.983224 0.182402 -0.184463 0.982839 1139.87 -104.158)" fill="black"/>
<rect width="0.675684" height="519.383" rx="0.337842" transform="matrix(0.983224 0.182402 -0.184463 0.982839 1162.65 -99.9331)" fill="black"/>
<rect width="0.675684" height="519.383" rx="0.337842" transform="matrix(0.983224 0.182402 -0.184463 0.982839 1143.67 -103.454)" fill="black"/>
<rect width="0.675684" height="519.383" rx="0.337842" transform="matrix(0.983224 0.182402 -0.184463 0.982839 1166.45 -99.229)" fill="black"/>
<rect width="0.675684" height="519.383" rx="0.337842" transform="matrix(0.983224 0.182402 -0.184463 0.982839 1147.47 -102.75)" fill="black"/>
<rect width="0.675684" height="519.383" rx="0.337842" transform="matrix(0.983224 0.182402 -0.184463 0.982839 1170.24 -98.5244)" fill="black"/>
<rect width="0.675684" height="519.383" rx="0.337842" transform="matrix(0.983224 0.182402 -0.184463 0.982839 1151.26 -102.046)" fill="black"/>
<rect width="0.675684" height="519.383" rx="0.337842" transform="matrix(0.983224 0.182402 -0.184463 0.982839 1174.04 -97.8203)" fill="black"/>
<rect width="0.675684" height="519.383" rx="0.337842" transform="matrix(0.983224 0.182402 -0.184463 0.982839 1155.06 -101.341)" fill="black"/>
<rect width="0.675684" height="519.383" rx="0.337842" transform="matrix(0.983224 0.182402 -0.184463 0.982839 1177.83 -97.1157)" fill="black"/>
<rect width="0.675684" height="519.383" rx="0.337842" transform="matrix(0.983224 0.182402 -0.184463 0.982839 1158.85 -100.637)" fill="black"/>
<rect width="0.675684" height="519.383" rx="0.337842" transform="matrix(0.983224 0.182402 -0.184463 0.982839 1181.63 -96.4116)" fill="black"/>
<rect width="0.675684" height="519.383" rx="0.337842" transform="matrix(0.983224 0.182402 -0.184463 0.982839 1185.43 -95.7075)" fill="black"/>
<rect width="0.675684" height="519.383" rx="0.337842" transform="matrix(0.983224 0.182402 -0.184463 0.982839 1208.21 -91.4819)" fill="black"/>
<rect width="0.675684" height="519.383" rx="0.337842" transform="matrix(0.983224 0.182402 -0.184463 0.982839 1189.22 -95.0029)" fill="black"/>
<rect width="0.675684" height="519.383" rx="0.337842" transform="matrix(0.983224 0.182402 -0.184463 0.982839 1212 -90.7773)" fill="black"/>
<rect width="0.675684" height="519.383" rx="0.337842" transform="matrix(0.983224 0.182402 -0.184463 0.982839 1193.02 -94.2988)" fill="black"/>
<rect width="0.675684" height="519.383" rx="0.337842" transform="matrix(0.983224 0.182402 -0.184463 0.982839 1215.8 -90.0732)" fill="black"/>
<rect width="0.675684" height="519.383" rx="0.337842" transform="matrix(0.983224 0.182402 -0.184463 0.982839 1196.82 -93.5947)" fill="black"/>
<rect width="0.675684" height="519.383" rx="0.337842" transform="matrix(0.983224 0.182402 -0.184463 0.982839 1219.59 -89.3691)" fill="black"/>
<rect width="0.675684" height="519.383" rx="0.337842" transform="matrix(0.983224 0.182402 -0.184463 0.982839 1200.61 -92.8901)" fill="black"/>
<rect width="0.675684" height="519.383" rx="0.337842" transform="matrix(0.983224 0.182402 -0.184463 0.982839 1223.39 -88.6646)" fill="black"/>
<rect width="0.675684" height="519.383" rx="0.337842" transform="matrix(0.983224 0.182402 -0.184463 0.982839 1204.41 -92.186)" fill="black"/>
<rect width="0.675684" height="519.383" rx="0.337842" transform="matrix(0.983224 0.182402 -0.184463 0.982839 1227.19 -87.96)" fill="black"/>
<rect width="0.675684" height="519.383" rx="0.337842" transform="matrix(0.983224 0.182402 -0.184463 0.982839 1230.98 -87.2559)" fill="black"/>
<rect width="0.675684" height="519.383" rx="0.337842" transform="matrix(0.983224 0.182402 -0.184463 0.982839 1253.76 -83.0303)" fill="black"/>
<rect width="0.675684" height="519.383" rx="0.337842" transform="matrix(0.983224 0.182402 -0.184463 0.982839 1234.78 -86.5518)" fill="black"/>
<rect width="0.675684" height="519.383" rx="0.337842" transform="matrix(0.983224 0.182402 -0.184463 0.982839 1257.56 -82.3262)" fill="black"/>
<rect width="0.675684" height="519.383" rx="0.337842" transform="matrix(0.983224 0.182402 -0.184463 0.982839 1238.58 -85.8477)" fill="black"/>
<rect width="0.675684" height="519.383" rx="0.337842" transform="matrix(0.983224 0.182402 -0.184463 0.982839 1261.35 -81.6221)" fill="black"/>
<rect width="0.675684" height="519.383" rx="0.337842" transform="matrix(0.983224 0.182402 -0.184463 0.982839 1242.37 -85.1431)" fill="black"/>
<rect width="0.675684" height="519.383" rx="0.337842" transform="matrix(0.983224 0.182402 -0.184463 0.982839 1265.15 -80.9175)" fill="black"/>
<rect width="0.675684" height="519.383" rx="0.337842" transform="matrix(0.983224 0.182402 -0.184463 0.982839 1246.17 -84.439)" fill="black"/>
<rect width="0.675684" height="519.383" rx="0.337842" transform="matrix(0.983224 0.182402 -0.184463 0.982839 1268.95 -80.2134)" fill="black"/>
<rect width="0.675684" height="519.383" rx="0.337842" transform="matrix(0.983224 0.182402 -0.184463 0.982839 1249.96 -83.7349)" fill="black"/>
<rect width="0.675684" height="519.383" rx="0.337842" transform="matrix(0.983224 0.182402 -0.184463 0.982839 1272.74 -79.5093)" fill="black"/>
<rect width="0.675684" height="519.383" rx="0.337842" transform="matrix(0.983224 0.182402 -0.184463 0.982839 1276.54 -78.8052)" fill="black"/>
<rect width="0.675684" height="519.383" rx="0.337842" transform="matrix(0.983224 0.182402 -0.184463 0.982839 1299.32 -74.5791)" fill="black"/>
<rect width="0.675684" height="519.383" rx="0.337842" transform="matrix(0.983224 0.182402 -0.184463 0.982839 1280.33 -78.1006)" fill="black"/>
<rect width="0.675684" height="519.383" rx="0.337842" transform="matrix(0.983224 0.182402 -0.184463 0.982839 1303.11 -73.875)" fill="black"/>
<rect width="0.675684" height="519.383" rx="0.337842" transform="matrix(0.983224 0.182402 -0.184463 0.982839 1284.13 -77.3965)" fill="black"/>
<rect width="0.675684" height="519.383" rx="0.337842" transform="matrix(0.983224 0.182402 -0.184463 0.982839 1306.91 -73.1709)" fill="black"/>
<rect width="0.675684" height="519.383" rx="0.337842" transform="matrix(0.983224 0.182402 -0.184463 0.982839 1287.93 -76.6924)" fill="black"/>
<rect width="0.675684" height="519.383" rx="0.337842" transform="matrix(0.983224 0.182402 -0.184463 0.982839 1310.7 -72.4663)" fill="black"/>
<rect width="0.675684" height="519.383" rx="0.337842" transform="matrix(0.983224 0.182402 -0.184463 0.982839 1291.72 -75.9878)" fill="black"/>
<rect width="0.675684" height="519.383" rx="0.337842" transform="matrix(0.983224 0.182402 -0.184463 0.982839 1314.5 -71.7622)" fill="black"/>
<rect width="0.675684" height="519.383" rx="0.337842" transform="matrix(0.983224 0.182402 -0.184463 0.982839 1295.52 -75.2837)" fill="black"/>
<rect width="0.675684" height="519.383" rx="0.337842" transform="matrix(0.983224 0.182402 -0.184463 0.982839 1318.3 -71.0581)" fill="black"/>
<rect width="0.675684" height="519.383" rx="0.337842" transform="matrix(0.983224 0.182402 -0.184463 0.982839 1322.09 -70.354)" fill="black"/>
<rect width="0.675684" height="519.383" rx="0.337842" transform="matrix(0.983224 0.182402 -0.184463 0.982839 1344.87 -66.1284)" fill="black"/>
<rect width="0.675684" height="519.383" rx="0.337842" transform="matrix(0.983224 0.182402 -0.184463 0.982839 1325.89 -69.6494)" fill="black"/>
<rect width="0.675684" height="519.383" rx="0.337842" transform="matrix(0.983224 0.182402 -0.184463 0.982839 1348.67 -65.4238)" fill="black"/>
<rect width="0.675684" height="519.383" rx="0.337842" transform="matrix(0.983224 0.182402 -0.184463 0.982839 1329.69 -68.9453)" fill="black"/>
<rect width="0.675684" height="519.383" rx="0.337842" transform="matrix(0.983224 0.182402 -0.184463 0.982839 1352.46 -64.7197)" fill="black"/>
<rect width="0.675684" height="519.383" rx="0.337842" transform="matrix(0.983224 0.182402 -0.184463 0.982839 1333.48 -68.2412)" fill="black"/>
<rect width="0.675684" height="519.383" rx="0.337842" transform="matrix(0.983224 0.182402 -0.184463 0.982839 1356.26 -64.0156)" fill="black"/>
<rect width="0.675684" height="519.383" rx="0.337842" transform="matrix(0.983224 0.182402 -0.184463 0.982839 1337.28 -67.5366)" fill="black"/>
<rect width="0.675684" height="519.383" rx="0.337842" transform="matrix(0.983224 0.182402 -0.184463 0.982839 1360.06 -63.311)" fill="black"/>
<rect width="0.675684" height="519.383" rx="0.337842" transform="matrix(0.983224 0.182402 -0.184463 0.982839 1341.08 -66.8325)" fill="black"/>
<rect width="0.675684" height="519.383" rx="0.337842" transform="matrix(0.983224 0.182402 -0.184463 0.982839 1363.85 -62.6069)" fill="black"/>
<rect width="0.675684" height="519.383" rx="0.337842" transform="matrix(0.983224 0.182402 -0.184463 0.982839 1367.65 -61.9023)" fill="black"/>
<rect width="0.675684" height="519.383" rx="0.337842" transform="matrix(0.983224 0.182402 -0.184463 0.982839 1390.43 -57.6768)" fill="black"/>
<rect width="0.675684" height="519.383" rx="0.337842" transform="matrix(0.983224 0.182402 -0.184463 0.982839 1371.44 -61.1982)" fill="black"/>
<rect width="0.675684" height="519.383" rx="0.337842" transform="matrix(0.983224 0.182402 -0.184463 0.982839 1394.22 -56.9727)" fill="black"/>
<rect width="0.675684" height="519.383" rx="0.337842" transform="matrix(0.983224 0.182402 -0.184463 0.982839 1375.24 -60.4941)" fill="black"/>
<rect width="0.675684" height="519.383" rx="0.337842" transform="matrix(0.983224 0.182402 -0.184463 0.982839 1398.02 -56.2686)" fill="black"/>
<rect width="0.675684" height="519.383" rx="0.337842" transform="matrix(0.983224 0.182402 -0.184463 0.982839 1379.04 -59.7896)" fill="black"/>
<rect width="0.675684" height="519.383" rx="0.337842" transform="matrix(0.983224 0.182402 -0.184463 0.982839 1401.82 -55.5645)" fill="black"/>
<rect width="0.675684" height="519.383" rx="0.337842" transform="matrix(0.983224 0.182402 -0.184463 0.982839 1382.83 -59.0854)" fill="black"/>
<rect width="0.675684" height="519.383" rx="0.337842" transform="matrix(0.983224 0.182402 -0.184463 0.982839 1405.61 -54.8599)" fill="black"/>
<rect width="0.675684" height="519.383" rx="0.337842" transform="matrix(0.983224 0.182402 -0.184463 0.982839 1386.63 -58.3813)" fill="black"/>
<rect width="0.675684" height="519.383" rx="0.337842" transform="matrix(0.983224 0.182402 -0.184463 0.982839 1409.41 -54.1558)" fill="black"/>
<rect width="0.675684" height="519.383" rx="0.337842" transform="matrix(0.983224 0.182402 -0.184463 0.982839 1413.07 -52.7588)" fill="black"/>
<rect width="0.675684" height="519.383" rx="0.337842" transform="matrix(0.983224 0.182402 -0.184463 0.982839 1435.85 -48.5332)" fill="black"/>
<rect width="0.675684" height="519.383" rx="0.337842" transform="matrix(0.983224 0.182402 -0.184463 0.982839 1416.87 -52.0547)" fill="black"/>
<rect width="0.675684" height="519.383" rx="0.337842" transform="matrix(0.983224 0.182402 -0.184463 0.982839 1439.64 -47.8291)" fill="black"/>
<rect width="0.675684" height="519.383" rx="0.337842" transform="matrix(0.983224 0.182402 -0.184463 0.982839 1420.66 -51.3501)" fill="black"/>
<rect width="0.675684" height="519.383" rx="0.337842" transform="matrix(0.983224 0.182402 -0.184463 0.982839 1443.44 -47.125)" fill="black"/>
<rect width="0.675684" height="519.383" rx="0.337842" transform="matrix(0.983224 0.182402 -0.184463 0.982839 1424.46 -50.646)" fill="black"/>
<rect width="0.675684" height="519.383" rx="0.337842" transform="matrix(0.983224 0.182402 -0.184463 0.982839 1447.24 -46.4204)" fill="black"/>
<rect width="0.675684" height="519.383" rx="0.337842" transform="matrix(0.983224 0.182402 -0.184463 0.982839 1428.26 -49.9419)" fill="black"/>
<rect width="0.675684" height="519.383" rx="0.337842" transform="matrix(0.983224 0.182402 -0.184463 0.982839 1451.03 -45.7163)" fill="black"/>
<rect width="0.675684" height="519.383" rx="0.337842" transform="matrix(0.983224 0.182402 -0.184463 0.982839 1432.05 -49.2378)" fill="black"/>
<rect width="0.675684" height="519.383" rx="0.337842" transform="matrix(0.983224 0.182402 -0.184463 0.982839 1454.83 -45.0122)" fill="black"/>
<rect width="0.675684" height="519.383" rx="0.337842" transform="matrix(0.983224 0.182402 -0.184463 0.982839 1458.63 -44.3076)" fill="black"/>
<rect width="0.675684" height="519.383" rx="0.337842" transform="matrix(0.983224 0.182402 -0.184463 0.982839 1481.4 -40.082)" fill="black"/>
<rect width="0.675684" height="519.383" rx="0.337842" transform="matrix(0.983224 0.182402 -0.184463 0.982839 1462.42 -43.6035)" fill="black"/>
<rect width="0.675684" height="519.383" rx="0.337842" transform="matrix(0.983224 0.182402 -0.184463 0.982839 1485.2 -39.3779)" fill="black"/>
<rect width="0.675684" height="519.383" rx="0.337842" transform="matrix(0.983224 0.182402 -0.184463 0.982839 1466.22 -42.8994)" fill="black"/>
<rect width="0.675684" height="519.383" rx="0.337842" transform="matrix(0.983224 0.182402 -0.184463 0.982839 1488.99 -38.6733)" fill="black"/>
<rect width="0.675684" height="519.383" rx="0.337842" transform="matrix(0.983224 0.182402 -0.184463 0.982839 1470.01 -42.1948)" fill="black"/>
<rect width="0.675684" height="519.383" rx="0.337842" transform="matrix(0.983224 0.182402 -0.184463 0.982839 1492.79 -37.9692)" fill="black"/>
<rect width="0.675684" height="519.383" rx="0.337842" transform="matrix(0.983224 0.182402 -0.184463 0.982839 1473.81 -41.4907)" fill="black"/>
<rect width="0.675684" height="519.383" rx="0.337842" transform="matrix(0.983224 0.182402 -0.184463 0.982839 1496.59 -37.2651)" fill="black"/>
<rect width="0.675684" height="519.383" rx="0.337842" transform="matrix(0.983224 0.182402 -0.184463 0.982839 1477.61 -40.7866)" fill="black"/>
<rect width="0.675684" height="519.383" rx="0.337842" transform="matrix(0.983224 0.182402 -0.184463 0.982839 1500.38 -36.5605)" fill="black"/>
<rect width="0.675684" height="519.383" rx="0.337842" transform="matrix(0.983224 0.182402 -0.184463 0.982839 1504.18 -35.8564)" fill="black"/>
<rect width="0.675684" height="519.383" rx="0.337842" transform="matrix(0.983224 0.182402 -0.184463 0.982839 1526.96 -31.6309)" fill="black"/>
<rect width="0.675684" height="519.383" rx="0.337842" transform="matrix(0.983224 0.182402 -0.184463 0.982839 1507.98 -35.1523)" fill="black"/>
<rect width="0.675684" height="519.383" rx="0.337842" transform="matrix(0.983224 0.182402 -0.184463 0.982839 1530.76 -30.9268)" fill="black"/>
<rect width="0.675684" height="519.383" rx="0.337842" transform="matrix(0.983224 0.182402 -0.184463 0.982839 1511.77 -34.4478)" fill="black"/>
<rect width="0.675684" height="519.383" rx="0.337842" transform="matrix(0.983224 0.182402 -0.184463 0.982839 1534.55 -30.2227)" fill="black"/>
<rect width="0.675684" height="519.383" rx="0.337842" transform="matrix(0.983224 0.182402 -0.184463 0.982839 1515.57 -33.7437)" fill="black"/>
<rect width="0.675684" height="519.383" rx="0.337842" transform="matrix(0.983224 0.182402 -0.184463 0.982839 1538.35 -29.5181)" fill="black"/>
<rect width="0.675684" height="519.383" rx="0.337842" transform="matrix(0.983224 0.182402 -0.184463 0.982839 1519.37 -33.0396)" fill="black"/>
<rect width="0.675684" height="519.383" rx="0.337842" transform="matrix(0.983224 0.182402 -0.184463 0.982839 1542.14 -28.8135)" fill="black"/>
<rect width="0.675684" height="519.383" rx="0.337842" transform="matrix(0.983224 0.182402 -0.184463 0.982839 1523.16 -32.335)" fill="black"/>
<rect width="0.675684" height="519.383" rx="0.337842" transform="matrix(0.983224 0.182402 -0.184463 0.982839 1545.94 -28.1099)" fill="black"/>
<rect width="0.675684" height="519.383" rx="0.337842" transform="matrix(0.983224 0.182402 -0.184463 0.982839 1549.74 -27.4053)" fill="black"/>
<rect width="0.675684" height="519.383" rx="0.337842" transform="matrix(0.983224 0.182402 -0.184463 0.982839 1572.51 -23.1797)" fill="black"/>
<rect width="0.675684" height="519.383" rx="0.337842" transform="matrix(0.983224 0.182402 -0.184463 0.982839 1553.53 -26.7012)" fill="black"/>
<rect width="0.675684" height="519.383" rx="0.337842" transform="matrix(0.983224 0.182402 -0.184463 0.982839 1576.31 -22.4756)" fill="black"/>
<rect width="0.675684" height="519.383" rx="0.337842" transform="matrix(0.983224 0.182402 -0.184463 0.982839 1557.33 -25.9971)" fill="black"/>
<rect width="0.675684" height="519.383" rx="0.337842" transform="matrix(0.983224 0.182402 -0.184463 0.982839 1580.1 -21.7715)" fill="black"/>
<rect width="0.675684" height="519.383" rx="0.337842" transform="matrix(0.983224 0.182402 -0.184463 0.982839 1561.12 -25.2925)" fill="black"/>
<rect width="0.675684" height="519.383" rx="0.337842" transform="matrix(0.983224 0.182402 -0.184463 0.982839 1583.9 -21.0669)" fill="black"/>
<rect width="0.675684" height="519.383" rx="0.337842" transform="matrix(0.983224 0.182402 -0.184463 0.982839 1564.92 -24.5884)" fill="black"/>
<rect width="0.675684" height="519.383" rx="0.337842" transform="matrix(0.983224 0.182402 -0.184463 0.982839 1587.7 -20.3628)" fill="black"/>
<rect width="0.675684" height="519.383" rx="0.337842" transform="matrix(0.983224 0.182402 -0.184463 0.982839 1568.72 -23.8838)" fill="black"/>
<rect width="0.675684" height="519.383" rx="0.337842" transform="matrix(0.983224 0.182402 -0.184463 0.982839 1591.49 -19.6587)" fill="black"/>
<rect width="0.675684" height="519.383" rx="0.337842" transform="matrix(0.983224 0.182402 -0.184463 0.982839 1595.29 -18.9541)" fill="black"/>
</g>
</svg>
