<svg width="282" height="241" viewBox="0 0 282 241" fill="none" xmlns="http://www.w3.org/2000/svg">
<mask id="path-1-inside-1_508_14285" fill="white">
<path fill-rule="evenodd" clip-rule="evenodd" d="M124.061 277.359L4.64941 277.359L-0.236664 277.359C-0.236664 257.727 -3.99622 238.286 -11.3007 220.148C-18.6051 202.009 -29.3114 185.529 -42.8082 171.646C-56.305 157.764 -72.3281 146.752 -89.9626 139.238C-107.597 131.725 -126.498 127.858 -145.585 127.858L-145.585 0.00927734C-110.175 0.00927777 -75.1109 7.18314 -42.3959 21.1213C-9.68098 35.0594 20.0446 55.4889 45.0835 81.2432C52.9484 89.3329 60.3026 97.8981 67.1108 106.885C73.0038 99.8635 79.2679 93.1226 85.8834 86.6909C111.638 61.652 142.213 41.79 175.862 28.239C209.512 14.688 245.577 7.71344 282 7.71345L282 132.011C262.367 132.011 242.926 135.771 224.788 143.075C206.65 150.38 190.169 161.086 176.286 174.583C162.404 188.079 151.392 204.103 143.879 221.737C136.365 239.371 132.498 258.272 132.498 277.359L124.061 277.359Z"/>
</mask>
<path d="M4.64941 277.359L4.64941 276.359L4.64941 277.359ZM124.061 277.359L124.061 278.359L124.061 277.359ZM-0.236664 277.359L-1.23666 277.359L-1.23666 278.359L-0.236664 278.359L-0.236664 277.359ZM-11.3007 220.148L-12.2283 220.521L-11.3007 220.148ZM-42.8082 171.646L-42.0912 170.949L-42.8082 171.646ZM-89.9626 139.238L-90.3545 140.158L-89.9626 139.238ZM-145.585 127.858L-146.585 127.858L-146.585 128.858L-145.585 128.858L-145.585 127.858ZM-145.585 0.00927734L-145.585 -0.990723L-146.585 -0.990723L-146.585 0.00927733L-145.585 0.00927734ZM-42.3959 21.1213L-42.004 20.2013L-42.3959 21.1213ZM45.0835 81.2432L45.8005 80.5461L45.0835 81.2432ZM67.1108 106.885L66.3137 107.489L67.0708 108.488L67.8768 107.528L67.1108 106.885ZM85.8834 86.6909L86.5805 87.4079L85.8834 86.6909ZM175.862 28.239L176.236 29.1666L175.862 28.239ZM282 7.71345L283 7.71345L283 6.71345L282 6.71345L282 7.71345ZM282 132.011L282 133.011L283 133.011L283 132.011L282 132.011ZM224.788 143.075L225.161 144.003L224.788 143.075ZM176.286 174.583L175.589 173.866L176.286 174.583ZM143.879 221.737L144.799 222.129L143.879 221.737ZM132.498 277.359L132.498 278.359L133.498 278.359L133.498 277.359L132.498 277.359ZM4.64941 278.359L124.061 278.359L124.061 276.359L4.64941 276.359L4.64941 278.359ZM-0.236664 278.359L4.64941 278.359L4.64941 276.359L-0.236664 276.359L-0.236664 278.359ZM-12.2283 220.521C-4.97183 238.54 -1.23666 257.854 -1.23666 277.359L0.763336 277.359C0.763336 257.599 -3.0206 238.032 -10.373 219.774L-12.2283 220.521ZM-43.5252 172.343C-30.1198 186.132 -19.4847 202.502 -12.2283 220.521L-10.373 219.774C-17.7255 201.517 -28.5029 184.926 -42.0912 170.949L-43.5252 172.343ZM-90.3545 140.158C-72.8434 147.619 -56.9305 158.555 -43.5252 172.343L-42.0912 170.949C-55.6796 156.972 -71.8128 145.884 -89.5706 138.318L-90.3545 140.158ZM-145.585 128.858C-126.633 128.858 -107.866 132.698 -90.3545 140.158L-89.5706 138.318C-107.328 130.753 -126.362 126.858 -145.585 126.858L-145.585 128.858ZM-146.585 0.00927733L-146.585 127.858L-144.585 127.858L-144.585 0.00927736L-146.585 0.00927733ZM-42.004 20.2013C-74.8423 6.21057 -110.039 -0.990722 -145.585 -0.990723L-145.585 1.00928C-110.31 1.00928 -75.3794 8.1557 -42.7879 22.0413L-42.004 20.2013ZM45.8005 80.5461C20.67 54.6977 -9.16571 34.192 -42.004 20.2013L-42.7879 22.0413C-10.1963 35.9269 19.4191 56.2801 44.3665 81.9403L45.8005 80.5461ZM67.9079 106.281C61.075 97.2618 53.6942 88.6654 45.8005 80.5461L44.3665 81.9403C52.2027 90.0004 59.5301 98.5345 66.3137 107.489L67.9079 106.281ZM85.1863 85.9739C78.5467 92.4291 72.2596 99.1947 66.3448 106.242L67.8768 107.528C73.7481 100.532 79.9892 93.8161 86.5805 87.4079L85.1863 85.9739ZM175.489 27.3114C141.72 40.9104 111.035 60.8435 85.1863 85.9739L86.5805 87.4079C112.241 62.4604 142.705 42.6696 176.236 29.1666L175.489 27.3114ZM282 6.71345C245.45 6.71344 209.258 13.7124 175.489 27.3114L176.236 29.1666C209.766 15.6636 245.705 8.71344 282 8.71345L282 6.71345ZM283 132.011L283 7.71345L281 7.71345L281 132.011L283 132.011ZM225.161 144.003C243.181 136.746 262.494 133.011 282 133.011L282 131.011C262.239 131.011 242.672 134.795 224.414 142.147L225.161 144.003ZM176.983 175.3C190.772 161.894 207.142 151.259 225.161 144.003L224.414 142.147C206.157 149.5 189.566 160.277 175.589 173.866L176.983 175.3ZM144.799 222.129C152.259 204.618 163.195 188.705 176.983 175.3L175.589 173.866C161.613 187.454 150.524 203.587 142.959 221.345L144.799 222.129ZM133.498 277.359C133.498 258.407 137.338 239.64 144.799 222.129L142.959 221.345C135.393 239.103 131.498 258.137 131.498 277.359L133.498 277.359ZM124.061 278.359L132.498 278.359L132.498 276.359L124.061 276.359L124.061 278.359Z" fill="#FF6644" mask="url(#path-1-inside-1_508_14285)"/>
</svg>
