<svg width="336" height="866" viewBox="0 0 336 866" fill="none" xmlns="http://www.w3.org/2000/svg">
<path d="M95.3184 499.579H216.156M216.156 499.579V866M216.156 499.579H229.844" stroke="#FF9264"/>
<path d="M94.3745 478.55H229.372V499.09" stroke="#FF9264"/>
<path d="M178 500V866" stroke="#FF9264"/>
<path d="M136 500V762.639V866" stroke="#FF9264"/>
<path d="M-23 864.613L15.9611 424.749M15.9611 424.749L33.2269 865.886M15.9611 424.749H90.7796M67.7603 865.886L90.7796 424.749M90.7796 424.749L123.718 865.886" stroke="#FF9264"/>
<path d="M25.688 424.749V417.434H80.3551V424.749" stroke="#FF9264"/>
<path d="M34.8608 417.326V409.892H72.057V417.326" stroke="#FF9264"/>
<path d="M54.5189 369L67.924 409.892H40.0269L54.5189 369Z" stroke="#FF9264"/>
<path d="M318.342 263.684C321.086 264.598 326.713 267.8 327.262 273.29C327.811 268.898 332.98 265.056 335.495 263.684" stroke="#FF6625" stroke-width="1.5"/>
<path d="M318.342 263.684C321.086 264.598 326.713 267.8 327.262 273.29C327.811 268.898 332.98 265.056 335.495 263.684" stroke="#FF6625" stroke-width="1.5"/>
<path d="M289.524 251.333C292.269 252.248 297.895 255.45 298.444 260.939C298.993 256.548 304.162 252.705 306.678 251.333" stroke="#FF6625" stroke-width="1.5"/>
<path d="M175.573 150.941H121.287C121.287 147.354 123.341 139.595 131.557 137.247C138.893 135.151 144.762 139.693 146.229 142.627C147.696 140.019 152.098 133.335 162.368 135.291C171.059 136.946 174.432 145.724 175.573 150.941Z" stroke="#FF6625"/>
<path d="M238.977 16.9126H207.047C207.388 8.38957 214.405 1.58457 223.012 1.58457C231.619 1.58457 238.636 8.38957 238.977 16.9126Z" stroke="#FF6625" stroke-width="1.3"/>
</svg>
