<svg width="124" height="191" viewBox="0 0 124 191" fill="none" xmlns="http://www.w3.org/2000/svg">
<g opacity="0.6">
<mask id="path-1-inside-1_187_4056" fill="white">
<path fill-rule="evenodd" clip-rule="evenodd" d="M0.000154379 120.032C8.16334e-05 120.032 8.88755e-06 120.032 -6.38583e-05 120.032L-6.38583e-05 64.799C8.7239 64.799 17.3624 63.1284 25.4223 59.8826C33.4822 56.6368 40.8056 51.8794 46.9744 45.882C53.1432 39.8846 58.0365 32.7646 61.375 24.9286C64.7135 17.0926 66.4319 8.69404 66.4319 0.21241L123.243 0.212408C123.243 15.9473 120.055 31.5281 113.861 46.0652C107.668 60.6023 98.5897 73.8111 87.1456 84.9374C83.551 88.4321 79.7451 91.6998 75.7519 94.725C78.8719 97.3436 81.8672 100.127 84.7251 103.067C95.8513 114.511 104.677 128.097 110.699 143.049C116.72 158.002 119.819 174.028 119.819 190.212L64.5867 190.212C64.5867 181.488 62.9162 172.85 59.6704 164.79C56.4246 156.73 51.6672 149.407 45.6698 143.238C39.6723 137.069 32.5524 132.176 24.7164 128.837C16.8804 125.499 8.48179 123.78 0.000154375 123.78L0.000154379 120.032Z"/>
</mask>
<path fill-rule="evenodd" clip-rule="evenodd" d="M0.000154379 120.032C8.16334e-05 120.032 8.88755e-06 120.032 -6.38583e-05 120.032L-6.38583e-05 64.799C8.7239 64.799 17.3624 63.1284 25.4223 59.8826C33.4822 56.6368 40.8056 51.8794 46.9744 45.882C53.1432 39.8846 58.0365 32.7646 61.375 24.9286C64.7135 17.0926 66.4319 8.69404 66.4319 0.21241L123.243 0.212408C123.243 15.9473 120.055 31.5281 113.861 46.0652C107.668 60.6023 98.5897 73.8111 87.1456 84.9374C83.551 88.4321 79.7451 91.6998 75.7519 94.725C78.8719 97.3436 81.8672 100.127 84.7251 103.067C95.8513 114.511 104.677 128.097 110.699 143.049C116.72 158.002 119.819 174.028 119.819 190.212L64.5867 190.212C64.5867 181.488 62.9162 172.85 59.6704 164.79C56.4246 156.73 51.6672 149.407 45.6698 143.238C39.6723 137.069 32.5524 132.176 24.7164 128.837C16.8804 125.499 8.48179 123.78 0.000154375 123.78L0.000154379 120.032Z" fill="#FF4D00"/>
<path d="M-6.38583e-05 120.032L-1.00006 120.032L-1.00006 121.032L-6.3902e-05 121.032L-6.38583e-05 120.032ZM0.000154379 120.032L1.00015 120.032L1.00015 119.032L0.000154423 119.032L0.000154379 120.032ZM-6.38583e-05 64.799L-6.38146e-05 63.799L-1.00006 63.799L-1.00006 64.799L-6.38583e-05 64.799ZM25.4223 59.8826L25.7959 60.8102L25.7959 60.8102L25.4223 59.8826ZM46.9744 45.882L46.2773 45.165L46.2773 45.165L46.9744 45.882ZM61.375 24.9286L62.295 25.3206L62.295 25.3206L61.375 24.9286ZM66.4319 0.21241L66.4319 -0.78759L65.4319 -0.78759L65.4319 0.21241L66.4319 0.21241ZM123.243 0.212408L124.243 0.212408L124.243 -0.787592L123.243 -0.787592L123.243 0.212408ZM113.861 46.0652L112.941 45.6733L112.941 45.6733L113.861 46.0652ZM87.1456 84.9374L86.4485 84.2204L86.4485 84.2204L87.1456 84.9374ZM75.7519 94.725L75.1481 93.9279L74.1488 94.685L75.1091 95.491L75.7519 94.725ZM84.7251 103.067L84.0081 103.764L84.0081 103.764L84.7251 103.067ZM110.699 143.049L111.626 142.676L111.626 142.676L110.699 143.049ZM119.819 190.212L119.819 191.212L120.819 191.212L120.819 190.212L119.819 190.212ZM64.5867 190.212L63.5867 190.212L63.5867 191.212L64.5867 191.212L64.5867 190.212ZM59.6704 164.79L60.598 164.416L60.598 164.416L59.6704 164.79ZM45.6698 143.238L44.9528 143.935L44.9528 143.935L45.6698 143.238ZM24.7164 128.837L24.3244 129.757L24.3244 129.757L24.7164 128.837ZM0.000154375 123.78L-0.999846 123.78L-0.999846 124.78L0.000154331 124.78L0.000154375 123.78ZM-6.3902e-05 121.032C-2.75333e-05 121.032 8.83759e-06 121.032 4.52105e-05 121.032C8.15835e-05 121.032 0.000117958 121.032 0.000154336 121.032L0.000154423 119.032C0.000118054 119.032 8.16834e-05 119.032 4.53105e-05 119.032C8.93751e-06 119.032 -2.74375e-05 119.032 -6.38146e-05 119.032L-6.3902e-05 121.032ZM-1.00006 64.799L-1.00006 120.032L0.999936 120.032L0.999936 64.799L-1.00006 64.799ZM25.0488 58.955C17.1081 62.1528 8.59643 63.799 -6.38146e-05 63.799L-6.3902e-05 65.799C8.85137 65.799 17.6168 64.104 25.7959 60.8102L25.0488 58.955ZM46.2773 45.165C40.2026 51.071 32.9894 55.7573 25.0488 58.955L25.7959 60.8102C33.975 57.5164 41.4086 52.6879 47.6715 46.599L46.2773 45.165ZM60.455 24.5367C57.1691 32.2494 52.352 39.2591 46.2773 45.165L47.6715 46.599C53.9344 40.5101 58.904 33.2799 62.295 25.3206L60.455 24.5367ZM65.4319 0.21241C65.4319 8.55875 63.741 16.8241 60.455 24.5367L62.295 25.3206C65.6861 17.3612 67.4319 8.82934 67.4319 0.21241L65.4319 0.21241ZM123.243 -0.787592L66.4319 -0.78759L66.4319 1.21241L123.243 1.21241L123.243 -0.787592ZM114.781 46.4572C121.027 31.7967 124.243 16.0826 124.243 0.212408L122.243 0.212408C122.243 15.812 119.082 31.2595 112.941 45.6733L114.781 46.4572ZM87.8427 85.6543C99.3809 74.4366 108.535 61.1176 114.781 46.4572L112.941 45.6733C106.8 60.0871 97.7985 73.1856 86.4485 84.2204L87.8427 85.6543ZM76.3558 95.5221C80.3815 92.4723 84.2185 89.1778 87.8427 85.6543L86.4485 84.2204C82.8835 87.6863 79.1088 90.9274 75.1481 93.9279L76.3558 95.5221ZM85.4421 102.37C82.5607 99.4058 79.5406 96.5993 76.3948 93.9591L75.1091 95.491C78.2031 98.0878 81.1737 100.848 84.0081 103.764L85.4421 102.37ZM111.626 142.676C105.557 127.604 96.6598 113.908 85.4421 102.37L84.0081 103.764C95.0429 115.114 103.798 128.59 109.771 143.423L111.626 142.676ZM120.819 190.212C120.819 173.9 117.696 157.748 111.626 142.676L109.771 143.423C115.744 158.256 118.819 174.155 118.819 190.212L120.819 190.212ZM64.5867 191.212L119.819 191.212L119.819 189.212L64.5867 189.212L64.5867 191.212ZM58.7428 165.163C61.9405 173.104 63.5867 181.616 63.5867 190.212L65.5867 190.212C65.5867 181.361 63.8918 172.595 60.598 164.416L58.7428 165.163ZM44.9528 143.935C50.8587 150.01 55.545 157.223 58.7428 165.163L60.598 164.416C57.3042 156.237 52.4757 148.804 46.3868 142.541L44.9528 143.935ZM24.3244 129.757C32.0371 133.043 39.0469 137.86 44.9528 143.935L46.3868 142.541C40.2978 136.278 33.0677 131.308 25.1083 127.917L24.3244 129.757ZM0.000154331 124.78C8.34649 124.78 16.6118 126.471 24.3244 129.757L25.1083 127.917C17.1489 124.526 8.61708 122.78 0.000154418 122.78L0.000154331 124.78ZM-0.999846 120.032L-0.999846 123.78L1.00015 123.78L1.00015 120.032L-0.999846 120.032Z" fill="#FF6644" mask="url(#path-1-inside-1_187_4056)"/>
</g>
</svg>
