<svg width="69" height="222" viewBox="0 0 69 222" fill="none" xmlns="http://www.w3.org/2000/svg">
<g style="mix-blend-mode:color-dodge" opacity="0.5">
<mask id="path-1-inside-1_187_3877" fill="white">
<path fill-rule="evenodd" clip-rule="evenodd" d="M147.891 84.2169C147.891 84.2169 147.891 84.2169 147.891 84.2169L147.891 150.496C137.422 150.496 127.056 152.501 117.384 156.396C107.712 160.291 98.9244 165.999 91.5218 173.196C84.1193 180.393 78.2473 188.937 74.2411 198.341C70.2349 207.744 68.1729 217.822 68.1729 228L4.57764e-05 228C4.74271e-05 209.118 3.82537 190.421 11.2576 172.977C18.6898 155.532 29.5834 139.681 43.3164 126.33C47.6299 122.136 52.1969 118.215 56.9888 114.585C53.2449 111.442 49.6505 108.102 46.221 104.575C32.8696 90.8419 22.2786 74.5385 15.0528 56.5955C7.82701 38.6525 4.10796 19.4214 4.10796 3.32064e-05L70.3871 3.90007e-05C70.3871 10.4688 72.3918 20.8351 76.2868 30.5069C80.1817 40.1788 85.8906 48.9669 93.0875 56.3694C100.284 63.772 108.828 69.644 118.232 73.6502C127.635 77.6564 137.713 79.7184 147.891 79.7184L147.891 84.2169Z"/>
</mask>
<path fill-rule="evenodd" clip-rule="evenodd" d="M147.891 84.2169C147.891 84.2169 147.891 84.2169 147.891 84.2169L147.891 150.496C137.422 150.496 127.056 152.501 117.384 156.396C107.712 160.291 98.9244 165.999 91.5218 173.196C84.1193 180.393 78.2473 188.937 74.2411 198.341C70.2349 207.744 68.1729 217.822 68.1729 228L4.57764e-05 228C4.74271e-05 209.118 3.82537 190.421 11.2576 172.977C18.6898 155.532 29.5834 139.681 43.3164 126.33C47.6299 122.136 52.1969 118.215 56.9888 114.585C53.2449 111.442 49.6505 108.102 46.221 104.575C32.8696 90.8419 22.2786 74.5385 15.0528 56.5955C7.82701 38.6525 4.10796 19.4214 4.10796 3.32064e-05L70.3871 3.90007e-05C70.3871 10.4688 72.3918 20.8351 76.2868 30.5069C80.1817 40.1788 85.8906 48.9669 93.0875 56.3694C100.284 63.772 108.828 69.644 118.232 73.6502C127.635 77.6564 137.713 79.7184 147.891 79.7184L147.891 84.2169Z" fill="#FF6B2C"/>
<path d="M147.891 84.2169L148.891 84.2169L148.891 83.2169L147.891 83.2169L147.891 84.2169ZM147.891 84.2169L146.891 84.2169L146.891 85.2169L147.891 85.2169L147.891 84.2169ZM147.891 150.496L147.891 151.496L148.891 151.496L148.891 150.496L147.891 150.496ZM117.384 156.396L117.011 155.468L117.384 156.396ZM91.5218 173.196L90.8248 172.479L91.5218 173.196ZM74.2411 198.341L75.1611 198.732L75.1611 198.732L74.2411 198.341ZM68.1729 228L68.1729 229L69.1729 229L69.1729 228L68.1729 228ZM4.57764e-05 228L-0.999954 228L-0.999954 229L4.56889e-05 229L4.57764e-05 228ZM11.2576 172.977L10.3376 172.585L11.2576 172.977ZM43.3164 126.33L42.6193 125.613L43.3164 126.33ZM56.9888 114.585L57.5926 115.382L58.592 114.625L57.6316 113.819L56.9888 114.585ZM46.221 104.575L45.5041 105.272L46.221 104.575ZM15.0528 56.5955L15.9804 56.222L15.0528 56.5955ZM4.10796 3.32064e-05L4.10796 -0.999967L3.10796 -0.999967L3.10796 3.3119e-05L4.10796 3.32064e-05ZM70.3871 3.90007e-05L71.3871 3.90882e-05L71.3871 -0.999961L70.3871 -0.999961L70.3871 3.90007e-05ZM76.2868 30.5069L77.2144 30.1334L76.2868 30.5069ZM93.0875 56.3694L93.8045 55.6723L93.0875 56.3694ZM118.232 73.6502L118.624 72.7302L118.624 72.7302L118.232 73.6502ZM147.891 79.7184L148.891 79.7184L148.891 78.7184L147.891 78.7184L147.891 79.7184ZM147.891 83.2169C147.891 83.2169 147.891 83.2169 147.891 83.2169C147.891 83.2169 147.891 83.2169 147.891 83.2169C147.891 83.2169 147.891 83.2169 147.891 83.2169C147.891 83.2169 147.891 83.2169 147.891 83.2169C147.891 83.2169 147.891 83.2169 147.891 83.2169C147.891 83.2169 147.891 83.2169 147.891 83.2169C147.891 83.2169 147.891 83.2169 147.891 83.2169C147.891 83.2169 147.891 83.2169 147.891 83.2169C147.891 83.2169 147.891 83.2169 147.891 83.2169C147.891 83.2169 147.891 83.2169 147.891 83.2169C147.891 83.2169 147.891 83.2169 147.891 83.2169C147.891 83.2169 147.891 83.2169 147.891 83.2169C147.891 83.2169 147.891 83.2169 147.891 83.2169C147.891 83.2169 147.891 83.2169 147.891 83.2169C147.891 83.2169 147.891 83.2169 147.891 83.2169C147.891 83.2169 147.891 83.2169 147.891 83.2169C147.891 83.2169 147.891 83.2169 147.891 83.2169C147.891 83.2169 147.891 83.2169 147.891 83.2169C147.891 83.2169 147.891 83.2169 147.891 83.2169C147.891 83.2169 147.891 83.2169 147.891 83.2169C147.891 83.2169 147.891 83.2169 147.891 83.2169C147.891 83.2169 147.891 83.2169 147.891 83.2169C147.891 83.2169 147.891 83.2169 147.891 83.2169C147.891 83.2169 147.891 83.2169 147.891 83.2169C147.891 83.2169 147.891 83.2169 147.891 83.2169C147.891 83.2169 147.891 83.2169 147.891 83.2169C147.891 83.2169 147.891 83.2169 147.891 83.2169C147.891 83.2169 147.891 83.2169 147.891 83.2169C147.891 83.2169 147.891 83.2169 147.891 83.2169C147.891 83.2169 147.891 83.2169 147.891 83.2169C147.891 83.2169 147.891 83.2169 147.891 83.2169C147.891 83.2169 147.891 83.2169 147.891 83.2169C147.891 83.2169 147.891 83.2169 147.891 83.2169C147.891 83.2169 147.891 83.2169 147.891 83.2169C147.891 83.2169 147.891 83.2169 147.891 83.2169C147.891 83.2169 147.891 83.2169 147.891 83.2169C147.891 83.2169 147.891 83.2169 147.891 83.2169C147.891 83.2169 147.891 83.2169 147.891 83.2169C147.891 83.2169 147.891 83.2169 147.891 83.2169C147.891 83.2169 147.891 83.2169 147.891 83.2169C147.891 83.2169 147.891 83.2169 147.891 83.2169C147.891 83.2169 147.891 83.2169 147.891 83.2169C147.891 83.2169 147.891 83.2169 147.891 83.2169C147.891 83.2169 147.891 83.2169 147.891 83.2169C147.891 83.2169 147.891 83.2169 147.891 83.2169C147.891 83.2169 147.891 83.2169 147.891 83.2169C147.891 83.2169 147.891 83.2169 147.891 83.2169C147.891 83.2169 147.891 83.2169 147.891 83.2169C147.891 83.2169 147.891 83.2169 147.891 83.2169C147.891 83.2169 147.891 83.2169 147.891 83.2169C147.891 83.2169 147.891 83.2169 147.891 83.2169C147.891 83.2169 147.891 83.2169 147.891 83.2169C147.891 83.2169 147.891 83.2169 147.891 83.2169C147.891 83.2169 147.891 83.2169 147.891 83.2169C147.891 83.2169 147.891 83.2169 147.891 83.2169C147.891 83.2169 147.891 83.2169 147.891 83.2169C147.891 83.2169 147.891 83.2169 147.891 83.2169C147.891 83.2169 147.891 83.2169 147.891 83.2169C147.891 83.2169 147.891 83.2169 147.891 83.2169C147.891 83.2169 147.891 83.2169 147.891 83.2169C147.891 83.2169 147.891 83.2169 147.891 83.2169C147.891 83.2169 147.891 83.2169 147.891 83.2169C147.891 83.2169 147.891 83.2169 147.891 83.2169C147.891 83.2169 147.891 83.2169 147.891 83.2169C147.891 83.2169 147.891 83.2169 147.891 83.2169C147.891 83.2169 147.891 83.2169 147.891 83.2169C147.891 83.2169 147.891 83.2169 147.891 83.2169C147.891 83.2169 147.891 83.2169 147.891 83.2169C147.891 83.2169 147.891 83.2169 147.891 83.2169C147.891 83.2169 147.891 83.2169 147.891 83.2169C147.891 83.2169 147.891 83.2169 147.891 83.2169C147.891 83.2169 147.891 83.2169 147.891 83.2169C147.891 83.2169 147.891 83.2169 147.891 83.2169C147.891 83.2169 147.891 83.2169 147.891 83.2169C147.891 83.2169 147.891 83.2169 147.891 83.2169C147.891 83.2169 147.891 83.2169 147.891 83.2169C147.891 83.2169 147.891 83.2169 147.891 83.2169C147.891 83.2169 147.891 83.2169 147.891 83.2169C147.891 83.2169 147.891 83.2169 147.891 83.2169C147.891 83.2169 147.891 83.2169 147.891 83.2169C147.891 83.2169 147.891 83.2169 147.891 83.2169C147.891 83.2169 147.891 83.2169 147.891 83.2169C147.891 83.2169 147.891 83.2169 147.891 83.2169C147.891 83.2169 147.891 83.2169 147.891 83.2169C147.891 83.2169 147.891 83.2169 147.891 83.2169C147.891 83.2169 147.891 83.2169 147.891 83.2169C147.891 83.2169 147.891 83.2169 147.891 83.2169C147.891 83.2169 147.891 83.2169 147.891 83.2169C147.891 83.2169 147.891 83.2169 147.891 83.2169C147.891 83.2169 147.891 83.2169 147.891 83.2169C147.891 83.2169 147.891 83.2169 147.891 83.2169C147.891 83.2169 147.891 83.2169 147.891 83.2169C147.891 83.2169 147.891 83.2169 147.891 83.2169C147.891 83.2169 147.891 83.2169 147.891 83.2169C147.891 83.2169 147.891 83.2169 147.891 83.2169C147.891 83.2169 147.891 83.2169 147.891 83.2169C147.891 83.2169 147.891 83.2169 147.891 83.2169C147.891 83.2169 147.891 83.2169 147.891 83.2169C147.891 83.2169 147.891 83.2169 147.891 83.2169C147.891 83.2169 147.891 83.2169 147.891 83.2169C147.891 83.2169 147.891 83.2169 147.891 83.2169C147.891 83.2169 147.891 83.2169 147.891 83.2169C147.891 83.2169 147.891 83.2169 147.891 83.2169C147.891 83.2169 147.891 83.2169 147.891 83.2169C147.891 83.2169 147.891 83.2169 147.891 83.2169C147.891 83.2169 147.891 83.2169 147.891 83.2169C147.891 83.2169 147.891 83.2169 147.891 83.2169C147.891 83.2169 147.891 83.2169 147.891 83.2169C147.891 83.2169 147.891 83.2169 147.891 83.2169C147.891 83.2169 147.891 83.2169 147.891 83.2169C147.891 83.2169 147.891 83.2169 147.891 83.2169C147.891 83.2169 147.891 83.2169 147.891 83.2169C147.891 83.2169 147.891 83.2169 147.891 83.2169C147.891 83.2169 147.891 83.2169 147.891 83.2169C147.891 83.2169 147.891 83.2169 147.891 83.2169C147.891 83.2169 147.891 83.2169 147.891 83.2169C147.891 83.2169 147.891 83.2169 147.891 83.2169C147.891 83.2169 147.891 83.2169 147.891 83.2169C147.891 83.2169 147.891 83.2169 147.891 83.2169C147.891 83.2169 147.891 83.2169 147.891 83.2169C147.891 83.2169 147.891 83.2169 147.891 83.2169C147.891 83.2169 147.891 83.2169 147.891 83.2169C147.891 83.2169 147.891 83.2169 147.891 83.2169C147.891 83.2169 147.891 83.2169 147.891 83.2169C147.891 83.2169 147.891 83.2169 147.891 83.2169C147.891 83.2169 147.891 83.2169 147.891 83.2169C147.891 83.2169 147.891 83.2169 147.891 83.2169C147.891 83.2169 147.891 83.2169 147.891 83.2169C147.891 83.2169 147.891 83.2169 147.891 83.2169C147.891 83.2169 147.891 83.2169 147.891 83.2169C147.891 83.2169 147.891 83.2169 147.891 83.2169C147.891 83.2169 147.891 83.2169 147.891 83.2169C147.891 83.2169 147.891 83.2169 147.891 83.2169C147.891 83.2169 147.891 83.2169 147.891 83.2169C147.891 83.2169 147.891 83.2169 147.891 83.2169C147.891 83.2169 147.891 83.2169 147.891 83.2169C147.891 83.2169 147.891 83.2169 147.891 83.2169C147.891 83.2169 147.891 83.2169 147.891 83.2169C147.891 83.2169 147.891 83.2169 147.891 83.2169C147.891 83.2169 147.891 83.2169 147.891 83.2169C147.891 83.2169 147.891 83.2169 147.891 83.2169C147.891 83.2169 147.891 83.2169 147.891 83.2169C147.891 83.2169 147.891 83.2169 147.891 83.2169C147.891 83.2169 147.891 83.2169 147.891 83.2169C147.891 83.2169 147.891 83.2169 147.891 83.2169C147.891 83.2169 147.891 83.2169 147.891 83.2169C147.891 83.2169 147.891 83.2169 147.891 83.2169C147.891 83.2169 147.891 83.2169 147.891 83.2169C147.891 83.2169 147.891 83.2169 147.891 83.2169C147.891 83.2169 147.891 83.2169 147.891 83.2169C147.891 83.2169 147.891 83.2169 147.891 83.2169C147.891 83.2169 147.891 83.2169 147.891 83.2169C147.891 83.2169 147.891 83.2169 147.891 83.2169C147.891 83.2169 147.891 83.2169 147.891 83.2169C147.891 83.2169 147.891 83.2169 147.891 83.2169C147.891 83.2169 147.891 83.2169 147.891 83.2169C147.891 83.2169 147.891 83.2169 147.891 83.2169C147.891 83.2169 147.891 83.2169 147.891 83.2169C147.891 83.2169 147.891 83.2169 147.891 83.2169C147.891 83.2169 147.891 83.2169 147.891 83.2169C147.891 83.2169 147.891 83.2169 147.891 83.2169C147.891 83.2169 147.891 83.2169 147.891 83.2169C147.891 83.2169 147.891 83.2169 147.891 83.2169C147.891 83.2169 147.891 83.2169 147.891 83.2169C147.891 83.2169 147.891 83.2169 147.891 83.2169C147.891 83.2169 147.891 83.2169 147.891 83.2169C147.891 83.2169 147.891 83.2169 147.891 83.2169C147.891 83.2169 147.891 83.2169 147.891 83.2169C147.891 83.2169 147.891 83.2169 147.891 83.2169C147.891 83.2169 147.891 83.2169 147.891 83.2169C147.891 83.2169 147.891 83.2169 147.891 83.2169C147.891 83.2169 147.891 83.2169 147.891 83.2169C147.891 83.2169 147.891 83.2169 147.891 83.2169C147.891 83.2169 147.891 83.2169 147.891 83.2169C147.891 83.2169 147.891 83.2169 147.891 83.2169C147.891 83.2169 147.891 83.2169 147.891 83.2169C147.891 83.2169 147.891 83.2169 147.891 83.2169C147.891 83.2169 147.891 83.2169 147.891 83.2169C147.891 83.2169 147.891 83.2169 147.891 83.2169C147.891 83.2169 147.891 83.2169 147.891 83.2169C147.891 83.2169 147.891 83.2169 147.891 83.2169C147.891 83.2169 147.891 83.2169 147.891 83.2169C147.891 83.2169 147.891 83.2169 147.891 83.2169C147.891 83.2169 147.891 83.2169 147.891 83.2169C147.891 83.2169 147.891 83.2169 147.891 83.2169C147.891 83.2169 147.891 83.2169 147.891 83.2169C147.891 83.2169 147.891 83.2169 147.891 83.2169C147.891 83.2169 147.891 83.2169 147.891 83.2169C147.891 83.2169 147.891 83.2169 147.891 83.2169C147.891 83.2169 147.891 83.2169 147.891 83.2169C147.891 83.2169 147.891 83.2169 147.891 83.2169C147.891 83.2169 147.891 83.2169 147.891 83.2169C147.891 83.2169 147.891 83.2169 147.891 83.2169C147.891 83.2169 147.891 83.2169 147.891 83.2169C147.891 83.2169 147.891 83.2169 147.891 83.2169C147.891 83.2169 147.891 83.2169 147.891 83.2169C147.891 83.2169 147.891 83.2169 147.891 83.2169C147.891 83.2169 147.891 83.2169 147.891 83.2169C147.891 83.2169 147.891 83.2169 147.891 83.2169C147.891 83.2169 147.891 83.2169 147.891 83.2169C147.891 83.2169 147.891 83.2169 147.891 83.2169C147.891 83.2169 147.891 83.2169 147.891 83.2169C147.891 83.2169 147.891 83.2169 147.891 83.2169C147.891 83.2169 147.891 83.2169 147.891 83.2169C147.891 83.2169 147.891 83.2169 147.891 83.2169C147.891 83.2169 147.891 83.2169 147.891 83.2169C147.891 83.2169 147.891 83.2169 147.891 83.2169C147.891 83.2169 147.891 83.2169 147.891 83.2169C147.891 83.2169 147.891 83.2169 147.891 83.2169C147.891 83.2169 147.891 83.2169 147.891 83.2169C147.891 83.2169 147.891 83.2169 147.891 83.2169C147.891 83.2169 147.891 83.2169 147.891 83.2169C147.891 83.2169 147.891 83.2169 147.891 83.2169C147.891 83.2169 147.891 83.2169 147.891 83.2169C147.891 83.2169 147.891 83.2169 147.891 83.2169C147.891 83.2169 147.891 83.2169 147.891 83.2169C147.891 83.2169 147.891 83.2169 147.891 83.2169C147.891 83.2169 147.891 83.2169 147.891 83.2169C147.891 83.2169 147.891 83.2169 147.891 83.2169C147.891 83.2169 147.891 83.2169 147.891 83.2169C147.891 83.2169 147.891 83.2169 147.891 83.2169C147.891 83.2169 147.891 83.2169 147.891 83.2169C147.891 83.2169 147.891 83.2169 147.891 83.2169C147.891 83.2169 147.891 83.2169 147.891 83.2169C147.891 83.2169 147.891 83.2169 147.891 83.2169C147.891 83.2169 147.891 83.2169 147.891 83.2169C147.891 83.2169 147.891 83.2169 147.891 83.2169C147.891 83.2169 147.891 83.2169 147.891 83.2169C147.891 83.2169 147.891 83.2169 147.891 83.2169C147.891 83.2169 147.891 83.2169 147.891 83.2169C147.891 83.2169 147.891 83.2169 147.891 83.2169C147.891 83.2169 147.891 83.2169 147.891 83.2169C147.891 83.2169 147.891 83.2169 147.891 83.2169C147.891 83.2169 147.891 83.2169 147.891 83.2169C147.891 83.2169 147.891 83.2169 147.891 83.2169C147.891 83.2169 147.891 83.2169 147.891 83.2169C147.891 83.2169 147.891 83.2169 147.891 83.2169C147.891 83.2169 147.891 83.2169 147.891 83.2169C147.891 83.2169 147.891 83.2169 147.891 83.2169C147.891 83.2169 147.891 83.2169 147.891 83.2169C147.891 83.2169 147.891 83.2169 147.891 83.2169C147.891 83.2169 147.891 83.2169 147.891 83.2169C147.891 83.2169 147.891 83.2169 147.891 83.2169C147.891 83.2169 147.891 83.2169 147.891 83.2169C147.891 83.2169 147.891 83.2169 147.891 83.2169C147.891 83.2169 147.891 83.2169 147.891 83.2169C147.891 83.2169 147.891 83.2169 147.891 83.2169C147.891 83.2169 147.891 83.2169 147.891 83.2169C147.891 83.2169 147.891 83.2169 147.891 83.2169C147.891 83.2169 147.891 83.2169 147.891 83.2169C147.891 83.2169 147.891 83.2169 147.891 83.2169C147.891 83.2169 147.891 83.2169 147.891 83.2169C147.891 83.2169 147.891 83.2169 147.891 83.2169C147.891 83.2169 147.891 83.2169 147.891 83.2169C147.891 83.2169 147.891 83.2169 147.891 83.2169C147.891 83.2169 147.891 83.2169 147.891 83.2169C147.891 83.2169 147.891 83.2169 147.891 83.2169C147.891 83.2169 147.891 83.2169 147.891 83.2169C147.891 83.2169 147.891 83.2169 147.891 83.2169C147.891 83.2169 147.891 83.2169 147.891 83.2169C147.891 83.2169 147.891 83.2169 147.891 83.2169C147.891 83.2169 147.891 83.2169 147.891 83.2169C147.891 83.2169 147.891 83.2169 147.891 83.2169C147.891 83.2169 147.891 83.2169 147.891 83.2169C147.891 83.2169 147.891 83.2169 147.891 83.2169C147.891 83.2169 147.891 83.2169 147.891 83.2169C147.891 83.2169 147.891 83.2169 147.891 83.2169C147.891 83.2169 147.891 83.2169 147.891 83.2169C147.891 83.2169 147.891 83.2169 147.891 83.2169C147.891 83.2169 147.891 83.2169 147.891 83.2169C147.891 83.2169 147.891 83.2169 147.891 83.2169C147.891 83.2169 147.891 83.2169 147.891 83.2169C147.891 83.2169 147.891 83.2169 147.891 83.2169C147.891 83.2169 147.891 83.2169 147.891 83.2169C147.891 83.2169 147.891 83.2169 147.891 83.2169C147.891 83.2169 147.891 83.2169 147.891 83.2169C147.891 83.2169 147.891 83.2169 147.891 83.2169C147.891 83.2169 147.891 83.2169 147.891 83.2169C147.891 83.2169 147.891 83.2169 147.891 83.2169C147.891 83.2169 147.891 83.2169 147.891 83.2169C147.891 83.2169 147.891 83.2169 147.891 83.2169C147.891 83.2169 147.891 83.2169 147.891 83.2169C147.891 83.2169 147.891 83.2169 147.891 83.2169C147.891 83.2169 147.891 83.2169 147.891 83.2169C147.891 83.2169 147.891 83.2169 147.891 83.2169C147.891 83.2169 147.891 83.2169 147.891 83.2169C147.891 83.2169 147.891 83.2169 147.891 83.2169C147.891 83.2169 147.891 83.2169 147.891 83.2169C147.891 83.2169 147.891 83.2169 147.891 83.2169C147.891 83.2169 147.891 83.2169 147.891 83.2169C147.891 83.2169 147.891 83.2169 147.891 83.2169C147.891 83.2169 147.891 83.2169 147.891 83.2169C147.891 83.2169 147.891 83.2169 147.891 83.2169C147.891 83.2169 147.891 83.2169 147.891 83.2169C147.891 83.2169 147.891 83.2169 147.891 83.2169C147.891 83.2169 147.891 83.2169 147.891 83.2169C147.891 83.2169 147.891 83.2169 147.891 83.2169C147.891 83.2169 147.891 83.2169 147.891 83.2169C147.891 83.2169 147.891 83.2169 147.891 83.2169C147.891 83.2169 147.891 83.2169 147.891 83.2169C147.891 83.2169 147.891 83.2169 147.891 83.2169C147.891 83.2169 147.891 83.2169 147.891 83.2169C147.891 83.2169 147.891 83.2169 147.891 83.2169C147.891 83.2169 147.891 83.2169 147.891 83.2169C147.891 83.2169 147.891 83.2169 147.891 83.2169C147.891 83.2169 147.891 83.2169 147.891 83.2169C147.891 83.2169 147.891 83.2169 147.891 83.2169C147.891 83.2169 147.891 83.2169 147.891 83.2169C147.891 83.2169 147.891 83.2169 147.891 83.2169C147.891 83.2169 147.891 83.2169 147.891 83.2169C147.891 83.2169 147.891 83.2169 147.891 83.2169C147.891 83.2169 147.891 83.2169 147.891 83.2169C147.891 83.2169 147.891 83.2169 147.891 83.2169C147.891 83.2169 147.891 83.2169 147.891 83.2169C147.891 83.2169 147.891 83.2169 147.891 83.2169C147.891 83.2169 147.891 83.2169 147.891 83.2169C147.891 83.2169 147.891 83.2169 147.891 83.2169C147.891 83.2169 147.891 83.2169 147.891 83.2169C147.891 83.2169 147.891 83.2169 147.891 83.2169C147.891 83.2169 147.891 83.2169 147.891 83.2169C147.891 83.2169 147.891 83.2169 147.891 83.2169C147.891 83.2169 147.891 83.2169 147.891 83.2169C147.891 83.2169 147.891 83.2169 147.891 83.2169C147.891 83.2169 147.891 83.2169 147.891 83.2169C147.891 83.2169 147.891 83.2169 147.891 83.2169C147.891 83.2169 147.891 83.2169 147.891 83.2169C147.891 83.2169 147.891 83.2169 147.891 83.2169C147.891 83.2169 147.891 83.2169 147.891 83.2169C147.891 83.2169 147.891 83.2169 147.891 83.2169C147.891 83.2169 147.891 83.2169 147.891 83.2169C147.891 83.2169 147.891 83.2169 147.891 83.2169C147.891 83.2169 147.891 83.2169 147.891 83.2169C147.891 83.2169 147.891 83.2169 147.891 83.2169C147.891 83.2169 147.891 83.2169 147.891 83.2169C147.891 83.2169 147.891 83.2169 147.891 83.2169C147.891 83.2169 147.891 83.2169 147.891 83.2169C147.891 83.2169 147.891 83.2169 147.891 83.2169C147.891 83.2169 147.891 83.2169 147.891 83.2169C147.891 83.2169 147.891 83.2169 147.891 83.2169C147.891 83.2169 147.891 83.2169 147.891 83.2169C147.891 83.2169 147.891 83.2169 147.891 83.2169C147.891 83.2169 147.891 83.2169 147.891 83.2169C147.891 83.2169 147.891 83.2169 147.891 83.2169C147.891 83.2169 147.891 83.2169 147.891 83.2169C147.891 83.2169 147.891 83.2169 147.891 83.2169C147.891 83.2169 147.891 83.2169 147.891 83.2169C147.891 83.2169 147.891 83.2169 147.891 83.2169C147.891 83.2169 147.891 83.2169 147.891 83.2169C147.891 83.2169 147.891 83.2169 147.891 83.2169C147.891 83.2169 147.891 83.2169 147.891 83.2169C147.891 83.2169 147.891 83.2169 147.891 83.2169C147.891 83.2169 147.891 83.2169 147.891 83.2169C147.891 83.2169 147.891 83.2169 147.891 83.2169C147.891 83.2169 147.891 83.2169 147.891 83.2169C147.891 83.2169 147.891 83.2169 147.891 83.2169C147.891 83.2169 147.891 83.2169 147.891 83.2169C147.891 83.2169 147.891 83.2169 147.891 83.2169C147.891 83.2169 147.891 83.2169 147.891 83.2169C147.891 83.2169 147.891 83.2169 147.891 83.2169C147.891 83.2169 147.891 83.2169 147.891 83.2169C147.891 83.2169 147.891 83.2169 147.891 83.2169C147.891 83.2169 147.891 83.2169 147.891 83.2169C147.891 83.2169 147.891 83.2169 147.891 83.2169C147.891 83.2169 147.891 83.2169 147.891 83.2169C147.891 83.2169 147.891 83.2169 147.891 83.2169C147.891 83.2169 147.891 83.2169 147.891 83.2169C147.891 83.2169 147.891 83.2169 147.891 83.2169C147.891 83.2169 147.891 83.2169 147.891 83.2169C147.891 83.2169 147.891 83.2169 147.891 83.2169C147.891 83.2169 147.891 83.2169 147.891 83.2169C147.891 83.2169 147.891 83.2169 147.891 83.2169C147.891 83.2169 147.891 83.2169 147.891 83.2169C147.891 83.2169 147.891 83.2169 147.891 83.2169C147.891 83.2169 147.891 83.2169 147.891 83.2169C147.891 83.2169 147.891 83.2169 147.891 83.2169C147.891 83.2169 147.891 83.2169 147.891 83.2169C147.891 83.2169 147.891 83.2169 147.891 83.2169C147.891 83.2169 147.891 83.2169 147.891 83.2169C147.891 83.2169 147.891 83.2169 147.891 83.2169C147.891 83.2169 147.891 83.2169 147.891 83.2169C147.891 83.2169 147.891 83.2169 147.891 83.2169C147.891 83.2169 147.891 83.2169 147.891 83.2169C147.891 83.2169 147.891 83.2169 147.891 83.2169C147.891 83.2169 147.891 83.2169 147.891 83.2169C147.891 83.2169 147.891 83.2169 147.891 83.2169C147.891 83.2169 147.891 83.2169 147.891 83.2169C147.891 83.2169 147.891 83.2169 147.891 83.2169C147.891 83.2169 147.891 83.2169 147.891 83.2169C147.891 83.2169 147.891 83.2169 147.891 83.2169C147.891 83.2169 147.891 83.2169 147.891 83.2169C147.891 83.2169 147.891 83.2169 147.891 83.2169C147.891 83.2169 147.891 83.2169 147.891 83.2169C147.891 83.2169 147.891 83.2169 147.891 83.2169C147.891 83.2169 147.891 83.2169 147.891 83.2169C147.891 83.2169 147.891 83.2169 147.891 83.2169C147.891 83.2169 147.891 83.2169 147.891 83.2169C147.891 83.2169 147.891 83.2169 147.891 83.2169C147.891 83.2169 147.891 83.2169 147.891 83.2169C147.891 83.2169 147.891 83.2169 147.891 83.2169C147.891 83.2169 147.891 83.2169 147.891 83.2169C147.891 83.2169 147.891 83.2169 147.891 83.2169C147.891 83.2169 147.891 83.2169 147.891 83.2169C147.891 83.2169 147.891 83.2169 147.891 83.2169C147.891 83.2169 147.891 83.2169 147.891 83.2169C147.891 83.2169 147.891 83.2169 147.891 83.2169C147.891 83.2169 147.891 83.2169 147.891 83.2169C147.891 83.2169 147.891 83.2169 147.891 83.2169C147.891 83.2169 147.891 83.2169 147.891 83.2169C147.891 83.2169 147.891 83.2169 147.891 83.2169C147.891 83.2169 147.891 83.2169 147.891 83.2169C147.891 83.2169 147.891 83.2169 147.891 83.2169C147.891 83.2169 147.891 83.2169 147.891 83.2169C147.891 83.2169 147.891 83.2169 147.891 83.2169C147.891 83.2169 147.891 83.2169 147.891 83.2169C147.891 83.2169 147.891 83.2169 147.891 83.2169C147.891 83.2169 147.891 83.2169 147.891 83.2169C147.891 83.2169 147.891 83.2169 147.891 83.2169C147.891 83.2169 147.891 83.2169 147.891 83.2169C147.891 83.2169 147.891 83.2169 147.891 83.2169C147.891 83.2169 147.891 83.2169 147.891 83.2169C147.891 83.2169 147.891 83.2169 147.891 83.2169C147.891 83.2169 147.891 83.2169 147.891 83.2169C147.891 83.2169 147.891 83.2169 147.891 83.2169C147.891 83.2169 147.891 83.2169 147.891 83.2169C147.891 83.2169 147.891 83.2169 147.891 83.2169C147.891 83.2169 147.891 83.2169 147.891 83.2169C147.891 83.2169 147.891 83.2169 147.891 83.2169C147.891 83.2169 147.891 83.2169 147.891 83.2169C147.891 83.2169 147.891 83.2169 147.891 83.2169C147.891 83.2169 147.891 83.2169 147.891 83.2169C147.891 83.2169 147.891 83.2169 147.891 83.2169C147.891 83.2169 147.891 83.2169 147.891 83.2169C147.891 83.2169 147.891 83.2169 147.891 83.2169C147.891 83.2169 147.891 83.2169 147.891 83.2169C147.891 83.2169 147.891 83.2169 147.891 83.2169C147.891 83.2169 147.891 83.2169 147.891 83.2169C147.891 83.2169 147.891 83.2169 147.891 83.2169C147.891 83.2169 147.891 83.2169 147.891 83.2169C147.891 83.2169 147.891 83.2169 147.891 83.2169C147.891 83.2169 147.891 83.2169 147.891 83.2169C147.891 83.2169 147.891 83.2169 147.891 83.2169C147.891 83.2169 147.891 83.2169 147.891 83.2169C147.891 83.2169 147.891 83.2169 147.891 83.2169C147.891 83.2169 147.891 83.2169 147.891 83.2169C147.891 83.2169 147.891 83.2169 147.891 83.2169C147.891 83.2169 147.891 83.2169 147.891 83.2169C147.891 83.2169 147.891 83.2169 147.891 83.2169C147.891 83.2169 147.891 83.2169 147.891 83.2169C147.891 83.2169 147.891 83.2169 147.891 83.2169C147.891 83.2169 147.891 83.2169 147.891 83.2169C147.891 83.2169 147.891 83.2169 147.891 83.2169C147.891 83.2169 147.891 83.2169 147.891 83.2169C147.891 83.2169 147.891 83.2169 147.891 83.2169C147.891 83.2169 147.891 83.2169 147.891 83.2169C147.891 83.2169 147.891 83.2169 147.891 83.2169C147.891 83.2169 147.891 83.2169 147.891 83.2169C147.891 83.2169 147.891 83.2169 147.891 83.2169C147.891 83.2169 147.891 83.2169 147.891 83.2169C147.891 83.2169 147.891 83.2169 147.891 83.2169C147.891 83.2169 147.891 83.2169 147.891 83.2169C147.891 83.2169 147.891 83.2169 147.891 83.2169C147.891 83.2169 147.891 83.2169 147.891 83.2169C147.891 83.2169 147.891 83.2169 147.891 83.2169C147.891 83.2169 147.891 83.2169 147.891 83.2169C147.891 83.2169 147.891 83.2169 147.891 83.2169C147.891 83.2169 147.891 83.2169 147.891 83.2169C147.891 83.2169 147.891 83.2169 147.891 83.2169C147.891 83.2169 147.891 83.2169 147.891 83.2169C147.891 83.2169 147.891 83.2169 147.891 83.2169C147.891 83.2169 147.891 83.2169 147.891 83.2169C147.891 83.2169 147.891 83.2169 147.891 83.2169C147.891 83.2169 147.891 83.2169 147.891 83.2169C147.891 83.2169 147.891 83.2169 147.891 83.2169C147.891 83.2169 147.891 83.2169 147.891 83.2169C147.891 83.2169 147.891 83.2169 147.891 83.2169C147.891 83.2169 147.891 83.2169 147.891 83.2169C147.891 83.2169 147.891 83.2169 147.891 83.2169C147.891 83.2169 147.891 83.2169 147.891 83.2169C147.891 83.2169 147.891 83.2169 147.891 83.2169C147.891 83.2169 147.891 83.2169 147.891 83.2169C147.891 83.2169 147.891 83.2169 147.891 83.2169C147.891 83.2169 147.891 83.2169 147.891 83.2169C147.891 83.2169 147.891 83.2169 147.891 83.2169C147.891 83.2169 147.891 83.2169 147.891 83.2169C147.891 83.2169 147.891 83.2169 147.891 83.2169C147.891 83.2169 147.891 83.2169 147.891 83.2169C147.891 83.2169 147.891 83.2169 147.891 83.2169C147.891 83.2169 147.891 83.2169 147.891 83.2169C147.891 83.2169 147.891 83.2169 147.891 83.2169C147.891 83.2169 147.891 83.2169 147.891 83.2169C147.891 83.2169 147.891 83.2169 147.891 83.2169C147.891 83.2169 147.891 83.2169 147.891 83.2169C147.891 83.2169 147.891 83.2169 147.891 83.2169C147.891 83.2169 147.891 83.2169 147.891 83.2169C147.891 83.2169 147.891 83.2169 147.891 83.2169C147.891 83.2169 147.891 83.2169 147.891 83.2169C147.891 83.2169 147.891 83.2169 147.891 83.2169C147.891 83.2169 147.891 83.2169 147.891 83.2169C147.891 83.2169 147.891 83.2169 147.891 83.2169C147.891 83.2169 147.891 83.2169 147.891 83.2169C147.891 83.2169 147.891 83.2169 147.891 83.2169C147.891 83.2169 147.891 83.2169 147.891 83.2169C147.891 83.2169 147.891 83.2169 147.891 83.2169C147.891 83.2169 147.891 83.2169 147.891 83.2169C147.891 83.2169 147.891 83.2169 147.891 83.2169C147.891 83.2169 147.891 83.2169 147.891 83.2169C147.891 83.2169 147.891 83.2169 147.891 83.2169C147.891 83.2169 147.891 83.2169 147.891 83.2169C147.891 83.2169 147.891 83.2169 147.891 83.2169C147.891 83.2169 147.891 83.2169 147.891 83.2169C147.891 83.2169 147.891 83.2169 147.891 83.2169C147.891 83.2169 147.891 83.2169 147.891 83.2169L147.891 85.2169C147.891 85.2169 147.891 85.2169 147.891 85.2169C147.891 85.2169 147.891 85.2169 147.891 85.2169C147.891 85.2169 147.891 85.2169 147.891 85.2169C147.891 85.2169 147.891 85.2169 147.891 85.2169C147.891 85.2169 147.891 85.2169 147.891 85.2169C147.891 85.2169 147.891 85.2169 147.891 85.2169C147.891 85.2169 147.891 85.2169 147.891 85.2169C147.891 85.2169 147.891 85.2169 147.891 85.2169C147.891 85.2169 147.891 85.2169 147.891 85.2169C147.891 85.2169 147.891 85.2169 147.891 85.2169C147.891 85.2169 147.891 85.2169 147.891 85.2169C147.891 85.2169 147.891 85.2169 147.891 85.2169C147.891 85.2169 147.891 85.2169 147.891 85.2169C147.891 85.2169 147.891 85.2169 147.891 85.2169C147.891 85.2169 147.891 85.2169 147.891 85.2169C147.891 85.2169 147.891 85.2169 147.891 85.2169C147.891 85.2169 147.891 85.2169 147.891 85.2169C147.891 85.2169 147.891 85.2169 147.891 85.2169C147.891 85.2169 147.891 85.2169 147.891 85.2169C147.891 85.2169 147.891 85.2169 147.891 85.2169C147.891 85.2169 147.891 85.2169 147.891 85.2169C147.891 85.2169 147.891 85.2169 147.891 85.2169C147.891 85.2169 147.891 85.2169 147.891 85.2169C147.891 85.2169 147.891 85.2169 147.891 85.2169C147.891 85.2169 147.891 85.2169 147.891 85.2169C147.891 85.2169 147.891 85.2169 147.891 85.2169C147.891 85.2169 147.891 85.2169 147.891 85.2169C147.891 85.2169 147.891 85.2169 147.891 85.2169C147.891 85.2169 147.891 85.2169 147.891 85.2169C147.891 85.2169 147.891 85.2169 147.891 85.2169C147.891 85.2169 147.891 85.2169 147.891 85.2169C147.891 85.2169 147.891 85.2169 147.891 85.2169C147.891 85.2169 147.891 85.2169 147.891 85.2169C147.891 85.2169 147.891 85.2169 147.891 85.2169C147.891 85.2169 147.891 85.2169 147.891 85.2169C147.891 85.2169 147.891 85.2169 147.891 85.2169C147.891 85.2169 147.891 85.2169 147.891 85.2169C147.891 85.2169 147.891 85.2169 147.891 85.2169C147.891 85.2169 147.891 85.2169 147.891 85.2169C147.891 85.2169 147.891 85.2169 147.891 85.2169C147.891 85.2169 147.891 85.2169 147.891 85.2169C147.891 85.2169 147.891 85.2169 147.891 85.2169C147.891 85.2169 147.891 85.2169 147.891 85.2169C147.891 85.2169 147.891 85.2169 147.891 85.2169C147.891 85.2169 147.891 85.2169 147.891 85.2169C147.891 85.2169 147.891 85.2169 147.891 85.2169C147.891 85.2169 147.891 85.2169 147.891 85.2169C147.891 85.2169 147.891 85.2169 147.891 85.2169C147.891 85.2169 147.891 85.2169 147.891 85.2169C147.891 85.2169 147.891 85.2169 147.891 85.2169C147.891 85.2169 147.891 85.2169 147.891 85.2169C147.891 85.2169 147.891 85.2169 147.891 85.2169C147.891 85.2169 147.891 85.2169 147.891 85.2169C147.891 85.2169 147.891 85.2169 147.891 85.2169C147.891 85.2169 147.891 85.2169 147.891 85.2169C147.891 85.2169 147.891 85.2169 147.891 85.2169C147.891 85.2169 147.891 85.2169 147.891 85.2169C147.891 85.2169 147.891 85.2169 147.891 85.2169C147.891 85.2169 147.891 85.2169 147.891 85.2169C147.891 85.2169 147.891 85.2169 147.891 85.2169C147.891 85.2169 147.891 85.2169 147.891 85.2169C147.891 85.2169 147.891 85.2169 147.891 85.2169C147.891 85.2169 147.891 85.2169 147.891 85.2169C147.891 85.2169 147.891 85.2169 147.891 85.2169C147.891 85.2169 147.891 85.2169 147.891 85.2169C147.891 85.2169 147.891 85.2169 147.891 85.2169C147.891 85.2169 147.891 85.2169 147.891 85.2169C147.891 85.2169 147.891 85.2169 147.891 85.2169C147.891 85.2169 147.891 85.2169 147.891 85.2169C147.891 85.2169 147.891 85.2169 147.891 85.2169C147.891 85.2169 147.891 85.2169 147.891 85.2169C147.891 85.2169 147.891 85.2169 147.891 85.2169C147.891 85.2169 147.891 85.2169 147.891 85.2169C147.891 85.2169 147.891 85.2169 147.891 85.2169C147.891 85.2169 147.891 85.2169 147.891 85.2169C147.891 85.2169 147.891 85.2169 147.891 85.2169C147.891 85.2169 147.891 85.2169 147.891 85.2169C147.891 85.2169 147.891 85.2169 147.891 85.2169C147.891 85.2169 147.891 85.2169 147.891 85.2169C147.891 85.2169 147.891 85.2169 147.891 85.2169C147.891 85.2169 147.891 85.2169 147.891 85.2169C147.891 85.2169 147.891 85.2169 147.891 85.2169C147.891 85.2169 147.891 85.2169 147.891 85.2169C147.891 85.2169 147.891 85.2169 147.891 85.2169C147.891 85.2169 147.891 85.2169 147.891 85.2169C147.891 85.2169 147.891 85.2169 147.891 85.2169C147.891 85.2169 147.891 85.2169 147.891 85.2169C147.891 85.2169 147.891 85.2169 147.891 85.2169C147.891 85.2169 147.891 85.2169 147.891 85.2169C147.891 85.2169 147.891 85.2169 147.891 85.2169C147.891 85.2169 147.891 85.2169 147.891 85.2169C147.891 85.2169 147.891 85.2169 147.891 85.2169C147.891 85.2169 147.891 85.2169 147.891 85.2169C147.891 85.2169 147.891 85.2169 147.891 85.2169C147.891 85.2169 147.891 85.2169 147.891 85.2169C147.891 85.2169 147.891 85.2169 147.891 85.2169C147.891 85.2169 147.891 85.2169 147.891 85.2169C147.891 85.2169 147.891 85.2169 147.891 85.2169C147.891 85.2169 147.891 85.2169 147.891 85.2169C147.891 85.2169 147.891 85.2169 147.891 85.2169C147.891 85.2169 147.891 85.2169 147.891 85.2169C147.891 85.2169 147.891 85.2169 147.891 85.2169C147.891 85.2169 147.891 85.2169 147.891 85.2169C147.891 85.2169 147.891 85.2169 147.891 85.2169C147.891 85.2169 147.891 85.2169 147.891 85.2169C147.891 85.2169 147.891 85.2169 147.891 85.2169C147.891 85.2169 147.891 85.2169 147.891 85.2169C147.891 85.2169 147.891 85.2169 147.891 85.2169C147.891 85.2169 147.891 85.2169 147.891 85.2169C147.891 85.2169 147.891 85.2169 147.891 85.2169C147.891 85.2169 147.891 85.2169 147.891 85.2169C147.891 85.2169 147.891 85.2169 147.891 85.2169C147.891 85.2169 147.891 85.2169 147.891 85.2169C147.891 85.2169 147.891 85.2169 147.891 85.2169C147.891 85.2169 147.891 85.2169 147.891 85.2169C147.891 85.2169 147.891 85.2169 147.891 85.2169C147.891 85.2169 147.891 85.2169 147.891 85.2169C147.891 85.2169 147.891 85.2169 147.891 85.2169C147.891 85.2169 147.891 85.2169 147.891 85.2169C147.891 85.2169 147.891 85.2169 147.891 85.2169C147.891 85.2169 147.891 85.2169 147.891 85.2169C147.891 85.2169 147.891 85.2169 147.891 85.2169C147.891 85.2169 147.891 85.2169 147.891 85.2169C147.891 85.2169 147.891 85.2169 147.891 85.2169C147.891 85.2169 147.891 85.2169 147.891 85.2169C147.891 85.2169 147.891 85.2169 147.891 85.2169C147.891 85.2169 147.891 85.2169 147.891 85.2169C147.891 85.2169 147.891 85.2169 147.891 85.2169C147.891 85.2169 147.891 85.2169 147.891 85.2169C147.891 85.2169 147.891 85.2169 147.891 85.2169C147.891 85.2169 147.891 85.2169 147.891 85.2169C147.891 85.2169 147.891 85.2169 147.891 85.2169C147.891 85.2169 147.891 85.2169 147.891 85.2169C147.891 85.2169 147.891 85.2169 147.891 85.2169C147.891 85.2169 147.891 85.2169 147.891 85.2169C147.891 85.2169 147.891 85.2169 147.891 85.2169C147.891 85.2169 147.891 85.2169 147.891 85.2169C147.891 85.2169 147.891 85.2169 147.891 85.2169C147.891 85.2169 147.891 85.2169 147.891 85.2169C147.891 85.2169 147.891 85.2169 147.891 85.2169C147.891 85.2169 147.891 85.2169 147.891 85.2169C147.891 85.2169 147.891 85.2169 147.891 85.2169C147.891 85.2169 147.891 85.2169 147.891 85.2169C147.891 85.2169 147.891 85.2169 147.891 85.2169C147.891 85.2169 147.891 85.2169 147.891 85.2169C147.891 85.2169 147.891 85.2169 147.891 85.2169C147.891 85.2169 147.891 85.2169 147.891 85.2169C147.891 85.2169 147.891 85.2169 147.891 85.2169C147.891 85.2169 147.891 85.2169 147.891 85.2169C147.891 85.2169 147.891 85.2169 147.891 85.2169C147.891 85.2169 147.891 85.2169 147.891 85.2169C147.891 85.2169 147.891 85.2169 147.891 85.2169C147.891 85.2169 147.891 85.2169 147.891 85.2169C147.891 85.2169 147.891 85.2169 147.891 85.2169C147.891 85.2169 147.891 85.2169 147.891 85.2169C147.891 85.2169 147.891 85.2169 147.891 85.2169C147.891 85.2169 147.891 85.2169 147.891 85.2169C147.891 85.2169 147.891 85.2169 147.891 85.2169C147.891 85.2169 147.891 85.2169 147.891 85.2169C147.891 85.2169 147.891 85.2169 147.891 85.2169C147.891 85.2169 147.891 85.2169 147.891 85.2169C147.891 85.2169 147.891 85.2169 147.891 85.2169C147.891 85.2169 147.891 85.2169 147.891 85.2169C147.891 85.2169 147.891 85.2169 147.891 85.2169C147.891 85.2169 147.891 85.2169 147.891 85.2169C147.891 85.2169 147.891 85.2169 147.891 85.2169C147.891 85.2169 147.891 85.2169 147.891 85.2169C147.891 85.2169 147.891 85.2169 147.891 85.2169C147.891 85.2169 147.891 85.2169 147.891 85.2169C147.891 85.2169 147.891 85.2169 147.891 85.2169C147.891 85.2169 147.891 85.2169 147.891 85.2169C147.891 85.2169 147.891 85.2169 147.891 85.2169C147.891 85.2169 147.891 85.2169 147.891 85.2169C147.891 85.2169 147.891 85.2169 147.891 85.2169C147.891 85.2169 147.891 85.2169 147.891 85.2169C147.891 85.2169 147.891 85.2169 147.891 85.2169C147.891 85.2169 147.891 85.2169 147.891 85.2169C147.891 85.2169 147.891 85.2169 147.891 85.2169C147.891 85.2169 147.891 85.2169 147.891 85.2169C147.891 85.2169 147.891 85.2169 147.891 85.2169C147.891 85.2169 147.891 85.2169 147.891 85.2169C147.891 85.2169 147.891 85.2169 147.891 85.2169C147.891 85.2169 147.891 85.2169 147.891 85.2169C147.891 85.2169 147.891 85.2169 147.891 85.2169C147.891 85.2169 147.891 85.2169 147.891 85.2169C147.891 85.2169 147.891 85.2169 147.891 85.2169C147.891 85.2169 147.891 85.2169 147.891 85.2169C147.891 85.2169 147.891 85.2169 147.891 85.2169C147.891 85.2169 147.891 85.2169 147.891 85.2169C147.891 85.2169 147.891 85.2169 147.891 85.2169C147.891 85.2169 147.891 85.2169 147.891 85.2169C147.891 85.2169 147.891 85.2169 147.891 85.2169C147.891 85.2169 147.891 85.2169 147.891 85.2169C147.891 85.2169 147.891 85.2169 147.891 85.2169C147.891 85.2169 147.891 85.2169 147.891 85.2169C147.891 85.2169 147.891 85.2169 147.891 85.2169C147.891 85.2169 147.891 85.2169 147.891 85.2169C147.891 85.2169 147.891 85.2169 147.891 85.2169C147.891 85.2169 147.891 85.2169 147.891 85.2169C147.891 85.2169 147.891 85.2169 147.891 85.2169C147.891 85.2169 147.891 85.2169 147.891 85.2169C147.891 85.2169 147.891 85.2169 147.891 85.2169C147.891 85.2169 147.891 85.2169 147.891 85.2169C147.891 85.2169 147.891 85.2169 147.891 85.2169C147.891 85.2169 147.891 85.2169 147.891 85.2169C147.891 85.2169 147.891 85.2169 147.891 85.2169C147.891 85.2169 147.891 85.2169 147.891 85.2169C147.891 85.2169 147.891 85.2169 147.891 85.2169C147.891 85.2169 147.891 85.2169 147.891 85.2169C147.891 85.2169 147.891 85.2169 147.891 85.2169C147.891 85.2169 147.891 85.2169 147.891 85.2169C147.891 85.2169 147.891 85.2169 147.891 85.2169C147.891 85.2169 147.891 85.2169 147.891 85.2169C147.891 85.2169 147.891 85.2169 147.891 85.2169C147.891 85.2169 147.891 85.2169 147.891 85.2169C147.891 85.2169 147.891 85.2169 147.891 85.2169C147.891 85.2169 147.891 85.2169 147.891 85.2169C147.891 85.2169 147.891 85.2169 147.891 85.2169C147.891 85.2169 147.891 85.2169 147.891 85.2169C147.891 85.2169 147.891 85.2169 147.891 85.2169C147.891 85.2169 147.891 85.2169 147.891 85.2169C147.891 85.2169 147.891 85.2169 147.891 85.2169C147.891 85.2169 147.891 85.2169 147.891 85.2169C147.891 85.2169 147.891 85.2169 147.891 85.2169C147.891 85.2169 147.891 85.2169 147.891 85.2169C147.891 85.2169 147.891 85.2169 147.891 85.2169C147.891 85.2169 147.891 85.2169 147.891 85.2169C147.891 85.2169 147.891 85.2169 147.891 85.2169C147.891 85.2169 147.891 85.2169 147.891 85.2169C147.891 85.2169 147.891 85.2169 147.891 85.2169C147.891 85.2169 147.891 85.2169 147.891 85.2169C147.891 85.2169 147.891 85.2169 147.891 85.2169C147.891 85.2169 147.891 85.2169 147.891 85.2169C147.891 85.2169 147.891 85.2169 147.891 85.2169C147.891 85.2169 147.891 85.2169 147.891 85.2169C147.891 85.2169 147.891 85.2169 147.891 85.2169C147.891 85.2169 147.891 85.2169 147.891 85.2169C147.891 85.2169 147.891 85.2169 147.891 85.2169C147.891 85.2169 147.891 85.2169 147.891 85.2169C147.891 85.2169 147.891 85.2169 147.891 85.2169C147.891 85.2169 147.891 85.2169 147.891 85.2169C147.891 85.2169 147.891 85.2169 147.891 85.2169C147.891 85.2169 147.891 85.2169 147.891 85.2169C147.891 85.2169 147.891 85.2169 147.891 85.2169C147.891 85.2169 147.891 85.2169 147.891 85.2169C147.891 85.2169 147.891 85.2169 147.891 85.2169C147.891 85.2169 147.891 85.2169 147.891 85.2169C147.891 85.2169 147.891 85.2169 147.891 85.2169C147.891 85.2169 147.891 85.2169 147.891 85.2169C147.891 85.2169 147.891 85.2169 147.891 85.2169C147.891 85.2169 147.891 85.2169 147.891 85.2169C147.891 85.2169 147.891 85.2169 147.891 85.2169C147.891 85.2169 147.891 85.2169 147.891 85.2169C147.891 85.2169 147.891 85.2169 147.891 85.2169C147.891 85.2169 147.891 85.2169 147.891 85.2169C147.891 85.2169 147.891 85.2169 147.891 85.2169C147.891 85.2169 147.891 85.2169 147.891 85.2169C147.891 85.2169 147.891 85.2169 147.891 85.2169C147.891 85.2169 147.891 85.2169 147.891 85.2169C147.891 85.2169 147.891 85.2169 147.891 85.2169C147.891 85.2169 147.891 85.2169 147.891 85.2169C147.891 85.2169 147.891 85.2169 147.891 85.2169C147.891 85.2169 147.891 85.2169 147.891 85.2169C147.891 85.2169 147.891 85.2169 147.891 85.2169C147.891 85.2169 147.891 85.2169 147.891 85.2169C147.891 85.2169 147.891 85.2169 147.891 85.2169C147.891 85.2169 147.891 85.2169 147.891 85.2169C147.891 85.2169 147.891 85.2169 147.891 85.2169C147.891 85.2169 147.891 85.2169 147.891 85.2169C147.891 85.2169 147.891 85.2169 147.891 85.2169C147.891 85.2169 147.891 85.2169 147.891 85.2169C147.891 85.2169 147.891 85.2169 147.891 85.2169C147.891 85.2169 147.891 85.2169 147.891 85.2169C147.891 85.2169 147.891 85.2169 147.891 85.2169C147.891 85.2169 147.891 85.2169 147.891 85.2169C147.891 85.2169 147.891 85.2169 147.891 85.2169C147.891 85.2169 147.891 85.2169 147.891 85.2169C147.891 85.2169 147.891 85.2169 147.891 85.2169C147.891 85.2169 147.891 85.2169 147.891 85.2169C147.891 85.2169 147.891 85.2169 147.891 85.2169C147.891 85.2169 147.891 85.2169 147.891 85.2169C147.891 85.2169 147.891 85.2169 147.891 85.2169C147.891 85.2169 147.891 85.2169 147.891 85.2169C147.891 85.2169 147.891 85.2169 147.891 85.2169C147.891 85.2169 147.891 85.2169 147.891 85.2169C147.891 85.2169 147.891 85.2169 147.891 85.2169C147.891 85.2169 147.891 85.2169 147.891 85.2169C147.891 85.2169 147.891 85.2169 147.891 85.2169C147.891 85.2169 147.891 85.2169 147.891 85.2169C147.891 85.2169 147.891 85.2169 147.891 85.2169C147.891 85.2169 147.891 85.2169 147.891 85.2169C147.891 85.2169 147.891 85.2169 147.891 85.2169C147.891 85.2169 147.891 85.2169 147.891 85.2169C147.891 85.2169 147.891 85.2169 147.891 85.2169C147.891 85.2169 147.891 85.2169 147.891 85.2169C147.891 85.2169 147.891 85.2169 147.891 85.2169C147.891 85.2169 147.891 85.2169 147.891 85.2169C147.891 85.2169 147.891 85.2169 147.891 85.2169C147.891 85.2169 147.891 85.2169 147.891 85.2169C147.891 85.2169 147.891 85.2169 147.891 85.2169C147.891 85.2169 147.891 85.2169 147.891 85.2169C147.891 85.2169 147.891 85.2169 147.891 85.2169C147.891 85.2169 147.891 85.2169 147.891 85.2169C147.891 85.2169 147.891 85.2169 147.891 85.2169C147.891 85.2169 147.891 85.2169 147.891 85.2169C147.891 85.2169 147.891 85.2169 147.891 85.2169C147.891 85.2169 147.891 85.2169 147.891 85.2169C147.891 85.2169 147.891 85.2169 147.891 85.2169C147.891 85.2169 147.891 85.2169 147.891 85.2169C147.891 85.2169 147.891 85.2169 147.891 85.2169C147.891 85.2169 147.891 85.2169 147.891 85.2169C147.891 85.2169 147.891 85.2169 147.891 85.2169C147.891 85.2169 147.891 85.2169 147.891 85.2169C147.891 85.2169 147.891 85.2169 147.891 85.2169C147.891 85.2169 147.891 85.2169 147.891 85.2169C147.891 85.2169 147.891 85.2169 147.891 85.2169C147.891 85.2169 147.891 85.2169 147.891 85.2169C147.891 85.2169 147.891 85.2169 147.891 85.2169C147.891 85.2169 147.891 85.2169 147.891 85.2169C147.891 85.2169 147.891 85.2169 147.891 85.2169C147.891 85.2169 147.891 85.2169 147.891 85.2169C147.891 85.2169 147.891 85.2169 147.891 85.2169C147.891 85.2169 147.891 85.2169 147.891 85.2169C147.891 85.2169 147.891 85.2169 147.891 85.2169C147.891 85.2169 147.891 85.2169 147.891 85.2169C147.891 85.2169 147.891 85.2169 147.891 85.2169C147.891 85.2169 147.891 85.2169 147.891 85.2169C147.891 85.2169 147.891 85.2169 147.891 85.2169C147.891 85.2169 147.891 85.2169 147.891 85.2169C147.891 85.2169 147.891 85.2169 147.891 85.2169C147.891 85.2169 147.891 85.2169 147.891 85.2169C147.891 85.2169 147.891 85.2169 147.891 85.2169C147.891 85.2169 147.891 85.2169 147.891 85.2169C147.891 85.2169 147.891 85.2169 147.891 85.2169C147.891 85.2169 147.891 85.2169 147.891 85.2169C147.891 85.2169 147.891 85.2169 147.891 85.2169C147.891 85.2169 147.891 85.2169 147.891 85.2169C147.891 85.2169 147.891 85.2169 147.891 85.2169C147.891 85.2169 147.891 85.2169 147.891 85.2169C147.891 85.2169 147.891 85.2169 147.891 85.2169C147.891 85.2169 147.891 85.2169 147.891 85.2169C147.891 85.2169 147.891 85.2169 147.891 85.2169C147.891 85.2169 147.891 85.2169 147.891 85.2169C147.891 85.2169 147.891 85.2169 147.891 85.2169C147.891 85.2169 147.891 85.2169 147.891 85.2169C147.891 85.2169 147.891 85.2169 147.891 85.2169C147.891 85.2169 147.891 85.2169 147.891 85.2169C147.891 85.2169 147.891 85.2169 147.891 85.2169C147.891 85.2169 147.891 85.2169 147.891 85.2169C147.891 85.2169 147.891 85.2169 147.891 85.2169C147.891 85.2169 147.891 85.2169 147.891 85.2169C147.891 85.2169 147.891 85.2169 147.891 85.2169C147.891 85.2169 147.891 85.2169 147.891 85.2169C147.891 85.2169 147.891 85.2169 147.891 85.2169C147.891 85.2169 147.891 85.2169 147.891 85.2169C147.891 85.2169 147.891 85.2169 147.891 85.2169C147.891 85.2169 147.891 85.2169 147.891 85.2169C147.891 85.2169 147.891 85.2169 147.891 85.2169C147.891 85.2169 147.891 85.2169 147.891 85.2169C147.891 85.2169 147.891 85.2169 147.891 85.2169C147.891 85.2169 147.891 85.2169 147.891 85.2169C147.891 85.2169 147.891 85.2169 147.891 85.2169C147.891 85.2169 147.891 85.2169 147.891 85.2169C147.891 85.2169 147.891 85.2169 147.891 85.2169C147.891 85.2169 147.891 85.2169 147.891 85.2169C147.891 85.2169 147.891 85.2169 147.891 85.2169C147.891 85.2169 147.891 85.2169 147.891 85.2169C147.891 85.2169 147.891 85.2169 147.891 85.2169C147.891 85.2169 147.891 85.2169 147.891 85.2169C147.891 85.2169 147.891 85.2169 147.891 85.2169C147.891 85.2169 147.891 85.2169 147.891 85.2169C147.891 85.2169 147.891 85.2169 147.891 85.2169C147.891 85.2169 147.891 85.2169 147.891 85.2169C147.891 85.2169 147.891 85.2169 147.891 85.2169C147.891 85.2169 147.891 85.2169 147.891 85.2169C147.891 85.2169 147.891 85.2169 147.891 85.2169C147.891 85.2169 147.891 85.2169 147.891 85.2169C147.891 85.2169 147.891 85.2169 147.891 85.2169C147.891 85.2169 147.891 85.2169 147.891 85.2169C147.891 85.2169 147.891 85.2169 147.891 85.2169C147.891 85.2169 147.891 85.2169 147.891 85.2169C147.891 85.2169 147.891 85.2169 147.891 85.2169C147.891 85.2169 147.891 85.2169 147.891 85.2169C147.891 85.2169 147.891 85.2169 147.891 85.2169C147.891 85.2169 147.891 85.2169 147.891 85.2169C147.891 85.2169 147.891 85.2169 147.891 85.2169C147.891 85.2169 147.891 85.2169 147.891 85.2169C147.891 85.2169 147.891 85.2169 147.891 85.2169C147.891 85.2169 147.891 85.2169 147.891 85.2169C147.891 85.2169 147.891 85.2169 147.891 85.2169C147.891 85.2169 147.891 85.2169 147.891 85.2169C147.891 85.2169 147.891 85.2169 147.891 85.2169C147.891 85.2169 147.891 85.2169 147.891 85.2169C147.891 85.2169 147.891 85.2169 147.891 85.2169C147.891 85.2169 147.891 85.2169 147.891 85.2169C147.891 85.2169 147.891 85.2169 147.891 85.2169C147.891 85.2169 147.891 85.2169 147.891 85.2169C147.891 85.2169 147.891 85.2169 147.891 85.2169C147.891 85.2169 147.891 85.2169 147.891 85.2169C147.891 85.2169 147.891 85.2169 147.891 85.2169C147.891 85.2169 147.891 85.2169 147.891 85.2169C147.891 85.2169 147.891 85.2169 147.891 85.2169C147.891 85.2169 147.891 85.2169 147.891 85.2169C147.891 85.2169 147.891 85.2169 147.891 85.2169C147.891 85.2169 147.891 85.2169 147.891 85.2169C147.891 85.2169 147.891 85.2169 147.891 85.2169C147.891 85.2169 147.891 85.2169 147.891 85.2169C147.891 85.2169 147.891 85.2169 147.891 85.2169C147.891 85.2169 147.891 85.2169 147.891 85.2169C147.891 85.2169 147.891 85.2169 147.891 85.2169C147.891 85.2169 147.891 85.2169 147.891 85.2169C147.891 85.2169 147.891 85.2169 147.891 85.2169C147.891 85.2169 147.891 85.2169 147.891 85.2169C147.891 85.2169 147.891 85.2169 147.891 85.2169C147.891 85.2169 147.891 85.2169 147.891 85.2169C147.891 85.2169 147.891 85.2169 147.891 85.2169C147.891 85.2169 147.891 85.2169 147.891 85.2169C147.891 85.2169 147.891 85.2169 147.891 85.2169C147.891 85.2169 147.891 85.2169 147.891 85.2169C147.891 85.2169 147.891 85.2169 147.891 85.2169C147.891 85.2169 147.891 85.2169 147.891 85.2169C147.891 85.2169 147.891 85.2169 147.891 85.2169C147.891 85.2169 147.891 85.2169 147.891 85.2169C147.891 85.2169 147.891 85.2169 147.891 85.2169C147.891 85.2169 147.891 85.2169 147.891 85.2169C147.891 85.2169 147.891 85.2169 147.891 85.2169C147.891 85.2169 147.891 85.2169 147.891 85.2169C147.891 85.2169 147.891 85.2169 147.891 85.2169C147.891 85.2169 147.891 85.2169 147.891 85.2169C147.891 85.2169 147.891 85.2169 147.891 85.2169C147.891 85.2169 147.891 85.2169 147.891 85.2169C147.891 85.2169 147.891 85.2169 147.891 85.2169C147.891 85.2169 147.891 85.2169 147.891 85.2169C147.891 85.2169 147.891 85.2169 147.891 85.2169C147.891 85.2169 147.891 85.2169 147.891 85.2169C147.891 85.2169 147.891 85.2169 147.891 85.2169C147.891 85.2169 147.891 85.2169 147.891 85.2169C147.891 85.2169 147.891 85.2169 147.891 85.2169C147.891 85.2169 147.891 85.2169 147.891 85.2169C147.891 85.2169 147.891 85.2169 147.891 85.2169C147.891 85.2169 147.891 85.2169 147.891 85.2169C147.891 85.2169 147.891 85.2169 147.891 85.2169C147.891 85.2169 147.891 85.2169 147.891 85.2169C147.891 85.2169 147.891 85.2169 147.891 85.2169C147.891 85.2169 147.891 85.2169 147.891 85.2169C147.891 85.2169 147.891 85.2169 147.891 85.2169C147.891 85.2169 147.891 85.2169 147.891 85.2169C147.891 85.2169 147.891 85.2169 147.891 85.2169C147.891 85.2169 147.891 85.2169 147.891 85.2169C147.891 85.2169 147.891 85.2169 147.891 85.2169C147.891 85.2169 147.891 85.2169 147.891 85.2169C147.891 85.2169 147.891 85.2169 147.891 85.2169C147.891 85.2169 147.891 85.2169 147.891 85.2169C147.891 85.2169 147.891 85.2169 147.891 85.2169C147.891 85.2169 147.891 85.2169 147.891 85.2169C147.891 85.2169 147.891 85.2169 147.891 85.2169C147.891 85.2169 147.891 85.2169 147.891 85.2169C147.891 85.2169 147.891 85.2169 147.891 85.2169C147.891 85.2169 147.891 85.2169 147.891 85.2169C147.891 85.2169 147.891 85.2169 147.891 85.2169C147.891 85.2169 147.891 85.2169 147.891 85.2169C147.891 85.2169 147.891 85.2169 147.891 85.2169C147.891 85.2169 147.891 85.2169 147.891 85.2169C147.891 85.2169 147.891 85.2169 147.891 85.2169C147.891 85.2169 147.891 85.2169 147.891 85.2169C147.891 85.2169 147.891 85.2169 147.891 85.2169C147.891 85.2169 147.891 85.2169 147.891 85.2169C147.891 85.2169 147.891 85.2169 147.891 85.2169C147.891 85.2169 147.891 85.2169 147.891 85.2169C147.891 85.2169 147.891 85.2169 147.891 85.2169C147.891 85.2169 147.891 85.2169 147.891 85.2169C147.891 85.2169 147.891 85.2169 147.891 85.2169C147.891 85.2169 147.891 85.2169 147.891 85.2169C147.891 85.2169 147.891 85.2169 147.891 85.2169C147.891 85.2169 147.891 85.2169 147.891 85.2169C147.891 85.2169 147.891 85.2169 147.891 85.2169C147.891 85.2169 147.891 85.2169 147.891 85.2169C147.891 85.2169 147.891 85.2169 147.891 85.2169C147.891 85.2169 147.891 85.2169 147.891 85.2169C147.891 85.2169 147.891 85.2169 147.891 85.2169C147.891 85.2169 147.891 85.2169 147.891 85.2169C147.891 85.2169 147.891 85.2169 147.891 85.2169C147.891 85.2169 147.891 85.2169 147.891 85.2169C147.891 85.2169 147.891 85.2169 147.891 85.2169C147.891 85.2169 147.891 85.2169 147.891 85.2169C147.891 85.2169 147.891 85.2169 147.891 85.2169C147.891 85.2169 147.891 85.2169 147.891 85.2169C147.891 85.2169 147.891 85.2169 147.891 85.2169C147.891 85.2169 147.891 85.2169 147.891 85.2169C147.891 85.2169 147.891 85.2169 147.891 85.2169C147.891 85.2169 147.891 85.2169 147.891 85.2169C147.891 85.2169 147.891 85.2169 147.891 85.2169C147.891 85.2169 147.891 85.2169 147.891 85.2169C147.891 85.2169 147.891 85.2169 147.891 85.2169C147.891 85.2169 147.891 85.2169 147.891 85.2169C147.891 85.2169 147.891 85.2169 147.891 85.2169C147.891 85.2169 147.891 85.2169 147.891 85.2169C147.891 85.2169 147.891 85.2169 147.891 85.2169C147.891 85.2169 147.891 85.2169 147.891 85.2169C147.891 85.2169 147.891 85.2169 147.891 85.2169C147.891 85.2169 147.891 85.2169 147.891 85.2169C147.891 85.2169 147.891 85.2169 147.891 85.2169C147.891 85.2169 147.891 85.2169 147.891 85.2169C147.891 85.2169 147.891 85.2169 147.891 85.2169C147.891 85.2169 147.891 85.2169 147.891 85.2169C147.891 85.2169 147.891 85.2169 147.891 85.2169C147.891 85.2169 147.891 85.2169 147.891 85.2169C147.891 85.2169 147.891 85.2169 147.891 85.2169C147.891 85.2169 147.891 85.2169 147.891 85.2169C147.891 85.2169 147.891 85.2169 147.891 85.2169C147.891 85.2169 147.891 85.2169 147.891 85.2169C147.891 85.2169 147.891 85.2169 147.891 85.2169L147.891 83.2169ZM148.891 150.496L148.891 84.2169L146.891 84.2169L146.891 150.496L148.891 150.496ZM117.758 157.323C127.311 153.476 137.55 151.496 147.891 151.496L147.891 149.496C137.295 149.496 126.802 151.525 117.011 155.468L117.758 157.323ZM92.2189 173.913C99.5274 166.808 108.205 161.17 117.758 157.323L117.011 155.468C107.22 159.411 98.3214 165.191 90.8248 172.479L92.2189 173.913ZM75.1611 198.732C79.1147 189.453 84.9105 181.019 92.2189 173.913L90.8248 172.479C83.3281 179.768 77.3799 188.422 73.3211 197.949L75.1611 198.732ZM69.1729 228C69.1729 217.957 71.2074 208.012 75.1611 198.732L73.3211 197.949C69.2623 207.475 67.1729 217.687 67.1729 228L69.1729 228ZM4.56889e-05 229L68.1729 229L68.1729 227L4.58638e-05 227L4.56889e-05 229ZM10.3376 172.585C2.85282 190.153 -0.999953 208.983 -0.999954 228L1.00005 228C1.00005 209.253 4.79792 190.69 12.1776 173.369L10.3376 172.585ZM42.6193 125.613C28.7922 139.056 17.8224 155.017 10.3376 172.585L12.1776 173.369C19.5573 156.047 30.3746 140.307 44.0135 127.047L42.6193 125.613ZM56.3849 113.788C51.5606 117.443 46.9623 121.391 42.6193 125.613L44.0135 127.047C48.2974 122.882 52.8333 118.987 57.5926 115.382L56.3849 113.788ZM45.5041 105.272C48.957 108.824 52.5761 112.187 56.3459 115.351L57.6316 113.819C53.9136 110.698 50.344 107.381 46.938 103.878L45.5041 105.272ZM14.1252 56.9691C21.399 75.0314 32.0611 91.4449 45.5041 105.272L46.938 103.878C33.678 90.2389 23.1581 74.0457 15.9804 56.222L14.1252 56.9691ZM3.10796 3.3119e-05C3.10796 19.5489 6.8514 38.9069 14.1252 56.9691L15.9804 56.222C8.80263 38.3982 5.10796 19.2939 5.10796 3.32939e-05L3.10796 3.3119e-05ZM70.3871 -0.999961L4.10796 -0.999967L4.10796 1.00003L70.3871 1.00004L70.3871 -0.999961ZM77.2144 30.1334C73.3674 20.5807 71.3871 10.3413 71.3871 3.90882e-05L69.3871 3.89133e-05C69.3871 10.5963 71.4162 21.0894 75.3592 30.8805L77.2144 30.1334ZM93.8045 55.6723C86.6991 48.3639 81.0613 39.686 77.2144 30.1334L75.3592 30.8805C79.3021 40.6716 85.0821 49.5699 92.3705 57.0665L93.8045 55.6723ZM118.624 72.7302C109.344 68.7765 100.91 62.9808 93.8045 55.6723L92.3705 57.0665C99.6589 64.5632 108.313 70.5114 117.84 74.5702L118.624 72.7302ZM147.891 78.7184C137.848 78.7184 127.903 76.6839 118.624 72.7302L117.84 74.5702C127.366 78.629 137.578 80.7184 147.891 80.7184L147.891 78.7184ZM148.891 84.2169L148.891 79.7184L146.891 79.7184L146.891 84.2169L148.891 84.2169Z" fill="#FF6644" mask="url(#path-1-inside-1_187_3877)"/>
</g>
</svg>
