<svg width="968" height="729" viewBox="0 0 968 729" fill="none" xmlns="http://www.w3.org/2000/svg">
<mask id="path-1-inside-1_187_450" fill="white">
<path fill-rule="evenodd" clip-rule="evenodd" d="M415.13 -5.61317e-05L741.84 -3.79548e-05C741.84 51.6036 751.722 102.702 770.921 150.378C790.12 198.053 818.261 241.372 853.737 277.862C889.212 314.351 931.328 343.296 977.679 363.044C1024.03 382.792 1073.71 392.956 1123.88 392.956L1123.88 729C1030.81 729 938.643 710.144 852.653 673.508C766.664 636.872 688.532 583.175 622.718 515.481C602.046 494.218 582.717 471.705 564.822 448.085C549.333 466.54 532.869 484.257 515.481 501.162C447.787 566.975 367.423 619.182 278.976 654.8C190.53 690.418 95.7337 708.75 5.16577e-05 708.75L8.41155e-05 382.04C51.6037 382.04 102.702 372.158 150.378 352.959C198.053 333.76 241.372 305.619 277.862 270.143C314.351 234.667 343.296 192.552 363.044 146.2C382.792 99.8492 392.956 50.1702 392.956 -1.31553e-05L415.13 -5.61317e-05Z"/>
</mask>
<path d="M741.84 -3.79548e-05L742.84 -3.78555e-05L742.84 -1.00004L741.84 -1.00004L741.84 -3.79548e-05ZM415.13 -5.61317e-05L415.13 -1.00006L415.13 -5.61317e-05ZM770.921 150.378L771.848 150.004L770.921 150.378ZM853.737 277.862L854.454 277.164L853.737 277.862ZM977.679 363.044L978.071 362.124L977.679 363.044ZM1123.88 392.956L1124.88 392.956L1124.88 391.956L1123.88 391.956L1123.88 392.956ZM1123.88 729L1123.88 730L1124.88 730L1124.88 729L1123.88 729ZM852.653 673.508L853.045 672.588L852.653 673.508ZM622.718 515.481L622.001 516.178L622.001 516.178L622.718 515.481ZM564.822 448.085L565.619 447.481L564.862 446.482L564.056 447.442L564.822 448.085ZM515.481 501.162L516.178 501.879L515.481 501.162ZM5.16577e-05 708.75L-0.999948 708.75L-0.999948 709.75L5.15583e-05 709.75L5.16577e-05 708.75ZM8.41155e-05 382.04L8.42149e-05 381.04L-0.999916 381.04L-0.999916 382.04L8.41155e-05 382.04ZM150.378 352.959L150.751 353.887L150.378 352.959ZM277.862 270.143L278.559 270.86L277.862 270.143ZM363.044 146.2L363.964 146.592L363.044 146.2ZM392.956 -1.31553e-05L392.956 -1.00001L391.956 -1.00001L391.956 -1.32547e-05L392.956 -1.31553e-05ZM741.84 -1.00004L415.13 -1.00006L415.13 0.999944L741.84 0.999962L741.84 -1.00004ZM771.848 150.004C752.697 102.448 742.84 51.4762 742.84 -3.78555e-05L740.84 -3.80541e-05C740.84 51.7311 750.746 102.956 769.993 150.751L771.848 150.004ZM854.454 277.164C819.07 240.769 791 197.56 771.848 150.004L769.993 150.751C789.241 198.546 817.453 241.975 853.02 278.559L854.454 277.164ZM978.071 362.124C931.844 342.428 889.838 313.56 854.454 277.164L853.02 278.559C888.587 315.142 930.813 344.163 977.288 363.964L978.071 362.124ZM1123.88 391.956C1073.85 391.956 1024.3 381.819 978.071 362.124L977.288 363.964C1023.76 383.764 1073.57 393.956 1123.88 393.956L1123.88 391.956ZM1124.88 729L1124.88 392.956L1122.88 392.956L1122.88 729L1124.88 729ZM852.261 674.428C938.374 711.116 1030.67 730 1123.88 730L1123.88 728C1030.94 728 938.911 709.171 853.045 672.588L852.261 674.428ZM622.001 516.178C687.906 583.966 766.148 637.74 852.261 674.428L853.045 672.588C767.179 636.005 689.157 582.384 623.435 514.784L622.001 516.178ZM564.025 448.689C581.944 472.342 601.3 494.886 622.001 516.178L623.435 514.784C602.792 493.551 583.489 471.069 565.619 447.481L564.025 448.689ZM516.178 501.879C533.59 484.951 550.077 467.208 565.588 448.728L564.056 447.442C548.589 465.871 532.147 483.564 514.784 500.445L516.178 501.879ZM279.35 655.727C367.915 620.061 448.39 567.784 516.178 501.879L514.784 500.445C447.184 566.167 366.93 618.302 278.603 653.872L279.35 655.727ZM5.15583e-05 709.75C95.8611 709.75 190.784 691.393 279.35 655.727L278.603 653.872C190.276 689.442 95.6063 707.75 5.1757e-05 707.75L5.15583e-05 709.75ZM-0.999916 382.04L-0.999948 708.75L1.00005 708.75L1.00008 382.04L-0.999916 382.04ZM150.004 352.031C102.448 371.183 51.4763 381.04 8.42149e-05 381.04L8.40162e-05 383.04C51.7312 383.04 102.956 373.134 150.751 353.887L150.004 352.031ZM277.165 269.426C240.769 304.81 197.56 332.88 150.004 352.031L150.751 353.887C198.546 334.639 241.975 306.427 278.559 270.86L277.165 269.426ZM362.124 145.808C342.428 192.036 313.56 234.042 277.165 269.426L278.559 270.86C315.142 235.293 344.163 193.067 363.964 146.592L362.124 145.808ZM391.956 -1.32547e-05C391.956 50.0349 381.819 99.5806 362.124 145.808L363.964 146.592C383.764 100.118 393.956 50.3055 393.956 -1.3056e-05L391.956 -1.32547e-05ZM415.13 -1.00006L392.956 -1.00001L392.956 0.999987L415.13 0.999944L415.13 -1.00006Z" fill="#FF6644" mask="url(#path-1-inside-1_187_450)"/>
</svg>
