<svg width="311" height="870" viewBox="0 0 311 870" fill="none" xmlns="http://www.w3.org/2000/svg">
<path d="M227.955 870V388.531M227.955 388.531H218.375V357H389.546V388.531H377.411M227.955 388.531H377.411M377.411 388.531V865" stroke="#FF9264"/>
<path d="M272.66 388.3V869" stroke="#FF9264"/>
<path d="M228.156 443.074H112.738V870" stroke="#FF9264"/>
<path d="M228.156 422.533H101V443.074H119.563" stroke="#FF9264"/>
<path d="M149 869L149 442" stroke="#FF9264"/>
<path d="M192 869L192 442" stroke="#FF9264"/>
<path d="M33.1679 275.103H1.4466C1.83818 266.682 8.78946 259.975 17.3073 259.975C25.8251 259.975 32.7764 266.682 33.1679 275.103Z" stroke="#FF6625" stroke-width="1.5"/>
<path d="M201.647 165.938C204.391 166.852 210.018 170.054 210.567 175.544C211.116 171.152 216.284 167.31 218.8 165.938" stroke="#FF6625" stroke-width="1.5"/>
<path d="M201.647 165.938C204.391 166.852 210.018 170.054 210.567 175.544C211.116 171.152 216.284 167.31 218.8 165.938" stroke="#FF6625" stroke-width="1.5"/>
<path d="M172.829 153.587C175.573 154.502 181.2 157.704 181.748 163.193C182.297 158.802 187.466 154.959 189.982 153.587" stroke="#FF6625" stroke-width="1.5"/>
<path d="M108.272 22.1668H42.7383C45.6726 -1.79717 69.1476 -5.22061 82.3522 10.9184C98.0022 0.648097 108.272 12.8746 108.272 22.1668Z" stroke="#FF6625"/>
</svg>
