<svg width="632" height="489" viewBox="0 0 632 489" fill="none" xmlns="http://www.w3.org/2000/svg">
<mask id="mask0_536_5648" style="mask-type:alpha" maskUnits="userSpaceOnUse" x="0" y="0" width="632" height="489">
<rect width="632" height="489" fill="white" fill-opacity="0.3"/>
</mask>
<g mask="url(#mask0_536_5648)">
<rect width="0.669378" height="519.213" rx="0.334689" transform="matrix(0.982904 0.184121 -0.182742 0.983161 9.45703 -198.052)" fill="black"/>
<rect width="0.669378" height="519.213" rx="0.334689" transform="matrix(0.982904 0.184121 -0.182742 0.983161 13.2188 -197.348)" fill="black"/>
<rect width="0.669378" height="519.213" rx="0.334689" transform="matrix(0.982904 0.184121 -0.182742 0.983161 16.9805 -196.643)" fill="black"/>
<rect width="0.669378" height="519.213" rx="0.334689" transform="matrix(0.982904 0.184121 -0.182742 0.983161 20.7383 -195.939)" fill="black"/>
<rect width="0.669378" height="519.213" rx="0.334689" transform="matrix(0.982904 0.184121 -0.182742 0.983161 1.94531 -199.46)" fill="black"/>
<rect width="0.669378" height="519.213" rx="0.334689" transform="matrix(0.982904 0.184121 -0.182742 0.983161 24.4961 -195.235)" fill="black"/>
<rect width="0.669378" height="519.213" rx="0.334689" transform="matrix(0.982904 0.184121 -0.182742 0.983161 5.70312 -198.756)" fill="black"/>
<rect width="0.669378" height="519.213" rx="0.334689" transform="matrix(0.982904 0.184121 -0.182742 0.983161 28.2617 -194.531)" fill="black"/>
<rect width="0.669378" height="519.213" rx="0.334689" transform="matrix(0.982904 0.184121 -0.182742 0.983161 32.0156 -193.826)" fill="black"/>
<rect width="0.669378" height="519.213" rx="0.334689" transform="matrix(0.982904 0.184121 -0.182742 0.983161 54.5742 -189.601)" fill="black"/>
<rect width="0.669378" height="519.213" rx="0.334689" transform="matrix(0.982904 0.184121 -0.182742 0.983161 35.7773 -193.122)" fill="black"/>
<rect width="0.669378" height="519.213" rx="0.334689" transform="matrix(0.982904 0.184121 -0.182742 0.983161 58.3359 -188.896)" fill="black"/>
<rect width="0.669378" height="519.213" rx="0.334689" transform="matrix(0.982904 0.184121 -0.182742 0.983161 39.5391 -192.418)" fill="black"/>
<rect width="0.669378" height="519.213" rx="0.334689" transform="matrix(0.982904 0.184121 -0.182742 0.983161 62.0898 -188.192)" fill="black"/>
<rect width="0.669378" height="519.213" rx="0.334689" transform="matrix(0.982904 0.184121 -0.182742 0.983161 43.2969 -191.713)" fill="black"/>
<rect width="0.669378" height="519.213" rx="0.334689" transform="matrix(0.982904 0.184121 -0.182742 0.983161 65.8555 -187.488)" fill="black"/>
<rect width="0.669378" height="519.213" rx="0.334689" transform="matrix(0.982904 0.184121 -0.182742 0.983161 47.0586 -191.009)" fill="black"/>
<rect width="0.669378" height="519.213" rx="0.334689" transform="matrix(0.982904 0.184121 -0.182742 0.983161 69.6172 -186.784)" fill="black"/>
<rect width="0.669378" height="519.213" rx="0.334689" transform="matrix(0.982904 0.184121 -0.182742 0.983161 50.8203 -190.305)" fill="black"/>
<rect width="0.669378" height="519.213" rx="0.334689" transform="matrix(0.982904 0.184121 -0.182742 0.983161 73.3711 -186.079)" fill="black"/>
<rect width="0.669378" height="519.213" rx="0.334689" transform="matrix(0.982904 0.184121 -0.182742 0.983161 77.1328 -185.375)" fill="black"/>
<rect width="0.669378" height="519.213" rx="0.334689" transform="matrix(0.982904 0.184121 -0.182742 0.983161 99.6914 -181.15)" fill="black"/>
<rect width="0.669378" height="519.213" rx="0.334689" transform="matrix(0.982904 0.184121 -0.182742 0.983161 80.8945 -184.671)" fill="black"/>
<rect width="0.669378" height="519.213" rx="0.334689" transform="matrix(0.982904 0.184121 -0.182742 0.983161 103.453 -180.445)" fill="black"/>
<rect width="0.669378" height="519.213" rx="0.334689" transform="matrix(0.982904 0.184121 -0.182742 0.983161 84.6523 -183.967)" fill="black"/>
<rect width="0.669378" height="519.213" rx="0.334689" transform="matrix(0.982904 0.184121 -0.182742 0.983161 107.211 -179.741)" fill="black"/>
<rect width="0.669378" height="519.213" rx="0.334689" transform="matrix(0.982904 0.184121 -0.182742 0.983161 88.4141 -183.262)" fill="black"/>
<rect width="0.669378" height="519.213" rx="0.334689" transform="matrix(0.982904 0.184121 -0.182742 0.983161 110.969 -179.037)" fill="black"/>
<rect width="0.669378" height="519.213" rx="0.334689" transform="matrix(0.982904 0.184121 -0.182742 0.983161 92.1719 -182.558)" fill="black"/>
<rect width="0.669378" height="519.213" rx="0.334689" transform="matrix(0.982904 0.184121 -0.182742 0.983161 114.73 -178.332)" fill="black"/>
<rect width="0.669378" height="519.213" rx="0.334689" transform="matrix(0.982904 0.184121 -0.182742 0.983161 95.9297 -181.854)" fill="black"/>
<rect width="0.669378" height="519.213" rx="0.334689" transform="matrix(0.982904 0.184121 -0.182742 0.983161 118.492 -177.628)" fill="black"/>
<rect width="0.669378" height="519.213" rx="0.334689" transform="matrix(0.982904 0.184121 -0.182742 0.983161 122.25 -176.924)" fill="black"/>
<rect width="0.669378" height="519.213" rx="0.334689" transform="matrix(0.982904 0.184121 -0.182742 0.983161 144.809 -172.698)" fill="black"/>
<rect width="0.669378" height="519.213" rx="0.334689" transform="matrix(0.982904 0.184121 -0.182742 0.983161 126.012 -176.22)" fill="black"/>
<rect width="0.669378" height="519.213" rx="0.334689" transform="matrix(0.982904 0.184121 -0.182742 0.983161 148.562 -171.994)" fill="black"/>
<rect width="0.669378" height="519.213" rx="0.334689" transform="matrix(0.982904 0.184121 -0.182742 0.983161 129.77 -175.516)" fill="black"/>
<rect width="0.669378" height="519.213" rx="0.334689" transform="matrix(0.982904 0.184121 -0.182742 0.983161 152.328 -171.29)" fill="black"/>
<rect width="0.669378" height="519.213" rx="0.334689" transform="matrix(0.982904 0.184121 -0.182742 0.983161 133.527 -174.811)" fill="black"/>
<rect width="0.669378" height="519.213" rx="0.334689" transform="matrix(0.982904 0.184121 -0.182742 0.983161 156.086 -170.586)" fill="black"/>
<rect width="0.669378" height="519.213" rx="0.334689" transform="matrix(0.982904 0.184121 -0.182742 0.983161 137.293 -174.107)" fill="black"/>
<rect width="0.669378" height="519.213" rx="0.334689" transform="matrix(0.982904 0.184121 -0.182742 0.983161 159.844 -169.881)" fill="black"/>
<rect width="0.669378" height="519.213" rx="0.334689" transform="matrix(0.982904 0.184121 -0.182742 0.983161 141.051 -173.403)" fill="black"/>
<rect width="0.669378" height="519.213" rx="0.334689" transform="matrix(0.982904 0.184121 -0.182742 0.983161 163.605 -169.177)" fill="black"/>
<rect width="0.669378" height="519.213" rx="0.334689" transform="matrix(0.982904 0.184121 -0.182742 0.983161 167.367 -168.473)" fill="black"/>
<rect width="0.669378" height="519.213" rx="0.334689" transform="matrix(0.982904 0.184121 -0.182742 0.983161 189.922 -164.247)" fill="black"/>
<rect width="0.669378" height="519.213" rx="0.334689" transform="matrix(0.982904 0.184121 -0.182742 0.983161 171.121 -167.769)" fill="black"/>
<rect width="0.669378" height="519.213" rx="0.334689" transform="matrix(0.982904 0.184121 -0.182742 0.983161 193.684 -163.543)" fill="black"/>
<rect width="0.669378" height="519.213" rx="0.334689" transform="matrix(0.982904 0.184121 -0.182742 0.983161 174.887 -167.064)" fill="black"/>
<rect width="0.669378" height="519.213" rx="0.334689" transform="matrix(0.982904 0.184121 -0.182742 0.983161 197.438 -162.839)" fill="black"/>
<rect width="0.669378" height="519.213" rx="0.334689" transform="matrix(0.982904 0.184121 -0.182742 0.983161 178.645 -166.36)" fill="black"/>
<rect width="0.669378" height="519.213" rx="0.334689" transform="matrix(0.982904 0.184121 -0.182742 0.983161 201.203 -162.134)" fill="black"/>
<rect width="0.669378" height="519.213" rx="0.334689" transform="matrix(0.982904 0.184121 -0.182742 0.983161 182.398 -165.656)" fill="black"/>
<rect width="0.669378" height="519.213" rx="0.334689" transform="matrix(0.982904 0.184121 -0.182742 0.983161 204.961 -161.43)" fill="black"/>
<rect width="0.669378" height="519.213" rx="0.334689" transform="matrix(0.982904 0.184121 -0.182742 0.983161 186.164 -164.952)" fill="black"/>
<rect width="0.669378" height="519.213" rx="0.334689" transform="matrix(0.982904 0.184121 -0.182742 0.983161 208.719 -160.726)" fill="black"/>
<rect width="0.669378" height="519.213" rx="0.334689" transform="matrix(0.982904 0.184121 -0.182742 0.983161 212.484 -160.022)" fill="black"/>
<rect width="0.669378" height="519.213" rx="0.334689" transform="matrix(0.982904 0.184121 -0.182742 0.983161 235.031 -155.796)" fill="black"/>
<rect width="0.669378" height="519.213" rx="0.334689" transform="matrix(0.982904 0.184121 -0.182742 0.983161 216.238 -159.317)" fill="black"/>
<rect width="0.669378" height="519.213" rx="0.334689" transform="matrix(0.982904 0.184121 -0.182742 0.983161 238.801 -155.092)" fill="black"/>
<rect width="0.669378" height="519.213" rx="0.334689" transform="matrix(0.982904 0.184121 -0.182742 0.983161 220 -158.613)" fill="black"/>
<rect width="0.669378" height="519.213" rx="0.334689" transform="matrix(0.982904 0.184121 -0.182742 0.983161 242.559 -154.387)" fill="black"/>
<rect width="0.669378" height="519.213" rx="0.334689" transform="matrix(0.982904 0.184121 -0.182742 0.983161 223.762 -157.909)" fill="black"/>
<rect width="0.669378" height="519.213" rx="0.334689" transform="matrix(0.982904 0.184121 -0.182742 0.983161 246.312 -153.683)" fill="black"/>
<rect width="0.669378" height="519.213" rx="0.334689" transform="matrix(0.982904 0.184121 -0.182742 0.983161 227.52 -157.204)" fill="black"/>
<rect width="0.669378" height="519.213" rx="0.334689" transform="matrix(0.982904 0.184121 -0.182742 0.983161 250.078 -152.979)" fill="black"/>
<rect width="0.669378" height="519.213" rx="0.334689" transform="matrix(0.982904 0.184121 -0.182742 0.983161 231.277 -156.5)" fill="black"/>
<rect width="0.669378" height="519.213" rx="0.334689" transform="matrix(0.982904 0.184121 -0.182742 0.983161 253.836 -152.275)" fill="black"/>
<rect width="0.669378" height="519.213" rx="0.334689" transform="matrix(0.982904 0.184121 -0.182742 0.983161 257.105 -151.662)" fill="black"/>
<rect width="0.669378" height="519.213" rx="0.334689" transform="matrix(0.982904 0.184121 -0.182742 0.983161 279.668 -147.436)" fill="black"/>
<rect width="0.669378" height="519.213" rx="0.334689" transform="matrix(0.982904 0.184121 -0.182742 0.983161 260.863 -150.958)" fill="black"/>
<rect width="0.669378" height="519.213" rx="0.334689" transform="matrix(0.982904 0.184121 -0.182742 0.983161 283.426 -146.732)" fill="black"/>
<rect width="0.669378" height="519.213" rx="0.334689" transform="matrix(0.982904 0.184121 -0.182742 0.983161 264.629 -150.253)" fill="black"/>
<rect width="0.669378" height="519.213" rx="0.334689" transform="matrix(0.982904 0.184121 -0.182742 0.983161 287.18 -146.028)" fill="black"/>
<rect width="0.669378" height="519.213" rx="0.334689" transform="matrix(0.982904 0.184121 -0.182742 0.983161 268.391 -149.549)" fill="black"/>
<rect width="0.669378" height="519.213" rx="0.334689" transform="matrix(0.982904 0.184121 -0.182742 0.983161 290.945 -145.324)" fill="black"/>
<rect width="0.669378" height="519.213" rx="0.334689" transform="matrix(0.982904 0.184121 -0.182742 0.983161 272.145 -148.845)" fill="black"/>
<rect width="0.669378" height="519.213" rx="0.334689" transform="matrix(0.982904 0.184121 -0.182742 0.983161 294.703 -144.619)" fill="black"/>
<rect width="0.669378" height="519.213" rx="0.334689" transform="matrix(0.982904 0.184121 -0.182742 0.983161 275.906 -148.141)" fill="black"/>
<rect width="0.669378" height="519.213" rx="0.334689" transform="matrix(0.982904 0.184121 -0.182742 0.983161 298.461 -143.915)" fill="black"/>
<rect width="0.669378" height="519.213" rx="0.334689" transform="matrix(0.982904 0.184121 -0.182742 0.983161 302.227 -143.211)" fill="black"/>
<rect width="0.669378" height="519.213" rx="0.334689" transform="matrix(0.982904 0.184121 -0.182742 0.983161 324.781 -138.985)" fill="black"/>
<rect width="0.669378" height="519.213" rx="0.334689" transform="matrix(0.982904 0.184121 -0.182742 0.983161 305.984 -142.506)" fill="black"/>
<rect width="0.669378" height="519.213" rx="0.334689" transform="matrix(0.982904 0.184121 -0.182742 0.983161 328.543 -138.281)" fill="black"/>
<rect width="0.669378" height="519.213" rx="0.334689" transform="matrix(0.982904 0.184121 -0.182742 0.983161 309.738 -141.802)" fill="black"/>
<rect width="0.669378" height="519.213" rx="0.334689" transform="matrix(0.982904 0.184121 -0.182742 0.983161 332.301 -137.576)" fill="black"/>
<rect width="0.669378" height="519.213" rx="0.334689" transform="matrix(0.982904 0.184121 -0.182742 0.983161 313.504 -141.098)" fill="black"/>
<rect width="0.669378" height="519.213" rx="0.334689" transform="matrix(0.982904 0.184121 -0.182742 0.983161 336.062 -136.872)" fill="black"/>
<rect width="0.669378" height="519.213" rx="0.334689" transform="matrix(0.982904 0.184121 -0.182742 0.983161 317.262 -140.394)" fill="black"/>
<rect width="0.669378" height="519.213" rx="0.334689" transform="matrix(0.982904 0.184121 -0.182742 0.983161 339.82 -136.168)" fill="black"/>
<rect width="0.669378" height="519.213" rx="0.334689" transform="matrix(0.982904 0.184121 -0.182742 0.983161 321.023 -139.689)" fill="black"/>
<rect width="0.669378" height="519.213" rx="0.334689" transform="matrix(0.982904 0.184121 -0.182742 0.983161 343.578 -135.464)" fill="black"/>
<rect width="0.669378" height="519.213" rx="0.334689" transform="matrix(0.982904 0.184121 -0.182742 0.983161 347.34 -134.759)" fill="black"/>
<rect width="0.669378" height="519.213" rx="0.334689" transform="matrix(0.982904 0.184121 -0.182742 0.983161 369.895 -130.534)" fill="black"/>
<rect width="0.669378" height="519.213" rx="0.334689" transform="matrix(0.982904 0.184121 -0.182742 0.983161 351.098 -134.055)" fill="black"/>
<rect width="0.669378" height="519.213" rx="0.334689" transform="matrix(0.982904 0.184121 -0.182742 0.983161 373.656 -129.83)" fill="black"/>
<rect width="0.669378" height="519.213" rx="0.334689" transform="matrix(0.982904 0.184121 -0.182742 0.983161 354.859 -133.351)" fill="black"/>
<rect width="0.669378" height="519.213" rx="0.334689" transform="matrix(0.982904 0.184121 -0.182742 0.983161 377.418 -129.125)" fill="black"/>
<rect width="0.669378" height="519.213" rx="0.334689" transform="matrix(0.982904 0.184121 -0.182742 0.983161 358.613 -132.647)" fill="black"/>
<rect width="0.669378" height="519.213" rx="0.334689" transform="matrix(0.982904 0.184121 -0.182742 0.983161 381.172 -128.421)" fill="black"/>
<rect width="0.669378" height="519.213" rx="0.334689" transform="matrix(0.982904 0.184121 -0.182742 0.983161 362.375 -131.943)" fill="black"/>
<rect width="0.669378" height="519.213" rx="0.334689" transform="matrix(0.982904 0.184121 -0.182742 0.983161 384.934 -127.717)" fill="black"/>
<rect width="0.669378" height="519.213" rx="0.334689" transform="matrix(0.982904 0.184121 -0.182742 0.983161 366.137 -131.238)" fill="black"/>
<rect width="0.669378" height="519.213" rx="0.334689" transform="matrix(0.982904 0.184121 -0.182742 0.983161 388.699 -127.013)" fill="black"/>
<rect width="0.669378" height="519.213" rx="0.334689" transform="matrix(0.982904 0.184121 -0.182742 0.983161 392.453 -126.309)" fill="black"/>
<rect width="0.669378" height="519.213" rx="0.334689" transform="matrix(0.982904 0.184121 -0.182742 0.983161 415.016 -122.083)" fill="black"/>
<rect width="0.669378" height="519.213" rx="0.334689" transform="matrix(0.982904 0.184121 -0.182742 0.983161 396.211 -125.604)" fill="black"/>
<rect width="0.669378" height="519.213" rx="0.334689" transform="matrix(0.982904 0.184121 -0.182742 0.983161 418.773 -121.378)" fill="black"/>
<rect width="0.669378" height="519.213" rx="0.334689" transform="matrix(0.982904 0.184121 -0.182742 0.983161 399.977 -124.9)" fill="black"/>
<rect width="0.669378" height="519.213" rx="0.334689" transform="matrix(0.982904 0.184121 -0.182742 0.983161 422.531 -120.674)" fill="black"/>
<rect width="0.669378" height="519.213" rx="0.334689" transform="matrix(0.982904 0.184121 -0.182742 0.983161 403.73 -124.195)" fill="black"/>
<rect width="0.669378" height="519.213" rx="0.334689" transform="matrix(0.982904 0.184121 -0.182742 0.983161 426.293 -119.97)" fill="black"/>
<rect width="0.669378" height="519.213" rx="0.334689" transform="matrix(0.982904 0.184121 -0.182742 0.983161 407.492 -123.491)" fill="black"/>
<rect width="0.669378" height="519.213" rx="0.334689" transform="matrix(0.982904 0.184121 -0.182742 0.983161 430.051 -119.266)" fill="black"/>
<rect width="0.669378" height="519.213" rx="0.334689" transform="matrix(0.982904 0.184121 -0.182742 0.983161 411.25 -122.787)" fill="black"/>
<rect width="0.669378" height="519.213" rx="0.334689" transform="matrix(0.982904 0.184121 -0.182742 0.983161 433.809 -118.561)" fill="black"/>
<rect width="0.669378" height="519.213" rx="0.334689" transform="matrix(0.982904 0.184121 -0.182742 0.983161 437.57 -117.857)" fill="black"/>
<rect width="0.669378" height="519.213" rx="0.334689" transform="matrix(0.982904 0.184121 -0.182742 0.983161 460.125 -113.632)" fill="black"/>
<rect width="0.669378" height="519.213" rx="0.334689" transform="matrix(0.982904 0.184121 -0.182742 0.983161 441.328 -117.153)" fill="black"/>
<rect width="0.669378" height="519.213" rx="0.334689" transform="matrix(0.982904 0.184121 -0.182742 0.983161 463.887 -112.927)" fill="black"/>
<rect width="0.669378" height="519.213" rx="0.334689" transform="matrix(0.982904 0.184121 -0.182742 0.983161 445.09 -116.449)" fill="black"/>
<rect width="0.669378" height="519.213" rx="0.334689" transform="matrix(0.982904 0.184121 -0.182742 0.983161 467.648 -112.223)" fill="black"/>
<rect width="0.669378" height="519.213" rx="0.334689" transform="matrix(0.982904 0.184121 -0.182742 0.983161 448.848 -115.744)" fill="black"/>
<rect width="0.669378" height="519.213" rx="0.334689" transform="matrix(0.982904 0.184121 -0.182742 0.983161 471.402 -111.519)" fill="black"/>
<rect width="0.669378" height="519.213" rx="0.334689" transform="matrix(0.982904 0.184121 -0.182742 0.983161 452.605 -115.04)" fill="black"/>
<rect width="0.669378" height="519.213" rx="0.334689" transform="matrix(0.982904 0.184121 -0.182742 0.983161 475.168 -110.815)" fill="black"/>
<rect width="0.669378" height="519.213" rx="0.334689" transform="matrix(0.982904 0.184121 -0.182742 0.983161 456.367 -114.336)" fill="black"/>
<rect width="0.669378" height="519.213" rx="0.334689" transform="matrix(0.982904 0.184121 -0.182742 0.983161 478.926 -110.11)" fill="black"/>
<rect width="0.669378" height="519.213" rx="0.334689" transform="matrix(0.982904 0.184121 -0.182742 0.983161 482.684 -109.406)" fill="black"/>
<rect width="0.669378" height="519.213" rx="0.334689" transform="matrix(0.982904 0.184121 -0.182742 0.983161 505.242 -105.18)" fill="black"/>
<rect width="0.669378" height="519.213" rx="0.334689" transform="matrix(0.982904 0.184121 -0.182742 0.983161 486.445 -108.702)" fill="black"/>
<rect width="0.669378" height="519.213" rx="0.334689" transform="matrix(0.982904 0.184121 -0.182742 0.983161 509 -104.476)" fill="black"/>
<rect width="0.669378" height="519.213" rx="0.334689" transform="matrix(0.982904 0.184121 -0.182742 0.983161 490.207 -107.997)" fill="black"/>
<rect width="0.669378" height="519.213" rx="0.334689" transform="matrix(0.982904 0.184121 -0.182742 0.983161 512.766 -103.772)" fill="black"/>
<rect width="0.669378" height="519.213" rx="0.334689" transform="matrix(0.982904 0.184121 -0.182742 0.983161 493.965 -107.293)" fill="black"/>
<rect width="0.669378" height="519.213" rx="0.334689" transform="matrix(0.982904 0.184121 -0.182742 0.983161 516.52 -103.068)" fill="black"/>
<rect width="0.669378" height="519.213" rx="0.334689" transform="matrix(0.982904 0.184121 -0.182742 0.983161 497.723 -106.589)" fill="black"/>
<rect width="0.669378" height="519.213" rx="0.334689" transform="matrix(0.982904 0.184121 -0.182742 0.983161 520.277 -102.363)" fill="black"/>
<rect width="0.669378" height="519.213" rx="0.334689" transform="matrix(0.982904 0.184121 -0.182742 0.983161 501.488 -105.885)" fill="black"/>
<rect width="0.669378" height="519.213" rx="0.334689" transform="matrix(0.982904 0.184121 -0.182742 0.983161 524.043 -101.659)" fill="black"/>
<rect width="0.669378" height="519.213" rx="0.334689" transform="matrix(0.982904 0.184121 -0.182742 0.983161 527.801 -100.955)" fill="black"/>
<rect width="0.669378" height="519.213" rx="0.334689" transform="matrix(0.982904 0.184121 -0.182742 0.983161 550.359 -96.7292)" fill="black"/>
<rect width="0.669378" height="519.213" rx="0.334689" transform="matrix(0.982904 0.184121 -0.182742 0.983161 531.559 -100.251)" fill="black"/>
<rect width="0.669378" height="519.213" rx="0.334689" transform="matrix(0.982904 0.184121 -0.182742 0.983161 554.117 -96.0249)" fill="black"/>
<rect width="0.669378" height="519.213" rx="0.334689" transform="matrix(0.982904 0.184121 -0.182742 0.983161 535.32 -99.5463)" fill="black"/>
<rect width="0.669378" height="519.213" rx="0.334689" transform="matrix(0.982904 0.184121 -0.182742 0.983161 557.875 -95.3207)" fill="black"/>
<rect width="0.669378" height="519.213" rx="0.334689" transform="matrix(0.982904 0.184121 -0.182742 0.983161 539.082 -98.8419)" fill="black"/>
<rect width="0.669378" height="519.213" rx="0.334689" transform="matrix(0.982904 0.184121 -0.182742 0.983161 561.641 -94.6166)" fill="black"/>
<rect width="0.669378" height="519.213" rx="0.334689" transform="matrix(0.982904 0.184121 -0.182742 0.983161 542.84 -98.1377)" fill="black"/>
<rect width="0.669378" height="519.213" rx="0.334689" transform="matrix(0.982904 0.184121 -0.182742 0.983161 565.398 -93.9124)" fill="black"/>
<rect width="0.669378" height="519.213" rx="0.334689" transform="matrix(0.982904 0.184121 -0.182742 0.983161 546.594 -97.4336)" fill="black"/>
<rect width="0.669378" height="519.213" rx="0.334689" transform="matrix(0.982904 0.184121 -0.182742 0.983161 569.152 -93.2078)" fill="black"/>
<rect width="0.669378" height="519.213" rx="0.334689" transform="matrix(0.982904 0.184121 -0.182742 0.983161 572.922 -92.5035)" fill="black"/>
<rect width="0.669378" height="519.213" rx="0.334689" transform="matrix(0.982904 0.184121 -0.182742 0.983161 595.469 -88.278)" fill="black"/>
<rect width="0.669378" height="519.213" rx="0.334689" transform="matrix(0.982904 0.184121 -0.182742 0.983161 576.676 -91.7993)" fill="black"/>
<rect width="0.669378" height="519.213" rx="0.334689" transform="matrix(0.982904 0.184121 -0.182742 0.983161 599.238 -87.5737)" fill="black"/>
<rect width="0.669378" height="519.213" rx="0.334689" transform="matrix(0.982904 0.184121 -0.182742 0.983161 580.434 -91.0951)" fill="black"/>
<rect width="0.669378" height="519.213" rx="0.334689" transform="matrix(0.982904 0.184121 -0.182742 0.983161 602.992 -86.8696)" fill="black"/>
<rect width="0.669378" height="519.213" rx="0.334689" transform="matrix(0.982904 0.184121 -0.182742 0.983161 584.191 -90.391)" fill="black"/>
<rect width="0.669378" height="519.213" rx="0.334689" transform="matrix(0.982904 0.184121 -0.182742 0.983161 606.75 -86.1653)" fill="black"/>
<rect width="0.669378" height="519.213" rx="0.334689" transform="matrix(0.982904 0.184121 -0.182742 0.983161 587.957 -89.6865)" fill="black"/>
<rect width="0.669378" height="519.213" rx="0.334689" transform="matrix(0.982904 0.184121 -0.182742 0.983161 610.516 -85.4608)" fill="black"/>
<rect width="0.669378" height="519.213" rx="0.334689" transform="matrix(0.982904 0.184121 -0.182742 0.983161 591.715 -88.9822)" fill="black"/>
<rect width="0.669378" height="519.213" rx="0.334689" transform="matrix(0.982904 0.184121 -0.182742 0.983161 614.273 -84.7567)" fill="black"/>
<rect width="0.669378" height="519.213" rx="0.334689" transform="matrix(0.982904 0.184121 -0.182742 0.983161 640.57 -204.579)" fill="black"/>
<rect width="0.669378" height="519.213" rx="0.334689" transform="matrix(0.982904 0.184121 -0.182742 0.983161 663.129 -200.353)" fill="black"/>
<rect width="0.669378" height="519.213" rx="0.334689" transform="matrix(0.982904 0.184121 -0.182742 0.983161 644.324 -203.874)" fill="black"/>
<rect width="0.669378" height="519.213" rx="0.334689" transform="matrix(0.982904 0.184121 -0.182742 0.983161 666.883 -199.649)" fill="black"/>
<rect width="0.669378" height="519.213" rx="0.334689" transform="matrix(0.982904 0.184121 -0.182742 0.983161 648.09 -203.17)" fill="black"/>
<rect width="0.669378" height="519.213" rx="0.334689" transform="matrix(0.982904 0.184121 -0.182742 0.983161 670.648 -198.945)" fill="black"/>
<rect width="0.669378" height="519.213" rx="0.334689" transform="matrix(0.982904 0.184121 -0.182742 0.983161 651.848 -202.466)" fill="black"/>
<rect width="0.669378" height="519.213" rx="0.334689" transform="matrix(0.982904 0.184121 -0.182742 0.983161 674.406 -198.24)" fill="black"/>
<rect width="0.669378" height="519.213" rx="0.334689" transform="matrix(0.982904 0.184121 -0.182742 0.983161 655.605 -201.762)" fill="black"/>
<rect width="0.669378" height="519.213" rx="0.334689" transform="matrix(0.982904 0.184121 -0.182742 0.983161 678.168 -197.536)" fill="black"/>
<rect width="0.669378" height="519.213" rx="0.334689" transform="matrix(0.982904 0.184121 -0.182742 0.983161 659.367 -201.057)" fill="black"/>
<rect width="0.669378" height="519.213" rx="0.334689" transform="matrix(0.982904 0.184121 -0.182742 0.983161 681.922 -196.832)" fill="black"/>
<rect width="0.669378" height="519.213" rx="0.334689" transform="matrix(0.982904 0.184121 -0.182742 0.983161 685.688 -196.127)" fill="black"/>
<rect width="0.669378" height="519.213" rx="0.334689" transform="matrix(0.982904 0.184121 -0.182742 0.983161 708.246 -191.902)" fill="black"/>
<rect width="0.669378" height="519.213" rx="0.334689" transform="matrix(0.982904 0.184121 -0.182742 0.983161 689.445 -195.423)" fill="black"/>
<rect width="0.669378" height="519.213" rx="0.334689" transform="matrix(0.982904 0.184121 -0.182742 0.983161 712.004 -191.197)" fill="black"/>
<rect width="0.669378" height="519.213" rx="0.334689" transform="matrix(0.982904 0.184121 -0.182742 0.983161 693.203 -194.719)" fill="black"/>
<rect width="0.669378" height="519.213" rx="0.334689" transform="matrix(0.982904 0.184121 -0.182742 0.983161 715.762 -190.493)" fill="black"/>
<rect width="0.669378" height="519.213" rx="0.334689" transform="matrix(0.982904 0.184121 -0.182742 0.983161 696.965 -194.015)" fill="black"/>
<rect width="0.669378" height="519.213" rx="0.334689" transform="matrix(0.982904 0.184121 -0.182742 0.983161 719.52 -189.789)" fill="black"/>
<rect width="0.669378" height="519.213" rx="0.334689" transform="matrix(0.982904 0.184121 -0.182742 0.983161 700.723 -193.31)" fill="black"/>
<rect width="0.669378" height="519.213" rx="0.334689" transform="matrix(0.982904 0.184121 -0.182742 0.983161 723.285 -189.085)" fill="black"/>
<rect width="0.669378" height="519.213" rx="0.334689" transform="matrix(0.982904 0.184121 -0.182742 0.983161 704.48 -192.606)" fill="black"/>
<rect width="0.669378" height="519.213" rx="0.334689" transform="matrix(0.982904 0.184121 -0.182742 0.983161 481.891 293.163)" fill="black"/>
<rect width="0.669378" height="519.213" rx="0.334689" transform="matrix(0.982904 0.184121 -0.182742 0.983161 504.449 297.389)" fill="black"/>
<rect width="0.669378" height="519.213" rx="0.334689" transform="matrix(0.982904 0.184121 -0.182742 0.983161 485.648 293.867)" fill="black"/>
<rect width="0.669378" height="519.213" rx="0.334689" transform="matrix(0.982904 0.184121 -0.182742 0.983161 508.207 298.093)" fill="black"/>
<rect width="0.669378" height="519.213" rx="0.334689" transform="matrix(0.982904 0.184121 -0.182742 0.983161 489.41 294.572)" fill="black"/>
<rect width="0.669378" height="519.213" rx="0.334689" transform="matrix(0.982904 0.184121 -0.182742 0.983161 511.965 298.797)" fill="black"/>
<rect width="0.669378" height="519.213" rx="0.334689" transform="matrix(0.982904 0.184121 -0.182742 0.983161 493.168 295.276)" fill="black"/>
<rect width="0.669378" height="519.213" rx="0.334689" transform="matrix(0.982904 0.184121 -0.182742 0.983161 515.727 299.502)" fill="black"/>
<rect width="0.669378" height="519.213" rx="0.334689" transform="matrix(0.982904 0.184121 -0.182742 0.983161 496.93 295.98)" fill="black"/>
<rect width="0.669378" height="519.213" rx="0.334689" transform="matrix(0.982904 0.184121 -0.182742 0.983161 519.484 300.206)" fill="black"/>
<rect width="0.669378" height="519.213" rx="0.334689" transform="matrix(0.982904 0.184121 -0.182742 0.983161 500.688 296.685)" fill="black"/>
<rect width="0.669378" height="519.213" rx="0.334689" transform="matrix(0.982904 0.184121 -0.182742 0.983161 523.242 300.91)" fill="black"/>
<rect width="0.669378" height="519.213" rx="0.334689" transform="matrix(0.982904 0.184121 -0.182742 0.983161 527.008 301.614)" fill="black"/>
<rect width="0.669378" height="519.213" rx="0.334689" transform="matrix(0.982904 0.184121 -0.182742 0.983161 549.562 305.84)" fill="black"/>
<rect width="0.669378" height="519.213" rx="0.334689" transform="matrix(0.982904 0.184121 -0.182742 0.983161 530.766 302.318)" fill="black"/>
<rect width="0.669378" height="519.213" rx="0.334689" transform="matrix(0.982904 0.184121 -0.182742 0.983161 553.324 306.544)" fill="black"/>
<rect width="0.669378" height="519.213" rx="0.334689" transform="matrix(0.982904 0.184121 -0.182742 0.983161 534.523 303.023)" fill="black"/>
<rect width="0.669378" height="519.213" rx="0.334689" transform="matrix(0.982904 0.184121 -0.182742 0.983161 557.082 307.248)" fill="black"/>
<rect width="0.669378" height="519.213" rx="0.334689" transform="matrix(0.982904 0.184121 -0.182742 0.983161 538.281 303.727)" fill="black"/>
<rect width="0.669378" height="519.213" rx="0.334689" transform="matrix(0.982904 0.184121 -0.182742 0.983161 560.84 307.953)" fill="black"/>
<rect width="0.669378" height="519.213" rx="0.334689" transform="matrix(0.982904 0.184121 -0.182742 0.983161 542.043 304.432)" fill="black"/>
<rect width="0.669378" height="519.213" rx="0.334689" transform="matrix(0.982904 0.184121 -0.182742 0.983161 564.605 308.657)" fill="black"/>
<rect width="0.669378" height="519.213" rx="0.334689" transform="matrix(0.982904 0.184121 -0.182742 0.983161 545.805 305.135)" fill="black"/>
<rect width="0.669378" height="519.213" rx="0.334689" transform="matrix(0.982904 0.184121 -0.182742 0.983161 568.359 309.361)" fill="black"/>
<rect width="0.669378" height="519.213" rx="0.334689" transform="matrix(0.982904 0.184121 -0.182742 0.983161 572.117 310.066)" fill="black"/>
<rect width="0.669378" height="519.213" rx="0.334689" transform="matrix(0.982904 0.184121 -0.182742 0.983161 594.676 314.291)" fill="black"/>
<rect width="0.669378" height="519.213" rx="0.334689" transform="matrix(0.982904 0.184121 -0.182742 0.983161 575.883 310.77)" fill="black"/>
<rect width="0.669378" height="519.213" rx="0.334689" transform="matrix(0.982904 0.184121 -0.182742 0.983161 598.438 314.995)" fill="black"/>
<rect width="0.669378" height="519.213" rx="0.334689" transform="matrix(0.982904 0.184121 -0.182742 0.983161 579.641 311.474)" fill="black"/>
<rect width="0.669378" height="519.213" rx="0.334689" transform="matrix(0.982904 0.184121 -0.182742 0.983161 602.199 315.7)" fill="black"/>
<rect width="0.669378" height="519.213" rx="0.334689" transform="matrix(0.982904 0.184121 -0.182742 0.983161 583.398 312.178)" fill="black"/>
<rect width="0.669378" height="519.213" rx="0.334689" transform="matrix(0.982904 0.184121 -0.182742 0.983161 605.957 316.404)" fill="black"/>
<rect width="0.669378" height="519.213" rx="0.334689" transform="matrix(0.982904 0.184121 -0.182742 0.983161 587.156 312.883)" fill="black"/>
<rect width="0.669378" height="519.213" rx="0.334689" transform="matrix(0.982904 0.184121 -0.182742 0.983161 609.715 317.108)" fill="black"/>
<rect width="0.669378" height="519.213" rx="0.334689" transform="matrix(0.982904 0.184121 -0.182742 0.983161 590.922 313.587)" fill="black"/>
<rect width="0.669378" height="519.213" rx="0.334689" transform="matrix(0.982904 0.184121 -0.182742 0.983161 613.48 317.812)" fill="black"/>
<rect width="0.669378" height="519.213" rx="0.334689" transform="matrix(0.982904 0.184121 -0.182742 0.983161 617.234 318.517)" fill="black"/>
<rect width="0.669378" height="519.213" rx="0.334689" transform="matrix(0.982904 0.184121 -0.182742 0.983161 639.793 322.742)" fill="black"/>
<rect width="0.669378" height="519.213" rx="0.334689" transform="matrix(0.982904 0.184121 -0.182742 0.983161 620.996 319.221)" fill="black"/>
<rect width="0.669378" height="519.213" rx="0.334689" transform="matrix(0.982904 0.184121 -0.182742 0.983161 643.555 323.446)" fill="black"/>
<rect width="0.669378" height="519.213" rx="0.334689" transform="matrix(0.982904 0.184121 -0.182742 0.983161 624.758 319.925)" fill="black"/>
<rect width="0.669378" height="519.213" rx="0.334689" transform="matrix(0.982904 0.184121 -0.182742 0.983161 647.309 324.151)" fill="black"/>
<rect width="0.669378" height="519.213" rx="0.334689" transform="matrix(0.982904 0.184121 -0.182742 0.983161 628.516 320.629)" fill="black"/>
<rect width="0.669378" height="519.213" rx="0.334689" transform="matrix(0.982904 0.184121 -0.182742 0.983161 651.078 324.855)" fill="black"/>
<rect width="0.669378" height="519.213" rx="0.334689" transform="matrix(0.982904 0.184121 -0.182742 0.983161 632.277 321.334)" fill="black"/>
<rect width="0.669378" height="519.213" rx="0.334689" transform="matrix(0.982904 0.184121 -0.182742 0.983161 654.832 325.559)" fill="black"/>
<rect width="0.669378" height="519.213" rx="0.334689" transform="matrix(0.982904 0.184121 -0.182742 0.983161 636.031 322.038)" fill="black"/>
<rect width="0.669378" height="519.213" rx="0.334689" transform="matrix(0.982904 0.184121 -0.182742 0.983161 658.59 326.264)" fill="black"/>
<rect width="0.669378" height="519.213" rx="0.334689" transform="matrix(0.982904 0.184121 -0.182742 0.983161 662.352 326.968)" fill="black"/>
<rect width="0.669378" height="519.213" rx="0.334689" transform="matrix(0.982904 0.184121 -0.182742 0.983161 684.906 331.194)" fill="black"/>
<rect width="0.669378" height="519.213" rx="0.334689" transform="matrix(0.982904 0.184121 -0.182742 0.983161 666.113 327.672)" fill="black"/>
<rect width="0.669378" height="519.213" rx="0.334689" transform="matrix(0.982904 0.184121 -0.182742 0.983161 688.672 331.898)" fill="black"/>
<rect width="0.669378" height="519.213" rx="0.334689" transform="matrix(0.982904 0.184121 -0.182742 0.983161 669.871 328.376)" fill="black"/>
<rect width="0.669378" height="519.213" rx="0.334689" transform="matrix(0.982904 0.184121 -0.182742 0.983161 692.43 332.602)" fill="black"/>
<rect width="0.669378" height="519.213" rx="0.334689" transform="matrix(0.982904 0.184121 -0.182742 0.983161 673.625 329.081)" fill="black"/>
<rect width="0.669378" height="519.213" rx="0.334689" transform="matrix(0.982904 0.184121 -0.182742 0.983161 696.184 333.306)" fill="black"/>
<rect width="0.669378" height="519.213" rx="0.334689" transform="matrix(0.982904 0.184121 -0.182742 0.983161 677.391 329.785)" fill="black"/>
<rect width="0.669378" height="519.213" rx="0.334689" transform="matrix(0.982904 0.184121 -0.182742 0.983161 699.949 334.01)" fill="black"/>
<rect width="0.669378" height="519.213" rx="0.334689" transform="matrix(0.982904 0.184121 -0.182742 0.983161 681.148 330.489)" fill="black"/>
<rect width="0.669378" height="519.213" rx="0.334689" transform="matrix(0.982904 0.184121 -0.182742 0.983161 703.707 334.715)" fill="black"/>
<rect width="0.669378" height="519.213" rx="0.334689" transform="matrix(0.982904 0.184121 -0.182742 0.983161 707.469 335.419)" fill="black"/>
<rect width="0.669378" height="519.213" rx="0.334689" transform="matrix(0.982904 0.184121 -0.182742 0.983161 711.23 336.123)" fill="black"/>
<rect width="0.669378" height="519.213" rx="0.334689" transform="matrix(0.982904 0.184121 -0.182742 0.983161 714.988 336.828)" fill="black"/>
<rect width="0.669378" height="519.213" rx="0.334689" transform="matrix(0.982904 0.184121 -0.182742 0.983161 718.746 337.532)" fill="black"/>
<rect width="0.669378" height="519.213" rx="0.334689" transform="matrix(0.982904 0.184121 -0.182742 0.983161 722.504 338.236)" fill="black"/>
<rect width="0.669378" height="519.213" rx="0.334689" transform="matrix(0.982904 0.184121 -0.182742 0.983161 726.266 338.94)" fill="black"/>
<rect width="0.669378" height="519.213" rx="0.334689" transform="matrix(0.982904 0.184121 -0.182742 0.983161 1.16797 327.86)" fill="black"/>
<rect width="0.669378" height="519.213" rx="0.334689" transform="matrix(0.982904 0.184121 -0.182742 0.983161 4.92969 328.564)" fill="black"/>
<rect width="0.669378" height="519.213" rx="0.334689" transform="matrix(0.982904 0.184121 -0.182742 0.983161 8.69141 329.268)" fill="black"/>
<rect width="0.669378" height="519.213" rx="0.334689" transform="matrix(0.982904 0.184121 -0.182742 0.983161 31.25 333.494)" fill="black"/>
<rect width="0.669378" height="519.213" rx="0.334689" transform="matrix(0.982904 0.184121 -0.182742 0.983161 12.4492 329.973)" fill="black"/>
<rect width="0.669378" height="519.213" rx="0.334689" transform="matrix(0.982904 0.184121 -0.182742 0.983161 35.0078 334.198)" fill="black"/>
<rect width="0.669378" height="519.213" rx="0.334689" transform="matrix(0.982904 0.184121 -0.182742 0.983161 16.2109 330.677)" fill="black"/>
<rect width="0.669378" height="519.213" rx="0.334689" transform="matrix(0.982904 0.184121 -0.182742 0.983161 38.7617 334.903)" fill="black"/>
<rect width="0.669378" height="519.213" rx="0.334689" transform="matrix(0.982904 0.184121 -0.182742 0.983161 19.9688 331.381)" fill="black"/>
<rect width="0.669378" height="519.213" rx="0.334689" transform="matrix(0.982904 0.184121 -0.182742 0.983161 42.5273 335.607)" fill="black"/>
<rect width="0.669378" height="519.213" rx="0.334689" transform="matrix(0.982904 0.184121 -0.182742 0.983161 23.7266 332.086)" fill="black"/>
<rect width="0.669378" height="519.213" rx="0.334689" transform="matrix(0.982904 0.184121 -0.182742 0.983161 46.2852 336.311)" fill="black"/>
<rect width="0.669378" height="519.213" rx="0.334689" transform="matrix(0.982904 0.184121 -0.182742 0.983161 27.4844 332.79)" fill="black"/>
<rect width="0.669378" height="519.213" rx="0.334689" transform="matrix(0.982904 0.184121 -0.182742 0.983161 50.043 337.016)" fill="black"/>
<rect width="0.669378" height="519.213" rx="0.334689" transform="matrix(0.982904 0.184121 -0.182742 0.983161 53.8047 337.72)" fill="black"/>
<rect width="0.669378" height="519.213" rx="0.334689" transform="matrix(0.982904 0.184121 -0.182742 0.983161 76.3594 341.945)" fill="black"/>
<rect width="0.669378" height="519.213" rx="0.334689" transform="matrix(0.982904 0.184121 -0.182742 0.983161 57.5625 338.424)" fill="black"/>
<rect width="0.669378" height="519.213" rx="0.334689" transform="matrix(0.982904 0.184121 -0.182742 0.983161 80.125 342.649)" fill="black"/>
<rect width="0.669378" height="519.213" rx="0.334689" transform="matrix(0.982904 0.184121 -0.182742 0.983161 61.3242 339.128)" fill="black"/>
<rect width="0.669378" height="519.213" rx="0.334689" transform="matrix(0.982904 0.184121 -0.182742 0.983161 83.8828 343.354)" fill="black"/>
<rect width="0.669378" height="519.213" rx="0.334689" transform="matrix(0.982904 0.184121 -0.182742 0.983161 65.0781 339.833)" fill="black"/>
<rect width="0.669378" height="519.213" rx="0.334689" transform="matrix(0.982904 0.184121 -0.182742 0.983161 87.6406 344.058)" fill="black"/>
<rect width="0.669378" height="519.213" rx="0.334689" transform="matrix(0.982904 0.184121 -0.182742 0.983161 68.8438 340.537)" fill="black"/>
<rect width="0.669378" height="519.213" rx="0.334689" transform="matrix(0.982904 0.184121 -0.182742 0.983161 91.4023 344.762)" fill="black"/>
<rect width="0.669378" height="519.213" rx="0.334689" transform="matrix(0.982904 0.184121 -0.182742 0.983161 72.6016 341.241)" fill="black"/>
<rect width="0.669378" height="519.213" rx="0.334689" transform="matrix(0.982904 0.184121 -0.182742 0.983161 95.1562 345.467)" fill="black"/>
<rect width="0.669378" height="519.213" rx="0.334689" transform="matrix(0.982904 0.184121 -0.182742 0.983161 98.4336 346.08)" fill="black"/>
<rect width="0.669378" height="519.213" rx="0.334689" transform="matrix(0.982904 0.184121 -0.182742 0.983161 120.992 350.305)" fill="black"/>
<rect width="0.669378" height="519.213" rx="0.334689" transform="matrix(0.982904 0.184121 -0.182742 0.983161 102.191 346.784)" fill="black"/>
<rect width="0.669378" height="519.213" rx="0.334689" transform="matrix(0.982904 0.184121 -0.182742 0.983161 124.75 351.009)" fill="black"/>
<rect width="0.669378" height="519.213" rx="0.334689" transform="matrix(0.982904 0.184121 -0.182742 0.983161 105.949 347.488)" fill="black"/>
<rect width="0.669378" height="519.213" rx="0.334689" transform="matrix(0.982904 0.184121 -0.182742 0.983161 128.504 351.714)" fill="black"/>
<rect width="0.669378" height="519.213" rx="0.334689" transform="matrix(0.982904 0.184121 -0.182742 0.983161 109.715 348.192)" fill="black"/>
<rect width="0.669378" height="519.213" rx="0.334689" transform="matrix(0.982904 0.184121 -0.182742 0.983161 132.273 352.418)" fill="black"/>
<rect width="0.669378" height="519.213" rx="0.334689" transform="matrix(0.982904 0.184121 -0.182742 0.983161 113.469 348.896)" fill="black"/>
<rect width="0.669378" height="519.213" rx="0.334689" transform="matrix(0.982904 0.184121 -0.182742 0.983161 136.027 353.122)" fill="black"/>
<rect width="0.669378" height="519.213" rx="0.334689" transform="matrix(0.982904 0.184121 -0.182742 0.983161 117.227 349.601)" fill="black"/>
<rect width="0.669378" height="519.213" rx="0.334689" transform="matrix(0.982904 0.184121 -0.182742 0.983161 139.785 353.826)" fill="black"/>
<rect width="0.669378" height="519.213" rx="0.334689" transform="matrix(0.982904 0.184121 -0.182742 0.983161 143.551 354.53)" fill="black"/>
<rect width="0.669378" height="519.213" rx="0.334689" transform="matrix(0.982904 0.184121 -0.182742 0.983161 166.102 358.756)" fill="black"/>
<rect width="0.669378" height="519.213" rx="0.334689" transform="matrix(0.982904 0.184121 -0.182742 0.983161 147.309 355.235)" fill="black"/>
<rect width="0.669378" height="519.213" rx="0.334689" transform="matrix(0.982904 0.184121 -0.182742 0.983161 169.867 359.46)" fill="black"/>
<rect width="0.669378" height="519.213" rx="0.334689" transform="matrix(0.982904 0.184121 -0.182742 0.983161 151.066 355.939)" fill="black"/>
<rect width="0.669378" height="519.213" rx="0.334689" transform="matrix(0.982904 0.184121 -0.182742 0.983161 173.621 360.165)" fill="black"/>
<rect width="0.669378" height="519.213" rx="0.334689" transform="matrix(0.982904 0.184121 -0.182742 0.983161 154.824 356.643)" fill="black"/>
<rect width="0.669378" height="519.213" rx="0.334689" transform="matrix(0.982904 0.184121 -0.182742 0.983161 177.383 360.869)" fill="black"/>
<rect width="0.669378" height="519.213" rx="0.334689" transform="matrix(0.982904 0.184121 -0.182742 0.983161 158.586 357.348)" fill="black"/>
<rect width="0.669378" height="519.213" rx="0.334689" transform="matrix(0.982904 0.184121 -0.182742 0.983161 181.148 361.573)" fill="black"/>
<rect width="0.669378" height="519.213" rx="0.334689" transform="matrix(0.982904 0.184121 -0.182742 0.983161 162.344 358.052)" fill="black"/>
<rect width="0.669378" height="519.213" rx="0.334689" transform="matrix(0.982904 0.184121 -0.182742 0.983161 184.902 362.277)" fill="black"/>
<rect width="0.669378" height="519.213" rx="0.334689" transform="matrix(0.982904 0.184121 -0.182742 0.983161 188.66 362.982)" fill="black"/>
<rect width="0.669378" height="519.213" rx="0.334689" transform="matrix(0.982904 0.184121 -0.182742 0.983161 211.219 367.208)" fill="black"/>
<rect width="0.669378" height="519.213" rx="0.334689" transform="matrix(0.982904 0.184121 -0.182742 0.983161 192.418 363.686)" fill="black"/>
<rect width="0.669378" height="519.213" rx="0.334689" transform="matrix(0.982904 0.184121 -0.182742 0.983161 214.977 367.912)" fill="black"/>
<rect width="0.669378" height="519.213" rx="0.334689" transform="matrix(0.982904 0.184121 -0.182742 0.983161 196.184 364.39)" fill="black"/>
<rect width="0.669378" height="519.213" rx="0.334689" transform="matrix(0.982904 0.184121 -0.182742 0.983161 218.742 368.616)" fill="black"/>
<rect width="0.669378" height="519.213" rx="0.334689" transform="matrix(0.982904 0.184121 -0.182742 0.983161 199.941 365.095)" fill="black"/>
<rect width="0.669378" height="519.213" rx="0.334689" transform="matrix(0.982904 0.184121 -0.182742 0.983161 222.496 369.32)" fill="black"/>
<rect width="0.669378" height="519.213" rx="0.334689" transform="matrix(0.982904 0.184121 -0.182742 0.983161 203.699 365.799)" fill="black"/>
<rect width="0.669378" height="519.213" rx="0.334689" transform="matrix(0.982904 0.184121 -0.182742 0.983161 226.258 370.024)" fill="black"/>
<rect width="0.669378" height="519.213" rx="0.334689" transform="matrix(0.982904 0.184121 -0.182742 0.983161 207.461 366.503)" fill="black"/>
<rect width="0.669378" height="519.213" rx="0.334689" transform="matrix(0.982904 0.184121 -0.182742 0.983161 230.02 370.729)" fill="black"/>
<rect width="0.669378" height="519.213" rx="0.334689" transform="matrix(0.982904 0.184121 -0.182742 0.983161 233.781 371.433)" fill="black"/>
<rect width="0.669378" height="519.213" rx="0.334689" transform="matrix(0.982904 0.184121 -0.182742 0.983161 256.34 375.658)" fill="black"/>
<rect width="0.669378" height="519.213" rx="0.334689" transform="matrix(0.982904 0.184121 -0.182742 0.983161 237.535 372.137)" fill="black"/>
<rect width="0.669378" height="519.213" rx="0.334689" transform="matrix(0.982904 0.184121 -0.182742 0.983161 260.094 376.363)" fill="black"/>
<rect width="0.669378" height="519.213" rx="0.334689" transform="matrix(0.982904 0.184121 -0.182742 0.983161 241.297 372.842)" fill="black"/>
<rect width="0.669378" height="519.213" rx="0.334689" transform="matrix(0.982904 0.184121 -0.182742 0.983161 263.855 377.067)" fill="black"/>
<rect width="0.669378" height="519.213" rx="0.334689" transform="matrix(0.982904 0.184121 -0.182742 0.983161 245.055 373.546)" fill="black"/>
<rect width="0.669378" height="519.213" rx="0.334689" transform="matrix(0.982904 0.184121 -0.182742 0.983161 267.617 377.771)" fill="black"/>
<rect width="0.669378" height="519.213" rx="0.334689" transform="matrix(0.982904 0.184121 -0.182742 0.983161 248.816 374.25)" fill="black"/>
<rect width="0.669378" height="519.213" rx="0.334689" transform="matrix(0.982904 0.184121 -0.182742 0.983161 271.375 378.476)" fill="black"/>
<rect width="0.669378" height="519.213" rx="0.334689" transform="matrix(0.982904 0.184121 -0.182742 0.983161 252.574 374.955)" fill="black"/>
<rect width="0.669378" height="519.213" rx="0.334689" transform="matrix(0.982904 0.184121 -0.182742 0.983161 275.133 379.18)" fill="black"/>
<rect width="0.669378" height="519.213" rx="0.334689" transform="matrix(0.982904 0.184121 -0.182742 0.983161 278.895 379.884)" fill="black"/>
<rect width="0.669378" height="519.213" rx="0.334689" transform="matrix(0.982904 0.184121 -0.182742 0.983161 301.449 384.109)" fill="black"/>
<rect width="0.669378" height="519.213" rx="0.334689" transform="matrix(0.982904 0.184121 -0.182742 0.983161 282.652 380.588)" fill="black"/>
<rect width="0.669378" height="519.213" rx="0.334689" transform="matrix(0.982904 0.184121 -0.182742 0.983161 305.211 384.814)" fill="black"/>
<rect width="0.669378" height="519.213" rx="0.334689" transform="matrix(0.982904 0.184121 -0.182742 0.983161 286.414 381.293)" fill="black"/>
<rect width="0.669378" height="519.213" rx="0.334689" transform="matrix(0.982904 0.184121 -0.182742 0.983161 308.969 385.518)" fill="black"/>
<rect width="0.669378" height="519.213" rx="0.334689" transform="matrix(0.982904 0.184121 -0.182742 0.983161 290.172 381.997)" fill="black"/>
<rect width="0.669378" height="519.213" rx="0.334689" transform="matrix(0.982904 0.184121 -0.182742 0.983161 312.73 386.223)" fill="black"/>
<rect width="0.669378" height="519.213" rx="0.334689" transform="matrix(0.982904 0.184121 -0.182742 0.983161 293.93 382.701)" fill="black"/>
<rect width="0.669378" height="519.213" rx="0.334689" transform="matrix(0.982904 0.184121 -0.182742 0.983161 316.492 386.927)" fill="black"/>
<rect width="0.669378" height="519.213" rx="0.334689" transform="matrix(0.982904 0.184121 -0.182742 0.983161 297.691 383.406)" fill="black"/>
<rect width="0.669378" height="519.213" rx="0.334689" transform="matrix(0.982904 0.184121 -0.182742 0.983161 320.254 387.631)" fill="black"/>
<rect width="0.669378" height="519.213" rx="0.334689" transform="matrix(0.982904 0.184121 -0.182742 0.983161 324.008 388.335)" fill="black"/>
<rect width="0.669378" height="519.213" rx="0.334689" transform="matrix(0.982904 0.184121 -0.182742 0.983161 346.566 392.561)" fill="black"/>
<rect width="0.669378" height="519.213" rx="0.334689" transform="matrix(0.982904 0.184121 -0.182742 0.983161 327.766 389.04)" fill="black"/>
<rect width="0.669378" height="519.213" rx="0.334689" transform="matrix(0.982904 0.184121 -0.182742 0.983161 350.324 393.265)" fill="black"/>
<rect width="0.669378" height="519.213" rx="0.334689" transform="matrix(0.982904 0.184121 -0.182742 0.983161 331.527 389.744)" fill="black"/>
<rect width="0.669378" height="519.213" rx="0.334689" transform="matrix(0.982904 0.184121 -0.182742 0.983161 354.09 393.969)" fill="black"/>
<rect width="0.669378" height="519.213" rx="0.334689" transform="matrix(0.982904 0.184121 -0.182742 0.983161 335.289 390.448)" fill="black"/>
<rect width="0.669378" height="519.213" rx="0.334689" transform="matrix(0.982904 0.184121 -0.182742 0.983161 357.844 394.674)" fill="black"/>
<rect width="0.669378" height="519.213" rx="0.334689" transform="matrix(0.982904 0.184121 -0.182742 0.983161 339.043 391.152)" fill="black"/>
<rect width="0.669378" height="519.213" rx="0.334689" transform="matrix(0.982904 0.184121 -0.182742 0.983161 361.605 395.378)" fill="black"/>
<rect width="0.669378" height="519.213" rx="0.334689" transform="matrix(0.982904 0.184121 -0.182742 0.983161 342.809 391.857)" fill="black"/>
<rect width="0.669378" height="519.213" rx="0.334689" transform="matrix(0.982904 0.184121 -0.182742 0.983161 365.363 396.083)" fill="black"/>
<rect width="0.669378" height="519.213" rx="0.334689" transform="matrix(0.982904 0.184121 -0.182742 0.983161 369.125 396.786)" fill="black"/>
<rect width="0.669378" height="519.213" rx="0.334689" transform="matrix(0.982904 0.184121 -0.182742 0.983161 391.684 401.012)" fill="black"/>
<rect width="0.669378" height="519.213" rx="0.334689" transform="matrix(0.982904 0.184121 -0.182742 0.983161 372.883 397.491)" fill="black"/>
<rect width="0.669378" height="519.213" rx="0.334689" transform="matrix(0.982904 0.184121 -0.182742 0.983161 395.441 401.716)" fill="black"/>
<rect width="0.669378" height="519.213" rx="0.334689" transform="matrix(0.982904 0.184121 -0.182742 0.983161 376.641 398.195)" fill="black"/>
<rect width="0.669378" height="519.213" rx="0.334689" transform="matrix(0.982904 0.184121 -0.182742 0.983161 399.199 402.421)" fill="black"/>
<rect width="0.669378" height="519.213" rx="0.334689" transform="matrix(0.982904 0.184121 -0.182742 0.983161 380.406 398.899)" fill="black"/>
<rect width="0.669378" height="519.213" rx="0.334689" transform="matrix(0.982904 0.184121 -0.182742 0.983161 402.965 403.125)" fill="black"/>
<rect width="0.669378" height="519.213" rx="0.334689" transform="matrix(0.982904 0.184121 -0.182742 0.983161 384.164 399.604)" fill="black"/>
<rect width="0.669378" height="519.213" rx="0.334689" transform="matrix(0.982904 0.184121 -0.182742 0.983161 406.723 403.829)" fill="black"/>
<rect width="0.669378" height="519.213" rx="0.334689" transform="matrix(0.982904 0.184121 -0.182742 0.983161 387.918 400.308)" fill="black"/>
<rect width="0.669378" height="519.213" rx="0.334689" transform="matrix(0.982904 0.184121 -0.182742 0.983161 410.477 404.533)" fill="black"/>
<rect width="0.669378" height="519.213" rx="0.334689" transform="matrix(0.982904 0.184121 -0.182742 0.983161 414.238 405.238)" fill="black"/>
<rect width="0.669378" height="519.213" rx="0.334689" transform="matrix(0.982904 0.184121 -0.182742 0.983161 436.797 409.463)" fill="black"/>
<rect width="0.669378" height="519.213" rx="0.334689" transform="matrix(0.982904 0.184121 -0.182742 0.983161 418 405.942)" fill="black"/>
<rect width="0.669378" height="519.213" rx="0.334689" transform="matrix(0.982904 0.184121 -0.182742 0.983161 440.562 410.167)" fill="black"/>
<rect width="0.669378" height="519.213" rx="0.334689" transform="matrix(0.982904 0.184121 -0.182742 0.983161 421.762 406.646)" fill="black"/>
<rect width="0.669378" height="519.213" rx="0.334689" transform="matrix(0.982904 0.184121 -0.182742 0.983161 444.316 410.872)" fill="black"/>
<rect width="0.669378" height="519.213" rx="0.334689" transform="matrix(0.982904 0.184121 -0.182742 0.983161 425.516 407.351)" fill="black"/>
<rect width="0.669378" height="519.213" rx="0.334689" transform="matrix(0.982904 0.184121 -0.182742 0.983161 448.074 411.576)" fill="black"/>
<rect width="0.669378" height="519.213" rx="0.334689" transform="matrix(0.982904 0.184121 -0.182742 0.983161 429.277 408.055)" fill="black"/>
<rect width="0.669378" height="519.213" rx="0.334689" transform="matrix(0.982904 0.184121 -0.182742 0.983161 451.836 412.281)" fill="black"/>
<rect width="0.669378" height="519.213" rx="0.334689" transform="matrix(0.982904 0.184121 -0.182742 0.983161 433.035 408.759)" fill="black"/>
<rect width="0.669378" height="519.213" rx="0.334689" transform="matrix(0.982904 0.184121 -0.182742 0.983161 455.598 412.984)" fill="black"/>
</g>
</svg>
