<svg width="368" height="270" viewBox="0 0 368 270" fill="none" xmlns="http://www.w3.org/2000/svg">
<mask id="path-1-inside-1_508_14274" fill="white">
<path fill-rule="evenodd" clip-rule="evenodd" d="M206.141 -92L368.376 -92C368.376 -66.3751 373.283 -41.0012 382.817 -17.3269C392.351 6.34741 406.324 27.8584 423.941 45.9779C441.557 64.0975 462.47 78.4706 485.487 88.2769C508.504 98.0831 533.173 103.13 558.086 103.13L558.086 270C511.868 270 466.102 260.637 423.403 242.444C380.703 224.252 341.905 197.588 309.224 163.973C298.958 153.414 289.36 142.235 280.474 130.506C272.783 139.67 264.607 148.468 255.973 156.862C222.358 189.543 182.451 215.467 138.531 233.154C94.6115 250.841 47.5385 259.944 -3.49649e-05 259.944L-1.88472e-05 97.71C25.6249 97.71 50.9988 92.803 74.6731 83.2692C98.3474 73.7353 119.858 59.7614 137.978 42.1452C156.097 24.529 170.471 3.61554 180.277 -19.4011C190.083 -42.4178 195.13 -67.0869 195.13 -92L206.141 -92Z"/>
</mask>
<path d="M368.376 -92L369.376 -92L369.376 -93L368.376 -93L368.376 -92ZM206.141 -92L206.141 -93L206.141 -92ZM382.817 -17.3269L383.744 -17.7004L382.817 -17.3269ZM423.941 45.9779L423.224 46.675L423.941 45.9779ZM485.487 88.2769L485.879 87.3569L485.487 88.2769ZM558.086 103.13L559.086 103.13L559.086 102.13L558.086 102.13L558.086 103.13ZM558.086 270L558.086 271L559.086 271L559.086 270L558.086 270ZM309.224 163.973L309.941 163.276L309.224 163.973ZM280.474 130.506L281.271 129.902L280.514 128.903L279.708 129.863L280.474 130.506ZM255.973 156.862L255.276 156.145L255.973 156.862ZM138.531 233.154L138.158 232.227L138.531 233.154ZM-3.49649e-05 259.944L-1.00003 259.944L-1.00004 260.944L-3.50642e-05 260.944L-3.49649e-05 259.944ZM-1.88472e-05 97.71L-1.87479e-05 96.71L-1.00002 96.71L-1.00002 97.71L-1.88472e-05 97.71ZM74.6731 83.2692L75.0467 84.1968L74.6731 83.2692ZM137.978 42.1452L138.675 42.8622L137.978 42.1452ZM180.277 -19.4011L181.197 -19.0092L180.277 -19.4011ZM195.13 -92L195.13 -93L194.13 -93L194.13 -92L195.13 -92ZM368.376 -93L206.141 -93L206.141 -91L368.376 -91L368.376 -93ZM383.744 -17.7004C374.259 -41.2555 369.376 -66.5026 369.376 -92L367.376 -92C367.376 -66.2477 372.307 -40.7469 381.889 -16.9533L383.744 -17.7004ZM424.658 45.2809C407.133 27.2554 393.23 5.85458 383.744 -17.7004L381.889 -16.9533C391.471 6.84024 405.516 28.4614 423.224 46.675L424.658 45.2809ZM485.879 87.3569C462.986 77.6032 442.182 63.3062 424.658 45.2809L423.224 46.675C440.931 64.8887 461.955 79.3381 485.095 89.1968L485.879 87.3569ZM558.086 102.13C533.308 102.13 508.772 97.1105 485.879 87.3569L485.095 89.1968C508.235 99.0556 533.038 104.13 558.086 104.13L558.086 102.13ZM559.086 270L559.086 103.13L557.086 103.13L557.086 270L559.086 270ZM423.011 243.364C465.834 261.609 511.733 271 558.086 271L558.086 269C512.003 269 466.371 259.664 423.795 241.524L423.011 243.364ZM308.507 164.67C341.279 198.379 380.187 225.12 423.011 243.364L423.795 241.524C381.218 223.385 342.53 196.796 309.941 163.276L308.507 164.67ZM279.677 131.11C288.588 142.872 298.213 154.082 308.507 164.67L309.941 163.276C299.704 152.747 290.132 141.599 281.271 129.902L279.677 131.11ZM256.67 157.579C265.328 149.161 273.527 140.339 281.24 131.149L279.708 129.863C272.038 139.001 263.886 147.774 255.276 156.145L256.67 157.579ZM138.905 234.082C182.944 216.347 222.961 190.352 256.67 157.579L255.276 156.145C221.755 188.735 181.958 214.588 138.158 232.227L138.905 234.082ZM-3.50642e-05 260.944C47.666 260.944 94.8658 251.817 138.905 234.082L138.158 232.227C94.3572 249.866 47.411 258.944 -3.48655e-05 258.944L-3.50642e-05 260.944ZM-1.00002 97.71L-1.00003 259.944L0.999965 259.944L0.999981 97.71L-1.00002 97.71ZM74.2995 82.3416C50.7445 91.8274 25.4974 96.71 -1.87479e-05 96.71L-1.89466e-05 98.71C25.7524 98.71 51.2532 93.7786 75.0467 84.1968L74.2995 82.3416ZM137.281 41.4282C119.255 58.953 97.8546 72.8558 74.2995 82.3416L75.0467 84.1968C98.8403 74.6149 120.461 60.5699 138.675 42.8622L137.281 41.4282ZM179.357 -19.7931C169.603 3.10026 155.306 23.9035 137.281 41.4282L138.675 42.8622C156.889 25.1545 171.338 4.13082 181.197 -19.0092L179.357 -19.7931ZM194.13 -92C194.13 -67.2222 189.11 -42.6864 179.357 -19.7931L181.197 -19.0092C191.056 -42.1492 196.13 -66.9517 196.13 -92L194.13 -92ZM206.141 -93L195.13 -93L195.13 -91L206.141 -91L206.141 -93Z" fill="#FF6644" mask="url(#path-1-inside-1_508_14274)"/>
</svg>
