<svg width="800" height="600" viewBox="0 0 800 600" fill="none" xmlns="http://www.w3.org/2000/svg">
<mask id="mask0_187_7250" style="mask-type:alpha" maskUnits="userSpaceOnUse" x="0" y="0" width="800" height="600">
<rect width="800" height="600" fill="white" fill-opacity="0.4"/>
</mask>
<g mask="url(#mask0_187_7250)">
<rect x="0.584473" y="218.109" width="0.762301" height="589.15" transform="rotate(10.5696 0.584473 218.109)" fill="black"/>
<rect x="4.86621" y="218.908" width="0.762301" height="589.15" transform="rotate(10.5696 4.86621 218.908)" fill="black"/>
<rect x="8.59375" y="219.604" width="0.762301" height="589.15" transform="rotate(10.5696 8.59375 219.604)" fill="black"/>
<rect x="34.2856" y="224.397" width="0.762301" height="589.15" transform="rotate(10.5696 34.2856 224.397)" fill="black"/>
<rect x="12.8755" y="220.402" width="0.762301" height="589.15" transform="rotate(10.5696 12.8755 220.402)" fill="black"/>
<rect x="38.5693" y="225.196" width="0.762301" height="589.15" transform="rotate(10.5696 38.5693 225.196)" fill="black"/>
<rect x="17.1567" y="221.201" width="0.762301" height="589.15" transform="rotate(10.5696 17.1567 221.201)" fill="black"/>
<rect x="42.8511" y="225.995" width="0.762301" height="589.15" transform="rotate(10.5696 42.8511 225.995)" fill="black"/>
<rect x="21.4409" y="222.001" width="0.762301" height="589.15" transform="rotate(10.5696 21.4409 222.001)" fill="black"/>
<rect x="47.1328" y="226.796" width="0.762301" height="589.15" transform="rotate(10.5696 47.1328 226.796)" fill="black"/>
<rect x="25.7222" y="222.8" width="0.762301" height="589.15" transform="rotate(10.5696 25.7222 222.8)" fill="black"/>
<rect x="51.4141" y="227.594" width="0.762301" height="589.15" transform="rotate(10.5696 51.4141 227.594)" fill="black"/>
<rect x="30.0039" y="223.599" width="0.762301" height="589.15" transform="rotate(10.5696 30.0039 223.599)" fill="black"/>
<rect x="55.6958" y="228.393" width="0.762301" height="589.15" transform="rotate(10.5696 55.6958 228.393)" fill="black"/>
<rect x="59.98" y="229.192" width="0.762301" height="589.15" transform="rotate(10.5696 59.98 229.192)" fill="black"/>
<rect x="85.6714" y="233.985" width="0.762301" height="589.15" transform="rotate(10.5696 85.6714 233.985)" fill="black"/>
<rect x="64.2612" y="229.99" width="0.762301" height="589.15" transform="rotate(10.5696 64.2612 229.99)" fill="black"/>
<rect x="89.9531" y="234.785" width="0.762301" height="589.15" transform="rotate(10.5696 89.9531 234.785)" fill="black"/>
<rect x="68.543" y="230.79" width="0.762301" height="589.15" transform="rotate(10.5696 68.543 230.79)" fill="black"/>
<rect x="94.2349" y="235.585" width="0.762301" height="589.15" transform="rotate(10.5696 94.2349 235.585)" fill="black"/>
<rect x="72.8247" y="231.589" width="0.762301" height="589.15" transform="rotate(10.5696 72.8247 231.589)" fill="black"/>
<rect x="98.5186" y="236.382" width="0.762301" height="589.15" transform="rotate(10.5696 98.5186 236.382)" fill="black"/>
<rect x="77.1064" y="232.388" width="0.762301" height="589.15" transform="rotate(10.5696 77.1064 232.388)" fill="black"/>
<rect x="102.8" y="237.182" width="0.762301" height="589.15" transform="rotate(10.5696 102.8 237.182)" fill="black"/>
<rect x="81.3896" y="233.188" width="0.762301" height="589.15" transform="rotate(10.5696 81.3896 233.188)" fill="black"/>
<rect x="107.082" y="237.98" width="0.762301" height="589.15" transform="rotate(10.5696 107.082 237.98)" fill="black"/>
<rect x="111.364" y="238.779" width="0.762301" height="589.15" transform="rotate(10.5696 111.364 238.779)" fill="black"/>
<rect x="137.056" y="243.574" width="0.762301" height="589.15" transform="rotate(10.5696 137.056 243.574)" fill="black"/>
<rect x="115.645" y="239.579" width="0.762301" height="589.15" transform="rotate(10.5696 115.645 239.579)" fill="black"/>
<rect x="141.339" y="244.373" width="0.762301" height="589.15" transform="rotate(10.5696 141.339 244.373)" fill="black"/>
<rect x="119.928" y="240.378" width="0.762301" height="589.15" transform="rotate(10.5696 119.928 240.378)" fill="black"/>
<rect x="145.621" y="245.172" width="0.762301" height="589.15" transform="rotate(10.5696 145.621 245.172)" fill="black"/>
<rect x="124.21" y="241.177" width="0.762301" height="589.15" transform="rotate(10.5696 124.21 241.177)" fill="black"/>
<rect x="149.902" y="245.972" width="0.762301" height="589.15" transform="rotate(10.5696 149.902 245.972)" fill="black"/>
<rect x="128.492" y="241.977" width="0.762301" height="589.15" transform="rotate(10.5696 128.492 241.977)" fill="black"/>
<rect x="154.184" y="246.771" width="0.762301" height="589.15" transform="rotate(10.5696 154.184 246.771)" fill="black"/>
<rect x="132.774" y="242.774" width="0.762301" height="589.15" transform="rotate(10.5696 132.774 242.774)" fill="black"/>
<rect x="158.467" y="247.569" width="0.762301" height="589.15" transform="rotate(10.5696 158.467 247.569)" fill="black"/>
<rect x="162.75" y="248.368" width="0.762301" height="589.15" transform="rotate(10.5696 162.75 248.368)" fill="black"/>
<rect x="188.442" y="253.163" width="0.762301" height="589.15" transform="rotate(10.5696 188.442 253.163)" fill="black"/>
<rect x="167.03" y="249.167" width="0.762301" height="589.15" transform="rotate(10.5696 167.03 249.167)" fill="black"/>
<rect x="192.723" y="253.962" width="0.762301" height="589.15" transform="rotate(10.5696 192.723 253.962)" fill="black"/>
<rect x="171.313" y="249.966" width="0.762301" height="589.15" transform="rotate(10.5696 171.313 249.966)" fill="black"/>
<rect x="197.006" y="254.761" width="0.762301" height="589.15" transform="rotate(10.5696 197.006 254.761)" fill="black"/>
<rect x="175.595" y="250.766" width="0.762301" height="589.15" transform="rotate(10.5696 175.595 250.766)" fill="black"/>
<rect x="201.289" y="255.559" width="0.762301" height="589.15" transform="rotate(10.5696 201.289 255.559)" fill="black"/>
<rect x="179.878" y="251.564" width="0.762301" height="589.15" transform="rotate(10.5696 179.878 251.564)" fill="black"/>
<rect x="205.57" y="256.357" width="0.762301" height="589.15" transform="rotate(10.5696 205.57 256.357)" fill="black"/>
<rect x="184.16" y="252.363" width="0.762301" height="589.15" transform="rotate(10.5696 184.16 252.363)" fill="black"/>
<rect x="209.852" y="257.157" width="0.762301" height="589.15" transform="rotate(10.5696 209.852 257.157)" fill="black"/>
<rect x="214.133" y="257.956" width="0.762301" height="589.15" transform="rotate(10.5696 214.133 257.956)" fill="black"/>
<rect x="239.828" y="262.751" width="0.762301" height="589.15" transform="rotate(10.5696 239.828 262.751)" fill="black"/>
<rect x="218.417" y="258.755" width="0.762301" height="589.15" transform="rotate(10.5696 218.417 258.755)" fill="black"/>
<rect x="244.109" y="263.55" width="0.762301" height="589.15" transform="rotate(10.5696 244.109 263.55)" fill="black"/>
<rect x="222.699" y="259.555" width="0.762301" height="589.15" transform="rotate(10.5696 222.699 259.555)" fill="black"/>
<rect x="248.391" y="264.348" width="0.762301" height="589.15" transform="rotate(10.5696 248.391 264.348)" fill="black"/>
<rect x="226.98" y="260.354" width="0.762301" height="589.15" transform="rotate(10.5696 226.98 260.354)" fill="black"/>
<rect x="252.672" y="265.147" width="0.762301" height="589.15" transform="rotate(10.5696 252.672 265.147)" fill="black"/>
<rect x="231.262" y="261.153" width="0.762301" height="589.15" transform="rotate(10.5696 231.262 261.153)" fill="black"/>
<rect x="256.956" y="265.946" width="0.762301" height="589.15" transform="rotate(10.5696 256.956 265.946)" fill="black"/>
<rect x="235.544" y="261.951" width="0.762301" height="589.15" transform="rotate(10.5696 235.544 261.951)" fill="black"/>
<rect x="261.238" y="266.746" width="0.762301" height="589.15" transform="rotate(10.5696 261.238 266.746)" fill="black"/>
<rect x="265.52" y="267.545" width="0.762301" height="589.15" transform="rotate(10.5696 265.52 267.545)" fill="black"/>
<rect x="291.211" y="272.339" width="0.762301" height="589.15" transform="rotate(10.5696 291.211 272.339)" fill="black"/>
<rect x="269.801" y="268.343" width="0.762301" height="589.15" transform="rotate(10.5696 269.801 268.343)" fill="black"/>
<rect x="295.493" y="273.139" width="0.762301" height="589.15" transform="rotate(10.5696 295.493 273.139)" fill="black"/>
<rect x="274.083" y="269.143" width="0.762301" height="589.15" transform="rotate(10.5696 274.083 269.143)" fill="black"/>
<rect x="299.777" y="273.938" width="0.762301" height="589.15" transform="rotate(10.5696 299.777 273.938)" fill="black"/>
<rect x="278.367" y="269.941" width="0.762301" height="589.15" transform="rotate(10.5696 278.367 269.941)" fill="black"/>
<rect x="304.059" y="274.735" width="0.762301" height="589.15" transform="rotate(10.5696 304.059 274.735)" fill="black"/>
<rect x="282.647" y="270.741" width="0.762301" height="589.15" transform="rotate(10.5696 282.647 270.741)" fill="black"/>
<rect x="308.34" y="275.535" width="0.762301" height="589.15" transform="rotate(10.5696 308.34 275.535)" fill="black"/>
<rect x="286.93" y="271.54" width="0.762301" height="589.15" transform="rotate(10.5696 286.93 271.54)" fill="black"/>
<rect x="312.622" y="276.334" width="0.762301" height="589.15" transform="rotate(10.5696 312.622 276.334)" fill="black"/>
<rect x="316.906" y="277.133" width="0.762301" height="589.15" transform="rotate(10.5696 316.906 277.133)" fill="black"/>
<rect x="342.598" y="281.927" width="0.762301" height="589.15" transform="rotate(10.5696 342.598 281.927)" fill="black"/>
<rect x="321.187" y="277.933" width="0.762301" height="589.15" transform="rotate(10.5696 321.187 277.933)" fill="black"/>
<rect x="346.879" y="282.727" width="0.762301" height="589.15" transform="rotate(10.5696 346.879 282.727)" fill="black"/>
<rect x="325.469" y="278.731" width="0.762301" height="589.15" transform="rotate(10.5696 325.469 278.731)" fill="black"/>
<rect x="351.161" y="283.524" width="0.762301" height="589.15" transform="rotate(10.5696 351.161 283.524)" fill="black"/>
<rect x="329.75" y="279.53" width="0.762301" height="589.15" transform="rotate(10.5696 329.75 279.53)" fill="black"/>
<rect x="355.445" y="284.324" width="0.762301" height="589.15" transform="rotate(10.5696 355.445 284.324)" fill="black"/>
<rect x="334.032" y="280.33" width="0.762301" height="589.15" transform="rotate(10.5696 334.032 280.33)" fill="black"/>
<rect x="359.726" y="285.124" width="0.762301" height="589.15" transform="rotate(10.5696 359.726 285.124)" fill="black"/>
<rect x="338.316" y="281.128" width="0.762301" height="589.15" transform="rotate(10.5696 338.316 281.128)" fill="black"/>
<rect x="364.008" y="285.922" width="0.762301" height="589.15" transform="rotate(10.5696 364.008 285.922)" fill="black"/>
<rect x="368.289" y="286.722" width="0.762301" height="589.15" transform="rotate(10.5696 368.289 286.722)" fill="black"/>
<rect x="393.98" y="291.517" width="0.762301" height="589.15" transform="rotate(10.5696 393.98 291.517)" fill="black"/>
<rect x="372.571" y="287.52" width="0.762301" height="589.15" transform="rotate(10.5696 372.571 287.52)" fill="black"/>
<rect x="398.265" y="292.313" width="0.762301" height="589.15" transform="rotate(10.5696 398.265 292.313)" fill="black"/>
<rect x="376.855" y="288.319" width="0.762301" height="589.15" transform="rotate(10.5696 376.855 288.319)" fill="black"/>
<rect x="402.547" y="293.113" width="0.762301" height="589.15" transform="rotate(10.5696 402.547 293.113)" fill="black"/>
<rect x="381.137" y="289.119" width="0.762301" height="589.15" transform="rotate(10.5696 381.137 289.119)" fill="black"/>
<rect x="406.829" y="293.912" width="0.762301" height="589.15" transform="rotate(10.5696 406.829 293.912)" fill="black"/>
<rect x="385.418" y="289.917" width="0.762301" height="589.15" transform="rotate(10.5696 385.418 289.917)" fill="black"/>
<rect x="411.11" y="294.711" width="0.762301" height="589.15" transform="rotate(10.5696 411.11 294.711)" fill="black"/>
<rect x="389.7" y="290.717" width="0.762301" height="589.15" transform="rotate(10.5696 389.7 290.717)" fill="black"/>
<rect x="415.394" y="295.511" width="0.762301" height="589.15" transform="rotate(10.5696 415.394 295.511)" fill="black"/>
<rect x="419.519" y="297.092" width="0.762301" height="589.15" transform="rotate(10.5696 419.519 297.092)" fill="black"/>
<rect x="445.211" y="301.887" width="0.762301" height="589.15" transform="rotate(10.5696 445.211 301.887)" fill="black"/>
<rect x="423.801" y="297.892" width="0.762301" height="589.15" transform="rotate(10.5696 423.801 297.892)" fill="black"/>
<rect x="449.493" y="302.687" width="0.762301" height="589.15" transform="rotate(10.5696 449.493 302.687)" fill="black"/>
<rect x="428.083" y="298.691" width="0.762301" height="589.15" transform="rotate(10.5696 428.083 298.691)" fill="black"/>
<rect x="453.777" y="303.485" width="0.762301" height="589.15" transform="rotate(10.5696 453.777 303.485)" fill="black"/>
<rect x="432.366" y="299.49" width="0.762301" height="589.15" transform="rotate(10.5696 432.366 299.49)" fill="black"/>
<rect x="458.058" y="304.284" width="0.762301" height="589.15" transform="rotate(10.5696 458.058 304.284)" fill="black"/>
<rect x="436.648" y="300.289" width="0.762301" height="589.15" transform="rotate(10.5696 436.648 300.289)" fill="black"/>
<rect x="462.34" y="305.084" width="0.762301" height="589.15" transform="rotate(10.5696 462.34 305.084)" fill="black"/>
<rect x="440.93" y="301.089" width="0.762301" height="589.15" transform="rotate(10.5696 440.93 301.089)" fill="black"/>
<rect x="466.622" y="305.882" width="0.762301" height="589.15" transform="rotate(10.5696 466.622 305.882)" fill="black"/>
<rect x="470.905" y="306.681" width="0.762301" height="589.15" transform="rotate(10.5696 470.905 306.681)" fill="black"/>
<rect x="496.598" y="311.476" width="0.762301" height="589.15" transform="rotate(10.5696 496.598 311.476)" fill="black"/>
<rect x="475.187" y="307.481" width="0.762301" height="589.15" transform="rotate(10.5696 475.187 307.481)" fill="black"/>
<rect x="500.879" y="312.275" width="0.762301" height="589.15" transform="rotate(10.5696 500.879 312.275)" fill="black"/>
<rect x="479.469" y="308.278" width="0.762301" height="589.15" transform="rotate(10.5696 479.469 308.278)" fill="black"/>
<rect x="505.16" y="313.074" width="0.762301" height="589.15" transform="rotate(10.5696 505.16 313.074)" fill="black"/>
<rect x="483.75" y="309.078" width="0.762301" height="589.15" transform="rotate(10.5696 483.75 309.078)" fill="black"/>
<rect x="509.442" y="313.873" width="0.762301" height="589.15" transform="rotate(10.5696 509.442 313.873)" fill="black"/>
<rect x="488.032" y="309.878" width="0.762301" height="589.15" transform="rotate(10.5696 488.032 309.878)" fill="black"/>
<rect x="513.726" y="314.671" width="0.762301" height="589.15" transform="rotate(10.5696 513.726 314.671)" fill="black"/>
<rect x="492.316" y="310.676" width="0.762301" height="589.15" transform="rotate(10.5696 492.316 310.676)" fill="black"/>
<rect x="518.008" y="315.471" width="0.762301" height="589.15" transform="rotate(10.5696 518.008 315.471)" fill="black"/>
<rect x="522.289" y="316.27" width="0.762301" height="589.15" transform="rotate(10.5696 522.289 316.27)" fill="black"/>
<rect x="547.981" y="321.064" width="0.762301" height="589.15" transform="rotate(10.5696 547.981 321.064)" fill="black"/>
<rect x="526.571" y="317.068" width="0.762301" height="589.15" transform="rotate(10.5696 526.571 317.068)" fill="black"/>
<rect x="552.265" y="321.862" width="0.762301" height="589.15" transform="rotate(10.5696 552.265 321.862)" fill="black"/>
<rect x="530.855" y="317.868" width="0.762301" height="589.15" transform="rotate(10.5696 530.855 317.868)" fill="black"/>
<rect x="556.547" y="322.662" width="0.762301" height="589.15" transform="rotate(10.5696 556.547 322.662)" fill="black"/>
<rect x="535.136" y="318.667" width="0.762301" height="589.15" transform="rotate(10.5696 535.136 318.667)" fill="black"/>
<rect x="560.828" y="323.461" width="0.762301" height="589.15" transform="rotate(10.5696 560.828 323.461)" fill="black"/>
<rect x="539.418" y="319.466" width="0.762301" height="589.15" transform="rotate(10.5696 539.418 319.466)" fill="black"/>
<rect x="565.11" y="324.26" width="0.762301" height="589.15" transform="rotate(10.5696 565.11 324.26)" fill="black"/>
<rect x="543.699" y="320.266" width="0.762301" height="589.15" transform="rotate(10.5696 543.699 320.266)" fill="black"/>
<rect x="569.394" y="325.059" width="0.762301" height="589.15" transform="rotate(10.5696 569.394 325.059)" fill="black"/>
<rect x="573.675" y="325.857" width="0.762301" height="589.15" transform="rotate(10.5696 573.675 325.857)" fill="black"/>
<rect x="599.367" y="330.652" width="0.762301" height="589.15" transform="rotate(10.5696 599.367 330.652)" fill="black"/>
<rect x="577.957" y="326.657" width="0.762301" height="589.15" transform="rotate(10.5696 577.957 326.657)" fill="black"/>
<rect x="603.649" y="331.452" width="0.762301" height="589.15" transform="rotate(10.5696 603.649 331.452)" fill="black"/>
<rect x="582.239" y="327.456" width="0.762301" height="589.15" transform="rotate(10.5696 582.239 327.456)" fill="black"/>
<rect x="607.931" y="332.25" width="0.762301" height="589.15" transform="rotate(10.5696 607.931 332.25)" fill="black"/>
<rect x="586.52" y="328.255" width="0.762301" height="589.15" transform="rotate(10.5696 586.52 328.255)" fill="black"/>
<rect x="612.214" y="333.048" width="0.762301" height="589.15" transform="rotate(10.5696 612.214 333.048)" fill="black"/>
<rect x="590.804" y="329.054" width="0.762301" height="589.15" transform="rotate(10.5696 590.804 329.054)" fill="black"/>
<rect x="616.496" y="333.848" width="0.762301" height="589.15" transform="rotate(10.5696 616.496 333.848)" fill="black"/>
<rect x="595.086" y="329.854" width="0.762301" height="589.15" transform="rotate(10.5696 595.086 329.854)" fill="black"/>
<rect x="620.778" y="334.646" width="0.762301" height="589.15" transform="rotate(10.5696 620.778 334.646)" fill="black"/>
<rect x="625.059" y="335.446" width="0.762301" height="589.15" transform="rotate(10.5696 625.059 335.446)" fill="black"/>
<rect x="650.753" y="340.24" width="0.762301" height="589.15" transform="rotate(10.5696 650.753 340.24)" fill="black"/>
<rect x="629.343" y="336.245" width="0.762301" height="589.15" transform="rotate(10.5696 629.343 336.245)" fill="black"/>
<rect x="655.035" y="341.04" width="0.762301" height="589.15" transform="rotate(10.5696 655.035 341.04)" fill="black"/>
<rect x="633.625" y="337.044" width="0.762301" height="589.15" transform="rotate(10.5696 633.625 337.044)" fill="black"/>
<rect x="659.317" y="341.838" width="0.762301" height="589.15" transform="rotate(10.5696 659.317 341.838)" fill="black"/>
<rect x="637.906" y="337.844" width="0.762301" height="589.15" transform="rotate(10.5696 637.906 337.844)" fill="black"/>
<rect x="663.598" y="342.637" width="0.762301" height="589.15" transform="rotate(10.5696 663.598 342.637)" fill="black"/>
<rect x="642.188" y="338.643" width="0.762301" height="589.15" transform="rotate(10.5696 642.188 338.643)" fill="black"/>
<rect x="667.88" y="343.437" width="0.762301" height="589.15" transform="rotate(10.5696 667.88 343.437)" fill="black"/>
<rect x="646.469" y="339.441" width="0.762301" height="589.15" transform="rotate(10.5696 646.469 339.441)" fill="black"/>
<rect x="672.164" y="344.235" width="0.762301" height="589.15" transform="rotate(10.5696 672.164 344.235)" fill="black"/>
<rect x="676.445" y="345.035" width="0.762301" height="589.15" transform="rotate(10.5696 676.445 345.035)" fill="black"/>
<rect x="702.137" y="349.829" width="0.762301" height="589.15" transform="rotate(10.5696 702.137 349.829)" fill="black"/>
<rect x="680.727" y="345.834" width="0.762301" height="589.15" transform="rotate(10.5696 680.727 345.834)" fill="black"/>
<rect x="706.419" y="350.628" width="0.762301" height="589.15" transform="rotate(10.5696 706.419 350.628)" fill="black"/>
<rect x="685.008" y="346.632" width="0.762301" height="589.15" transform="rotate(10.5696 685.008 346.632)" fill="black"/>
<rect x="710.703" y="351.427" width="0.762301" height="589.15" transform="rotate(10.5696 710.703 351.427)" fill="black"/>
<rect x="689.292" y="347.432" width="0.762301" height="589.15" transform="rotate(10.5696 689.292 347.432)" fill="black"/>
<rect x="714.984" y="352.226" width="0.762301" height="589.15" transform="rotate(10.5696 714.984 352.226)" fill="black"/>
<rect x="693.574" y="348.23" width="0.762301" height="589.15" transform="rotate(10.5696 693.574 348.23)" fill="black"/>
<rect x="719.266" y="353.024" width="0.762301" height="589.15" transform="rotate(10.5696 719.266 353.024)" fill="black"/>
<rect x="697.856" y="349.03" width="0.762301" height="589.15" transform="rotate(10.5696 697.856 349.03)" fill="black"/>
<rect x="723.547" y="353.823" width="0.762301" height="589.15" transform="rotate(10.5696 723.547 353.823)" fill="black"/>
<rect x="727.831" y="354.623" width="0.762301" height="589.15" transform="rotate(10.5696 727.831 354.623)" fill="black"/>
<rect x="753.523" y="359.416" width="0.762301" height="589.15" transform="rotate(10.5696 753.523 359.416)" fill="black"/>
<rect x="732.113" y="355.422" width="0.762301" height="589.15" transform="rotate(10.5696 732.113 355.422)" fill="black"/>
<rect x="757.805" y="360.215" width="0.762301" height="589.15" transform="rotate(10.5696 757.805 360.215)" fill="black"/>
<rect x="736.394" y="356.221" width="0.762301" height="589.15" transform="rotate(10.5696 736.394 356.221)" fill="black"/>
<rect x="762.086" y="361.016" width="0.762301" height="589.15" transform="rotate(10.5696 762.086 361.016)" fill="black"/>
<rect x="740.676" y="357.021" width="0.762301" height="589.15" transform="rotate(10.5696 740.676 357.021)" fill="black"/>
<rect x="766.368" y="361.813" width="0.762301" height="589.15" transform="rotate(10.5696 766.368 361.813)" fill="black"/>
<rect x="744.958" y="357.819" width="0.762301" height="589.15" transform="rotate(10.5696 744.958 357.819)" fill="black"/>
<rect x="770.652" y="362.612" width="0.762301" height="589.15" transform="rotate(10.5696 770.652 362.612)" fill="black"/>
<rect x="749.242" y="358.618" width="0.762301" height="589.15" transform="rotate(10.5696 749.242 358.618)" fill="black"/>
<rect x="774.934" y="363.413" width="0.762301" height="589.15" transform="rotate(10.5696 774.934 363.413)" fill="black"/>
<rect x="779.215" y="364.211" width="0.762301" height="589.15" transform="rotate(10.5696 779.215 364.211)" fill="black"/>
<rect x="804.907" y="369.005" width="0.762301" height="589.15" transform="rotate(10.5696 804.907 369.005)" fill="black"/>
<rect x="783.497" y="365.01" width="0.762301" height="589.15" transform="rotate(10.5696 783.497 365.01)" fill="black"/>
<rect x="809.191" y="369.805" width="0.762301" height="589.15" transform="rotate(10.5696 809.191 369.805)" fill="black"/>
<rect x="787.781" y="365.81" width="0.762301" height="589.15" transform="rotate(10.5696 787.781 365.81)" fill="black"/>
<rect x="813.473" y="370.603" width="0.762301" height="589.15" transform="rotate(10.5696 813.473 370.603)" fill="black"/>
<rect x="792.062" y="366.607" width="0.762301" height="589.15" transform="rotate(10.5696 792.062 366.607)" fill="black"/>
<rect x="817.754" y="371.402" width="0.762301" height="589.15" transform="rotate(10.5696 817.754 371.402)" fill="black"/>
<rect x="796.344" y="367.407" width="0.762301" height="589.15" transform="rotate(10.5696 796.344 367.407)" fill="black"/>
<rect x="822.036" y="372.201" width="0.762301" height="589.15" transform="rotate(10.5696 822.036 372.201)" fill="black"/>
<rect x="800.625" y="368.207" width="0.762301" height="589.15" transform="rotate(10.5696 800.625 368.207)" fill="black"/>
<rect x="826.317" y="373" width="0.762301" height="589.15" transform="rotate(10.5696 826.317 373)" fill="black"/>
<rect x="830.045" y="373.695" width="0.762301" height="589.15" transform="rotate(10.5696 830.045 373.695)" fill="black"/>
<rect x="855.737" y="378.489" width="0.762301" height="589.15" transform="rotate(10.5696 855.737 378.489)" fill="black"/>
<rect x="834.326" y="374.495" width="0.762301" height="589.15" transform="rotate(10.5696 834.326 374.495)" fill="black"/>
<rect x="860.02" y="379.289" width="0.762301" height="589.15" transform="rotate(10.5696 860.02 379.289)" fill="black"/>
<rect x="838.608" y="375.293" width="0.762301" height="589.15" transform="rotate(10.5696 838.608 375.293)" fill="black"/>
<rect x="864.302" y="380.088" width="0.762301" height="589.15" transform="rotate(10.5696 864.302 380.088)" fill="black"/>
<rect x="842.892" y="376.092" width="0.762301" height="589.15" transform="rotate(10.5696 842.892 376.092)" fill="black"/>
<rect x="868.584" y="380.888" width="0.762301" height="589.15" transform="rotate(10.5696 868.584 380.888)" fill="black"/>
<rect x="847.173" y="376.892" width="0.762301" height="589.15" transform="rotate(10.5696 847.173 376.892)" fill="black"/>
<rect x="872.865" y="381.686" width="0.762301" height="589.15" transform="rotate(10.5696 872.865 381.686)" fill="black"/>
<rect x="851.455" y="377.69" width="0.762301" height="589.15" transform="rotate(10.5696 851.455 377.69)" fill="black"/>
<rect x="877.147" y="382.484" width="0.762301" height="589.15" transform="rotate(10.5696 877.147 382.484)" fill="black"/>
<rect x="881.431" y="383.284" width="0.762301" height="589.15" transform="rotate(10.5696 881.431 383.284)" fill="black"/>
<rect x="907.123" y="388.078" width="0.762301" height="589.15" transform="rotate(10.5696 907.123 388.078)" fill="black"/>
<rect x="885.712" y="384.082" width="0.762301" height="589.15" transform="rotate(10.5696 885.712 384.082)" fill="black"/>
<rect x="889.994" y="384.882" width="0.762301" height="589.15" transform="rotate(10.5696 889.994 384.882)" fill="black"/>
<rect x="894.276" y="385.682" width="0.762301" height="589.15" transform="rotate(10.5696 894.276 385.682)" fill="black"/>
<rect x="898.557" y="386.479" width="0.762301" height="589.15" transform="rotate(10.5696 898.557 386.479)" fill="black"/>
<rect x="902.841" y="387.279" width="0.762301" height="589.15" transform="rotate(10.5696 902.841 387.279)" fill="black"/>
<rect x="527.6" y="-282" width="0.762301" height="589.15" transform="rotate(10.5696 527.6 -282)" fill="black"/>
<rect x="553.292" y="-277.205" width="0.762301" height="589.15" transform="rotate(10.5696 553.292 -277.205)" fill="black"/>
<rect x="531.882" y="-281.2" width="0.762301" height="589.15" transform="rotate(10.5696 531.882 -281.2)" fill="black"/>
<rect x="557.574" y="-276.405" width="0.762301" height="589.15" transform="rotate(10.5696 557.574 -276.405)" fill="black"/>
<rect x="536.163" y="-280.4" width="0.762301" height="589.15" transform="rotate(10.5696 536.163 -280.4)" fill="black"/>
<rect x="561.858" y="-275.606" width="0.762301" height="589.15" transform="rotate(10.5696 561.858 -275.606)" fill="black"/>
<rect x="540.447" y="-279.602" width="0.762301" height="589.15" transform="rotate(10.5696 540.447 -279.602)" fill="black"/>
<rect x="566.139" y="-274.808" width="0.762301" height="589.15" transform="rotate(10.5696 566.139 -274.808)" fill="black"/>
<rect x="544.729" y="-278.803" width="0.762301" height="589.15" transform="rotate(10.5696 544.729 -278.803)" fill="black"/>
<rect x="570.421" y="-274.008" width="0.762301" height="589.15" transform="rotate(10.5696 570.421 -274.008)" fill="black"/>
<rect x="549.01" y="-278.003" width="0.762301" height="589.15" transform="rotate(10.5696 549.01 -278.003)" fill="black"/>
<rect x="574.703" y="-273.21" width="0.762301" height="589.15" transform="rotate(10.5696 574.703 -273.21)" fill="black"/>
<rect x="578.986" y="-272.411" width="0.762301" height="589.15" transform="rotate(10.5696 578.986 -272.411)" fill="black"/>
<rect x="604.678" y="-267.616" width="0.762301" height="589.15" transform="rotate(10.5696 604.678 -267.616)" fill="black"/>
<rect x="583.268" y="-271.61" width="0.762301" height="589.15" transform="rotate(10.5696 583.268 -271.61)" fill="black"/>
<rect x="608.96" y="-266.816" width="0.762301" height="589.15" transform="rotate(10.5696 608.96 -266.816)" fill="black"/>
<rect x="587.55" y="-270.813" width="0.762301" height="589.15" transform="rotate(10.5696 587.55 -270.813)" fill="black"/>
<rect x="613.241" y="-266.018" width="0.762301" height="589.15" transform="rotate(10.5696 613.241 -266.018)" fill="black"/>
<rect x="591.831" y="-270.014" width="0.762301" height="589.15" transform="rotate(10.5696 591.831 -270.014)" fill="black"/>
<rect x="617.523" y="-265.219" width="0.762301" height="589.15" transform="rotate(10.5696 617.523 -265.219)" fill="black"/>
<rect x="596.113" y="-269.214" width="0.762301" height="589.15" transform="rotate(10.5696 596.113 -269.214)" fill="black"/>
<rect x="621.807" y="-264.421" width="0.762301" height="589.15" transform="rotate(10.5696 621.807 -264.421)" fill="black"/>
<rect x="600.397" y="-268.416" width="0.762301" height="589.15" transform="rotate(10.5696 600.397 -268.416)" fill="black"/>
<rect x="626.089" y="-263.621" width="0.762301" height="589.15" transform="rotate(10.5696 626.089 -263.621)" fill="black"/>
<rect x="630.37" y="-262.822" width="0.762301" height="589.15" transform="rotate(10.5696 630.37 -262.822)" fill="black"/>
<rect x="656.062" y="-258.027" width="0.762301" height="589.15" transform="rotate(10.5696 656.062 -258.027)" fill="black"/>
<rect x="634.652" y="-262.023" width="0.762301" height="589.15" transform="rotate(10.5696 634.652 -262.023)" fill="black"/>
<rect x="660.346" y="-257.229" width="0.762301" height="589.15" transform="rotate(10.5696 660.346 -257.229)" fill="black"/>
<rect x="638.936" y="-261.224" width="0.762301" height="589.15" transform="rotate(10.5696 638.936 -261.224)" fill="black"/>
<rect x="664.628" y="-256.43" width="0.762301" height="589.15" transform="rotate(10.5696 664.628 -256.43)" fill="black"/>
<rect x="643.217" y="-260.425" width="0.762301" height="589.15" transform="rotate(10.5696 643.217 -260.425)" fill="black"/>
<rect x="668.909" y="-255.631" width="0.762301" height="589.15" transform="rotate(10.5696 668.909 -255.631)" fill="black"/>
<rect x="647.499" y="-259.626" width="0.762301" height="589.15" transform="rotate(10.5696 647.499 -259.626)" fill="black"/>
<rect x="673.191" y="-254.832" width="0.762301" height="589.15" transform="rotate(10.5696 673.191 -254.832)" fill="black"/>
<rect x="651.781" y="-258.826" width="0.762301" height="589.15" transform="rotate(10.5696 651.781 -258.826)" fill="black"/>
<rect x="677.474" y="-254.033" width="0.762301" height="589.15" transform="rotate(10.5696 677.474 -254.033)" fill="black"/>
<rect x="681.756" y="-253.234" width="0.762301" height="589.15" transform="rotate(10.5696 681.756 -253.234)" fill="black"/>
<rect x="707.448" y="-248.439" width="0.762301" height="589.15" transform="rotate(10.5696 707.448 -248.439)" fill="black"/>
<rect x="686.038" y="-252.435" width="0.762301" height="589.15" transform="rotate(10.5696 686.038 -252.435)" fill="black"/>
<rect x="711.73" y="-247.64" width="0.762301" height="589.15" transform="rotate(10.5696 711.73 -247.64)" fill="black"/>
<rect x="690.32" y="-251.636" width="0.762301" height="589.15" transform="rotate(10.5696 690.32 -251.636)" fill="black"/>
<rect x="716.011" y="-246.842" width="0.762301" height="589.15" transform="rotate(10.5696 716.011 -246.842)" fill="black"/>
<rect x="694.601" y="-250.837" width="0.762301" height="589.15" transform="rotate(10.5696 694.601 -250.837)" fill="black"/>
<rect x="720.295" y="-246.044" width="0.762301" height="589.15" transform="rotate(10.5696 720.295 -246.044)" fill="black"/>
<rect x="698.885" y="-250.038" width="0.762301" height="589.15" transform="rotate(10.5696 698.885 -250.038)" fill="black"/>
<rect x="724.577" y="-245.244" width="0.762301" height="589.15" transform="rotate(10.5696 724.577 -245.244)" fill="black"/>
<rect x="703.167" y="-249.238" width="0.762301" height="589.15" transform="rotate(10.5696 703.167 -249.238)" fill="black"/>
<rect x="728.859" y="-244.445" width="0.762301" height="589.15" transform="rotate(10.5696 728.859 -244.445)" fill="black"/>
<rect x="733.14" y="-243.646" width="0.762301" height="589.15" transform="rotate(10.5696 733.14 -243.646)" fill="black"/>
<rect x="758.834" y="-238.852" width="0.762301" height="589.15" transform="rotate(10.5696 758.834 -238.852)" fill="black"/>
<rect x="737.424" y="-242.847" width="0.762301" height="589.15" transform="rotate(10.5696 737.424 -242.847)" fill="black"/>
<rect x="763.116" y="-238.052" width="0.762301" height="589.15" transform="rotate(10.5696 763.116 -238.052)" fill="black"/>
<rect x="741.705" y="-242.048" width="0.762301" height="589.15" transform="rotate(10.5696 741.705 -242.048)" fill="black"/>
<rect x="767.397" y="-237.254" width="0.762301" height="589.15" transform="rotate(10.5696 767.397 -237.254)" fill="black"/>
<rect x="745.987" y="-241.248" width="0.762301" height="589.15" transform="rotate(10.5696 745.987 -241.248)" fill="black"/>
<rect x="771.679" y="-236.455" width="0.762301" height="589.15" transform="rotate(10.5696 771.679 -236.455)" fill="black"/>
<rect x="750.269" y="-240.449" width="0.762301" height="589.15" transform="rotate(10.5696 750.269 -240.449)" fill="black"/>
<rect x="775.961" y="-235.655" width="0.762301" height="589.15" transform="rotate(10.5696 775.961 -235.655)" fill="black"/>
<rect x="754.55" y="-239.65" width="0.762301" height="589.15" transform="rotate(10.5696 754.55 -239.65)" fill="black"/>
<rect x="780.245" y="-234.856" width="0.762301" height="589.15" transform="rotate(10.5696 780.245 -234.856)" fill="black"/>
<rect x="784.526" y="-234.057" width="0.762301" height="589.15" transform="rotate(10.5696 784.526 -234.057)" fill="black"/>
<rect x="810.218" y="-229.263" width="0.762301" height="589.15" transform="rotate(10.5696 810.218 -229.263)" fill="black"/>
<rect x="788.808" y="-233.258" width="0.762301" height="589.15" transform="rotate(10.5696 788.808 -233.258)" fill="black"/>
<rect x="814.5" y="-228.464" width="0.762301" height="589.15" transform="rotate(10.5696 814.5 -228.464)" fill="black"/>
<rect x="793.089" y="-232.46" width="0.762301" height="589.15" transform="rotate(10.5696 793.089 -232.46)" fill="black"/>
<rect x="818.783" y="-227.665" width="0.762301" height="589.15" transform="rotate(10.5696 818.783 -227.665)" fill="black"/>
<rect x="797.373" y="-231.66" width="0.762301" height="589.15" transform="rotate(10.5696 797.373 -231.66)" fill="black"/>
<rect x="823.065" y="-226.866" width="0.762301" height="589.15" transform="rotate(10.5696 823.065 -226.866)" fill="black"/>
<rect x="801.655" y="-230.861" width="0.762301" height="589.15" transform="rotate(10.5696 801.655 -230.861)" fill="black"/>
<rect x="827.347" y="-226.067" width="0.762301" height="589.15" transform="rotate(10.5696 827.347 -226.067)" fill="black"/>
<rect x="805.937" y="-230.062" width="0.762301" height="589.15" transform="rotate(10.5696 805.937 -230.062)" fill="black"/>
<rect x="831.628" y="-225.269" width="0.762301" height="589.15" transform="rotate(10.5696 831.628 -225.269)" fill="black"/>
<rect x="835.912" y="-224.469" width="0.762301" height="589.15" transform="rotate(10.5696 835.912 -224.469)" fill="black"/>
<rect x="861.604" y="-219.676" width="0.762301" height="589.15" transform="rotate(10.5696 861.604 -219.676)" fill="black"/>
<rect x="840.194" y="-223.67" width="0.762301" height="589.15" transform="rotate(10.5696 840.194 -223.67)" fill="black"/>
<rect x="865.886" y="-218.877" width="0.762301" height="589.15" transform="rotate(10.5696 865.886 -218.877)" fill="black"/>
<rect x="844.475" y="-222.871" width="0.762301" height="589.15" transform="rotate(10.5696 844.475 -222.871)" fill="black"/>
<rect x="870.167" y="-218.076" width="0.762301" height="589.15" transform="rotate(10.5696 870.167 -218.076)" fill="black"/>
<rect x="848.757" y="-222.071" width="0.762301" height="589.15" transform="rotate(10.5696 848.757 -222.071)" fill="black"/>
<rect x="874.449" y="-217.278" width="0.762301" height="589.15" transform="rotate(10.5696 874.449 -217.278)" fill="black"/>
<rect x="853.039" y="-221.272" width="0.762301" height="589.15" transform="rotate(10.5696 853.039 -221.272)" fill="black"/>
<rect x="878.733" y="-216.479" width="0.762301" height="589.15" transform="rotate(10.5696 878.733 -216.479)" fill="black"/>
<rect x="857.323" y="-220.474" width="0.762301" height="589.15" transform="rotate(10.5696 857.323 -220.474)" fill="black"/>
<rect x="883.015" y="-215.679" width="0.762301" height="589.15" transform="rotate(10.5696 883.015 -215.679)" fill="black"/>
<rect x="887.296" y="-214.881" width="0.762301" height="589.15" transform="rotate(10.5696 887.296 -214.881)" fill="black"/>
<rect x="891.578" y="-214.082" width="0.762301" height="589.15" transform="rotate(10.5696 891.578 -214.082)" fill="black"/>
<rect x="895.861" y="-213.282" width="0.762301" height="589.15" transform="rotate(10.5696 895.861 -213.282)" fill="black"/>
<rect x="900.143" y="-212.484" width="0.762301" height="589.15" transform="rotate(10.5696 900.143 -212.484)" fill="black"/>
<rect x="904.425" y="-211.685" width="0.762301" height="589.15" transform="rotate(10.5696 904.425 -211.685)" fill="black"/>
<rect x="1.53271" y="-380.866" width="0.762301" height="589.15" transform="rotate(10.5696 1.53271 -380.866)" fill="black"/>
<rect x="5.81445" y="-380.067" width="0.762301" height="589.15" transform="rotate(10.5696 5.81445 -380.067)" fill="black"/>
<rect x="10.0957" y="-379.269" width="0.762301" height="589.15" transform="rotate(10.5696 10.0957 -379.269)" fill="black"/>
<rect x="14.3799" y="-378.469" width="0.762301" height="589.15" transform="rotate(10.5696 14.3799 -378.469)" fill="black"/>
<rect x="40.0717" y="-373.676" width="0.762301" height="589.15" transform="rotate(10.5696 40.0717 -373.676)" fill="black"/>
<rect x="18.6614" y="-377.67" width="0.762301" height="589.15" transform="rotate(10.5696 18.6614 -377.67)" fill="black"/>
<rect x="44.3535" y="-372.877" width="0.762301" height="589.15" transform="rotate(10.5696 44.3535 -372.877)" fill="black"/>
<rect x="22.9429" y="-376.871" width="0.762301" height="589.15" transform="rotate(10.5696 22.9429 -376.871)" fill="black"/>
<rect x="48.6353" y="-372.076" width="0.762301" height="589.15" transform="rotate(10.5696 48.6353 -372.076)" fill="black"/>
<rect x="27.2246" y="-376.071" width="0.762301" height="589.15" transform="rotate(10.5696 27.2246 -376.071)" fill="black"/>
<rect x="52.9164" y="-371.278" width="0.762301" height="589.15" transform="rotate(10.5696 52.9164 -371.278)" fill="black"/>
<rect x="31.5062" y="-375.272" width="0.762301" height="589.15" transform="rotate(10.5696 31.5062 -375.272)" fill="black"/>
<rect x="57.2002" y="-370.479" width="0.762301" height="589.15" transform="rotate(10.5696 57.2002 -370.479)" fill="black"/>
<rect x="35.79" y="-374.474" width="0.762301" height="589.15" transform="rotate(10.5696 35.79 -374.474)" fill="black"/>
<rect x="61.4819" y="-369.679" width="0.762301" height="589.15" transform="rotate(10.5696 61.4819 -369.679)" fill="black"/>
<rect x="65.7637" y="-368.881" width="0.762301" height="589.15" transform="rotate(10.5696 65.7637 -368.881)" fill="black"/>
<rect x="91.4556" y="-364.087" width="0.762301" height="589.15" transform="rotate(10.5696 91.4556 -364.087)" fill="black"/>
<rect x="70.0449" y="-368.082" width="0.762301" height="589.15" transform="rotate(10.5696 70.0449 -368.082)" fill="black"/>
<rect x="95.7393" y="-363.287" width="0.762301" height="589.15" transform="rotate(10.5696 95.7393 -363.287)" fill="black"/>
<rect x="74.329" y="-367.282" width="0.762301" height="589.15" transform="rotate(10.5696 74.329 -367.282)" fill="black"/>
<rect x="100.021" y="-362.489" width="0.762301" height="589.15" transform="rotate(10.5696 100.021 -362.489)" fill="black"/>
<rect x="78.6108" y="-366.484" width="0.762301" height="589.15" transform="rotate(10.5696 78.6108 -366.484)" fill="black"/>
<rect x="104.303" y="-361.689" width="0.762301" height="589.15" transform="rotate(10.5696 104.303 -361.689)" fill="black"/>
<rect x="82.8921" y="-365.685" width="0.762301" height="589.15" transform="rotate(10.5696 82.8921 -365.685)" fill="black"/>
<rect x="108.584" y="-360.891" width="0.762301" height="589.15" transform="rotate(10.5696 108.584 -360.891)" fill="black"/>
<rect x="87.174" y="-364.885" width="0.762301" height="589.15" transform="rotate(10.5696 87.174 -364.885)" fill="black"/>
<rect x="112.866" y="-360.092" width="0.762301" height="589.15" transform="rotate(10.5696 112.866 -360.092)" fill="black"/>
<rect x="116.593" y="-359.396" width="0.762301" height="589.15" transform="rotate(10.5696 116.593 -359.396)" fill="black"/>
<rect x="142.285" y="-354.603" width="0.762301" height="589.15" transform="rotate(10.5696 142.285 -354.603)" fill="black"/>
<rect x="120.875" y="-358.597" width="0.762301" height="589.15" transform="rotate(10.5696 120.875 -358.597)" fill="black"/>
<rect x="146.569" y="-353.803" width="0.762301" height="589.15" transform="rotate(10.5696 146.569 -353.803)" fill="black"/>
<rect x="125.157" y="-357.799" width="0.762301" height="589.15" transform="rotate(10.5696 125.157 -357.799)" fill="black"/>
<rect x="150.85" y="-353.004" width="0.762301" height="589.15" transform="rotate(10.5696 150.85 -353.004)" fill="black"/>
<rect x="129.44" y="-357" width="0.762301" height="589.15" transform="rotate(10.5696 129.44 -357)" fill="black"/>
<rect x="155.132" y="-352.204" width="0.762301" height="589.15" transform="rotate(10.5696 155.132 -352.204)" fill="black"/>
<rect x="133.722" y="-356.2" width="0.762301" height="589.15" transform="rotate(10.5696 133.722 -356.2)" fill="black"/>
<rect x="159.414" y="-351.406" width="0.762301" height="589.15" transform="rotate(10.5696 159.414 -351.406)" fill="black"/>
<rect x="138.003" y="-355.401" width="0.762301" height="589.15" transform="rotate(10.5696 138.003 -355.401)" fill="black"/>
<rect x="163.695" y="-350.607" width="0.762301" height="589.15" transform="rotate(10.5696 163.695 -350.607)" fill="black"/>
<rect x="167.979" y="-349.809" width="0.762301" height="589.15" transform="rotate(10.5696 167.979 -349.809)" fill="black"/>
<rect x="193.671" y="-345.014" width="0.762301" height="589.15" transform="rotate(10.5696 193.671 -345.014)" fill="black"/>
<rect x="172.261" y="-349.01" width="0.762301" height="589.15" transform="rotate(10.5696 172.261 -349.01)" fill="black"/>
<rect x="197.953" y="-344.215" width="0.762301" height="589.15" transform="rotate(10.5696 197.953 -344.215)" fill="black"/>
<rect x="176.542" y="-348.21" width="0.762301" height="589.15" transform="rotate(10.5696 176.542 -348.21)" fill="black"/>
<rect x="202.235" y="-343.415" width="0.762301" height="589.15" transform="rotate(10.5696 202.235 -343.415)" fill="black"/>
<rect x="180.824" y="-347.41" width="0.762301" height="589.15" transform="rotate(10.5696 180.824 -347.41)" fill="black"/>
<rect x="206.518" y="-342.617" width="0.762301" height="589.15" transform="rotate(10.5696 206.518 -342.617)" fill="black"/>
<rect x="185.105" y="-346.612" width="0.762301" height="589.15" transform="rotate(10.5696 185.105 -346.612)" fill="black"/>
<rect x="210.8" y="-341.818" width="0.762301" height="589.15" transform="rotate(10.5696 210.8 -341.818)" fill="black"/>
<rect x="189.39" y="-345.812" width="0.762301" height="589.15" transform="rotate(10.5696 189.39 -345.812)" fill="black"/>
<rect x="215.081" y="-341.019" width="0.762301" height="589.15" transform="rotate(10.5696 215.081 -341.019)" fill="black"/>
<rect x="219.363" y="-340.22" width="0.762301" height="589.15" transform="rotate(10.5696 219.363 -340.22)" fill="black"/>
<rect x="245.055" y="-335.425" width="0.762301" height="589.15" transform="rotate(10.5696 245.055 -335.425)" fill="black"/>
<rect x="223.645" y="-339.421" width="0.762301" height="589.15" transform="rotate(10.5696 223.645 -339.421)" fill="black"/>
<rect x="249.339" y="-334.626" width="0.762301" height="589.15" transform="rotate(10.5696 249.339 -334.626)" fill="black"/>
<rect x="227.928" y="-338.622" width="0.762301" height="589.15" transform="rotate(10.5696 227.928 -338.622)" fill="black"/>
<rect x="253.621" y="-333.827" width="0.762301" height="589.15" transform="rotate(10.5696 253.621 -333.827)" fill="black"/>
<rect x="232.21" y="-337.823" width="0.762301" height="589.15" transform="rotate(10.5696 232.21 -337.823)" fill="black"/>
<rect x="257.902" y="-333.028" width="0.762301" height="589.15" transform="rotate(10.5696 257.902 -333.028)" fill="black"/>
<rect x="236.492" y="-337.023" width="0.762301" height="589.15" transform="rotate(10.5696 236.492 -337.023)" fill="black"/>
<rect x="262.184" y="-332.229" width="0.762301" height="589.15" transform="rotate(10.5696 262.184 -332.229)" fill="black"/>
<rect x="240.773" y="-336.224" width="0.762301" height="589.15" transform="rotate(10.5696 240.773 -336.224)" fill="black"/>
<rect x="266.467" y="-331.432" width="0.762301" height="589.15" transform="rotate(10.5696 266.467 -331.432)" fill="black"/>
<rect x="270.749" y="-330.632" width="0.762301" height="589.15" transform="rotate(10.5696 270.749 -330.632)" fill="black"/>
<rect x="296.441" y="-325.837" width="0.762301" height="589.15" transform="rotate(10.5696 296.441 -325.837)" fill="black"/>
<rect x="275.031" y="-329.832" width="0.762301" height="589.15" transform="rotate(10.5696 275.031 -329.832)" fill="black"/>
<rect x="300.723" y="-325.038" width="0.762301" height="589.15" transform="rotate(10.5696 300.723 -325.038)" fill="black"/>
<rect x="279.312" y="-329.034" width="0.762301" height="589.15" transform="rotate(10.5696 279.312 -329.034)" fill="black"/>
<rect x="305.006" y="-324.239" width="0.762301" height="589.15" transform="rotate(10.5696 305.006 -324.239)" fill="black"/>
<rect x="283.594" y="-328.233" width="0.762301" height="589.15" transform="rotate(10.5696 283.594 -328.233)" fill="black"/>
<rect x="309.288" y="-323.44" width="0.762301" height="589.15" transform="rotate(10.5696 309.288 -323.44)" fill="black"/>
<rect x="287.878" y="-327.435" width="0.762301" height="589.15" transform="rotate(10.5696 287.878 -327.435)" fill="black"/>
<rect x="313.57" y="-322.642" width="0.762301" height="589.15" transform="rotate(10.5696 313.57 -322.642)" fill="black"/>
<rect x="292.16" y="-326.636" width="0.762301" height="589.15" transform="rotate(10.5696 292.16 -326.636)" fill="black"/>
<rect x="317.852" y="-321.842" width="0.762301" height="589.15" transform="rotate(10.5696 317.852 -321.842)" fill="black"/>
<rect x="322.133" y="-321.043" width="0.762301" height="589.15" transform="rotate(10.5696 322.133 -321.043)" fill="black"/>
<rect x="347.827" y="-316.249" width="0.762301" height="589.15" transform="rotate(10.5696 347.827 -316.249)" fill="black"/>
<rect x="326.417" y="-320.244" width="0.762301" height="589.15" transform="rotate(10.5696 326.417 -320.244)" fill="black"/>
<rect x="352.109" y="-315.449" width="0.762301" height="589.15" transform="rotate(10.5696 352.109 -315.449)" fill="black"/>
<rect x="330.699" y="-319.445" width="0.762301" height="589.15" transform="rotate(10.5696 330.699 -319.445)" fill="black"/>
<rect x="356.391" y="-314.651" width="0.762301" height="589.15" transform="rotate(10.5696 356.391 -314.651)" fill="black"/>
<rect x="334.98" y="-318.646" width="0.762301" height="589.15" transform="rotate(10.5696 334.98 -318.646)" fill="black"/>
<rect x="360.672" y="-313.852" width="0.762301" height="589.15" transform="rotate(10.5696 360.672 -313.852)" fill="black"/>
<rect x="339.262" y="-317.847" width="0.762301" height="589.15" transform="rotate(10.5696 339.262 -317.847)" fill="black"/>
<rect x="364.956" y="-313.054" width="0.762301" height="589.15" transform="rotate(10.5696 364.956 -313.054)" fill="black"/>
<rect x="343.543" y="-317.048" width="0.762301" height="589.15" transform="rotate(10.5696 343.543 -317.048)" fill="black"/>
<rect x="369.238" y="-312.254" width="0.762301" height="589.15" transform="rotate(10.5696 369.238 -312.254)" fill="black"/>
<rect x="373.519" y="-311.455" width="0.762301" height="589.15" transform="rotate(10.5696 373.519 -311.455)" fill="black"/>
<rect x="399.211" y="-306.66" width="0.762301" height="589.15" transform="rotate(10.5696 399.211 -306.66)" fill="black"/>
<rect x="377.801" y="-310.656" width="0.762301" height="589.15" transform="rotate(10.5696 377.801 -310.656)" fill="black"/>
<rect x="403.493" y="-305.861" width="0.762301" height="589.15" transform="rotate(10.5696 403.493 -305.861)" fill="black"/>
<rect x="382.083" y="-309.856" width="0.762301" height="589.15" transform="rotate(10.5696 382.083 -309.856)" fill="black"/>
<rect x="407.776" y="-305.062" width="0.762301" height="589.15" transform="rotate(10.5696 407.776 -305.062)" fill="black"/>
<rect x="386.366" y="-309.058" width="0.762301" height="589.15" transform="rotate(10.5696 386.366 -309.058)" fill="black"/>
<rect x="412.058" y="-304.264" width="0.762301" height="589.15" transform="rotate(10.5696 412.058 -304.264)" fill="black"/>
<rect x="390.647" y="-308.258" width="0.762301" height="589.15" transform="rotate(10.5696 390.647 -308.258)" fill="black"/>
<rect x="416.34" y="-303.465" width="0.762301" height="589.15" transform="rotate(10.5696 416.34 -303.465)" fill="black"/>
<rect x="394.93" y="-307.46" width="0.762301" height="589.15" transform="rotate(10.5696 394.93 -307.46)" fill="black"/>
<rect x="420.622" y="-302.665" width="0.762301" height="589.15" transform="rotate(10.5696 420.622 -302.665)" fill="black"/>
<rect x="424.905" y="-301.866" width="0.762301" height="589.15" transform="rotate(10.5696 424.905 -301.866)" fill="black"/>
<rect x="450.597" y="-297.072" width="0.762301" height="589.15" transform="rotate(10.5696 450.597 -297.072)" fill="black"/>
<rect x="429.187" y="-301.067" width="0.762301" height="589.15" transform="rotate(10.5696 429.187 -301.067)" fill="black"/>
<rect x="454.879" y="-296.273" width="0.762301" height="589.15" transform="rotate(10.5696 454.879 -296.273)" fill="black"/>
<rect x="433.468" y="-300.269" width="0.762301" height="589.15" transform="rotate(10.5696 433.468 -300.269)" fill="black"/>
<rect x="459.16" y="-295.475" width="0.762301" height="589.15" transform="rotate(10.5696 459.16 -295.475)" fill="black"/>
<rect x="437.75" y="-299.47" width="0.762301" height="589.15" transform="rotate(10.5696 437.75 -299.47)" fill="black"/>
<rect x="463.444" y="-294.676" width="0.762301" height="589.15" transform="rotate(10.5696 463.444 -294.676)" fill="black"/>
<rect x="442.032" y="-298.671" width="0.762301" height="589.15" transform="rotate(10.5696 442.032 -298.671)" fill="black"/>
<rect x="467.726" y="-293.876" width="0.762301" height="589.15" transform="rotate(10.5696 467.726 -293.876)" fill="black"/>
<rect x="446.315" y="-297.871" width="0.762301" height="589.15" transform="rotate(10.5696 446.315 -297.871)" fill="black"/>
<rect x="472.007" y="-293.078" width="0.762301" height="589.15" transform="rotate(10.5696 472.007 -293.078)" fill="black"/>
<rect x="476.289" y="-292.278" width="0.762301" height="589.15" transform="rotate(10.5696 476.289 -292.278)" fill="black"/>
<rect x="501.981" y="-287.484" width="0.762301" height="589.15" transform="rotate(10.5696 501.981 -287.484)" fill="black"/>
<rect x="480.57" y="-291.479" width="0.762301" height="589.15" transform="rotate(10.5696 480.57 -291.479)" fill="black"/>
<rect x="506.265" y="-286.687" width="0.762301" height="589.15" transform="rotate(10.5696 506.265 -286.687)" fill="black"/>
<rect x="484.854" y="-290.681" width="0.762301" height="589.15" transform="rotate(10.5696 484.854 -290.681)" fill="black"/>
<rect x="510.546" y="-285.887" width="0.762301" height="589.15" transform="rotate(10.5696 510.546 -285.887)" fill="black"/>
<rect x="489.136" y="-289.881" width="0.762301" height="589.15" transform="rotate(10.5696 489.136 -289.881)" fill="black"/>
<rect x="514.828" y="-285.087" width="0.762301" height="589.15" transform="rotate(10.5696 514.828 -285.087)" fill="black"/>
<rect x="493.417" y="-289.082" width="0.762301" height="589.15" transform="rotate(10.5696 493.417 -289.082)" fill="black"/>
<rect x="519.11" y="-284.288" width="0.762301" height="589.15" transform="rotate(10.5696 519.11 -284.288)" fill="black"/>
<rect x="497.699" y="-288.283" width="0.762301" height="589.15" transform="rotate(10.5696 497.699 -288.283)" fill="black"/>
<rect x="523.393" y="-283.489" width="0.762301" height="589.15" transform="rotate(10.5696 523.393 -283.489)" fill="black"/>
</g>
</svg>
