<svg width="239" height="1124" viewBox="0 0 239 1124" fill="none" xmlns="http://www.w3.org/2000/svg">
<path d="M188.955 1123.97V634.152M188.955 634.152H179.375V602.074H350.546V634.152H338.411M188.955 634.152H338.411M338.411 634.152V1118.88" stroke="white" stroke-opacity="0.08"/>
<path d="M233.66 633.916V1122.95" stroke="white" stroke-opacity="0.08"/>
<path d="M189.157 689.64H73.7383V1123.97" stroke="white" stroke-opacity="0.08"/>
<path d="M189.156 668.743H62V689.639H80.5629" stroke="white" stroke-opacity="0.08"/>
<path d="M110 1122.95L110 688.547" stroke="white" stroke-opacity="0.08"/>
<path d="M153 1122.95L153 688.547" stroke="white" stroke-opacity="0.08"/>
<path d="M32.4894 16.9967H0.766769C1.15176 8.40549 8.11719 1.58044 16.6281 1.58044C25.1389 1.58044 32.1044 8.40549 32.4894 16.9967Z" stroke="white" stroke-opacity="0.08" stroke-width="1.5"/>
<path d="M162.646 383.704C165.391 384.635 171.017 387.893 171.566 393.477C172.115 389.009 177.284 385.1 179.8 383.704" stroke="white" stroke-opacity="0.08" stroke-width="1.5"/>
<path d="M162.646 383.704C165.391 384.635 171.017 387.893 171.566 393.477C172.115 389.009 177.284 385.1 179.8 383.704" stroke="white" stroke-opacity="0.08" stroke-width="1.5"/>
<path d="M133.828 371.139C136.573 372.07 142.199 375.328 142.748 380.912C143.297 376.444 148.466 372.535 150.982 371.139" stroke="white" stroke-opacity="0.08" stroke-width="1.5"/>
</svg>
