<svg width="307" height="262" viewBox="0 0 307 262" fill="none" xmlns="http://www.w3.org/2000/svg">
<mask id="mask0_193_19795" style="mask-type:alpha" maskUnits="userSpaceOnUse" x="0" y="0" width="307" height="262">
<rect y="0.271484" width="307" height="261" fill="#C4C4C4"/>
</mask>
<g mask="url(#mask0_193_19795)">
<rect x="0.427002" y="-134.927" width="0.7" height="541" transform="rotate(10.5696 0.427002 -134.927)" fill="black" fill-opacity="0.3"/>
<rect x="4.35889" y="-134.193" width="0.7" height="541" transform="rotate(10.5696 4.35889 -134.193)" fill="black" fill-opacity="0.3"/>
<rect x="8.29272" y="-133.46" width="0.7" height="541" transform="rotate(10.5696 8.29272 -133.46)" fill="black" fill-opacity="0.3"/>
<rect x="31.885" y="-129.057" width="0.7" height="541" transform="rotate(10.5696 31.885 -129.057)" fill="black" fill-opacity="0.3"/>
<rect x="12.2244" y="-132.726" width="0.7" height="541" transform="rotate(10.5696 12.2244 -132.726)" fill="black" fill-opacity="0.3"/>
<rect x="35.8164" y="-128.324" width="0.7" height="541" transform="rotate(10.5696 35.8164 -128.324)" fill="black" fill-opacity="0.3"/>
<rect x="16.156" y="-131.992" width="0.7" height="541" transform="rotate(10.5696 16.156 -131.992)" fill="black" fill-opacity="0.3"/>
<rect x="39.7483" y="-127.59" width="0.7" height="541" transform="rotate(10.5696 39.7483 -127.59)" fill="black" fill-opacity="0.3"/>
<rect x="20.0876" y="-131.258" width="0.7" height="541" transform="rotate(10.5696 20.0876 -131.258)" fill="black" fill-opacity="0.3"/>
<rect x="43.6799" y="-126.856" width="0.7" height="541" transform="rotate(10.5696 43.6799 -126.856)" fill="black" fill-opacity="0.3"/>
<rect x="24.0195" y="-130.525" width="0.7" height="541" transform="rotate(10.5696 24.0195 -130.525)" fill="black" fill-opacity="0.3"/>
<rect x="47.6135" y="-126.123" width="0.7" height="541" transform="rotate(10.5696 47.6135 -126.123)" fill="black" fill-opacity="0.3"/>
<rect x="27.9531" y="-129.791" width="0.7" height="541" transform="rotate(10.5696 27.9531 -129.791)" fill="black" fill-opacity="0.3"/>
<rect x="51.5454" y="-125.389" width="0.7" height="541" transform="rotate(10.5696 51.5454 -125.389)" fill="black" fill-opacity="0.3"/>
<rect x="55.4768" y="-124.655" width="0.7" height="541" transform="rotate(10.5696 55.4768 -124.655)" fill="black" fill-opacity="0.3"/>
<rect x="79.0691" y="-120.252" width="0.7" height="541" transform="rotate(10.5696 79.0691 -120.252)" fill="black" fill-opacity="0.3"/>
<rect x="59.4087" y="-123.921" width="0.7" height="541" transform="rotate(10.5696 59.4087 -123.921)" fill="black" fill-opacity="0.3"/>
<rect x="83.0029" y="-119.519" width="0.7" height="541" transform="rotate(10.5696 83.0029 -119.519)" fill="black" fill-opacity="0.3"/>
<rect x="63.3423" y="-123.188" width="0.7" height="541" transform="rotate(10.5696 63.3423 -123.188)" fill="black" fill-opacity="0.3"/>
<rect x="86.9348" y="-118.785" width="0.7" height="541" transform="rotate(10.5696 86.9348 -118.785)" fill="black" fill-opacity="0.3"/>
<rect x="67.2742" y="-122.454" width="0.7" height="541" transform="rotate(10.5696 67.2742 -122.454)" fill="black" fill-opacity="0.3"/>
<rect x="90.8662" y="-118.051" width="0.7" height="541" transform="rotate(10.5696 90.8662 -118.051)" fill="black" fill-opacity="0.3"/>
<rect x="71.2058" y="-121.72" width="0.7" height="541" transform="rotate(10.5696 71.2058 -121.72)" fill="black" fill-opacity="0.3"/>
<rect x="94.7981" y="-117.318" width="0.7" height="541" transform="rotate(10.5696 94.7981 -117.318)" fill="black" fill-opacity="0.3"/>
<rect x="75.1375" y="-120.986" width="0.7" height="541" transform="rotate(10.5696 75.1375 -120.986)" fill="black" fill-opacity="0.3"/>
<rect x="98.7317" y="-116.584" width="0.7" height="541" transform="rotate(10.5696 98.7317 -116.584)" fill="black" fill-opacity="0.3"/>
<rect x="102.663" y="-115.851" width="0.7" height="541" transform="rotate(10.5696 102.663 -115.851)" fill="black" fill-opacity="0.3"/>
<rect x="126.256" y="-111.448" width="0.7" height="541" transform="rotate(10.5696 126.256 -111.448)" fill="black" fill-opacity="0.3"/>
<rect x="106.595" y="-115.117" width="0.7" height="541" transform="rotate(10.5696 106.595 -115.117)" fill="black" fill-opacity="0.3"/>
<rect x="130.187" y="-110.714" width="0.7" height="541" transform="rotate(10.5696 130.187 -110.714)" fill="black" fill-opacity="0.3"/>
<rect x="110.527" y="-114.383" width="0.7" height="541" transform="rotate(10.5696 110.527 -114.383)" fill="black" fill-opacity="0.3"/>
<rect x="134.119" y="-109.98" width="0.7" height="541" transform="rotate(10.5696 134.119 -109.98)" fill="black" fill-opacity="0.3"/>
<rect x="114.459" y="-113.649" width="0.7" height="541" transform="rotate(10.5696 114.459 -113.649)" fill="black" fill-opacity="0.3"/>
<rect x="138.053" y="-109.247" width="0.7" height="541" transform="rotate(10.5696 138.053 -109.247)" fill="black" fill-opacity="0.3"/>
<rect x="118.392" y="-112.916" width="0.7" height="541" transform="rotate(10.5696 118.392 -112.916)" fill="black" fill-opacity="0.3"/>
<rect x="141.984" y="-108.513" width="0.7" height="541" transform="rotate(10.5696 141.984 -108.513)" fill="black" fill-opacity="0.3"/>
<rect x="122.324" y="-112.182" width="0.7" height="541" transform="rotate(10.5696 122.324 -112.182)" fill="black" fill-opacity="0.3"/>
<rect x="145.916" y="-107.779" width="0.7" height="541" transform="rotate(10.5696 145.916 -107.779)" fill="black" fill-opacity="0.3"/>
<rect x="149.848" y="-107.046" width="0.7" height="541" transform="rotate(10.5696 149.848 -107.046)" fill="black" fill-opacity="0.3"/>
<rect x="173.442" y="-102.644" width="0.7" height="541" transform="rotate(10.5696 173.442 -102.644)" fill="black" fill-opacity="0.3"/>
<rect x="153.781" y="-106.312" width="0.7" height="541" transform="rotate(10.5696 153.781 -106.312)" fill="black" fill-opacity="0.3"/>
<rect x="177.374" y="-101.91" width="0.7" height="541" transform="rotate(10.5696 177.374 -101.91)" fill="black" fill-opacity="0.3"/>
<rect x="157.713" y="-105.578" width="0.7" height="541" transform="rotate(10.5696 157.713 -105.578)" fill="black" fill-opacity="0.3"/>
<rect x="181.305" y="-101.176" width="0.7" height="541" transform="rotate(10.5696 181.305 -101.176)" fill="black" fill-opacity="0.3"/>
<rect x="161.645" y="-104.845" width="0.7" height="541" transform="rotate(10.5696 161.645 -104.845)" fill="black" fill-opacity="0.3"/>
<rect x="185.237" y="-100.442" width="0.7" height="541" transform="rotate(10.5696 185.237 -100.442)" fill="black" fill-opacity="0.3"/>
<rect x="165.577" y="-104.111" width="0.7" height="541" transform="rotate(10.5696 165.577 -104.111)" fill="black" fill-opacity="0.3"/>
<rect x="189.169" y="-99.7085" width="0.7" height="541" transform="rotate(10.5696 189.169 -99.7085)" fill="black" fill-opacity="0.3"/>
<rect x="169.508" y="-103.377" width="0.7" height="541" transform="rotate(10.5696 169.508 -103.377)" fill="black" fill-opacity="0.3"/>
<rect x="193.103" y="-98.9746" width="0.7" height="541" transform="rotate(10.5696 193.103 -98.9746)" fill="black" fill-opacity="0.3"/>
<rect x="197.034" y="-98.2412" width="0.7" height="541" transform="rotate(10.5696 197.034 -98.2412)" fill="black" fill-opacity="0.3"/>
<rect x="220.626" y="-93.8389" width="0.7" height="541" transform="rotate(10.5696 220.626 -93.8389)" fill="black" fill-opacity="0.3"/>
<rect x="200.966" y="-97.5073" width="0.7" height="541" transform="rotate(10.5696 200.966 -97.5073)" fill="black" fill-opacity="0.3"/>
<rect x="224.558" y="-93.105" width="0.7" height="541" transform="rotate(10.5696 224.558 -93.105)" fill="black" fill-opacity="0.3"/>
<rect x="204.897" y="-96.7734" width="0.7" height="541" transform="rotate(10.5696 204.897 -96.7734)" fill="black" fill-opacity="0.3"/>
<rect x="228.492" y="-92.3716" width="0.7" height="541" transform="rotate(10.5696 228.492 -92.3716)" fill="black" fill-opacity="0.3"/>
<rect x="208.831" y="-96.04" width="0.7" height="541" transform="rotate(10.5696 208.831 -96.04)" fill="black" fill-opacity="0.3"/>
<rect x="232.423" y="-91.6377" width="0.7" height="541" transform="rotate(10.5696 232.423 -91.6377)" fill="black" fill-opacity="0.3"/>
<rect x="212.763" y="-95.3062" width="0.7" height="541" transform="rotate(10.5696 212.763 -95.3062)" fill="black" fill-opacity="0.3"/>
<rect x="236.355" y="-90.9038" width="0.7" height="541" transform="rotate(10.5696 236.355 -90.9038)" fill="black" fill-opacity="0.3"/>
<rect x="216.695" y="-94.5723" width="0.7" height="541" transform="rotate(10.5696 216.695 -94.5723)" fill="black" fill-opacity="0.3"/>
<rect x="240.287" y="-90.1699" width="0.7" height="541" transform="rotate(10.5696 240.287 -90.1699)" fill="black" fill-opacity="0.3"/>
<rect x="244.22" y="-89.4365" width="0.7" height="541" transform="rotate(10.5696 244.22 -89.4365)" fill="black" fill-opacity="0.3"/>
<rect x="267.813" y="-85.0342" width="0.7" height="541" transform="rotate(10.5696 267.813 -85.0342)" fill="black" fill-opacity="0.3"/>
<rect x="248.152" y="-88.7026" width="0.7" height="541" transform="rotate(10.5696 248.152 -88.7026)" fill="black" fill-opacity="0.3"/>
<rect x="271.744" y="-84.3003" width="0.7" height="541" transform="rotate(10.5696 271.744 -84.3003)" fill="black" fill-opacity="0.3"/>
<rect x="252.084" y="-87.9688" width="0.7" height="541" transform="rotate(10.5696 252.084 -87.9688)" fill="black" fill-opacity="0.3"/>
<rect x="275.676" y="-83.5664" width="0.7" height="541" transform="rotate(10.5696 275.676 -83.5664)" fill="black" fill-opacity="0.3"/>
<rect x="256.016" y="-87.2354" width="0.7" height="541" transform="rotate(10.5696 256.016 -87.2354)" fill="black" fill-opacity="0.3"/>
<rect x="279.608" y="-82.833" width="0.7" height="541" transform="rotate(10.5696 279.608 -82.833)" fill="black" fill-opacity="0.3"/>
<rect x="259.947" y="-86.5015" width="0.7" height="541" transform="rotate(10.5696 259.947 -86.5015)" fill="black" fill-opacity="0.3"/>
<rect x="283.541" y="-82.0991" width="0.7" height="541" transform="rotate(10.5696 283.541 -82.0991)" fill="black" fill-opacity="0.3"/>
<rect x="263.881" y="-85.7681" width="0.7" height="541" transform="rotate(10.5696 263.881 -85.7681)" fill="black" fill-opacity="0.3"/>
<rect x="287.473" y="-81.3657" width="0.7" height="541" transform="rotate(10.5696 287.473 -81.3657)" fill="black" fill-opacity="0.3"/>
<rect x="291.405" y="-80.6318" width="0.7" height="541" transform="rotate(10.5696 291.405 -80.6318)" fill="black" fill-opacity="0.3"/>
<rect x="314.997" y="-76.2295" width="0.7" height="541" transform="rotate(10.5696 314.997 -76.2295)" fill="black" fill-opacity="0.3"/>
<rect x="295.337" y="-79.8979" width="0.7" height="541" transform="rotate(10.5696 295.337 -79.8979)" fill="black" fill-opacity="0.3"/>
<rect x="318.931" y="-75.4956" width="0.7" height="541" transform="rotate(10.5696 318.931 -75.4956)" fill="black" fill-opacity="0.3"/>
<rect x="299.27" y="-79.1646" width="0.7" height="541" transform="rotate(10.5696 299.27 -79.1646)" fill="black" fill-opacity="0.3"/>
<rect x="322.863" y="-74.7622" width="0.7" height="541" transform="rotate(10.5696 322.863 -74.7622)" fill="black" fill-opacity="0.3"/>
<rect x="303.202" y="-78.4307" width="0.7" height="541" transform="rotate(10.5696 303.202 -78.4307)" fill="black" fill-opacity="0.3"/>
<rect x="326.794" y="-74.0283" width="0.7" height="541" transform="rotate(10.5696 326.794 -74.0283)" fill="black" fill-opacity="0.3"/>
<rect x="307.134" y="-77.6968" width="0.7" height="541" transform="rotate(10.5696 307.134 -77.6968)" fill="black" fill-opacity="0.3"/>
<rect x="330.726" y="-73.2944" width="0.7" height="541" transform="rotate(10.5696 330.726 -73.2944)" fill="black" fill-opacity="0.3"/>
<rect x="311.066" y="-76.9629" width="0.7" height="541" transform="rotate(10.5696 311.066 -76.9629)" fill="black" fill-opacity="0.3"/>
<rect x="334.658" y="-72.5605" width="0.7" height="541" transform="rotate(10.5696 334.658 -72.5605)" fill="black" fill-opacity="0.3"/>
<rect x="338.08" y="-71.9224" width="0.7" height="541" transform="rotate(10.5696 338.08 -71.9224)" fill="black" fill-opacity="0.3"/>
<rect x="361.673" y="-67.52" width="0.7" height="541" transform="rotate(10.5696 361.673 -67.52)" fill="black" fill-opacity="0.3"/>
<rect x="342.012" y="-71.1885" width="0.7" height="541" transform="rotate(10.5696 342.012 -71.1885)" fill="black" fill-opacity="0.3"/>
<rect x="365.606" y="-66.7866" width="0.7" height="541" transform="rotate(10.5696 365.606 -66.7866)" fill="black" fill-opacity="0.3"/>
<rect x="345.944" y="-70.4551" width="0.7" height="541" transform="rotate(10.5696 345.944 -70.4551)" fill="black" fill-opacity="0.3"/>
<rect x="369.538" y="-66.0527" width="0.7" height="541" transform="rotate(10.5696 369.538 -66.0527)" fill="black" fill-opacity="0.3"/>
<rect x="349.877" y="-69.7212" width="0.7" height="541" transform="rotate(10.5696 349.877 -69.7212)" fill="black" fill-opacity="0.3"/>
<rect x="373.47" y="-65.3188" width="0.7" height="541" transform="rotate(10.5696 373.47 -65.3188)" fill="black" fill-opacity="0.3"/>
<rect x="353.809" y="-68.9878" width="0.7" height="541" transform="rotate(10.5696 353.809 -68.9878)" fill="black" fill-opacity="0.3"/>
<rect x="377.401" y="-64.585" width="0.7" height="541" transform="rotate(10.5696 377.401 -64.585)" fill="black" fill-opacity="0.3"/>
<rect x="357.741" y="-68.2539" width="0.7" height="541" transform="rotate(10.5696 357.741 -68.2539)" fill="black" fill-opacity="0.3"/>
<rect x="381.333" y="-63.8516" width="0.7" height="541" transform="rotate(10.5696 381.333 -63.8516)" fill="black" fill-opacity="0.3"/>
<rect x="385.267" y="-63.1177" width="0.7" height="541" transform="rotate(10.5696 385.267 -63.1177)" fill="black" fill-opacity="0.3"/>
<rect x="389.198" y="-62.3843" width="0.7" height="541" transform="rotate(10.5696 389.198 -62.3843)" fill="black" fill-opacity="0.3"/>
<rect x="393.13" y="-61.6504" width="0.7" height="541" transform="rotate(10.5696 393.13 -61.6504)" fill="black" fill-opacity="0.3"/>
<rect x="397.062" y="-60.9165" width="0.7" height="541" transform="rotate(10.5696 397.062 -60.9165)" fill="black" fill-opacity="0.3"/>
<rect x="400.993" y="-60.1826" width="0.7" height="541" transform="rotate(10.5696 400.993 -60.1826)" fill="black" fill-opacity="0.3"/>
<rect x="404.927" y="-59.4492" width="0.7" height="541" transform="rotate(10.5696 404.927 -59.4492)" fill="black" fill-opacity="0.3"/>
</g>
</svg>
