<svg width="510" height="560" viewBox="0 0 510 560" fill="none" xmlns="http://www.w3.org/2000/svg">
<g opacity="0.3">
<mask id="mask0_258_1456" style="mask-type:alpha" maskUnits="userSpaceOnUse" x="0" y="0" width="510" height="561">
<rect y="0.874023" width="510" height="560" fill="white"/>
</mask>
<g mask="url(#mask0_258_1456)">
<rect width="0.609014" height="468.135" rx="0.304507" transform="matrix(0.983224 0.182402 -0.184463 0.982839 2.15625 -87.1592)" fill="black"/>
<rect width="0.609014" height="468.135" rx="0.304507" transform="matrix(0.983224 0.182402 -0.184463 0.982839 5.57715 -86.5244)" fill="black"/>
<rect width="0.609014" height="468.135" rx="0.304507" transform="matrix(0.983224 0.182402 -0.184463 0.982839 8.99902 -85.8896)" fill="black"/>
<rect width="0.609014" height="468.135" rx="0.304507" transform="matrix(0.983224 0.182402 -0.184463 0.982839 12.4219 -85.2549)" fill="black"/>
<rect width="0.609014" height="468.135" rx="0.304507" transform="matrix(0.983224 0.182402 -0.184463 0.982839 15.8433 -84.6201)" fill="black"/>
<rect width="0.609014" height="468.135" rx="0.304507" transform="matrix(0.983224 0.182402 -0.184463 0.982839 36.3726 -80.8115)" fill="black"/>
<rect width="0.609014" height="468.135" rx="0.304507" transform="matrix(0.983224 0.182402 -0.184463 0.982839 19.2646 -83.9844)" fill="black"/>
<rect width="0.609014" height="468.135" rx="0.304507" transform="matrix(0.983224 0.182402 -0.184463 0.982839 39.7939 -80.1758)" fill="black"/>
<rect width="0.609014" height="468.135" rx="0.304507" transform="matrix(0.983224 0.182402 -0.184463 0.982839 22.6855 -83.3506)" fill="black"/>
<rect width="0.609014" height="468.135" rx="0.304507" transform="matrix(0.983224 0.182402 -0.184463 0.982839 43.2173 -79.541)" fill="black"/>
<rect width="0.609014" height="468.135" rx="0.304507" transform="matrix(0.983224 0.182402 -0.184463 0.982839 26.1089 -82.7158)" fill="black"/>
<rect width="0.609014" height="468.135" rx="0.304507" transform="matrix(0.983224 0.182402 -0.184463 0.982839 46.6387 -78.9072)" fill="black"/>
<rect width="0.609014" height="468.135" rx="0.304507" transform="matrix(0.983224 0.182402 -0.184463 0.982839 29.5298 -82.0811)" fill="black"/>
<rect width="0.609014" height="468.135" rx="0.304507" transform="matrix(0.983224 0.182402 -0.184463 0.982839 50.0596 -78.2725)" fill="black"/>
<rect width="0.609014" height="468.135" rx="0.304507" transform="matrix(0.983224 0.182402 -0.184463 0.982839 32.9512 -81.4463)" fill="black"/>
<rect width="0.609014" height="468.135" rx="0.304507" transform="matrix(0.983224 0.182402 -0.184463 0.982839 53.481 -77.6377)" fill="black"/>
<rect width="0.609014" height="468.135" rx="0.304507" transform="matrix(0.983224 0.182402 -0.184463 0.982839 56.9043 -77.0029)" fill="black"/>
<rect width="0.609014" height="468.135" rx="0.304507" transform="matrix(0.983224 0.182402 -0.184463 0.982839 77.4341 -73.1943)" fill="black"/>
<rect width="0.609014" height="468.135" rx="0.304507" transform="matrix(0.983224 0.182402 -0.184463 0.982839 60.3252 -76.3672)" fill="black"/>
<rect width="0.609014" height="468.135" rx="0.304507" transform="matrix(0.983224 0.182402 -0.184463 0.982839 80.855 -72.5586)" fill="black"/>
<rect width="0.609014" height="468.135" rx="0.304507" transform="matrix(0.983224 0.182402 -0.184463 0.982839 63.7466 -75.7324)" fill="black"/>
<rect width="0.609014" height="468.135" rx="0.304507" transform="matrix(0.983224 0.182402 -0.184463 0.982839 84.2764 -71.9238)" fill="black"/>
<rect width="0.609014" height="468.135" rx="0.304507" transform="matrix(0.983224 0.182402 -0.184463 0.982839 67.168 -75.0986)" fill="black"/>
<rect width="0.609014" height="468.135" rx="0.304507" transform="matrix(0.983224 0.182402 -0.184463 0.982839 87.6978 -71.2891)" fill="black"/>
<rect width="0.609014" height="468.135" rx="0.304507" transform="matrix(0.983224 0.182402 -0.184463 0.982839 70.5894 -74.4639)" fill="black"/>
<rect width="0.609014" height="468.135" rx="0.304507" transform="matrix(0.983224 0.182402 -0.184463 0.982839 91.1211 -70.6553)" fill="black"/>
<rect width="0.609014" height="468.135" rx="0.304507" transform="matrix(0.983224 0.182402 -0.184463 0.982839 74.0122 -73.8291)" fill="black"/>
<rect width="0.609014" height="468.135" rx="0.304507" transform="matrix(0.983224 0.182402 -0.184463 0.982839 94.5425 -70.0205)" fill="black"/>
<rect width="0.609014" height="468.135" rx="0.304507" transform="matrix(0.983224 0.182402 -0.184463 0.982839 97.9634 -69.3857)" fill="black"/>
<rect width="0.609014" height="468.135" rx="0.304507" transform="matrix(0.983224 0.182402 -0.184463 0.982839 118.493 -65.5762)" fill="black"/>
<rect width="0.609014" height="468.135" rx="0.304507" transform="matrix(0.983224 0.182402 -0.184463 0.982839 101.385 -68.75)" fill="black"/>
<rect width="0.609014" height="468.135" rx="0.304507" transform="matrix(0.983224 0.182402 -0.184463 0.982839 121.916 -64.9414)" fill="black"/>
<rect width="0.609014" height="468.135" rx="0.304507" transform="matrix(0.983224 0.182402 -0.184463 0.982839 104.808 -68.1152)" fill="black"/>
<rect width="0.609014" height="468.135" rx="0.304507" transform="matrix(0.983224 0.182402 -0.184463 0.982839 125.338 -64.3066)" fill="black"/>
<rect width="0.609014" height="468.135" rx="0.304507" transform="matrix(0.983224 0.182402 -0.184463 0.982839 108.229 -67.4805)" fill="black"/>
<rect width="0.609014" height="468.135" rx="0.304507" transform="matrix(0.983224 0.182402 -0.184463 0.982839 128.759 -63.6719)" fill="black"/>
<rect width="0.609014" height="468.135" rx="0.304507" transform="matrix(0.983224 0.182402 -0.184463 0.982839 111.65 -66.8467)" fill="black"/>
<rect width="0.609014" height="468.135" rx="0.304507" transform="matrix(0.983224 0.182402 -0.184463 0.982839 132.18 -63.0381)" fill="black"/>
<rect width="0.609014" height="468.135" rx="0.304507" transform="matrix(0.983224 0.182402 -0.184463 0.982839 115.072 -66.2109)" fill="black"/>
<rect width="0.609014" height="468.135" rx="0.304507" transform="matrix(0.983224 0.182402 -0.184463 0.982839 135.602 -62.4033)" fill="black"/>
<rect width="0.609014" height="468.135" rx="0.304507" transform="matrix(0.983224 0.182402 -0.184463 0.982839 138.58 -61.8506)" fill="black"/>
<rect width="0.609014" height="468.135" rx="0.304507" transform="matrix(0.983224 0.182402 -0.184463 0.982839 159.11 -58.042)" fill="black"/>
<rect width="0.609014" height="468.135" rx="0.304507" transform="matrix(0.983224 0.182402 -0.184463 0.982839 142.001 -61.2158)" fill="black"/>
<rect width="0.609014" height="468.135" rx="0.304507" transform="matrix(0.983224 0.182402 -0.184463 0.982839 162.533 -57.4072)" fill="black"/>
<rect width="0.609014" height="468.135" rx="0.304507" transform="matrix(0.983224 0.182402 -0.184463 0.982839 145.423 -60.5811)" fill="black"/>
<rect width="0.609014" height="468.135" rx="0.304507" transform="matrix(0.983224 0.182402 -0.184463 0.982839 165.954 -56.7725)" fill="black"/>
<rect width="0.609014" height="468.135" rx="0.304507" transform="matrix(0.983224 0.182402 -0.184463 0.982839 148.846 -59.9463)" fill="black"/>
<rect width="0.609014" height="468.135" rx="0.304507" transform="matrix(0.983224 0.182402 -0.184463 0.982839 169.375 -56.1377)" fill="black"/>
<rect width="0.609014" height="468.135" rx="0.304507" transform="matrix(0.983224 0.182402 -0.184463 0.982839 152.267 -59.3115)" fill="black"/>
<rect width="0.609014" height="468.135" rx="0.304507" transform="matrix(0.983224 0.182402 -0.184463 0.982839 172.796 -55.502)" fill="black"/>
<rect width="0.609014" height="468.135" rx="0.304507" transform="matrix(0.983224 0.182402 -0.184463 0.982839 155.688 -58.6758)" fill="black"/>
<rect width="0.609014" height="468.135" rx="0.304507" transform="matrix(0.983224 0.182402 -0.184463 0.982839 176.218 -54.8672)" fill="black"/>
<rect width="0.609014" height="468.135" rx="0.304507" transform="matrix(0.983224 0.182402 -0.184463 0.982839 179.641 -54.2334)" fill="black"/>
<rect width="0.609014" height="468.135" rx="0.304507" transform="matrix(0.983224 0.182402 -0.184463 0.982839 200.171 -50.4238)" fill="black"/>
<rect width="0.609014" height="468.135" rx="0.304507" transform="matrix(0.983224 0.182402 -0.184463 0.982839 183.062 -53.5986)" fill="black"/>
<rect width="0.609014" height="468.135" rx="0.304507" transform="matrix(0.983224 0.182402 -0.184463 0.982839 203.592 -49.79)" fill="black"/>
<rect width="0.609014" height="468.135" rx="0.304507" transform="matrix(0.983224 0.182402 -0.184463 0.982839 186.484 -52.9639)" fill="black"/>
<rect width="0.609014" height="468.135" rx="0.304507" transform="matrix(0.983224 0.182402 -0.184463 0.982839 207.013 -49.1553)" fill="black"/>
<rect width="0.609014" height="468.135" rx="0.304507" transform="matrix(0.983224 0.182402 -0.184463 0.982839 189.905 -52.3291)" fill="black"/>
<rect width="0.609014" height="468.135" rx="0.304507" transform="matrix(0.983224 0.182402 -0.184463 0.982839 210.437 -48.5205)" fill="black"/>
<rect width="0.609014" height="468.135" rx="0.304507" transform="matrix(0.983224 0.182402 -0.184463 0.982839 193.326 -51.6943)" fill="black"/>
<rect width="0.609014" height="468.135" rx="0.304507" transform="matrix(0.983224 0.182402 -0.184463 0.982839 213.858 -47.8857)" fill="black"/>
<rect width="0.609014" height="468.135" rx="0.304507" transform="matrix(0.983224 0.182402 -0.184463 0.982839 196.75 -51.0586)" fill="black"/>
<rect width="0.609014" height="468.135" rx="0.304507" transform="matrix(0.983224 0.182402 -0.184463 0.982839 217.279 -47.25)" fill="black"/>
<rect width="0.609014" height="468.135" rx="0.304507" transform="matrix(0.983224 0.182402 -0.184463 0.982839 220.7 -46.6152)" fill="black"/>
<rect width="0.609014" height="468.135" rx="0.304507" transform="matrix(0.983224 0.182402 -0.184463 0.982839 241.23 -42.8066)" fill="black"/>
<rect width="0.609014" height="468.135" rx="0.304507" transform="matrix(0.983224 0.182402 -0.184463 0.982839 224.122 -45.9814)" fill="black"/>
<rect width="0.609014" height="468.135" rx="0.304507" transform="matrix(0.983224 0.182402 -0.184463 0.982839 244.653 -42.1729)" fill="black"/>
<rect width="0.609014" height="468.135" rx="0.304507" transform="matrix(0.983224 0.182402 -0.184463 0.982839 227.545 -45.3467)" fill="black"/>
<rect width="0.609014" height="468.135" rx="0.304507" transform="matrix(0.983224 0.182402 -0.184463 0.982839 248.075 -41.5381)" fill="black"/>
<rect width="0.609014" height="468.135" rx="0.304507" transform="matrix(0.983224 0.182402 -0.184463 0.982839 230.965 -44.7119)" fill="black"/>
<rect width="0.609014" height="468.135" rx="0.304507" transform="matrix(0.983224 0.182402 -0.184463 0.982839 251.496 -40.9033)" fill="black"/>
<rect width="0.609014" height="468.135" rx="0.304507" transform="matrix(0.983224 0.182402 -0.184463 0.982839 234.387 -44.0771)" fill="black"/>
<rect width="0.609014" height="468.135" rx="0.304507" transform="matrix(0.983224 0.182402 -0.184463 0.982839 254.917 -40.2686)" fill="black"/>
<rect width="0.609014" height="468.135" rx="0.304507" transform="matrix(0.983224 0.182402 -0.184463 0.982839 237.809 -43.4424)" fill="black"/>
<rect width="0.609014" height="468.135" rx="0.304507" transform="matrix(0.983224 0.182402 -0.184463 0.982839 258.34 -39.6328)" fill="black"/>
<rect width="0.609014" height="468.135" rx="0.304507" transform="matrix(0.983224 0.182402 -0.184463 0.982839 261.762 -38.998)" fill="black"/>
<rect width="0.609014" height="468.135" rx="0.304507" transform="matrix(0.983224 0.182402 -0.184463 0.982839 282.291 -35.1895)" fill="black"/>
<rect width="0.609014" height="468.135" rx="0.304507" transform="matrix(0.983224 0.182402 -0.184463 0.982839 265.183 -38.3633)" fill="black"/>
<rect width="0.609014" height="468.135" rx="0.304507" transform="matrix(0.983224 0.182402 -0.184463 0.982839 285.712 -34.5547)" fill="black"/>
<rect width="0.609014" height="468.135" rx="0.304507" transform="matrix(0.983224 0.182402 -0.184463 0.982839 268.604 -37.7295)" fill="black"/>
<rect width="0.609014" height="468.135" rx="0.304507" transform="matrix(0.983224 0.182402 -0.184463 0.982839 289.136 -33.9209)" fill="black"/>
<rect width="0.609014" height="468.135" rx="0.304507" transform="matrix(0.983224 0.182402 -0.184463 0.982839 272.025 -37.0947)" fill="black"/>
<rect width="0.609014" height="468.135" rx="0.304507" transform="matrix(0.983224 0.182402 -0.184463 0.982839 292.557 -33.2861)" fill="black"/>
<rect width="0.609014" height="468.135" rx="0.304507" transform="matrix(0.983224 0.182402 -0.184463 0.982839 275.448 -36.46)" fill="black"/>
<rect width="0.609014" height="468.135" rx="0.304507" transform="matrix(0.983224 0.182402 -0.184463 0.982839 295.978 -32.6514)" fill="black"/>
<rect width="0.609014" height="468.135" rx="0.304507" transform="matrix(0.983224 0.182402 -0.184463 0.982839 278.87 -35.8242)" fill="black"/>
<rect width="0.609014" height="468.135" rx="0.304507" transform="matrix(0.983224 0.182402 -0.184463 0.982839 299.399 -32.0156)" fill="black"/>
<rect width="0.609014" height="468.135" rx="0.304507" transform="matrix(0.983224 0.182402 -0.184463 0.982839 302.821 -31.3809)" fill="black"/>
<rect width="0.609014" height="468.135" rx="0.304507" transform="matrix(0.983224 0.182402 -0.184463 0.982839 323.353 -27.5723)" fill="black"/>
<rect width="0.609014" height="468.135" rx="0.304507" transform="matrix(0.983224 0.182402 -0.184463 0.982839 306.244 -30.7461)" fill="black"/>
<rect width="0.609014" height="468.135" rx="0.304507" transform="matrix(0.983224 0.182402 -0.184463 0.982839 326.774 -26.9375)" fill="black"/>
<rect width="0.609014" height="468.135" rx="0.304507" transform="matrix(0.983224 0.182402 -0.184463 0.982839 309.666 -30.1113)" fill="black"/>
<rect width="0.609014" height="468.135" rx="0.304507" transform="matrix(0.983224 0.182402 -0.184463 0.982839 330.195 -26.3027)" fill="black"/>
<rect width="0.609014" height="468.135" rx="0.304507" transform="matrix(0.983224 0.182402 -0.184463 0.982839 313.086 -29.4775)" fill="black"/>
<rect width="0.609014" height="468.135" rx="0.304507" transform="matrix(0.983224 0.182402 -0.184463 0.982839 333.616 -25.6689)" fill="black"/>
<rect width="0.609014" height="468.135" rx="0.304507" transform="matrix(0.983224 0.182402 -0.184463 0.982839 316.508 -28.8428)" fill="black"/>
<rect width="0.609014" height="468.135" rx="0.304507" transform="matrix(0.983224 0.182402 -0.184463 0.982839 337.039 -25.0342)" fill="black"/>
<rect width="0.609014" height="468.135" rx="0.304507" transform="matrix(0.983224 0.182402 -0.184463 0.982839 319.929 -28.207)" fill="black"/>
<rect width="0.609014" height="468.135" rx="0.304507" transform="matrix(0.983224 0.182402 -0.184463 0.982839 340.461 -24.3984)" fill="black"/>
<rect width="0.609014" height="468.135" rx="0.304507" transform="matrix(0.983224 0.182402 -0.184463 0.982839 343.882 -23.7637)" fill="black"/>
<rect width="0.609014" height="468.135" rx="0.304507" transform="matrix(0.983224 0.182402 -0.184463 0.982839 364.412 -19.9551)" fill="black"/>
<rect width="0.609014" height="468.135" rx="0.304507" transform="matrix(0.983224 0.182402 -0.184463 0.982839 347.304 -23.1289)" fill="black"/>
<rect width="0.609014" height="468.135" rx="0.304507" transform="matrix(0.983224 0.182402 -0.184463 0.982839 367.833 -19.3203)" fill="black"/>
<rect width="0.609014" height="468.135" rx="0.304507" transform="matrix(0.983224 0.182402 -0.184463 0.982839 350.725 -22.4941)" fill="black"/>
<rect width="0.609014" height="468.135" rx="0.304507" transform="matrix(0.983224 0.182402 -0.184463 0.982839 371.256 -18.6855)" fill="black"/>
<rect width="0.609014" height="468.135" rx="0.304507" transform="matrix(0.983224 0.182402 -0.184463 0.982839 354.147 -21.8604)" fill="black"/>
<rect width="0.609014" height="468.135" rx="0.304507" transform="matrix(0.983224 0.182402 -0.184463 0.982839 374.677 -18.0508)" fill="black"/>
<rect width="0.609014" height="468.135" rx="0.304507" transform="matrix(0.983224 0.182402 -0.184463 0.982839 357.569 -21.2256)" fill="black"/>
<rect width="0.609014" height="468.135" rx="0.304507" transform="matrix(0.983224 0.182402 -0.184463 0.982839 378.099 -17.416)" fill="black"/>
<rect width="0.609014" height="468.135" rx="0.304507" transform="matrix(0.983224 0.182402 -0.184463 0.982839 360.99 -20.5898)" fill="black"/>
<rect width="0.609014" height="468.135" rx="0.304507" transform="matrix(0.983224 0.182402 -0.184463 0.982839 381.52 -16.7812)" fill="black"/>
<rect width="0.609014" height="468.135" rx="0.304507" transform="matrix(0.983224 0.182402 -0.184463 0.982839 384.943 -16.1465)" fill="black"/>
<rect width="0.609014" height="468.135" rx="0.304507" transform="matrix(0.983224 0.182402 -0.184463 0.982839 405.473 -12.3379)" fill="black"/>
<rect width="0.609014" height="468.135" rx="0.304507" transform="matrix(0.983224 0.182402 -0.184463 0.982839 388.364 -15.5117)" fill="black"/>
<rect width="0.609014" height="468.135" rx="0.304507" transform="matrix(0.983224 0.182402 -0.184463 0.982839 408.894 -11.7031)" fill="black"/>
<rect width="0.609014" height="468.135" rx="0.304507" transform="matrix(0.983224 0.182402 -0.184463 0.982839 391.786 -14.877)" fill="black"/>
<rect width="0.609014" height="468.135" rx="0.304507" transform="matrix(0.983224 0.182402 -0.184463 0.982839 412.315 -11.0684)" fill="black"/>
<rect width="0.609014" height="468.135" rx="0.304507" transform="matrix(0.983224 0.182402 -0.184463 0.982839 395.207 -14.2422)" fill="black"/>
<rect width="0.609014" height="468.135" rx="0.304507" transform="matrix(0.983224 0.182402 -0.184463 0.982839 415.738 -10.4336)" fill="black"/>
<rect width="0.609014" height="468.135" rx="0.304507" transform="matrix(0.983224 0.182402 -0.184463 0.982839 398.628 -13.6084)" fill="black"/>
<rect width="0.609014" height="468.135" rx="0.304507" transform="matrix(0.983224 0.182402 -0.184463 0.982839 419.16 -9.7998)" fill="black"/>
<rect width="0.609014" height="468.135" rx="0.304507" transform="matrix(0.983224 0.182402 -0.184463 0.982839 402.052 -12.9727)" fill="black"/>
<rect width="0.609014" height="468.135" rx="0.304507" transform="matrix(0.983224 0.182402 -0.184463 0.982839 422.582 -9.16406)" fill="black"/>
<rect width="0.609014" height="468.135" rx="0.304507" transform="matrix(0.983224 0.182402 -0.184463 0.982839 426.002 -8.5293)" fill="black"/>
<rect width="0.609014" height="468.135" rx="0.304507" transform="matrix(0.983224 0.182402 -0.184463 0.982839 446.532 -4.7207)" fill="black"/>
<rect width="0.609014" height="468.135" rx="0.304507" transform="matrix(0.983224 0.182402 -0.184463 0.982839 429.424 -7.89453)" fill="black"/>
<rect width="0.609014" height="468.135" rx="0.304507" transform="matrix(0.983224 0.182402 -0.184463 0.982839 449.955 -4.08594)" fill="black"/>
<rect width="0.609014" height="468.135" rx="0.304507" transform="matrix(0.983224 0.182402 -0.184463 0.982839 432.847 -7.25977)" fill="black"/>
<rect width="0.609014" height="468.135" rx="0.304507" transform="matrix(0.983224 0.182402 -0.184463 0.982839 453.376 -3.45117)" fill="black"/>
<rect width="0.609014" height="468.135" rx="0.304507" transform="matrix(0.983224 0.182402 -0.184463 0.982839 436.268 -6.625)" fill="black"/>
<rect width="0.609014" height="468.135" rx="0.304507" transform="matrix(0.983224 0.182402 -0.184463 0.982839 456.798 -2.81641)" fill="black"/>
<rect width="0.609014" height="468.135" rx="0.304507" transform="matrix(0.983224 0.182402 -0.184463 0.982839 439.689 -5.99023)" fill="black"/>
<rect width="0.609014" height="468.135" rx="0.304507" transform="matrix(0.983224 0.182402 -0.184463 0.982839 460.219 -2.18066)" fill="black"/>
<rect width="0.609014" height="468.135" rx="0.304507" transform="matrix(0.983224 0.182402 -0.184463 0.982839 443.111 -5.35547)" fill="black"/>
<rect width="0.609014" height="468.135" rx="0.304507" transform="matrix(0.983224 0.182402 -0.184463 0.982839 463.642 -1.54688)" fill="black"/>
<rect width="0.609014" height="468.135" rx="0.304507" transform="matrix(0.983224 0.182402 -0.184463 0.982839 487.575 -109.548)" fill="black"/>
<rect width="0.609014" height="468.135" rx="0.304507" transform="matrix(0.983224 0.182402 -0.184463 0.982839 508.105 -105.739)" fill="black"/>
<rect width="0.609014" height="468.135" rx="0.304507" transform="matrix(0.983224 0.182402 -0.184463 0.982839 490.996 -108.913)" fill="black"/>
<rect width="0.609014" height="468.135" rx="0.304507" transform="matrix(0.983224 0.182402 -0.184463 0.982839 511.526 -105.104)" fill="black"/>
<rect width="0.609014" height="468.135" rx="0.304507" transform="matrix(0.983224 0.182402 -0.184463 0.982839 494.418 -108.277)" fill="black"/>
<rect width="0.609014" height="468.135" rx="0.304507" transform="matrix(0.983224 0.182402 -0.184463 0.982839 514.949 -104.469)" fill="black"/>
<rect width="0.609014" height="468.135" rx="0.304507" transform="matrix(0.983224 0.182402 -0.184463 0.982839 497.841 -107.643)" fill="black"/>
<rect width="0.609014" height="468.135" rx="0.304507" transform="matrix(0.983224 0.182402 -0.184463 0.982839 518.371 -103.834)" fill="black"/>
<rect width="0.609014" height="468.135" rx="0.304507" transform="matrix(0.983224 0.182402 -0.184463 0.982839 501.262 -107.008)" fill="black"/>
<rect width="0.609014" height="468.135" rx="0.304507" transform="matrix(0.983224 0.182402 -0.184463 0.982839 521.792 -103.199)" fill="black"/>
<rect width="0.609014" height="468.135" rx="0.304507" transform="matrix(0.983224 0.182402 -0.184463 0.982839 504.684 -106.373)" fill="black"/>
<rect width="0.609014" height="468.135" rx="0.304507" transform="matrix(0.983224 0.182402 -0.184463 0.982839 525.213 -102.564)" fill="black"/>
<rect width="0.609014" height="468.135" rx="0.304507" transform="matrix(0.983224 0.182402 -0.184463 0.982839 528.636 -101.93)" fill="black"/>
<rect width="0.609014" height="468.135" rx="0.304507" transform="matrix(0.983224 0.182402 -0.184463 0.982839 549.166 -98.1211)" fill="black"/>
<rect width="0.609014" height="468.135" rx="0.304507" transform="matrix(0.983224 0.182402 -0.184463 0.982839 532.058 -101.296)" fill="black"/>
<rect width="0.609014" height="468.135" rx="0.304507" transform="matrix(0.983224 0.182402 -0.184463 0.982839 552.587 -97.4863)" fill="black"/>
<rect width="0.609014" height="468.135" rx="0.304507" transform="matrix(0.983224 0.182402 -0.184463 0.982839 535.479 -100.66)" fill="black"/>
<rect width="0.609014" height="468.135" rx="0.304507" transform="matrix(0.983224 0.182402 -0.184463 0.982839 556.009 -96.8516)" fill="black"/>
<rect width="0.609014" height="468.135" rx="0.304507" transform="matrix(0.983224 0.182402 -0.184463 0.982839 538.9 -100.025)" fill="black"/>
<rect width="0.609014" height="468.135" rx="0.304507" transform="matrix(0.983224 0.182402 -0.184463 0.982839 559.43 -96.2168)" fill="black"/>
<rect width="0.609014" height="468.135" rx="0.304507" transform="matrix(0.983224 0.182402 -0.184463 0.982839 542.322 -99.3906)" fill="black"/>
<rect width="0.609014" height="468.135" rx="0.304507" transform="matrix(0.983224 0.182402 -0.184463 0.982839 562.853 -95.582)" fill="black"/>
<rect width="0.609014" height="468.135" rx="0.304507" transform="matrix(0.983224 0.182402 -0.184463 0.982839 545.745 -98.7559)" fill="black"/>
<rect width="0.609014" height="468.135" rx="0.304507" transform="matrix(0.983224 0.182402 -0.184463 0.982839 566.274 -94.9473)" fill="black"/>
<rect width="0.609014" height="468.135" rx="0.304507" transform="matrix(0.983224 0.182402 -0.184463 0.982839 569.696 -94.3125)" fill="black"/>
<rect width="0.609014" height="468.135" rx="0.304507" transform="matrix(0.983224 0.182402 -0.184463 0.982839 590.225 -90.5039)" fill="black"/>
<rect width="0.609014" height="468.135" rx="0.304507" transform="matrix(0.983224 0.182402 -0.184463 0.982839 573.117 -93.6787)" fill="black"/>
<rect width="0.609014" height="468.135" rx="0.304507" transform="matrix(0.983224 0.182402 -0.184463 0.982839 593.648 -89.8691)" fill="black"/>
<rect width="0.609014" height="468.135" rx="0.304507" transform="matrix(0.983224 0.182402 -0.184463 0.982839 576.54 -93.043)" fill="black"/>
<rect width="0.609014" height="468.135" rx="0.304507" transform="matrix(0.983224 0.182402 -0.184463 0.982839 579.961 -92.4082)" fill="black"/>
<rect width="0.609014" height="468.135" rx="0.304507" transform="matrix(0.983224 0.182402 -0.184463 0.982839 583.383 -91.7734)" fill="black"/>
<rect width="0.609014" height="468.135" rx="0.304507" transform="matrix(0.983224 0.182402 -0.184463 0.982839 586.804 -91.1387)" fill="black"/>
<rect width="0.609014" height="468.135" rx="0.304507" transform="matrix(0.983224 0.182402 -0.184463 0.982839 343.162 339.082)" fill="black"/>
<rect width="0.609014" height="468.135" rx="0.304507" transform="matrix(0.983224 0.182402 -0.184463 0.982839 363.692 342.89)" fill="black"/>
<rect width="0.609014" height="468.135" rx="0.304507" transform="matrix(0.983224 0.182402 -0.184463 0.982839 346.583 339.716)" fill="black"/>
<rect width="0.609014" height="468.135" rx="0.304507" transform="matrix(0.983224 0.182402 -0.184463 0.982839 367.113 343.525)" fill="black"/>
<rect width="0.609014" height="468.135" rx="0.304507" transform="matrix(0.983224 0.182402 -0.184463 0.982839 350.005 340.352)" fill="black"/>
<rect width="0.609014" height="468.135" rx="0.304507" transform="matrix(0.983224 0.182402 -0.184463 0.982839 370.536 344.16)" fill="black"/>
<rect width="0.609014" height="468.135" rx="0.304507" transform="matrix(0.983224 0.182402 -0.184463 0.982839 353.427 340.986)" fill="black"/>
<rect width="0.609014" height="468.135" rx="0.304507" transform="matrix(0.983224 0.182402 -0.184463 0.982839 373.957 344.795)" fill="black"/>
<rect width="0.609014" height="468.135" rx="0.304507" transform="matrix(0.983224 0.182402 -0.184463 0.982839 356.849 341.621)" fill="black"/>
<rect width="0.609014" height="468.135" rx="0.304507" transform="matrix(0.983224 0.182402 -0.184463 0.982839 377.378 345.43)" fill="black"/>
<rect width="0.609014" height="468.135" rx="0.304507" transform="matrix(0.983224 0.182402 -0.184463 0.982839 360.271 342.256)" fill="black"/>
<rect width="0.609014" height="468.135" rx="0.304507" transform="matrix(0.983224 0.182402 -0.184463 0.982839 380.8 346.064)" fill="black"/>
<rect width="0.609014" height="468.135" rx="0.304507" transform="matrix(0.983224 0.182402 -0.184463 0.982839 384.223 346.699)" fill="black"/>
<rect width="0.609014" height="468.135" rx="0.304507" transform="matrix(0.983224 0.182402 -0.184463 0.982839 404.752 350.508)" fill="black"/>
<rect width="0.609014" height="468.135" rx="0.304507" transform="matrix(0.983224 0.182402 -0.184463 0.982839 387.645 347.333)" fill="black"/>
<rect width="0.609014" height="468.135" rx="0.304507" transform="matrix(0.983224 0.182402 -0.184463 0.982839 408.174 351.143)" fill="black"/>
<rect width="0.609014" height="468.135" rx="0.304507" transform="matrix(0.983224 0.182402 -0.184463 0.982839 391.065 347.969)" fill="black"/>
<rect width="0.609014" height="468.135" rx="0.304507" transform="matrix(0.983224 0.182402 -0.184463 0.982839 411.595 351.777)" fill="black"/>
<rect width="0.609014" height="468.135" rx="0.304507" transform="matrix(0.983224 0.182402 -0.184463 0.982839 394.487 348.604)" fill="black"/>
<rect width="0.609014" height="468.135" rx="0.304507" transform="matrix(0.983224 0.182402 -0.184463 0.982839 415.017 352.412)" fill="black"/>
<rect width="0.609014" height="468.135" rx="0.304507" transform="matrix(0.983224 0.182402 -0.184463 0.982839 397.908 349.238)" fill="black"/>
<rect width="0.609014" height="468.135" rx="0.304507" transform="matrix(0.983224 0.182402 -0.184463 0.982839 418.44 353.047)" fill="black"/>
<rect width="0.609014" height="468.135" rx="0.304507" transform="matrix(0.983224 0.182402 -0.184463 0.982839 401.332 349.873)" fill="black"/>
<rect width="0.609014" height="468.135" rx="0.304507" transform="matrix(0.983224 0.182402 -0.184463 0.982839 421.861 353.682)" fill="black"/>
<rect width="0.609014" height="468.135" rx="0.304507" transform="matrix(0.983224 0.182402 -0.184463 0.982839 425.282 354.317)" fill="black"/>
<rect width="0.609014" height="468.135" rx="0.304507" transform="matrix(0.983224 0.182402 -0.184463 0.982839 445.812 358.126)" fill="black"/>
<rect width="0.609014" height="468.135" rx="0.304507" transform="matrix(0.983224 0.182402 -0.184463 0.982839 428.704 354.95)" fill="black"/>
<rect width="0.609014" height="468.135" rx="0.304507" transform="matrix(0.983224 0.182402 -0.184463 0.982839 449.235 358.76)" fill="black"/>
<rect width="0.609014" height="468.135" rx="0.304507" transform="matrix(0.983224 0.182402 -0.184463 0.982839 432.127 355.586)" fill="black"/>
<rect width="0.609014" height="468.135" rx="0.304507" transform="matrix(0.983224 0.182402 -0.184463 0.982839 452.657 359.395)" fill="black"/>
<rect width="0.609014" height="468.135" rx="0.304507" transform="matrix(0.983224 0.182402 -0.184463 0.982839 435.548 356.221)" fill="black"/>
<rect width="0.609014" height="468.135" rx="0.304507" transform="matrix(0.983224 0.182402 -0.184463 0.982839 456.078 360.029)" fill="black"/>
<rect width="0.609014" height="468.135" rx="0.304507" transform="matrix(0.983224 0.182402 -0.184463 0.982839 438.969 356.855)" fill="black"/>
<rect width="0.609014" height="468.135" rx="0.304507" transform="matrix(0.983224 0.182402 -0.184463 0.982839 459.5 360.664)" fill="black"/>
<rect width="0.609014" height="468.135" rx="0.304507" transform="matrix(0.983224 0.182402 -0.184463 0.982839 442.391 357.49)" fill="black"/>
<rect width="0.609014" height="468.135" rx="0.304507" transform="matrix(0.983224 0.182402 -0.184463 0.982839 462.922 361.299)" fill="black"/>
<rect width="0.609014" height="468.135" rx="0.304507" transform="matrix(0.983224 0.182402 -0.184463 0.982839 466.344 361.934)" fill="black"/>
<rect width="0.609014" height="468.135" rx="0.304507" transform="matrix(0.983224 0.182402 -0.184463 0.982839 486.873 365.742)" fill="black"/>
<rect width="0.609014" height="468.135" rx="0.304507" transform="matrix(0.983224 0.182402 -0.184463 0.982839 469.765 362.568)" fill="black"/>
<rect width="0.609014" height="468.135" rx="0.304507" transform="matrix(0.983224 0.182402 -0.184463 0.982839 490.295 366.377)" fill="black"/>
<rect width="0.609014" height="468.135" rx="0.304507" transform="matrix(0.983224 0.182402 -0.184463 0.982839 473.186 363.203)" fill="black"/>
<rect width="0.609014" height="468.135" rx="0.304507" transform="matrix(0.983224 0.182402 -0.184463 0.982839 493.716 367.012)" fill="black"/>
<rect width="0.609014" height="468.135" rx="0.304507" transform="matrix(0.983224 0.182402 -0.184463 0.982839 476.607 363.838)" fill="black"/>
<rect width="0.609014" height="468.135" rx="0.304507" transform="matrix(0.983224 0.182402 -0.184463 0.982839 497.139 367.646)" fill="black"/>
<rect width="0.609014" height="468.135" rx="0.304507" transform="matrix(0.983224 0.182402 -0.184463 0.982839 480.031 364.473)" fill="black"/>
<rect width="0.609014" height="468.135" rx="0.304507" transform="matrix(0.983224 0.182402 -0.184463 0.982839 500.56 368.281)" fill="black"/>
<rect width="0.609014" height="468.135" rx="0.304507" transform="matrix(0.983224 0.182402 -0.184463 0.982839 483.452 365.107)" fill="black"/>
<rect width="0.609014" height="468.135" rx="0.304507" transform="matrix(0.983224 0.182402 -0.184463 0.982839 503.981 368.916)" fill="black"/>
<rect width="0.609014" height="468.135" rx="0.304507" transform="matrix(0.983224 0.182402 -0.184463 0.982839 507.403 369.551)" fill="black"/>
<rect width="0.609014" height="468.135" rx="0.304507" transform="matrix(0.983224 0.182402 -0.184463 0.982839 527.934 373.359)" fill="black"/>
<rect width="0.609014" height="468.135" rx="0.304507" transform="matrix(0.983224 0.182402 -0.184463 0.982839 510.826 370.187)" fill="black"/>
<rect width="0.609014" height="468.135" rx="0.304507" transform="matrix(0.983224 0.182402 -0.184463 0.982839 531.356 373.994)" fill="black"/>
<rect width="0.609014" height="468.135" rx="0.304507" transform="matrix(0.983224 0.182402 -0.184463 0.982839 514.247 370.82)" fill="black"/>
<rect width="0.609014" height="468.135" rx="0.304507" transform="matrix(0.983224 0.182402 -0.184463 0.982839 534.777 374.629)" fill="black"/>
<rect width="0.609014" height="468.135" rx="0.304507" transform="matrix(0.983224 0.182402 -0.184463 0.982839 517.669 371.455)" fill="black"/>
<rect width="0.609014" height="468.135" rx="0.304507" transform="matrix(0.983224 0.182402 -0.184463 0.982839 538.198 375.264)" fill="black"/>
<rect width="0.609014" height="468.135" rx="0.304507" transform="matrix(0.983224 0.182402 -0.184463 0.982839 521.09 372.09)" fill="black"/>
<rect width="0.609014" height="468.135" rx="0.304507" transform="matrix(0.983224 0.182402 -0.184463 0.982839 541.619 375.898)" fill="black"/>
<rect width="0.609014" height="468.135" rx="0.304507" transform="matrix(0.983224 0.182402 -0.184463 0.982839 524.511 372.725)" fill="black"/>
<rect width="0.609014" height="468.135" rx="0.304507" transform="matrix(0.983224 0.182402 -0.184463 0.982839 545.043 376.533)" fill="black"/>
<rect width="0.609014" height="468.135" rx="0.304507" transform="matrix(0.983224 0.182402 -0.184463 0.982839 548.464 377.168)" fill="black"/>
<rect width="0.609014" height="468.135" rx="0.304507" transform="matrix(0.983224 0.182402 -0.184463 0.982839 568.994 380.977)" fill="black"/>
<rect width="0.609014" height="468.135" rx="0.304507" transform="matrix(0.983224 0.182402 -0.184463 0.982839 551.885 377.803)" fill="black"/>
<rect width="0.609014" height="468.135" rx="0.304507" transform="matrix(0.983224 0.182402 -0.184463 0.982839 572.415 381.612)" fill="black"/>
<rect width="0.609014" height="468.135" rx="0.304507" transform="matrix(0.983224 0.182402 -0.184463 0.982839 555.307 378.438)" fill="black"/>
<rect width="0.609014" height="468.135" rx="0.304507" transform="matrix(0.983224 0.182402 -0.184463 0.982839 575.838 382.247)" fill="black"/>
<rect width="0.609014" height="468.135" rx="0.304507" transform="matrix(0.983224 0.182402 -0.184463 0.982839 558.73 379.072)" fill="black"/>
<rect width="0.609014" height="468.135" rx="0.304507" transform="matrix(0.983224 0.182402 -0.184463 0.982839 579.26 382.881)" fill="black"/>
<rect width="0.609014" height="468.135" rx="0.304507" transform="matrix(0.983224 0.182402 -0.184463 0.982839 562.151 379.707)" fill="black"/>
<rect width="0.609014" height="468.135" rx="0.304507" transform="matrix(0.983224 0.182402 -0.184463 0.982839 582.681 383.516)" fill="black"/>
<rect width="0.609014" height="468.135" rx="0.304507" transform="matrix(0.983224 0.182402 -0.184463 0.982839 565.573 380.342)" fill="black"/>
<rect width="0.609014" height="468.135" rx="0.304507" transform="matrix(0.983224 0.182402 -0.184463 0.982839 586.102 384.15)" fill="black"/>
<rect width="0.609014" height="468.135" rx="0.304507" transform="matrix(0.983224 0.182402 -0.184463 0.982839 589.525 384.785)" fill="black"/>
<rect width="0.609014" height="468.135" rx="0.304507" transform="matrix(0.983224 0.182402 -0.184463 0.982839 592.946 385.42)" fill="black"/>
<rect width="0.609014" height="468.135" rx="0.304507" transform="matrix(0.983224 0.182402 -0.184463 0.982839 14.6958 390.586)" fill="black"/>
<rect width="0.609014" height="468.135" rx="0.304507" transform="matrix(0.983224 0.182402 -0.184463 0.982839 18.1187 391.221)" fill="black"/>
<rect width="0.609014" height="468.135" rx="0.304507" transform="matrix(0.983224 0.182402 -0.184463 0.982839 1.00879 388.047)" fill="black"/>
<rect width="0.609014" height="468.135" rx="0.304507" transform="matrix(0.983224 0.182402 -0.184463 0.982839 21.54 391.855)" fill="black"/>
<rect width="0.609014" height="468.135" rx="0.304507" transform="matrix(0.983224 0.182402 -0.184463 0.982839 4.43164 388.683)" fill="black"/>
<rect width="0.609014" height="468.135" rx="0.304507" transform="matrix(0.983224 0.182402 -0.184463 0.982839 24.9614 392.49)" fill="black"/>
<rect width="0.609014" height="468.135" rx="0.304507" transform="matrix(0.983224 0.182402 -0.184463 0.982839 7.85303 389.317)" fill="black"/>
<rect width="0.609014" height="468.135" rx="0.304507" transform="matrix(0.983224 0.182402 -0.184463 0.982839 28.3828 393.126)" fill="black"/>
<rect width="0.609014" height="468.135" rx="0.304507" transform="matrix(0.983224 0.182402 -0.184463 0.982839 11.2744 389.952)" fill="black"/>
<rect width="0.609014" height="468.135" rx="0.304507" transform="matrix(0.983224 0.182402 -0.184463 0.982839 31.8042 393.761)" fill="black"/>
<rect width="0.609014" height="468.135" rx="0.304507" transform="matrix(0.983224 0.182402 -0.184463 0.982839 35.2271 394.396)" fill="black"/>
<rect width="0.609014" height="468.135" rx="0.304507" transform="matrix(0.983224 0.182402 -0.184463 0.982839 55.7568 398.204)" fill="black"/>
<rect width="0.609014" height="468.135" rx="0.304507" transform="matrix(0.983224 0.182402 -0.184463 0.982839 38.6484 395.029)" fill="black"/>
<rect width="0.609014" height="468.135" rx="0.304507" transform="matrix(0.983224 0.182402 -0.184463 0.982839 59.1782 398.838)" fill="black"/>
<rect width="0.609014" height="468.135" rx="0.304507" transform="matrix(0.983224 0.182402 -0.184463 0.982839 42.0703 395.664)" fill="black"/>
<rect width="0.609014" height="468.135" rx="0.304507" transform="matrix(0.983224 0.182402 -0.184463 0.982839 62.5996 399.473)" fill="black"/>
<rect width="0.609014" height="468.135" rx="0.304507" transform="matrix(0.983224 0.182402 -0.184463 0.982839 45.4907 396.299)" fill="black"/>
<rect width="0.609014" height="468.135" rx="0.304507" transform="matrix(0.983224 0.182402 -0.184463 0.982839 66.0225 400.107)" fill="black"/>
<rect width="0.609014" height="468.135" rx="0.304507" transform="matrix(0.983224 0.182402 -0.184463 0.982839 48.9121 396.935)" fill="black"/>
<rect width="0.609014" height="468.135" rx="0.304507" transform="matrix(0.983224 0.182402 -0.184463 0.982839 69.4443 400.743)" fill="black"/>
<rect width="0.609014" height="468.135" rx="0.304507" transform="matrix(0.983224 0.182402 -0.184463 0.982839 52.3354 397.569)" fill="black"/>
<rect width="0.609014" height="468.135" rx="0.304507" transform="matrix(0.983224 0.182402 -0.184463 0.982839 72.8652 401.378)" fill="black"/>
<rect width="0.609014" height="468.135" rx="0.304507" transform="matrix(0.983224 0.182402 -0.184463 0.982839 76.2866 402.013)" fill="black"/>
<rect width="0.609014" height="468.135" rx="0.304507" transform="matrix(0.983224 0.182402 -0.184463 0.982839 96.8164 405.821)" fill="black"/>
<rect width="0.609014" height="468.135" rx="0.304507" transform="matrix(0.983224 0.182402 -0.184463 0.982839 79.7075 402.646)" fill="black"/>
<rect width="0.609014" height="468.135" rx="0.304507" transform="matrix(0.983224 0.182402 -0.184463 0.982839 100.239 406.456)" fill="black"/>
<rect width="0.609014" height="468.135" rx="0.304507" transform="matrix(0.983224 0.182402 -0.184463 0.982839 83.1309 403.281)" fill="black"/>
<rect width="0.609014" height="468.135" rx="0.304507" transform="matrix(0.983224 0.182402 -0.184463 0.982839 103.661 407.09)" fill="black"/>
<rect width="0.609014" height="468.135" rx="0.304507" transform="matrix(0.983224 0.182402 -0.184463 0.982839 86.5518 403.917)" fill="black"/>
<rect width="0.609014" height="468.135" rx="0.304507" transform="matrix(0.983224 0.182402 -0.184463 0.982839 107.082 407.725)" fill="black"/>
<rect width="0.609014" height="468.135" rx="0.304507" transform="matrix(0.983224 0.182402 -0.184463 0.982839 89.9731 404.551)" fill="black"/>
<rect width="0.609014" height="468.135" rx="0.304507" transform="matrix(0.983224 0.182402 -0.184463 0.982839 110.503 408.359)" fill="black"/>
<rect width="0.609014" height="468.135" rx="0.304507" transform="matrix(0.983224 0.182402 -0.184463 0.982839 93.395 405.187)" fill="black"/>
<rect width="0.609014" height="468.135" rx="0.304507" transform="matrix(0.983224 0.182402 -0.184463 0.982839 113.926 408.995)" fill="black"/>
<rect width="0.609014" height="468.135" rx="0.304507" transform="matrix(0.983224 0.182402 -0.184463 0.982839 117.348 409.63)" fill="black"/>
<rect width="0.609014" height="468.135" rx="0.304507" transform="matrix(0.983224 0.182402 -0.184463 0.982839 137.877 413.438)" fill="black"/>
<rect width="0.609014" height="468.135" rx="0.304507" transform="matrix(0.983224 0.182402 -0.184463 0.982839 120.769 410.265)" fill="black"/>
<rect width="0.609014" height="468.135" rx="0.304507" transform="matrix(0.983224 0.182402 -0.184463 0.982839 141.299 414.073)" fill="black"/>
<rect width="0.609014" height="468.135" rx="0.304507" transform="matrix(0.983224 0.182402 -0.184463 0.982839 124.19 410.898)" fill="black"/>
<rect width="0.609014" height="468.135" rx="0.304507" transform="matrix(0.983224 0.182402 -0.184463 0.982839 144.722 414.707)" fill="black"/>
<rect width="0.609014" height="468.135" rx="0.304507" transform="matrix(0.983224 0.182402 -0.184463 0.982839 127.611 411.534)" fill="black"/>
<rect width="0.609014" height="468.135" rx="0.304507" transform="matrix(0.983224 0.182402 -0.184463 0.982839 148.143 415.342)" fill="black"/>
<rect width="0.609014" height="468.135" rx="0.304507" transform="matrix(0.983224 0.182402 -0.184463 0.982839 131.035 412.169)" fill="black"/>
<rect width="0.609014" height="468.135" rx="0.304507" transform="matrix(0.983224 0.182402 -0.184463 0.982839 151.564 415.978)" fill="black"/>
<rect width="0.609014" height="468.135" rx="0.304507" transform="matrix(0.983224 0.182402 -0.184463 0.982839 134.456 412.804)" fill="black"/>
<rect width="0.609014" height="468.135" rx="0.304507" transform="matrix(0.983224 0.182402 -0.184463 0.982839 154.985 416.611)" fill="black"/>
<rect width="0.609014" height="468.135" rx="0.304507" transform="matrix(0.983224 0.182402 -0.184463 0.982839 158.407 417.247)" fill="black"/>
<rect width="0.609014" height="468.135" rx="0.304507" transform="matrix(0.983224 0.182402 -0.184463 0.982839 178.938 421.056)" fill="black"/>
<rect width="0.609014" height="468.135" rx="0.304507" transform="matrix(0.983224 0.182402 -0.184463 0.982839 161.83 417.882)" fill="black"/>
<rect width="0.609014" height="468.135" rx="0.304507" transform="matrix(0.983224 0.182402 -0.184463 0.982839 182.36 421.69)" fill="black"/>
<rect width="0.609014" height="468.135" rx="0.304507" transform="matrix(0.983224 0.182402 -0.184463 0.982839 165.251 418.517)" fill="black"/>
<rect width="0.609014" height="468.135" rx="0.304507" transform="matrix(0.983224 0.182402 -0.184463 0.982839 185.781 422.325)" fill="black"/>
<rect width="0.609014" height="468.135" rx="0.304507" transform="matrix(0.983224 0.182402 -0.184463 0.982839 168.673 419.15)" fill="black"/>
<rect width="0.609014" height="468.135" rx="0.304507" transform="matrix(0.983224 0.182402 -0.184463 0.982839 189.202 422.959)" fill="black"/>
<rect width="0.609014" height="468.135" rx="0.304507" transform="matrix(0.983224 0.182402 -0.184463 0.982839 172.094 419.786)" fill="black"/>
<rect width="0.609014" height="468.135" rx="0.304507" transform="matrix(0.983224 0.182402 -0.184463 0.982839 192.625 423.594)" fill="black"/>
<rect width="0.609014" height="468.135" rx="0.304507" transform="matrix(0.983224 0.182402 -0.184463 0.982839 175.515 420.421)" fill="black"/>
<rect width="0.609014" height="468.135" rx="0.304507" transform="matrix(0.983224 0.182402 -0.184463 0.982839 196.047 424.229)" fill="black"/>
<rect width="0.609014" height="468.135" rx="0.304507" transform="matrix(0.983224 0.182402 -0.184463 0.982839 199.468 424.864)" fill="black"/>
<rect width="0.609014" height="468.135" rx="0.304507" transform="matrix(0.983224 0.182402 -0.184463 0.982839 219.998 428.673)" fill="black"/>
<rect width="0.609014" height="468.135" rx="0.304507" transform="matrix(0.983224 0.182402 -0.184463 0.982839 202.89 425.499)" fill="black"/>
<rect width="0.609014" height="468.135" rx="0.304507" transform="matrix(0.983224 0.182402 -0.184463 0.982839 223.419 429.308)" fill="black"/>
<rect width="0.609014" height="468.135" rx="0.304507" transform="matrix(0.983224 0.182402 -0.184463 0.982839 206.311 426.134)" fill="black"/>
<rect width="0.609014" height="468.135" rx="0.304507" transform="matrix(0.983224 0.182402 -0.184463 0.982839 226.842 429.942)" fill="black"/>
<rect width="0.609014" height="468.135" rx="0.304507" transform="matrix(0.983224 0.182402 -0.184463 0.982839 209.734 426.769)" fill="black"/>
<rect width="0.609014" height="468.135" rx="0.304507" transform="matrix(0.983224 0.182402 -0.184463 0.982839 230.264 430.577)" fill="black"/>
<rect width="0.609014" height="468.135" rx="0.304507" transform="matrix(0.983224 0.182402 -0.184463 0.982839 213.155 427.403)" fill="black"/>
<rect width="0.609014" height="468.135" rx="0.304507" transform="matrix(0.983224 0.182402 -0.184463 0.982839 233.685 431.211)" fill="black"/>
<rect width="0.609014" height="468.135" rx="0.304507" transform="matrix(0.983224 0.182402 -0.184463 0.982839 216.577 428.038)" fill="black"/>
<rect width="0.609014" height="468.135" rx="0.304507" transform="matrix(0.983224 0.182402 -0.184463 0.982839 237.106 431.847)" fill="black"/>
<rect width="0.609014" height="468.135" rx="0.304507" transform="matrix(0.983224 0.182402 -0.184463 0.982839 240.529 432.481)" fill="black"/>
<rect width="0.609014" height="468.135" rx="0.304507" transform="matrix(0.983224 0.182402 -0.184463 0.982839 261.059 436.29)" fill="black"/>
<rect width="0.609014" height="468.135" rx="0.304507" transform="matrix(0.983224 0.182402 -0.184463 0.982839 243.95 433.116)" fill="black"/>
<rect width="0.609014" height="468.135" rx="0.304507" transform="matrix(0.983224 0.182402 -0.184463 0.982839 264.48 436.925)" fill="black"/>
<rect width="0.609014" height="468.135" rx="0.304507" transform="matrix(0.983224 0.182402 -0.184463 0.982839 247.372 433.751)" fill="black"/>
<rect width="0.609014" height="468.135" rx="0.304507" transform="matrix(0.983224 0.182402 -0.184463 0.982839 267.901 437.56)" fill="black"/>
<rect width="0.609014" height="468.135" rx="0.304507" transform="matrix(0.983224 0.182402 -0.184463 0.982839 250.793 434.386)" fill="black"/>
<rect width="0.609014" height="468.135" rx="0.304507" transform="matrix(0.983224 0.182402 -0.184463 0.982839 271.324 438.194)" fill="black"/>
<rect width="0.609014" height="468.135" rx="0.304507" transform="matrix(0.983224 0.182402 -0.184463 0.982839 254.214 435.021)" fill="black"/>
<rect width="0.609014" height="468.135" rx="0.304507" transform="matrix(0.983224 0.182402 -0.184463 0.982839 274.746 438.829)" fill="black"/>
<rect width="0.609014" height="468.135" rx="0.304507" transform="matrix(0.983224 0.182402 -0.184463 0.982839 257.638 435.654)" fill="black"/>
<rect width="0.609014" height="468.135" rx="0.304507" transform="matrix(0.983224 0.182402 -0.184463 0.982839 278.167 439.464)" fill="black"/>
<rect width="0.609014" height="468.135" rx="0.304507" transform="matrix(0.983224 0.182402 -0.184463 0.982839 281.588 440.099)" fill="black"/>
<rect width="0.609014" height="468.135" rx="0.304507" transform="matrix(0.983224 0.182402 -0.184463 0.982839 302.119 443.907)" fill="black"/>
<rect width="0.609014" height="468.135" rx="0.304507" transform="matrix(0.983224 0.182402 -0.184463 0.982839 285.01 440.733)" fill="black"/>
<rect width="0.609014" height="468.135" rx="0.304507" transform="matrix(0.983224 0.182402 -0.184463 0.982839 305.541 444.542)" fill="black"/>
<rect width="0.609014" height="468.135" rx="0.304507" transform="matrix(0.983224 0.182402 -0.184463 0.982839 288.433 441.368)" fill="black"/>
<rect width="0.609014" height="468.135" rx="0.304507" transform="matrix(0.983224 0.182402 -0.184463 0.982839 308.963 445.177)" fill="black"/>
<rect width="0.609014" height="468.135" rx="0.304507" transform="matrix(0.983224 0.182402 -0.184463 0.982839 291.854 442.004)" fill="black"/>
<rect width="0.609014" height="468.135" rx="0.304507" transform="matrix(0.983224 0.182402 -0.184463 0.982839 312.384 445.812)" fill="black"/>
<rect width="0.609014" height="468.135" rx="0.304507" transform="matrix(0.983224 0.182402 -0.184463 0.982839 295.275 442.638)" fill="black"/>
<rect width="0.609014" height="468.135" rx="0.304507" transform="matrix(0.983224 0.182402 -0.184463 0.982839 315.805 446.447)" fill="black"/>
<rect width="0.609014" height="468.135" rx="0.304507" transform="matrix(0.983224 0.182402 -0.184463 0.982839 298.697 443.272)" fill="black"/>
<rect width="0.609014" height="468.135" rx="0.304507" transform="matrix(0.983224 0.182402 -0.184463 0.982839 319.229 447.081)" fill="black"/>
</g>
</g>
</svg>
