<svg width="61" height="203" viewBox="0 0 61 203" fill="none" xmlns="http://www.w3.org/2000/svg">
<g style="mix-blend-mode:overlay">
<mask id="path-1-inside-1_187_3825" fill="white">
<path fill-rule="evenodd" clip-rule="evenodd" d="M132.324 75.3519C132.324 75.3519 132.324 75.3519 132.324 75.3519L132.324 134.654C122.957 134.654 113.682 136.448 105.028 139.933C96.3743 143.418 88.5113 148.526 81.888 154.965C75.2646 161.405 70.0107 169.049 66.4262 177.463C62.8417 185.876 60.9968 194.893 60.9968 204L3.05176e-05 204C3.19945e-05 187.106 3.42269 170.377 10.0726 154.769C16.7225 139.16 26.4694 124.978 38.7568 113.032C42.6162 109.28 46.7025 105.771 50.9899 102.523C47.6401 99.7117 44.4241 96.7232 41.3556 93.5671C29.4096 81.2797 19.9334 66.6924 13.4682 50.6382C7.00307 34.5839 3.67549 17.3771 3.67549 9.55647e-05L62.9779 0.000100749C62.9779 9.36689 64.7716 18.642 68.2565 27.2957C71.7415 35.9495 76.8494 43.8125 83.2888 50.4359C89.7281 57.0592 97.3727 62.3131 105.786 65.8976C114.2 69.4821 123.217 71.3271 132.324 71.3271L132.324 75.3519Z"/>
</mask>
<path fill-rule="evenodd" clip-rule="evenodd" d="M132.324 75.3519C132.324 75.3519 132.324 75.3519 132.324 75.3519L132.324 134.654C122.957 134.654 113.682 136.448 105.028 139.933C96.3743 143.418 88.5113 148.526 81.888 154.965C75.2646 161.405 70.0107 169.049 66.4262 177.463C62.8417 185.876 60.9968 194.893 60.9968 204L3.05176e-05 204C3.19945e-05 187.106 3.42269 170.377 10.0726 154.769C16.7225 139.16 26.4694 124.978 38.7568 113.032C42.6162 109.28 46.7025 105.771 50.9899 102.523C47.6401 99.7117 44.4241 96.7232 41.3556 93.5671C29.4096 81.2797 19.9334 66.6924 13.4682 50.6382C7.00307 34.5839 3.67549 17.3771 3.67549 9.55647e-05L62.9779 0.000100749C62.9779 9.36689 64.7716 18.642 68.2565 27.2957C71.7415 35.9495 76.8494 43.8125 83.2888 50.4359C89.7281 57.0592 97.3727 62.3131 105.786 65.8976C114.2 69.4821 123.217 71.3271 132.324 71.3271L132.324 75.3519Z" fill="#FF6B2C" fill-opacity="0.98"/>
<path d="M132.324 75.3519L133.324 75.3519L133.324 74.3519L132.324 74.3519L132.324 75.3519ZM132.324 75.3519L131.324 75.3519L131.324 76.3519L132.324 76.3519L132.324 75.3519ZM132.324 134.654L132.324 135.654L133.324 135.654L133.324 134.654L132.324 134.654ZM105.028 139.933L105.402 140.861L105.028 139.933ZM81.888 154.965L81.1909 154.248L81.888 154.965ZM66.4262 177.463L67.3462 177.855L67.3462 177.855L66.4262 177.463ZM60.9968 204L60.9968 205L61.9968 205L61.9968 204L60.9968 204ZM3.05176e-05 204L-0.999969 204L-0.99997 205L3.04302e-05 205L3.05176e-05 204ZM38.7568 113.032L38.0597 112.315L38.7568 113.032ZM50.9899 102.523L51.5938 103.32L52.5931 102.563L51.6328 101.757L50.9899 102.523ZM41.3556 93.5671L40.6386 94.2642L41.3556 93.5671ZM3.67549 9.55647e-05L3.67549 -0.999904L2.67549 -0.999905L2.67549 9.54773e-05L3.67549 9.55647e-05ZM62.9779 0.000100749L63.9779 0.000100837L63.9779 -0.999899L62.9779 -0.999899L62.9779 0.000100749ZM68.2565 27.2957L69.1841 26.9222L68.2565 27.2957ZM83.2888 50.4359L84.0058 49.7388L83.2888 50.4359ZM105.786 65.8976L106.178 64.9776L106.178 64.9776L105.786 65.8976ZM132.324 71.3271L133.324 71.3271L133.324 70.3271L132.324 70.3271L132.324 71.3271ZM132.324 74.3519C132.324 74.3519 132.324 74.3519 132.324 74.3519C132.324 74.3519 132.324 74.3519 132.324 74.3519C132.324 74.3519 132.324 74.3519 132.324 74.3519C132.324 74.3519 132.324 74.3519 132.324 74.3519C132.324 74.3519 132.324 74.3519 132.324 74.3519C132.324 74.3519 132.324 74.3519 132.324 74.3519C132.324 74.3519 132.324 74.3519 132.324 74.3519C132.324 74.3519 132.324 74.3519 132.324 74.3519C132.324 74.3519 132.324 74.3519 132.324 74.3519C132.324 74.3519 132.324 74.3519 132.324 74.3519C132.324 74.3519 132.324 74.3519 132.324 74.3519C132.324 74.3519 132.324 74.3519 132.324 74.3519C132.324 74.3519 132.324 74.3519 132.324 74.3519C132.324 74.3519 132.324 74.3519 132.324 74.3519C132.324 74.3519 132.324 74.3519 132.324 74.3519C132.324 74.3519 132.324 74.3519 132.324 74.3519C132.324 74.3519 132.324 74.3519 132.324 74.3519C132.324 74.3519 132.324 74.3519 132.324 74.3519C132.324 74.3519 132.324 74.3519 132.324 74.3519C132.324 74.3519 132.324 74.3519 132.324 74.3519C132.324 74.3519 132.324 74.3519 132.324 74.3519C132.324 74.3519 132.324 74.3519 132.324 74.3519C132.324 74.3519 132.324 74.3519 132.324 74.3519C132.324 74.3519 132.324 74.3519 132.324 74.3519C132.324 74.3519 132.324 74.3519 132.324 74.3519C132.324 74.3519 132.324 74.3519 132.324 74.3519C132.324 74.3519 132.324 74.3519 132.324 74.3519C132.324 74.3519 132.324 74.3519 132.324 74.3519C132.324 74.3519 132.324 74.3519 132.324 74.3519C132.324 74.3519 132.324 74.3519 132.324 74.3519C132.324 74.3519 132.324 74.3519 132.324 74.3519C132.324 74.3519 132.324 74.3519 132.324 74.3519C132.324 74.3519 132.324 74.3519 132.324 74.3519C132.324 74.3519 132.324 74.3519 132.324 74.3519C132.324 74.3519 132.324 74.3519 132.324 74.3519C132.324 74.3519 132.324 74.3519 132.324 74.3519C132.324 74.3519 132.324 74.3519 132.324 74.3519C132.324 74.3519 132.324 74.3519 132.324 74.3519C132.324 74.3519 132.324 74.3519 132.324 74.3519C132.324 74.3519 132.324 74.3519 132.324 74.3519C132.324 74.3519 132.324 74.3519 132.324 74.3519C132.324 74.3519 132.324 74.3519 132.324 74.3519C132.324 74.3519 132.324 74.3519 132.324 74.3519C132.324 74.3519 132.324 74.3519 132.324 74.3519C132.324 74.3519 132.324 74.3519 132.324 74.3519C132.324 74.3519 132.324 74.3519 132.324 74.3519C132.324 74.3519 132.324 74.3519 132.324 74.3519C132.324 74.3519 132.324 74.3519 132.324 74.3519C132.324 74.3519 132.324 74.3519 132.324 74.3519C132.324 74.3519 132.324 74.3519 132.324 74.3519C132.324 74.3519 132.324 74.3519 132.324 74.3519C132.324 74.3519 132.324 74.3519 132.324 74.3519C132.324 74.3519 132.324 74.3519 132.324 74.3519C132.324 74.3519 132.324 74.3519 132.324 74.3519C132.324 74.3519 132.324 74.3519 132.324 74.3519C132.324 74.3519 132.324 74.3519 132.324 74.3519C132.324 74.3519 132.324 74.3519 132.324 74.3519C132.324 74.3519 132.324 74.3519 132.324 74.3519C132.324 74.3519 132.324 74.3519 132.324 74.3519C132.324 74.3519 132.324 74.3519 132.324 74.3519C132.324 74.3519 132.324 74.3519 132.324 74.3519C132.324 74.3519 132.324 74.3519 132.324 74.3519C132.324 74.3519 132.324 74.3519 132.324 74.3519C132.324 74.3519 132.324 74.3519 132.324 74.3519C132.324 74.3519 132.324 74.3519 132.324 74.3519C132.324 74.3519 132.324 74.3519 132.324 74.3519C132.324 74.3519 132.324 74.3519 132.324 74.3519C132.324 74.3519 132.324 74.3519 132.324 74.3519C132.324 74.3519 132.324 74.3519 132.324 74.3519C132.324 74.3519 132.324 74.3519 132.324 74.3519C132.324 74.3519 132.324 74.3519 132.324 74.3519C132.324 74.3519 132.324 74.3519 132.324 74.3519C132.324 74.3519 132.324 74.3519 132.324 74.3519C132.324 74.3519 132.324 74.3519 132.324 74.3519C132.324 74.3519 132.324 74.3519 132.324 74.3519C132.324 74.3519 132.324 74.3519 132.324 74.3519C132.324 74.3519 132.324 74.3519 132.324 74.3519C132.324 74.3519 132.324 74.3519 132.324 74.3519C132.324 74.3519 132.324 74.3519 132.324 74.3519C132.324 74.3519 132.324 74.3519 132.324 74.3519C132.324 74.3519 132.324 74.3519 132.324 74.3519C132.324 74.3519 132.324 74.3519 132.324 74.3519C132.324 74.3519 132.324 74.3519 132.324 74.3519C132.324 74.3519 132.324 74.3519 132.324 74.3519C132.324 74.3519 132.324 74.3519 132.324 74.3519C132.324 74.3519 132.324 74.3519 132.324 74.3519C132.324 74.3519 132.324 74.3519 132.324 74.3519C132.324 74.3519 132.324 74.3519 132.324 74.3519C132.324 74.3519 132.324 74.3519 132.324 74.3519C132.324 74.3519 132.324 74.3519 132.324 74.3519C132.324 74.3519 132.324 74.3519 132.324 74.3519C132.324 74.3519 132.324 74.3519 132.324 74.3519C132.324 74.3519 132.324 74.3519 132.324 74.3519C132.324 74.3519 132.324 74.3519 132.324 74.3519C132.324 74.3519 132.324 74.3519 132.324 74.3519C132.324 74.3519 132.324 74.3519 132.324 74.3519C132.324 74.3519 132.324 74.3519 132.324 74.3519C132.324 74.3519 132.324 74.3519 132.324 74.3519C132.324 74.3519 132.324 74.3519 132.324 74.3519C132.324 74.3519 132.324 74.3519 132.324 74.3519C132.324 74.3519 132.324 74.3519 132.324 74.3519C132.324 74.3519 132.324 74.3519 132.324 74.3519C132.324 74.3519 132.324 74.3519 132.324 74.3519C132.324 74.3519 132.324 74.3519 132.324 74.3519C132.324 74.3519 132.324 74.3519 132.324 74.3519C132.324 74.3519 132.324 74.3519 132.324 74.3519C132.324 74.3519 132.324 74.3519 132.324 74.3519C132.324 74.3519 132.324 74.3519 132.324 74.3519C132.324 74.3519 132.324 74.3519 132.324 74.3519C132.324 74.3519 132.324 74.3519 132.324 74.3519C132.324 74.3519 132.324 74.3519 132.324 74.3519C132.324 74.3519 132.324 74.3519 132.324 74.3519C132.324 74.3519 132.324 74.3519 132.324 74.3519C132.324 74.3519 132.324 74.3519 132.324 74.3519C132.324 74.3519 132.324 74.3519 132.324 74.3519C132.324 74.3519 132.324 74.3519 132.324 74.3519C132.324 74.3519 132.324 74.3519 132.324 74.3519C132.324 74.3519 132.324 74.3519 132.324 74.3519C132.324 74.3519 132.324 74.3519 132.324 74.3519C132.324 74.3519 132.324 74.3519 132.324 74.3519C132.324 74.3519 132.324 74.3519 132.324 74.3519C132.324 74.3519 132.324 74.3519 132.324 74.3519C132.324 74.3519 132.324 74.3519 132.324 74.3519C132.324 74.3519 132.324 74.3519 132.324 74.3519C132.324 74.3519 132.324 74.3519 132.324 74.3519C132.324 74.3519 132.324 74.3519 132.324 74.3519C132.324 74.3519 132.324 74.3519 132.324 74.3519C132.324 74.3519 132.324 74.3519 132.324 74.3519C132.324 74.3519 132.324 74.3519 132.324 74.3519C132.324 74.3519 132.324 74.3519 132.324 74.3519C132.324 74.3519 132.324 74.3519 132.324 74.3519C132.324 74.3519 132.324 74.3519 132.324 74.3519C132.324 74.3519 132.324 74.3519 132.324 74.3519C132.324 74.3519 132.324 74.3519 132.324 74.3519C132.324 74.3519 132.324 74.3519 132.324 74.3519C132.324 74.3519 132.324 74.3519 132.324 74.3519C132.324 74.3519 132.324 74.3519 132.324 74.3519C132.324 74.3519 132.324 74.3519 132.324 74.3519C132.324 74.3519 132.324 74.3519 132.324 74.3519C132.324 74.3519 132.324 74.3519 132.324 74.3519C132.324 74.3519 132.324 74.3519 132.324 74.3519C132.324 74.3519 132.324 74.3519 132.324 74.3519C132.324 74.3519 132.324 74.3519 132.324 74.3519C132.324 74.3519 132.324 74.3519 132.324 74.3519C132.324 74.3519 132.324 74.3519 132.324 74.3519C132.324 74.3519 132.324 74.3519 132.324 74.3519C132.324 74.3519 132.324 74.3519 132.324 74.3519C132.324 74.3519 132.324 74.3519 132.324 74.3519C132.324 74.3519 132.324 74.3519 132.324 74.3519C132.324 74.3519 132.324 74.3519 132.324 74.3519C132.324 74.3519 132.324 74.3519 132.324 74.3519C132.324 74.3519 132.324 74.3519 132.324 74.3519C132.324 74.3519 132.324 74.3519 132.324 74.3519C132.324 74.3519 132.324 74.3519 132.324 74.3519C132.324 74.3519 132.324 74.3519 132.324 74.3519C132.324 74.3519 132.324 74.3519 132.324 74.3519C132.324 74.3519 132.324 74.3519 132.324 74.3519C132.324 74.3519 132.324 74.3519 132.324 74.3519C132.324 74.3519 132.324 74.3519 132.324 74.3519C132.324 74.3519 132.324 74.3519 132.324 74.3519C132.324 74.3519 132.324 74.3519 132.324 74.3519C132.324 74.3519 132.324 74.3519 132.324 74.3519C132.324 74.3519 132.324 74.3519 132.324 74.3519C132.324 74.3519 132.324 74.3519 132.324 74.3519C132.324 74.3519 132.324 74.3519 132.324 74.3519C132.324 74.3519 132.324 74.3519 132.324 74.3519C132.324 74.3519 132.324 74.3519 132.324 74.3519C132.324 74.3519 132.324 74.3519 132.324 74.3519C132.324 74.3519 132.324 74.3519 132.324 74.3519C132.324 74.3519 132.324 74.3519 132.324 74.3519C132.324 74.3519 132.324 74.3519 132.324 74.3519C132.324 74.3519 132.324 74.3519 132.324 74.3519C132.324 74.3519 132.324 74.3519 132.324 74.3519C132.324 74.3519 132.324 74.3519 132.324 74.3519C132.324 74.3519 132.324 74.3519 132.324 74.3519C132.324 74.3519 132.324 74.3519 132.324 74.3519C132.324 74.3519 132.324 74.3519 132.324 74.3519C132.324 74.3519 132.324 74.3519 132.324 74.3519C132.324 74.3519 132.324 74.3519 132.324 74.3519C132.324 74.3519 132.324 74.3519 132.324 74.3519C132.324 74.3519 132.324 74.3519 132.324 74.3519C132.324 74.3519 132.324 74.3519 132.324 74.3519C132.324 74.3519 132.324 74.3519 132.324 74.3519C132.324 74.3519 132.324 74.3519 132.324 74.3519C132.324 74.3519 132.324 74.3519 132.324 74.3519C132.324 74.3519 132.324 74.3519 132.324 74.3519C132.324 74.3519 132.324 74.3519 132.324 74.3519C132.324 74.3519 132.324 74.3519 132.324 74.3519C132.324 74.3519 132.324 74.3519 132.324 74.3519C132.324 74.3519 132.324 74.3519 132.324 74.3519C132.324 74.3519 132.324 74.3519 132.324 74.3519C132.324 74.3519 132.324 74.3519 132.324 74.3519C132.324 74.3519 132.324 74.3519 132.324 74.3519C132.324 74.3519 132.324 74.3519 132.324 74.3519C132.324 74.3519 132.324 74.3519 132.324 74.3519C132.324 74.3519 132.324 74.3519 132.324 74.3519C132.324 74.3519 132.324 74.3519 132.324 74.3519C132.324 74.3519 132.324 74.3519 132.324 74.3519C132.324 74.3519 132.324 74.3519 132.324 74.3519C132.324 74.3519 132.324 74.3519 132.324 74.3519C132.324 74.3519 132.324 74.3519 132.324 74.3519C132.324 74.3519 132.324 74.3519 132.324 74.3519C132.324 74.3519 132.324 74.3519 132.324 74.3519C132.324 74.3519 132.324 74.3519 132.324 74.3519C132.324 74.3519 132.324 74.3519 132.324 74.3519C132.324 74.3519 132.324 74.3519 132.324 74.3519C132.324 74.3519 132.324 74.3519 132.324 74.3519C132.324 74.3519 132.324 74.3519 132.324 74.3519C132.324 74.3519 132.324 74.3519 132.324 74.3519C132.324 74.3519 132.324 74.3519 132.324 74.3519C132.324 74.3519 132.324 74.3519 132.324 74.3519C132.324 74.3519 132.324 74.3519 132.324 74.3519C132.324 74.3519 132.324 74.3519 132.324 74.3519C132.324 74.3519 132.324 74.3519 132.324 74.3519C132.324 74.3519 132.324 74.3519 132.324 74.3519C132.324 74.3519 132.324 74.3519 132.324 74.3519C132.324 74.3519 132.324 74.3519 132.324 74.3519C132.324 74.3519 132.324 74.3519 132.324 74.3519C132.324 74.3519 132.324 74.3519 132.324 74.3519C132.324 74.3519 132.324 74.3519 132.324 74.3519C132.324 74.3519 132.324 74.3519 132.324 74.3519C132.324 74.3519 132.324 74.3519 132.324 74.3519C132.324 74.3519 132.324 74.3519 132.324 74.3519C132.324 74.3519 132.324 74.3519 132.324 74.3519C132.324 74.3519 132.324 74.3519 132.324 74.3519C132.324 74.3519 132.324 74.3519 132.324 74.3519C132.324 74.3519 132.324 74.3519 132.324 74.3519C132.324 74.3519 132.324 74.3519 132.324 74.3519C132.324 74.3519 132.324 74.3519 132.324 74.3519C132.324 74.3519 132.324 74.3519 132.324 74.3519C132.324 74.3519 132.324 74.3519 132.324 74.3519C132.324 74.3519 132.324 74.3519 132.324 74.3519C132.324 74.3519 132.324 74.3519 132.324 74.3519C132.324 74.3519 132.324 74.3519 132.324 74.3519C132.324 74.3519 132.324 74.3519 132.324 74.3519C132.324 74.3519 132.324 74.3519 132.324 74.3519C132.324 74.3519 132.324 74.3519 132.324 74.3519C132.324 74.3519 132.324 74.3519 132.324 74.3519C132.324 74.3519 132.324 74.3519 132.324 74.3519C132.324 74.3519 132.324 74.3519 132.324 74.3519C132.324 74.3519 132.324 74.3519 132.324 74.3519C132.324 74.3519 132.324 74.3519 132.324 74.3519C132.324 74.3519 132.324 74.3519 132.324 74.3519C132.324 74.3519 132.324 74.3519 132.324 74.3519C132.324 74.3519 132.324 74.3519 132.324 74.3519C132.324 74.3519 132.324 74.3519 132.324 74.3519C132.324 74.3519 132.324 74.3519 132.324 74.3519C132.324 74.3519 132.324 74.3519 132.324 74.3519C132.324 74.3519 132.324 74.3519 132.324 74.3519C132.324 74.3519 132.324 74.3519 132.324 74.3519C132.324 74.3519 132.324 74.3519 132.324 74.3519C132.324 74.3519 132.324 74.3519 132.324 74.3519C132.324 74.3519 132.324 74.3519 132.324 74.3519C132.324 74.3519 132.324 74.3519 132.324 74.3519C132.324 74.3519 132.324 74.3519 132.324 74.3519C132.324 74.3519 132.324 74.3519 132.324 74.3519C132.324 74.3519 132.324 74.3519 132.324 74.3519C132.324 74.3519 132.324 74.3519 132.324 74.3519C132.324 74.3519 132.324 74.3519 132.324 74.3519C132.324 74.3519 132.324 74.3519 132.324 74.3519C132.324 74.3519 132.324 74.3519 132.324 74.3519C132.324 74.3519 132.324 74.3519 132.324 74.3519C132.324 74.3519 132.324 74.3519 132.324 74.3519C132.324 74.3519 132.324 74.3519 132.324 74.3519C132.324 74.3519 132.324 74.3519 132.324 74.3519C132.324 74.3519 132.324 74.3519 132.324 74.3519C132.324 74.3519 132.324 74.3519 132.324 74.3519C132.324 74.3519 132.324 74.3519 132.324 74.3519C132.324 74.3519 132.324 74.3519 132.324 74.3519C132.324 74.3519 132.324 74.3519 132.324 74.3519C132.324 74.3519 132.324 74.3519 132.324 74.3519C132.324 74.3519 132.324 74.3519 132.324 74.3519C132.324 74.3519 132.324 74.3519 132.324 74.3519C132.324 74.3519 132.324 74.3519 132.324 74.3519C132.324 74.3519 132.324 74.3519 132.324 74.3519C132.324 74.3519 132.324 74.3519 132.324 74.3519C132.324 74.3519 132.324 74.3519 132.324 74.3519C132.324 74.3519 132.324 74.3519 132.324 74.3519C132.324 74.3519 132.324 74.3519 132.324 74.3519C132.324 74.3519 132.324 74.3519 132.324 74.3519C132.324 74.3519 132.324 74.3519 132.324 74.3519C132.324 74.3519 132.324 74.3519 132.324 74.3519C132.324 74.3519 132.324 74.3519 132.324 74.3519C132.324 74.3519 132.324 74.3519 132.324 74.3519C132.324 74.3519 132.324 74.3519 132.324 74.3519C132.324 74.3519 132.324 74.3519 132.324 74.3519C132.324 74.3519 132.324 74.3519 132.324 74.3519C132.324 74.3519 132.324 74.3519 132.324 74.3519C132.324 74.3519 132.324 74.3519 132.324 74.3519C132.324 74.3519 132.324 74.3519 132.324 74.3519C132.324 74.3519 132.324 74.3519 132.324 74.3519C132.324 74.3519 132.324 74.3519 132.324 74.3519C132.324 74.3519 132.324 74.3519 132.324 74.3519C132.324 74.3519 132.324 74.3519 132.324 74.3519C132.324 74.3519 132.324 74.3519 132.324 74.3519C132.324 74.3519 132.324 74.3519 132.324 74.3519C132.324 74.3519 132.324 74.3519 132.324 74.3519C132.324 74.3519 132.324 74.3519 132.324 74.3519C132.324 74.3519 132.324 74.3519 132.324 74.3519C132.324 74.3519 132.324 74.3519 132.324 74.3519C132.324 74.3519 132.324 74.3519 132.324 74.3519C132.324 74.3519 132.324 74.3519 132.324 74.3519C132.324 74.3519 132.324 74.3519 132.324 74.3519C132.324 74.3519 132.324 74.3519 132.324 74.3519C132.324 74.3519 132.324 74.3519 132.324 74.3519C132.324 74.3519 132.324 74.3519 132.324 74.3519C132.324 74.3519 132.324 74.3519 132.324 74.3519C132.324 74.3519 132.324 74.3519 132.324 74.3519C132.324 74.3519 132.324 74.3519 132.324 74.3519C132.324 74.3519 132.324 74.3519 132.324 74.3519C132.324 74.3519 132.324 74.3519 132.324 74.3519C132.324 74.3519 132.324 74.3519 132.324 74.3519C132.324 74.3519 132.324 74.3519 132.324 74.3519C132.324 74.3519 132.324 74.3519 132.324 74.3519C132.324 74.3519 132.324 74.3519 132.324 74.3519C132.324 74.3519 132.324 74.3519 132.324 74.3519C132.324 74.3519 132.324 74.3519 132.324 74.3519C132.324 74.3519 132.324 74.3519 132.324 74.3519C132.324 74.3519 132.324 74.3519 132.324 74.3519C132.324 74.3519 132.324 74.3519 132.324 74.3519C132.324 74.3519 132.324 74.3519 132.324 74.3519C132.324 74.3519 132.324 74.3519 132.324 74.3519C132.324 74.3519 132.324 74.3519 132.324 74.3519C132.324 74.3519 132.324 74.3519 132.324 74.3519C132.324 74.3519 132.324 74.3519 132.324 74.3519C132.324 74.3519 132.324 74.3519 132.324 74.3519C132.324 74.3519 132.324 74.3519 132.324 74.3519C132.324 74.3519 132.324 74.3519 132.324 74.3519C132.324 74.3519 132.324 74.3519 132.324 74.3519C132.324 74.3519 132.324 74.3519 132.324 74.3519C132.324 74.3519 132.324 74.3519 132.324 74.3519C132.324 74.3519 132.324 74.3519 132.324 74.3519C132.324 74.3519 132.324 74.3519 132.324 74.3519C132.324 74.3519 132.324 74.3519 132.324 74.3519C132.324 74.3519 132.324 74.3519 132.324 74.3519C132.324 74.3519 132.324 74.3519 132.324 74.3519C132.324 74.3519 132.324 74.3519 132.324 74.3519C132.324 74.3519 132.324 74.3519 132.324 74.3519C132.324 74.3519 132.324 74.3519 132.324 74.3519C132.324 74.3519 132.324 74.3519 132.324 74.3519C132.324 74.3519 132.324 74.3519 132.324 74.3519C132.324 74.3519 132.324 74.3519 132.324 74.3519C132.324 74.3519 132.324 74.3519 132.324 74.3519C132.324 74.3519 132.324 74.3519 132.324 74.3519C132.324 74.3519 132.324 74.3519 132.324 74.3519C132.324 74.3519 132.324 74.3519 132.324 74.3519C132.324 74.3519 132.324 74.3519 132.324 74.3519C132.324 74.3519 132.324 74.3519 132.324 74.3519C132.324 74.3519 132.324 74.3519 132.324 74.3519C132.324 74.3519 132.324 74.3519 132.324 74.3519C132.324 74.3519 132.324 74.3519 132.324 74.3519C132.324 74.3519 132.324 74.3519 132.324 74.3519C132.324 74.3519 132.324 74.3519 132.324 74.3519C132.324 74.3519 132.324 74.3519 132.324 74.3519C132.324 74.3519 132.324 74.3519 132.324 74.3519C132.324 74.3519 132.324 74.3519 132.324 74.3519C132.324 74.3519 132.324 74.3519 132.324 74.3519C132.324 74.3519 132.324 74.3519 132.324 74.3519C132.324 74.3519 132.324 74.3519 132.324 74.3519C132.324 74.3519 132.324 74.3519 132.324 74.3519C132.324 74.3519 132.324 74.3519 132.324 74.3519C132.324 74.3519 132.324 74.3519 132.324 74.3519C132.324 74.3519 132.324 74.3519 132.324 74.3519C132.324 74.3519 132.324 74.3519 132.324 74.3519C132.324 74.3519 132.324 74.3519 132.324 74.3519C132.324 74.3519 132.324 74.3519 132.324 74.3519C132.324 74.3519 132.324 74.3519 132.324 74.3519C132.324 74.3519 132.324 74.3519 132.324 74.3519C132.324 74.3519 132.324 74.3519 132.324 74.3519C132.324 74.3519 132.324 74.3519 132.324 74.3519C132.324 74.3519 132.324 74.3519 132.324 74.3519C132.324 74.3519 132.324 74.3519 132.324 74.3519C132.324 74.3519 132.324 74.3519 132.324 74.3519C132.324 74.3519 132.324 74.3519 132.324 74.3519C132.324 74.3519 132.324 74.3519 132.324 74.3519C132.324 74.3519 132.324 74.3519 132.324 74.3519C132.324 74.3519 132.324 74.3519 132.324 74.3519C132.324 74.3519 132.324 74.3519 132.324 74.3519C132.324 74.3519 132.324 74.3519 132.324 74.3519C132.324 74.3519 132.324 74.3519 132.324 74.3519C132.324 74.3519 132.324 74.3519 132.324 74.3519C132.324 74.3519 132.324 74.3519 132.324 74.3519C132.324 74.3519 132.324 74.3519 132.324 74.3519C132.324 74.3519 132.324 74.3519 132.324 74.3519C132.324 74.3519 132.324 74.3519 132.324 74.3519C132.324 74.3519 132.324 74.3519 132.324 74.3519C132.324 74.3519 132.324 74.3519 132.324 74.3519C132.324 74.3519 132.324 74.3519 132.324 74.3519C132.324 74.3519 132.324 74.3519 132.324 74.3519C132.324 74.3519 132.324 74.3519 132.324 74.3519C132.324 74.3519 132.324 74.3519 132.324 74.3519C132.324 74.3519 132.324 74.3519 132.324 74.3519C132.324 74.3519 132.324 74.3519 132.324 74.3519C132.324 74.3519 132.324 74.3519 132.324 74.3519C132.324 74.3519 132.324 74.3519 132.324 74.3519C132.324 74.3519 132.324 74.3519 132.324 74.3519C132.324 74.3519 132.324 74.3519 132.324 74.3519C132.324 74.3519 132.324 74.3519 132.324 74.3519C132.324 74.3519 132.324 74.3519 132.324 74.3519C132.324 74.3519 132.324 74.3519 132.324 74.3519C132.324 74.3519 132.324 74.3519 132.324 74.3519C132.324 74.3519 132.324 74.3519 132.324 74.3519C132.324 74.3519 132.324 74.3519 132.324 74.3519C132.324 74.3519 132.324 74.3519 132.324 74.3519C132.324 74.3519 132.324 74.3519 132.324 74.3519C132.324 74.3519 132.324 74.3519 132.324 74.3519C132.324 74.3519 132.324 74.3519 132.324 74.3519C132.324 74.3519 132.324 74.3519 132.324 74.3519C132.324 74.3519 132.324 74.3519 132.324 74.3519C132.324 74.3519 132.324 74.3519 132.324 74.3519C132.324 74.3519 132.324 74.3519 132.324 74.3519C132.324 74.3519 132.324 74.3519 132.324 74.3519C132.324 74.3519 132.324 74.3519 132.324 74.3519C132.324 74.3519 132.324 74.3519 132.324 74.3519C132.324 74.3519 132.324 74.3519 132.324 74.3519C132.324 74.3519 132.324 74.3519 132.324 74.3519C132.324 74.3519 132.324 74.3519 132.324 74.3519C132.324 74.3519 132.324 74.3519 132.324 74.3519C132.324 74.3519 132.324 74.3519 132.324 74.3519C132.324 74.3519 132.324 74.3519 132.324 74.3519C132.324 74.3519 132.324 74.3519 132.324 74.3519C132.324 74.3519 132.324 74.3519 132.324 74.3519C132.324 74.3519 132.324 74.3519 132.324 74.3519C132.324 74.3519 132.324 74.3519 132.324 74.3519C132.324 74.3519 132.324 74.3519 132.324 74.3519C132.324 74.3519 132.324 74.3519 132.324 74.3519C132.324 74.3519 132.324 74.3519 132.324 74.3519C132.324 74.3519 132.324 74.3519 132.324 74.3519C132.324 74.3519 132.324 74.3519 132.324 74.3519C132.324 74.3519 132.324 74.3519 132.324 74.3519C132.324 74.3519 132.324 74.3519 132.324 74.3519C132.324 74.3519 132.324 74.3519 132.324 74.3519C132.324 74.3519 132.324 74.3519 132.324 74.3519C132.324 74.3519 132.324 74.3519 132.324 74.3519C132.324 74.3519 132.324 74.3519 132.324 74.3519C132.324 74.3519 132.324 74.3519 132.324 74.3519C132.324 74.3519 132.324 74.3519 132.324 74.3519C132.324 74.3519 132.324 74.3519 132.324 74.3519C132.324 74.3519 132.324 74.3519 132.324 74.3519C132.324 74.3519 132.324 74.3519 132.324 74.3519C132.324 74.3519 132.324 74.3519 132.324 74.3519C132.324 74.3519 132.324 74.3519 132.324 74.3519C132.324 74.3519 132.324 74.3519 132.324 74.3519C132.324 74.3519 132.324 74.3519 132.324 74.3519C132.324 74.3519 132.324 74.3519 132.324 74.3519C132.324 74.3519 132.324 74.3519 132.324 74.3519C132.324 74.3519 132.324 74.3519 132.324 74.3519C132.324 74.3519 132.324 74.3519 132.324 74.3519C132.324 74.3519 132.324 74.3519 132.324 74.3519C132.324 74.3519 132.324 74.3519 132.324 74.3519C132.324 74.3519 132.324 74.3519 132.324 74.3519C132.324 74.3519 132.324 74.3519 132.324 74.3519C132.324 74.3519 132.324 74.3519 132.324 74.3519C132.324 74.3519 132.324 74.3519 132.324 74.3519C132.324 74.3519 132.324 74.3519 132.324 74.3519C132.324 74.3519 132.324 74.3519 132.324 74.3519C132.324 74.3519 132.324 74.3519 132.324 74.3519C132.324 74.3519 132.324 74.3519 132.324 74.3519C132.324 74.3519 132.324 74.3519 132.324 74.3519C132.324 74.3519 132.324 74.3519 132.324 74.3519C132.324 74.3519 132.324 74.3519 132.324 74.3519C132.324 74.3519 132.324 74.3519 132.324 74.3519C132.324 74.3519 132.324 74.3519 132.324 74.3519C132.324 74.3519 132.324 74.3519 132.324 74.3519C132.324 74.3519 132.324 74.3519 132.324 74.3519C132.324 74.3519 132.324 74.3519 132.324 74.3519C132.324 74.3519 132.324 74.3519 132.324 74.3519C132.324 74.3519 132.324 74.3519 132.324 74.3519C132.324 74.3519 132.324 74.3519 132.324 74.3519C132.324 74.3519 132.324 74.3519 132.324 74.3519C132.324 74.3519 132.324 74.3519 132.324 74.3519C132.324 74.3519 132.324 74.3519 132.324 74.3519C132.324 74.3519 132.324 74.3519 132.324 74.3519C132.324 74.3519 132.324 74.3519 132.324 74.3519C132.324 74.3519 132.324 74.3519 132.324 74.3519C132.324 74.3519 132.324 74.3519 132.324 74.3519C132.324 74.3519 132.324 74.3519 132.324 74.3519C132.324 74.3519 132.324 74.3519 132.324 74.3519C132.324 74.3519 132.324 74.3519 132.324 74.3519C132.324 74.3519 132.324 74.3519 132.324 74.3519C132.324 74.3519 132.324 74.3519 132.324 74.3519C132.324 74.3519 132.324 74.3519 132.324 74.3519C132.324 74.3519 132.324 74.3519 132.324 74.3519C132.324 74.3519 132.324 74.3519 132.324 74.3519C132.324 74.3519 132.324 74.3519 132.324 74.3519C132.324 74.3519 132.324 74.3519 132.324 74.3519C132.324 74.3519 132.324 74.3519 132.324 74.3519C132.324 74.3519 132.324 74.3519 132.324 74.3519C132.324 74.3519 132.324 74.3519 132.324 74.3519C132.324 74.3519 132.324 74.3519 132.324 74.3519C132.324 74.3519 132.324 74.3519 132.324 74.3519C132.324 74.3519 132.324 74.3519 132.324 74.3519C132.324 74.3519 132.324 74.3519 132.324 74.3519C132.324 74.3519 132.324 74.3519 132.324 74.3519C132.324 74.3519 132.324 74.3519 132.324 74.3519C132.324 74.3519 132.324 74.3519 132.324 74.3519C132.324 74.3519 132.324 74.3519 132.324 74.3519C132.324 74.3519 132.324 74.3519 132.324 74.3519C132.324 74.3519 132.324 74.3519 132.324 74.3519C132.324 74.3519 132.324 74.3519 132.324 74.3519C132.324 74.3519 132.324 74.3519 132.324 74.3519C132.324 74.3519 132.324 74.3519 132.324 74.3519C132.324 74.3519 132.324 74.3519 132.324 74.3519C132.324 74.3519 132.324 74.3519 132.324 74.3519C132.324 74.3519 132.324 74.3519 132.324 74.3519C132.324 74.3519 132.324 74.3519 132.324 74.3519C132.324 74.3519 132.324 74.3519 132.324 74.3519C132.324 74.3519 132.324 74.3519 132.324 74.3519C132.324 74.3519 132.324 74.3519 132.324 74.3519C132.324 74.3519 132.324 74.3519 132.324 74.3519C132.324 74.3519 132.324 74.3519 132.324 74.3519C132.324 74.3519 132.324 74.3519 132.324 74.3519L132.324 76.3519C132.324 76.3519 132.324 76.3519 132.324 76.3519C132.324 76.3519 132.324 76.3519 132.324 76.3519C132.324 76.3519 132.324 76.3519 132.324 76.3519C132.324 76.3519 132.324 76.3519 132.324 76.3519C132.324 76.3519 132.324 76.3519 132.324 76.3519C132.324 76.3519 132.324 76.3519 132.324 76.3519C132.324 76.3519 132.324 76.3519 132.324 76.3519C132.324 76.3519 132.324 76.3519 132.324 76.3519C132.324 76.3519 132.324 76.3519 132.324 76.3519C132.324 76.3519 132.324 76.3519 132.324 76.3519C132.324 76.3519 132.324 76.3519 132.324 76.3519C132.324 76.3519 132.324 76.3519 132.324 76.3519C132.324 76.3519 132.324 76.3519 132.324 76.3519C132.324 76.3519 132.324 76.3519 132.324 76.3519C132.324 76.3519 132.324 76.3519 132.324 76.3519C132.324 76.3519 132.324 76.3519 132.324 76.3519C132.324 76.3519 132.324 76.3519 132.324 76.3519C132.324 76.3519 132.324 76.3519 132.324 76.3519C132.324 76.3519 132.324 76.3519 132.324 76.3519C132.324 76.3519 132.324 76.3519 132.324 76.3519C132.324 76.3519 132.324 76.3519 132.324 76.3519C132.324 76.3519 132.324 76.3519 132.324 76.3519C132.324 76.3519 132.324 76.3519 132.324 76.3519C132.324 76.3519 132.324 76.3519 132.324 76.3519C132.324 76.3519 132.324 76.3519 132.324 76.3519C132.324 76.3519 132.324 76.3519 132.324 76.3519C132.324 76.3519 132.324 76.3519 132.324 76.3519C132.324 76.3519 132.324 76.3519 132.324 76.3519C132.324 76.3519 132.324 76.3519 132.324 76.3519C132.324 76.3519 132.324 76.3519 132.324 76.3519C132.324 76.3519 132.324 76.3519 132.324 76.3519C132.324 76.3519 132.324 76.3519 132.324 76.3519C132.324 76.3519 132.324 76.3519 132.324 76.3519C132.324 76.3519 132.324 76.3519 132.324 76.3519C132.324 76.3519 132.324 76.3519 132.324 76.3519C132.324 76.3519 132.324 76.3519 132.324 76.3519C132.324 76.3519 132.324 76.3519 132.324 76.3519C132.324 76.3519 132.324 76.3519 132.324 76.3519C132.324 76.3519 132.324 76.3519 132.324 76.3519C132.324 76.3519 132.324 76.3519 132.324 76.3519C132.324 76.3519 132.324 76.3519 132.324 76.3519C132.324 76.3519 132.324 76.3519 132.324 76.3519C132.324 76.3519 132.324 76.3519 132.324 76.3519C132.324 76.3519 132.324 76.3519 132.324 76.3519C132.324 76.3519 132.324 76.3519 132.324 76.3519C132.324 76.3519 132.324 76.3519 132.324 76.3519C132.324 76.3519 132.324 76.3519 132.324 76.3519C132.324 76.3519 132.324 76.3519 132.324 76.3519C132.324 76.3519 132.324 76.3519 132.324 76.3519C132.324 76.3519 132.324 76.3519 132.324 76.3519C132.324 76.3519 132.324 76.3519 132.324 76.3519C132.324 76.3519 132.324 76.3519 132.324 76.3519C132.324 76.3519 132.324 76.3519 132.324 76.3519C132.324 76.3519 132.324 76.3519 132.324 76.3519C132.324 76.3519 132.324 76.3519 132.324 76.3519C132.324 76.3519 132.324 76.3519 132.324 76.3519C132.324 76.3519 132.324 76.3519 132.324 76.3519C132.324 76.3519 132.324 76.3519 132.324 76.3519C132.324 76.3519 132.324 76.3519 132.324 76.3519C132.324 76.3519 132.324 76.3519 132.324 76.3519C132.324 76.3519 132.324 76.3519 132.324 76.3519C132.324 76.3519 132.324 76.3519 132.324 76.3519C132.324 76.3519 132.324 76.3519 132.324 76.3519C132.324 76.3519 132.324 76.3519 132.324 76.3519C132.324 76.3519 132.324 76.3519 132.324 76.3519C132.324 76.3519 132.324 76.3519 132.324 76.3519C132.324 76.3519 132.324 76.3519 132.324 76.3519C132.324 76.3519 132.324 76.3519 132.324 76.3519C132.324 76.3519 132.324 76.3519 132.324 76.3519C132.324 76.3519 132.324 76.3519 132.324 76.3519C132.324 76.3519 132.324 76.3519 132.324 76.3519C132.324 76.3519 132.324 76.3519 132.324 76.3519C132.324 76.3519 132.324 76.3519 132.324 76.3519C132.324 76.3519 132.324 76.3519 132.324 76.3519C132.324 76.3519 132.324 76.3519 132.324 76.3519C132.324 76.3519 132.324 76.3519 132.324 76.3519C132.324 76.3519 132.324 76.3519 132.324 76.3519C132.324 76.3519 132.324 76.3519 132.324 76.3519C132.324 76.3519 132.324 76.3519 132.324 76.3519C132.324 76.3519 132.324 76.3519 132.324 76.3519C132.324 76.3519 132.324 76.3519 132.324 76.3519C132.324 76.3519 132.324 76.3519 132.324 76.3519C132.324 76.3519 132.324 76.3519 132.324 76.3519C132.324 76.3519 132.324 76.3519 132.324 76.3519C132.324 76.3519 132.324 76.3519 132.324 76.3519C132.324 76.3519 132.324 76.3519 132.324 76.3519C132.324 76.3519 132.324 76.3519 132.324 76.3519C132.324 76.3519 132.324 76.3519 132.324 76.3519C132.324 76.3519 132.324 76.3519 132.324 76.3519C132.324 76.3519 132.324 76.3519 132.324 76.3519C132.324 76.3519 132.324 76.3519 132.324 76.3519C132.324 76.3519 132.324 76.3519 132.324 76.3519C132.324 76.3519 132.324 76.3519 132.324 76.3519C132.324 76.3519 132.324 76.3519 132.324 76.3519C132.324 76.3519 132.324 76.3519 132.324 76.3519C132.324 76.3519 132.324 76.3519 132.324 76.3519C132.324 76.3519 132.324 76.3519 132.324 76.3519C132.324 76.3519 132.324 76.3519 132.324 76.3519C132.324 76.3519 132.324 76.3519 132.324 76.3519C132.324 76.3519 132.324 76.3519 132.324 76.3519C132.324 76.3519 132.324 76.3519 132.324 76.3519C132.324 76.3519 132.324 76.3519 132.324 76.3519C132.324 76.3519 132.324 76.3519 132.324 76.3519C132.324 76.3519 132.324 76.3519 132.324 76.3519C132.324 76.3519 132.324 76.3519 132.324 76.3519C132.324 76.3519 132.324 76.3519 132.324 76.3519C132.324 76.3519 132.324 76.3519 132.324 76.3519C132.324 76.3519 132.324 76.3519 132.324 76.3519C132.324 76.3519 132.324 76.3519 132.324 76.3519C132.324 76.3519 132.324 76.3519 132.324 76.3519C132.324 76.3519 132.324 76.3519 132.324 76.3519C132.324 76.3519 132.324 76.3519 132.324 76.3519C132.324 76.3519 132.324 76.3519 132.324 76.3519C132.324 76.3519 132.324 76.3519 132.324 76.3519C132.324 76.3519 132.324 76.3519 132.324 76.3519C132.324 76.3519 132.324 76.3519 132.324 76.3519C132.324 76.3519 132.324 76.3519 132.324 76.3519C132.324 76.3519 132.324 76.3519 132.324 76.3519C132.324 76.3519 132.324 76.3519 132.324 76.3519C132.324 76.3519 132.324 76.3519 132.324 76.3519C132.324 76.3519 132.324 76.3519 132.324 76.3519C132.324 76.3519 132.324 76.3519 132.324 76.3519C132.324 76.3519 132.324 76.3519 132.324 76.3519C132.324 76.3519 132.324 76.3519 132.324 76.3519C132.324 76.3519 132.324 76.3519 132.324 76.3519C132.324 76.3519 132.324 76.3519 132.324 76.3519C132.324 76.3519 132.324 76.3519 132.324 76.3519C132.324 76.3519 132.324 76.3519 132.324 76.3519C132.324 76.3519 132.324 76.3519 132.324 76.3519C132.324 76.3519 132.324 76.3519 132.324 76.3519C132.324 76.3519 132.324 76.3519 132.324 76.3519C132.324 76.3519 132.324 76.3519 132.324 76.3519C132.324 76.3519 132.324 76.3519 132.324 76.3519C132.324 76.3519 132.324 76.3519 132.324 76.3519C132.324 76.3519 132.324 76.3519 132.324 76.3519C132.324 76.3519 132.324 76.3519 132.324 76.3519C132.324 76.3519 132.324 76.3519 132.324 76.3519C132.324 76.3519 132.324 76.3519 132.324 76.3519C132.324 76.3519 132.324 76.3519 132.324 76.3519C132.324 76.3519 132.324 76.3519 132.324 76.3519C132.324 76.3519 132.324 76.3519 132.324 76.3519C132.324 76.3519 132.324 76.3519 132.324 76.3519C132.324 76.3519 132.324 76.3519 132.324 76.3519C132.324 76.3519 132.324 76.3519 132.324 76.3519C132.324 76.3519 132.324 76.3519 132.324 76.3519C132.324 76.3519 132.324 76.3519 132.324 76.3519C132.324 76.3519 132.324 76.3519 132.324 76.3519C132.324 76.3519 132.324 76.3519 132.324 76.3519C132.324 76.3519 132.324 76.3519 132.324 76.3519C132.324 76.3519 132.324 76.3519 132.324 76.3519C132.324 76.3519 132.324 76.3519 132.324 76.3519C132.324 76.3519 132.324 76.3519 132.324 76.3519C132.324 76.3519 132.324 76.3519 132.324 76.3519C132.324 76.3519 132.324 76.3519 132.324 76.3519C132.324 76.3519 132.324 76.3519 132.324 76.3519C132.324 76.3519 132.324 76.3519 132.324 76.3519C132.324 76.3519 132.324 76.3519 132.324 76.3519C132.324 76.3519 132.324 76.3519 132.324 76.3519C132.324 76.3519 132.324 76.3519 132.324 76.3519C132.324 76.3519 132.324 76.3519 132.324 76.3519C132.324 76.3519 132.324 76.3519 132.324 76.3519C132.324 76.3519 132.324 76.3519 132.324 76.3519C132.324 76.3519 132.324 76.3519 132.324 76.3519C132.324 76.3519 132.324 76.3519 132.324 76.3519C132.324 76.3519 132.324 76.3519 132.324 76.3519C132.324 76.3519 132.324 76.3519 132.324 76.3519C132.324 76.3519 132.324 76.3519 132.324 76.3519C132.324 76.3519 132.324 76.3519 132.324 76.3519C132.324 76.3519 132.324 76.3519 132.324 76.3519C132.324 76.3519 132.324 76.3519 132.324 76.3519C132.324 76.3519 132.324 76.3519 132.324 76.3519C132.324 76.3519 132.324 76.3519 132.324 76.3519C132.324 76.3519 132.324 76.3519 132.324 76.3519C132.324 76.3519 132.324 76.3519 132.324 76.3519C132.324 76.3519 132.324 76.3519 132.324 76.3519C132.324 76.3519 132.324 76.3519 132.324 76.3519C132.324 76.3519 132.324 76.3519 132.324 76.3519C132.324 76.3519 132.324 76.3519 132.324 76.3519C132.324 76.3519 132.324 76.3519 132.324 76.3519C132.324 76.3519 132.324 76.3519 132.324 76.3519C132.324 76.3519 132.324 76.3519 132.324 76.3519C132.324 76.3519 132.324 76.3519 132.324 76.3519C132.324 76.3519 132.324 76.3519 132.324 76.3519C132.324 76.3519 132.324 76.3519 132.324 76.3519C132.324 76.3519 132.324 76.3519 132.324 76.3519C132.324 76.3519 132.324 76.3519 132.324 76.3519C132.324 76.3519 132.324 76.3519 132.324 76.3519C132.324 76.3519 132.324 76.3519 132.324 76.3519C132.324 76.3519 132.324 76.3519 132.324 76.3519C132.324 76.3519 132.324 76.3519 132.324 76.3519C132.324 76.3519 132.324 76.3519 132.324 76.3519C132.324 76.3519 132.324 76.3519 132.324 76.3519C132.324 76.3519 132.324 76.3519 132.324 76.3519C132.324 76.3519 132.324 76.3519 132.324 76.3519C132.324 76.3519 132.324 76.3519 132.324 76.3519C132.324 76.3519 132.324 76.3519 132.324 76.3519C132.324 76.3519 132.324 76.3519 132.324 76.3519C132.324 76.3519 132.324 76.3519 132.324 76.3519C132.324 76.3519 132.324 76.3519 132.324 76.3519C132.324 76.3519 132.324 76.3519 132.324 76.3519C132.324 76.3519 132.324 76.3519 132.324 76.3519C132.324 76.3519 132.324 76.3519 132.324 76.3519C132.324 76.3519 132.324 76.3519 132.324 76.3519C132.324 76.3519 132.324 76.3519 132.324 76.3519C132.324 76.3519 132.324 76.3519 132.324 76.3519C132.324 76.3519 132.324 76.3519 132.324 76.3519C132.324 76.3519 132.324 76.3519 132.324 76.3519C132.324 76.3519 132.324 76.3519 132.324 76.3519C132.324 76.3519 132.324 76.3519 132.324 76.3519C132.324 76.3519 132.324 76.3519 132.324 76.3519C132.324 76.3519 132.324 76.3519 132.324 76.3519C132.324 76.3519 132.324 76.3519 132.324 76.3519C132.324 76.3519 132.324 76.3519 132.324 76.3519C132.324 76.3519 132.324 76.3519 132.324 76.3519C132.324 76.3519 132.324 76.3519 132.324 76.3519C132.324 76.3519 132.324 76.3519 132.324 76.3519C132.324 76.3519 132.324 76.3519 132.324 76.3519C132.324 76.3519 132.324 76.3519 132.324 76.3519C132.324 76.3519 132.324 76.3519 132.324 76.3519C132.324 76.3519 132.324 76.3519 132.324 76.3519C132.324 76.3519 132.324 76.3519 132.324 76.3519C132.324 76.3519 132.324 76.3519 132.324 76.3519C132.324 76.3519 132.324 76.3519 132.324 76.3519C132.324 76.3519 132.324 76.3519 132.324 76.3519C132.324 76.3519 132.324 76.3519 132.324 76.3519C132.324 76.3519 132.324 76.3519 132.324 76.3519C132.324 76.3519 132.324 76.3519 132.324 76.3519C132.324 76.3519 132.324 76.3519 132.324 76.3519C132.324 76.3519 132.324 76.3519 132.324 76.3519C132.324 76.3519 132.324 76.3519 132.324 76.3519C132.324 76.3519 132.324 76.3519 132.324 76.3519C132.324 76.3519 132.324 76.3519 132.324 76.3519C132.324 76.3519 132.324 76.3519 132.324 76.3519C132.324 76.3519 132.324 76.3519 132.324 76.3519C132.324 76.3519 132.324 76.3519 132.324 76.3519C132.324 76.3519 132.324 76.3519 132.324 76.3519C132.324 76.3519 132.324 76.3519 132.324 76.3519C132.324 76.3519 132.324 76.3519 132.324 76.3519C132.324 76.3519 132.324 76.3519 132.324 76.3519C132.324 76.3519 132.324 76.3519 132.324 76.3519C132.324 76.3519 132.324 76.3519 132.324 76.3519C132.324 76.3519 132.324 76.3519 132.324 76.3519C132.324 76.3519 132.324 76.3519 132.324 76.3519C132.324 76.3519 132.324 76.3519 132.324 76.3519C132.324 76.3519 132.324 76.3519 132.324 76.3519C132.324 76.3519 132.324 76.3519 132.324 76.3519C132.324 76.3519 132.324 76.3519 132.324 76.3519C132.324 76.3519 132.324 76.3519 132.324 76.3519C132.324 76.3519 132.324 76.3519 132.324 76.3519C132.324 76.3519 132.324 76.3519 132.324 76.3519C132.324 76.3519 132.324 76.3519 132.324 76.3519C132.324 76.3519 132.324 76.3519 132.324 76.3519C132.324 76.3519 132.324 76.3519 132.324 76.3519C132.324 76.3519 132.324 76.3519 132.324 76.3519C132.324 76.3519 132.324 76.3519 132.324 76.3519C132.324 76.3519 132.324 76.3519 132.324 76.3519C132.324 76.3519 132.324 76.3519 132.324 76.3519C132.324 76.3519 132.324 76.3519 132.324 76.3519C132.324 76.3519 132.324 76.3519 132.324 76.3519C132.324 76.3519 132.324 76.3519 132.324 76.3519C132.324 76.3519 132.324 76.3519 132.324 76.3519C132.324 76.3519 132.324 76.3519 132.324 76.3519C132.324 76.3519 132.324 76.3519 132.324 76.3519C132.324 76.3519 132.324 76.3519 132.324 76.3519C132.324 76.3519 132.324 76.3519 132.324 76.3519C132.324 76.3519 132.324 76.3519 132.324 76.3519C132.324 76.3519 132.324 76.3519 132.324 76.3519C132.324 76.3519 132.324 76.3519 132.324 76.3519C132.324 76.3519 132.324 76.3519 132.324 76.3519C132.324 76.3519 132.324 76.3519 132.324 76.3519C132.324 76.3519 132.324 76.3519 132.324 76.3519C132.324 76.3519 132.324 76.3519 132.324 76.3519C132.324 76.3519 132.324 76.3519 132.324 76.3519C132.324 76.3519 132.324 76.3519 132.324 76.3519C132.324 76.3519 132.324 76.3519 132.324 76.3519C132.324 76.3519 132.324 76.3519 132.324 76.3519C132.324 76.3519 132.324 76.3519 132.324 76.3519C132.324 76.3519 132.324 76.3519 132.324 76.3519C132.324 76.3519 132.324 76.3519 132.324 76.3519C132.324 76.3519 132.324 76.3519 132.324 76.3519C132.324 76.3519 132.324 76.3519 132.324 76.3519C132.324 76.3519 132.324 76.3519 132.324 76.3519C132.324 76.3519 132.324 76.3519 132.324 76.3519C132.324 76.3519 132.324 76.3519 132.324 76.3519C132.324 76.3519 132.324 76.3519 132.324 76.3519C132.324 76.3519 132.324 76.3519 132.324 76.3519C132.324 76.3519 132.324 76.3519 132.324 76.3519C132.324 76.3519 132.324 76.3519 132.324 76.3519C132.324 76.3519 132.324 76.3519 132.324 76.3519C132.324 76.3519 132.324 76.3519 132.324 76.3519C132.324 76.3519 132.324 76.3519 132.324 76.3519C132.324 76.3519 132.324 76.3519 132.324 76.3519C132.324 76.3519 132.324 76.3519 132.324 76.3519C132.324 76.3519 132.324 76.3519 132.324 76.3519C132.324 76.3519 132.324 76.3519 132.324 76.3519C132.324 76.3519 132.324 76.3519 132.324 76.3519C132.324 76.3519 132.324 76.3519 132.324 76.3519C132.324 76.3519 132.324 76.3519 132.324 76.3519C132.324 76.3519 132.324 76.3519 132.324 76.3519C132.324 76.3519 132.324 76.3519 132.324 76.3519C132.324 76.3519 132.324 76.3519 132.324 76.3519C132.324 76.3519 132.324 76.3519 132.324 76.3519C132.324 76.3519 132.324 76.3519 132.324 76.3519C132.324 76.3519 132.324 76.3519 132.324 76.3519C132.324 76.3519 132.324 76.3519 132.324 76.3519C132.324 76.3519 132.324 76.3519 132.324 76.3519C132.324 76.3519 132.324 76.3519 132.324 76.3519C132.324 76.3519 132.324 76.3519 132.324 76.3519C132.324 76.3519 132.324 76.3519 132.324 76.3519C132.324 76.3519 132.324 76.3519 132.324 76.3519C132.324 76.3519 132.324 76.3519 132.324 76.3519C132.324 76.3519 132.324 76.3519 132.324 76.3519C132.324 76.3519 132.324 76.3519 132.324 76.3519C132.324 76.3519 132.324 76.3519 132.324 76.3519C132.324 76.3519 132.324 76.3519 132.324 76.3519C132.324 76.3519 132.324 76.3519 132.324 76.3519C132.324 76.3519 132.324 76.3519 132.324 76.3519C132.324 76.3519 132.324 76.3519 132.324 76.3519C132.324 76.3519 132.324 76.3519 132.324 76.3519C132.324 76.3519 132.324 76.3519 132.324 76.3519C132.324 76.3519 132.324 76.3519 132.324 76.3519C132.324 76.3519 132.324 76.3519 132.324 76.3519C132.324 76.3519 132.324 76.3519 132.324 76.3519C132.324 76.3519 132.324 76.3519 132.324 76.3519C132.324 76.3519 132.324 76.3519 132.324 76.3519C132.324 76.3519 132.324 76.3519 132.324 76.3519C132.324 76.3519 132.324 76.3519 132.324 76.3519C132.324 76.3519 132.324 76.3519 132.324 76.3519C132.324 76.3519 132.324 76.3519 132.324 76.3519C132.324 76.3519 132.324 76.3519 132.324 76.3519C132.324 76.3519 132.324 76.3519 132.324 76.3519C132.324 76.3519 132.324 76.3519 132.324 76.3519C132.324 76.3519 132.324 76.3519 132.324 76.3519C132.324 76.3519 132.324 76.3519 132.324 76.3519C132.324 76.3519 132.324 76.3519 132.324 76.3519C132.324 76.3519 132.324 76.3519 132.324 76.3519C132.324 76.3519 132.324 76.3519 132.324 76.3519C132.324 76.3519 132.324 76.3519 132.324 76.3519C132.324 76.3519 132.324 76.3519 132.324 76.3519C132.324 76.3519 132.324 76.3519 132.324 76.3519C132.324 76.3519 132.324 76.3519 132.324 76.3519C132.324 76.3519 132.324 76.3519 132.324 76.3519C132.324 76.3519 132.324 76.3519 132.324 76.3519C132.324 76.3519 132.324 76.3519 132.324 76.3519C132.324 76.3519 132.324 76.3519 132.324 76.3519C132.324 76.3519 132.324 76.3519 132.324 76.3519C132.324 76.3519 132.324 76.3519 132.324 76.3519C132.324 76.3519 132.324 76.3519 132.324 76.3519C132.324 76.3519 132.324 76.3519 132.324 76.3519C132.324 76.3519 132.324 76.3519 132.324 76.3519C132.324 76.3519 132.324 76.3519 132.324 76.3519C132.324 76.3519 132.324 76.3519 132.324 76.3519C132.324 76.3519 132.324 76.3519 132.324 76.3519C132.324 76.3519 132.324 76.3519 132.324 76.3519C132.324 76.3519 132.324 76.3519 132.324 76.3519C132.324 76.3519 132.324 76.3519 132.324 76.3519C132.324 76.3519 132.324 76.3519 132.324 76.3519C132.324 76.3519 132.324 76.3519 132.324 76.3519C132.324 76.3519 132.324 76.3519 132.324 76.3519C132.324 76.3519 132.324 76.3519 132.324 76.3519C132.324 76.3519 132.324 76.3519 132.324 76.3519C132.324 76.3519 132.324 76.3519 132.324 76.3519C132.324 76.3519 132.324 76.3519 132.324 76.3519C132.324 76.3519 132.324 76.3519 132.324 76.3519C132.324 76.3519 132.324 76.3519 132.324 76.3519C132.324 76.3519 132.324 76.3519 132.324 76.3519C132.324 76.3519 132.324 76.3519 132.324 76.3519C132.324 76.3519 132.324 76.3519 132.324 76.3519C132.324 76.3519 132.324 76.3519 132.324 76.3519C132.324 76.3519 132.324 76.3519 132.324 76.3519C132.324 76.3519 132.324 76.3519 132.324 76.3519C132.324 76.3519 132.324 76.3519 132.324 76.3519C132.324 76.3519 132.324 76.3519 132.324 76.3519C132.324 76.3519 132.324 76.3519 132.324 76.3519C132.324 76.3519 132.324 76.3519 132.324 76.3519C132.324 76.3519 132.324 76.3519 132.324 76.3519C132.324 76.3519 132.324 76.3519 132.324 76.3519C132.324 76.3519 132.324 76.3519 132.324 76.3519C132.324 76.3519 132.324 76.3519 132.324 76.3519C132.324 76.3519 132.324 76.3519 132.324 76.3519C132.324 76.3519 132.324 76.3519 132.324 76.3519C132.324 76.3519 132.324 76.3519 132.324 76.3519C132.324 76.3519 132.324 76.3519 132.324 76.3519C132.324 76.3519 132.324 76.3519 132.324 76.3519C132.324 76.3519 132.324 76.3519 132.324 76.3519C132.324 76.3519 132.324 76.3519 132.324 76.3519C132.324 76.3519 132.324 76.3519 132.324 76.3519C132.324 76.3519 132.324 76.3519 132.324 76.3519C132.324 76.3519 132.324 76.3519 132.324 76.3519C132.324 76.3519 132.324 76.3519 132.324 76.3519C132.324 76.3519 132.324 76.3519 132.324 76.3519C132.324 76.3519 132.324 76.3519 132.324 76.3519C132.324 76.3519 132.324 76.3519 132.324 76.3519C132.324 76.3519 132.324 76.3519 132.324 76.3519C132.324 76.3519 132.324 76.3519 132.324 76.3519C132.324 76.3519 132.324 76.3519 132.324 76.3519C132.324 76.3519 132.324 76.3519 132.324 76.3519C132.324 76.3519 132.324 76.3519 132.324 76.3519C132.324 76.3519 132.324 76.3519 132.324 76.3519C132.324 76.3519 132.324 76.3519 132.324 76.3519C132.324 76.3519 132.324 76.3519 132.324 76.3519C132.324 76.3519 132.324 76.3519 132.324 76.3519C132.324 76.3519 132.324 76.3519 132.324 76.3519C132.324 76.3519 132.324 76.3519 132.324 76.3519C132.324 76.3519 132.324 76.3519 132.324 76.3519C132.324 76.3519 132.324 76.3519 132.324 76.3519C132.324 76.3519 132.324 76.3519 132.324 76.3519C132.324 76.3519 132.324 76.3519 132.324 76.3519C132.324 76.3519 132.324 76.3519 132.324 76.3519C132.324 76.3519 132.324 76.3519 132.324 76.3519C132.324 76.3519 132.324 76.3519 132.324 76.3519C132.324 76.3519 132.324 76.3519 132.324 76.3519C132.324 76.3519 132.324 76.3519 132.324 76.3519C132.324 76.3519 132.324 76.3519 132.324 76.3519C132.324 76.3519 132.324 76.3519 132.324 76.3519C132.324 76.3519 132.324 76.3519 132.324 76.3519C132.324 76.3519 132.324 76.3519 132.324 76.3519C132.324 76.3519 132.324 76.3519 132.324 76.3519C132.324 76.3519 132.324 76.3519 132.324 76.3519C132.324 76.3519 132.324 76.3519 132.324 76.3519C132.324 76.3519 132.324 76.3519 132.324 76.3519C132.324 76.3519 132.324 76.3519 132.324 76.3519C132.324 76.3519 132.324 76.3519 132.324 76.3519C132.324 76.3519 132.324 76.3519 132.324 76.3519C132.324 76.3519 132.324 76.3519 132.324 76.3519C132.324 76.3519 132.324 76.3519 132.324 76.3519C132.324 76.3519 132.324 76.3519 132.324 76.3519C132.324 76.3519 132.324 76.3519 132.324 76.3519C132.324 76.3519 132.324 76.3519 132.324 76.3519C132.324 76.3519 132.324 76.3519 132.324 76.3519C132.324 76.3519 132.324 76.3519 132.324 76.3519C132.324 76.3519 132.324 76.3519 132.324 76.3519C132.324 76.3519 132.324 76.3519 132.324 76.3519C132.324 76.3519 132.324 76.3519 132.324 76.3519C132.324 76.3519 132.324 76.3519 132.324 76.3519C132.324 76.3519 132.324 76.3519 132.324 76.3519C132.324 76.3519 132.324 76.3519 132.324 76.3519C132.324 76.3519 132.324 76.3519 132.324 76.3519C132.324 76.3519 132.324 76.3519 132.324 76.3519C132.324 76.3519 132.324 76.3519 132.324 76.3519C132.324 76.3519 132.324 76.3519 132.324 76.3519C132.324 76.3519 132.324 76.3519 132.324 76.3519C132.324 76.3519 132.324 76.3519 132.324 76.3519C132.324 76.3519 132.324 76.3519 132.324 76.3519C132.324 76.3519 132.324 76.3519 132.324 76.3519C132.324 76.3519 132.324 76.3519 132.324 76.3519C132.324 76.3519 132.324 76.3519 132.324 76.3519C132.324 76.3519 132.324 76.3519 132.324 76.3519C132.324 76.3519 132.324 76.3519 132.324 76.3519C132.324 76.3519 132.324 76.3519 132.324 76.3519C132.324 76.3519 132.324 76.3519 132.324 76.3519C132.324 76.3519 132.324 76.3519 132.324 76.3519C132.324 76.3519 132.324 76.3519 132.324 76.3519C132.324 76.3519 132.324 76.3519 132.324 76.3519C132.324 76.3519 132.324 76.3519 132.324 76.3519C132.324 76.3519 132.324 76.3519 132.324 76.3519C132.324 76.3519 132.324 76.3519 132.324 76.3519C132.324 76.3519 132.324 76.3519 132.324 76.3519C132.324 76.3519 132.324 76.3519 132.324 76.3519C132.324 76.3519 132.324 76.3519 132.324 76.3519C132.324 76.3519 132.324 76.3519 132.324 76.3519C132.324 76.3519 132.324 76.3519 132.324 76.3519C132.324 76.3519 132.324 76.3519 132.324 76.3519C132.324 76.3519 132.324 76.3519 132.324 76.3519C132.324 76.3519 132.324 76.3519 132.324 76.3519C132.324 76.3519 132.324 76.3519 132.324 76.3519C132.324 76.3519 132.324 76.3519 132.324 76.3519C132.324 76.3519 132.324 76.3519 132.324 76.3519C132.324 76.3519 132.324 76.3519 132.324 76.3519C132.324 76.3519 132.324 76.3519 132.324 76.3519C132.324 76.3519 132.324 76.3519 132.324 76.3519C132.324 76.3519 132.324 76.3519 132.324 76.3519C132.324 76.3519 132.324 76.3519 132.324 76.3519C132.324 76.3519 132.324 76.3519 132.324 76.3519C132.324 76.3519 132.324 76.3519 132.324 76.3519C132.324 76.3519 132.324 76.3519 132.324 76.3519C132.324 76.3519 132.324 76.3519 132.324 76.3519C132.324 76.3519 132.324 76.3519 132.324 76.3519C132.324 76.3519 132.324 76.3519 132.324 76.3519C132.324 76.3519 132.324 76.3519 132.324 76.3519C132.324 76.3519 132.324 76.3519 132.324 76.3519C132.324 76.3519 132.324 76.3519 132.324 76.3519C132.324 76.3519 132.324 76.3519 132.324 76.3519C132.324 76.3519 132.324 76.3519 132.324 76.3519C132.324 76.3519 132.324 76.3519 132.324 76.3519C132.324 76.3519 132.324 76.3519 132.324 76.3519C132.324 76.3519 132.324 76.3519 132.324 76.3519C132.324 76.3519 132.324 76.3519 132.324 76.3519C132.324 76.3519 132.324 76.3519 132.324 76.3519C132.324 76.3519 132.324 76.3519 132.324 76.3519C132.324 76.3519 132.324 76.3519 132.324 76.3519C132.324 76.3519 132.324 76.3519 132.324 76.3519C132.324 76.3519 132.324 76.3519 132.324 76.3519C132.324 76.3519 132.324 76.3519 132.324 76.3519C132.324 76.3519 132.324 76.3519 132.324 76.3519C132.324 76.3519 132.324 76.3519 132.324 76.3519C132.324 76.3519 132.324 76.3519 132.324 76.3519C132.324 76.3519 132.324 76.3519 132.324 76.3519C132.324 76.3519 132.324 76.3519 132.324 76.3519C132.324 76.3519 132.324 76.3519 132.324 76.3519C132.324 76.3519 132.324 76.3519 132.324 76.3519C132.324 76.3519 132.324 76.3519 132.324 76.3519C132.324 76.3519 132.324 76.3519 132.324 76.3519C132.324 76.3519 132.324 76.3519 132.324 76.3519C132.324 76.3519 132.324 76.3519 132.324 76.3519C132.324 76.3519 132.324 76.3519 132.324 76.3519C132.324 76.3519 132.324 76.3519 132.324 76.3519C132.324 76.3519 132.324 76.3519 132.324 76.3519C132.324 76.3519 132.324 76.3519 132.324 76.3519C132.324 76.3519 132.324 76.3519 132.324 76.3519C132.324 76.3519 132.324 76.3519 132.324 76.3519C132.324 76.3519 132.324 76.3519 132.324 76.3519L132.324 74.3519ZM133.324 134.654L133.324 75.3519L131.324 75.3519L131.324 134.654L133.324 134.654ZM105.402 140.861C113.936 137.424 123.084 135.654 132.324 135.654L132.324 133.654C122.829 133.654 113.428 135.472 104.655 139.005L105.402 140.861ZM82.585 155.682C89.1143 149.334 96.8671 144.297 105.402 140.861L104.655 139.005C95.8815 142.538 87.9083 147.717 81.1909 154.248L82.585 155.682ZM67.3462 177.855C70.8782 169.564 76.0559 162.03 82.585 155.682L81.1909 154.248C74.4734 160.779 69.1433 168.534 65.5062 177.071L67.3462 177.855ZM61.9968 204C61.9968 195.029 63.8143 186.145 67.3462 177.855L65.5062 177.071C61.8692 185.607 59.9968 194.758 59.9968 204L61.9968 204ZM3.04302e-05 205L60.9968 205L60.9968 203L3.0605e-05 203L3.04302e-05 205ZM9.15259 154.377C2.45014 170.108 -0.999968 186.97 -0.999969 204L1.00003 204C1.00003 187.241 4.39524 170.645 10.9926 155.16L9.15259 154.377ZM38.0597 112.315C25.6781 124.353 15.855 138.645 9.15259 154.377L10.9926 155.16C17.5899 139.675 27.2606 125.604 39.4538 113.749L38.0597 112.315ZM50.386 101.726C46.0661 104.999 41.9487 108.534 38.0597 112.315L39.4538 113.749C43.2837 110.026 47.3389 106.544 51.5938 103.32L50.386 101.726ZM40.6386 94.2642C43.7306 97.4445 46.9713 100.456 50.347 103.289L51.6328 101.757C48.3088 98.9675 45.1176 96.002 42.0726 92.87L40.6386 94.2642ZM12.5406 51.0117C19.0538 67.1852 28.6011 81.8827 40.6386 94.2642L42.0726 92.87C30.218 80.6767 20.813 66.1996 14.3958 50.2646L12.5406 51.0117ZM2.67549 9.54773e-05C2.67549 17.5046 6.02744 34.8383 12.5406 51.0117L14.3958 50.2646C7.97869 34.3296 4.67549 17.2496 4.67549 9.56522e-05L2.67549 9.54773e-05ZM62.9779 -0.999899L3.67549 -0.999904L3.67549 1.0001L62.9779 1.0001L62.9779 -0.999899ZM69.1841 26.9222C65.7472 18.3876 63.9779 9.23942 63.9779 0.000100837L61.9779 0.000100662C61.9779 9.49436 63.796 18.8963 67.3289 27.6693L69.1841 26.9222ZM84.0058 49.7388C77.6579 43.2095 72.6211 35.4567 69.1841 26.9222L67.3289 27.6693C70.8619 36.4424 76.041 44.4155 82.5718 51.1329L84.0058 49.7388ZM106.178 64.9776C97.888 61.4456 90.3536 56.268 84.0058 49.7388L82.5718 51.1329C89.1026 57.8504 96.8574 63.1805 105.394 66.8176L106.178 64.9776ZM132.324 70.3271C123.352 70.3271 114.468 68.5096 106.178 64.9776L105.394 66.8176C113.931 70.4547 123.082 72.3271 132.324 72.3271L132.324 70.3271ZM133.324 75.3519L133.324 71.3271L131.324 71.3271L131.324 75.3519L133.324 75.3519Z" fill="#FF6644" mask="url(#path-1-inside-1_187_3825)"/>
</g>
</svg>
