<svg width="475" height="599" viewBox="0 0 475 599" fill="none" xmlns="http://www.w3.org/2000/svg">
<mask id="mask0_187_8169" style="mask-type:alpha" maskUnits="userSpaceOnUse" x="0" y="0" width="475" height="599">
<rect width="475" height="599" fill="white" fill-opacity="0.14"/>
</mask>
<g mask="url(#mask0_187_8169)">
<rect x="3.49487" y="-96.3281" width="1.07392" height="829.99" transform="rotate(10.5696 3.49487 -96.3281)" fill="white" fill-opacity="0.5"/>
<rect x="9.52661" y="-95.2021" width="1.07392" height="829.99" transform="rotate(10.5696 9.52661 -95.2021)" fill="white" fill-opacity="0.5"/>
<rect x="15.5583" y="-94.0771" width="1.07392" height="829.99" transform="rotate(10.5696 15.5583 -94.0771)" fill="white" fill-opacity="0.5"/>
<rect x="21.5935" y="-92.9521" width="1.07392" height="829.99" transform="rotate(10.5696 21.5935 -92.9521)" fill="white" fill-opacity="0.5"/>
<rect x="57.7878" y="-86.1973" width="1.07392" height="829.99" transform="rotate(10.5696 57.7878 -86.1973)" fill="white" fill-opacity="0.5"/>
<rect x="27.6257" y="-91.8252" width="1.07392" height="829.99" transform="rotate(10.5696 27.6257 -91.8252)" fill="white" fill-opacity="0.5"/>
<rect x="63.8201" y="-85.0713" width="1.07392" height="829.99" transform="rotate(10.5696 63.8201 -85.0713)" fill="white" fill-opacity="0.5"/>
<rect x="33.657" y="-90.7002" width="1.07392" height="829.99" transform="rotate(10.5696 33.657 -90.7002)" fill="white" fill-opacity="0.5"/>
<rect x="69.8518" y="-83.9453" width="1.07392" height="829.99" transform="rotate(10.5696 69.8518 -83.9453)" fill="white" fill-opacity="0.5"/>
<rect x="39.6897" y="-89.5742" width="1.07392" height="829.99" transform="rotate(10.5696 39.6897 -89.5742)" fill="white" fill-opacity="0.5"/>
<rect x="75.884" y="-82.8203" width="1.07392" height="829.99" transform="rotate(10.5696 75.884 -82.8203)" fill="white" fill-opacity="0.5"/>
<rect x="45.7214" y="-88.4482" width="1.07392" height="829.99" transform="rotate(10.5696 45.7214 -88.4482)" fill="white" fill-opacity="0.5"/>
<rect x="81.9187" y="-81.6943" width="1.07392" height="829.99" transform="rotate(10.5696 81.9187 -81.6943)" fill="white" fill-opacity="0.5"/>
<rect x="51.7561" y="-87.3232" width="1.07392" height="829.99" transform="rotate(10.5696 51.7561 -87.3232)" fill="white" fill-opacity="0.5"/>
<rect x="87.9509" y="-80.5684" width="1.07392" height="829.99" transform="rotate(10.5696 87.9509 -80.5684)" fill="white" fill-opacity="0.5"/>
<rect x="93.9827" y="-79.4434" width="1.07392" height="829.99" transform="rotate(10.5696 93.9827 -79.4434)" fill="white" fill-opacity="0.5"/>
<rect x="130.177" y="-72.6885" width="1.07392" height="829.99" transform="rotate(10.5696 130.177 -72.6885)" fill="white" fill-opacity="0.5"/>
<rect x="100.014" y="-78.3164" width="1.07392" height="829.99" transform="rotate(10.5696 100.014 -78.3164)" fill="white" fill-opacity="0.5"/>
<rect x="136.213" y="-71.5625" width="1.07392" height="829.99" transform="rotate(10.5696 136.213 -71.5625)" fill="white" fill-opacity="0.5"/>
<rect x="106.05" y="-77.1914" width="1.07392" height="829.99" transform="rotate(10.5696 106.05 -77.1914)" fill="white" fill-opacity="0.5"/>
<rect x="142.244" y="-70.4375" width="1.07392" height="829.99" transform="rotate(10.5696 142.244 -70.4375)" fill="white" fill-opacity="0.5"/>
<rect x="112.081" y="-76.0664" width="1.07392" height="829.99" transform="rotate(10.5696 112.081 -76.0664)" fill="white" fill-opacity="0.5"/>
<rect x="148.276" y="-69.3115" width="1.07392" height="829.99" transform="rotate(10.5696 148.276 -69.3115)" fill="white" fill-opacity="0.5"/>
<rect x="118.114" y="-74.9395" width="1.07392" height="829.99" transform="rotate(10.5696 118.114 -74.9395)" fill="white" fill-opacity="0.5"/>
<rect x="154.308" y="-68.1855" width="1.07392" height="829.99" transform="rotate(10.5696 154.308 -68.1855)" fill="white" fill-opacity="0.5"/>
<rect x="124.145" y="-73.8145" width="1.07392" height="829.99" transform="rotate(10.5696 124.145 -73.8145)" fill="white" fill-opacity="0.5"/>
<rect x="160.34" y="-67.0615" width="1.07392" height="829.99" transform="rotate(10.5696 160.34 -67.0615)" fill="white" fill-opacity="0.5"/>
<rect x="165.591" y="-66.0811" width="1.07392" height="829.99" transform="rotate(10.5696 165.591 -66.0811)" fill="white" fill-opacity="0.5"/>
<rect x="201.785" y="-59.3271" width="1.07392" height="829.99" transform="rotate(10.5696 201.785 -59.3271)" fill="white" fill-opacity="0.5"/>
<rect x="171.623" y="-64.9561" width="1.07392" height="829.99" transform="rotate(10.5696 171.623 -64.9561)" fill="white" fill-opacity="0.5"/>
<rect x="207.821" y="-58.2012" width="1.07392" height="829.99" transform="rotate(10.5696 207.821 -58.2012)" fill="white" fill-opacity="0.5"/>
<rect x="177.655" y="-63.8301" width="1.07392" height="829.99" transform="rotate(10.5696 177.655 -63.8301)" fill="white" fill-opacity="0.5"/>
<rect x="213.853" y="-57.0762" width="1.07392" height="829.99" transform="rotate(10.5696 213.853 -57.0762)" fill="white" fill-opacity="0.5"/>
<rect x="183.69" y="-62.7041" width="1.07392" height="829.99" transform="rotate(10.5696 183.69 -62.7041)" fill="white" fill-opacity="0.5"/>
<rect x="219.885" y="-55.9502" width="1.07392" height="829.99" transform="rotate(10.5696 219.885 -55.9502)" fill="white" fill-opacity="0.5"/>
<rect x="189.721" y="-61.5791" width="1.07392" height="829.99" transform="rotate(10.5696 189.721 -61.5791)" fill="white" fill-opacity="0.5"/>
<rect x="225.917" y="-54.8252" width="1.07392" height="829.99" transform="rotate(10.5696 225.917 -54.8252)" fill="white" fill-opacity="0.5"/>
<rect x="195.754" y="-60.4531" width="1.07392" height="829.99" transform="rotate(10.5696 195.754 -60.4531)" fill="white" fill-opacity="0.5"/>
<rect x="231.948" y="-53.6992" width="1.07392" height="829.99" transform="rotate(10.5696 231.948 -53.6992)" fill="white" fill-opacity="0.5"/>
<rect x="237.983" y="-52.5732" width="1.07392" height="829.99" transform="rotate(10.5696 237.983 -52.5732)" fill="white" fill-opacity="0.5"/>
<rect x="274.177" y="-45.8203" width="1.07392" height="829.99" transform="rotate(10.5696 274.177 -45.8203)" fill="white" fill-opacity="0.5"/>
<rect x="244.015" y="-51.4482" width="1.07392" height="829.99" transform="rotate(10.5696 244.015 -51.4482)" fill="white" fill-opacity="0.5"/>
<rect x="280.21" y="-44.6934" width="1.07392" height="829.99" transform="rotate(10.5696 280.21 -44.6934)" fill="white" fill-opacity="0.5"/>
<rect x="250.048" y="-50.3223" width="1.07392" height="829.99" transform="rotate(10.5696 250.048 -50.3223)" fill="white" fill-opacity="0.5"/>
<rect x="286.242" y="-43.5684" width="1.07392" height="829.99" transform="rotate(10.5696 286.242 -43.5684)" fill="white" fill-opacity="0.5"/>
<rect x="256.079" y="-49.1963" width="1.07392" height="829.99" transform="rotate(10.5696 256.079 -49.1963)" fill="white" fill-opacity="0.5"/>
<rect x="292.277" y="-42.4434" width="1.07392" height="829.99" transform="rotate(10.5696 292.277 -42.4434)" fill="white" fill-opacity="0.5"/>
<rect x="262.111" y="-48.0713" width="1.07392" height="829.99" transform="rotate(10.5696 262.111 -48.0713)" fill="white" fill-opacity="0.5"/>
<rect x="298.309" y="-41.3164" width="1.07392" height="829.99" transform="rotate(10.5696 298.309 -41.3164)" fill="white" fill-opacity="0.5"/>
<rect x="268.146" y="-46.9453" width="1.07392" height="829.99" transform="rotate(10.5696 268.146 -46.9453)" fill="white" fill-opacity="0.5"/>
<rect x="304.341" y="-40.1914" width="1.07392" height="829.99" transform="rotate(10.5696 304.341 -40.1914)" fill="white" fill-opacity="0.5"/>
<rect x="310.373" y="-39.0645" width="1.07392" height="829.99" transform="rotate(10.5696 310.373 -39.0645)" fill="white" fill-opacity="0.5"/>
<rect x="346.567" y="-32.3115" width="1.07392" height="829.99" transform="rotate(10.5696 346.567 -32.3115)" fill="white" fill-opacity="0.5"/>
<rect x="316.405" y="-37.9395" width="1.07392" height="829.99" transform="rotate(10.5696 316.405 -37.9395)" fill="white" fill-opacity="0.5"/>
<rect x="352.602" y="-31.1855" width="1.07392" height="829.99" transform="rotate(10.5696 352.602 -31.1855)" fill="white" fill-opacity="0.5"/>
<rect x="322.44" y="-36.8145" width="1.07392" height="829.99" transform="rotate(10.5696 322.44 -36.8145)" fill="white" fill-opacity="0.5"/>
<rect x="358.634" y="-30.0596" width="1.07392" height="829.99" transform="rotate(10.5696 358.634 -30.0596)" fill="white" fill-opacity="0.5"/>
<rect x="328.471" y="-35.6885" width="1.07392" height="829.99" transform="rotate(10.5696 328.471 -35.6885)" fill="white" fill-opacity="0.5"/>
<rect x="364.666" y="-28.9346" width="1.07392" height="829.99" transform="rotate(10.5696 364.666 -28.9346)" fill="white" fill-opacity="0.5"/>
<rect x="334.503" y="-34.5625" width="1.07392" height="829.99" transform="rotate(10.5696 334.503 -34.5625)" fill="white" fill-opacity="0.5"/>
<rect x="370.698" y="-27.8086" width="1.07392" height="829.99" transform="rotate(10.5696 370.698 -27.8086)" fill="white" fill-opacity="0.5"/>
<rect x="340.535" y="-33.4365" width="1.07392" height="829.99" transform="rotate(10.5696 340.535 -33.4365)" fill="white" fill-opacity="0.5"/>
<rect x="376.733" y="-26.6836" width="1.07392" height="829.99" transform="rotate(10.5696 376.733 -26.6836)" fill="white" fill-opacity="0.5"/>
<rect x="382.765" y="-25.5596" width="1.07392" height="829.99" transform="rotate(10.5696 382.765 -25.5596)" fill="white" fill-opacity="0.5"/>
<rect x="418.96" y="-18.8047" width="1.07392" height="829.99" transform="rotate(10.5696 418.96 -18.8047)" fill="white" fill-opacity="0.5"/>
<rect x="388.797" y="-24.4316" width="1.07392" height="829.99" transform="rotate(10.5696 388.797 -24.4316)" fill="white" fill-opacity="0.5"/>
<rect x="424.991" y="-17.6787" width="1.07392" height="829.99" transform="rotate(10.5696 424.991 -17.6787)" fill="white" fill-opacity="0.5"/>
<rect x="394.828" y="-23.3076" width="1.07392" height="829.99" transform="rotate(10.5696 394.828 -23.3076)" fill="white" fill-opacity="0.5"/>
<rect x="431.026" y="-16.5537" width="1.07392" height="829.99" transform="rotate(10.5696 431.026 -16.5537)" fill="white" fill-opacity="0.5"/>
<rect x="400.861" y="-22.1816" width="1.07392" height="829.99" transform="rotate(10.5696 400.861 -22.1816)" fill="white" fill-opacity="0.5"/>
<rect x="437.058" y="-15.4277" width="1.07392" height="829.99" transform="rotate(10.5696 437.058 -15.4277)" fill="white" fill-opacity="0.5"/>
<rect x="406.896" y="-21.0557" width="1.07392" height="829.99" transform="rotate(10.5696 406.896 -21.0557)" fill="white" fill-opacity="0.5"/>
<rect x="443.091" y="-14.3018" width="1.07392" height="829.99" transform="rotate(10.5696 443.091 -14.3018)" fill="white" fill-opacity="0.5"/>
<rect x="412.927" y="-19.9307" width="1.07392" height="829.99" transform="rotate(10.5696 412.927 -19.9307)" fill="white" fill-opacity="0.5"/>
<rect x="449.122" y="-13.1758" width="1.07392" height="829.99" transform="rotate(10.5696 449.122 -13.1758)" fill="white" fill-opacity="0.5"/>
<rect x="455.155" y="-12.0508" width="1.07392" height="829.99" transform="rotate(10.5696 455.155 -12.0508)" fill="white" fill-opacity="0.5"/>
<rect x="491.352" y="-5.29688" width="1.07392" height="829.99" transform="rotate(10.5696 491.352 -5.29688)" fill="white" fill-opacity="0.5"/>
<rect x="461.189" y="-10.9248" width="1.07392" height="829.99" transform="rotate(10.5696 461.189 -10.9248)" fill="white" fill-opacity="0.5"/>
<rect x="497.384" y="-4.16992" width="1.07392" height="829.99" transform="rotate(10.5696 497.384 -4.16992)" fill="white" fill-opacity="0.5"/>
<rect x="467.221" y="-9.79883" width="1.07392" height="829.99" transform="rotate(10.5696 467.221 -9.79883)" fill="white" fill-opacity="0.5"/>
<rect x="503.416" y="-3.04492" width="1.07392" height="829.99" transform="rotate(10.5696 503.416 -3.04492)" fill="white" fill-opacity="0.5"/>
<rect x="473.253" y="-8.67383" width="1.07392" height="829.99" transform="rotate(10.5696 473.253 -8.67383)" fill="white" fill-opacity="0.5"/>
<rect x="509.447" y="-1.91895" width="1.07392" height="829.99" transform="rotate(10.5696 509.447 -1.91895)" fill="white" fill-opacity="0.5"/>
<rect x="479.285" y="-7.54688" width="1.07392" height="829.99" transform="rotate(10.5696 479.285 -7.54688)" fill="white" fill-opacity="0.5"/>
<rect x="515.482" y="-0.792969" width="1.07392" height="829.99" transform="rotate(10.5696 515.482 -0.792969)" fill="white" fill-opacity="0.5"/>
<rect x="485.317" y="-6.42188" width="1.07392" height="829.99" transform="rotate(10.5696 485.317 -6.42188)" fill="white" fill-opacity="0.5"/>
<rect x="521.515" y="0.332031" width="1.07392" height="829.99" transform="rotate(10.5696 521.515 0.332031)" fill="white" fill-opacity="0.5"/>
<rect x="527.547" y="1.45703" width="1.07392" height="829.99" transform="rotate(10.5696 527.547 1.45703)" fill="white" fill-opacity="0.5"/>
<rect x="563.741" y="8.21094" width="1.07392" height="829.99" transform="rotate(10.5696 563.741 8.21094)" fill="white" fill-opacity="0.5"/>
<rect x="533.578" y="2.58301" width="1.07392" height="829.99" transform="rotate(10.5696 533.578 2.58301)" fill="white" fill-opacity="0.5"/>
<rect x="569.773" y="9.33789" width="1.07392" height="829.99" transform="rotate(10.5696 569.773 9.33789)" fill="white" fill-opacity="0.5"/>
<rect x="539.611" y="3.70898" width="1.07392" height="829.99" transform="rotate(10.5696 539.611 3.70898)" fill="white" fill-opacity="0.5"/>
<rect x="575.808" y="10.4629" width="1.07392" height="829.99" transform="rotate(10.5696 575.808 10.4629)" fill="white" fill-opacity="0.5"/>
<rect x="545.645" y="4.83398" width="1.07392" height="829.99" transform="rotate(10.5696 545.645 4.83398)" fill="white" fill-opacity="0.5"/>
<rect x="581.84" y="11.5889" width="1.07392" height="829.99" transform="rotate(10.5696 581.84 11.5889)" fill="white" fill-opacity="0.5"/>
<rect x="551.677" y="5.96094" width="1.07392" height="829.99" transform="rotate(10.5696 551.677 5.96094)" fill="white" fill-opacity="0.5"/>
<rect x="587.872" y="12.7148" width="1.07392" height="829.99" transform="rotate(10.5696 587.872 12.7148)" fill="white" fill-opacity="0.5"/>
<rect x="557.71" y="7.08594" width="1.07392" height="829.99" transform="rotate(10.5696 557.71 7.08594)" fill="white" fill-opacity="0.5"/>
<rect x="593.904" y="13.8398" width="1.07392" height="829.99" transform="rotate(10.5696 593.904 13.8398)" fill="white" fill-opacity="0.5"/>
<rect x="599.939" y="14.9658" width="1.07392" height="829.99" transform="rotate(10.5696 599.939 14.9658)" fill="white" fill-opacity="0.5"/>
<rect x="605.971" y="16.0918" width="1.07392" height="829.99" transform="rotate(10.5696 605.971 16.0918)" fill="white" fill-opacity="0.5"/>
<rect x="612.003" y="17.2178" width="1.07392" height="829.99" transform="rotate(10.5696 612.003 17.2178)" fill="white" fill-opacity="0.5"/>
<rect x="618.035" y="18.3428" width="1.07392" height="829.99" transform="rotate(10.5696 618.035 18.3428)" fill="white" fill-opacity="0.5"/>
<rect x="624.066" y="19.4688" width="1.07392" height="829.99" transform="rotate(10.5696 624.066 19.4688)" fill="white" fill-opacity="0.5"/>
</g>
</svg>
