<svg width="410" height="569" viewBox="0 0 410 569" fill="none" xmlns="http://www.w3.org/2000/svg">
<mask id="mask0_522_23460" style="mask-type:alpha" maskUnits="userSpaceOnUse" x="0" y="0" width="410" height="569">
<rect width="410" height="569" fill="white" fill-opacity="0.3"/>
</mask>
<g mask="url(#mask0_522_23460)">
<rect width="0.669378" height="519.213" rx="0.334689" transform="matrix(0.982904 0.184121 -0.182742 0.983161 9.45508 -118.052)" fill="black"/>
<rect width="0.669378" height="519.213" rx="0.334689" transform="matrix(0.982904 0.184121 -0.182742 0.983161 13.2168 -117.348)" fill="black"/>
<rect width="0.669378" height="519.213" rx="0.334689" transform="matrix(0.982904 0.184121 -0.182742 0.983161 16.9785 -116.643)" fill="black"/>
<rect width="0.669378" height="519.213" rx="0.334689" transform="matrix(0.982904 0.184121 -0.182742 0.983161 20.7363 -115.939)" fill="black"/>
<rect width="0.669378" height="519.213" rx="0.334689" transform="matrix(0.982904 0.184121 -0.182742 0.983161 1.94141 -119.46)" fill="black"/>
<rect width="0.669378" height="519.213" rx="0.334689" transform="matrix(0.982904 0.184121 -0.182742 0.983161 24.4941 -115.235)" fill="black"/>
<rect width="0.669378" height="519.213" rx="0.334689" transform="matrix(0.982904 0.184121 -0.182742 0.983161 5.69922 -118.756)" fill="black"/>
<rect width="0.669378" height="519.213" rx="0.334689" transform="matrix(0.982904 0.184121 -0.182742 0.983161 28.2598 -114.531)" fill="black"/>
<rect width="0.669378" height="519.213" rx="0.334689" transform="matrix(0.982904 0.184121 -0.182742 0.983161 32.0156 -113.826)" fill="black"/>
<rect width="0.669378" height="519.213" rx="0.334689" transform="matrix(0.982904 0.184121 -0.182742 0.983161 54.5742 -109.601)" fill="black"/>
<rect width="0.669378" height="519.213" rx="0.334689" transform="matrix(0.982904 0.184121 -0.182742 0.983161 35.7754 -113.122)" fill="black"/>
<rect width="0.669378" height="519.213" rx="0.334689" transform="matrix(0.982904 0.184121 -0.182742 0.983161 58.334 -108.896)" fill="black"/>
<rect width="0.669378" height="519.213" rx="0.334689" transform="matrix(0.982904 0.184121 -0.182742 0.983161 39.5371 -112.418)" fill="black"/>
<rect width="0.669378" height="519.213" rx="0.334689" transform="matrix(0.982904 0.184121 -0.182742 0.983161 62.0898 -108.192)" fill="black"/>
<rect width="0.669378" height="519.213" rx="0.334689" transform="matrix(0.982904 0.184121 -0.182742 0.983161 43.2949 -111.713)" fill="black"/>
<rect width="0.669378" height="519.213" rx="0.334689" transform="matrix(0.982904 0.184121 -0.182742 0.983161 65.8555 -107.488)" fill="black"/>
<rect width="0.669378" height="519.213" rx="0.334689" transform="matrix(0.982904 0.184121 -0.182742 0.983161 47.0547 -111.009)" fill="black"/>
<rect width="0.669378" height="519.213" rx="0.334689" transform="matrix(0.982904 0.184121 -0.182742 0.983161 69.6133 -106.784)" fill="black"/>
<rect width="0.669378" height="519.213" rx="0.334689" transform="matrix(0.982904 0.184121 -0.182742 0.983161 50.8184 -110.305)" fill="black"/>
<rect width="0.669378" height="519.213" rx="0.334689" transform="matrix(0.982904 0.184121 -0.182742 0.983161 73.3711 -106.079)" fill="black"/>
<rect width="0.669378" height="519.213" rx="0.334689" transform="matrix(0.982904 0.184121 -0.182742 0.983161 77.1328 -105.375)" fill="black"/>
<rect width="0.669378" height="519.213" rx="0.334689" transform="matrix(0.982904 0.184121 -0.182742 0.983161 99.6914 -101.15)" fill="black"/>
<rect width="0.669378" height="519.213" rx="0.334689" transform="matrix(0.982904 0.184121 -0.182742 0.983161 80.8926 -104.671)" fill="black"/>
<rect width="0.669378" height="519.213" rx="0.334689" transform="matrix(0.982904 0.184121 -0.182742 0.983161 103.449 -100.445)" fill="black"/>
<rect width="0.669378" height="519.213" rx="0.334689" transform="matrix(0.982904 0.184121 -0.182742 0.983161 84.6504 -103.967)" fill="black"/>
<rect width="0.669378" height="519.213" rx="0.334689" transform="matrix(0.982904 0.184121 -0.182742 0.983161 107.209 -99.7409)" fill="black"/>
<rect width="0.669378" height="519.213" rx="0.334689" transform="matrix(0.982904 0.184121 -0.182742 0.983161 88.4121 -103.262)" fill="black"/>
<rect width="0.669378" height="519.213" rx="0.334689" transform="matrix(0.982904 0.184121 -0.182742 0.983161 110.965 -99.0366)" fill="black"/>
<rect width="0.669378" height="519.213" rx="0.334689" transform="matrix(0.982904 0.184121 -0.182742 0.983161 92.1699 -102.558)" fill="black"/>
<rect width="0.669378" height="519.213" rx="0.334689" transform="matrix(0.982904 0.184121 -0.182742 0.983161 114.729 -98.3324)" fill="black"/>
<rect width="0.669378" height="519.213" rx="0.334689" transform="matrix(0.982904 0.184121 -0.182742 0.983161 95.9277 -101.854)" fill="black"/>
<rect width="0.669378" height="519.213" rx="0.334689" transform="matrix(0.982904 0.184121 -0.182742 0.983161 118.488 -97.6282)" fill="black"/>
<rect width="0.669378" height="519.213" rx="0.334689" transform="matrix(0.982904 0.184121 -0.182742 0.983161 122.246 -96.9239)" fill="black"/>
<rect width="0.669378" height="519.213" rx="0.334689" transform="matrix(0.982904 0.184121 -0.182742 0.983161 144.805 -92.6984)" fill="black"/>
<rect width="0.669378" height="519.213" rx="0.334689" transform="matrix(0.982904 0.184121 -0.182742 0.983161 126.008 -96.2197)" fill="black"/>
<rect width="0.669378" height="519.213" rx="0.334689" transform="matrix(0.982904 0.184121 -0.182742 0.983161 148.561 -91.9939)" fill="black"/>
<rect width="0.669378" height="519.213" rx="0.334689" transform="matrix(0.982904 0.184121 -0.182742 0.983161 129.768 -95.5155)" fill="black"/>
<rect width="0.669378" height="519.213" rx="0.334689" transform="matrix(0.982904 0.184121 -0.182742 0.983161 152.326 -91.2897)" fill="black"/>
<rect width="0.669378" height="519.213" rx="0.334689" transform="matrix(0.982904 0.184121 -0.182742 0.983161 133.525 -94.811)" fill="black"/>
<rect width="0.669378" height="519.213" rx="0.334689" transform="matrix(0.982904 0.184121 -0.182742 0.983161 156.084 -90.5856)" fill="black"/>
<rect width="0.669378" height="519.213" rx="0.334689" transform="matrix(0.982904 0.184121 -0.182742 0.983161 137.289 -94.1068)" fill="black"/>
<rect width="0.669378" height="519.213" rx="0.334689" transform="matrix(0.982904 0.184121 -0.182742 0.983161 159.842 -89.8812)" fill="black"/>
<rect width="0.669378" height="519.213" rx="0.334689" transform="matrix(0.982904 0.184121 -0.182742 0.983161 141.047 -93.4026)" fill="black"/>
<rect width="0.669378" height="519.213" rx="0.334689" transform="matrix(0.982904 0.184121 -0.182742 0.983161 163.604 -89.177)" fill="black"/>
<rect width="0.669378" height="519.213" rx="0.334689" transform="matrix(0.982904 0.184121 -0.182742 0.983161 167.365 -88.4729)" fill="black"/>
<rect width="0.669378" height="519.213" rx="0.334689" transform="matrix(0.982904 0.184121 -0.182742 0.983161 189.922 -84.2473)" fill="black"/>
<rect width="0.669378" height="519.213" rx="0.334689" transform="matrix(0.982904 0.184121 -0.182742 0.983161 171.121 -87.7686)" fill="black"/>
<rect width="0.669378" height="519.213" rx="0.334689" transform="matrix(0.982904 0.184121 -0.182742 0.983161 193.68 -83.5428)" fill="black"/>
<rect width="0.669378" height="519.213" rx="0.334689" transform="matrix(0.982904 0.184121 -0.182742 0.983161 174.883 -87.0641)" fill="black"/>
<rect width="0.669378" height="519.213" rx="0.334689" transform="matrix(0.982904 0.184121 -0.182742 0.983161 197.436 -82.8385)" fill="black"/>
<rect width="0.669378" height="519.213" rx="0.334689" transform="matrix(0.982904 0.184121 -0.182742 0.983161 178.643 -86.36)" fill="black"/>
<rect width="0.669378" height="519.213" rx="0.334689" transform="matrix(0.982904 0.184121 -0.182742 0.983161 201.201 -82.1343)" fill="black"/>
<rect width="0.669378" height="519.213" rx="0.334689" transform="matrix(0.982904 0.184121 -0.182742 0.983161 182.398 -85.6556)" fill="black"/>
<rect width="0.669378" height="519.213" rx="0.334689" transform="matrix(0.982904 0.184121 -0.182742 0.983161 204.959 -81.43)" fill="black"/>
<rect width="0.669378" height="519.213" rx="0.334689" transform="matrix(0.982904 0.184121 -0.182742 0.983161 186.162 -84.9515)" fill="black"/>
<rect width="0.669378" height="519.213" rx="0.334689" transform="matrix(0.982904 0.184121 -0.182742 0.983161 208.717 -80.726)" fill="black"/>
<rect width="0.669378" height="519.213" rx="0.334689" transform="matrix(0.982904 0.184121 -0.182742 0.983161 212.48 -80.0216)" fill="black"/>
<rect width="0.669378" height="519.213" rx="0.334689" transform="matrix(0.982904 0.184121 -0.182742 0.983161 235.031 -75.7959)" fill="black"/>
<rect width="0.669378" height="519.213" rx="0.334689" transform="matrix(0.982904 0.184121 -0.182742 0.983161 216.238 -79.3172)" fill="black"/>
<rect width="0.669378" height="519.213" rx="0.334689" transform="matrix(0.982904 0.184121 -0.182742 0.983161 238.799 -75.0918)" fill="black"/>
<rect width="0.669378" height="519.213" rx="0.334689" transform="matrix(0.982904 0.184121 -0.182742 0.983161 219.996 -78.6132)" fill="black"/>
<rect width="0.669378" height="519.213" rx="0.334689" transform="matrix(0.982904 0.184121 -0.182742 0.983161 242.555 -74.3875)" fill="black"/>
<rect width="0.669378" height="519.213" rx="0.334689" transform="matrix(0.982904 0.184121 -0.182742 0.983161 223.76 -77.9088)" fill="black"/>
<rect width="0.669378" height="519.213" rx="0.334689" transform="matrix(0.982904 0.184121 -0.182742 0.983161 246.312 -73.6831)" fill="black"/>
<rect width="0.669378" height="519.213" rx="0.334689" transform="matrix(0.982904 0.184121 -0.182742 0.983161 227.518 -77.2045)" fill="black"/>
<rect width="0.669378" height="519.213" rx="0.334689" transform="matrix(0.982904 0.184121 -0.182742 0.983161 250.076 -72.9789)" fill="black"/>
<rect width="0.669378" height="519.213" rx="0.334689" transform="matrix(0.982904 0.184121 -0.182742 0.983161 231.275 -76.5)" fill="black"/>
<rect width="0.669378" height="519.213" rx="0.334689" transform="matrix(0.982904 0.184121 -0.182742 0.983161 253.834 -72.2745)" fill="black"/>
<rect width="0.669378" height="519.213" rx="0.334689" transform="matrix(0.982904 0.184121 -0.182742 0.983161 257.105 -71.6619)" fill="black"/>
<rect width="0.669378" height="519.213" rx="0.334689" transform="matrix(0.982904 0.184121 -0.182742 0.983161 279.664 -67.436)" fill="black"/>
<rect width="0.669378" height="519.213" rx="0.334689" transform="matrix(0.982904 0.184121 -0.182742 0.983161 260.863 -70.9576)" fill="black"/>
<rect width="0.669378" height="519.213" rx="0.334689" transform="matrix(0.982904 0.184121 -0.182742 0.983161 283.424 -66.7322)" fill="black"/>
<rect width="0.669378" height="519.213" rx="0.334689" transform="matrix(0.982904 0.184121 -0.182742 0.983161 264.627 -70.2533)" fill="black"/>
<rect width="0.669378" height="519.213" rx="0.334689" transform="matrix(0.982904 0.184121 -0.182742 0.983161 287.18 -66.0278)" fill="black"/>
<rect width="0.669378" height="519.213" rx="0.334689" transform="matrix(0.982904 0.184121 -0.182742 0.983161 268.387 -69.5491)" fill="black"/>
<rect width="0.669378" height="519.213" rx="0.334689" transform="matrix(0.982904 0.184121 -0.182742 0.983161 290.945 -65.3235)" fill="black"/>
<rect width="0.669378" height="519.213" rx="0.334689" transform="matrix(0.982904 0.184121 -0.182742 0.983161 272.143 -68.8448)" fill="black"/>
<rect width="0.669378" height="519.213" rx="0.334689" transform="matrix(0.982904 0.184121 -0.182742 0.983161 294.701 -64.619)" fill="black"/>
<rect width="0.669378" height="519.213" rx="0.334689" transform="matrix(0.982904 0.184121 -0.182742 0.983161 275.902 -68.1405)" fill="black"/>
<rect width="0.669378" height="519.213" rx="0.334689" transform="matrix(0.982904 0.184121 -0.182742 0.983161 298.459 -63.9148)" fill="black"/>
<rect width="0.669378" height="519.213" rx="0.334689" transform="matrix(0.982904 0.184121 -0.182742 0.983161 302.225 -63.2107)" fill="black"/>
<rect width="0.669378" height="519.213" rx="0.334689" transform="matrix(0.982904 0.184121 -0.182742 0.983161 324.777 -58.9851)" fill="black"/>
<rect width="0.669378" height="519.213" rx="0.334689" transform="matrix(0.982904 0.184121 -0.182742 0.983161 305.982 -62.5063)" fill="black"/>
<rect width="0.669378" height="519.213" rx="0.334689" transform="matrix(0.982904 0.184121 -0.182742 0.983161 328.541 -58.2808)" fill="black"/>
<rect width="0.669378" height="519.213" rx="0.334689" transform="matrix(0.982904 0.184121 -0.182742 0.983161 309.738 -61.8022)" fill="black"/>
<rect width="0.669378" height="519.213" rx="0.334689" transform="matrix(0.982904 0.184121 -0.182742 0.983161 332.297 -57.5764)" fill="black"/>
<rect width="0.669378" height="519.213" rx="0.334689" transform="matrix(0.982904 0.184121 -0.182742 0.983161 313.502 -61.098)" fill="black"/>
<rect width="0.669378" height="519.213" rx="0.334689" transform="matrix(0.982904 0.184121 -0.182742 0.983161 336.059 -56.8723)" fill="black"/>
<rect width="0.669378" height="519.213" rx="0.334689" transform="matrix(0.982904 0.184121 -0.182742 0.983161 317.26 -60.3937)" fill="black"/>
<rect width="0.669378" height="519.213" rx="0.334689" transform="matrix(0.982904 0.184121 -0.182742 0.983161 339.82 -56.1681)" fill="black"/>
<rect width="0.669378" height="519.213" rx="0.334689" transform="matrix(0.982904 0.184121 -0.182742 0.983161 321.02 -59.6895)" fill="black"/>
<rect width="0.669378" height="519.213" rx="0.334689" transform="matrix(0.982904 0.184121 -0.182742 0.983161 343.576 -55.4637)" fill="black"/>
<rect width="0.669378" height="519.213" rx="0.334689" transform="matrix(0.982904 0.184121 -0.182742 0.983161 347.336 -54.7594)" fill="black"/>
<rect width="0.669378" height="519.213" rx="0.334689" transform="matrix(0.982904 0.184121 -0.182742 0.983161 369.893 -50.5338)" fill="black"/>
<rect width="0.669378" height="519.213" rx="0.334689" transform="matrix(0.982904 0.184121 -0.182742 0.983161 351.098 -54.0552)" fill="black"/>
<rect width="0.669378" height="519.213" rx="0.334689" transform="matrix(0.982904 0.184121 -0.182742 0.983161 373.652 -49.8296)" fill="black"/>
<rect width="0.669378" height="519.213" rx="0.334689" transform="matrix(0.982904 0.184121 -0.182742 0.983161 354.857 -53.3511)" fill="black"/>
<rect width="0.669378" height="519.213" rx="0.334689" transform="matrix(0.982904 0.184121 -0.182742 0.983161 377.416 -49.1254)" fill="black"/>
<rect width="0.669378" height="519.213" rx="0.334689" transform="matrix(0.982904 0.184121 -0.182742 0.983161 358.613 -52.6467)" fill="black"/>
<rect width="0.669378" height="519.213" rx="0.334689" transform="matrix(0.982904 0.184121 -0.182742 0.983161 381.172 -48.4211)" fill="black"/>
<rect width="0.669378" height="519.213" rx="0.334689" transform="matrix(0.982904 0.184121 -0.182742 0.983161 362.373 -51.9426)" fill="black"/>
<rect width="0.669378" height="519.213" rx="0.334689" transform="matrix(0.982904 0.184121 -0.182742 0.983161 384.932 -47.7168)" fill="black"/>
<rect width="0.669378" height="519.213" rx="0.334689" transform="matrix(0.982904 0.184121 -0.182742 0.983161 366.135 -51.2383)" fill="black"/>
<rect width="0.669378" height="519.213" rx="0.334689" transform="matrix(0.982904 0.184121 -0.182742 0.983161 388.695 -47.0126)" fill="black"/>
<rect width="0.669378" height="519.213" rx="0.334689" transform="matrix(0.982904 0.184121 -0.182742 0.983161 392.453 -46.3085)" fill="black"/>
<rect width="0.669378" height="519.213" rx="0.334689" transform="matrix(0.982904 0.184121 -0.182742 0.983161 415.012 -42.0826)" fill="black"/>
<rect width="0.669378" height="519.213" rx="0.334689" transform="matrix(0.982904 0.184121 -0.182742 0.983161 396.211 -45.6042)" fill="black"/>
<rect width="0.669378" height="519.213" rx="0.334689" transform="matrix(0.982904 0.184121 -0.182742 0.983161 418.77 -41.3784)" fill="black"/>
<rect width="0.669378" height="519.213" rx="0.334689" transform="matrix(0.982904 0.184121 -0.182742 0.983161 399.973 -44.8999)" fill="black"/>
<rect width="0.669378" height="519.213" rx="0.334689" transform="matrix(0.982904 0.184121 -0.182742 0.983161 422.529 -40.6743)" fill="black"/>
<rect width="0.669378" height="519.213" rx="0.334689" transform="matrix(0.982904 0.184121 -0.182742 0.983161 403.73 -44.1953)" fill="black"/>
<rect width="0.669378" height="519.213" rx="0.334689" transform="matrix(0.982904 0.184121 -0.182742 0.983161 426.291 -39.97)" fill="black"/>
<rect width="0.669378" height="519.213" rx="0.334689" transform="matrix(0.982904 0.184121 -0.182742 0.983161 407.49 -43.4913)" fill="black"/>
<rect width="0.669378" height="519.213" rx="0.334689" transform="matrix(0.982904 0.184121 -0.182742 0.983161 430.051 -39.2656)" fill="black"/>
<rect width="0.669378" height="519.213" rx="0.334689" transform="matrix(0.982904 0.184121 -0.182742 0.983161 411.248 -42.787)" fill="black"/>
<rect width="0.669378" height="519.213" rx="0.334689" transform="matrix(0.982904 0.184121 -0.182742 0.983161 433.807 -38.5614)" fill="black"/>
<rect width="0.669378" height="519.213" rx="0.334689" transform="matrix(0.982904 0.184121 -0.182742 0.983161 437.568 -37.8572)" fill="black"/>
<rect width="0.669378" height="519.213" rx="0.334689" transform="matrix(0.982904 0.184121 -0.182742 0.983161 460.123 -33.6317)" fill="black"/>
<rect width="0.669378" height="519.213" rx="0.334689" transform="matrix(0.982904 0.184121 -0.182742 0.983161 441.328 -37.153)" fill="black"/>
<rect width="0.669378" height="519.213" rx="0.334689" transform="matrix(0.982904 0.184121 -0.182742 0.983161 463.887 -32.9271)" fill="black"/>
<rect width="0.669378" height="519.213" rx="0.334689" transform="matrix(0.982904 0.184121 -0.182742 0.983161 445.086 -36.4486)" fill="black"/>
<rect width="0.669378" height="519.213" rx="0.334689" transform="matrix(0.982904 0.184121 -0.182742 0.983161 467.645 -32.223)" fill="black"/>
<rect width="0.669378" height="519.213" rx="0.334689" transform="matrix(0.982904 0.184121 -0.182742 0.983161 448.846 -35.7444)" fill="black"/>
<rect width="0.669378" height="519.213" rx="0.334689" transform="matrix(0.982904 0.184121 -0.182742 0.983161 471.402 -31.5187)" fill="black"/>
<rect width="0.669378" height="519.213" rx="0.334689" transform="matrix(0.982904 0.184121 -0.182742 0.983161 452.605 -35.0402)" fill="black"/>
<rect width="0.669378" height="519.213" rx="0.334689" transform="matrix(0.982904 0.184121 -0.182742 0.983161 475.166 -30.8146)" fill="black"/>
<rect width="0.669378" height="519.213" rx="0.334689" transform="matrix(0.982904 0.184121 -0.182742 0.983161 456.365 -34.3357)" fill="black"/>
<rect width="0.669378" height="519.213" rx="0.334689" transform="matrix(0.982904 0.184121 -0.182742 0.983161 478.926 -30.1103)" fill="black"/>
<rect width="0.669378" height="519.213" rx="0.334689" transform="matrix(0.982904 0.184121 -0.182742 0.983161 482.682 -29.406)" fill="black"/>
<rect width="0.669378" height="519.213" rx="0.334689" transform="matrix(0.982904 0.184121 -0.182742 0.983161 486.445 -28.7017)" fill="black"/>
<rect width="0.669378" height="519.213" rx="0.334689" transform="matrix(0.982904 0.184121 -0.182742 0.983161 490.203 -27.9973)" fill="black"/>
<rect width="0.669378" height="519.213" rx="0.334689" transform="matrix(0.982904 0.184121 -0.182742 0.983161 493.963 -27.2932)" fill="black"/>
<rect width="0.669378" height="519.213" rx="0.334689" transform="matrix(0.982904 0.184121 -0.182742 0.983161 497.719 -26.589)" fill="black"/>
<rect width="0.669378" height="519.213" rx="0.334689" transform="matrix(0.982904 0.184121 -0.182742 0.983161 501.484 -25.8846)" fill="black"/>
<rect width="0.669378" height="519.213" rx="0.334689" transform="matrix(0.982904 0.184121 -0.182742 0.983161 481.891 373.163)" fill="black"/>
<rect width="0.669378" height="519.213" rx="0.334689" transform="matrix(0.982904 0.184121 -0.182742 0.983161 504.449 377.389)" fill="black"/>
<rect width="0.669378" height="519.213" rx="0.334689" transform="matrix(0.982904 0.184121 -0.182742 0.983161 485.646 373.867)" fill="black"/>
<rect width="0.669378" height="519.213" rx="0.334689" transform="matrix(0.982904 0.184121 -0.182742 0.983161 489.412 374.572)" fill="black"/>
<rect width="0.669378" height="519.213" rx="0.334689" transform="matrix(0.982904 0.184121 -0.182742 0.983161 493.17 375.276)" fill="black"/>
<rect width="0.669378" height="519.213" rx="0.334689" transform="matrix(0.982904 0.184121 -0.182742 0.983161 496.928 375.98)" fill="black"/>
<rect width="0.669378" height="519.213" rx="0.334689" transform="matrix(0.982904 0.184121 -0.182742 0.983161 500.686 376.685)" fill="black"/>
<rect width="0.669378" height="519.213" rx="0.334689" transform="matrix(0.982904 0.184121 -0.182742 0.983161 1.16992 407.86)" fill="black"/>
<rect width="0.669378" height="519.213" rx="0.334689" transform="matrix(0.982904 0.184121 -0.182742 0.983161 4.93164 408.564)" fill="black"/>
<rect width="0.669378" height="519.213" rx="0.334689" transform="matrix(0.982904 0.184121 -0.182742 0.983161 8.69336 409.268)" fill="black"/>
<rect width="0.669378" height="519.213" rx="0.334689" transform="matrix(0.982904 0.184121 -0.182742 0.983161 31.25 413.494)" fill="black"/>
<rect width="0.669378" height="519.213" rx="0.334689" transform="matrix(0.982904 0.184121 -0.182742 0.983161 12.4492 409.973)" fill="black"/>
<rect width="0.669378" height="519.213" rx="0.334689" transform="matrix(0.982904 0.184121 -0.182742 0.983161 35.0078 414.198)" fill="black"/>
<rect width="0.669378" height="519.213" rx="0.334689" transform="matrix(0.982904 0.184121 -0.182742 0.983161 16.2109 410.677)" fill="black"/>
<rect width="0.669378" height="519.213" rx="0.334689" transform="matrix(0.982904 0.184121 -0.182742 0.983161 38.7637 414.903)" fill="black"/>
<rect width="0.669378" height="519.213" rx="0.334689" transform="matrix(0.982904 0.184121 -0.182742 0.983161 19.9707 411.381)" fill="black"/>
<rect width="0.669378" height="519.213" rx="0.334689" transform="matrix(0.982904 0.184121 -0.182742 0.983161 42.5293 415.607)" fill="black"/>
<rect width="0.669378" height="519.213" rx="0.334689" transform="matrix(0.982904 0.184121 -0.182742 0.983161 23.7266 412.086)" fill="black"/>
<rect width="0.669378" height="519.213" rx="0.334689" transform="matrix(0.982904 0.184121 -0.182742 0.983161 46.2871 416.311)" fill="black"/>
<rect width="0.669378" height="519.213" rx="0.334689" transform="matrix(0.982904 0.184121 -0.182742 0.983161 27.4863 412.79)" fill="black"/>
<rect width="0.669378" height="519.213" rx="0.334689" transform="matrix(0.982904 0.184121 -0.182742 0.983161 50.0449 417.016)" fill="black"/>
<rect width="0.669378" height="519.213" rx="0.334689" transform="matrix(0.982904 0.184121 -0.182742 0.983161 53.8086 417.72)" fill="black"/>
<rect width="0.669378" height="519.213" rx="0.334689" transform="matrix(0.982904 0.184121 -0.182742 0.983161 76.3594 421.945)" fill="black"/>
<rect width="0.669378" height="519.213" rx="0.334689" transform="matrix(0.982904 0.184121 -0.182742 0.983161 57.5664 418.424)" fill="black"/>
<rect width="0.669378" height="519.213" rx="0.334689" transform="matrix(0.982904 0.184121 -0.182742 0.983161 80.127 422.649)" fill="black"/>
<rect width="0.669378" height="519.213" rx="0.334689" transform="matrix(0.982904 0.184121 -0.182742 0.983161 61.3242 419.128)" fill="black"/>
<rect width="0.669378" height="519.213" rx="0.334689" transform="matrix(0.982904 0.184121 -0.182742 0.983161 83.8828 423.354)" fill="black"/>
<rect width="0.669378" height="519.213" rx="0.334689" transform="matrix(0.982904 0.184121 -0.182742 0.983161 65.082 419.833)" fill="black"/>
<rect width="0.669378" height="519.213" rx="0.334689" transform="matrix(0.982904 0.184121 -0.182742 0.983161 87.6406 424.058)" fill="black"/>
<rect width="0.669378" height="519.213" rx="0.334689" transform="matrix(0.982904 0.184121 -0.182742 0.983161 68.8457 420.537)" fill="black"/>
<rect width="0.669378" height="519.213" rx="0.334689" transform="matrix(0.982904 0.184121 -0.182742 0.983161 91.4043 424.762)" fill="black"/>
<rect width="0.669378" height="519.213" rx="0.334689" transform="matrix(0.982904 0.184121 -0.182742 0.983161 72.6035 421.241)" fill="black"/>
<rect width="0.669378" height="519.213" rx="0.334689" transform="matrix(0.982904 0.184121 -0.182742 0.983161 95.1602 425.467)" fill="black"/>
<rect width="0.669378" height="519.213" rx="0.334689" transform="matrix(0.982904 0.184121 -0.182742 0.983161 98.4336 426.08)" fill="black"/>
<rect width="0.669378" height="519.213" rx="0.334689" transform="matrix(0.982904 0.184121 -0.182742 0.983161 120.992 430.305)" fill="black"/>
<rect width="0.669378" height="519.213" rx="0.334689" transform="matrix(0.982904 0.184121 -0.182742 0.983161 102.191 426.784)" fill="black"/>
<rect width="0.669378" height="519.213" rx="0.334689" transform="matrix(0.982904 0.184121 -0.182742 0.983161 124.752 431.009)" fill="black"/>
<rect width="0.669378" height="519.213" rx="0.334689" transform="matrix(0.982904 0.184121 -0.182742 0.983161 105.949 427.488)" fill="black"/>
<rect width="0.669378" height="519.213" rx="0.334689" transform="matrix(0.982904 0.184121 -0.182742 0.983161 128.508 431.714)" fill="black"/>
<rect width="0.669378" height="519.213" rx="0.334689" transform="matrix(0.982904 0.184121 -0.182742 0.983161 109.715 428.192)" fill="black"/>
<rect width="0.669378" height="519.213" rx="0.334689" transform="matrix(0.982904 0.184121 -0.182742 0.983161 132.273 432.418)" fill="black"/>
<rect width="0.669378" height="519.213" rx="0.334689" transform="matrix(0.982904 0.184121 -0.182742 0.983161 113.471 428.896)" fill="black"/>
<rect width="0.669378" height="519.213" rx="0.334689" transform="matrix(0.982904 0.184121 -0.182742 0.983161 136.029 433.122)" fill="black"/>
<rect width="0.669378" height="519.213" rx="0.334689" transform="matrix(0.982904 0.184121 -0.182742 0.983161 117.23 429.601)" fill="black"/>
<rect width="0.669378" height="519.213" rx="0.334689" transform="matrix(0.982904 0.184121 -0.182742 0.983161 139.787 433.826)" fill="black"/>
<rect width="0.669378" height="519.213" rx="0.334689" transform="matrix(0.982904 0.184121 -0.182742 0.983161 143.551 434.53)" fill="black"/>
<rect width="0.669378" height="519.213" rx="0.334689" transform="matrix(0.982904 0.184121 -0.182742 0.983161 166.105 438.756)" fill="black"/>
<rect width="0.669378" height="519.213" rx="0.334689" transform="matrix(0.982904 0.184121 -0.182742 0.983161 147.311 435.235)" fill="black"/>
<rect width="0.669378" height="519.213" rx="0.334689" transform="matrix(0.982904 0.184121 -0.182742 0.983161 169.869 439.46)" fill="black"/>
<rect width="0.669378" height="519.213" rx="0.334689" transform="matrix(0.982904 0.184121 -0.182742 0.983161 151.066 435.939)" fill="black"/>
<rect width="0.669378" height="519.213" rx="0.334689" transform="matrix(0.982904 0.184121 -0.182742 0.983161 173.625 440.165)" fill="black"/>
<rect width="0.669378" height="519.213" rx="0.334689" transform="matrix(0.982904 0.184121 -0.182742 0.983161 154.824 436.643)" fill="black"/>
<rect width="0.669378" height="519.213" rx="0.334689" transform="matrix(0.982904 0.184121 -0.182742 0.983161 177.385 440.869)" fill="black"/>
<rect width="0.669378" height="519.213" rx="0.334689" transform="matrix(0.982904 0.184121 -0.182742 0.983161 158.588 437.348)" fill="black"/>
<rect width="0.669378" height="519.213" rx="0.334689" transform="matrix(0.982904 0.184121 -0.182742 0.983161 181.148 441.573)" fill="black"/>
<rect width="0.669378" height="519.213" rx="0.334689" transform="matrix(0.982904 0.184121 -0.182742 0.983161 162.346 438.052)" fill="black"/>
<rect width="0.669378" height="519.213" rx="0.334689" transform="matrix(0.982904 0.184121 -0.182742 0.983161 184.904 442.277)" fill="black"/>
<rect width="0.669378" height="519.213" rx="0.334689" transform="matrix(0.982904 0.184121 -0.182742 0.983161 188.664 442.982)" fill="black"/>
<rect width="0.669378" height="519.213" rx="0.334689" transform="matrix(0.982904 0.184121 -0.182742 0.983161 211.221 447.208)" fill="black"/>
<rect width="0.669378" height="519.213" rx="0.334689" transform="matrix(0.982904 0.184121 -0.182742 0.983161 192.42 443.686)" fill="black"/>
<rect width="0.669378" height="519.213" rx="0.334689" transform="matrix(0.982904 0.184121 -0.182742 0.983161 214.98 447.912)" fill="black"/>
<rect width="0.669378" height="519.213" rx="0.334689" transform="matrix(0.982904 0.184121 -0.182742 0.983161 196.186 444.39)" fill="black"/>
<rect width="0.669378" height="519.213" rx="0.334689" transform="matrix(0.982904 0.184121 -0.182742 0.983161 218.744 448.616)" fill="black"/>
<rect width="0.669378" height="519.213" rx="0.334689" transform="matrix(0.982904 0.184121 -0.182742 0.983161 199.943 445.095)" fill="black"/>
<rect width="0.669378" height="519.213" rx="0.334689" transform="matrix(0.982904 0.184121 -0.182742 0.983161 222.5 449.32)" fill="black"/>
<rect width="0.669378" height="519.213" rx="0.334689" transform="matrix(0.982904 0.184121 -0.182742 0.983161 203.701 445.799)" fill="black"/>
<rect width="0.669378" height="519.213" rx="0.334689" transform="matrix(0.982904 0.184121 -0.182742 0.983161 226.26 450.024)" fill="black"/>
<rect width="0.669378" height="519.213" rx="0.334689" transform="matrix(0.982904 0.184121 -0.182742 0.983161 207.463 446.503)" fill="black"/>
<rect width="0.669378" height="519.213" rx="0.334689" transform="matrix(0.982904 0.184121 -0.182742 0.983161 230.023 450.729)" fill="black"/>
<rect width="0.669378" height="519.213" rx="0.334689" transform="matrix(0.982904 0.184121 -0.182742 0.983161 233.781 451.433)" fill="black"/>
<rect width="0.669378" height="519.213" rx="0.334689" transform="matrix(0.982904 0.184121 -0.182742 0.983161 256.34 455.658)" fill="black"/>
<rect width="0.669378" height="519.213" rx="0.334689" transform="matrix(0.982904 0.184121 -0.182742 0.983161 237.539 452.137)" fill="black"/>
<rect width="0.669378" height="519.213" rx="0.334689" transform="matrix(0.982904 0.184121 -0.182742 0.983161 260.098 456.363)" fill="black"/>
<rect width="0.669378" height="519.213" rx="0.334689" transform="matrix(0.982904 0.184121 -0.182742 0.983161 241.297 452.842)" fill="black"/>
<rect width="0.669378" height="519.213" rx="0.334689" transform="matrix(0.982904 0.184121 -0.182742 0.983161 263.857 457.067)" fill="black"/>
<rect width="0.669378" height="519.213" rx="0.334689" transform="matrix(0.982904 0.184121 -0.182742 0.983161 245.059 453.546)" fill="black"/>
<rect width="0.669378" height="519.213" rx="0.334689" transform="matrix(0.982904 0.184121 -0.182742 0.983161 267.619 457.771)" fill="black"/>
<rect width="0.669378" height="519.213" rx="0.334689" transform="matrix(0.982904 0.184121 -0.182742 0.983161 248.818 454.25)" fill="black"/>
<rect width="0.669378" height="519.213" rx="0.334689" transform="matrix(0.982904 0.184121 -0.182742 0.983161 271.377 458.476)" fill="black"/>
<rect width="0.669378" height="519.213" rx="0.334689" transform="matrix(0.982904 0.184121 -0.182742 0.983161 252.576 454.955)" fill="black"/>
<rect width="0.669378" height="519.213" rx="0.334689" transform="matrix(0.982904 0.184121 -0.182742 0.983161 275.135 459.18)" fill="black"/>
<rect width="0.669378" height="519.213" rx="0.334689" transform="matrix(0.982904 0.184121 -0.182742 0.983161 278.895 459.884)" fill="black"/>
<rect width="0.669378" height="519.213" rx="0.334689" transform="matrix(0.982904 0.184121 -0.182742 0.983161 301.451 464.109)" fill="black"/>
<rect width="0.669378" height="519.213" rx="0.334689" transform="matrix(0.982904 0.184121 -0.182742 0.983161 282.656 460.588)" fill="black"/>
<rect width="0.669378" height="519.213" rx="0.334689" transform="matrix(0.982904 0.184121 -0.182742 0.983161 305.215 464.814)" fill="black"/>
<rect width="0.669378" height="519.213" rx="0.334689" transform="matrix(0.982904 0.184121 -0.182742 0.983161 286.414 461.293)" fill="black"/>
<rect width="0.669378" height="519.213" rx="0.334689" transform="matrix(0.982904 0.184121 -0.182742 0.983161 308.973 465.518)" fill="black"/>
<rect width="0.669378" height="519.213" rx="0.334689" transform="matrix(0.982904 0.184121 -0.182742 0.983161 290.172 461.997)" fill="black"/>
<rect width="0.669378" height="519.213" rx="0.334689" transform="matrix(0.982904 0.184121 -0.182742 0.983161 312.73 466.223)" fill="black"/>
<rect width="0.669378" height="519.213" rx="0.334689" transform="matrix(0.982904 0.184121 -0.182742 0.983161 293.934 462.701)" fill="black"/>
<rect width="0.669378" height="519.213" rx="0.334689" transform="matrix(0.982904 0.184121 -0.182742 0.983161 316.494 466.927)" fill="black"/>
<rect width="0.669378" height="519.213" rx="0.334689" transform="matrix(0.982904 0.184121 -0.182742 0.983161 297.693 463.406)" fill="black"/>
<rect width="0.669378" height="519.213" rx="0.334689" transform="matrix(0.982904 0.184121 -0.182742 0.983161 320.254 467.631)" fill="black"/>
<rect width="0.669378" height="519.213" rx="0.334689" transform="matrix(0.982904 0.184121 -0.182742 0.983161 324.01 468.335)" fill="black"/>
<rect width="0.669378" height="519.213" rx="0.334689" transform="matrix(0.982904 0.184121 -0.182742 0.983161 346.568 472.561)" fill="black"/>
<rect width="0.669378" height="519.213" rx="0.334689" transform="matrix(0.982904 0.184121 -0.182742 0.983161 327.768 469.04)" fill="black"/>
<rect width="0.669378" height="519.213" rx="0.334689" transform="matrix(0.982904 0.184121 -0.182742 0.983161 350.324 473.265)" fill="black"/>
<rect width="0.669378" height="519.213" rx="0.334689" transform="matrix(0.982904 0.184121 -0.182742 0.983161 331.531 469.744)" fill="black"/>
<rect width="0.669378" height="519.213" rx="0.334689" transform="matrix(0.982904 0.184121 -0.182742 0.983161 354.09 473.969)" fill="black"/>
<rect width="0.669378" height="519.213" rx="0.334689" transform="matrix(0.982904 0.184121 -0.182742 0.983161 335.289 470.448)" fill="black"/>
<rect width="0.669378" height="519.213" rx="0.334689" transform="matrix(0.982904 0.184121 -0.182742 0.983161 357.848 474.674)" fill="black"/>
<rect width="0.669378" height="519.213" rx="0.334689" transform="matrix(0.982904 0.184121 -0.182742 0.983161 339.047 471.152)" fill="black"/>
<rect width="0.669378" height="519.213" rx="0.334689" transform="matrix(0.982904 0.184121 -0.182742 0.983161 361.605 475.378)" fill="black"/>
<rect width="0.669378" height="519.213" rx="0.334689" transform="matrix(0.982904 0.184121 -0.182742 0.983161 342.812 471.857)" fill="black"/>
<rect width="0.669378" height="519.213" rx="0.334689" transform="matrix(0.982904 0.184121 -0.182742 0.983161 365.367 476.083)" fill="black"/>
<rect width="0.669378" height="519.213" rx="0.334689" transform="matrix(0.982904 0.184121 -0.182742 0.983161 369.129 476.786)" fill="black"/>
<rect width="0.669378" height="519.213" rx="0.334689" transform="matrix(0.982904 0.184121 -0.182742 0.983161 391.688 481.012)" fill="black"/>
<rect width="0.669378" height="519.213" rx="0.334689" transform="matrix(0.982904 0.184121 -0.182742 0.983161 372.885 477.491)" fill="black"/>
<rect width="0.669378" height="519.213" rx="0.334689" transform="matrix(0.982904 0.184121 -0.182742 0.983161 395.443 481.716)" fill="black"/>
<rect width="0.669378" height="519.213" rx="0.334689" transform="matrix(0.982904 0.184121 -0.182742 0.983161 376.643 478.195)" fill="black"/>
<rect width="0.669378" height="519.213" rx="0.334689" transform="matrix(0.982904 0.184121 -0.182742 0.983161 399.201 482.421)" fill="black"/>
<rect width="0.669378" height="519.213" rx="0.334689" transform="matrix(0.982904 0.184121 -0.182742 0.983161 380.406 478.899)" fill="black"/>
<rect width="0.669378" height="519.213" rx="0.334689" transform="matrix(0.982904 0.184121 -0.182742 0.983161 402.967 483.125)" fill="black"/>
<rect width="0.669378" height="519.213" rx="0.334689" transform="matrix(0.982904 0.184121 -0.182742 0.983161 384.164 479.604)" fill="black"/>
<rect width="0.669378" height="519.213" rx="0.334689" transform="matrix(0.982904 0.184121 -0.182742 0.983161 406.725 483.829)" fill="black"/>
<rect width="0.669378" height="519.213" rx="0.334689" transform="matrix(0.982904 0.184121 -0.182742 0.983161 387.922 480.308)" fill="black"/>
<rect width="0.669378" height="519.213" rx="0.334689" transform="matrix(0.982904 0.184121 -0.182742 0.983161 410.48 484.533)" fill="black"/>
<rect width="0.669378" height="519.213" rx="0.334689" transform="matrix(0.982904 0.184121 -0.182742 0.983161 414.24 485.238)" fill="black"/>
<rect width="0.669378" height="519.213" rx="0.334689" transform="matrix(0.982904 0.184121 -0.182742 0.983161 436.797 489.463)" fill="black"/>
<rect width="0.669378" height="519.213" rx="0.334689" transform="matrix(0.982904 0.184121 -0.182742 0.983161 418.002 485.942)" fill="black"/>
<rect width="0.669378" height="519.213" rx="0.334689" transform="matrix(0.982904 0.184121 -0.182742 0.983161 440.562 490.167)" fill="black"/>
<rect width="0.669378" height="519.213" rx="0.334689" transform="matrix(0.982904 0.184121 -0.182742 0.983161 421.762 486.646)" fill="black"/>
<rect width="0.669378" height="519.213" rx="0.334689" transform="matrix(0.982904 0.184121 -0.182742 0.983161 444.32 490.872)" fill="black"/>
<rect width="0.669378" height="519.213" rx="0.334689" transform="matrix(0.982904 0.184121 -0.182742 0.983161 425.518 487.351)" fill="black"/>
<rect width="0.669378" height="519.213" rx="0.334689" transform="matrix(0.982904 0.184121 -0.182742 0.983161 448.076 491.576)" fill="black"/>
<rect width="0.669378" height="519.213" rx="0.334689" transform="matrix(0.982904 0.184121 -0.182742 0.983161 429.281 488.055)" fill="black"/>
<rect width="0.669378" height="519.213" rx="0.334689" transform="matrix(0.982904 0.184121 -0.182742 0.983161 451.84 492.281)" fill="black"/>
<rect width="0.669378" height="519.213" rx="0.334689" transform="matrix(0.982904 0.184121 -0.182742 0.983161 433.039 488.759)" fill="black"/>
<rect width="0.669378" height="519.213" rx="0.334689" transform="matrix(0.982904 0.184121 -0.182742 0.983161 455.6 492.984)" fill="black"/>
</g>
</svg>
