<svg width="88" height="266" viewBox="0 0 88 266" fill="none" xmlns="http://www.w3.org/2000/svg">
<g style="mix-blend-mode:overlay">
<mask id="path-1-inside-1_187_3872" fill="white">
<path fill-rule="evenodd" clip-rule="evenodd" d="M-108 154.45C-108 154.45 -108 154.45 -108 154.45L-108 66.6588C-94.1335 66.6588 -80.4027 64.0034 -67.5917 58.8443C-54.7807 53.6852 -43.1404 46.1235 -33.3353 36.5907C-23.5302 27.058 -15.7523 15.741 -10.4458 3.28582C-5.13935 -9.16932 -2.40813 -22.5187 -2.40813 -36L87.891 -36C87.891 -10.9898 82.8241 13.7755 72.9797 36.8819C63.1352 59.9883 48.706 80.9833 30.5158 98.6682C24.8024 104.223 18.753 109.417 12.4059 114.225C17.3649 118.388 22.1259 122.812 26.6684 127.484C44.3533 145.674 58.3817 167.269 67.9527 191.036C77.5237 214.802 82.4498 240.275 82.4498 266L-5.34101 266C-5.34101 252.133 -7.99637 238.403 -13.1554 225.592C-18.3145 212.781 -25.8763 201.14 -35.4091 191.335C-44.9418 181.53 -56.2588 173.752 -68.714 168.446C-81.1691 163.139 -94.5184 160.408 -108 160.408L-108 154.45Z"/>
</mask>
<path fill-rule="evenodd" clip-rule="evenodd" d="M-108 154.45C-108 154.45 -108 154.45 -108 154.45L-108 66.6588C-94.1335 66.6588 -80.4027 64.0034 -67.5917 58.8443C-54.7807 53.6852 -43.1404 46.1235 -33.3353 36.5907C-23.5302 27.058 -15.7523 15.741 -10.4458 3.28582C-5.13935 -9.16932 -2.40813 -22.5187 -2.40813 -36L87.891 -36C87.891 -10.9898 82.8241 13.7755 72.9797 36.8819C63.1352 59.9883 48.706 80.9833 30.5158 98.6682C24.8024 104.223 18.753 109.417 12.4059 114.225C17.3649 118.388 22.1259 122.812 26.6684 127.484C44.3533 145.674 58.3817 167.269 67.9527 191.036C77.5237 214.802 82.4498 240.275 82.4498 266L-5.34101 266C-5.34101 252.133 -7.99637 238.403 -13.1554 225.592C-18.3145 212.781 -25.8763 201.14 -35.4091 191.335C-44.9418 181.53 -56.2588 173.752 -68.714 168.446C-81.1691 163.139 -94.5184 160.408 -108 160.408L-108 154.45Z" fill="#FF6B2C"/>
<path d="M-108 154.45H-109L-109 155.45H-108V154.45ZM-108 154.45H-107V153.45H-108V154.45ZM-108 66.6588V65.6588H-109V66.6588H-108ZM-67.5917 58.8443L-67.9653 57.9167L-67.5917 58.8443ZM-33.3353 36.5907L-32.6382 37.3077L-33.3353 36.5907ZM-2.40813 -36V-37L-3.40813 -37V-36H-2.40813ZM87.891 -36H88.891V-37L87.891 -37V-36ZM72.9797 36.8819L73.8997 37.2739L72.9797 36.8819ZM30.5158 98.6682L29.8188 97.9512L30.5158 98.6682ZM12.4059 114.225L11.802 113.428L10.8027 114.185L11.763 114.991L12.4059 114.225ZM26.6684 127.484L25.9514 128.181L26.6684 127.484ZM67.9527 191.036L68.8803 190.662L67.9527 191.036ZM82.4498 266V267H83.4498V266H82.4498ZM-5.34101 266H-6.34101V267H-5.34101V266ZM-13.1554 225.592L-12.2278 225.218L-13.1554 225.592ZM-35.4091 191.335L-34.6921 190.638L-35.4091 191.335ZM-108 160.408H-109L-109 161.408H-108V160.408ZM-108 155.45C-108 155.45 -108 155.45 -108 155.45C-108 155.45 -108 155.45 -108 155.45C-108 155.45 -108 155.45 -108 155.45C-108 155.45 -108 155.45 -108 155.45C-108 155.45 -108 155.45 -108 155.45C-108 155.45 -108 155.45 -108 155.45C-108 155.45 -108 155.45 -108 155.45C-108 155.45 -108 155.45 -108 155.45C-108 155.45 -108 155.45 -108 155.45C-108 155.45 -108 155.45 -108 155.45C-108 155.45 -108 155.45 -108 155.45C-108 155.45 -108 155.45 -108 155.45C-108 155.45 -108 155.45 -108 155.45C-108 155.45 -108 155.45 -108 155.45C-108 155.45 -108 155.45 -108 155.45C-108 155.45 -108 155.45 -108 155.45C-108 155.45 -108 155.45 -108 155.45C-108 155.45 -108 155.45 -108 155.45C-108 155.45 -108 155.45 -108 155.45C-108 155.45 -108 155.45 -108 155.45C-108 155.45 -108 155.45 -108 155.45C-108 155.45 -108 155.45 -108 155.45C-108 155.45 -108 155.45 -108 155.45C-108 155.45 -108 155.45 -108 155.45C-108 155.45 -108 155.45 -108 155.45C-108 155.45 -108 155.45 -108 155.45C-108 155.45 -108 155.45 -108 155.45C-108 155.45 -108 155.45 -108 155.45C-108 155.45 -108 155.45 -108 155.45C-108 155.45 -108 155.45 -108 155.45C-108 155.45 -108 155.45 -108 155.45C-108 155.45 -108 155.45 -108 155.45C-108 155.45 -108 155.45 -108 155.45C-108 155.45 -108 155.45 -108 155.45C-108 155.45 -108 155.45 -108 155.45C-108 155.45 -108 155.45 -108 155.45C-108 155.45 -108 155.45 -108 155.45C-108 155.45 -108 155.45 -108 155.45C-108 155.45 -108 155.45 -108 155.45C-108 155.45 -108 155.45 -108 155.45C-108 155.45 -108 155.45 -108 155.45C-108 155.45 -108 155.45 -108 155.45C-108 155.45 -108 155.45 -108 155.45C-108 155.45 -108 155.45 -108 155.45C-108 155.45 -108 155.45 -108 155.45C-108 155.45 -108 155.45 -108 155.45C-108 155.45 -108 155.45 -108 155.45C-108 155.45 -108 155.45 -108 155.45C-108 155.45 -108 155.45 -108 155.45C-108 155.45 -108 155.45 -108 155.45C-108 155.45 -108 155.45 -108 155.45C-108 155.45 -108 155.45 -108 155.45C-108 155.45 -108 155.45 -108 155.45C-108 155.45 -108 155.45 -108 155.45C-108 155.45 -108 155.45 -108 155.45C-108 155.45 -108 155.45 -108 155.45C-108 155.45 -108 155.45 -108 155.45C-108 155.45 -108 155.45 -108 155.45C-108 155.45 -108 155.45 -108 155.45C-108 155.45 -108 155.45 -108 155.45C-108 155.45 -108 155.45 -108 155.45C-108 155.45 -108 155.45 -108 155.45C-108 155.45 -108 155.45 -108 155.45C-108 155.45 -108 155.45 -108 155.45C-108 155.45 -108 155.45 -108 155.45C-108 155.45 -108 155.45 -108 155.45C-108 155.45 -108 155.45 -108 155.45C-108 155.45 -108 155.45 -108 155.45C-108 155.45 -108 155.45 -108 155.45C-108 155.45 -108 155.45 -108 155.45C-108 155.45 -108 155.45 -108 155.45C-108 155.45 -108 155.45 -108 155.45C-108 155.45 -108 155.45 -108 155.45C-108 155.45 -108 155.45 -108 155.45C-108 155.45 -108 155.45 -108 155.45C-108 155.45 -108 155.45 -108 155.45C-108 155.45 -108 155.45 -108 155.45C-108 155.45 -108 155.45 -108 155.45C-108 155.45 -108 155.45 -108 155.45C-108 155.45 -108 155.45 -108 155.45C-108 155.45 -108 155.45 -108 155.45C-108 155.45 -108 155.45 -108 155.45C-108 155.45 -108 155.45 -108 155.45C-108 155.45 -108 155.45 -108 155.45C-108 155.45 -108 155.45 -108 155.45C-108 155.45 -108 155.45 -108 155.45C-108 155.45 -108 155.45 -108 155.45C-108 155.45 -108 155.45 -108 155.45C-108 155.45 -108 155.45 -108 155.45C-108 155.45 -108 155.45 -108 155.45C-108 155.45 -108 155.45 -108 155.45C-108 155.45 -108 155.45 -108 155.45C-108 155.45 -108 155.45 -108 155.45C-108 155.45 -108 155.45 -108 155.45C-108 155.45 -108 155.45 -108 155.45C-108 155.45 -108 155.45 -108 155.45C-108 155.45 -108 155.45 -108 155.45C-108 155.45 -108 155.45 -108 155.45C-108 155.45 -108 155.45 -108 155.45C-108 155.45 -108 155.45 -108 155.45C-108 155.45 -108 155.45 -108 155.45C-108 155.45 -108 155.45 -108 155.45C-108 155.45 -108 155.45 -108 155.45C-108 155.45 -108 155.45 -108 155.45C-108 155.45 -108 155.45 -108 155.45C-108 155.45 -108 155.45 -108 155.45C-108 155.45 -108 155.45 -108 155.45C-108 155.45 -108 155.45 -108 155.45C-108 155.45 -108 155.45 -108 155.45C-108 155.45 -108 155.45 -108 155.45C-108 155.45 -108 155.45 -108 155.45C-108 155.45 -108 155.45 -108 155.45C-108 155.45 -108 155.45 -108 155.45C-108 155.45 -108 155.45 -108 155.45C-108 155.45 -108 155.45 -108 155.45C-108 155.45 -108 155.45 -108 155.45C-108 155.45 -108 155.45 -108 155.45C-108 155.45 -108 155.45 -108 155.45C-108 155.45 -108 155.45 -108 155.45C-108 155.45 -108 155.45 -108 155.45C-108 155.45 -108 155.45 -108 155.45C-108 155.45 -108 155.45 -108 155.45C-108 155.45 -108 155.45 -108 155.45C-108 155.45 -108 155.45 -108 155.45C-108 155.45 -108 155.45 -108 155.45C-108 155.45 -108 155.45 -108 155.45C-108 155.45 -108 155.45 -108 155.45C-108 155.45 -108 155.45 -108 155.45C-108 155.45 -108 155.45 -108 155.45C-108 155.45 -108 155.45 -108 155.45C-108 155.45 -108 155.45 -108 155.45C-108 155.45 -108 155.45 -108 155.45C-108 155.45 -108 155.45 -108 155.45C-108 155.45 -108 155.45 -108 155.45C-108 155.45 -108 155.45 -108 155.45C-108 155.45 -108 155.45 -108 155.45C-108 155.45 -108 155.45 -108 155.45C-108 155.45 -108 155.45 -108 155.45C-108 155.45 -108 155.45 -108 155.45C-108 155.45 -108 155.45 -108 155.45C-108 155.45 -108 155.45 -108 155.45C-108 155.45 -108 155.45 -108 155.45C-108 155.45 -108 155.45 -108 155.45C-108 155.45 -108 155.45 -108 155.45C-108 155.45 -108 155.45 -108 155.45C-108 155.45 -108 155.45 -108 155.45C-108 155.45 -108 155.45 -108 155.45C-108 155.45 -108 155.45 -108 155.45C-108 155.45 -108 155.45 -108 155.45C-108 155.45 -108 155.45 -108 155.45C-108 155.45 -108 155.45 -108 155.45C-108 155.45 -108 155.45 -108 155.45C-108 155.45 -108 155.45 -108 155.45C-108 155.45 -108 155.45 -108 155.45C-108 155.45 -108 155.45 -108 155.45C-108 155.45 -108 155.45 -108 155.45C-108 155.45 -108 155.45 -108 155.45C-108 155.45 -108 155.45 -108 155.45C-108 155.45 -108 155.45 -108 155.45C-108 155.45 -108 155.45 -108 155.45C-108 155.45 -108 155.45 -108 155.45C-108 155.45 -108 155.45 -108 155.45C-108 155.45 -108 155.45 -108 155.45C-108 155.45 -108 155.45 -108 155.45C-108 155.45 -108 155.45 -108 155.45C-108 155.45 -108 155.45 -108 155.45C-108 155.45 -108 155.45 -108 155.45C-108 155.45 -108 155.45 -108 155.45C-108 155.45 -108 155.45 -108 155.45C-108 155.45 -108 155.45 -108 155.45C-108 155.45 -108 155.45 -108 155.45C-108 155.45 -108 155.45 -108 155.45C-108 155.45 -108 155.45 -108 155.45C-108 155.45 -108 155.45 -108 155.45C-108 155.45 -108 155.45 -108 155.45C-108 155.45 -108 155.45 -108 155.45C-108 155.45 -108 155.45 -108 155.45C-108 155.45 -108 155.45 -108 155.45C-108 155.45 -108 155.45 -108 155.45C-108 155.45 -108 155.45 -108 155.45C-108 155.45 -108 155.45 -108 155.45C-108 155.45 -108 155.45 -108 155.45C-108 155.45 -108 155.45 -108 155.45C-108 155.45 -108 155.45 -108 155.45C-108 155.45 -108 155.45 -108 155.45C-108 155.45 -108 155.45 -108 155.45C-108 155.45 -108 155.45 -108 155.45C-108 155.45 -108 155.45 -108 155.45C-108 155.45 -108 155.45 -108 155.45C-108 155.45 -108 155.45 -108 155.45C-108 155.45 -108 155.45 -108 155.45C-108 155.45 -108 155.45 -108 155.45C-108 155.45 -108 155.45 -108 155.45C-108 155.45 -108 155.45 -108 155.45C-108 155.45 -108 155.45 -108 155.45C-108 155.45 -108 155.45 -108 155.45C-108 155.45 -108 155.45 -108 155.45C-108 155.45 -108 155.45 -108 155.45C-108 155.45 -108 155.45 -108 155.45C-108 155.45 -108 155.45 -108 155.45C-108 155.45 -108 155.45 -108 155.45C-108 155.45 -108 155.45 -108 155.45C-108 155.45 -108 155.45 -108 155.45C-108 155.45 -108 155.45 -108 155.45C-108 155.45 -108 155.45 -108 155.45C-108 155.45 -108 155.45 -108 155.45C-108 155.45 -108 155.45 -108 155.45C-108 155.45 -108 155.45 -108 155.45C-108 155.45 -108 155.45 -108 155.45C-108 155.45 -108 155.45 -108 155.45C-108 155.45 -108 155.45 -108 155.45C-108 155.45 -108 155.45 -108 155.45C-108 155.45 -108 155.45 -108 155.45C-108 155.45 -108 155.45 -108 155.45C-108 155.45 -108 155.45 -108 155.45C-108 155.45 -108 155.45 -108 155.45C-108 155.45 -108 155.45 -108 155.45C-108 155.45 -108 155.45 -108 155.45C-108 155.45 -108 155.45 -108 155.45C-108 155.45 -108 155.45 -108 155.45C-108 155.45 -108 155.45 -108 155.45C-108 155.45 -108 155.45 -108 155.45C-108 155.45 -108 155.45 -108 155.45C-108 155.45 -108 155.45 -108 155.45C-108 155.45 -108 155.45 -108 155.45C-108 155.45 -108 155.45 -108 155.45C-108 155.45 -108 155.45 -108 155.45C-108 155.45 -108 155.45 -108 155.45C-108 155.45 -108 155.45 -108 155.45C-108 155.45 -108 155.45 -108 155.45C-108 155.45 -108 155.45 -108 155.45C-108 155.45 -108 155.45 -108 155.45C-108 155.45 -108 155.45 -108 155.45C-108 155.45 -108 155.45 -108 155.45C-108 155.45 -108 155.45 -108 155.45C-108 155.45 -108 155.45 -108 155.45C-108 155.45 -108 155.45 -108 155.45C-108 155.45 -108 155.45 -108 155.45C-108 155.45 -108 155.45 -108 155.45C-108 155.45 -108 155.45 -108 155.45C-108 155.45 -108 155.45 -108 155.45C-108 155.45 -108 155.45 -108 155.45C-108 155.45 -108 155.45 -108 155.45C-108 155.45 -108 155.45 -108 155.45C-108 155.45 -108 155.45 -108 155.45C-108 155.45 -108 155.45 -108 155.45C-108 155.45 -108 155.45 -108 155.45C-108 155.45 -108 155.45 -108 155.45C-108 155.45 -108 155.45 -108 155.45C-108 155.45 -108 155.45 -108 155.45C-108 155.45 -108 155.45 -108 155.45C-108 155.45 -108 155.45 -108 155.45C-108 155.45 -108 155.45 -108 155.45C-108 155.45 -108 155.45 -108 155.45C-108 155.45 -108 155.45 -108 155.45C-108 155.45 -108 155.45 -108 155.45C-108 155.45 -108 155.45 -108 155.45C-108 155.45 -108 155.45 -108 155.45C-108 155.45 -108 155.45 -108 155.45C-108 155.45 -108 155.45 -108 155.45C-108 155.45 -108 155.45 -108 155.45C-108 155.45 -108 155.45 -108 155.45C-108 155.45 -108 155.45 -108 155.45C-108 155.45 -108 155.45 -108 155.45C-108 155.45 -108 155.45 -108 155.45C-108 155.45 -108 155.45 -108 155.45C-108 155.45 -108 155.45 -108 155.45C-108 155.45 -108 155.45 -108 155.45C-108 155.45 -108 155.45 -108 155.45C-108 155.45 -108 155.45 -108 155.45C-108 155.45 -108 155.45 -108 155.45C-108 155.45 -108 155.45 -108 155.45C-108 155.45 -108 155.45 -108 155.45C-108 155.45 -108 155.45 -108 155.45C-108 155.45 -108 155.45 -108 155.45C-108 155.45 -108 155.45 -108 155.45C-108 155.45 -108 155.45 -108 155.45C-108 155.45 -108 155.45 -108 155.45C-108 155.45 -108 155.45 -108 155.45C-108 155.45 -108 155.45 -108 155.45C-108 155.45 -108 155.45 -108 155.45C-108 155.45 -108 155.45 -108 155.45C-108 155.45 -108 155.45 -108 155.45C-108 155.45 -108 155.45 -108 155.45C-108 155.45 -108 155.45 -108 155.45C-108 155.45 -108 155.45 -108 155.45C-108 155.45 -108 155.45 -108 155.45C-108 155.45 -108 155.45 -108 155.45C-108 155.45 -108 155.45 -108 155.45C-108 155.45 -108 155.45 -108 155.45C-108 155.45 -108 155.45 -108 155.45C-108 155.45 -108 155.45 -108 155.45C-108 155.45 -108 155.45 -108 155.45C-108 155.45 -108 155.45 -108 155.45C-108 155.45 -108 155.45 -108 155.45C-108 155.45 -108 155.45 -108 155.45C-108 155.45 -108 155.45 -108 155.45C-108 155.45 -108 155.45 -108 155.45C-108 155.45 -108 155.45 -108 155.45C-108 155.45 -108 155.45 -108 155.45C-108 155.45 -108 155.45 -108 155.45C-108 155.45 -108 155.45 -108 155.45C-108 155.45 -108 155.45 -108 155.45C-108 155.45 -108 155.45 -108 155.45C-108 155.45 -108 155.45 -108 155.45C-108 155.45 -108 155.45 -108 155.45C-108 155.45 -108 155.45 -108 155.45C-108 155.45 -108 155.45 -108 155.45C-108 155.45 -108 155.45 -108 155.45C-108 155.45 -108 155.45 -108 155.45C-108 155.45 -108 155.45 -108 155.45C-108 155.45 -108 155.45 -108 155.45C-108 155.45 -108 155.45 -108 155.45C-108 155.45 -108 155.45 -108 155.45C-108 155.45 -108 155.45 -108 155.45C-108 155.45 -108 155.45 -108 155.45C-108 155.45 -108 155.45 -108 155.45C-108 155.45 -108 155.45 -108 155.45C-108 155.45 -108 155.45 -108 155.45C-108 155.45 -108 155.45 -108 155.45C-108 155.45 -108 155.45 -108 155.45C-108 155.45 -108 155.45 -108 155.45C-108 155.45 -108 155.45 -108 155.45C-108 155.45 -108 155.45 -108 155.45C-108 155.45 -108 155.45 -108 155.45C-108 155.45 -108 155.45 -108 155.45C-108 155.45 -108 155.45 -108 155.45C-108 155.45 -108 155.45 -108 155.45C-108 155.45 -108 155.45 -108 155.45C-108 155.45 -108 155.45 -108 155.45C-108 155.45 -108 155.45 -108 155.45C-108 155.45 -108 155.45 -108 155.45C-108 155.45 -108 155.45 -108 155.45C-108 155.45 -108 155.45 -108 155.45C-108 155.45 -108 155.45 -108 155.45C-108 155.45 -108 155.45 -108 155.45C-108 155.45 -108 155.45 -108 155.45C-108 155.45 -108 155.45 -108 155.45C-108 155.45 -108 155.45 -108 155.45C-108 155.45 -108 155.45 -108 155.45C-108 155.45 -108 155.45 -108 155.45C-108 155.45 -108 155.45 -108 155.45C-108 155.45 -108 155.45 -108 155.45C-108 155.45 -108 155.45 -108 155.45C-108 155.45 -108 155.45 -108 155.45C-108 155.45 -108 155.45 -108 155.45C-108 155.45 -108 155.45 -108 155.45C-108 155.45 -108 155.45 -108 155.45C-108 155.45 -108 155.45 -108 155.45C-108 155.45 -108 155.45 -108 155.45C-108 155.45 -108 155.45 -108 155.45C-108 155.45 -108 155.45 -108 155.45C-108 155.45 -108 155.45 -108 155.45C-108 155.45 -108 155.45 -108 155.45C-108 155.45 -108 155.45 -108 155.45C-108 155.45 -108 155.45 -108 155.45C-108 155.45 -108 155.45 -108 155.45C-108 155.45 -108 155.45 -108 155.45C-108 155.45 -108 155.45 -108 155.45C-108 155.45 -108 155.45 -108 155.45C-108 155.45 -108 155.45 -108 155.45C-108 155.45 -108 155.45 -108 155.45C-108 155.45 -108 155.45 -108 155.45C-108 155.45 -108 155.45 -108 155.45C-108 155.45 -108 155.45 -108 155.45C-108 155.45 -108 155.45 -108 155.45C-108 155.45 -108 155.45 -108 155.45C-108 155.45 -108 155.45 -108 155.45C-108 155.45 -108 155.45 -108 155.45C-108 155.45 -108 155.45 -108 155.45C-108 155.45 -108 155.45 -108 155.45C-108 155.45 -108 155.45 -108 155.45C-108 155.45 -108 155.45 -108 155.45C-108 155.45 -108 155.45 -108 155.45C-108 155.45 -108 155.45 -108 155.45C-108 155.45 -108 155.45 -108 155.45C-108 155.45 -108 155.45 -108 155.45C-108 155.45 -108 155.45 -108 155.45C-108 155.45 -108 155.45 -108 155.45C-108 155.45 -108 155.45 -108 155.45C-108 155.45 -108 155.45 -108 155.45C-108 155.45 -108 155.45 -108 155.45C-108 155.45 -108 155.45 -108 155.45C-108 155.45 -108 155.45 -108 155.45C-108 155.45 -108 155.45 -108 155.45C-108 155.45 -108 155.45 -108 155.45C-108 155.45 -108 155.45 -108 155.45C-108 155.45 -108 155.45 -108 155.45C-108 155.45 -108 155.45 -108 155.45C-108 155.45 -108 155.45 -108 155.45C-108 155.45 -108 155.45 -108 155.45C-108 155.45 -108 155.45 -108 155.45C-108 155.45 -108 155.45 -108 155.45C-108 155.45 -108 155.45 -108 155.45C-108 155.45 -108 155.45 -108 155.45C-108 155.45 -108 155.45 -108 155.45C-108 155.45 -108 155.45 -108 155.45C-108 155.45 -108 155.45 -108 155.45C-108 155.45 -108 155.45 -108 155.45C-108 155.45 -108 155.45 -108 155.45C-108 155.45 -108 155.45 -108 155.45C-108 155.45 -108 155.45 -108 155.45C-108 155.45 -108 155.45 -108 155.45C-108 155.45 -108 155.45 -108 155.45C-108 155.45 -108 155.45 -108 155.45C-108 155.45 -108 155.45 -108 155.45C-108 155.45 -108 155.45 -108 155.45C-108 155.45 -108 155.45 -108 155.45C-108 155.45 -108 155.45 -108 155.45C-108 155.45 -108 155.45 -108 155.45C-108 155.45 -108 155.45 -108 155.45C-108 155.45 -108 155.45 -108 155.45C-108 155.45 -108 155.45 -108 155.45C-108 155.45 -108 155.45 -108 155.45C-108 155.45 -108 155.45 -108 155.45C-108 155.45 -108 155.45 -108 155.45C-108 155.45 -108 155.45 -108 155.45C-108 155.45 -108 155.45 -108 155.45C-108 155.45 -108 155.45 -108 155.45C-108 155.45 -108 155.45 -108 155.45C-108 155.45 -108 155.45 -108 155.45C-108 155.45 -108 155.45 -108 155.45C-108 155.45 -108 155.45 -108 155.45C-108 155.45 -108 155.45 -108 155.45C-108 155.45 -108 155.45 -108 155.45C-108 155.45 -108 155.45 -108 155.45C-108 155.45 -108 155.45 -108 155.45C-108 155.45 -108 155.45 -108 155.45C-108 155.45 -108 155.45 -108 155.45C-108 155.45 -108 155.45 -108 155.45C-108 155.45 -108 155.45 -108 155.45C-108 155.45 -108 155.45 -108 155.45C-108 155.45 -108 155.45 -108 155.45C-108 155.45 -108 155.45 -108 155.45C-108 155.45 -108 155.45 -108 155.45C-108 155.45 -108 155.45 -108 155.45C-108 155.45 -108 155.45 -108 155.45C-108 155.45 -108 155.45 -108 155.45C-108 155.45 -108 155.45 -108 155.45C-108 155.45 -108 155.45 -108 155.45C-108 155.45 -108 155.45 -108 155.45C-108 155.45 -108 155.45 -108 155.45C-108 155.45 -108 155.45 -108 155.45C-108 155.45 -108 155.45 -108 155.45C-108 155.45 -108 155.45 -108 155.45C-108 155.45 -108 155.45 -108 155.45C-108 155.45 -108 155.45 -108 155.45C-108 155.45 -108 155.45 -108 155.45C-108 155.45 -108 155.45 -108 155.45C-108 155.45 -108 155.45 -108 155.45C-108 155.45 -108 155.45 -108 155.45C-108 155.45 -108 155.45 -108 155.45C-108 155.45 -108 155.45 -108 155.45C-108 155.45 -108 155.45 -108 155.45C-108 155.45 -108 155.45 -108 155.45C-108 155.45 -108 155.45 -108 155.45C-108 155.45 -108 155.45 -108 155.45C-108 155.45 -108 155.45 -108 155.45C-108 155.45 -108 155.45 -108 155.45C-108 155.45 -108 155.45 -108 155.45C-108 155.45 -108 155.45 -108 155.45C-108 155.45 -108 155.45 -108 155.45C-108 155.45 -108 155.45 -108 155.45C-108 155.45 -108 155.45 -108 155.45C-108 155.45 -108 155.45 -108 155.45C-108 155.45 -108 155.45 -108 155.45C-108 155.45 -108 155.45 -108 155.45C-108 155.45 -108 155.45 -108 155.45C-108 155.45 -108 155.45 -108 155.45C-108 155.45 -108 155.45 -108 155.45C-108 155.45 -108 155.45 -108 155.45C-108 155.45 -108 155.45 -108 155.45C-108 155.45 -108 155.45 -108 155.45C-108 155.45 -108 155.45 -108 155.45C-108 155.45 -108 155.45 -108 155.45C-108 155.45 -108 155.45 -108 155.45C-108 155.45 -108 155.45 -108 155.45C-108 155.45 -108 155.45 -108 155.45C-108 155.45 -108 155.45 -108 155.45C-108 155.45 -108 155.45 -108 155.45C-108 155.45 -108 155.45 -108 155.45C-108 155.45 -108 155.45 -108 155.45C-108 155.45 -108 155.45 -108 155.45C-108 155.45 -108 155.45 -108 155.45C-108 155.45 -108 155.45 -108 155.45C-108 155.45 -108 155.45 -108 155.45C-108 155.45 -108 155.45 -108 155.45C-108 155.45 -108 155.45 -108 155.45C-108 155.45 -108 155.45 -108 155.45C-108 155.45 -108 155.45 -108 155.45C-108 155.45 -108 155.45 -108 155.45C-108 155.45 -108 155.45 -108 155.45C-108 155.45 -108 155.45 -108 155.45C-108 155.45 -108 155.45 -108 155.45C-108 155.45 -108 155.45 -108 155.45C-108 155.45 -108 155.45 -108 155.45C-108 155.45 -108 155.45 -108 155.45C-108 155.45 -108 155.45 -108 155.45C-108 155.45 -108 155.45 -108 155.45C-108 155.45 -108 155.45 -108 155.45C-108 155.45 -108 155.45 -108 155.45C-108 155.45 -108 155.45 -108 155.45C-108 155.45 -108 155.45 -108 155.45C-108 155.45 -108 155.45 -108 155.45C-108 155.45 -108 155.45 -108 155.45C-108 155.45 -108 155.45 -108 155.45C-108 155.45 -108 155.45 -108 155.45C-108 155.45 -108 155.45 -108 155.45C-108 155.45 -108 155.45 -108 155.45C-108 155.45 -108 155.45 -108 155.45C-108 155.45 -108 155.45 -108 155.45C-108 155.45 -108 155.45 -108 155.45V153.45C-108 153.45 -108 153.45 -108 153.45C-108 153.45 -108 153.45 -108 153.45C-108 153.45 -108 153.45 -108 153.45C-108 153.45 -108 153.45 -108 153.45C-108 153.45 -108 153.45 -108 153.45C-108 153.45 -108 153.45 -108 153.45C-108 153.45 -108 153.45 -108 153.45C-108 153.45 -108 153.45 -108 153.45C-108 153.45 -108 153.45 -108 153.45C-108 153.45 -108 153.45 -108 153.45C-108 153.45 -108 153.45 -108 153.45C-108 153.45 -108 153.45 -108 153.45C-108 153.45 -108 153.45 -108 153.45C-108 153.45 -108 153.45 -108 153.45C-108 153.45 -108 153.45 -108 153.45C-108 153.45 -108 153.45 -108 153.45C-108 153.45 -108 153.45 -108 153.45C-108 153.45 -108 153.45 -108 153.45C-108 153.45 -108 153.45 -108 153.45C-108 153.45 -108 153.45 -108 153.45C-108 153.45 -108 153.45 -108 153.45C-108 153.45 -108 153.45 -108 153.45C-108 153.45 -108 153.45 -108 153.45C-108 153.45 -108 153.45 -108 153.45C-108 153.45 -108 153.45 -108 153.45C-108 153.45 -108 153.45 -108 153.45C-108 153.45 -108 153.45 -108 153.45C-108 153.45 -108 153.45 -108 153.45C-108 153.45 -108 153.45 -108 153.45C-108 153.45 -108 153.45 -108 153.45C-108 153.45 -108 153.45 -108 153.45C-108 153.45 -108 153.45 -108 153.45C-108 153.45 -108 153.45 -108 153.45C-108 153.45 -108 153.45 -108 153.45C-108 153.45 -108 153.45 -108 153.45C-108 153.45 -108 153.45 -108 153.45C-108 153.45 -108 153.45 -108 153.45C-108 153.45 -108 153.45 -108 153.45C-108 153.45 -108 153.45 -108 153.45C-108 153.45 -108 153.45 -108 153.45C-108 153.45 -108 153.45 -108 153.45C-108 153.45 -108 153.45 -108 153.45C-108 153.45 -108 153.45 -108 153.45C-108 153.45 -108 153.45 -108 153.45C-108 153.45 -108 153.45 -108 153.45C-108 153.45 -108 153.45 -108 153.45C-108 153.45 -108 153.45 -108 153.45C-108 153.45 -108 153.45 -108 153.45C-108 153.45 -108 153.45 -108 153.45C-108 153.45 -108 153.45 -108 153.45C-108 153.45 -108 153.45 -108 153.45C-108 153.45 -108 153.45 -108 153.45C-108 153.45 -108 153.45 -108 153.45C-108 153.45 -108 153.45 -108 153.45C-108 153.45 -108 153.45 -108 153.45C-108 153.45 -108 153.45 -108 153.45C-108 153.45 -108 153.45 -108 153.45C-108 153.45 -108 153.45 -108 153.45C-108 153.45 -108 153.45 -108 153.45C-108 153.45 -108 153.45 -108 153.45C-108 153.45 -108 153.45 -108 153.45C-108 153.45 -108 153.45 -108 153.45C-108 153.45 -108 153.45 -108 153.45C-108 153.45 -108 153.45 -108 153.45C-108 153.45 -108 153.45 -108 153.45C-108 153.45 -108 153.45 -108 153.45C-108 153.45 -108 153.45 -108 153.45C-108 153.45 -108 153.45 -108 153.45C-108 153.45 -108 153.45 -108 153.45C-108 153.45 -108 153.45 -108 153.45C-108 153.45 -108 153.45 -108 153.45C-108 153.45 -108 153.45 -108 153.45C-108 153.45 -108 153.45 -108 153.45C-108 153.45 -108 153.45 -108 153.45C-108 153.45 -108 153.45 -108 153.45C-108 153.45 -108 153.45 -108 153.45C-108 153.45 -108 153.45 -108 153.45C-108 153.45 -108 153.45 -108 153.45C-108 153.45 -108 153.45 -108 153.45C-108 153.45 -108 153.45 -108 153.45C-108 153.45 -108 153.45 -108 153.45C-108 153.45 -108 153.45 -108 153.45C-108 153.45 -108 153.45 -108 153.45C-108 153.45 -108 153.45 -108 153.45C-108 153.45 -108 153.45 -108 153.45C-108 153.45 -108 153.45 -108 153.45C-108 153.45 -108 153.45 -108 153.45C-108 153.45 -108 153.45 -108 153.45C-108 153.45 -108 153.45 -108 153.45C-108 153.45 -108 153.45 -108 153.45C-108 153.45 -108 153.45 -108 153.45C-108 153.45 -108 153.45 -108 153.45C-108 153.45 -108 153.45 -108 153.45C-108 153.45 -108 153.45 -108 153.45C-108 153.45 -108 153.45 -108 153.45C-108 153.45 -108 153.45 -108 153.45C-108 153.45 -108 153.45 -108 153.45C-108 153.45 -108 153.45 -108 153.45C-108 153.45 -108 153.45 -108 153.45C-108 153.45 -108 153.45 -108 153.45C-108 153.45 -108 153.45 -108 153.45C-108 153.45 -108 153.45 -108 153.45C-108 153.45 -108 153.45 -108 153.45C-108 153.45 -108 153.45 -108 153.45C-108 153.45 -108 153.45 -108 153.45C-108 153.45 -108 153.45 -108 153.45C-108 153.45 -108 153.45 -108 153.45C-108 153.45 -108 153.45 -108 153.45C-108 153.45 -108 153.45 -108 153.45C-108 153.45 -108 153.45 -108 153.45C-108 153.45 -108 153.45 -108 153.45C-108 153.45 -108 153.45 -108 153.45C-108 153.45 -108 153.45 -108 153.45C-108 153.45 -108 153.45 -108 153.45C-108 153.45 -108 153.45 -108 153.45C-108 153.45 -108 153.45 -108 153.45C-108 153.45 -108 153.45 -108 153.45C-108 153.45 -108 153.45 -108 153.45C-108 153.45 -108 153.45 -108 153.45C-108 153.45 -108 153.45 -108 153.45C-108 153.45 -108 153.45 -108 153.45C-108 153.45 -108 153.45 -108 153.45C-108 153.45 -108 153.45 -108 153.45C-108 153.45 -108 153.45 -108 153.45C-108 153.45 -108 153.45 -108 153.45C-108 153.45 -108 153.45 -108 153.45C-108 153.45 -108 153.45 -108 153.45C-108 153.45 -108 153.45 -108 153.45C-108 153.45 -108 153.45 -108 153.45C-108 153.45 -108 153.45 -108 153.45C-108 153.45 -108 153.45 -108 153.45C-108 153.45 -108 153.45 -108 153.45C-108 153.45 -108 153.45 -108 153.45C-108 153.45 -108 153.45 -108 153.45C-108 153.45 -108 153.45 -108 153.45C-108 153.45 -108 153.45 -108 153.45C-108 153.45 -108 153.45 -108 153.45C-108 153.45 -108 153.45 -108 153.45C-108 153.45 -108 153.45 -108 153.45C-108 153.45 -108 153.45 -108 153.45C-108 153.45 -108 153.45 -108 153.45C-108 153.45 -108 153.45 -108 153.45C-108 153.45 -108 153.45 -108 153.45C-108 153.45 -108 153.45 -108 153.45C-108 153.45 -108 153.45 -108 153.45C-108 153.45 -108 153.45 -108 153.45C-108 153.45 -108 153.45 -108 153.45C-108 153.45 -108 153.45 -108 153.45C-108 153.45 -108 153.45 -108 153.45C-108 153.45 -108 153.45 -108 153.45C-108 153.45 -108 153.45 -108 153.45C-108 153.45 -108 153.45 -108 153.45C-108 153.45 -108 153.45 -108 153.45C-108 153.45 -108 153.45 -108 153.45C-108 153.45 -108 153.45 -108 153.45C-108 153.45 -108 153.45 -108 153.45C-108 153.45 -108 153.45 -108 153.45C-108 153.45 -108 153.45 -108 153.45C-108 153.45 -108 153.45 -108 153.45C-108 153.45 -108 153.45 -108 153.45C-108 153.45 -108 153.45 -108 153.45C-108 153.45 -108 153.45 -108 153.45C-108 153.45 -108 153.45 -108 153.45C-108 153.45 -108 153.45 -108 153.45C-108 153.45 -108 153.45 -108 153.45C-108 153.45 -108 153.45 -108 153.45C-108 153.45 -108 153.45 -108 153.45C-108 153.45 -108 153.45 -108 153.45C-108 153.45 -108 153.45 -108 153.45C-108 153.45 -108 153.45 -108 153.45C-108 153.45 -108 153.45 -108 153.45C-108 153.45 -108 153.45 -108 153.45C-108 153.45 -108 153.45 -108 153.45C-108 153.45 -108 153.45 -108 153.45C-108 153.45 -108 153.45 -108 153.45C-108 153.45 -108 153.45 -108 153.45C-108 153.45 -108 153.45 -108 153.45C-108 153.45 -108 153.45 -108 153.45C-108 153.45 -108 153.45 -108 153.45C-108 153.45 -108 153.45 -108 153.45C-108 153.45 -108 153.45 -108 153.45C-108 153.45 -108 153.45 -108 153.45C-108 153.45 -108 153.45 -108 153.45C-108 153.45 -108 153.45 -108 153.45C-108 153.45 -108 153.45 -108 153.45C-108 153.45 -108 153.45 -108 153.45C-108 153.45 -108 153.45 -108 153.45C-108 153.45 -108 153.45 -108 153.45C-108 153.45 -108 153.45 -108 153.45C-108 153.45 -108 153.45 -108 153.45C-108 153.45 -108 153.45 -108 153.45C-108 153.45 -108 153.45 -108 153.45C-108 153.45 -108 153.45 -108 153.45C-108 153.45 -108 153.45 -108 153.45C-108 153.45 -108 153.45 -108 153.45C-108 153.45 -108 153.45 -108 153.45C-108 153.45 -108 153.45 -108 153.45C-108 153.45 -108 153.45 -108 153.45C-108 153.45 -108 153.45 -108 153.45C-108 153.45 -108 153.45 -108 153.45C-108 153.45 -108 153.45 -108 153.45C-108 153.45 -108 153.45 -108 153.45C-108 153.45 -108 153.45 -108 153.45C-108 153.45 -108 153.45 -108 153.45C-108 153.45 -108 153.45 -108 153.45C-108 153.45 -108 153.45 -108 153.45C-108 153.45 -108 153.45 -108 153.45C-108 153.45 -108 153.45 -108 153.45C-108 153.45 -108 153.45 -108 153.45C-108 153.45 -108 153.45 -108 153.45C-108 153.45 -108 153.45 -108 153.45C-108 153.45 -108 153.45 -108 153.45C-108 153.45 -108 153.45 -108 153.45C-108 153.45 -108 153.45 -108 153.45C-108 153.45 -108 153.45 -108 153.45C-108 153.45 -108 153.45 -108 153.45C-108 153.45 -108 153.45 -108 153.45C-108 153.45 -108 153.45 -108 153.45C-108 153.45 -108 153.45 -108 153.45C-108 153.45 -108 153.45 -108 153.45C-108 153.45 -108 153.45 -108 153.45C-108 153.45 -108 153.45 -108 153.45C-108 153.45 -108 153.45 -108 153.45C-108 153.45 -108 153.45 -108 153.45C-108 153.45 -108 153.45 -108 153.45C-108 153.45 -108 153.45 -108 153.45C-108 153.45 -108 153.45 -108 153.45C-108 153.45 -108 153.45 -108 153.45C-108 153.45 -108 153.45 -108 153.45C-108 153.45 -108 153.45 -108 153.45C-108 153.45 -108 153.45 -108 153.45C-108 153.45 -108 153.45 -108 153.45C-108 153.45 -108 153.45 -108 153.45C-108 153.45 -108 153.45 -108 153.45C-108 153.45 -108 153.45 -108 153.45C-108 153.45 -108 153.45 -108 153.45C-108 153.45 -108 153.45 -108 153.45C-108 153.45 -108 153.45 -108 153.45C-108 153.45 -108 153.45 -108 153.45C-108 153.45 -108 153.45 -108 153.45C-108 153.45 -108 153.45 -108 153.45C-108 153.45 -108 153.45 -108 153.45C-108 153.45 -108 153.45 -108 153.45C-108 153.45 -108 153.45 -108 153.45C-108 153.45 -108 153.45 -108 153.45C-108 153.45 -108 153.45 -108 153.45C-108 153.45 -108 153.45 -108 153.45C-108 153.45 -108 153.45 -108 153.45C-108 153.45 -108 153.45 -108 153.45C-108 153.45 -108 153.45 -108 153.45C-108 153.45 -108 153.45 -108 153.45C-108 153.45 -108 153.45 -108 153.45C-108 153.45 -108 153.45 -108 153.45C-108 153.45 -108 153.45 -108 153.45C-108 153.45 -108 153.45 -108 153.45C-108 153.45 -108 153.45 -108 153.45C-108 153.45 -108 153.45 -108 153.45C-108 153.45 -108 153.45 -108 153.45C-108 153.45 -108 153.45 -108 153.45C-108 153.45 -108 153.45 -108 153.45C-108 153.45 -108 153.45 -108 153.45C-108 153.45 -108 153.45 -108 153.45C-108 153.45 -108 153.45 -108 153.45C-108 153.45 -108 153.45 -108 153.45C-108 153.45 -108 153.45 -108 153.45C-108 153.45 -108 153.45 -108 153.45C-108 153.45 -108 153.45 -108 153.45C-108 153.45 -108 153.45 -108 153.45C-108 153.45 -108 153.45 -108 153.45C-108 153.45 -108 153.45 -108 153.45C-108 153.45 -108 153.45 -108 153.45C-108 153.45 -108 153.45 -108 153.45C-108 153.45 -108 153.45 -108 153.45C-108 153.45 -108 153.45 -108 153.45C-108 153.45 -108 153.45 -108 153.45C-108 153.45 -108 153.45 -108 153.45C-108 153.45 -108 153.45 -108 153.45C-108 153.45 -108 153.45 -108 153.45C-108 153.45 -108 153.45 -108 153.45C-108 153.45 -108 153.45 -108 153.45C-108 153.45 -108 153.45 -108 153.45C-108 153.45 -108 153.45 -108 153.45C-108 153.45 -108 153.45 -108 153.45C-108 153.45 -108 153.45 -108 153.45C-108 153.45 -108 153.45 -108 153.45C-108 153.45 -108 153.45 -108 153.45C-108 153.45 -108 153.45 -108 153.45C-108 153.45 -108 153.45 -108 153.45C-108 153.45 -108 153.45 -108 153.45C-108 153.45 -108 153.45 -108 153.45C-108 153.45 -108 153.45 -108 153.45C-108 153.45 -108 153.45 -108 153.45C-108 153.45 -108 153.45 -108 153.45C-108 153.45 -108 153.45 -108 153.45C-108 153.45 -108 153.45 -108 153.45C-108 153.45 -108 153.45 -108 153.45C-108 153.45 -108 153.45 -108 153.45C-108 153.45 -108 153.45 -108 153.45C-108 153.45 -108 153.45 -108 153.45C-108 153.45 -108 153.45 -108 153.45C-108 153.45 -108 153.45 -108 153.45C-108 153.45 -108 153.45 -108 153.45C-108 153.45 -108 153.45 -108 153.45C-108 153.45 -108 153.45 -108 153.45C-108 153.45 -108 153.45 -108 153.45C-108 153.45 -108 153.45 -108 153.45C-108 153.45 -108 153.45 -108 153.45C-108 153.45 -108 153.45 -108 153.45C-108 153.45 -108 153.45 -108 153.45C-108 153.45 -108 153.45 -108 153.45C-108 153.45 -108 153.45 -108 153.45C-108 153.45 -108 153.45 -108 153.45C-108 153.45 -108 153.45 -108 153.45C-108 153.45 -108 153.45 -108 153.45C-108 153.45 -108 153.45 -108 153.45C-108 153.45 -108 153.45 -108 153.45C-108 153.45 -108 153.45 -108 153.45C-108 153.45 -108 153.45 -108 153.45C-108 153.45 -108 153.45 -108 153.45C-108 153.45 -108 153.45 -108 153.45C-108 153.45 -108 153.45 -108 153.45C-108 153.45 -108 153.45 -108 153.45C-108 153.45 -108 153.45 -108 153.45C-108 153.45 -108 153.45 -108 153.45C-108 153.45 -108 153.45 -108 153.45C-108 153.45 -108 153.45 -108 153.45C-108 153.45 -108 153.45 -108 153.45C-108 153.45 -108 153.45 -108 153.45C-108 153.45 -108 153.45 -108 153.45C-108 153.45 -108 153.45 -108 153.45C-108 153.45 -108 153.45 -108 153.45C-108 153.45 -108 153.45 -108 153.45C-108 153.45 -108 153.45 -108 153.45C-108 153.45 -108 153.45 -108 153.45C-108 153.45 -108 153.45 -108 153.45C-108 153.45 -108 153.45 -108 153.45C-108 153.45 -108 153.45 -108 153.45C-108 153.45 -108 153.45 -108 153.45C-108 153.45 -108 153.45 -108 153.45C-108 153.45 -108 153.45 -108 153.45C-108 153.45 -108 153.45 -108 153.45C-108 153.45 -108 153.45 -108 153.45C-108 153.45 -108 153.45 -108 153.45C-108 153.45 -108 153.45 -108 153.45C-108 153.45 -108 153.45 -108 153.45C-108 153.45 -108 153.45 -108 153.45C-108 153.45 -108 153.45 -108 153.45C-108 153.45 -108 153.45 -108 153.45C-108 153.45 -108 153.45 -108 153.45C-108 153.45 -108 153.45 -108 153.45C-108 153.45 -108 153.45 -108 153.45C-108 153.45 -108 153.45 -108 153.45C-108 153.45 -108 153.45 -108 153.45C-108 153.45 -108 153.45 -108 153.45C-108 153.45 -108 153.45 -108 153.45C-108 153.45 -108 153.45 -108 153.45C-108 153.45 -108 153.45 -108 153.45C-108 153.45 -108 153.45 -108 153.45C-108 153.45 -108 153.45 -108 153.45C-108 153.45 -108 153.45 -108 153.45C-108 153.45 -108 153.45 -108 153.45C-108 153.45 -108 153.45 -108 153.45C-108 153.45 -108 153.45 -108 153.45C-108 153.45 -108 153.45 -108 153.45C-108 153.45 -108 153.45 -108 153.45C-108 153.45 -108 153.45 -108 153.45C-108 153.45 -108 153.45 -108 153.45C-108 153.45 -108 153.45 -108 153.45C-108 153.45 -108 153.45 -108 153.45C-108 153.45 -108 153.45 -108 153.45C-108 153.45 -108 153.45 -108 153.45C-108 153.45 -108 153.45 -108 153.45C-108 153.45 -108 153.45 -108 153.45C-108 153.45 -108 153.45 -108 153.45C-108 153.45 -108 153.45 -108 153.45C-108 153.45 -108 153.45 -108 153.45C-108 153.45 -108 153.45 -108 153.45C-108 153.45 -108 153.45 -108 153.45C-108 153.45 -108 153.45 -108 153.45C-108 153.45 -108 153.45 -108 153.45C-108 153.45 -108 153.45 -108 153.45C-108 153.45 -108 153.45 -108 153.45C-108 153.45 -108 153.45 -108 153.45C-108 153.45 -108 153.45 -108 153.45C-108 153.45 -108 153.45 -108 153.45C-108 153.45 -108 153.45 -108 153.45C-108 153.45 -108 153.45 -108 153.45C-108 153.45 -108 153.45 -108 153.45C-108 153.45 -108 153.45 -108 153.45C-108 153.45 -108 153.45 -108 153.45C-108 153.45 -108 153.45 -108 153.45C-108 153.45 -108 153.45 -108 153.45C-108 153.45 -108 153.45 -108 153.45C-108 153.45 -108 153.45 -108 153.45C-108 153.45 -108 153.45 -108 153.45C-108 153.45 -108 153.45 -108 153.45C-108 153.45 -108 153.45 -108 153.45C-108 153.45 -108 153.45 -108 153.45C-108 153.45 -108 153.45 -108 153.45C-108 153.45 -108 153.45 -108 153.45C-108 153.45 -108 153.45 -108 153.45C-108 153.45 -108 153.45 -108 153.45C-108 153.45 -108 153.45 -108 153.45C-108 153.45 -108 153.45 -108 153.45C-108 153.45 -108 153.45 -108 153.45C-108 153.45 -108 153.45 -108 153.45C-108 153.45 -108 153.45 -108 153.45C-108 153.45 -108 153.45 -108 153.45C-108 153.45 -108 153.45 -108 153.45C-108 153.45 -108 153.45 -108 153.45C-108 153.45 -108 153.45 -108 153.45C-108 153.45 -108 153.45 -108 153.45C-108 153.45 -108 153.45 -108 153.45C-108 153.45 -108 153.45 -108 153.45C-108 153.45 -108 153.45 -108 153.45C-108 153.45 -108 153.45 -108 153.45C-108 153.45 -108 153.45 -108 153.45C-108 153.45 -108 153.45 -108 153.45C-108 153.45 -108 153.45 -108 153.45C-108 153.45 -108 153.45 -108 153.45C-108 153.45 -108 153.45 -108 153.45C-108 153.45 -108 153.45 -108 153.45C-108 153.45 -108 153.45 -108 153.45C-108 153.45 -108 153.45 -108 153.45C-108 153.45 -108 153.45 -108 153.45C-108 153.45 -108 153.45 -108 153.45C-108 153.45 -108 153.45 -108 153.45C-108 153.45 -108 153.45 -108 153.45C-108 153.45 -108 153.45 -108 153.45C-108 153.45 -108 153.45 -108 153.45C-108 153.45 -108 153.45 -108 153.45C-108 153.45 -108 153.45 -108 153.45C-108 153.45 -108 153.45 -108 153.45C-108 153.45 -108 153.45 -108 153.45C-108 153.45 -108 153.45 -108 153.45C-108 153.45 -108 153.45 -108 153.45C-108 153.45 -108 153.45 -108 153.45C-108 153.45 -108 153.45 -108 153.45C-108 153.45 -108 153.45 -108 153.45C-108 153.45 -108 153.45 -108 153.45C-108 153.45 -108 153.45 -108 153.45C-108 153.45 -108 153.45 -108 153.45C-108 153.45 -108 153.45 -108 153.45C-108 153.45 -108 153.45 -108 153.45C-108 153.45 -108 153.45 -108 153.45C-108 153.45 -108 153.45 -108 153.45C-108 153.45 -108 153.45 -108 153.45C-108 153.45 -108 153.45 -108 153.45C-108 153.45 -108 153.45 -108 153.45C-108 153.45 -108 153.45 -108 153.45C-108 153.45 -108 153.45 -108 153.45C-108 153.45 -108 153.45 -108 153.45C-108 153.45 -108 153.45 -108 153.45C-108 153.45 -108 153.45 -108 153.45C-108 153.45 -108 153.45 -108 153.45C-108 153.45 -108 153.45 -108 153.45C-108 153.45 -108 153.45 -108 153.45C-108 153.45 -108 153.45 -108 153.45C-108 153.45 -108 153.45 -108 153.45C-108 153.45 -108 153.45 -108 153.45C-108 153.45 -108 153.45 -108 153.45C-108 153.45 -108 153.45 -108 153.45C-108 153.45 -108 153.45 -108 153.45C-108 153.45 -108 153.45 -108 153.45C-108 153.45 -108 153.45 -108 153.45C-108 153.45 -108 153.45 -108 153.45C-108 153.45 -108 153.45 -108 153.45C-108 153.45 -108 153.45 -108 153.45C-108 153.45 -108 153.45 -108 153.45C-108 153.45 -108 153.45 -108 153.45C-108 153.45 -108 153.45 -108 153.45C-108 153.45 -108 153.45 -108 153.45C-108 153.45 -108 153.45 -108 153.45C-108 153.45 -108 153.45 -108 153.45C-108 153.45 -108 153.45 -108 153.45C-108 153.45 -108 153.45 -108 153.45C-108 153.45 -108 153.45 -108 153.45C-108 153.45 -108 153.45 -108 153.45C-108 153.45 -108 153.45 -108 153.45C-108 153.45 -108 153.45 -108 153.45C-108 153.45 -108 153.45 -108 153.45C-108 153.45 -108 153.45 -108 153.45C-108 153.45 -108 153.45 -108 153.45C-108 153.45 -108 153.45 -108 153.45C-108 153.45 -108 153.45 -108 153.45C-108 153.45 -108 153.45 -108 153.45C-108 153.45 -108 153.45 -108 153.45C-108 153.45 -108 153.45 -108 153.45C-108 153.45 -108 153.45 -108 153.45C-108 153.45 -108 153.45 -108 153.45C-108 153.45 -108 153.45 -108 153.45C-108 153.45 -108 153.45 -108 153.45C-108 153.45 -108 153.45 -108 153.45C-108 153.45 -108 153.45 -108 153.45C-108 153.45 -108 153.45 -108 153.45C-108 153.45 -108 153.45 -108 153.45C-108 153.45 -108 153.45 -108 153.45C-108 153.45 -108 153.45 -108 153.45C-108 153.45 -108 153.45 -108 153.45C-108 153.45 -108 153.45 -108 153.45C-108 153.45 -108 153.45 -108 153.45C-108 153.45 -108 153.45 -108 153.45C-108 153.45 -108 153.45 -108 153.45C-108 153.45 -108 153.45 -108 153.45C-108 153.45 -108 153.45 -108 153.45C-108 153.45 -108 153.45 -108 153.45C-108 153.45 -108 153.45 -108 153.45C-108 153.45 -108 153.45 -108 153.45C-108 153.45 -108 153.45 -108 153.45C-108 153.45 -108 153.45 -108 153.45C-108 153.45 -108 153.45 -108 153.45C-108 153.45 -108 153.45 -108 153.45V155.45ZM-109 66.6588L-109 154.45H-107L-107 66.6588H-109ZM-67.9653 57.9167C-80.6571 63.0278 -94.261 65.6588 -108 65.6588V67.6588C-94.006 67.6588 -80.1484 64.979 -67.2182 59.7719L-67.9653 57.9167ZM-34.0323 35.8737C-43.7434 45.315 -55.2736 52.8057 -67.9653 57.9167L-67.2182 59.7719C-54.2879 54.5648 -42.5374 46.9319 -32.6382 37.3077L-34.0323 35.8737ZM-11.3658 2.89386C-16.6198 15.2257 -24.3214 26.4325 -34.0323 35.8737L-32.6382 37.3077C-22.7389 27.6834 -14.8849 16.2562 -9.52586 3.67777L-11.3658 2.89386ZM-3.40813 -36C-3.40813 -22.6539 -6.1119 -9.43789 -11.3658 2.89386L-9.52586 3.67777C-4.1668 -8.90075 -1.40813 -22.3834 -1.40813 -36H-3.40813ZM87.891 -37L-2.40813 -37V-35L87.891 -35V-37ZM73.8997 37.2739C83.7967 14.0441 88.891 -10.8545 88.891 -36H86.891C86.891 -11.1251 81.8516 13.5069 72.0597 36.4899L73.8997 37.2739ZM31.2129 99.3852C49.4972 81.6088 64.0027 60.5036 73.8997 37.2739L72.0597 36.4899C62.2678 59.473 47.9148 80.3578 29.8188 97.9512L31.2129 99.3852ZM13.0098 115.023C19.3893 110.189 25.4699 104.969 31.2129 99.3852L29.8188 97.9512C24.1348 103.477 18.1166 108.645 11.802 113.428L13.0098 115.023ZM27.3854 126.787C22.8194 122.091 18.0337 117.643 13.0488 113.46L11.763 114.991C16.6962 119.132 21.4324 123.533 25.9514 128.181L27.3854 126.787ZM68.8803 190.662C59.2613 166.776 45.1617 145.071 27.3854 126.787L25.9514 128.181C43.5448 146.277 57.5021 167.762 67.0251 191.409L68.8803 190.662ZM83.4498 266C83.4498 240.148 78.4993 214.548 68.8803 190.662L67.0251 191.409C76.5481 215.057 81.4498 240.403 81.4498 266H83.4498ZM-5.34101 267L82.4498 267V265L-5.34101 265V267ZM-14.0831 225.965C-8.97199 238.657 -6.34101 252.261 -6.34101 266H-4.34101C-4.34101 252.006 -7.02074 238.148 -12.2278 225.218L-14.0831 225.965ZM-36.1261 192.032C-26.6848 201.743 -19.1941 213.274 -14.0831 225.965L-12.2278 225.218C-17.435 212.288 -25.0679 200.537 -34.6921 190.638L-36.1261 192.032ZM-69.1059 169.366C-56.7741 174.62 -45.5673 182.321 -36.1261 192.032L-34.6921 190.638C-44.3163 180.739 -55.7436 172.885 -68.322 167.526L-69.1059 169.366ZM-108 161.408C-94.6537 161.408 -81.4377 164.112 -69.1059 169.366L-68.322 167.526C-80.9005 162.167 -94.3831 159.408 -108 159.408V161.408ZM-109 154.45L-109 160.408H-107L-107 154.45H-109Z" fill="#FF6644" mask="url(#path-1-inside-1_187_3872)"/>
</g>
</svg>
