<svg width="236" height="901" viewBox="0 0 236 901" fill="none" xmlns="http://www.w3.org/2000/svg">
<path d="M185.955 901V419.531M185.955 419.531H176.375V388H347.546V419.531H335.411M185.955 419.531H335.411M335.411 419.531V896" stroke="#FF6B2C" stroke-opacity="0.3"/>
<path d="M230.66 419.299V900" stroke="#FF6B2C" stroke-opacity="0.3"/>
<path d="M186.157 474.074H70.7383V901" stroke="#FF6B2C" stroke-opacity="0.3"/>
<path d="M186.156 453.533H59V474.074H77.5629" stroke="#FF6B2C" stroke-opacity="0.3"/>
<path d="M107 900L107 473" stroke="#FF6B2C" stroke-opacity="0.3"/>
<path d="M150 900L150 473" stroke="#FF6B2C" stroke-opacity="0.3"/>
<path d="M159.646 173.351C162.391 174.266 168.017 177.468 168.566 182.957C169.115 178.566 174.284 174.723 176.8 173.351" stroke="#FF6B2C" stroke-opacity="0.3" stroke-width="1.5"/>
<path d="M159.646 173.351C162.391 174.266 168.017 177.468 168.566 182.957C169.115 178.566 174.284 174.723 176.8 173.351" stroke="#FF6B2C" stroke-opacity="0.3" stroke-width="1.5"/>
<path d="M130.828 161C133.573 161.915 139.199 165.117 139.748 170.606C140.297 166.215 145.466 162.372 147.982 161" stroke="#FF6B2C" stroke-opacity="0.3" stroke-width="1.5"/>
<path d="M66.2724 22.1668H0.738281C3.67265 -1.79717 27.1476 -5.22061 40.3522 10.9184C56.0022 0.648097 66.2724 12.8746 66.2724 22.1668Z" stroke="#FF6B2C" stroke-opacity="0.3"/>
</svg>
