<svg width="337" height="248" viewBox="0 0 337 248" fill="none" xmlns="http://www.w3.org/2000/svg">
<mask id="path-1-inside-1_187_27" fill="white">
<path fill-rule="evenodd" clip-rule="evenodd" d="M145.296 336.647L-5.57652 336.647C-5.57652 312.817 -10.1399 289.22 -19.006 267.204C-27.8721 245.187 -40.8673 225.183 -57.2498 208.332C-73.6322 191.482 -93.081 178.115 -114.486 168.996C-135.89 159.877 -158.832 155.183 -182 155.183L-182 3.05176e-05C-139.019 3.10301e-05 -96.4587 8.70767 -56.7494 25.6258C-17.04 42.5438 19.0408 67.3411 49.433 98.6016C58.9792 108.421 67.9055 118.817 76.1692 129.725C83.3219 121.202 90.9251 113.021 98.9547 105.214C130.215 74.8217 167.327 50.7133 208.171 34.2651C249.015 17.817 292.791 9.35126 337 9.35126L337 160.223C313.17 160.223 289.573 164.787 267.557 173.653C245.541 182.519 225.536 195.514 208.686 211.897C191.835 228.279 178.469 247.728 169.349 269.133C160.23 290.537 155.536 313.479 155.536 336.647L145.296 336.647Z"/>
</mask>
<path d="M-5.57652 336.647L-6.57652 336.647L-6.57652 337.647L-5.57652 337.647L-5.57652 336.647ZM145.296 336.647L145.296 337.647L145.296 336.647ZM-19.006 267.204L-18.0784 266.83L-19.006 267.204ZM-57.2498 208.332L-57.9668 209.03L-57.2498 208.332ZM-114.486 168.996L-114.878 169.916L-114.486 168.996ZM-182 155.183L-183 155.183L-183 156.183L-182 156.183L-182 155.183ZM-182 3.05176e-05L-182 -0.999969L-183 -0.999969L-183 3.05057e-05L-182 3.05176e-05ZM-56.7494 25.6258L-57.1413 26.5457L-56.7494 25.6258ZM49.433 98.6016L48.716 99.2987L49.433 98.6016ZM76.1692 129.725L75.3721 130.329L76.1292 131.328L76.9351 130.368L76.1692 129.725ZM98.9547 105.214L99.6518 105.931L98.9547 105.214ZM208.171 34.2651L207.797 33.3375L208.171 34.2651ZM337 9.35126L338 9.35126L338 8.35126L337 8.35126L337 9.35126ZM337 160.223L337 161.223L338 161.223L338 160.223L337 160.223ZM267.557 173.653L267.183 172.725L267.557 173.653ZM208.686 211.897L207.988 211.18L208.686 211.897ZM169.349 269.133L170.269 269.525L169.349 269.133ZM155.536 336.647L155.536 337.647L156.536 337.647L156.536 336.647L155.536 336.647ZM-5.57652 337.647L145.296 337.647L145.296 335.647L-5.57652 335.647L-5.57652 337.647ZM-19.9336 267.577C-11.1155 289.474 -6.57652 312.944 -6.57652 336.647L-4.57652 336.647C-4.57652 312.689 -9.16425 288.966 -18.0784 266.83L-19.9336 267.577ZM-57.9668 209.03C-41.6758 225.786 -28.7517 245.68 -19.9336 267.577L-18.0784 266.83C-26.9925 244.695 -40.0589 224.58 -56.5328 207.635L-57.9668 209.03ZM-114.878 169.916C-93.5963 178.983 -74.2577 192.273 -57.9668 209.03L-56.5328 207.635C-73.0067 190.691 -92.5657 177.248 -114.094 168.076L-114.878 169.916ZM-182 156.183C-158.967 156.183 -136.159 160.849 -114.878 169.916L-114.094 168.076C-135.622 158.904 -158.696 154.183 -182 154.183L-182 156.183ZM-183 3.05057e-05L-183 155.183L-181 155.183L-181 3.05295e-05L-183 3.05057e-05ZM-56.3574 24.7058C-96.1901 7.73511 -138.884 -0.999969 -182 -0.999969L-182 1.00003C-139.154 1.00003 -96.7273 9.68024 -57.1413 26.5457L-56.3574 24.7058ZM50.15 97.9046C19.6663 66.5498 -16.5247 41.6764 -56.3574 24.7058L-57.1413 26.5457C-17.5553 43.4113 18.4153 68.1323 48.716 99.2987L50.15 97.9046ZM76.9663 129.121C68.678 118.18 59.725 107.753 50.15 97.9046L48.716 99.2987C58.2335 109.088 67.133 119.453 75.3721 130.329L76.9663 129.121ZM98.2577 104.497C90.2039 112.327 82.5777 120.534 75.4032 129.082L76.9351 130.368C84.0662 121.871 91.6464 113.714 99.6518 105.931L98.2577 104.497ZM207.797 33.3375C166.834 49.8337 129.612 74.0132 98.2577 104.497L99.6518 105.931C130.818 75.6302 167.82 51.5929 208.544 35.1928L207.797 33.3375ZM337 8.35126C292.663 8.35126 248.76 16.8414 207.797 33.3375L208.544 35.1928C249.269 18.7926 292.918 10.3513 337 10.3513L337 8.35126ZM338 160.223L338 9.35126L336 9.35126L336 160.223L338 160.223ZM267.93 174.581C289.827 165.762 313.297 161.223 337 161.223L337 159.223C313.042 159.223 289.319 163.811 267.183 172.725L267.93 174.581ZM209.383 212.614C226.139 196.323 246.033 183.399 267.93 174.581L267.183 172.725C245.048 181.639 224.933 194.706 207.988 211.18L209.383 212.614ZM170.269 269.525C179.336 248.243 192.626 228.905 209.383 212.614L207.988 211.18C191.044 227.654 177.601 247.213 168.429 268.741L170.269 269.525ZM156.536 336.647C156.536 313.614 161.202 290.806 170.269 269.525L168.429 268.741C159.257 290.269 154.536 313.343 154.536 336.647L156.536 336.647ZM145.296 337.647L155.536 337.647L155.536 335.647L145.296 335.647L145.296 337.647Z" fill="#FF6644" mask="url(#path-1-inside-1_187_27)"/>
</svg>
