<svg width="64" height="168" viewBox="0 0 64 168" fill="none" xmlns="http://www.w3.org/2000/svg">
<g style="mix-blend-mode:hard-light">
<path fill-rule="evenodd" clip-rule="evenodd" d="M-68.9998 92.6481C-68.9999 92.6481 -68.9999 92.6481 -69 92.6481L-69 33.3457C-59.6332 33.3457 -50.3581 31.552 -41.7044 28.067C-33.0506 24.5821 -25.1875 19.4741 -18.5642 13.0348C-11.9409 6.59546 -6.687 -1.04916 -3.10249 -9.46256C0.482025 -17.876 2.32695 -26.8934 2.32695 -36L63.3237 -36C63.3237 -19.1057 59.901 -2.37682 53.2512 13.2315C46.6013 28.8398 36.8544 43.0218 24.567 54.9679C20.7076 58.7201 16.6213 62.2287 12.3339 65.4768C15.6836 68.2883 18.8996 71.2768 21.9681 74.4329C33.9142 86.7203 43.3903 101.308 49.8555 117.362C56.3207 133.416 59.6483 150.623 59.6483 168L0.345848 168C0.345848 158.633 -1.44784 149.358 -4.93279 140.704C-8.41773 132.05 -13.5257 124.187 -19.965 117.564C-26.4044 110.941 -34.049 105.687 -42.4624 102.102C-50.8758 98.5179 -59.8932 96.6729 -68.9998 96.6729L-68.9998 92.6481Z" fill="#FF6D2F" fill-opacity="0.78"/>
</g>
</svg>
