<svg width="354" height="125" viewBox="0 0 354 125" fill="none" xmlns="http://www.w3.org/2000/svg">
<mask id="path-1-inside-1_187_19" fill="white">
<path fill-rule="evenodd" clip-rule="evenodd" d="M156.166 -148L278.515 -148C278.515 -128.675 282.215 -109.539 289.405 -91.6855C296.595 -73.8317 307.133 -57.6093 320.418 -43.9445C333.704 -30.2798 349.475 -19.4404 366.833 -12.0451C384.191 -4.64977 402.795 -0.843462 421.583 -0.84346L421.583 125C386.728 125 352.214 117.939 320.013 104.219C287.811 90.4999 258.551 70.3909 233.905 45.0405C226.164 37.0779 218.925 28.6472 212.224 19.8016C206.423 26.7126 200.258 33.3476 193.746 39.6783C168.396 64.3245 138.3 83.875 105.179 97.2134C72.0566 110.552 36.5568 117.417 0.705876 117.417L0.705888 -4.93112C20.0307 -4.93112 39.1664 -8.63171 57.0202 -15.8216C74.874 -23.0115 91.0964 -33.5498 104.761 -46.835C118.426 -60.1201 129.265 -75.8919 136.661 -93.2498C144.056 -110.608 147.862 -129.212 147.862 -148L156.166 -148Z"/>
</mask>
<path d="M278.515 -148L279.515 -148L279.515 -149L278.515 -149L278.515 -148ZM156.166 -148L156.166 -149L156.166 -148ZM289.405 -91.6855L288.477 -91.3119L289.405 -91.6855ZM320.418 -43.9445L319.701 -43.2475L320.418 -43.9445ZM421.583 -0.84346L422.583 -0.84346L422.583 -1.84346L421.583 -1.84346L421.583 -0.84346ZM421.583 125L421.583 126L422.583 126L422.583 125L421.583 125ZM320.013 104.219L319.621 105.139L320.013 104.219ZM233.905 45.0405L234.622 44.3434L233.905 45.0405ZM212.224 19.8016L213.021 19.1977L212.264 18.1984L211.458 19.1587L212.224 19.8016ZM193.746 39.6783L193.049 38.9613L193.746 39.6783ZM105.179 97.2134L105.552 98.141L105.179 97.2134ZM0.705876 117.417L-0.294124 117.417L-0.294124 118.417L0.705876 118.417L0.705876 117.417ZM0.705888 -4.93112L0.705888 -5.93112L-0.294112 -5.93112L-0.294112 -4.93112L0.705888 -4.93112ZM57.0202 -15.8216L56.6466 -16.7492L57.0202 -15.8216ZM104.761 -46.835L104.064 -47.5519L104.761 -46.835ZM136.661 -93.2498L135.741 -93.6417L136.661 -93.2498ZM147.862 -148L147.862 -149L146.862 -149L146.862 -148L147.862 -148ZM278.515 -149L156.166 -149L156.166 -147L278.515 -147L278.515 -149ZM290.333 -92.059C283.191 -109.794 279.515 -128.802 279.515 -148L277.515 -148C277.515 -128.547 281.24 -109.285 288.477 -91.3119L290.333 -92.059ZM321.135 -44.6416C307.942 -58.2123 297.474 -74.3245 290.333 -92.059L288.477 -91.3119C295.715 -73.3388 306.325 -57.0063 319.701 -43.2475L321.135 -44.6416ZM367.225 -12.965C349.991 -20.3078 334.329 -31.071 321.135 -44.6416L319.701 -43.2475C333.078 -29.4886 348.96 -18.5729 366.441 -11.1251L367.225 -12.965ZM421.583 -1.84346C402.93 -1.84346 384.46 -5.62232 367.225 -12.965L366.441 -11.1251C383.923 -3.67722 402.66 0.156538 421.583 0.15654L421.583 -1.84346ZM422.583 125L422.583 -0.84346L420.583 -0.84346L420.583 125L422.583 125ZM319.621 105.139C351.946 118.912 386.593 126 421.583 126L421.583 124C386.863 124 352.483 116.966 320.405 103.299L319.621 105.139ZM233.188 45.7375C257.926 71.1821 287.295 91.3674 319.621 105.139L320.405 103.299C288.326 89.6325 259.177 69.5997 234.622 44.3434L233.188 45.7375ZM211.427 20.4054C218.153 29.2835 225.418 37.7454 233.188 45.7375L234.622 44.3434C226.91 36.4104 219.698 28.0108 213.021 19.1977L211.427 20.4054ZM194.443 40.3953C200.979 34.0411 207.168 27.3814 212.99 20.4444L211.458 19.1587C205.679 26.0438 199.536 32.6541 193.049 38.9613L194.443 40.3953ZM105.552 98.141C138.793 84.7545 168.999 65.133 194.443 40.3953L193.049 38.9613C167.793 63.5161 137.808 82.9954 104.805 96.2858L105.552 98.141ZM0.705876 118.417C36.6842 118.417 72.3109 111.527 105.552 98.141L104.805 96.2858C71.8023 109.576 36.4293 116.417 0.705876 116.417L0.705876 118.417ZM-0.294112 -4.93112L-0.294124 117.417L1.70588 117.417L1.70589 -4.93112L-0.294112 -4.93112ZM56.6466 -16.7492C38.912 -9.60732 19.9033 -5.93112 0.705888 -5.93112L0.705888 -3.93112C20.1582 -3.93112 39.4207 -7.65609 57.3938 -14.894L56.6466 -16.7492ZM104.064 -47.5519C90.4934 -34.3583 74.3812 -23.891 56.6466 -16.7492L57.3938 -14.894C75.3668 -22.1319 91.6994 -32.7413 105.458 -46.118L104.064 -47.5519ZM135.741 -93.6417C128.398 -76.4072 117.635 -60.7456 104.064 -47.5519L105.458 -46.118C119.217 -59.4946 130.133 -75.3766 137.581 -92.8578L135.741 -93.6417ZM146.862 -148C146.862 -129.347 143.083 -110.876 135.741 -93.6417L137.581 -92.8578C145.028 -110.339 148.862 -129.076 148.862 -148L146.862 -148ZM156.166 -149L147.862 -149L147.862 -147L156.166 -147L156.166 -149Z" fill="#FF6644" mask="url(#path-1-inside-1_187_19)"/>
</svg>
