<svg width="295" height="19" viewBox="0 0 295 19" fill="none" xmlns="http://www.w3.org/2000/svg">
<path d="M2 12.2447C31.9843 12.2447 62.06 9.57319 91.8521 6.64537C104.704 5.38231 117.541 3.9389 130.343 2.29034C133.483 1.88591 131.353 1.92092 129.977 2.29034C125.122 3.59324 120.615 6.3969 115.947 8.17246C109.488 10.6295 100.783 11.877 95.0851 15.7513C92.4469 17.5452 101.583 16.9495 104.845 16.7128C127.997 15.0328 151.028 12.6265 173.957 9.19052C186.162 7.36168 198.289 5.11278 210.496 3.3084C214.245 2.75429 204.54 4.12766 203.786 4.32646C199.443 5.47098 196.021 7.54839 192.135 9.52987C188.767 11.2476 192.488 10.2251 195.246 10.152C227.446 9.29899 260.111 6.65155 291.991 2.29034C295.759 1.77491 287.866 3.6406 286.379 4.10023" stroke="#FF6625" stroke-width="3" stroke-linecap="round"/>
</svg>
