<svg width="448" height="777" viewBox="0 0 448 777" fill="none" xmlns="http://www.w3.org/2000/svg">
<mask id="mask0_798_5682" style="mask-type:alpha" maskUnits="userSpaceOnUse" x="0" y="0" width="448" height="777">
<rect opacity="0.8" width="448" height="777" fill="white" fill-opacity="0.3"/>
</mask>
<g mask="url(#mask0_798_5682)">
<rect width="0.669378" height="519.213" rx="0.334689" transform="matrix(0.982904 0.184121 -0.182742 0.983161 2.34375 -126.503)" fill="black"/>
<rect width="0.669378" height="519.213" rx="0.334689" transform="matrix(0.982904 0.184121 -0.182742 0.983161 6.09375 -125.799)" fill="black"/>
<rect width="0.669378" height="519.213" rx="0.334689" transform="matrix(0.982904 0.184121 -0.182742 0.983161 9.85938 -125.095)" fill="black"/>
<rect width="0.669378" height="519.213" rx="0.334689" transform="matrix(0.982904 0.184121 -0.182742 0.983161 13.6094 -124.39)" fill="black"/>
<rect width="0.669378" height="519.213" rx="0.334689" transform="matrix(0.982904 0.184121 -0.182742 0.983161 17.375 -123.686)" fill="black"/>
<rect width="0.669378" height="519.213" rx="0.334689" transform="matrix(0.982904 0.184121 -0.182742 0.983161 21.1328 -122.982)" fill="black"/>
<rect width="0.669378" height="519.213" rx="0.334689" transform="matrix(0.982904 0.184121 -0.182742 0.983161 24.8984 -122.277)" fill="black"/>
<rect width="0.669378" height="519.213" rx="0.334689" transform="matrix(0.982904 0.184121 -0.182742 0.983161 47.4531 -118.052)" fill="black"/>
<rect width="0.669378" height="519.213" rx="0.334689" transform="matrix(0.982904 0.184121 -0.182742 0.983161 28.6562 -121.573)" fill="black"/>
<rect width="0.669378" height="519.213" rx="0.334689" transform="matrix(0.982904 0.184121 -0.182742 0.983161 51.2109 -117.348)" fill="black"/>
<rect width="0.669378" height="519.213" rx="0.334689" transform="matrix(0.982904 0.184121 -0.182742 0.983161 32.4141 -120.869)" fill="black"/>
<rect width="0.669378" height="519.213" rx="0.334689" transform="matrix(0.982904 0.184121 -0.182742 0.983161 54.9688 -116.643)" fill="black"/>
<rect width="0.669378" height="519.213" rx="0.334689" transform="matrix(0.982904 0.184121 -0.182742 0.983161 36.1719 -120.165)" fill="black"/>
<rect width="0.669378" height="519.213" rx="0.334689" transform="matrix(0.982904 0.184121 -0.182742 0.983161 58.7344 -115.939)" fill="black"/>
<rect width="0.669378" height="519.213" rx="0.334689" transform="matrix(0.982904 0.184121 -0.182742 0.983161 39.9375 -119.46)" fill="black"/>
<rect width="0.669378" height="519.213" rx="0.334689" transform="matrix(0.982904 0.184121 -0.182742 0.983161 62.4922 -115.235)" fill="black"/>
<rect width="0.669378" height="519.213" rx="0.334689" transform="matrix(0.982904 0.184121 -0.182742 0.983161 43.6953 -118.756)" fill="black"/>
<rect width="0.669378" height="519.213" rx="0.334689" transform="matrix(0.982904 0.184121 -0.182742 0.983161 66.25 -114.531)" fill="black"/>
<rect width="0.669378" height="519.213" rx="0.334689" transform="matrix(0.982904 0.184121 -0.182742 0.983161 70.0078 -113.826)" fill="black"/>
<rect width="0.669378" height="519.213" rx="0.334689" transform="matrix(0.982904 0.184121 -0.182742 0.983161 92.5703 -109.601)" fill="black"/>
<rect width="0.669378" height="519.213" rx="0.334689" transform="matrix(0.982904 0.184121 -0.182742 0.983161 73.7734 -113.122)" fill="black"/>
<rect width="0.669378" height="519.213" rx="0.334689" transform="matrix(0.982904 0.184121 -0.182742 0.983161 96.3281 -108.896)" fill="black"/>
<rect width="0.669378" height="519.213" rx="0.334689" transform="matrix(0.982904 0.184121 -0.182742 0.983161 77.5312 -112.418)" fill="black"/>
<rect width="0.669378" height="519.213" rx="0.334689" transform="matrix(0.982904 0.184121 -0.182742 0.983161 100.086 -108.192)" fill="black"/>
<rect width="0.669378" height="519.213" rx="0.334689" transform="matrix(0.982904 0.184121 -0.182742 0.983161 81.2891 -111.713)" fill="black"/>
<rect width="0.669378" height="519.213" rx="0.334689" transform="matrix(0.982904 0.184121 -0.182742 0.983161 103.852 -107.488)" fill="black"/>
<rect width="0.669378" height="519.213" rx="0.334689" transform="matrix(0.982904 0.184121 -0.182742 0.983161 85.0469 -111.009)" fill="black"/>
<rect width="0.669378" height="519.213" rx="0.334689" transform="matrix(0.982904 0.184121 -0.182742 0.983161 107.609 -106.784)" fill="black"/>
<rect width="0.669378" height="519.213" rx="0.334689" transform="matrix(0.982904 0.184121 -0.182742 0.983161 88.8125 -110.305)" fill="black"/>
<rect width="0.669378" height="519.213" rx="0.334689" transform="matrix(0.982904 0.184121 -0.182742 0.983161 111.367 -106.079)" fill="black"/>
<rect width="0.669378" height="519.213" rx="0.334689" transform="matrix(0.982904 0.184121 -0.182742 0.983161 115.125 -105.375)" fill="black"/>
<rect width="0.669378" height="519.213" rx="0.334689" transform="matrix(0.982904 0.184121 -0.182742 0.983161 137.688 -101.15)" fill="black"/>
<rect width="0.669378" height="519.213" rx="0.334689" transform="matrix(0.982904 0.184121 -0.182742 0.983161 118.883 -104.671)" fill="black"/>
<rect width="0.669378" height="519.213" rx="0.334689" transform="matrix(0.982904 0.184121 -0.182742 0.983161 141.445 -100.445)" fill="black"/>
<rect width="0.669378" height="519.213" rx="0.334689" transform="matrix(0.982904 0.184121 -0.182742 0.983161 122.648 -103.967)" fill="black"/>
<rect width="0.669378" height="519.213" rx="0.334689" transform="matrix(0.982904 0.184121 -0.182742 0.983161 145.203 -99.7409)" fill="black"/>
<rect width="0.669378" height="519.213" rx="0.334689" transform="matrix(0.982904 0.184121 -0.182742 0.983161 126.406 -103.262)" fill="black"/>
<rect width="0.669378" height="519.213" rx="0.334689" transform="matrix(0.982904 0.184121 -0.182742 0.983161 148.961 -99.0366)" fill="black"/>
<rect width="0.669378" height="519.213" rx="0.334689" transform="matrix(0.982904 0.184121 -0.182742 0.983161 130.164 -102.558)" fill="black"/>
<rect width="0.669378" height="519.213" rx="0.334689" transform="matrix(0.982904 0.184121 -0.182742 0.983161 152.727 -98.3324)" fill="black"/>
<rect width="0.669378" height="519.213" rx="0.334689" transform="matrix(0.982904 0.184121 -0.182742 0.983161 133.922 -101.854)" fill="black"/>
<rect width="0.669378" height="519.213" rx="0.334689" transform="matrix(0.982904 0.184121 -0.182742 0.983161 156.484 -97.6282)" fill="black"/>
<rect width="0.669378" height="519.213" rx="0.334689" transform="matrix(0.982904 0.184121 -0.182742 0.983161 160.242 -96.924)" fill="black"/>
<rect width="0.669378" height="519.213" rx="0.334689" transform="matrix(0.982904 0.184121 -0.182742 0.983161 182.797 -92.6984)" fill="black"/>
<rect width="0.669378" height="519.213" rx="0.334689" transform="matrix(0.982904 0.184121 -0.182742 0.983161 164 -96.2197)" fill="black"/>
<rect width="0.669378" height="519.213" rx="0.334689" transform="matrix(0.982904 0.184121 -0.182742 0.983161 186.555 -91.9939)" fill="black"/>
<rect width="0.669378" height="519.213" rx="0.334689" transform="matrix(0.982904 0.184121 -0.182742 0.983161 167.758 -95.5155)" fill="black"/>
<rect width="0.669378" height="519.213" rx="0.334689" transform="matrix(0.982904 0.184121 -0.182742 0.983161 190.32 -91.2897)" fill="black"/>
<rect width="0.669378" height="519.213" rx="0.334689" transform="matrix(0.982904 0.184121 -0.182742 0.983161 171.523 -94.8111)" fill="black"/>
<rect width="0.669378" height="519.213" rx="0.334689" transform="matrix(0.982904 0.184121 -0.182742 0.983161 194.078 -90.5856)" fill="black"/>
<rect width="0.669378" height="519.213" rx="0.334689" transform="matrix(0.982904 0.184121 -0.182742 0.983161 175.281 -94.1068)" fill="black"/>
<rect width="0.669378" height="519.213" rx="0.334689" transform="matrix(0.982904 0.184121 -0.182742 0.983161 197.836 -89.8812)" fill="black"/>
<rect width="0.669378" height="519.213" rx="0.334689" transform="matrix(0.982904 0.184121 -0.182742 0.983161 179.039 -93.4026)" fill="black"/>
<rect width="0.669378" height="519.213" rx="0.334689" transform="matrix(0.982904 0.184121 -0.182742 0.983161 201.602 -89.177)" fill="black"/>
<rect width="0.669378" height="519.213" rx="0.334689" transform="matrix(0.982904 0.184121 -0.182742 0.983161 205.359 -88.4729)" fill="black"/>
<rect width="0.669378" height="519.213" rx="0.334689" transform="matrix(0.982904 0.184121 -0.182742 0.983161 227.914 -84.2474)" fill="black"/>
<rect width="0.669378" height="519.213" rx="0.334689" transform="matrix(0.982904 0.184121 -0.182742 0.983161 209.117 -87.7686)" fill="black"/>
<rect width="0.669378" height="519.213" rx="0.334689" transform="matrix(0.982904 0.184121 -0.182742 0.983161 231.672 -83.5428)" fill="black"/>
<rect width="0.669378" height="519.213" rx="0.334689" transform="matrix(0.982904 0.184121 -0.182742 0.983161 212.875 -87.0641)" fill="black"/>
<rect width="0.669378" height="519.213" rx="0.334689" transform="matrix(0.982904 0.184121 -0.182742 0.983161 235.43 -82.8385)" fill="black"/>
<rect width="0.669378" height="519.213" rx="0.334689" transform="matrix(0.982904 0.184121 -0.182742 0.983161 216.633 -86.36)" fill="black"/>
<rect width="0.669378" height="519.213" rx="0.334689" transform="matrix(0.982904 0.184121 -0.182742 0.983161 239.195 -82.1343)" fill="black"/>
<rect width="0.669378" height="519.213" rx="0.334689" transform="matrix(0.982904 0.184121 -0.182742 0.983161 220.391 -85.6556)" fill="black"/>
<rect width="0.669378" height="519.213" rx="0.334689" transform="matrix(0.982904 0.184121 -0.182742 0.983161 242.953 -81.4301)" fill="black"/>
<rect width="0.669378" height="519.213" rx="0.334689" transform="matrix(0.982904 0.184121 -0.182742 0.983161 224.156 -84.9515)" fill="black"/>
<rect width="0.669378" height="519.213" rx="0.334689" transform="matrix(0.982904 0.184121 -0.182742 0.983161 246.711 -80.726)" fill="black"/>
<rect width="0.669378" height="519.213" rx="0.334689" transform="matrix(0.982904 0.184121 -0.182742 0.983161 250.477 -80.0216)" fill="black"/>
<rect width="0.669378" height="519.213" rx="0.334689" transform="matrix(0.982904 0.184121 -0.182742 0.983161 273.023 -75.7959)" fill="black"/>
<rect width="0.669378" height="519.213" rx="0.334689" transform="matrix(0.982904 0.184121 -0.182742 0.983161 254.234 -79.3173)" fill="black"/>
<rect width="0.669378" height="519.213" rx="0.334689" transform="matrix(0.982904 0.184121 -0.182742 0.983161 276.797 -75.0918)" fill="black"/>
<rect width="0.669378" height="519.213" rx="0.334689" transform="matrix(0.982904 0.184121 -0.182742 0.983161 257.992 -78.6132)" fill="black"/>
<rect width="0.669378" height="519.213" rx="0.334689" transform="matrix(0.982904 0.184121 -0.182742 0.983161 280.547 -74.3875)" fill="black"/>
<rect width="0.669378" height="519.213" rx="0.334689" transform="matrix(0.982904 0.184121 -0.182742 0.983161 261.758 -77.9088)" fill="black"/>
<rect width="0.669378" height="519.213" rx="0.334689" transform="matrix(0.982904 0.184121 -0.182742 0.983161 284.305 -73.6831)" fill="black"/>
<rect width="0.669378" height="519.213" rx="0.334689" transform="matrix(0.982904 0.184121 -0.182742 0.983161 265.508 -77.2045)" fill="black"/>
<rect width="0.669378" height="519.213" rx="0.334689" transform="matrix(0.982904 0.184121 -0.182742 0.983161 288.07 -72.9789)" fill="black"/>
<rect width="0.669378" height="519.213" rx="0.334689" transform="matrix(0.982904 0.184121 -0.182742 0.983161 269.266 -76.5)" fill="black"/>
<rect width="0.669378" height="519.213" rx="0.334689" transform="matrix(0.982904 0.184121 -0.182742 0.983161 291.828 -72.2745)" fill="black"/>
<rect width="0.669378" height="519.213" rx="0.334689" transform="matrix(0.982904 0.184121 -0.182742 0.983161 295.102 -71.6619)" fill="black"/>
<rect width="0.669378" height="519.213" rx="0.334689" transform="matrix(0.982904 0.184121 -0.182742 0.983161 317.656 -67.436)" fill="black"/>
<rect width="0.669378" height="519.213" rx="0.334689" transform="matrix(0.982904 0.184121 -0.182742 0.983161 298.859 -70.9576)" fill="black"/>
<rect width="0.669378" height="519.213" rx="0.334689" transform="matrix(0.982904 0.184121 -0.182742 0.983161 321.422 -66.7322)" fill="black"/>
<rect width="0.669378" height="519.213" rx="0.334689" transform="matrix(0.982904 0.184121 -0.182742 0.983161 302.617 -70.2533)" fill="black"/>
<rect width="0.669378" height="519.213" rx="0.334689" transform="matrix(0.982904 0.184121 -0.182742 0.983161 325.172 -66.0278)" fill="black"/>
<rect width="0.669378" height="519.213" rx="0.334689" transform="matrix(0.982904 0.184121 -0.182742 0.983161 306.383 -69.5491)" fill="black"/>
<rect width="0.669378" height="519.213" rx="0.334689" transform="matrix(0.982904 0.184121 -0.182742 0.983161 328.938 -65.3235)" fill="black"/>
<rect width="0.669378" height="519.213" rx="0.334689" transform="matrix(0.982904 0.184121 -0.182742 0.983161 310.141 -68.8448)" fill="black"/>
<rect width="0.669378" height="519.213" rx="0.334689" transform="matrix(0.982904 0.184121 -0.182742 0.983161 332.695 -64.619)" fill="black"/>
<rect width="0.669378" height="519.213" rx="0.334689" transform="matrix(0.982904 0.184121 -0.182742 0.983161 313.898 -68.1405)" fill="black"/>
<rect width="0.669378" height="519.213" rx="0.334689" transform="matrix(0.982904 0.184121 -0.182742 0.983161 336.453 -63.9148)" fill="black"/>
<rect width="0.669378" height="519.213" rx="0.334689" transform="matrix(0.982904 0.184121 -0.182742 0.983161 340.219 -63.2107)" fill="black"/>
<rect width="0.669378" height="519.213" rx="0.334689" transform="matrix(0.982904 0.184121 -0.182742 0.983161 362.773 -58.9851)" fill="black"/>
<rect width="0.669378" height="519.213" rx="0.334689" transform="matrix(0.982904 0.184121 -0.182742 0.983161 343.977 -62.5063)" fill="black"/>
<rect width="0.669378" height="519.213" rx="0.334689" transform="matrix(0.982904 0.184121 -0.182742 0.983161 366.539 -58.2808)" fill="black"/>
<rect width="0.669378" height="519.213" rx="0.334689" transform="matrix(0.982904 0.184121 -0.182742 0.983161 347.734 -61.8022)" fill="black"/>
<rect width="0.669378" height="519.213" rx="0.334689" transform="matrix(0.982904 0.184121 -0.182742 0.983161 370.289 -57.5764)" fill="black"/>
<rect width="0.669378" height="519.213" rx="0.334689" transform="matrix(0.982904 0.184121 -0.182742 0.983161 351.492 -61.098)" fill="black"/>
<rect width="0.669378" height="519.213" rx="0.334689" transform="matrix(0.982904 0.184121 -0.182742 0.983161 374.055 -56.8723)" fill="black"/>
<rect width="0.669378" height="519.213" rx="0.334689" transform="matrix(0.982904 0.184121 -0.182742 0.983161 355.258 -60.3937)" fill="black"/>
<rect width="0.669378" height="519.213" rx="0.334689" transform="matrix(0.982904 0.184121 -0.182742 0.983161 377.812 -56.1681)" fill="black"/>
<rect width="0.669378" height="519.213" rx="0.334689" transform="matrix(0.982904 0.184121 -0.182742 0.983161 359.016 -59.6895)" fill="black"/>
<rect width="0.669378" height="519.213" rx="0.334689" transform="matrix(0.982904 0.184121 -0.182742 0.983161 381.57 -55.4638)" fill="black"/>
<rect width="0.669378" height="519.213" rx="0.334689" transform="matrix(0.982904 0.184121 -0.182742 0.983161 385.328 -54.7594)" fill="black"/>
<rect width="0.669378" height="519.213" rx="0.334689" transform="matrix(0.982904 0.184121 -0.182742 0.983161 407.891 -50.5338)" fill="black"/>
<rect width="0.669378" height="519.213" rx="0.334689" transform="matrix(0.982904 0.184121 -0.182742 0.983161 389.094 -54.0552)" fill="black"/>
<rect width="0.669378" height="519.213" rx="0.334689" transform="matrix(0.982904 0.184121 -0.182742 0.983161 411.648 -49.8296)" fill="black"/>
<rect width="0.669378" height="519.213" rx="0.334689" transform="matrix(0.982904 0.184121 -0.182742 0.983161 392.852 -53.3511)" fill="black"/>
<rect width="0.669378" height="519.213" rx="0.334689" transform="matrix(0.982904 0.184121 -0.182742 0.983161 415.406 -49.1254)" fill="black"/>
<rect width="0.669378" height="519.213" rx="0.334689" transform="matrix(0.982904 0.184121 -0.182742 0.983161 396.609 -52.6467)" fill="black"/>
<rect width="0.669378" height="519.213" rx="0.334689" transform="matrix(0.982904 0.184121 -0.182742 0.983161 419.164 -48.4211)" fill="black"/>
<rect width="0.669378" height="519.213" rx="0.334689" transform="matrix(0.982904 0.184121 -0.182742 0.983161 400.367 -51.9426)" fill="black"/>
<rect width="0.669378" height="519.213" rx="0.334689" transform="matrix(0.982904 0.184121 -0.182742 0.983161 422.922 -47.7168)" fill="black"/>
<rect width="0.669378" height="519.213" rx="0.334689" transform="matrix(0.982904 0.184121 -0.182742 0.983161 404.125 -51.2383)" fill="black"/>
<rect width="0.669378" height="519.213" rx="0.334689" transform="matrix(0.982904 0.184121 -0.182742 0.983161 426.688 -47.0126)" fill="black"/>
<rect width="0.669378" height="519.213" rx="0.334689" transform="matrix(0.982904 0.184121 -0.182742 0.983161 430.445 -46.3085)" fill="black"/>
<rect width="0.669378" height="519.213" rx="0.334689" transform="matrix(0.982904 0.184121 -0.182742 0.983161 453.008 -42.0826)" fill="black"/>
<rect width="0.669378" height="519.213" rx="0.334689" transform="matrix(0.982904 0.184121 -0.182742 0.983161 434.203 -45.6042)" fill="black"/>
<rect width="0.669378" height="519.213" rx="0.334689" transform="matrix(0.982904 0.184121 -0.182742 0.983161 456.766 -41.3785)" fill="black"/>
<rect width="0.669378" height="519.213" rx="0.334689" transform="matrix(0.982904 0.184121 -0.182742 0.983161 437.969 -44.8999)" fill="black"/>
<rect width="0.669378" height="519.213" rx="0.334689" transform="matrix(0.982904 0.184121 -0.182742 0.983161 460.523 -40.6743)" fill="black"/>
<rect width="0.669378" height="519.213" rx="0.334689" transform="matrix(0.982904 0.184121 -0.182742 0.983161 441.727 -44.1954)" fill="black"/>
<rect width="0.669378" height="519.213" rx="0.334689" transform="matrix(0.982904 0.184121 -0.182742 0.983161 464.281 -39.97)" fill="black"/>
<rect width="0.669378" height="519.213" rx="0.334689" transform="matrix(0.982904 0.184121 -0.182742 0.983161 445.484 -43.4913)" fill="black"/>
<rect width="0.669378" height="519.213" rx="0.334689" transform="matrix(0.982904 0.184121 -0.182742 0.983161 468.047 -39.2656)" fill="black"/>
<rect width="0.669378" height="519.213" rx="0.334689" transform="matrix(0.982904 0.184121 -0.182742 0.983161 449.242 -42.787)" fill="black"/>
<rect width="0.669378" height="519.213" rx="0.334689" transform="matrix(0.982904 0.184121 -0.182742 0.983161 471.797 -38.5614)" fill="black"/>
<rect width="0.669378" height="519.213" rx="0.334689" transform="matrix(0.982904 0.184121 -0.182742 0.983161 475.562 -37.8572)" fill="black"/>
<rect width="0.669378" height="519.213" rx="0.334689" transform="matrix(0.982904 0.184121 -0.182742 0.983161 498.117 -33.6317)" fill="black"/>
<rect width="0.669378" height="519.213" rx="0.334689" transform="matrix(0.982904 0.184121 -0.182742 0.983161 479.32 -37.153)" fill="black"/>
<rect width="0.669378" height="519.213" rx="0.334689" transform="matrix(0.982904 0.184121 -0.182742 0.983161 501.883 -32.9271)" fill="black"/>
<rect width="0.669378" height="519.213" rx="0.334689" transform="matrix(0.982904 0.184121 -0.182742 0.983161 483.078 -36.4486)" fill="black"/>
<rect width="0.669378" height="519.213" rx="0.334689" transform="matrix(0.982904 0.184121 -0.182742 0.983161 505.641 -32.223)" fill="black"/>
<rect width="0.669378" height="519.213" rx="0.334689" transform="matrix(0.982904 0.184121 -0.182742 0.983161 486.844 -35.7444)" fill="black"/>
<rect width="0.669378" height="519.213" rx="0.334689" transform="matrix(0.982904 0.184121 -0.182742 0.983161 509.398 -31.5187)" fill="black"/>
<rect width="0.669378" height="519.213" rx="0.334689" transform="matrix(0.982904 0.184121 -0.182742 0.983161 490.602 -35.0402)" fill="black"/>
<rect width="0.669378" height="519.213" rx="0.334689" transform="matrix(0.982904 0.184121 -0.182742 0.983161 513.164 -30.8146)" fill="black"/>
<rect width="0.669378" height="519.213" rx="0.334689" transform="matrix(0.982904 0.184121 -0.182742 0.983161 494.359 -34.3357)" fill="black"/>
<rect width="0.669378" height="519.213" rx="0.334689" transform="matrix(0.982904 0.184121 -0.182742 0.983161 516.922 -30.1104)" fill="black"/>
<rect width="0.669378" height="519.213" rx="0.334689" transform="matrix(0.982904 0.184121 -0.182742 0.983161 520.68 -29.406)" fill="black"/>
<rect width="0.669378" height="519.213" rx="0.334689" transform="matrix(0.982904 0.184121 -0.182742 0.983161 524.438 -28.7017)" fill="black"/>
<rect width="0.669378" height="519.213" rx="0.334689" transform="matrix(0.982904 0.184121 -0.182742 0.983161 528.195 -27.9973)" fill="black"/>
<rect width="0.669378" height="519.213" rx="0.334689" transform="matrix(0.982904 0.184121 -0.182742 0.983161 531.953 -27.2932)" fill="black"/>
<rect width="0.669378" height="519.213" rx="0.334689" transform="matrix(0.982904 0.184121 -0.182742 0.983161 535.711 -26.589)" fill="black"/>
<rect width="0.669378" height="519.213" rx="0.334689" transform="matrix(0.982904 0.184121 -0.182742 0.983161 539.477 -25.8846)" fill="black"/>
<rect width="0.669378" height="519.213" rx="0.334689" transform="matrix(0.982904 0.184121 -0.182742 0.983161 519.891 373.163)" fill="black"/>
<rect width="0.669378" height="519.213" rx="0.334689" transform="matrix(0.982904 0.184121 -0.182742 0.983161 542.453 377.389)" fill="black"/>
<rect width="0.669378" height="519.213" rx="0.334689" transform="matrix(0.982904 0.184121 -0.182742 0.983161 523.648 373.867)" fill="black"/>
<rect width="0.669378" height="519.213" rx="0.334689" transform="matrix(0.982904 0.184121 -0.182742 0.983161 527.414 374.572)" fill="black"/>
<rect width="0.669378" height="519.213" rx="0.334689" transform="matrix(0.982904 0.184121 -0.182742 0.983161 531.172 375.276)" fill="black"/>
<rect width="0.669378" height="519.213" rx="0.334689" transform="matrix(0.982904 0.184121 -0.182742 0.983161 534.93 375.98)" fill="black"/>
<rect width="0.669378" height="519.213" rx="0.334689" transform="matrix(0.982904 0.184121 -0.182742 0.983161 538.688 376.685)" fill="black"/>
<rect width="0.669378" height="519.213" rx="0.334689" transform="matrix(0.982904 0.184121 -0.182742 0.983161 1.57812 400.818)" fill="black"/>
<rect width="0.669378" height="519.213" rx="0.334689" transform="matrix(0.982904 0.184121 -0.182742 0.983161 24.1328 405.043)" fill="black"/>
<rect width="0.669378" height="519.213" rx="0.334689" transform="matrix(0.982904 0.184121 -0.182742 0.983161 5.33594 401.522)" fill="black"/>
<rect width="0.669378" height="519.213" rx="0.334689" transform="matrix(0.982904 0.184121 -0.182742 0.983161 27.8906 405.747)" fill="black"/>
<rect width="0.669378" height="519.213" rx="0.334689" transform="matrix(0.982904 0.184121 -0.182742 0.983161 9.09375 402.226)" fill="black"/>
<rect width="0.669378" height="519.213" rx="0.334689" transform="matrix(0.982904 0.184121 -0.182742 0.983161 31.6562 406.452)" fill="black"/>
<rect width="0.669378" height="519.213" rx="0.334689" transform="matrix(0.982904 0.184121 -0.182742 0.983161 12.8594 402.93)" fill="black"/>
<rect width="0.669378" height="519.213" rx="0.334689" transform="matrix(0.982904 0.184121 -0.182742 0.983161 35.4141 407.156)" fill="black"/>
<rect width="0.669378" height="519.213" rx="0.334689" transform="matrix(0.982904 0.184121 -0.182742 0.983161 16.6094 403.635)" fill="black"/>
<rect width="0.669378" height="519.213" rx="0.334689" transform="matrix(0.982904 0.184121 -0.182742 0.983161 39.1719 407.86)" fill="black"/>
<rect width="0.669378" height="519.213" rx="0.334689" transform="matrix(0.982904 0.184121 -0.182742 0.983161 20.375 404.339)" fill="black"/>
<rect width="0.669378" height="519.213" rx="0.334689" transform="matrix(0.982904 0.184121 -0.182742 0.983161 42.9297 408.564)" fill="black"/>
<rect width="0.669378" height="519.213" rx="0.334689" transform="matrix(0.982904 0.184121 -0.182742 0.983161 46.6953 409.268)" fill="black"/>
<rect width="0.669378" height="519.213" rx="0.334689" transform="matrix(0.982904 0.184121 -0.182742 0.983161 69.25 413.495)" fill="black"/>
<rect width="0.669378" height="519.213" rx="0.334689" transform="matrix(0.982904 0.184121 -0.182742 0.983161 50.4531 409.973)" fill="black"/>
<rect width="0.669378" height="519.213" rx="0.334689" transform="matrix(0.982904 0.184121 -0.182742 0.983161 73.0078 414.199)" fill="black"/>
<rect width="0.669378" height="519.213" rx="0.334689" transform="matrix(0.982904 0.184121 -0.182742 0.983161 54.2109 410.677)" fill="black"/>
<rect width="0.669378" height="519.213" rx="0.334689" transform="matrix(0.982904 0.184121 -0.182742 0.983161 76.7656 414.903)" fill="black"/>
<rect width="0.669378" height="519.213" rx="0.334689" transform="matrix(0.982904 0.184121 -0.182742 0.983161 57.9766 411.381)" fill="black"/>
<rect width="0.669378" height="519.213" rx="0.334689" transform="matrix(0.982904 0.184121 -0.182742 0.983161 80.5312 415.607)" fill="black"/>
<rect width="0.669378" height="519.213" rx="0.334689" transform="matrix(0.982904 0.184121 -0.182742 0.983161 61.7266 412.086)" fill="black"/>
<rect width="0.669378" height="519.213" rx="0.334689" transform="matrix(0.982904 0.184121 -0.182742 0.983161 84.2891 416.311)" fill="black"/>
<rect width="0.669378" height="519.213" rx="0.334689" transform="matrix(0.982904 0.184121 -0.182742 0.983161 65.4844 412.79)" fill="black"/>
<rect width="0.669378" height="519.213" rx="0.334689" transform="matrix(0.982904 0.184121 -0.182742 0.983161 88.0469 417.016)" fill="black"/>
<rect width="0.669378" height="519.213" rx="0.334689" transform="matrix(0.982904 0.184121 -0.182742 0.983161 91.8125 417.72)" fill="black"/>
<rect width="0.669378" height="519.213" rx="0.334689" transform="matrix(0.982904 0.184121 -0.182742 0.983161 114.359 421.945)" fill="black"/>
<rect width="0.669378" height="519.213" rx="0.334689" transform="matrix(0.982904 0.184121 -0.182742 0.983161 95.5703 418.424)" fill="black"/>
<rect width="0.669378" height="519.213" rx="0.334689" transform="matrix(0.982904 0.184121 -0.182742 0.983161 118.125 422.65)" fill="black"/>
<rect width="0.669378" height="519.213" rx="0.334689" transform="matrix(0.982904 0.184121 -0.182742 0.983161 99.3281 419.128)" fill="black"/>
<rect width="0.669378" height="519.213" rx="0.334689" transform="matrix(0.982904 0.184121 -0.182742 0.983161 121.883 423.354)" fill="black"/>
<rect width="0.669378" height="519.213" rx="0.334689" transform="matrix(0.982904 0.184121 -0.182742 0.983161 103.086 419.833)" fill="black"/>
<rect width="0.669378" height="519.213" rx="0.334689" transform="matrix(0.982904 0.184121 -0.182742 0.983161 125.641 424.058)" fill="black"/>
<rect width="0.669378" height="519.213" rx="0.334689" transform="matrix(0.982904 0.184121 -0.182742 0.983161 106.844 420.537)" fill="black"/>
<rect width="0.669378" height="519.213" rx="0.334689" transform="matrix(0.982904 0.184121 -0.182742 0.983161 129.406 424.762)" fill="black"/>
<rect width="0.669378" height="519.213" rx="0.334689" transform="matrix(0.982904 0.184121 -0.182742 0.983161 110.609 421.241)" fill="black"/>
<rect width="0.669378" height="519.213" rx="0.334689" transform="matrix(0.982904 0.184121 -0.182742 0.983161 133.164 425.467)" fill="black"/>
<rect width="0.669378" height="519.213" rx="0.334689" transform="matrix(0.982904 0.184121 -0.182742 0.983161 136.438 426.08)" fill="black"/>
<rect width="0.669378" height="519.213" rx="0.334689" transform="matrix(0.982904 0.184121 -0.182742 0.983161 158.992 430.305)" fill="black"/>
<rect width="0.669378" height="519.213" rx="0.334689" transform="matrix(0.982904 0.184121 -0.182742 0.983161 140.195 426.784)" fill="black"/>
<rect width="0.669378" height="519.213" rx="0.334689" transform="matrix(0.982904 0.184121 -0.182742 0.983161 162.75 431.009)" fill="black"/>
<rect width="0.669378" height="519.213" rx="0.334689" transform="matrix(0.982904 0.184121 -0.182742 0.983161 143.953 427.488)" fill="black"/>
<rect width="0.669378" height="519.213" rx="0.334689" transform="matrix(0.982904 0.184121 -0.182742 0.983161 166.508 431.714)" fill="black"/>
<rect width="0.669378" height="519.213" rx="0.334689" transform="matrix(0.982904 0.184121 -0.182742 0.983161 147.719 428.193)" fill="black"/>
<rect width="0.669378" height="519.213" rx="0.334689" transform="matrix(0.982904 0.184121 -0.182742 0.983161 170.273 432.418)" fill="black"/>
<rect width="0.669378" height="519.213" rx="0.334689" transform="matrix(0.982904 0.184121 -0.182742 0.983161 151.477 428.897)" fill="black"/>
<rect width="0.669378" height="519.213" rx="0.334689" transform="matrix(0.982904 0.184121 -0.182742 0.983161 174.031 433.122)" fill="black"/>
<rect width="0.669378" height="519.213" rx="0.334689" transform="matrix(0.982904 0.184121 -0.182742 0.983161 155.234 429.601)" fill="black"/>
<rect width="0.669378" height="519.213" rx="0.334689" transform="matrix(0.982904 0.184121 -0.182742 0.983161 177.789 433.827)" fill="black"/>
<rect width="0.669378" height="519.213" rx="0.334689" transform="matrix(0.982904 0.184121 -0.182742 0.983161 181.555 434.53)" fill="black"/>
<rect width="0.669378" height="519.213" rx="0.334689" transform="matrix(0.982904 0.184121 -0.182742 0.983161 204.109 438.757)" fill="black"/>
<rect width="0.669378" height="519.213" rx="0.334689" transform="matrix(0.982904 0.184121 -0.182742 0.983161 185.312 435.235)" fill="black"/>
<rect width="0.669378" height="519.213" rx="0.334689" transform="matrix(0.982904 0.184121 -0.182742 0.983161 207.867 439.461)" fill="black"/>
<rect width="0.669378" height="519.213" rx="0.334689" transform="matrix(0.982904 0.184121 -0.182742 0.983161 189.07 435.939)" fill="black"/>
<rect width="0.669378" height="519.213" rx="0.334689" transform="matrix(0.982904 0.184121 -0.182742 0.983161 211.625 440.165)" fill="black"/>
<rect width="0.669378" height="519.213" rx="0.334689" transform="matrix(0.982904 0.184121 -0.182742 0.983161 192.828 436.643)" fill="black"/>
<rect width="0.669378" height="519.213" rx="0.334689" transform="matrix(0.982904 0.184121 -0.182742 0.983161 215.383 440.869)" fill="black"/>
<rect width="0.669378" height="519.213" rx="0.334689" transform="matrix(0.982904 0.184121 -0.182742 0.983161 196.586 437.348)" fill="black"/>
<rect width="0.669378" height="519.213" rx="0.334689" transform="matrix(0.982904 0.184121 -0.182742 0.983161 219.148 441.574)" fill="black"/>
<rect width="0.669378" height="519.213" rx="0.334689" transform="matrix(0.982904 0.184121 -0.182742 0.983161 200.352 438.052)" fill="black"/>
<rect width="0.669378" height="519.213" rx="0.334689" transform="matrix(0.982904 0.184121 -0.182742 0.983161 222.906 442.278)" fill="black"/>
<rect width="0.669378" height="519.213" rx="0.334689" transform="matrix(0.982904 0.184121 -0.182742 0.983161 226.664 442.982)" fill="black"/>
<rect width="0.669378" height="519.213" rx="0.334689" transform="matrix(0.982904 0.184121 -0.182742 0.983161 249.219 447.208)" fill="black"/>
<rect width="0.669378" height="519.213" rx="0.334689" transform="matrix(0.982904 0.184121 -0.182742 0.983161 230.422 443.686)" fill="black"/>
<rect width="0.669378" height="519.213" rx="0.334689" transform="matrix(0.982904 0.184121 -0.182742 0.983161 252.984 447.912)" fill="black"/>
<rect width="0.669378" height="519.213" rx="0.334689" transform="matrix(0.982904 0.184121 -0.182742 0.983161 234.188 444.39)" fill="black"/>
<rect width="0.669378" height="519.213" rx="0.334689" transform="matrix(0.982904 0.184121 -0.182742 0.983161 256.742 448.616)" fill="black"/>
<rect width="0.669378" height="519.213" rx="0.334689" transform="matrix(0.982904 0.184121 -0.182742 0.983161 237.945 445.095)" fill="black"/>
<rect width="0.669378" height="519.213" rx="0.334689" transform="matrix(0.982904 0.184121 -0.182742 0.983161 260.5 449.32)" fill="black"/>
<rect width="0.669378" height="519.213" rx="0.334689" transform="matrix(0.982904 0.184121 -0.182742 0.983161 241.703 445.799)" fill="black"/>
<rect width="0.669378" height="519.213" rx="0.334689" transform="matrix(0.982904 0.184121 -0.182742 0.983161 264.266 450.025)" fill="black"/>
<rect width="0.669378" height="519.213" rx="0.334689" transform="matrix(0.982904 0.184121 -0.182742 0.983161 245.461 446.503)" fill="black"/>
<rect width="0.669378" height="519.213" rx="0.334689" transform="matrix(0.982904 0.184121 -0.182742 0.983161 268.023 450.729)" fill="black"/>
<rect width="0.669378" height="519.213" rx="0.334689" transform="matrix(0.982904 0.184121 -0.182742 0.983161 271.781 451.433)" fill="black"/>
<rect width="0.669378" height="519.213" rx="0.334689" transform="matrix(0.982904 0.184121 -0.182742 0.983161 294.344 455.659)" fill="black"/>
<rect width="0.669378" height="519.213" rx="0.334689" transform="matrix(0.982904 0.184121 -0.182742 0.983161 275.539 452.137)" fill="black"/>
<rect width="0.669378" height="519.213" rx="0.334689" transform="matrix(0.982904 0.184121 -0.182742 0.983161 298.102 456.363)" fill="black"/>
<rect width="0.669378" height="519.213" rx="0.334689" transform="matrix(0.982904 0.184121 -0.182742 0.983161 279.297 452.842)" fill="black"/>
<rect width="0.669378" height="519.213" rx="0.334689" transform="matrix(0.982904 0.184121 -0.182742 0.983161 301.859 457.067)" fill="black"/>
<rect width="0.669378" height="519.213" rx="0.334689" transform="matrix(0.982904 0.184121 -0.182742 0.983161 283.062 453.546)" fill="black"/>
<rect width="0.669378" height="519.213" rx="0.334689" transform="matrix(0.982904 0.184121 -0.182742 0.983161 305.617 457.772)" fill="black"/>
<rect width="0.669378" height="519.213" rx="0.334689" transform="matrix(0.982904 0.184121 -0.182742 0.983161 286.82 454.25)" fill="black"/>
<rect width="0.669378" height="519.213" rx="0.334689" transform="matrix(0.982904 0.184121 -0.182742 0.983161 309.383 458.476)" fill="black"/>
<rect width="0.669378" height="519.213" rx="0.334689" transform="matrix(0.982904 0.184121 -0.182742 0.983161 290.578 454.955)" fill="black"/>
<rect width="0.669378" height="519.213" rx="0.334689" transform="matrix(0.982904 0.184121 -0.182742 0.983161 313.133 459.18)" fill="black"/>
<rect width="0.669378" height="519.213" rx="0.334689" transform="matrix(0.982904 0.184121 -0.182742 0.983161 316.898 459.884)" fill="black"/>
<rect width="0.669378" height="519.213" rx="0.334689" transform="matrix(0.982904 0.184121 -0.182742 0.983161 339.453 464.11)" fill="black"/>
<rect width="0.669378" height="519.213" rx="0.334689" transform="matrix(0.982904 0.184121 -0.182742 0.983161 320.656 460.588)" fill="black"/>
<rect width="0.669378" height="519.213" rx="0.334689" transform="matrix(0.982904 0.184121 -0.182742 0.983161 343.219 464.814)" fill="black"/>
<rect width="0.669378" height="519.213" rx="0.334689" transform="matrix(0.982904 0.184121 -0.182742 0.983161 324.414 461.293)" fill="black"/>
<rect width="0.669378" height="519.213" rx="0.334689" transform="matrix(0.982904 0.184121 -0.182742 0.983161 346.977 465.518)" fill="black"/>
<rect width="0.669378" height="519.213" rx="0.334689" transform="matrix(0.982904 0.184121 -0.182742 0.983161 328.172 461.997)" fill="black"/>
<rect width="0.669378" height="519.213" rx="0.334689" transform="matrix(0.982904 0.184121 -0.182742 0.983161 350.734 466.223)" fill="black"/>
<rect width="0.669378" height="519.213" rx="0.334689" transform="matrix(0.982904 0.184121 -0.182742 0.983161 331.938 462.702)" fill="black"/>
<rect width="0.669378" height="519.213" rx="0.334689" transform="matrix(0.982904 0.184121 -0.182742 0.983161 354.5 466.927)" fill="black"/>
<rect width="0.669378" height="519.213" rx="0.334689" transform="matrix(0.982904 0.184121 -0.182742 0.983161 335.695 463.406)" fill="black"/>
<rect width="0.669378" height="519.213" rx="0.334689" transform="matrix(0.982904 0.184121 -0.182742 0.983161 358.258 467.632)" fill="black"/>
<rect width="0.669378" height="519.213" rx="0.334689" transform="matrix(0.982904 0.184121 -0.182742 0.983161 362.016 468.336)" fill="black"/>
<rect width="0.669378" height="519.213" rx="0.334689" transform="matrix(0.982904 0.184121 -0.182742 0.983161 384.57 472.561)" fill="black"/>
<rect width="0.669378" height="519.213" rx="0.334689" transform="matrix(0.982904 0.184121 -0.182742 0.983161 365.766 469.04)" fill="black"/>
<rect width="0.669378" height="519.213" rx="0.334689" transform="matrix(0.982904 0.184121 -0.182742 0.983161 388.328 473.266)" fill="black"/>
<rect width="0.669378" height="519.213" rx="0.334689" transform="matrix(0.982904 0.184121 -0.182742 0.983161 369.531 469.744)" fill="black"/>
<rect width="0.669378" height="519.213" rx="0.334689" transform="matrix(0.982904 0.184121 -0.182742 0.983161 392.094 473.97)" fill="black"/>
<rect width="0.669378" height="519.213" rx="0.334689" transform="matrix(0.982904 0.184121 -0.182742 0.983161 373.289 470.448)" fill="black"/>
<rect width="0.669378" height="519.213" rx="0.334689" transform="matrix(0.982904 0.184121 -0.182742 0.983161 395.852 474.674)" fill="black"/>
<rect width="0.669378" height="519.213" rx="0.334689" transform="matrix(0.982904 0.184121 -0.182742 0.983161 377.047 471.153)" fill="black"/>
<rect width="0.669378" height="519.213" rx="0.334689" transform="matrix(0.982904 0.184121 -0.182742 0.983161 399.609 475.378)" fill="black"/>
<rect width="0.669378" height="519.213" rx="0.334689" transform="matrix(0.982904 0.184121 -0.182742 0.983161 380.812 471.857)" fill="black"/>
<rect width="0.669378" height="519.213" rx="0.334689" transform="matrix(0.982904 0.184121 -0.182742 0.983161 403.367 476.083)" fill="black"/>
<rect width="0.669378" height="519.213" rx="0.334689" transform="matrix(0.982904 0.184121 -0.182742 0.983161 407.133 476.787)" fill="black"/>
<rect width="0.669378" height="519.213" rx="0.334689" transform="matrix(0.982904 0.184121 -0.182742 0.983161 429.688 481.012)" fill="black"/>
<rect width="0.669378" height="519.213" rx="0.334689" transform="matrix(0.982904 0.184121 -0.182742 0.983161 410.891 477.491)" fill="black"/>
<rect width="0.669378" height="519.213" rx="0.334689" transform="matrix(0.982904 0.184121 -0.182742 0.983161 433.445 481.716)" fill="black"/>
<rect width="0.669378" height="519.213" rx="0.334689" transform="matrix(0.982904 0.184121 -0.182742 0.983161 414.648 478.195)" fill="black"/>
<rect width="0.669378" height="519.213" rx="0.334689" transform="matrix(0.982904 0.184121 -0.182742 0.983161 437.203 482.421)" fill="black"/>
<rect width="0.669378" height="519.213" rx="0.334689" transform="matrix(0.982904 0.184121 -0.182742 0.983161 418.406 478.899)" fill="black"/>
<rect width="0.669378" height="519.213" rx="0.334689" transform="matrix(0.982904 0.184121 -0.182742 0.983161 440.969 483.125)" fill="black"/>
<rect width="0.669378" height="519.213" rx="0.334689" transform="matrix(0.982904 0.184121 -0.182742 0.983161 422.164 479.604)" fill="black"/>
<rect width="0.669378" height="519.213" rx="0.334689" transform="matrix(0.982904 0.184121 -0.182742 0.983161 444.727 483.829)" fill="black"/>
<rect width="0.669378" height="519.213" rx="0.334689" transform="matrix(0.982904 0.184121 -0.182742 0.983161 425.922 480.308)" fill="black"/>
<rect width="0.669378" height="519.213" rx="0.334689" transform="matrix(0.982904 0.184121 -0.182742 0.983161 448.484 484.534)" fill="black"/>
<rect width="0.669378" height="519.213" rx="0.334689" transform="matrix(0.982904 0.184121 -0.182742 0.983161 452.242 485.238)" fill="black"/>
<rect width="0.669378" height="519.213" rx="0.334689" transform="matrix(0.982904 0.184121 -0.182742 0.983161 474.797 489.464)" fill="black"/>
<rect width="0.669378" height="519.213" rx="0.334689" transform="matrix(0.982904 0.184121 -0.182742 0.983161 456.008 485.942)" fill="black"/>
<rect width="0.669378" height="519.213" rx="0.334689" transform="matrix(0.982904 0.184121 -0.182742 0.983161 478.562 490.168)" fill="black"/>
<rect width="0.669378" height="519.213" rx="0.334689" transform="matrix(0.982904 0.184121 -0.182742 0.983161 459.766 486.646)" fill="black"/>
<rect width="0.669378" height="519.213" rx="0.334689" transform="matrix(0.982904 0.184121 -0.182742 0.983161 482.32 490.872)" fill="black"/>
<rect width="0.669378" height="519.213" rx="0.334689" transform="matrix(0.982904 0.184121 -0.182742 0.983161 463.523 487.351)" fill="black"/>
<rect width="0.669378" height="519.213" rx="0.334689" transform="matrix(0.982904 0.184121 -0.182742 0.983161 486.078 491.576)" fill="black"/>
<rect width="0.669378" height="519.213" rx="0.334689" transform="matrix(0.982904 0.184121 -0.182742 0.983161 467.281 488.055)" fill="black"/>
<rect width="0.669378" height="519.213" rx="0.334689" transform="matrix(0.982904 0.184121 -0.182742 0.983161 489.844 492.281)" fill="black"/>
<rect width="0.669378" height="519.213" rx="0.334689" transform="matrix(0.982904 0.184121 -0.182742 0.983161 471.039 488.759)" fill="black"/>
<rect width="0.669378" height="519.213" rx="0.334689" transform="matrix(0.982904 0.184121 -0.182742 0.983161 493.602 492.985)" fill="black"/>
</g>
</svg>
