<svg width="590" height="564" viewBox="0 0 590 564" fill="none" xmlns="http://www.w3.org/2000/svg">
<mask id="mask0_243_5877" style="mask-type:alpha" maskUnits="userSpaceOnUse" x="0" y="0" width="590" height="564">
<rect width="590" height="564" fill="white" fill-opacity="0.3"/>
</mask>
<g mask="url(#mask0_243_5877)">
<rect width="0.675684" height="519.383" rx="0.337842" transform="matrix(0.983224 0.182402 -0.184463 0.982839 9.99414 -191.503)" fill="black"/>
<rect width="0.675684" height="519.383" rx="0.337842" transform="matrix(0.983224 0.182402 -0.184463 0.982839 13.79 -190.799)" fill="black"/>
<rect width="0.675684" height="519.383" rx="0.337842" transform="matrix(0.983224 0.182402 -0.184463 0.982839 17.5854 -190.094)" fill="black"/>
<rect width="0.675684" height="519.383" rx="0.337842" transform="matrix(0.983224 0.182402 -0.184463 0.982839 21.3818 -189.39)" fill="black"/>
<rect width="0.675684" height="519.383" rx="0.337842" transform="matrix(0.983224 0.182402 -0.184463 0.982839 2.40039 -192.912)" fill="black"/>
<rect width="0.675684" height="519.383" rx="0.337842" transform="matrix(0.983224 0.182402 -0.184463 0.982839 25.1797 -188.686)" fill="black"/>
<rect width="0.675684" height="519.383" rx="0.337842" transform="matrix(0.983224 0.182402 -0.184463 0.982839 6.19824 -192.208)" fill="black"/>
<rect width="0.675684" height="519.383" rx="0.337842" transform="matrix(0.983224 0.182402 -0.184463 0.982839 28.9751 -187.981)" fill="black"/>
<rect width="0.675684" height="519.383" rx="0.337842" transform="matrix(0.983224 0.182402 -0.184463 0.982839 32.771 -187.277)" fill="black"/>
<rect width="0.675684" height="519.383" rx="0.337842" transform="matrix(0.983224 0.182402 -0.184463 0.982839 55.5483 -183.052)" fill="black"/>
<rect width="0.675684" height="519.383" rx="0.337842" transform="matrix(0.983224 0.182402 -0.184463 0.982839 36.5669 -186.573)" fill="black"/>
<rect width="0.675684" height="519.383" rx="0.337842" transform="matrix(0.983224 0.182402 -0.184463 0.982839 59.3462 -182.348)" fill="black"/>
<rect width="0.675684" height="519.383" rx="0.337842" transform="matrix(0.983224 0.182402 -0.184463 0.982839 40.3647 -185.869)" fill="black"/>
<rect width="0.675684" height="519.383" rx="0.337842" transform="matrix(0.983224 0.182402 -0.184463 0.982839 63.1416 -181.644)" fill="black"/>
<rect width="0.675684" height="519.383" rx="0.337842" transform="matrix(0.983224 0.182402 -0.184463 0.982839 44.1606 -185.165)" fill="black"/>
<rect width="0.675684" height="519.383" rx="0.337842" transform="matrix(0.983224 0.182402 -0.184463 0.982839 66.9375 -180.939)" fill="black"/>
<rect width="0.675684" height="519.383" rx="0.337842" transform="matrix(0.983224 0.182402 -0.184463 0.982839 47.9565 -184.46)" fill="black"/>
<rect width="0.675684" height="519.383" rx="0.337842" transform="matrix(0.983224 0.182402 -0.184463 0.982839 70.7334 -180.235)" fill="black"/>
<rect width="0.675684" height="519.383" rx="0.337842" transform="matrix(0.983224 0.182402 -0.184463 0.982839 51.7524 -183.756)" fill="black"/>
<rect width="0.675684" height="519.383" rx="0.337842" transform="matrix(0.983224 0.182402 -0.184463 0.982839 74.5312 -179.531)" fill="black"/>
<rect width="0.675684" height="519.383" rx="0.337842" transform="matrix(0.983224 0.182402 -0.184463 0.982839 78.3271 -178.826)" fill="black"/>
<rect width="0.675684" height="519.383" rx="0.337842" transform="matrix(0.983224 0.182402 -0.184463 0.982839 101.104 -174.601)" fill="black"/>
<rect width="0.675684" height="519.383" rx="0.337842" transform="matrix(0.983224 0.182402 -0.184463 0.982839 82.123 -178.122)" fill="black"/>
<rect width="0.675684" height="519.383" rx="0.337842" transform="matrix(0.983224 0.182402 -0.184463 0.982839 104.9 -173.896)" fill="black"/>
<rect width="0.675684" height="519.383" rx="0.337842" transform="matrix(0.983224 0.182402 -0.184463 0.982839 85.9189 -177.418)" fill="black"/>
<rect width="0.675684" height="519.383" rx="0.337842" transform="matrix(0.983224 0.182402 -0.184463 0.982839 108.696 -173.192)" fill="black"/>
<rect width="0.675684" height="519.383" rx="0.337842" transform="matrix(0.983224 0.182402 -0.184463 0.982839 89.7148 -176.713)" fill="black"/>
<rect width="0.675684" height="519.383" rx="0.337842" transform="matrix(0.983224 0.182402 -0.184463 0.982839 112.494 -172.488)" fill="black"/>
<rect width="0.675684" height="519.383" rx="0.337842" transform="matrix(0.983224 0.182402 -0.184463 0.982839 93.5127 -176.009)" fill="black"/>
<rect width="0.675684" height="519.383" rx="0.337842" transform="matrix(0.983224 0.182402 -0.184463 0.982839 116.29 -171.784)" fill="black"/>
<rect width="0.675684" height="519.383" rx="0.337842" transform="matrix(0.983224 0.182402 -0.184463 0.982839 97.3086 -175.305)" fill="black"/>
<rect width="0.675684" height="519.383" rx="0.337842" transform="matrix(0.983224 0.182402 -0.184463 0.982839 120.085 -171.08)" fill="black"/>
<rect width="0.675684" height="519.383" rx="0.337842" transform="matrix(0.983224 0.182402 -0.184463 0.982839 123.882 -170.375)" fill="black"/>
<rect width="0.675684" height="519.383" rx="0.337842" transform="matrix(0.983224 0.182402 -0.184463 0.982839 146.661 -166.15)" fill="black"/>
<rect width="0.675684" height="519.383" rx="0.337842" transform="matrix(0.983224 0.182402 -0.184463 0.982839 127.679 -169.671)" fill="black"/>
<rect width="0.675684" height="519.383" rx="0.337842" transform="matrix(0.983224 0.182402 -0.184463 0.982839 150.456 -165.445)" fill="black"/>
<rect width="0.675684" height="519.383" rx="0.337842" transform="matrix(0.983224 0.182402 -0.184463 0.982839 131.475 -168.967)" fill="black"/>
<rect width="0.675684" height="519.383" rx="0.337842" transform="matrix(0.983224 0.182402 -0.184463 0.982839 154.252 -164.741)" fill="black"/>
<rect width="0.675684" height="519.383" rx="0.337842" transform="matrix(0.983224 0.182402 -0.184463 0.982839 135.271 -168.262)" fill="black"/>
<rect width="0.675684" height="519.383" rx="0.337842" transform="matrix(0.983224 0.182402 -0.184463 0.982839 158.048 -164.037)" fill="black"/>
<rect width="0.675684" height="519.383" rx="0.337842" transform="matrix(0.983224 0.182402 -0.184463 0.982839 139.067 -167.558)" fill="black"/>
<rect width="0.675684" height="519.383" rx="0.337842" transform="matrix(0.983224 0.182402 -0.184463 0.982839 161.844 -163.333)" fill="black"/>
<rect width="0.675684" height="519.383" rx="0.337842" transform="matrix(0.983224 0.182402 -0.184463 0.982839 142.862 -166.854)" fill="black"/>
<rect width="0.675684" height="519.383" rx="0.337842" transform="matrix(0.983224 0.182402 -0.184463 0.982839 165.642 -162.628)" fill="black"/>
<rect width="0.675684" height="519.383" rx="0.337842" transform="matrix(0.983224 0.182402 -0.184463 0.982839 169.438 -161.924)" fill="black"/>
<rect width="0.675684" height="519.383" rx="0.337842" transform="matrix(0.983224 0.182402 -0.184463 0.982839 192.214 -157.698)" fill="black"/>
<rect width="0.675684" height="519.383" rx="0.337842" transform="matrix(0.983224 0.182402 -0.184463 0.982839 173.233 -161.22)" fill="black"/>
<rect width="0.675684" height="519.383" rx="0.337842" transform="matrix(0.983224 0.182402 -0.184463 0.982839 196.011 -156.994)" fill="black"/>
<rect width="0.675684" height="519.383" rx="0.337842" transform="matrix(0.983224 0.182402 -0.184463 0.982839 177.029 -160.516)" fill="black"/>
<rect width="0.675684" height="519.383" rx="0.337842" transform="matrix(0.983224 0.182402 -0.184463 0.982839 199.809 -156.29)" fill="black"/>
<rect width="0.675684" height="519.383" rx="0.337842" transform="matrix(0.983224 0.182402 -0.184463 0.982839 180.827 -159.811)" fill="black"/>
<rect width="0.675684" height="519.383" rx="0.337842" transform="matrix(0.983224 0.182402 -0.184463 0.982839 203.604 -155.585)" fill="black"/>
<rect width="0.675684" height="519.383" rx="0.337842" transform="matrix(0.983224 0.182402 -0.184463 0.982839 184.623 -159.107)" fill="black"/>
<rect width="0.675684" height="519.383" rx="0.337842" transform="matrix(0.983224 0.182402 -0.184463 0.982839 207.4 -154.881)" fill="black"/>
<rect width="0.675684" height="519.383" rx="0.337842" transform="matrix(0.983224 0.182402 -0.184463 0.982839 188.419 -158.402)" fill="black"/>
<rect width="0.675684" height="519.383" rx="0.337842" transform="matrix(0.983224 0.182402 -0.184463 0.982839 211.196 -154.177)" fill="black"/>
<rect width="0.675684" height="519.383" rx="0.337842" transform="matrix(0.983224 0.182402 -0.184463 0.982839 214.994 -153.473)" fill="black"/>
<rect width="0.675684" height="519.383" rx="0.337842" transform="matrix(0.983224 0.182402 -0.184463 0.982839 237.771 -149.248)" fill="black"/>
<rect width="0.675684" height="519.383" rx="0.337842" transform="matrix(0.983224 0.182402 -0.184463 0.982839 218.79 -152.769)" fill="black"/>
<rect width="0.675684" height="519.383" rx="0.337842" transform="matrix(0.983224 0.182402 -0.184463 0.982839 241.567 -148.543)" fill="black"/>
<rect width="0.675684" height="519.383" rx="0.337842" transform="matrix(0.983224 0.182402 -0.184463 0.982839 222.585 -152.064)" fill="black"/>
<rect width="0.675684" height="519.383" rx="0.337842" transform="matrix(0.983224 0.182402 -0.184463 0.982839 245.363 -147.838)" fill="black"/>
<rect width="0.675684" height="519.383" rx="0.337842" transform="matrix(0.983224 0.182402 -0.184463 0.982839 226.381 -151.36)" fill="black"/>
<rect width="0.675684" height="519.383" rx="0.337842" transform="matrix(0.983224 0.182402 -0.184463 0.982839 249.158 -147.134)" fill="black"/>
<rect width="0.675684" height="519.383" rx="0.337842" transform="matrix(0.983224 0.182402 -0.184463 0.982839 230.177 -150.656)" fill="black"/>
<rect width="0.675684" height="519.383" rx="0.337842" transform="matrix(0.983224 0.182402 -0.184463 0.982839 252.956 -146.43)" fill="black"/>
<rect width="0.675684" height="519.383" rx="0.337842" transform="matrix(0.983224 0.182402 -0.184463 0.982839 233.975 -149.952)" fill="black"/>
<rect width="0.675684" height="519.383" rx="0.337842" transform="matrix(0.983224 0.182402 -0.184463 0.982839 256.752 -145.726)" fill="black"/>
<rect width="0.675684" height="519.383" rx="0.337842" transform="matrix(0.983224 0.182402 -0.184463 0.982839 260.548 -145.021)" fill="black"/>
<rect width="0.675684" height="519.383" rx="0.337842" transform="matrix(0.983224 0.182402 -0.184463 0.982839 283.325 -140.796)" fill="black"/>
<rect width="0.675684" height="519.383" rx="0.337842" transform="matrix(0.983224 0.182402 -0.184463 0.982839 264.344 -144.317)" fill="black"/>
<rect width="0.675684" height="519.383" rx="0.337842" transform="matrix(0.983224 0.182402 -0.184463 0.982839 287.123 -140.092)" fill="black"/>
<rect width="0.675684" height="519.383" rx="0.337842" transform="matrix(0.983224 0.182402 -0.184463 0.982839 268.142 -143.613)" fill="black"/>
<rect width="0.675684" height="519.383" rx="0.337842" transform="matrix(0.983224 0.182402 -0.184463 0.982839 290.919 -139.388)" fill="black"/>
<rect width="0.675684" height="519.383" rx="0.337842" transform="matrix(0.983224 0.182402 -0.184463 0.982839 271.938 -142.909)" fill="black"/>
<rect width="0.675684" height="519.383" rx="0.337842" transform="matrix(0.983224 0.182402 -0.184463 0.982839 294.714 -138.683)" fill="black"/>
<rect width="0.675684" height="519.383" rx="0.337842" transform="matrix(0.983224 0.182402 -0.184463 0.982839 275.733 -142.205)" fill="black"/>
<rect width="0.675684" height="519.383" rx="0.337842" transform="matrix(0.983224 0.182402 -0.184463 0.982839 298.51 -137.979)" fill="black"/>
<rect width="0.675684" height="519.383" rx="0.337842" transform="matrix(0.983224 0.182402 -0.184463 0.982839 279.529 -141.5)" fill="black"/>
<rect width="0.675684" height="519.383" rx="0.337842" transform="matrix(0.983224 0.182402 -0.184463 0.982839 302.306 -137.274)" fill="black"/>
<rect width="0.675684" height="519.383" rx="0.337842" transform="matrix(0.983224 0.182402 -0.184463 0.982839 305.611 -136.662)" fill="black"/>
<rect width="0.675684" height="519.383" rx="0.337842" transform="matrix(0.983224 0.182402 -0.184463 0.982839 328.388 -132.436)" fill="black"/>
<rect width="0.675684" height="519.383" rx="0.337842" transform="matrix(0.983224 0.182402 -0.184463 0.982839 309.406 -135.958)" fill="black"/>
<rect width="0.675684" height="519.383" rx="0.337842" transform="matrix(0.983224 0.182402 -0.184463 0.982839 332.186 -131.732)" fill="black"/>
<rect width="0.675684" height="519.383" rx="0.337842" transform="matrix(0.983224 0.182402 -0.184463 0.982839 313.203 -135.253)" fill="black"/>
<rect width="0.675684" height="519.383" rx="0.337842" transform="matrix(0.983224 0.182402 -0.184463 0.982839 335.981 -131.028)" fill="black"/>
<rect width="0.675684" height="519.383" rx="0.337842" transform="matrix(0.983224 0.182402 -0.184463 0.982839 317 -134.549)" fill="black"/>
<rect width="0.675684" height="519.383" rx="0.337842" transform="matrix(0.983224 0.182402 -0.184463 0.982839 339.777 -130.324)" fill="black"/>
<rect width="0.675684" height="519.383" rx="0.337842" transform="matrix(0.983224 0.182402 -0.184463 0.982839 320.796 -133.845)" fill="black"/>
<rect width="0.675684" height="519.383" rx="0.337842" transform="matrix(0.983224 0.182402 -0.184463 0.982839 343.573 -129.619)" fill="black"/>
<rect width="0.675684" height="519.383" rx="0.337842" transform="matrix(0.983224 0.182402 -0.184463 0.982839 324.592 -133.141)" fill="black"/>
<rect width="0.675684" height="519.383" rx="0.337842" transform="matrix(0.983224 0.182402 -0.184463 0.982839 347.369 -128.915)" fill="black"/>
<rect width="0.675684" height="519.383" rx="0.337842" transform="matrix(0.983224 0.182402 -0.184463 0.982839 351.167 -128.211)" fill="black"/>
<rect width="0.675684" height="519.383" rx="0.337842" transform="matrix(0.983224 0.182402 -0.184463 0.982839 373.944 -123.985)" fill="black"/>
<rect width="0.675684" height="519.383" rx="0.337842" transform="matrix(0.983224 0.182402 -0.184463 0.982839 354.962 -127.506)" fill="black"/>
<rect width="0.675684" height="519.383" rx="0.337842" transform="matrix(0.983224 0.182402 -0.184463 0.982839 377.74 -123.281)" fill="black"/>
<rect width="0.675684" height="519.383" rx="0.337842" transform="matrix(0.983224 0.182402 -0.184463 0.982839 358.759 -126.802)" fill="black"/>
<rect width="0.675684" height="519.383" rx="0.337842" transform="matrix(0.983224 0.182402 -0.184463 0.982839 381.536 -122.576)" fill="black"/>
<rect width="0.675684" height="519.383" rx="0.337842" transform="matrix(0.983224 0.182402 -0.184463 0.982839 362.554 -126.098)" fill="black"/>
<rect width="0.675684" height="519.383" rx="0.337842" transform="matrix(0.983224 0.182402 -0.184463 0.982839 385.333 -121.873)" fill="black"/>
<rect width="0.675684" height="519.383" rx="0.337842" transform="matrix(0.983224 0.182402 -0.184463 0.982839 366.35 -125.394)" fill="black"/>
<rect width="0.675684" height="519.383" rx="0.337842" transform="matrix(0.983224 0.182402 -0.184463 0.982839 389.129 -121.168)" fill="black"/>
<rect width="0.675684" height="519.383" rx="0.337842" transform="matrix(0.983224 0.182402 -0.184463 0.982839 370.148 -124.689)" fill="black"/>
<rect width="0.675684" height="519.383" rx="0.337842" transform="matrix(0.983224 0.182402 -0.184463 0.982839 392.925 -120.464)" fill="black"/>
<rect width="0.675684" height="519.383" rx="0.337842" transform="matrix(0.983224 0.182402 -0.184463 0.982839 396.721 -119.759)" fill="black"/>
<rect width="0.675684" height="519.383" rx="0.337842" transform="matrix(0.983224 0.182402 -0.184463 0.982839 419.499 -115.534)" fill="black"/>
<rect width="0.675684" height="519.383" rx="0.337842" transform="matrix(0.983224 0.182402 -0.184463 0.982839 400.517 -119.055)" fill="black"/>
<rect width="0.675684" height="519.383" rx="0.337842" transform="matrix(0.983224 0.182402 -0.184463 0.982839 423.296 -114.83)" fill="black"/>
<rect width="0.675684" height="519.383" rx="0.337842" transform="matrix(0.983224 0.182402 -0.184463 0.982839 404.315 -118.351)" fill="black"/>
<rect width="0.675684" height="519.383" rx="0.337842" transform="matrix(0.983224 0.182402 -0.184463 0.982839 427.092 -114.125)" fill="black"/>
<rect width="0.675684" height="519.383" rx="0.337842" transform="matrix(0.983224 0.182402 -0.184463 0.982839 408.11 -117.647)" fill="black"/>
<rect width="0.675684" height="519.383" rx="0.337842" transform="matrix(0.983224 0.182402 -0.184463 0.982839 430.888 -113.421)" fill="black"/>
<rect width="0.675684" height="519.383" rx="0.337842" transform="matrix(0.983224 0.182402 -0.184463 0.982839 411.906 -116.943)" fill="black"/>
<rect width="0.675684" height="519.383" rx="0.337842" transform="matrix(0.983224 0.182402 -0.184463 0.982839 434.684 -112.717)" fill="black"/>
<rect width="0.675684" height="519.383" rx="0.337842" transform="matrix(0.983224 0.182402 -0.184463 0.982839 415.702 -116.238)" fill="black"/>
<rect width="0.675684" height="519.383" rx="0.337842" transform="matrix(0.983224 0.182402 -0.184463 0.982839 438.481 -112.013)" fill="black"/>
<rect width="0.675684" height="519.383" rx="0.337842" transform="matrix(0.983224 0.182402 -0.184463 0.982839 442.277 -111.309)" fill="black"/>
<rect width="0.675684" height="519.383" rx="0.337842" transform="matrix(0.983224 0.182402 -0.184463 0.982839 465.054 -107.083)" fill="black"/>
<rect width="0.675684" height="519.383" rx="0.337842" transform="matrix(0.983224 0.182402 -0.184463 0.982839 446.073 -110.604)" fill="black"/>
<rect width="0.675684" height="519.383" rx="0.337842" transform="matrix(0.983224 0.182402 -0.184463 0.982839 468.85 -106.378)" fill="black"/>
<rect width="0.675684" height="519.383" rx="0.337842" transform="matrix(0.983224 0.182402 -0.184463 0.982839 449.869 -109.9)" fill="black"/>
<rect width="0.675684" height="519.383" rx="0.337842" transform="matrix(0.983224 0.182402 -0.184463 0.982839 472.648 -105.674)" fill="black"/>
<rect width="0.675684" height="519.383" rx="0.337842" transform="matrix(0.983224 0.182402 -0.184463 0.982839 453.665 -109.195)" fill="black"/>
<rect width="0.675684" height="519.383" rx="0.337842" transform="matrix(0.983224 0.182402 -0.184463 0.982839 476.444 -104.97)" fill="black"/>
<rect width="0.675684" height="519.383" rx="0.337842" transform="matrix(0.983224 0.182402 -0.184463 0.982839 457.462 -108.491)" fill="black"/>
<rect width="0.675684" height="519.383" rx="0.337842" transform="matrix(0.983224 0.182402 -0.184463 0.982839 480.24 -104.266)" fill="black"/>
<rect width="0.675684" height="519.383" rx="0.337842" transform="matrix(0.983224 0.182402 -0.184463 0.982839 461.258 -107.787)" fill="black"/>
<rect width="0.675684" height="519.383" rx="0.337842" transform="matrix(0.983224 0.182402 -0.184463 0.982839 484.036 -103.562)" fill="black"/>
<rect width="0.675684" height="519.383" rx="0.337842" transform="matrix(0.983224 0.182402 -0.184463 0.982839 487.832 -102.857)" fill="black"/>
<rect width="0.675684" height="519.383" rx="0.337842" transform="matrix(0.983224 0.182402 -0.184463 0.982839 510.611 -98.6318)" fill="black"/>
<rect width="0.675684" height="519.383" rx="0.337842" transform="matrix(0.983224 0.182402 -0.184463 0.982839 491.629 -102.153)" fill="black"/>
<rect width="0.675684" height="519.383" rx="0.337842" transform="matrix(0.983224 0.182402 -0.184463 0.982839 514.406 -97.9272)" fill="black"/>
<rect width="0.675684" height="519.383" rx="0.337842" transform="matrix(0.983224 0.182402 -0.184463 0.982839 495.425 -101.449)" fill="black"/>
<rect width="0.675684" height="519.383" rx="0.337842" transform="matrix(0.983224 0.182402 -0.184463 0.982839 518.202 -97.2231)" fill="black"/>
<rect width="0.675684" height="519.383" rx="0.337842" transform="matrix(0.983224 0.182402 -0.184463 0.982839 499.221 -100.744)" fill="black"/>
<rect width="0.675684" height="519.383" rx="0.337842" transform="matrix(0.983224 0.182402 -0.184463 0.982839 521.998 -96.5186)" fill="black"/>
<rect width="0.675684" height="519.383" rx="0.337842" transform="matrix(0.983224 0.182402 -0.184463 0.982839 503.017 -100.04)" fill="black"/>
<rect width="0.675684" height="519.383" rx="0.337842" transform="matrix(0.983224 0.182402 -0.184463 0.982839 525.795 -95.8145)" fill="black"/>
<rect width="0.675684" height="519.383" rx="0.337842" transform="matrix(0.983224 0.182402 -0.184463 0.982839 506.812 -99.3359)" fill="black"/>
<rect width="0.675684" height="519.383" rx="0.337842" transform="matrix(0.983224 0.182402 -0.184463 0.982839 529.592 -95.1104)" fill="black"/>
<rect width="0.675684" height="519.383" rx="0.337842" transform="matrix(0.983224 0.182402 -0.184463 0.982839 533.387 -94.4062)" fill="black"/>
<rect width="0.675684" height="519.383" rx="0.337842" transform="matrix(0.983224 0.182402 -0.184463 0.982839 556.165 -90.1802)" fill="black"/>
<rect width="0.675684" height="519.383" rx="0.337842" transform="matrix(0.983224 0.182402 -0.184463 0.982839 537.184 -93.7017)" fill="black"/>
<rect width="0.675684" height="519.383" rx="0.337842" transform="matrix(0.983224 0.182402 -0.184463 0.982839 559.96 -89.4761)" fill="black"/>
<rect width="0.675684" height="519.383" rx="0.337842" transform="matrix(0.983224 0.182402 -0.184463 0.982839 540.979 -92.9971)" fill="black"/>
<rect width="0.675684" height="519.383" rx="0.337842" transform="matrix(0.983224 0.182402 -0.184463 0.982839 563.759 -88.7715)" fill="black"/>
<rect width="0.675684" height="519.383" rx="0.337842" transform="matrix(0.983224 0.182402 -0.184463 0.982839 544.777 -92.2935)" fill="black"/>
<rect width="0.675684" height="519.383" rx="0.337842" transform="matrix(0.983224 0.182402 -0.184463 0.982839 567.554 -88.0674)" fill="black"/>
<rect width="0.675684" height="519.383" rx="0.337842" transform="matrix(0.983224 0.182402 -0.184463 0.982839 548.573 -91.5889)" fill="black"/>
<rect width="0.675684" height="519.383" rx="0.337842" transform="matrix(0.983224 0.182402 -0.184463 0.982839 571.35 -87.3633)" fill="black"/>
<rect width="0.675684" height="519.383" rx="0.337842" transform="matrix(0.983224 0.182402 -0.184463 0.982839 552.369 -90.8848)" fill="black"/>
<rect width="0.675684" height="519.383" rx="0.337842" transform="matrix(0.983224 0.182402 -0.184463 0.982839 575.146 -86.6592)" fill="black"/>
<rect width="0.675684" height="519.383" rx="0.337842" transform="matrix(0.983224 0.182402 -0.184463 0.982839 578.944 -85.9551)" fill="black"/>
<rect width="0.675684" height="519.383" rx="0.337842" transform="matrix(0.983224 0.182402 -0.184463 0.982839 601.721 -81.7295)" fill="black"/>
<rect width="0.675684" height="519.383" rx="0.337842" transform="matrix(0.983224 0.182402 -0.184463 0.982839 582.74 -85.2505)" fill="black"/>
<rect width="0.675684" height="519.383" rx="0.337842" transform="matrix(0.983224 0.182402 -0.184463 0.982839 605.517 -81.0249)" fill="black"/>
<rect width="0.675684" height="519.383" rx="0.337842" transform="matrix(0.983224 0.182402 -0.184463 0.982839 586.535 -84.5464)" fill="black"/>
<rect width="0.675684" height="519.383" rx="0.337842" transform="matrix(0.983224 0.182402 -0.184463 0.982839 609.312 -80.3208)" fill="black"/>
<rect width="0.675684" height="519.383" rx="0.337842" transform="matrix(0.983224 0.182402 -0.184463 0.982839 590.331 -83.8418)" fill="black"/>
<rect width="0.675684" height="519.383" rx="0.337842" transform="matrix(0.983224 0.182402 -0.184463 0.982839 613.11 -79.6167)" fill="black"/>
<rect width="0.675684" height="519.383" rx="0.337842" transform="matrix(0.983224 0.182402 -0.184463 0.982839 594.127 -83.1377)" fill="black"/>
<rect width="0.675684" height="519.383" rx="0.337842" transform="matrix(0.983224 0.182402 -0.184463 0.982839 616.906 -78.9126)" fill="black"/>
<rect width="0.675684" height="519.383" rx="0.337842" transform="matrix(0.983224 0.182402 -0.184463 0.982839 597.925 -82.4336)" fill="black"/>
<rect width="0.675684" height="519.383" rx="0.337842" transform="matrix(0.983224 0.182402 -0.184463 0.982839 620.702 -78.2075)" fill="black"/>
<rect width="0.675684" height="519.383" rx="0.337842" transform="matrix(0.983224 0.182402 -0.184463 0.982839 624.498 -77.5034)" fill="black"/>
<rect width="0.675684" height="519.383" rx="0.337842" transform="matrix(0.983224 0.182402 -0.184463 0.982839 647.275 -73.2778)" fill="black"/>
<rect width="0.675684" height="519.383" rx="0.337842" transform="matrix(0.983224 0.182402 -0.184463 0.982839 628.293 -76.7993)" fill="black"/>
<rect width="0.675684" height="519.383" rx="0.337842" transform="matrix(0.983224 0.182402 -0.184463 0.982839 651.073 -72.5737)" fill="black"/>
<rect width="0.675684" height="519.383" rx="0.337842" transform="matrix(0.983224 0.182402 -0.184463 0.982839 632.092 -76.0952)" fill="black"/>
<rect width="0.675684" height="519.383" rx="0.337842" transform="matrix(0.983224 0.182402 -0.184463 0.982839 654.869 -71.8696)" fill="black"/>
<rect width="0.675684" height="519.383" rx="0.337842" transform="matrix(0.983224 0.182402 -0.184463 0.982839 635.887 -75.3911)" fill="black"/>
<rect width="0.675684" height="519.383" rx="0.337842" transform="matrix(0.983224 0.182402 -0.184463 0.982839 658.664 -71.1655)" fill="black"/>
<rect width="0.675684" height="519.383" rx="0.337842" transform="matrix(0.983224 0.182402 -0.184463 0.982839 639.683 -74.6865)" fill="black"/>
<rect width="0.675684" height="519.383" rx="0.337842" transform="matrix(0.983224 0.182402 -0.184463 0.982839 662.46 -70.4609)" fill="black"/>
<rect width="0.675684" height="519.383" rx="0.337842" transform="matrix(0.983224 0.182402 -0.184463 0.982839 643.479 -73.9824)" fill="black"/>
<rect width="0.675684" height="519.383" rx="0.337842" transform="matrix(0.983224 0.182402 -0.184463 0.982839 666.258 -69.7568)" fill="black"/>
<rect width="0.675684" height="519.383" rx="0.337842" transform="matrix(0.983224 0.182402 -0.184463 0.982839 532.589 308.163)" fill="black"/>
<rect width="0.675684" height="519.383" rx="0.337842" transform="matrix(0.983224 0.182402 -0.184463 0.982839 555.366 312.389)" fill="black"/>
<rect width="0.675684" height="519.383" rx="0.337842" transform="matrix(0.983224 0.182402 -0.184463 0.982839 536.384 308.867)" fill="black"/>
<rect width="0.675684" height="519.383" rx="0.337842" transform="matrix(0.983224 0.182402 -0.184463 0.982839 559.162 313.093)" fill="black"/>
<rect width="0.675684" height="519.383" rx="0.337842" transform="matrix(0.983224 0.182402 -0.184463 0.982839 540.18 309.572)" fill="black"/>
<rect width="0.675684" height="519.383" rx="0.337842" transform="matrix(0.983224 0.182402 -0.184463 0.982839 562.959 313.797)" fill="black"/>
<rect width="0.675684" height="519.383" rx="0.337842" transform="matrix(0.983224 0.182402 -0.184463 0.982839 543.978 310.276)" fill="black"/>
<rect width="0.675684" height="519.383" rx="0.337842" transform="matrix(0.983224 0.182402 -0.184463 0.982839 566.755 314.501)" fill="black"/>
<rect width="0.675684" height="519.383" rx="0.337842" transform="matrix(0.983224 0.182402 -0.184463 0.982839 547.774 310.98)" fill="black"/>
<rect width="0.675684" height="519.383" rx="0.337842" transform="matrix(0.983224 0.182402 -0.184463 0.982839 570.551 315.206)" fill="black"/>
<rect width="0.675684" height="519.383" rx="0.337842" transform="matrix(0.983224 0.182402 -0.184463 0.982839 551.57 311.684)" fill="black"/>
<rect width="0.675684" height="519.383" rx="0.337842" transform="matrix(0.983224 0.182402 -0.184463 0.982839 574.347 315.91)" fill="black"/>
<rect width="0.675684" height="519.383" rx="0.337842" transform="matrix(0.983224 0.182402 -0.184463 0.982839 578.145 316.614)" fill="black"/>
<rect width="0.675684" height="519.383" rx="0.337842" transform="matrix(0.983224 0.182402 -0.184463 0.982839 600.922 320.839)" fill="black"/>
<rect width="0.675684" height="519.383" rx="0.337842" transform="matrix(0.983224 0.182402 -0.184463 0.982839 581.941 317.318)" fill="black"/>
<rect width="0.675684" height="519.383" rx="0.337842" transform="matrix(0.983224 0.182402 -0.184463 0.982839 604.718 321.544)" fill="black"/>
<rect width="0.675684" height="519.383" rx="0.337842" transform="matrix(0.983224 0.182402 -0.184463 0.982839 585.736 318.022)" fill="black"/>
<rect width="0.675684" height="519.383" rx="0.337842" transform="matrix(0.983224 0.182402 -0.184463 0.982839 608.514 322.248)" fill="black"/>
<rect width="0.675684" height="519.383" rx="0.337842" transform="matrix(0.983224 0.182402 -0.184463 0.982839 589.532 318.727)" fill="black"/>
<rect width="0.675684" height="519.383" rx="0.337842" transform="matrix(0.983224 0.182402 -0.184463 0.982839 612.31 322.953)" fill="black"/>
<rect width="0.675684" height="519.383" rx="0.337842" transform="matrix(0.983224 0.182402 -0.184463 0.982839 593.328 319.431)" fill="black"/>
<rect width="0.675684" height="519.383" rx="0.337842" transform="matrix(0.983224 0.182402 -0.184463 0.982839 616.107 323.657)" fill="black"/>
<rect width="0.675684" height="519.383" rx="0.337842" transform="matrix(0.983224 0.182402 -0.184463 0.982839 597.126 320.135)" fill="black"/>
<rect width="0.675684" height="519.383" rx="0.337842" transform="matrix(0.983224 0.182402 -0.184463 0.982839 619.903 324.361)" fill="black"/>
<rect width="0.675684" height="519.383" rx="0.337842" transform="matrix(0.983224 0.182402 -0.184463 0.982839 623.699 325.065)" fill="black"/>
<rect width="0.675684" height="519.383" rx="0.337842" transform="matrix(0.983224 0.182402 -0.184463 0.982839 646.476 329.291)" fill="black"/>
<rect width="0.675684" height="519.383" rx="0.337842" transform="matrix(0.983224 0.182402 -0.184463 0.982839 627.495 325.77)" fill="black"/>
<rect width="0.675684" height="519.383" rx="0.337842" transform="matrix(0.983224 0.182402 -0.184463 0.982839 650.274 329.995)" fill="black"/>
<rect width="0.675684" height="519.383" rx="0.337842" transform="matrix(0.983224 0.182402 -0.184463 0.982839 631.293 326.474)" fill="black"/>
<rect width="0.675684" height="519.383" rx="0.337842" transform="matrix(0.983224 0.182402 -0.184463 0.982839 654.07 330.699)" fill="black"/>
<rect width="0.675684" height="519.383" rx="0.337842" transform="matrix(0.983224 0.182402 -0.184463 0.982839 635.089 327.178)" fill="black"/>
<rect width="0.675684" height="519.383" rx="0.337842" transform="matrix(0.983224 0.182402 -0.184463 0.982839 657.865 331.404)" fill="black"/>
<rect width="0.675684" height="519.383" rx="0.337842" transform="matrix(0.983224 0.182402 -0.184463 0.982839 638.884 327.882)" fill="black"/>
<rect width="0.675684" height="519.383" rx="0.337842" transform="matrix(0.983224 0.182402 -0.184463 0.982839 661.662 332.108)" fill="black"/>
<rect width="0.675684" height="519.383" rx="0.337842" transform="matrix(0.983224 0.182402 -0.184463 0.982839 642.68 328.587)" fill="black"/>
<rect width="0.675684" height="519.383" rx="0.337842" transform="matrix(0.983224 0.182402 -0.184463 0.982839 665.459 332.812)" fill="black"/>
<rect width="0.675684" height="519.383" rx="0.337842" transform="matrix(0.983224 0.182402 -0.184463 0.982839 669.255 333.517)" fill="black"/>
<rect width="0.675684" height="519.383" rx="0.337842" transform="matrix(0.983224 0.182402 -0.184463 0.982839 673.051 334.221)" fill="black"/>
<rect width="0.675684" height="519.383" rx="0.337842" transform="matrix(0.983224 0.182402 -0.184463 0.982839 676.847 334.925)" fill="black"/>
<rect width="0.675684" height="519.383" rx="0.337842" transform="matrix(0.983224 0.182402 -0.184463 0.982839 680.643 335.629)" fill="black"/>
<rect width="0.675684" height="519.383" rx="0.337842" transform="matrix(0.983224 0.182402 -0.184463 0.982839 684.44 336.333)" fill="black"/>
<rect width="0.675684" height="519.383" rx="0.337842" transform="matrix(0.983224 0.182402 -0.184463 0.982839 1.62061 334.409)" fill="black"/>
<rect width="0.675684" height="519.383" rx="0.337842" transform="matrix(0.983224 0.182402 -0.184463 0.982839 5.41846 335.113)" fill="black"/>
<rect width="0.675684" height="519.383" rx="0.337842" transform="matrix(0.983224 0.182402 -0.184463 0.982839 9.21436 335.817)" fill="black"/>
<rect width="0.675684" height="519.383" rx="0.337842" transform="matrix(0.983224 0.182402 -0.184463 0.982839 31.9912 340.043)" fill="black"/>
<rect width="0.675684" height="519.383" rx="0.337842" transform="matrix(0.983224 0.182402 -0.184463 0.982839 13.0103 336.521)" fill="black"/>
<rect width="0.675684" height="519.383" rx="0.337842" transform="matrix(0.983224 0.182402 -0.184463 0.982839 35.7871 340.748)" fill="black"/>
<rect width="0.675684" height="519.383" rx="0.337842" transform="matrix(0.983224 0.182402 -0.184463 0.982839 16.8062 337.226)" fill="black"/>
<rect width="0.675684" height="519.383" rx="0.337842" transform="matrix(0.983224 0.182402 -0.184463 0.982839 39.585 341.451)" fill="black"/>
<rect width="0.675684" height="519.383" rx="0.337842" transform="matrix(0.983224 0.182402 -0.184463 0.982839 20.6035 337.93)" fill="black"/>
<rect width="0.675684" height="519.383" rx="0.337842" transform="matrix(0.983224 0.182402 -0.184463 0.982839 43.3809 342.156)" fill="black"/>
<rect width="0.675684" height="519.383" rx="0.337842" transform="matrix(0.983224 0.182402 -0.184463 0.982839 24.3994 338.634)" fill="black"/>
<rect width="0.675684" height="519.383" rx="0.337842" transform="matrix(0.983224 0.182402 -0.184463 0.982839 47.1768 342.86)" fill="black"/>
<rect width="0.675684" height="519.383" rx="0.337842" transform="matrix(0.983224 0.182402 -0.184463 0.982839 28.1953 339.339)" fill="black"/>
<rect width="0.675684" height="519.383" rx="0.337842" transform="matrix(0.983224 0.182402 -0.184463 0.982839 50.9727 343.564)" fill="black"/>
<rect width="0.675684" height="519.383" rx="0.337842" transform="matrix(0.983224 0.182402 -0.184463 0.982839 54.7705 344.269)" fill="black"/>
<rect width="0.675684" height="519.383" rx="0.337842" transform="matrix(0.983224 0.182402 -0.184463 0.982839 77.5474 348.495)" fill="black"/>
<rect width="0.675684" height="519.383" rx="0.337842" transform="matrix(0.983224 0.182402 -0.184463 0.982839 58.5664 344.973)" fill="black"/>
<rect width="0.675684" height="519.383" rx="0.337842" transform="matrix(0.983224 0.182402 -0.184463 0.982839 81.3433 349.199)" fill="black"/>
<rect width="0.675684" height="519.383" rx="0.337842" transform="matrix(0.983224 0.182402 -0.184463 0.982839 62.3618 345.677)" fill="black"/>
<rect width="0.675684" height="519.383" rx="0.337842" transform="matrix(0.983224 0.182402 -0.184463 0.982839 85.1392 349.903)" fill="black"/>
<rect width="0.675684" height="519.383" rx="0.337842" transform="matrix(0.983224 0.182402 -0.184463 0.982839 66.1582 346.381)" fill="black"/>
<rect width="0.675684" height="519.383" rx="0.337842" transform="matrix(0.983224 0.182402 -0.184463 0.982839 88.9351 350.607)" fill="black"/>
<rect width="0.675684" height="519.383" rx="0.337842" transform="matrix(0.983224 0.182402 -0.184463 0.982839 69.9536 347.086)" fill="black"/>
<rect width="0.675684" height="519.383" rx="0.337842" transform="matrix(0.983224 0.182402 -0.184463 0.982839 92.7329 351.311)" fill="black"/>
<rect width="0.675684" height="519.383" rx="0.337842" transform="matrix(0.983224 0.182402 -0.184463 0.982839 73.7515 347.79)" fill="black"/>
<rect width="0.675684" height="519.383" rx="0.337842" transform="matrix(0.983224 0.182402 -0.184463 0.982839 96.5288 352.016)" fill="black"/>
<rect width="0.675684" height="519.383" rx="0.337842" transform="matrix(0.983224 0.182402 -0.184463 0.982839 100.325 352.72)" fill="black"/>
<rect width="0.675684" height="519.383" rx="0.337842" transform="matrix(0.983224 0.182402 -0.184463 0.982839 123.102 356.945)" fill="black"/>
<rect width="0.675684" height="519.383" rx="0.337842" transform="matrix(0.983224 0.182402 -0.184463 0.982839 104.121 353.424)" fill="black"/>
<rect width="0.675684" height="519.383" rx="0.337842" transform="matrix(0.983224 0.182402 -0.184463 0.982839 126.899 357.649)" fill="black"/>
<rect width="0.675684" height="519.383" rx="0.337842" transform="matrix(0.983224 0.182402 -0.184463 0.982839 107.918 354.128)" fill="black"/>
<rect width="0.675684" height="519.383" rx="0.337842" transform="matrix(0.983224 0.182402 -0.184463 0.982839 130.695 358.354)" fill="black"/>
<rect width="0.675684" height="519.383" rx="0.337842" transform="matrix(0.983224 0.182402 -0.184463 0.982839 111.714 354.833)" fill="black"/>
<rect width="0.675684" height="519.383" rx="0.337842" transform="matrix(0.983224 0.182402 -0.184463 0.982839 134.491 359.058)" fill="black"/>
<rect width="0.675684" height="519.383" rx="0.337842" transform="matrix(0.983224 0.182402 -0.184463 0.982839 115.51 355.537)" fill="black"/>
<rect width="0.675684" height="519.383" rx="0.337842" transform="matrix(0.983224 0.182402 -0.184463 0.982839 138.287 359.762)" fill="black"/>
<rect width="0.675684" height="519.383" rx="0.337842" transform="matrix(0.983224 0.182402 -0.184463 0.982839 119.306 356.241)" fill="black"/>
<rect width="0.675684" height="519.383" rx="0.337842" transform="matrix(0.983224 0.182402 -0.184463 0.982839 142.083 360.467)" fill="black"/>
<rect width="0.675684" height="519.383" rx="0.337842" transform="matrix(0.983224 0.182402 -0.184463 0.982839 145.387 361.08)" fill="black"/>
<rect width="0.675684" height="519.383" rx="0.337842" transform="matrix(0.983224 0.182402 -0.184463 0.982839 168.165 365.305)" fill="black"/>
<rect width="0.675684" height="519.383" rx="0.337842" transform="matrix(0.983224 0.182402 -0.184463 0.982839 149.183 361.784)" fill="black"/>
<rect width="0.675684" height="519.383" rx="0.337842" transform="matrix(0.983224 0.182402 -0.184463 0.982839 171.962 366.009)" fill="black"/>
<rect width="0.675684" height="519.383" rx="0.337842" transform="matrix(0.983224 0.182402 -0.184463 0.982839 152.979 362.488)" fill="black"/>
<rect width="0.675684" height="519.383" rx="0.337842" transform="matrix(0.983224 0.182402 -0.184463 0.982839 175.758 366.713)" fill="black"/>
<rect width="0.675684" height="519.383" rx="0.337842" transform="matrix(0.983224 0.182402 -0.184463 0.982839 156.777 363.192)" fill="black"/>
<rect width="0.675684" height="519.383" rx="0.337842" transform="matrix(0.983224 0.182402 -0.184463 0.982839 179.554 367.417)" fill="black"/>
<rect width="0.675684" height="519.383" rx="0.337842" transform="matrix(0.983224 0.182402 -0.184463 0.982839 160.573 363.896)" fill="black"/>
<rect width="0.675684" height="519.383" rx="0.337842" transform="matrix(0.983224 0.182402 -0.184463 0.982839 183.35 368.122)" fill="black"/>
<rect width="0.675684" height="519.383" rx="0.337842" transform="matrix(0.983224 0.182402 -0.184463 0.982839 164.369 364.601)" fill="black"/>
<rect width="0.675684" height="519.383" rx="0.337842" transform="matrix(0.983224 0.182402 -0.184463 0.982839 187.146 368.826)" fill="black"/>
<rect width="0.675684" height="519.383" rx="0.337842" transform="matrix(0.983224 0.182402 -0.184463 0.982839 190.943 369.53)" fill="black"/>
<rect width="0.675684" height="519.383" rx="0.337842" transform="matrix(0.983224 0.182402 -0.184463 0.982839 213.721 373.756)" fill="black"/>
<rect width="0.675684" height="519.383" rx="0.337842" transform="matrix(0.983224 0.182402 -0.184463 0.982839 194.739 370.235)" fill="black"/>
<rect width="0.675684" height="519.383" rx="0.337842" transform="matrix(0.983224 0.182402 -0.184463 0.982839 217.517 374.46)" fill="black"/>
<rect width="0.675684" height="519.383" rx="0.337842" transform="matrix(0.983224 0.182402 -0.184463 0.982839 198.536 370.939)" fill="black"/>
<rect width="0.675684" height="519.383" rx="0.337842" transform="matrix(0.983224 0.182402 -0.184463 0.982839 221.312 375.165)" fill="black"/>
<rect width="0.675684" height="519.383" rx="0.337842" transform="matrix(0.983224 0.182402 -0.184463 0.982839 202.331 371.643)" fill="black"/>
<rect width="0.675684" height="519.383" rx="0.337842" transform="matrix(0.983224 0.182402 -0.184463 0.982839 225.11 375.869)" fill="black"/>
<rect width="0.675684" height="519.383" rx="0.337842" transform="matrix(0.983224 0.182402 -0.184463 0.982839 206.127 372.348)" fill="black"/>
<rect width="0.675684" height="519.383" rx="0.337842" transform="matrix(0.983224 0.182402 -0.184463 0.982839 228.906 376.574)" fill="black"/>
<rect width="0.675684" height="519.383" rx="0.337842" transform="matrix(0.983224 0.182402 -0.184463 0.982839 209.925 373.052)" fill="black"/>
<rect width="0.675684" height="519.383" rx="0.337842" transform="matrix(0.983224 0.182402 -0.184463 0.982839 232.702 377.277)" fill="black"/>
<rect width="0.675684" height="519.383" rx="0.337842" transform="matrix(0.983224 0.182402 -0.184463 0.982839 236.498 377.982)" fill="black"/>
<rect width="0.675684" height="519.383" rx="0.337842" transform="matrix(0.983224 0.182402 -0.184463 0.982839 259.275 382.208)" fill="black"/>
<rect width="0.675684" height="519.383" rx="0.337842" transform="matrix(0.983224 0.182402 -0.184463 0.982839 240.293 378.686)" fill="black"/>
<rect width="0.675684" height="519.383" rx="0.337842" transform="matrix(0.983224 0.182402 -0.184463 0.982839 263.073 382.912)" fill="black"/>
<rect width="0.675684" height="519.383" rx="0.337842" transform="matrix(0.983224 0.182402 -0.184463 0.982839 244.091 379.39)" fill="black"/>
<rect width="0.675684" height="519.383" rx="0.337842" transform="matrix(0.983224 0.182402 -0.184463 0.982839 266.869 383.616)" fill="black"/>
<rect width="0.675684" height="519.383" rx="0.337842" transform="matrix(0.983224 0.182402 -0.184463 0.982839 247.887 380.095)" fill="black"/>
<rect width="0.675684" height="519.383" rx="0.337842" transform="matrix(0.983224 0.182402 -0.184463 0.982839 270.665 384.32)" fill="black"/>
<rect width="0.675684" height="519.383" rx="0.337842" transform="matrix(0.983224 0.182402 -0.184463 0.982839 251.683 380.798)" fill="black"/>
<rect width="0.675684" height="519.383" rx="0.337842" transform="matrix(0.983224 0.182402 -0.184463 0.982839 274.46 385.024)" fill="black"/>
<rect width="0.675684" height="519.383" rx="0.337842" transform="matrix(0.983224 0.182402 -0.184463 0.982839 255.479 381.503)" fill="black"/>
<rect width="0.675684" height="519.383" rx="0.337842" transform="matrix(0.983224 0.182402 -0.184463 0.982839 278.258 385.729)" fill="black"/>
<rect width="0.675684" height="519.383" rx="0.337842" transform="matrix(0.983224 0.182402 -0.184463 0.982839 282.054 386.433)" fill="black"/>
<rect width="0.675684" height="519.383" rx="0.337842" transform="matrix(0.983224 0.182402 -0.184463 0.982839 304.831 390.659)" fill="black"/>
<rect width="0.675684" height="519.383" rx="0.337842" transform="matrix(0.983224 0.182402 -0.184463 0.982839 285.85 387.137)" fill="black"/>
<rect width="0.675684" height="519.383" rx="0.337842" transform="matrix(0.983224 0.182402 -0.184463 0.982839 308.627 391.363)" fill="black"/>
<rect width="0.675684" height="519.383" rx="0.337842" transform="matrix(0.983224 0.182402 -0.184463 0.982839 289.646 387.842)" fill="black"/>
<rect width="0.675684" height="519.383" rx="0.337842" transform="matrix(0.983224 0.182402 -0.184463 0.982839 312.425 392.067)" fill="black"/>
<rect width="0.675684" height="519.383" rx="0.337842" transform="matrix(0.983224 0.182402 -0.184463 0.982839 293.441 388.546)" fill="black"/>
<rect width="0.675684" height="519.383" rx="0.337842" transform="matrix(0.983224 0.182402 -0.184463 0.982839 316.221 392.771)" fill="black"/>
<rect width="0.675684" height="519.383" rx="0.337842" transform="matrix(0.983224 0.182402 -0.184463 0.982839 297.239 389.25)" fill="black"/>
<rect width="0.675684" height="519.383" rx="0.337842" transform="matrix(0.983224 0.182402 -0.184463 0.982839 320.017 393.476)" fill="black"/>
<rect width="0.675684" height="519.383" rx="0.337842" transform="matrix(0.983224 0.182402 -0.184463 0.982839 301.035 389.955)" fill="black"/>
<rect width="0.675684" height="519.383" rx="0.337842" transform="matrix(0.983224 0.182402 -0.184463 0.982839 323.812 394.18)" fill="black"/>
<rect width="0.675684" height="519.383" rx="0.337842" transform="matrix(0.983224 0.182402 -0.184463 0.982839 327.608 394.884)" fill="black"/>
<rect width="0.675684" height="519.383" rx="0.337842" transform="matrix(0.983224 0.182402 -0.184463 0.982839 350.387 399.109)" fill="black"/>
<rect width="0.675684" height="519.383" rx="0.337842" transform="matrix(0.983224 0.182402 -0.184463 0.982839 331.406 395.588)" fill="black"/>
<rect width="0.675684" height="519.383" rx="0.337842" transform="matrix(0.983224 0.182402 -0.184463 0.982839 354.183 399.814)" fill="black"/>
<rect width="0.675684" height="519.383" rx="0.337842" transform="matrix(0.983224 0.182402 -0.184463 0.982839 335.202 396.293)" fill="black"/>
<rect width="0.675684" height="519.383" rx="0.337842" transform="matrix(0.983224 0.182402 -0.184463 0.982839 357.979 400.518)" fill="black"/>
<rect width="0.675684" height="519.383" rx="0.337842" transform="matrix(0.983224 0.182402 -0.184463 0.982839 338.998 396.997)" fill="black"/>
<rect width="0.675684" height="519.383" rx="0.337842" transform="matrix(0.983224 0.182402 -0.184463 0.982839 361.774 401.223)" fill="black"/>
<rect width="0.675684" height="519.383" rx="0.337842" transform="matrix(0.983224 0.182402 -0.184463 0.982839 342.793 397.701)" fill="black"/>
<rect width="0.675684" height="519.383" rx="0.337842" transform="matrix(0.983224 0.182402 -0.184463 0.982839 365.572 401.926)" fill="black"/>
<rect width="0.675684" height="519.383" rx="0.337842" transform="matrix(0.983224 0.182402 -0.184463 0.982839 346.589 398.406)" fill="black"/>
<rect width="0.675684" height="519.383" rx="0.337842" transform="matrix(0.983224 0.182402 -0.184463 0.982839 369.369 402.631)" fill="black"/>
<rect width="0.675684" height="519.383" rx="0.337842" transform="matrix(0.983224 0.182402 -0.184463 0.982839 373.164 403.335)" fill="black"/>
<rect width="0.675684" height="519.383" rx="0.337842" transform="matrix(0.983224 0.182402 -0.184463 0.982839 395.941 407.561)" fill="black"/>
<rect width="0.675684" height="519.383" rx="0.337842" transform="matrix(0.983224 0.182402 -0.184463 0.982839 376.96 404.04)" fill="black"/>
<rect width="0.675684" height="519.383" rx="0.337842" transform="matrix(0.983224 0.182402 -0.184463 0.982839 399.737 408.266)" fill="black"/>
<rect width="0.675684" height="519.383" rx="0.337842" transform="matrix(0.983224 0.182402 -0.184463 0.982839 380.756 404.744)" fill="black"/>
<rect width="0.675684" height="519.383" rx="0.337842" transform="matrix(0.983224 0.182402 -0.184463 0.982839 403.535 408.969)" fill="black"/>
<rect width="0.675684" height="519.383" rx="0.337842" transform="matrix(0.983224 0.182402 -0.184463 0.982839 384.554 405.448)" fill="black"/>
<rect width="0.675684" height="519.383" rx="0.337842" transform="matrix(0.983224 0.182402 -0.184463 0.982839 407.331 409.674)" fill="black"/>
<rect width="0.675684" height="519.383" rx="0.337842" transform="matrix(0.983224 0.182402 -0.184463 0.982839 388.35 406.152)" fill="black"/>
<rect width="0.675684" height="519.383" rx="0.337842" transform="matrix(0.983224 0.182402 -0.184463 0.982839 411.127 410.378)" fill="black"/>
<rect width="0.675684" height="519.383" rx="0.337842" transform="matrix(0.983224 0.182402 -0.184463 0.982839 392.146 406.856)" fill="black"/>
<rect width="0.675684" height="519.383" rx="0.337842" transform="matrix(0.983224 0.182402 -0.184463 0.982839 414.923 411.083)" fill="black"/>
<rect width="0.675684" height="519.383" rx="0.337842" transform="matrix(0.983224 0.182402 -0.184463 0.982839 418.72 411.786)" fill="black"/>
<rect width="0.675684" height="519.383" rx="0.337842" transform="matrix(0.983224 0.182402 -0.184463 0.982839 441.498 416.012)" fill="black"/>
<rect width="0.675684" height="519.383" rx="0.337842" transform="matrix(0.983224 0.182402 -0.184463 0.982839 422.516 412.491)" fill="black"/>
<rect width="0.675684" height="519.383" rx="0.337842" transform="matrix(0.983224 0.182402 -0.184463 0.982839 445.293 416.716)" fill="black"/>
<rect width="0.675684" height="519.383" rx="0.337842" transform="matrix(0.983224 0.182402 -0.184463 0.982839 426.312 413.195)" fill="black"/>
<rect width="0.675684" height="519.383" rx="0.337842" transform="matrix(0.983224 0.182402 -0.184463 0.982839 449.089 417.42)" fill="black"/>
<rect width="0.675684" height="519.383" rx="0.337842" transform="matrix(0.983224 0.182402 -0.184463 0.982839 430.108 413.899)" fill="black"/>
<rect width="0.675684" height="519.383" rx="0.337842" transform="matrix(0.983224 0.182402 -0.184463 0.982839 452.887 418.125)" fill="black"/>
<rect width="0.675684" height="519.383" rx="0.337842" transform="matrix(0.983224 0.182402 -0.184463 0.982839 433.904 414.604)" fill="black"/>
<rect width="0.675684" height="519.383" rx="0.337842" transform="matrix(0.983224 0.182402 -0.184463 0.982839 456.683 418.829)" fill="black"/>
<rect width="0.675684" height="519.383" rx="0.337842" transform="matrix(0.983224 0.182402 -0.184463 0.982839 437.702 415.308)" fill="black"/>
<rect width="0.675684" height="519.383" rx="0.337842" transform="matrix(0.983224 0.182402 -0.184463 0.982839 460.479 419.533)" fill="black"/>
<rect width="0.675684" height="519.383" rx="0.337842" transform="matrix(0.983224 0.182402 -0.184463 0.982839 464.274 420.238)" fill="black"/>
<rect width="0.675684" height="519.383" rx="0.337842" transform="matrix(0.983224 0.182402 -0.184463 0.982839 487.052 424.463)" fill="black"/>
<rect width="0.675684" height="519.383" rx="0.337842" transform="matrix(0.983224 0.182402 -0.184463 0.982839 468.07 420.942)" fill="black"/>
<rect width="0.675684" height="519.383" rx="0.337842" transform="matrix(0.983224 0.182402 -0.184463 0.982839 490.849 425.167)" fill="black"/>
<rect width="0.675684" height="519.383" rx="0.337842" transform="matrix(0.983224 0.182402 -0.184463 0.982839 471.868 421.646)" fill="black"/>
<rect width="0.675684" height="519.383" rx="0.337842" transform="matrix(0.983224 0.182402 -0.184463 0.982839 494.646 425.872)" fill="black"/>
<rect width="0.675684" height="519.383" rx="0.337842" transform="matrix(0.983224 0.182402 -0.184463 0.982839 475.664 422.351)" fill="black"/>
<rect width="0.675684" height="519.383" rx="0.337842" transform="matrix(0.983224 0.182402 -0.184463 0.982839 498.441 426.576)" fill="black"/>
<rect width="0.675684" height="519.383" rx="0.337842" transform="matrix(0.983224 0.182402 -0.184463 0.982839 479.459 423.055)" fill="black"/>
<rect width="0.675684" height="519.383" rx="0.337842" transform="matrix(0.983224 0.182402 -0.184463 0.982839 502.237 427.28)" fill="black"/>
<rect width="0.675684" height="519.383" rx="0.337842" transform="matrix(0.983224 0.182402 -0.184463 0.982839 483.256 423.759)" fill="black"/>
<rect width="0.675684" height="519.383" rx="0.337842" transform="matrix(0.983224 0.182402 -0.184463 0.982839 506.035 427.984)" fill="black"/>
</g>
</svg>
