<svg width="92" height="93" viewBox="0 0 92 93" fill="none" xmlns="http://www.w3.org/2000/svg">
<g opacity="0.3">
<mask id="mask0_324_166" style="mask-type:alpha" maskUnits="userSpaceOnUse" x="0" y="0" width="92" height="93">
<rect y="0.587891" width="92" height="92" fill="#EBEBEB"/>
</mask>
<g mask="url(#mask0_324_166)">
<rect width="0.744918" height="906.647" transform="matrix(0.736768 0.676146 -0.506615 0.862172 1.87805 -352.77)" fill="black"/>
<rect width="0.744918" height="906.647" transform="matrix(0.736768 0.676146 -0.506615 0.862172 5.01587 -349.892)" fill="black"/>
<rect width="0.744918" height="906.647" transform="matrix(0.736768 0.676146 -0.506615 0.862172 8.15149 -347.013)" fill="black"/>
<rect width="0.744918" height="906.647" transform="matrix(0.736768 0.676146 -0.506615 0.862172 11.2874 -344.135)" fill="black"/>
<rect width="0.744918" height="906.647" transform="matrix(0.736768 0.676146 -0.506615 0.862172 14.4231 -341.256)" fill="black"/>
<rect width="0.744918" height="906.647" transform="matrix(0.736768 0.676146 -0.506615 0.862172 17.5609 -338.377)" fill="black"/>
<rect width="0.744918" height="906.647" transform="matrix(0.736768 0.676146 -0.506615 0.862172 36.3772 -321.109)" fill="black"/>
<rect width="0.744918" height="906.647" transform="matrix(0.736768 0.676146 -0.506615 0.862172 20.6965 -335.5)" fill="black"/>
<rect width="0.744918" height="906.647" transform="matrix(0.736768 0.676146 -0.506615 0.862172 39.5131 -318.232)" fill="black"/>
<rect width="0.744918" height="906.647" transform="matrix(0.736768 0.676146 -0.506615 0.862172 23.8322 -332.621)" fill="black"/>
<rect width="0.744918" height="906.647" transform="matrix(0.736768 0.676146 -0.506615 0.862172 42.6487 -315.354)" fill="black"/>
<rect width="0.744918" height="906.647" transform="matrix(0.736768 0.676146 -0.506615 0.862172 26.9683 -329.744)" fill="black"/>
<rect width="0.744918" height="906.647" transform="matrix(0.736768 0.676146 -0.506615 0.862172 45.7848 -312.476)" fill="black"/>
<rect width="0.744918" height="906.647" transform="matrix(0.736768 0.676146 -0.506615 0.862172 30.1039 -326.866)" fill="black"/>
<rect width="0.744918" height="906.647" transform="matrix(0.736768 0.676146 -0.506615 0.862172 48.9222 -309.598)" fill="black"/>
<rect width="0.744918" height="906.647" transform="matrix(0.736768 0.676146 -0.506615 0.862172 33.2413 -323.987)" fill="black"/>
<rect width="0.744918" height="906.647" transform="matrix(0.736768 0.676146 -0.506615 0.862172 52.0581 -306.719)" fill="black"/>
<rect width="0.744918" height="906.647" transform="matrix(0.736768 0.676146 -0.506615 0.862172 55.1937 -303.841)" fill="black"/>
<rect width="0.744918" height="906.647" transform="matrix(0.736768 0.676146 -0.506615 0.862172 74.0105 -286.571)" fill="black"/>
<rect width="0.744918" height="906.647" transform="matrix(0.736768 0.676146 -0.506615 0.862172 58.3293 -300.962)" fill="black"/>
<rect width="0.744918" height="906.647" transform="matrix(0.736768 0.676146 -0.506615 0.862172 77.1481 -283.693)" fill="black"/>
<rect width="0.744918" height="906.647" transform="matrix(0.736768 0.676146 -0.506615 0.862172 61.4674 -298.084)" fill="black"/>
<rect width="0.744918" height="906.647" transform="matrix(0.736768 0.676146 -0.506615 0.862172 80.2837 -280.815)" fill="black"/>
<rect width="0.744918" height="906.647" transform="matrix(0.736768 0.676146 -0.506615 0.862172 64.6033 -295.207)" fill="black"/>
<rect width="0.744918" height="906.647" transform="matrix(0.736768 0.676146 -0.506615 0.862172 83.4196 -277.937)" fill="black"/>
<rect width="0.744918" height="906.647" transform="matrix(0.736768 0.676146 -0.506615 0.862172 67.7389 -292.328)" fill="black"/>
<rect width="0.744918" height="906.647" transform="matrix(0.736768 0.676146 -0.506615 0.862172 86.5554 -275.06)" fill="black"/>
<rect width="0.744918" height="906.647" transform="matrix(0.736768 0.676146 -0.506615 0.862172 70.8745 -289.45)" fill="black"/>
<rect width="0.744918" height="906.647" transform="matrix(0.736768 0.676146 -0.506615 0.862172 89.6929 -272.18)" fill="black"/>
<rect width="0.744918" height="906.647" transform="matrix(0.736768 0.676146 -0.506615 0.862172 92.8287 -269.303)" fill="black"/>
<rect width="0.744918" height="906.647" transform="matrix(0.736768 0.676146 -0.506615 0.862172 111.645 -252.035)" fill="black"/>
<rect width="0.744918" height="906.647" transform="matrix(0.736768 0.676146 -0.506615 0.862172 95.9644 -266.425)" fill="black"/>
<rect width="0.744918" height="906.647" transform="matrix(0.736768 0.676146 -0.506615 0.862172 114.781 -249.156)" fill="black"/>
<rect width="0.744918" height="906.647" transform="matrix(0.736768 0.676146 -0.506615 0.862172 99.1002 -263.546)" fill="black"/>
<rect width="0.744918" height="906.647" transform="matrix(0.736768 0.676146 -0.506615 0.862172 117.917 -246.277)" fill="black"/>
<rect width="0.744918" height="906.647" transform="matrix(0.736768 0.676146 -0.506615 0.862172 102.236 -260.669)" fill="black"/>
<rect width="0.744918" height="906.647" transform="matrix(0.736768 0.676146 -0.506615 0.862172 121.055 -243.399)" fill="black"/>
<rect width="0.744918" height="906.647" transform="matrix(0.736768 0.676146 -0.506615 0.862172 105.374 -257.789)" fill="black"/>
<rect width="0.744918" height="906.647" transform="matrix(0.736768 0.676146 -0.506615 0.862172 124.19 -240.522)" fill="black"/>
<rect width="0.744918" height="906.647" transform="matrix(0.736768 0.676146 -0.506615 0.862172 108.51 -254.913)" fill="black"/>
<rect width="0.744918" height="906.647" transform="matrix(0.736768 0.676146 -0.506615 0.862172 127.326 -237.645)" fill="black"/>
<rect width="0.744918" height="906.647" transform="matrix(0.736768 0.676146 -0.506615 0.862172 130.462 -234.766)" fill="black"/>
<rect width="0.744918" height="906.647" transform="matrix(0.736768 0.676146 -0.506615 0.862172 149.28 -217.496)" fill="black"/>
<rect width="0.744918" height="906.647" transform="matrix(0.736768 0.676146 -0.506615 0.862172 133.599 -231.887)" fill="black"/>
<rect width="0.744918" height="906.647" transform="matrix(0.736768 0.676146 -0.506615 0.862172 152.416 -214.619)" fill="black"/>
<rect width="0.744918" height="906.647" transform="matrix(0.736768 0.676146 -0.506615 0.862172 136.735 -229.009)" fill="black"/>
<rect width="0.744918" height="906.647" transform="matrix(0.736768 0.676146 -0.506615 0.862172 155.552 -211.74)" fill="black"/>
<rect width="0.744918" height="906.647" transform="matrix(0.736768 0.676146 -0.506615 0.862172 139.871 -226.131)" fill="black"/>
<rect width="0.744918" height="906.647" transform="matrix(0.736768 0.676146 -0.506615 0.862172 158.688 -208.862)" fill="black"/>
<rect width="0.744918" height="906.647" transform="matrix(0.736768 0.676146 -0.506615 0.862172 143.007 -223.252)" fill="black"/>
<rect width="0.744918" height="906.647" transform="matrix(0.736768 0.676146 -0.506615 0.862172 161.823 -205.983)" fill="black"/>
<rect width="0.744918" height="906.647" transform="matrix(0.736768 0.676146 -0.506615 0.862172 146.143 -220.376)" fill="black"/>
<rect width="0.744918" height="906.647" transform="matrix(0.736768 0.676146 -0.506615 0.862172 164.961 -203.105)" fill="black"/>
<rect width="0.744918" height="906.647" transform="matrix(0.736768 0.676146 -0.506615 0.862172 168.097 -200.229)" fill="black"/>
<rect width="0.744918" height="906.647" transform="matrix(0.736768 0.676146 -0.506615 0.862172 186.913 -182.96)" fill="black"/>
<rect width="0.744918" height="906.647" transform="matrix(0.736768 0.676146 -0.506615 0.862172 171.233 -197.351)" fill="black"/>
<rect width="0.744918" height="906.647" transform="matrix(0.736768 0.676146 -0.506615 0.862172 190.049 -180.081)" fill="black"/>
<rect width="0.744918" height="906.647" transform="matrix(0.736768 0.676146 -0.506615 0.862172 174.368 -194.472)" fill="black"/>
<rect width="0.744918" height="906.647" transform="matrix(0.736768 0.676146 -0.506615 0.862172 193.187 -177.203)" fill="black"/>
<rect width="0.744918" height="906.647" transform="matrix(0.736768 0.676146 -0.506615 0.862172 177.506 -191.594)" fill="black"/>
<rect width="0.744918" height="906.647" transform="matrix(0.736768 0.676146 -0.506615 0.862172 196.322 -174.324)" fill="black"/>
<rect width="0.744918" height="906.647" transform="matrix(0.736768 0.676146 -0.506615 0.862172 180.642 -188.715)" fill="black"/>
<rect width="0.744918" height="906.647" transform="matrix(0.736768 0.676146 -0.506615 0.862172 199.458 -171.446)" fill="black"/>
<rect width="0.744918" height="906.647" transform="matrix(0.736768 0.676146 -0.506615 0.862172 183.777 -185.837)" fill="black"/>
<rect width="0.744918" height="906.647" transform="matrix(0.736768 0.676146 -0.506615 0.862172 202.594 -168.568)" fill="black"/>
<rect width="0.744918" height="906.647" transform="matrix(0.736768 0.676146 -0.506615 0.862172 205.732 -165.689)" fill="black"/>
<rect width="0.744918" height="906.647" transform="matrix(0.736768 0.676146 -0.506615 0.862172 224.548 -148.421)" fill="black"/>
<rect width="0.744918" height="906.647" transform="matrix(0.736768 0.676146 -0.506615 0.862172 208.868 -162.812)" fill="black"/>
<rect width="0.744918" height="906.647" transform="matrix(0.736768 0.676146 -0.506615 0.862172 227.684 -145.542)" fill="black"/>
<rect width="0.744918" height="906.647" transform="matrix(0.736768 0.676146 -0.506615 0.862172 212.003 -159.935)" fill="black"/>
<rect width="0.744918" height="906.647" transform="matrix(0.736768 0.676146 -0.506615 0.862172 230.82 -142.666)" fill="black"/>
<rect width="0.744918" height="906.647" transform="matrix(0.736768 0.676146 -0.506615 0.862172 215.139 -157.056)" fill="black"/>
<rect width="0.744918" height="906.647" transform="matrix(0.736768 0.676146 -0.506615 0.862172 233.956 -139.788)" fill="black"/>
<rect width="0.744918" height="906.647" transform="matrix(0.736768 0.676146 -0.506615 0.862172 218.275 -154.178)" fill="black"/>
<rect width="0.744918" height="906.647" transform="matrix(0.736768 0.676146 -0.506615 0.862172 237.093 -136.909)" fill="black"/>
<rect width="0.744918" height="906.647" transform="matrix(0.736768 0.676146 -0.506615 0.862172 221.413 -151.299)" fill="black"/>
<rect width="0.744918" height="906.647" transform="matrix(0.736768 0.676146 -0.506615 0.862172 240.229 -134.03)" fill="black"/>
<rect width="0.744918" height="906.647" transform="matrix(0.736768 0.676146 -0.506615 0.862172 243.365 -131.152)" fill="black"/>
<rect width="0.744918" height="906.647" transform="matrix(0.736768 0.676146 -0.506615 0.862172 262.181 -113.884)" fill="black"/>
<rect width="0.744918" height="906.647" transform="matrix(0.736768 0.676146 -0.506615 0.862172 246.501 -128.275)" fill="black"/>
<rect width="0.744918" height="906.647" transform="matrix(0.736768 0.676146 -0.506615 0.862172 265.319 -111.005)" fill="black"/>
<rect width="0.744918" height="906.647" transform="matrix(0.736768 0.676146 -0.506615 0.862172 249.638 -125.396)" fill="black"/>
<rect width="0.744918" height="906.647" transform="matrix(0.736768 0.676146 -0.506615 0.862172 268.455 -108.127)" fill="black"/>
<rect width="0.744918" height="906.647" transform="matrix(0.736768 0.676146 -0.506615 0.862172 252.774 -122.519)" fill="black"/>
<rect width="0.744918" height="906.647" transform="matrix(0.736768 0.676146 -0.506615 0.862172 271.591 -105.248)" fill="black"/>
<rect width="0.744918" height="906.647" transform="matrix(0.736768 0.676146 -0.506615 0.862172 255.91 -119.64)" fill="black"/>
<rect width="0.744918" height="906.647" transform="matrix(0.736768 0.676146 -0.506615 0.862172 274.726 -102.372)" fill="black"/>
<rect width="0.744918" height="906.647" transform="matrix(0.736768 0.676146 -0.506615 0.862172 259.045 -116.762)" fill="black"/>
<rect width="0.744918" height="906.647" transform="matrix(0.736768 0.676146 -0.506615 0.862172 277.862 -99.4932)" fill="black"/>
<rect width="0.744918" height="906.647" transform="matrix(0.736768 0.676146 -0.506615 0.862172 280.592 -96.9893)" fill="black"/>
<rect width="0.744918" height="906.647" transform="matrix(0.736768 0.676146 -0.506615 0.862172 299.409 -79.7207)" fill="black"/>
<rect width="0.744918" height="906.647" transform="matrix(0.736768 0.676146 -0.506615 0.862172 283.728 -94.1113)" fill="black"/>
<rect width="0.744918" height="906.647" transform="matrix(0.736768 0.676146 -0.506615 0.862172 302.546 -76.8408)" fill="black"/>
<rect width="0.744918" height="906.647" transform="matrix(0.736768 0.676146 -0.506615 0.862172 286.864 -91.2324)" fill="black"/>
<rect width="0.744918" height="906.647" transform="matrix(0.736768 0.676146 -0.506615 0.862172 305.682 -73.9639)" fill="black"/>
<rect width="0.744918" height="906.647" transform="matrix(0.736768 0.676146 -0.506615 0.862172 290.001 -88.3545)" fill="black"/>
<rect width="0.744918" height="906.647" transform="matrix(0.736768 0.676146 -0.506615 0.862172 308.818 -71.0859)" fill="black"/>
<rect width="0.744918" height="906.647" transform="matrix(0.736768 0.676146 -0.506615 0.862172 293.137 -85.4756)" fill="black"/>
<rect width="0.744918" height="906.647" transform="matrix(0.736768 0.676146 -0.506615 0.862172 311.954 -68.207)" fill="black"/>
<rect width="0.744918" height="906.647" transform="matrix(0.736768 0.676146 -0.506615 0.862172 296.273 -82.5977)" fill="black"/>
<rect width="0.744918" height="906.647" transform="matrix(0.736768 0.676146 -0.506615 0.862172 315.089 -65.3291)" fill="black"/>
<rect width="0.744918" height="906.647" transform="matrix(0.736768 0.676146 -0.506615 0.862172 318.227 -62.4502)" fill="black"/>
<rect width="0.744918" height="906.647" transform="matrix(0.736768 0.676146 -0.506615 0.862172 337.044 -45.1816)" fill="black"/>
<rect width="0.744918" height="906.647" transform="matrix(0.736768 0.676146 -0.506615 0.862172 321.363 -59.5723)" fill="black"/>
<rect width="0.744918" height="906.647" transform="matrix(0.736768 0.676146 -0.506615 0.862172 340.179 -42.3037)" fill="black"/>
<rect width="0.744918" height="906.647" transform="matrix(0.736768 0.676146 -0.506615 0.862172 324.499 -56.6953)" fill="black"/>
<rect width="0.744918" height="906.647" transform="matrix(0.736768 0.676146 -0.506615 0.862172 343.315 -39.4268)" fill="black"/>
<rect width="0.744918" height="906.647" transform="matrix(0.736768 0.676146 -0.506615 0.862172 327.634 -53.8174)" fill="black"/>
<rect width="0.744918" height="906.647" transform="matrix(0.736768 0.676146 -0.506615 0.862172 346.453 -36.5488)" fill="black"/>
<rect width="0.744918" height="906.647" transform="matrix(0.736768 0.676146 -0.506615 0.862172 330.77 -50.9385)" fill="black"/>
<rect width="0.744918" height="906.647" transform="matrix(0.736768 0.676146 -0.506615 0.862172 349.589 -33.6699)" fill="black"/>
<rect width="0.744918" height="906.647" transform="matrix(0.736768 0.676146 -0.506615 0.862172 333.908 -48.0605)" fill="black"/>
<rect width="0.744918" height="906.647" transform="matrix(0.736768 0.676146 -0.506615 0.862172 352.724 -30.792)" fill="black"/>
<rect width="0.744918" height="906.647" transform="matrix(0.736768 0.676146 -0.506615 0.862172 355.86 -27.9131)" fill="black"/>
<rect width="0.744918" height="906.647" transform="matrix(0.736768 0.676146 -0.506615 0.862172 374.677 -10.6445)" fill="black"/>
<rect width="0.744918" height="906.647" transform="matrix(0.736768 0.676146 -0.506615 0.862172 358.996 -25.0352)" fill="black"/>
<rect width="0.744918" height="906.647" transform="matrix(0.736768 0.676146 -0.506615 0.862172 377.814 -7.7666)" fill="black"/>
<rect width="0.744918" height="906.647" transform="matrix(0.736768 0.676146 -0.506615 0.862172 362.134 -22.1562)" fill="black"/>
<rect width="0.744918" height="906.647" transform="matrix(0.736768 0.676146 -0.506615 0.862172 380.95 -4.88965)" fill="black"/>
<rect width="0.744918" height="906.647" transform="matrix(0.736768 0.676146 -0.506615 0.862172 365.269 -19.2803)" fill="black"/>
<rect width="0.744918" height="906.647" transform="matrix(0.736768 0.676146 -0.506615 0.862172 384.086 -2.01074)" fill="black"/>
<rect width="0.744918" height="906.647" transform="matrix(0.736768 0.676146 -0.506615 0.862172 368.405 -16.3994)" fill="black"/>
<rect width="0.744918" height="906.647" transform="matrix(0.736768 0.676146 -0.506615 0.862172 387.222 0.867188)" fill="black"/>
<rect width="0.744918" height="906.647" transform="matrix(0.736768 0.676146 -0.506615 0.862172 371.541 -13.5234)" fill="black"/>
<rect width="0.744918" height="906.647" transform="matrix(0.736768 0.676146 -0.506615 0.862172 390.359 3.74609)" fill="black"/>
<rect width="0.744918" height="906.647" transform="matrix(0.736768 0.676146 -0.506615 0.862172 393.495 6.62402)" fill="black"/>
<rect width="0.744918" height="906.647" transform="matrix(0.736768 0.676146 -0.506615 0.862172 412.312 23.8926)" fill="black"/>
<rect width="0.744918" height="906.647" transform="matrix(0.736768 0.676146 -0.506615 0.862172 396.631 9.50195)" fill="black"/>
<rect width="0.744918" height="906.647" transform="matrix(0.736768 0.676146 -0.506615 0.862172 415.448 26.7715)" fill="black"/>
<rect width="0.744918" height="906.647" transform="matrix(0.736768 0.676146 -0.506615 0.862172 399.767 12.3809)" fill="black"/>
<rect width="0.744918" height="906.647" transform="matrix(0.736768 0.676146 -0.506615 0.862172 418.585 29.6494)" fill="black"/>
<rect width="0.744918" height="906.647" transform="matrix(0.736768 0.676146 -0.506615 0.862172 402.903 15.2588)" fill="black"/>
<rect width="0.744918" height="906.647" transform="matrix(0.736768 0.676146 -0.506615 0.862172 421.721 32.5283)" fill="black"/>
<rect width="0.744918" height="906.647" transform="matrix(0.736768 0.676146 -0.506615 0.862172 406.04 18.1377)" fill="black"/>
<rect width="0.744918" height="906.647" transform="matrix(0.736768 0.676146 -0.506615 0.862172 424.857 35.4043)" fill="black"/>
<rect width="0.744918" height="906.647" transform="matrix(0.736768 0.676146 -0.506615 0.862172 409.176 21.0146)" fill="black"/>
<rect width="0.744918" height="906.647" transform="matrix(0.736768 0.676146 -0.506615 0.862172 427.993 38.2832)" fill="black"/>
<rect width="0.744918" height="906.647" transform="matrix(0.736768 0.676146 -0.506615 0.862172 431.128 41.1611)" fill="black"/>
<rect width="0.744918" height="906.647" transform="matrix(0.736768 0.676146 -0.506615 0.862172 449.947 58.4297)" fill="black"/>
<rect width="0.744918" height="906.647" transform="matrix(0.736768 0.676146 -0.506615 0.862172 434.266 44.04)" fill="black"/>
<rect width="0.744918" height="906.647" transform="matrix(0.736768 0.676146 -0.506615 0.862172 453.082 61.3086)" fill="black"/>
<rect width="0.744918" height="906.647" transform="matrix(0.736768 0.676146 -0.506615 0.862172 437.402 46.918)" fill="black"/>
<rect width="0.744918" height="906.647" transform="matrix(0.736768 0.676146 -0.506615 0.862172 456.218 64.1865)" fill="black"/>
<rect width="0.744918" height="906.647" transform="matrix(0.736768 0.676146 -0.506615 0.862172 440.538 49.7969)" fill="black"/>
<rect width="0.744918" height="906.647" transform="matrix(0.736768 0.676146 -0.506615 0.862172 459.354 67.0654)" fill="black"/>
<rect width="0.744918" height="906.647" transform="matrix(0.736768 0.676146 -0.506615 0.862172 443.673 52.6748)" fill="black"/>
<rect width="0.744918" height="906.647" transform="matrix(0.736768 0.676146 -0.506615 0.862172 462.492 69.9434)" fill="black"/>
<rect width="0.744918" height="906.647" transform="matrix(0.736768 0.676146 -0.506615 0.862172 446.809 55.5518)" fill="black"/>
<rect width="0.744918" height="906.647" transform="matrix(0.736768 0.676146 -0.506615 0.862172 465.627 72.8223)" fill="black"/>
<rect width="0.744918" height="906.647" transform="matrix(0.736768 0.676146 -0.506615 0.862172 468.763 75.6982)" fill="black"/>
<rect width="0.744918" height="906.647" transform="matrix(0.736768 0.676146 -0.506615 0.862172 471.899 78.5771)" fill="black"/>
<rect width="0.744918" height="906.647" transform="matrix(0.736768 0.676146 -0.506615 0.862172 475.035 81.4551)" fill="black"/>
<rect width="0.744918" height="906.647" transform="matrix(0.736768 0.676146 -0.506615 0.862172 478.172 84.334)" fill="black"/>
<rect width="0.744918" height="906.647" transform="matrix(0.736768 0.676146 -0.506615 0.862172 481.308 87.2119)" fill="black"/>
<rect width="0.744918" height="906.647" transform="matrix(0.736768 0.676146 -0.506615 0.862172 484.444 90.0908)" fill="black"/>
</g>
</g>
</svg>
