<svg width="278" height="858" viewBox="0 0 278 858" fill="none" xmlns="http://www.w3.org/2000/svg">
<path d="M227.955 901.278V419.81M227.955 419.81H218.375V388.278H389.546V419.81H377.411M227.955 419.81H377.411M377.411 419.81V896.278" stroke="#FF6B2C"/>
<path d="M272.66 419.578V900.278" stroke="#FF6B2C"/>
<path d="M228.156 474.352H112.737V901.278" stroke="#FF6B2C"/>
<path d="M228.156 453.811H101V474.352H119.563" stroke="#FF6B2C"/>
<path d="M149 900.278L149 473.278" stroke="#FF6B2C"/>
<path d="M192 900.278L192 473.278" stroke="#FF6B2C"/>
<path d="M33.1679 241.156H1.4466C1.83818 232.735 8.78946 226.028 17.3073 226.028C25.8251 226.028 32.7764 232.735 33.1679 241.156Z" stroke="#FF6B2C" stroke-width="1.5"/>
<path d="M201.646 173.629C204.391 174.544 210.017 177.746 210.566 183.235C211.115 178.844 216.284 175.001 218.8 173.629" stroke="#FF6B2C" stroke-width="1.5"/>
<path d="M201.646 173.629C204.391 174.544 210.017 177.746 210.566 183.235C211.115 178.844 216.284 175.001 218.8 173.629" stroke="#FF6B2C" stroke-width="1.5"/>
<path d="M172.829 161.278C175.573 162.193 181.2 165.395 181.748 170.884C182.297 166.493 187.466 162.651 189.982 161.278" stroke="#FF6B2C" stroke-width="1.5"/>
<path d="M108.272 22.4451H42.7383C45.6726 -1.51885 69.1476 -4.94229 82.3522 11.1967C98.0022 0.926417 108.272 13.1529 108.272 22.4451Z" stroke="#FF6B2C"/>
</svg>
