<svg width="877" height="539" viewBox="0 0 877 539" fill="none" xmlns="http://www.w3.org/2000/svg">
<mask id="mask0_594_3" style="mask-type:alpha" maskUnits="userSpaceOnUse" x="0" y="0" width="877" height="539">
<rect width="877" height="539" fill="white" fill-opacity="0.3"/>
</mask>
<g mask="url(#mask0_594_3)">
<rect width="0.675684" height="519.383" rx="0.337842" transform="matrix(0.983224 0.182402 -0.184463 0.982839 4.54688 -118.052)" fill="black"/>
<rect width="0.675684" height="519.383" rx="0.337842" transform="matrix(0.983224 0.182402 -0.184463 0.982839 8.35156 -117.348)" fill="black"/>
<rect width="0.675684" height="519.383" rx="0.337842" transform="matrix(0.983224 0.182402 -0.184463 0.982839 12.1484 -116.644)" fill="black"/>
<rect width="0.675684" height="519.383" rx="0.337842" transform="matrix(0.983224 0.182402 -0.184463 0.982839 15.9375 -115.939)" fill="black"/>
<rect width="0.675684" height="519.383" rx="0.337842" transform="matrix(0.983224 0.182402 -0.184463 0.982839 19.7344 -115.235)" fill="black"/>
<rect width="0.675684" height="519.383" rx="0.337842" transform="matrix(0.983224 0.182402 -0.184463 0.982839 0.757812 -118.756)" fill="black"/>
<rect width="0.675684" height="519.383" rx="0.337842" transform="matrix(0.983224 0.182402 -0.184463 0.982839 23.5312 -114.531)" fill="black"/>
<rect width="0.675684" height="519.383" rx="0.337842" transform="matrix(0.983224 0.182402 -0.184463 0.982839 27.3281 -113.826)" fill="black"/>
<rect width="0.675684" height="519.383" rx="0.337842" transform="matrix(0.983224 0.182402 -0.184463 0.982839 50.1094 -109.601)" fill="black"/>
<rect width="0.675684" height="519.383" rx="0.337842" transform="matrix(0.983224 0.182402 -0.184463 0.982839 31.125 -113.122)" fill="black"/>
<rect width="0.675684" height="519.383" rx="0.337842" transform="matrix(0.983224 0.182402 -0.184463 0.982839 53.9062 -108.897)" fill="black"/>
<rect width="0.675684" height="519.383" rx="0.337842" transform="matrix(0.983224 0.182402 -0.184463 0.982839 34.9219 -112.418)" fill="black"/>
<rect width="0.675684" height="519.383" rx="0.337842" transform="matrix(0.983224 0.182402 -0.184463 0.982839 57.7031 -108.192)" fill="black"/>
<rect width="0.675684" height="519.383" rx="0.337842" transform="matrix(0.983224 0.182402 -0.184463 0.982839 38.7188 -111.713)" fill="black"/>
<rect width="0.675684" height="519.383" rx="0.337842" transform="matrix(0.983224 0.182402 -0.184463 0.982839 61.5 -107.488)" fill="black"/>
<rect width="0.675684" height="519.383" rx="0.337842" transform="matrix(0.983224 0.182402 -0.184463 0.982839 42.5156 -111.01)" fill="black"/>
<rect width="0.675684" height="519.383" rx="0.337842" transform="matrix(0.983224 0.182402 -0.184463 0.982839 65.2969 -106.784)" fill="black"/>
<rect width="0.675684" height="519.383" rx="0.337842" transform="matrix(0.983224 0.182402 -0.184463 0.982839 46.3125 -110.305)" fill="black"/>
<rect width="0.675684" height="519.383" rx="0.337842" transform="matrix(0.983224 0.182402 -0.184463 0.982839 69.0938 -106.08)" fill="black"/>
<rect width="0.675684" height="519.383" rx="0.337842" transform="matrix(0.983224 0.182402 -0.184463 0.982839 72.8828 -105.375)" fill="black"/>
<rect width="0.675684" height="519.383" rx="0.337842" transform="matrix(0.983224 0.182402 -0.184463 0.982839 95.6641 -101.15)" fill="black"/>
<rect width="0.675684" height="519.383" rx="0.337842" transform="matrix(0.983224 0.182402 -0.184463 0.982839 76.6875 -104.671)" fill="black"/>
<rect width="0.675684" height="519.383" rx="0.337842" transform="matrix(0.983224 0.182402 -0.184463 0.982839 99.4609 -100.446)" fill="black"/>
<rect width="0.675684" height="519.383" rx="0.337842" transform="matrix(0.983224 0.182402 -0.184463 0.982839 80.4766 -103.967)" fill="black"/>
<rect width="0.675684" height="519.383" rx="0.337842" transform="matrix(0.983224 0.182402 -0.184463 0.982839 103.258 -99.7412)" fill="black"/>
<rect width="0.675684" height="519.383" rx="0.337842" transform="matrix(0.983224 0.182402 -0.184463 0.982839 84.2734 -103.263)" fill="black"/>
<rect width="0.675684" height="519.383" rx="0.337842" transform="matrix(0.983224 0.182402 -0.184463 0.982839 107.047 -99.0369)" fill="black"/>
<rect width="0.675684" height="519.383" rx="0.337842" transform="matrix(0.983224 0.182402 -0.184463 0.982839 88.0703 -102.558)" fill="black"/>
<rect width="0.675684" height="519.383" rx="0.337842" transform="matrix(0.983224 0.182402 -0.184463 0.982839 110.844 -98.3328)" fill="black"/>
<rect width="0.675684" height="519.383" rx="0.337842" transform="matrix(0.983224 0.182402 -0.184463 0.982839 91.8672 -101.854)" fill="black"/>
<rect width="0.675684" height="519.383" rx="0.337842" transform="matrix(0.983224 0.182402 -0.184463 0.982839 114.648 -97.6284)" fill="black"/>
<rect width="0.675684" height="519.383" rx="0.337842" transform="matrix(0.983224 0.182402 -0.184463 0.982839 118.445 -96.9241)" fill="black"/>
<rect width="0.675684" height="519.383" rx="0.337842" transform="matrix(0.983224 0.182402 -0.184463 0.982839 141.219 -92.6985)" fill="black"/>
<rect width="0.675684" height="519.383" rx="0.337842" transform="matrix(0.983224 0.182402 -0.184463 0.982839 122.234 -96.22)" fill="black"/>
<rect width="0.675684" height="519.383" rx="0.337842" transform="matrix(0.983224 0.182402 -0.184463 0.982839 145.016 -91.9941)" fill="black"/>
<rect width="0.675684" height="519.383" rx="0.337842" transform="matrix(0.983224 0.182402 -0.184463 0.982839 126.031 -95.5159)" fill="black"/>
<rect width="0.675684" height="519.383" rx="0.337842" transform="matrix(0.983224 0.182402 -0.184463 0.982839 148.812 -91.2898)" fill="black"/>
<rect width="0.675684" height="519.383" rx="0.337842" transform="matrix(0.983224 0.182402 -0.184463 0.982839 129.828 -94.8113)" fill="black"/>
<rect width="0.675684" height="519.383" rx="0.337842" transform="matrix(0.983224 0.182402 -0.184463 0.982839 152.609 -90.5859)" fill="black"/>
<rect width="0.675684" height="519.383" rx="0.337842" transform="matrix(0.983224 0.182402 -0.184463 0.982839 133.625 -94.1072)" fill="black"/>
<rect width="0.675684" height="519.383" rx="0.337842" transform="matrix(0.983224 0.182402 -0.184463 0.982839 156.406 -89.8813)" fill="black"/>
<rect width="0.675684" height="519.383" rx="0.337842" transform="matrix(0.983224 0.182402 -0.184463 0.982839 137.422 -93.4028)" fill="black"/>
<rect width="0.675684" height="519.383" rx="0.337842" transform="matrix(0.983224 0.182402 -0.184463 0.982839 160.203 -89.1772)" fill="black"/>
<rect width="0.675684" height="519.383" rx="0.337842" transform="matrix(0.983224 0.182402 -0.184463 0.982839 164 -88.4731)" fill="black"/>
<rect width="0.675684" height="519.383" rx="0.337842" transform="matrix(0.983224 0.182402 -0.184463 0.982839 186.773 -84.2476)" fill="black"/>
<rect width="0.675684" height="519.383" rx="0.337842" transform="matrix(0.983224 0.182402 -0.184463 0.982839 167.789 -87.7688)" fill="black"/>
<rect width="0.675684" height="519.383" rx="0.337842" transform="matrix(0.983224 0.182402 -0.184463 0.982839 190.57 -83.543)" fill="black"/>
<rect width="0.675684" height="519.383" rx="0.337842" transform="matrix(0.983224 0.182402 -0.184463 0.982839 171.586 -87.0642)" fill="black"/>
<rect width="0.675684" height="519.383" rx="0.337842" transform="matrix(0.983224 0.182402 -0.184463 0.982839 194.367 -82.8389)" fill="black"/>
<rect width="0.675684" height="519.383" rx="0.337842" transform="matrix(0.983224 0.182402 -0.184463 0.982839 175.383 -86.3604)" fill="black"/>
<rect width="0.675684" height="519.383" rx="0.337842" transform="matrix(0.983224 0.182402 -0.184463 0.982839 198.164 -82.1345)" fill="black"/>
<rect width="0.675684" height="519.383" rx="0.337842" transform="matrix(0.983224 0.182402 -0.184463 0.982839 179.18 -85.6558)" fill="black"/>
<rect width="0.675684" height="519.383" rx="0.337842" transform="matrix(0.983224 0.182402 -0.184463 0.982839 201.961 -81.4302)" fill="black"/>
<rect width="0.675684" height="519.383" rx="0.337842" transform="matrix(0.983224 0.182402 -0.184463 0.982839 182.977 -84.9517)" fill="black"/>
<rect width="0.675684" height="519.383" rx="0.337842" transform="matrix(0.983224 0.182402 -0.184463 0.982839 205.758 -80.7263)" fill="black"/>
<rect width="0.675684" height="519.383" rx="0.337842" transform="matrix(0.983224 0.182402 -0.184463 0.982839 209.555 -80.0217)" fill="black"/>
<rect width="0.675684" height="519.383" rx="0.337842" transform="matrix(0.983224 0.182402 -0.184463 0.982839 232.328 -75.7961)" fill="black"/>
<rect width="0.675684" height="519.383" rx="0.337842" transform="matrix(0.983224 0.182402 -0.184463 0.982839 213.344 -79.3176)" fill="black"/>
<rect width="0.675684" height="519.383" rx="0.337842" transform="matrix(0.983224 0.182402 -0.184463 0.982839 236.125 -75.092)" fill="black"/>
<rect width="0.675684" height="519.383" rx="0.337842" transform="matrix(0.983224 0.182402 -0.184463 0.982839 217.148 -78.6133)" fill="black"/>
<rect width="0.675684" height="519.383" rx="0.337842" transform="matrix(0.983224 0.182402 -0.184463 0.982839 239.922 -74.3877)" fill="black"/>
<rect width="0.675684" height="519.383" rx="0.337842" transform="matrix(0.983224 0.182402 -0.184463 0.982839 220.938 -77.9092)" fill="black"/>
<rect width="0.675684" height="519.383" rx="0.337842" transform="matrix(0.983224 0.182402 -0.184463 0.982839 243.719 -73.6833)" fill="black"/>
<rect width="0.675684" height="519.383" rx="0.337842" transform="matrix(0.983224 0.182402 -0.184463 0.982839 224.734 -77.2046)" fill="black"/>
<rect width="0.675684" height="519.383" rx="0.337842" transform="matrix(0.983224 0.182402 -0.184463 0.982839 247.516 -72.9792)" fill="black"/>
<rect width="0.675684" height="519.383" rx="0.337842" transform="matrix(0.983224 0.182402 -0.184463 0.982839 228.531 -76.5002)" fill="black"/>
<rect width="0.675684" height="519.383" rx="0.337842" transform="matrix(0.983224 0.182402 -0.184463 0.982839 251.312 -72.2747)" fill="black"/>
<rect width="0.675684" height="519.383" rx="0.337842" transform="matrix(0.983224 0.182402 -0.184463 0.982839 254.609 -71.6621)" fill="black"/>
<rect width="0.675684" height="519.383" rx="0.337842" transform="matrix(0.983224 0.182402 -0.184463 0.982839 277.391 -67.4363)" fill="black"/>
<rect width="0.675684" height="519.383" rx="0.337842" transform="matrix(0.983224 0.182402 -0.184463 0.982839 258.406 -70.958)" fill="black"/>
<rect width="0.675684" height="519.383" rx="0.337842" transform="matrix(0.983224 0.182402 -0.184463 0.982839 281.188 -66.7324)" fill="black"/>
<rect width="0.675684" height="519.383" rx="0.337842" transform="matrix(0.983224 0.182402 -0.184463 0.982839 262.203 -70.2534)" fill="black"/>
<rect width="0.675684" height="519.383" rx="0.337842" transform="matrix(0.983224 0.182402 -0.184463 0.982839 284.984 -66.0281)" fill="black"/>
<rect width="0.675684" height="519.383" rx="0.337842" transform="matrix(0.983224 0.182402 -0.184463 0.982839 266 -69.5493)" fill="black"/>
<rect width="0.675684" height="519.383" rx="0.337842" transform="matrix(0.983224 0.182402 -0.184463 0.982839 288.781 -65.3237)" fill="black"/>
<rect width="0.675684" height="519.383" rx="0.337842" transform="matrix(0.983224 0.182402 -0.184463 0.982839 269.797 -68.845)" fill="black"/>
<rect width="0.675684" height="519.383" rx="0.337842" transform="matrix(0.983224 0.182402 -0.184463 0.982839 292.578 -64.6194)" fill="black"/>
<rect width="0.675684" height="519.383" rx="0.337842" transform="matrix(0.983224 0.182402 -0.184463 0.982839 273.594 -68.1409)" fill="black"/>
<rect width="0.675684" height="519.383" rx="0.337842" transform="matrix(0.983224 0.182402 -0.184463 0.982839 296.375 -63.915)" fill="black"/>
<rect width="0.675684" height="519.383" rx="0.337842" transform="matrix(0.983224 0.182402 -0.184463 0.982839 300.172 -63.2109)" fill="black"/>
<rect width="0.675684" height="519.383" rx="0.337842" transform="matrix(0.983224 0.182402 -0.184463 0.982839 322.945 -58.9854)" fill="black"/>
<rect width="0.675684" height="519.383" rx="0.337842" transform="matrix(0.983224 0.182402 -0.184463 0.982839 303.969 -62.5066)" fill="black"/>
<rect width="0.675684" height="519.383" rx="0.337842" transform="matrix(0.983224 0.182402 -0.184463 0.982839 326.742 -58.281)" fill="black"/>
<rect width="0.675684" height="519.383" rx="0.337842" transform="matrix(0.983224 0.182402 -0.184463 0.982839 307.758 -61.8025)" fill="black"/>
<rect width="0.675684" height="519.383" rx="0.337842" transform="matrix(0.983224 0.182402 -0.184463 0.982839 330.539 -57.5767)" fill="black"/>
<rect width="0.675684" height="519.383" rx="0.337842" transform="matrix(0.983224 0.182402 -0.184463 0.982839 311.555 -61.0984)" fill="black"/>
<rect width="0.675684" height="519.383" rx="0.337842" transform="matrix(0.983224 0.182402 -0.184463 0.982839 334.336 -56.8726)" fill="black"/>
<rect width="0.675684" height="519.383" rx="0.337842" transform="matrix(0.983224 0.182402 -0.184463 0.982839 315.352 -60.3938)" fill="black"/>
<rect width="0.675684" height="519.383" rx="0.337842" transform="matrix(0.983224 0.182402 -0.184463 0.982839 338.133 -56.1682)" fill="black"/>
<rect width="0.675684" height="519.383" rx="0.337842" transform="matrix(0.983224 0.182402 -0.184463 0.982839 319.156 -59.6897)" fill="black"/>
<rect width="0.675684" height="519.383" rx="0.337842" transform="matrix(0.983224 0.182402 -0.184463 0.982839 341.93 -55.4639)" fill="black"/>
<rect width="0.675684" height="519.383" rx="0.337842" transform="matrix(0.983224 0.182402 -0.184463 0.982839 345.727 -54.7595)" fill="black"/>
<rect width="0.675684" height="519.383" rx="0.337842" transform="matrix(0.983224 0.182402 -0.184463 0.982839 368.5 -50.5339)" fill="black"/>
<rect width="0.675684" height="519.383" rx="0.337842" transform="matrix(0.983224 0.182402 -0.184463 0.982839 349.516 -54.0554)" fill="black"/>
<rect width="0.675684" height="519.383" rx="0.337842" transform="matrix(0.983224 0.182402 -0.184463 0.982839 372.297 -49.8298)" fill="black"/>
<rect width="0.675684" height="519.383" rx="0.337842" transform="matrix(0.983224 0.182402 -0.184463 0.982839 353.32 -53.3513)" fill="black"/>
<rect width="0.675684" height="519.383" rx="0.337842" transform="matrix(0.983224 0.182402 -0.184463 0.982839 376.094 -49.1257)" fill="black"/>
<rect width="0.675684" height="519.383" rx="0.337842" transform="matrix(0.983224 0.182402 -0.184463 0.982839 357.109 -52.647)" fill="black"/>
<rect width="0.675684" height="519.383" rx="0.337842" transform="matrix(0.983224 0.182402 -0.184463 0.982839 379.891 -48.4214)" fill="black"/>
<rect width="0.675684" height="519.383" rx="0.337842" transform="matrix(0.983224 0.182402 -0.184463 0.982839 360.906 -51.9429)" fill="black"/>
<rect width="0.675684" height="519.383" rx="0.337842" transform="matrix(0.983224 0.182402 -0.184463 0.982839 383.688 -47.717)" fill="black"/>
<rect width="0.675684" height="519.383" rx="0.337842" transform="matrix(0.983224 0.182402 -0.184463 0.982839 364.703 -51.2385)" fill="black"/>
<rect width="0.675684" height="519.383" rx="0.337842" transform="matrix(0.983224 0.182402 -0.184463 0.982839 387.484 -47.0129)" fill="black"/>
<rect width="0.675684" height="519.383" rx="0.337842" transform="matrix(0.983224 0.182402 -0.184463 0.982839 391.281 -46.3086)" fill="black"/>
<rect width="0.675684" height="519.383" rx="0.337842" transform="matrix(0.983224 0.182402 -0.184463 0.982839 414.055 -42.083)" fill="black"/>
<rect width="0.675684" height="519.383" rx="0.337842" transform="matrix(0.983224 0.182402 -0.184463 0.982839 395.078 -45.6045)" fill="black"/>
<rect width="0.675684" height="519.383" rx="0.337842" transform="matrix(0.983224 0.182402 -0.184463 0.982839 417.852 -41.3787)" fill="black"/>
<rect width="0.675684" height="519.383" rx="0.337842" transform="matrix(0.983224 0.182402 -0.184463 0.982839 398.875 -44.9001)" fill="black"/>
<rect width="0.675684" height="519.383" rx="0.337842" transform="matrix(0.983224 0.182402 -0.184463 0.982839 421.656 -40.6746)" fill="black"/>
<rect width="0.675684" height="519.383" rx="0.337842" transform="matrix(0.983224 0.182402 -0.184463 0.982839 402.672 -44.1956)" fill="black"/>
<rect width="0.675684" height="519.383" rx="0.337842" transform="matrix(0.983224 0.182402 -0.184463 0.982839 425.445 -39.9702)" fill="black"/>
<rect width="0.675684" height="519.383" rx="0.337842" transform="matrix(0.983224 0.182402 -0.184463 0.982839 406.469 -43.4915)" fill="black"/>
<rect width="0.675684" height="519.383" rx="0.337842" transform="matrix(0.983224 0.182402 -0.184463 0.982839 429.242 -39.2659)" fill="black"/>
<rect width="0.675684" height="519.383" rx="0.337842" transform="matrix(0.983224 0.182402 -0.184463 0.982839 410.266 -42.7874)" fill="black"/>
<rect width="0.675684" height="519.383" rx="0.337842" transform="matrix(0.983224 0.182402 -0.184463 0.982839 433.039 -38.5615)" fill="black"/>
<rect width="0.675684" height="519.383" rx="0.337842" transform="matrix(0.983224 0.182402 -0.184463 0.982839 436.836 -37.8574)" fill="black"/>
<rect width="0.675684" height="519.383" rx="0.337842" transform="matrix(0.983224 0.182402 -0.184463 0.982839 459.617 -33.6318)" fill="black"/>
<rect width="0.675684" height="519.383" rx="0.337842" transform="matrix(0.983224 0.182402 -0.184463 0.982839 440.633 -37.1533)" fill="black"/>
<rect width="0.675684" height="519.383" rx="0.337842" transform="matrix(0.983224 0.182402 -0.184463 0.982839 463.414 -32.9272)" fill="black"/>
<rect width="0.675684" height="519.383" rx="0.337842" transform="matrix(0.983224 0.182402 -0.184463 0.982839 444.43 -36.449)" fill="black"/>
<rect width="0.675684" height="519.383" rx="0.337842" transform="matrix(0.983224 0.182402 -0.184463 0.982839 467.203 -32.2231)" fill="black"/>
<rect width="0.675684" height="519.383" rx="0.337842" transform="matrix(0.983224 0.182402 -0.184463 0.982839 448.227 -35.7446)" fill="black"/>
<rect width="0.675684" height="519.383" rx="0.337842" transform="matrix(0.983224 0.182402 -0.184463 0.982839 471 -31.519)" fill="black"/>
<rect width="0.675684" height="519.383" rx="0.337842" transform="matrix(0.983224 0.182402 -0.184463 0.982839 452.023 -35.0403)" fill="black"/>
<rect width="0.675684" height="519.383" rx="0.337842" transform="matrix(0.983224 0.182402 -0.184463 0.982839 474.797 -30.8149)" fill="black"/>
<rect width="0.675684" height="519.383" rx="0.337842" transform="matrix(0.983224 0.182402 -0.184463 0.982839 455.812 -34.3359)" fill="black"/>
<rect width="0.675684" height="519.383" rx="0.337842" transform="matrix(0.983224 0.182402 -0.184463 0.982839 478.594 -30.1106)" fill="black"/>
<rect width="0.675684" height="519.383" rx="0.337842" transform="matrix(0.983224 0.182402 -0.184463 0.982839 482.391 -29.4062)" fill="black"/>
<rect width="0.675684" height="519.383" rx="0.337842" transform="matrix(0.983224 0.182402 -0.184463 0.982839 505.164 -25.1807)" fill="black"/>
<rect width="0.675684" height="519.383" rx="0.337842" transform="matrix(0.983224 0.182402 -0.184463 0.982839 486.188 -28.7019)" fill="black"/>
<rect width="0.675684" height="519.383" rx="0.337842" transform="matrix(0.983224 0.182402 -0.184463 0.982839 508.961 -24.4763)" fill="black"/>
<rect width="0.675684" height="519.383" rx="0.337842" transform="matrix(0.983224 0.182402 -0.184463 0.982839 489.984 -27.9976)" fill="black"/>
<rect width="0.675684" height="519.383" rx="0.337842" transform="matrix(0.983224 0.182402 -0.184463 0.982839 512.766 -23.772)" fill="black"/>
<rect width="0.675684" height="519.383" rx="0.337842" transform="matrix(0.983224 0.182402 -0.184463 0.982839 493.781 -27.2935)" fill="black"/>
<rect width="0.675684" height="519.383" rx="0.337842" transform="matrix(0.983224 0.182402 -0.184463 0.982839 516.555 -23.0679)" fill="black"/>
<rect width="0.675684" height="519.383" rx="0.337842" transform="matrix(0.983224 0.182402 -0.184463 0.982839 497.578 -26.5891)" fill="black"/>
<rect width="0.675684" height="519.383" rx="0.337842" transform="matrix(0.983224 0.182402 -0.184463 0.982839 520.352 -22.3635)" fill="black"/>
<rect width="0.675684" height="519.383" rx="0.337842" transform="matrix(0.983224 0.182402 -0.184463 0.982839 501.375 -25.8848)" fill="black"/>
<rect width="0.675684" height="519.383" rx="0.337842" transform="matrix(0.983224 0.182402 -0.184463 0.982839 524.148 -21.6594)" fill="black"/>
<rect width="0.675684" height="519.383" rx="0.337842" transform="matrix(0.983224 0.182402 -0.184463 0.982839 527.945 -20.9551)" fill="black"/>
<rect width="0.675684" height="519.383" rx="0.337842" transform="matrix(0.983224 0.182402 -0.184463 0.982839 550.727 -16.7295)" fill="black"/>
<rect width="0.675684" height="519.383" rx="0.337842" transform="matrix(0.983224 0.182402 -0.184463 0.982839 531.742 -20.2507)" fill="black"/>
<rect width="0.675684" height="519.383" rx="0.337842" transform="matrix(0.983224 0.182402 -0.184463 0.982839 554.523 -16.0251)" fill="black"/>
<rect width="0.675684" height="519.383" rx="0.337842" transform="matrix(0.983224 0.182402 -0.184463 0.982839 535.539 -19.5466)" fill="black"/>
<rect width="0.675684" height="519.383" rx="0.337842" transform="matrix(0.983224 0.182402 -0.184463 0.982839 558.32 -15.3208)" fill="black"/>
<rect width="0.675684" height="519.383" rx="0.337842" transform="matrix(0.983224 0.182402 -0.184463 0.982839 539.336 -18.842)" fill="black"/>
<rect width="0.675684" height="519.383" rx="0.337842" transform="matrix(0.983224 0.182402 -0.184463 0.982839 562.109 -14.6169)" fill="black"/>
<rect width="0.675684" height="519.383" rx="0.337842" transform="matrix(0.983224 0.182402 -0.184463 0.982839 543.133 -18.1379)" fill="black"/>
<rect width="0.675684" height="519.383" rx="0.337842" transform="matrix(0.983224 0.182402 -0.184463 0.982839 565.906 -13.9126)" fill="black"/>
<rect width="0.675684" height="519.383" rx="0.337842" transform="matrix(0.983224 0.182402 -0.184463 0.982839 546.93 -17.4338)" fill="black"/>
<rect width="0.675684" height="519.383" rx="0.337842" transform="matrix(0.983224 0.182402 -0.184463 0.982839 569.703 -13.208)" fill="black"/>
<rect width="0.675684" height="519.383" rx="0.337842" transform="matrix(0.983224 0.182402 -0.184463 0.982839 573.5 -12.5037)" fill="black"/>
<rect width="0.675684" height="519.383" rx="0.337842" transform="matrix(0.983224 0.182402 -0.184463 0.982839 596.281 -8.27832)" fill="black"/>
<rect width="0.675684" height="519.383" rx="0.337842" transform="matrix(0.983224 0.182402 -0.184463 0.982839 577.297 -11.7996)" fill="black"/>
<rect width="0.675684" height="519.383" rx="0.337842" transform="matrix(0.983224 0.182402 -0.184463 0.982839 600.078 -7.57397)" fill="black"/>
<rect width="0.675684" height="519.383" rx="0.337842" transform="matrix(0.983224 0.182402 -0.184463 0.982839 581.094 -11.0952)" fill="black"/>
<rect width="0.675684" height="519.383" rx="0.337842" transform="matrix(0.983224 0.182402 -0.184463 0.982839 603.875 -6.86987)" fill="black"/>
<rect width="0.675684" height="519.383" rx="0.337842" transform="matrix(0.983224 0.182402 -0.184463 0.982839 584.891 -10.3911)" fill="black"/>
<rect width="0.675684" height="519.383" rx="0.337842" transform="matrix(0.983224 0.182402 -0.184463 0.982839 607.664 -6.16553)" fill="black"/>
<rect width="0.675684" height="519.383" rx="0.337842" transform="matrix(0.983224 0.182402 -0.184463 0.982839 588.688 -9.68677)" fill="black"/>
<rect width="0.675684" height="519.383" rx="0.337842" transform="matrix(0.983224 0.182402 -0.184463 0.982839 611.461 -5.46118)" fill="black"/>
<rect width="0.675684" height="519.383" rx="0.337842" transform="matrix(0.983224 0.182402 -0.184463 0.982839 592.484 -8.98242)" fill="black"/>
<rect width="0.675684" height="519.383" rx="0.337842" transform="matrix(0.983224 0.182402 -0.184463 0.982839 615.258 -4.75684)" fill="black"/>
<rect width="0.675684" height="519.383" rx="0.337842" transform="matrix(0.983224 0.182402 -0.184463 0.982839 641.812 -124.579)" fill="black"/>
<rect width="0.675684" height="519.383" rx="0.337842" transform="matrix(0.983224 0.182402 -0.184463 0.982839 664.586 -120.353)" fill="black"/>
<rect width="0.675684" height="519.383" rx="0.337842" transform="matrix(0.983224 0.182402 -0.184463 0.982839 645.609 -123.875)" fill="black"/>
<rect width="0.675684" height="519.383" rx="0.337842" transform="matrix(0.983224 0.182402 -0.184463 0.982839 668.383 -119.649)" fill="black"/>
<rect width="0.675684" height="519.383" rx="0.337842" transform="matrix(0.983224 0.182402 -0.184463 0.982839 649.406 -123.17)" fill="black"/>
<rect width="0.675684" height="519.383" rx="0.337842" transform="matrix(0.983224 0.182402 -0.184463 0.982839 672.188 -118.945)" fill="black"/>
<rect width="0.675684" height="519.383" rx="0.337842" transform="matrix(0.983224 0.182402 -0.184463 0.982839 653.203 -122.466)" fill="black"/>
<rect width="0.675684" height="519.383" rx="0.337842" transform="matrix(0.983224 0.182402 -0.184463 0.982839 675.977 -118.24)" fill="black"/>
<rect width="0.675684" height="519.383" rx="0.337842" transform="matrix(0.983224 0.182402 -0.184463 0.982839 657 -121.762)" fill="black"/>
<rect width="0.675684" height="519.383" rx="0.337842" transform="matrix(0.983224 0.182402 -0.184463 0.982839 679.773 -117.536)" fill="black"/>
<rect width="0.675684" height="519.383" rx="0.337842" transform="matrix(0.983224 0.182402 -0.184463 0.982839 660.797 -121.057)" fill="black"/>
<rect width="0.675684" height="519.383" rx="0.337842" transform="matrix(0.983224 0.182402 -0.184463 0.982839 683.57 -116.832)" fill="black"/>
<rect width="0.675684" height="519.383" rx="0.337842" transform="matrix(0.983224 0.182402 -0.184463 0.982839 687.367 -116.127)" fill="black"/>
<rect width="0.675684" height="519.383" rx="0.337842" transform="matrix(0.983224 0.182402 -0.184463 0.982839 710.148 -111.902)" fill="black"/>
<rect width="0.675684" height="519.383" rx="0.337842" transform="matrix(0.983224 0.182402 -0.184463 0.982839 691.164 -115.424)" fill="black"/>
<rect width="0.675684" height="519.383" rx="0.337842" transform="matrix(0.983224 0.182402 -0.184463 0.982839 713.945 -111.198)" fill="black"/>
<rect width="0.675684" height="519.383" rx="0.337842" transform="matrix(0.983224 0.182402 -0.184463 0.982839 694.961 -114.719)" fill="black"/>
<rect width="0.675684" height="519.383" rx="0.337842" transform="matrix(0.983224 0.182402 -0.184463 0.982839 717.742 -110.493)" fill="black"/>
<rect width="0.675684" height="519.383" rx="0.337842" transform="matrix(0.983224 0.182402 -0.184463 0.982839 698.758 -114.015)" fill="black"/>
<rect width="0.675684" height="519.383" rx="0.337842" transform="matrix(0.983224 0.182402 -0.184463 0.982839 721.531 -109.789)" fill="black"/>
<rect width="0.675684" height="519.383" rx="0.337842" transform="matrix(0.983224 0.182402 -0.184463 0.982839 702.555 -113.311)" fill="black"/>
<rect width="0.675684" height="519.383" rx="0.337842" transform="matrix(0.983224 0.182402 -0.184463 0.982839 725.336 -109.085)" fill="black"/>
<rect width="0.675684" height="519.383" rx="0.337842" transform="matrix(0.983224 0.182402 -0.184463 0.982839 706.352 -112.606)" fill="black"/>
<rect width="0.675684" height="519.383" rx="0.337842" transform="matrix(0.983224 0.182402 -0.184463 0.982839 729.125 -108.381)" fill="black"/>
<rect width="0.675684" height="519.383" rx="0.337842" transform="matrix(0.983224 0.182402 -0.184463 0.982839 732.922 -107.676)" fill="black"/>
<rect width="0.675684" height="519.383" rx="0.337842" transform="matrix(0.983224 0.182402 -0.184463 0.982839 755.695 -103.451)" fill="black"/>
<rect width="0.675684" height="519.383" rx="0.337842" transform="matrix(0.983224 0.182402 -0.184463 0.982839 736.719 -106.972)" fill="black"/>
<rect width="0.675684" height="519.383" rx="0.337842" transform="matrix(0.983224 0.182402 -0.184463 0.982839 759.5 -102.747)" fill="black"/>
<rect width="0.675684" height="519.383" rx="0.337842" transform="matrix(0.983224 0.182402 -0.184463 0.982839 740.516 -106.268)" fill="black"/>
<rect width="0.675684" height="519.383" rx="0.337842" transform="matrix(0.983224 0.182402 -0.184463 0.982839 763.297 -102.042)" fill="black"/>
<rect width="0.675684" height="519.383" rx="0.337842" transform="matrix(0.983224 0.182402 -0.184463 0.982839 744.312 -105.563)" fill="black"/>
<rect width="0.675684" height="519.383" rx="0.337842" transform="matrix(0.983224 0.182402 -0.184463 0.982839 767.086 -101.338)" fill="black"/>
<rect width="0.675684" height="519.383" rx="0.337842" transform="matrix(0.983224 0.182402 -0.184463 0.982839 748.109 -104.859)" fill="black"/>
<rect width="0.675684" height="519.383" rx="0.337842" transform="matrix(0.983224 0.182402 -0.184463 0.982839 770.883 -100.634)" fill="black"/>
<rect width="0.675684" height="519.383" rx="0.337842" transform="matrix(0.983224 0.182402 -0.184463 0.982839 751.906 -104.155)" fill="black"/>
<rect width="0.675684" height="519.383" rx="0.337842" transform="matrix(0.983224 0.182402 -0.184463 0.982839 774.68 -99.9297)" fill="black"/>
<rect width="0.675684" height="519.383" rx="0.337842" transform="matrix(0.983224 0.182402 -0.184463 0.982839 778.477 -99.2251)" fill="black"/>
<rect width="0.675684" height="519.383" rx="0.337842" transform="matrix(0.983224 0.182402 -0.184463 0.982839 801.258 -94.9998)" fill="black"/>
<rect width="0.675684" height="519.383" rx="0.337842" transform="matrix(0.983224 0.182402 -0.184463 0.982839 782.273 -98.521)" fill="black"/>
<rect width="0.675684" height="519.383" rx="0.337842" transform="matrix(0.983224 0.182402 -0.184463 0.982839 805.055 -94.2954)" fill="black"/>
<rect width="0.675684" height="519.383" rx="0.337842" transform="matrix(0.983224 0.182402 -0.184463 0.982839 786.07 -97.8167)" fill="black"/>
<rect width="0.675684" height="519.383" rx="0.337842" transform="matrix(0.983224 0.182402 -0.184463 0.982839 808.852 -93.5911)" fill="black"/>
<rect width="0.675684" height="519.383" rx="0.337842" transform="matrix(0.983224 0.182402 -0.184463 0.982839 789.867 -97.1121)" fill="black"/>
<rect width="0.675684" height="519.383" rx="0.337842" transform="matrix(0.983224 0.182402 -0.184463 0.982839 812.648 -92.8867)" fill="black"/>
<rect width="0.675684" height="519.383" rx="0.337842" transform="matrix(0.983224 0.182402 -0.184463 0.982839 793.664 -96.4082)" fill="black"/>
<rect width="0.675684" height="519.383" rx="0.337842" transform="matrix(0.983224 0.182402 -0.184463 0.982839 816.445 -92.1824)" fill="black"/>
<rect width="0.675684" height="519.383" rx="0.337842" transform="matrix(0.983224 0.182402 -0.184463 0.982839 797.461 -95.7039)" fill="black"/>
<rect width="0.675684" height="519.383" rx="0.337842" transform="matrix(0.983224 0.182402 -0.184463 0.982839 820.234 -91.4783)" fill="black"/>
<rect width="0.675684" height="519.383" rx="0.337842" transform="matrix(0.983224 0.182402 -0.184463 0.982839 824.031 -90.7739)" fill="black"/>
<rect width="0.675684" height="519.383" rx="0.337842" transform="matrix(0.983224 0.182402 -0.184463 0.982839 846.812 -86.5483)" fill="black"/>
<rect width="0.675684" height="519.383" rx="0.337842" transform="matrix(0.983224 0.182402 -0.184463 0.982839 827.828 -90.0698)" fill="black"/>
<rect width="0.675684" height="519.383" rx="0.337842" transform="matrix(0.983224 0.182402 -0.184463 0.982839 850.609 -85.8442)" fill="black"/>
<rect width="0.675684" height="519.383" rx="0.337842" transform="matrix(0.983224 0.182402 -0.184463 0.982839 831.625 -89.3655)" fill="black"/>
<rect width="0.675684" height="519.383" rx="0.337842" transform="matrix(0.983224 0.182402 -0.184463 0.982839 854.406 -85.1401)" fill="black"/>
<rect width="0.675684" height="519.383" rx="0.337842" transform="matrix(0.983224 0.182402 -0.184463 0.982839 835.422 -88.6614)" fill="black"/>
<rect width="0.675684" height="519.383" rx="0.337842" transform="matrix(0.983224 0.182402 -0.184463 0.982839 858.195 -84.4355)" fill="black"/>
<rect width="0.675684" height="519.383" rx="0.337842" transform="matrix(0.983224 0.182402 -0.184463 0.982839 839.219 -87.957)" fill="black"/>
<rect width="0.675684" height="519.383" rx="0.337842" transform="matrix(0.983224 0.182402 -0.184463 0.982839 862 -83.7314)" fill="black"/>
<rect width="0.675684" height="519.383" rx="0.337842" transform="matrix(0.983224 0.182402 -0.184463 0.982839 843.016 -87.2527)" fill="black"/>
<rect width="0.675684" height="519.383" rx="0.337842" transform="matrix(0.983224 0.182402 -0.184463 0.982839 865.789 -83.0273)" fill="black"/>
<rect width="0.675684" height="519.383" rx="0.337842" transform="matrix(0.983224 0.182402 -0.184463 0.982839 869.586 -82.3228)" fill="black"/>
<rect width="0.675684" height="519.383" rx="0.337842" transform="matrix(0.983224 0.182402 -0.184463 0.982839 892.367 -78.0972)" fill="black"/>
<rect width="0.675684" height="519.383" rx="0.337842" transform="matrix(0.983224 0.182402 -0.184463 0.982839 873.383 -81.6187)" fill="black"/>
<rect width="0.675684" height="519.383" rx="0.337842" transform="matrix(0.983224 0.182402 -0.184463 0.982839 896.164 -77.3931)" fill="black"/>
<rect width="0.675684" height="519.383" rx="0.337842" transform="matrix(0.983224 0.182402 -0.184463 0.982839 877.18 -80.9143)" fill="black"/>
<rect width="0.675684" height="519.383" rx="0.337842" transform="matrix(0.983224 0.182402 -0.184463 0.982839 899.961 -76.689)" fill="black"/>
<rect width="0.675684" height="519.383" rx="0.337842" transform="matrix(0.983224 0.182402 -0.184463 0.982839 880.977 -80.2102)" fill="black"/>
<rect width="0.675684" height="519.383" rx="0.337842" transform="matrix(0.983224 0.182402 -0.184463 0.982839 903.758 -75.9846)" fill="black"/>
<rect width="0.675684" height="519.383" rx="0.337842" transform="matrix(0.983224 0.182402 -0.184463 0.982839 884.773 -79.5059)" fill="black"/>
<rect width="0.675684" height="519.383" rx="0.337842" transform="matrix(0.983224 0.182402 -0.184463 0.982839 907.555 -75.2803)" fill="black"/>
<rect width="0.675684" height="519.383" rx="0.337842" transform="matrix(0.983224 0.182402 -0.184463 0.982839 888.57 -78.8015)" fill="black"/>
<rect width="0.675684" height="519.383" rx="0.337842" transform="matrix(0.983224 0.182402 -0.184463 0.982839 911.344 -74.5759)" fill="black"/>
<rect width="0.675684" height="519.383" rx="0.337842" transform="matrix(0.983224 0.182402 -0.184463 0.982839 915.148 -73.8716)" fill="black"/>
<rect width="0.675684" height="519.383" rx="0.337842" transform="matrix(0.983224 0.182402 -0.184463 0.982839 937.922 -69.6462)" fill="black"/>
<rect width="0.675684" height="519.383" rx="0.337842" transform="matrix(0.983224 0.182402 -0.184463 0.982839 918.938 -73.1675)" fill="black"/>
<rect width="0.675684" height="519.383" rx="0.337842" transform="matrix(0.983224 0.182402 -0.184463 0.982839 941.719 -68.9419)" fill="black"/>
<rect width="0.675684" height="519.383" rx="0.337842" transform="matrix(0.983224 0.182402 -0.184463 0.982839 922.734 -72.4631)" fill="black"/>
<rect width="0.675684" height="519.383" rx="0.337842" transform="matrix(0.983224 0.182402 -0.184463 0.982839 945.516 -68.2375)" fill="black"/>
<rect width="0.675684" height="519.383" rx="0.337842" transform="matrix(0.983224 0.182402 -0.184463 0.982839 926.531 -71.7588)" fill="black"/>
<rect width="0.675684" height="519.383" rx="0.337842" transform="matrix(0.983224 0.182402 -0.184463 0.982839 949.312 -67.5334)" fill="black"/>
<rect width="0.675684" height="519.383" rx="0.337842" transform="matrix(0.983224 0.182402 -0.184463 0.982839 930.328 -71.0544)" fill="black"/>
<rect width="0.675684" height="519.383" rx="0.337842" transform="matrix(0.983224 0.182402 -0.184463 0.982839 953.109 -66.8289)" fill="black"/>
<rect width="0.675684" height="519.383" rx="0.337842" transform="matrix(0.983224 0.182402 -0.184463 0.982839 934.125 -70.3506)" fill="black"/>
<rect width="0.675684" height="519.383" rx="0.337842" transform="matrix(0.983224 0.182402 -0.184463 0.982839 956.906 -66.1245)" fill="black"/>
<rect width="0.675684" height="519.383" rx="0.337842" transform="matrix(0.983224 0.182402 -0.184463 0.982839 960.703 -65.4204)" fill="black"/>
<rect width="0.675684" height="519.383" rx="0.337842" transform="matrix(0.983224 0.182402 -0.184463 0.982839 964.492 -64.7163)" fill="black"/>
<rect width="0.675684" height="519.383" rx="0.337842" transform="matrix(0.983224 0.182402 -0.184463 0.982839 968.297 -64.012)" fill="black"/>
<rect width="0.675684" height="519.383" rx="0.337842" transform="matrix(0.983224 0.182402 -0.184463 0.982839 972.086 -63.3079)" fill="black"/>
<rect width="0.675684" height="519.383" rx="0.337842" transform="matrix(0.983224 0.182402 -0.184463 0.982839 481.586 373.163)" fill="black"/>
<rect width="0.675684" height="519.383" rx="0.337842" transform="matrix(0.983224 0.182402 -0.184463 0.982839 504.359 377.388)" fill="black"/>
<rect width="0.675684" height="519.383" rx="0.337842" transform="matrix(0.983224 0.182402 -0.184463 0.982839 485.383 373.867)" fill="black"/>
<rect width="0.675684" height="519.383" rx="0.337842" transform="matrix(0.983224 0.182402 -0.184463 0.982839 508.156 378.093)" fill="black"/>
<rect width="0.675684" height="519.383" rx="0.337842" transform="matrix(0.983224 0.182402 -0.184463 0.982839 489.18 374.572)" fill="black"/>
<rect width="0.675684" height="519.383" rx="0.337842" transform="matrix(0.983224 0.182402 -0.184463 0.982839 511.953 378.797)" fill="black"/>
<rect width="0.675684" height="519.383" rx="0.337842" transform="matrix(0.983224 0.182402 -0.184463 0.982839 492.977 375.276)" fill="black"/>
<rect width="0.675684" height="519.383" rx="0.337842" transform="matrix(0.983224 0.182402 -0.184463 0.982839 515.75 379.501)" fill="black"/>
<rect width="0.675684" height="519.383" rx="0.337842" transform="matrix(0.983224 0.182402 -0.184463 0.982839 496.773 375.98)" fill="black"/>
<rect width="0.675684" height="519.383" rx="0.337842" transform="matrix(0.983224 0.182402 -0.184463 0.982839 519.547 380.206)" fill="black"/>
<rect width="0.675684" height="519.383" rx="0.337842" transform="matrix(0.983224 0.182402 -0.184463 0.982839 500.562 376.684)" fill="black"/>
<rect width="0.675684" height="519.383" rx="0.337842" transform="matrix(0.983224 0.182402 -0.184463 0.982839 523.344 380.91)" fill="black"/>
<rect width="0.675684" height="519.383" rx="0.337842" transform="matrix(0.983224 0.182402 -0.184463 0.982839 527.141 381.614)" fill="black"/>
<rect width="0.675684" height="519.383" rx="0.337842" transform="matrix(0.983224 0.182402 -0.184463 0.982839 549.922 385.84)" fill="black"/>
<rect width="0.675684" height="519.383" rx="0.337842" transform="matrix(0.983224 0.182402 -0.184463 0.982839 530.938 382.318)" fill="black"/>
<rect width="0.675684" height="519.383" rx="0.337842" transform="matrix(0.983224 0.182402 -0.184463 0.982839 553.719 386.544)" fill="black"/>
<rect width="0.675684" height="519.383" rx="0.337842" transform="matrix(0.983224 0.182402 -0.184463 0.982839 534.734 383.022)" fill="black"/>
<rect width="0.675684" height="519.383" rx="0.337842" transform="matrix(0.983224 0.182402 -0.184463 0.982839 557.508 387.248)" fill="black"/>
<rect width="0.675684" height="519.383" rx="0.337842" transform="matrix(0.983224 0.182402 -0.184463 0.982839 538.531 383.727)" fill="black"/>
<rect width="0.675684" height="519.383" rx="0.337842" transform="matrix(0.983224 0.182402 -0.184463 0.982839 561.305 387.953)" fill="black"/>
<rect width="0.675684" height="519.383" rx="0.337842" transform="matrix(0.983224 0.182402 -0.184463 0.982839 542.328 384.431)" fill="black"/>
<rect width="0.675684" height="519.383" rx="0.337842" transform="matrix(0.983224 0.182402 -0.184463 0.982839 565.102 388.657)" fill="black"/>
<rect width="0.675684" height="519.383" rx="0.337842" transform="matrix(0.983224 0.182402 -0.184463 0.982839 546.125 385.135)" fill="black"/>
<rect width="0.675684" height="519.383" rx="0.337842" transform="matrix(0.983224 0.182402 -0.184463 0.982839 568.898 389.361)" fill="black"/>
<rect width="0.675684" height="519.383" rx="0.337842" transform="matrix(0.983224 0.182402 -0.184463 0.982839 572.695 390.065)" fill="black"/>
<rect width="0.675684" height="519.383" rx="0.337842" transform="matrix(0.983224 0.182402 -0.184463 0.982839 595.469 394.291)" fill="black"/>
<rect width="0.675684" height="519.383" rx="0.337842" transform="matrix(0.983224 0.182402 -0.184463 0.982839 576.492 390.769)" fill="black"/>
<rect width="0.675684" height="519.383" rx="0.337842" transform="matrix(0.983224 0.182402 -0.184463 0.982839 599.273 394.995)" fill="black"/>
<rect width="0.675684" height="519.383" rx="0.337842" transform="matrix(0.983224 0.182402 -0.184463 0.982839 580.289 391.474)" fill="black"/>
<rect width="0.675684" height="519.383" rx="0.337842" transform="matrix(0.983224 0.182402 -0.184463 0.982839 603.062 395.699)" fill="black"/>
<rect width="0.675684" height="519.383" rx="0.337842" transform="matrix(0.983224 0.182402 -0.184463 0.982839 584.086 392.178)" fill="black"/>
<rect width="0.675684" height="519.383" rx="0.337842" transform="matrix(0.983224 0.182402 -0.184463 0.982839 606.859 396.404)" fill="black"/>
<rect width="0.675684" height="519.383" rx="0.337842" transform="matrix(0.983224 0.182402 -0.184463 0.982839 587.883 392.882)" fill="black"/>
<rect width="0.675684" height="519.383" rx="0.337842" transform="matrix(0.983224 0.182402 -0.184463 0.982839 610.656 397.108)" fill="black"/>
<rect width="0.675684" height="519.383" rx="0.337842" transform="matrix(0.983224 0.182402 -0.184463 0.982839 591.68 393.587)" fill="black"/>
<rect width="0.675684" height="519.383" rx="0.337842" transform="matrix(0.983224 0.182402 -0.184463 0.982839 614.453 397.812)" fill="black"/>
<rect width="0.675684" height="519.383" rx="0.337842" transform="matrix(0.983224 0.182402 -0.184463 0.982839 618.25 398.516)" fill="black"/>
<rect width="0.675684" height="519.383" rx="0.337842" transform="matrix(0.983224 0.182402 -0.184463 0.982839 641.031 402.742)" fill="black"/>
<rect width="0.675684" height="519.383" rx="0.337842" transform="matrix(0.983224 0.182402 -0.184463 0.982839 622.047 399.221)" fill="black"/>
<rect width="0.675684" height="519.383" rx="0.337842" transform="matrix(0.983224 0.182402 -0.184463 0.982839 644.828 403.446)" fill="black"/>
<rect width="0.675684" height="519.383" rx="0.337842" transform="matrix(0.983224 0.182402 -0.184463 0.982839 625.844 399.925)" fill="black"/>
<rect width="0.675684" height="519.383" rx="0.337842" transform="matrix(0.983224 0.182402 -0.184463 0.982839 648.625 404.151)" fill="black"/>
<rect width="0.675684" height="519.383" rx="0.337842" transform="matrix(0.983224 0.182402 -0.184463 0.982839 629.641 400.629)" fill="black"/>
<rect width="0.675684" height="519.383" rx="0.337842" transform="matrix(0.983224 0.182402 -0.184463 0.982839 652.422 404.854)" fill="black"/>
<rect width="0.675684" height="519.383" rx="0.337842" transform="matrix(0.983224 0.182402 -0.184463 0.982839 633.438 401.333)" fill="black"/>
<rect width="0.675684" height="519.383" rx="0.337842" transform="matrix(0.983224 0.182402 -0.184463 0.982839 656.219 405.559)" fill="black"/>
<rect width="0.675684" height="519.383" rx="0.337842" transform="matrix(0.983224 0.182402 -0.184463 0.982839 637.234 402.038)" fill="black"/>
<rect width="0.675684" height="519.383" rx="0.337842" transform="matrix(0.983224 0.182402 -0.184463 0.982839 660.008 406.263)" fill="black"/>
<rect width="0.675684" height="519.383" rx="0.337842" transform="matrix(0.983224 0.182402 -0.184463 0.982839 663.805 406.968)" fill="black"/>
<rect width="0.675684" height="519.383" rx="0.337842" transform="matrix(0.983224 0.182402 -0.184463 0.982839 686.586 411.193)" fill="black"/>
<rect width="0.675684" height="519.383" rx="0.337842" transform="matrix(0.983224 0.182402 -0.184463 0.982839 667.602 407.672)" fill="black"/>
<rect width="0.675684" height="519.383" rx="0.337842" transform="matrix(0.983224 0.182402 -0.184463 0.982839 690.383 411.897)" fill="black"/>
<rect width="0.675684" height="519.383" rx="0.337842" transform="matrix(0.983224 0.182402 -0.184463 0.982839 671.398 408.376)" fill="black"/>
<rect width="0.675684" height="519.383" rx="0.337842" transform="matrix(0.983224 0.182402 -0.184463 0.982839 694.18 412.602)" fill="black"/>
<rect width="0.675684" height="519.383" rx="0.337842" transform="matrix(0.983224 0.182402 -0.184463 0.982839 675.195 409.081)" fill="black"/>
<rect width="0.675684" height="519.383" rx="0.337842" transform="matrix(0.983224 0.182402 -0.184463 0.982839 697.969 413.306)" fill="black"/>
<rect width="0.675684" height="519.383" rx="0.337842" transform="matrix(0.983224 0.182402 -0.184463 0.982839 678.992 409.785)" fill="black"/>
<rect width="0.675684" height="519.383" rx="0.337842" transform="matrix(0.983224 0.182402 -0.184463 0.982839 701.766 414.01)" fill="black"/>
<rect width="0.675684" height="519.383" rx="0.337842" transform="matrix(0.983224 0.182402 -0.184463 0.982839 682.789 410.489)" fill="black"/>
<rect width="0.675684" height="519.383" rx="0.337842" transform="matrix(0.983224 0.182402 -0.184463 0.982839 705.562 414.714)" fill="black"/>
<rect width="0.675684" height="519.383" rx="0.337842" transform="matrix(0.983224 0.182402 -0.184463 0.982839 709.359 415.418)" fill="black"/>
<rect width="0.675684" height="519.383" rx="0.337842" transform="matrix(0.983224 0.182402 -0.184463 0.982839 732.141 419.644)" fill="black"/>
<rect width="0.675684" height="519.383" rx="0.337842" transform="matrix(0.983224 0.182402 -0.184463 0.982839 713.156 416.123)" fill="black"/>
<rect width="0.675684" height="519.383" rx="0.337842" transform="matrix(0.983224 0.182402 -0.184463 0.982839 735.938 420.349)" fill="black"/>
<rect width="0.675684" height="519.383" rx="0.337842" transform="matrix(0.983224 0.182402 -0.184463 0.982839 716.953 416.827)" fill="black"/>
<rect width="0.675684" height="519.383" rx="0.337842" transform="matrix(0.983224 0.182402 -0.184463 0.982839 739.734 421.053)" fill="black"/>
<rect width="0.675684" height="519.383" rx="0.337842" transform="matrix(0.983224 0.182402 -0.184463 0.982839 720.75 417.531)" fill="black"/>
<rect width="0.675684" height="519.383" rx="0.337842" transform="matrix(0.983224 0.182402 -0.184463 0.982839 743.531 421.757)" fill="black"/>
<rect width="0.675684" height="519.383" rx="0.337842" transform="matrix(0.983224 0.182402 -0.184463 0.982839 724.547 418.236)" fill="black"/>
<rect width="0.675684" height="519.383" rx="0.337842" transform="matrix(0.983224 0.182402 -0.184463 0.982839 747.328 422.462)" fill="black"/>
<rect width="0.675684" height="519.383" rx="0.337842" transform="matrix(0.983224 0.182402 -0.184463 0.982839 728.344 418.94)" fill="black"/>
<rect width="0.675684" height="519.383" rx="0.337842" transform="matrix(0.983224 0.182402 -0.184463 0.982839 751.117 423.166)" fill="black"/>
<rect width="0.675684" height="519.383" rx="0.337842" transform="matrix(0.983224 0.182402 -0.184463 0.982839 754.914 423.87)" fill="black"/>
<rect width="0.675684" height="519.383" rx="0.337842" transform="matrix(0.983224 0.182402 -0.184463 0.982839 777.695 428.095)" fill="black"/>
<rect width="0.675684" height="519.383" rx="0.337842" transform="matrix(0.983224 0.182402 -0.184463 0.982839 758.711 424.574)" fill="black"/>
<rect width="0.675684" height="519.383" rx="0.337842" transform="matrix(0.983224 0.182402 -0.184463 0.982839 781.492 428.8)" fill="black"/>
<rect width="0.675684" height="519.383" rx="0.337842" transform="matrix(0.983224 0.182402 -0.184463 0.982839 762.508 425.279)" fill="black"/>
<rect width="0.675684" height="519.383" rx="0.337842" transform="matrix(0.983224 0.182402 -0.184463 0.982839 785.289 429.504)" fill="black"/>
<rect width="0.675684" height="519.383" rx="0.337842" transform="matrix(0.983224 0.182402 -0.184463 0.982839 766.305 425.983)" fill="black"/>
<rect width="0.675684" height="519.383" rx="0.337842" transform="matrix(0.983224 0.182402 -0.184463 0.982839 789.086 430.208)" fill="black"/>
<rect width="0.675684" height="519.383" rx="0.337842" transform="matrix(0.983224 0.182402 -0.184463 0.982839 770.102 426.687)" fill="black"/>
<rect width="0.675684" height="519.383" rx="0.337842" transform="matrix(0.983224 0.182402 -0.184463 0.982839 792.883 430.913)" fill="black"/>
<rect width="0.675684" height="519.383" rx="0.337842" transform="matrix(0.983224 0.182402 -0.184463 0.982839 773.898 427.391)" fill="black"/>
<rect width="0.675684" height="519.383" rx="0.337842" transform="matrix(0.983224 0.182402 -0.184463 0.982839 796.68 431.617)" fill="black"/>
<rect width="0.675684" height="519.383" rx="0.337842" transform="matrix(0.983224 0.182402 -0.184463 0.982839 800.469 432.321)" fill="black"/>
<rect width="0.675684" height="519.383" rx="0.337842" transform="matrix(0.983224 0.182402 -0.184463 0.982839 823.25 436.547)" fill="black"/>
<rect width="0.675684" height="519.383" rx="0.337842" transform="matrix(0.983224 0.182402 -0.184463 0.982839 804.266 433.025)" fill="black"/>
<rect width="0.675684" height="519.383" rx="0.337842" transform="matrix(0.983224 0.182402 -0.184463 0.982839 827.047 437.251)" fill="black"/>
<rect width="0.675684" height="519.383" rx="0.337842" transform="matrix(0.983224 0.182402 -0.184463 0.982839 808.062 433.729)" fill="black"/>
<rect width="0.675684" height="519.383" rx="0.337842" transform="matrix(0.983224 0.182402 -0.184463 0.982839 830.844 437.955)" fill="black"/>
<rect width="0.675684" height="519.383" rx="0.337842" transform="matrix(0.983224 0.182402 -0.184463 0.982839 811.859 434.434)" fill="black"/>
<rect width="0.675684" height="519.383" rx="0.337842" transform="matrix(0.983224 0.182402 -0.184463 0.982839 834.641 438.66)" fill="black"/>
<rect width="0.675684" height="519.383" rx="0.337842" transform="matrix(0.983224 0.182402 -0.184463 0.982839 815.656 435.138)" fill="black"/>
<rect width="0.675684" height="519.383" rx="0.337842" transform="matrix(0.983224 0.182402 -0.184463 0.982839 838.438 439.364)" fill="black"/>
<rect width="0.675684" height="519.383" rx="0.337842" transform="matrix(0.983224 0.182402 -0.184463 0.982839 819.453 435.843)" fill="black"/>
<rect width="0.675684" height="519.383" rx="0.337842" transform="matrix(0.983224 0.182402 -0.184463 0.982839 842.234 440.068)" fill="black"/>
<rect width="0.675684" height="519.383" rx="0.337842" transform="matrix(0.983224 0.182402 -0.184463 0.982839 845.531 440.681)" fill="black"/>
<rect width="0.675684" height="519.383" rx="0.337842" transform="matrix(0.983224 0.182402 -0.184463 0.982839 868.312 444.906)" fill="black"/>
<rect width="0.675684" height="519.383" rx="0.337842" transform="matrix(0.983224 0.182402 -0.184463 0.982839 849.328 441.385)" fill="black"/>
<rect width="0.675684" height="519.383" rx="0.337842" transform="matrix(0.983224 0.182402 -0.184463 0.982839 872.109 445.611)" fill="black"/>
<rect width="0.675684" height="519.383" rx="0.337842" transform="matrix(0.983224 0.182402 -0.184463 0.982839 853.125 442.089)" fill="black"/>
<rect width="0.675684" height="519.383" rx="0.337842" transform="matrix(0.983224 0.182402 -0.184463 0.982839 875.906 446.315)" fill="black"/>
<rect width="0.675684" height="519.383" rx="0.337842" transform="matrix(0.983224 0.182402 -0.184463 0.982839 856.922 442.794)" fill="black"/>
<rect width="0.675684" height="519.383" rx="0.337842" transform="matrix(0.983224 0.182402 -0.184463 0.982839 879.703 447.02)" fill="black"/>
<rect width="0.675684" height="519.383" rx="0.337842" transform="matrix(0.983224 0.182402 -0.184463 0.982839 860.719 443.498)" fill="black"/>
<rect width="0.675684" height="519.383" rx="0.337842" transform="matrix(0.983224 0.182402 -0.184463 0.982839 883.5 447.724)" fill="black"/>
<rect width="0.675684" height="519.383" rx="0.337842" transform="matrix(0.983224 0.182402 -0.184463 0.982839 864.516 444.202)" fill="black"/>
<rect width="0.675684" height="519.383" rx="0.337842" transform="matrix(0.983224 0.182402 -0.184463 0.982839 887.297 448.428)" fill="black"/>
<rect width="0.675684" height="519.383" rx="0.337842" transform="matrix(0.983224 0.182402 -0.184463 0.982839 891.094 449.132)" fill="black"/>
<rect width="0.675684" height="519.383" rx="0.337842" transform="matrix(0.983224 0.182402 -0.184463 0.982839 913.867 453.358)" fill="black"/>
<rect width="0.675684" height="519.383" rx="0.337842" transform="matrix(0.983224 0.182402 -0.184463 0.982839 894.891 449.836)" fill="black"/>
<rect width="0.675684" height="519.383" rx="0.337842" transform="matrix(0.983224 0.182402 -0.184463 0.982839 917.664 454.062)" fill="black"/>
<rect width="0.675684" height="519.383" rx="0.337842" transform="matrix(0.983224 0.182402 -0.184463 0.982839 898.68 450.541)" fill="black"/>
<rect width="0.675684" height="519.383" rx="0.337842" transform="matrix(0.983224 0.182402 -0.184463 0.982839 921.461 454.766)" fill="black"/>
<rect width="0.675684" height="519.383" rx="0.337842" transform="matrix(0.983224 0.182402 -0.184463 0.982839 902.477 451.245)" fill="black"/>
<rect width="0.675684" height="519.383" rx="0.337842" transform="matrix(0.983224 0.182402 -0.184463 0.982839 925.258 455.47)" fill="black"/>
<rect width="0.675684" height="519.383" rx="0.337842" transform="matrix(0.983224 0.182402 -0.184463 0.982839 906.273 451.949)" fill="black"/>
<rect width="0.675684" height="519.383" rx="0.337842" transform="matrix(0.983224 0.182402 -0.184463 0.982839 929.055 456.175)" fill="black"/>
<rect width="0.675684" height="519.383" rx="0.337842" transform="matrix(0.983224 0.182402 -0.184463 0.982839 910.07 452.653)" fill="black"/>
<rect width="0.675684" height="519.383" rx="0.337842" transform="matrix(0.983224 0.182402 -0.184463 0.982839 932.852 456.879)" fill="black"/>
<rect width="0.675684" height="519.383" rx="0.337842" transform="matrix(0.983224 0.182402 -0.184463 0.982839 936.648 457.583)" fill="black"/>
<rect width="0.675684" height="519.383" rx="0.337842" transform="matrix(0.983224 0.182402 -0.184463 0.982839 959.422 461.809)" fill="black"/>
<rect width="0.675684" height="519.383" rx="0.337842" transform="matrix(0.983224 0.182402 -0.184463 0.982839 940.438 458.288)" fill="black"/>
<rect width="0.675684" height="519.383" rx="0.337842" transform="matrix(0.983224 0.182402 -0.184463 0.982839 963.219 462.513)" fill="black"/>
<rect width="0.675684" height="519.383" rx="0.337842" transform="matrix(0.983224 0.182402 -0.184463 0.982839 944.242 458.991)" fill="black"/>
<rect width="0.675684" height="519.383" rx="0.337842" transform="matrix(0.983224 0.182402 -0.184463 0.982839 967.016 463.217)" fill="black"/>
<rect width="0.675684" height="519.383" rx="0.337842" transform="matrix(0.983224 0.182402 -0.184463 0.982839 948.031 459.696)" fill="black"/>
<rect width="0.675684" height="519.383" rx="0.337842" transform="matrix(0.983224 0.182402 -0.184463 0.982839 970.812 463.922)" fill="black"/>
<rect width="0.675684" height="519.383" rx="0.337842" transform="matrix(0.983224 0.182402 -0.184463 0.982839 951.828 460.4)" fill="black"/>
<rect width="0.675684" height="519.383" rx="0.337842" transform="matrix(0.983224 0.182402 -0.184463 0.982839 955.625 461.104)" fill="black"/>
<rect width="0.675684" height="519.383" rx="0.337842" transform="matrix(0.983224 0.182402 -0.184463 0.982839 -0.03125 408.564)" fill="black"/>
<rect width="0.675684" height="519.383" rx="0.337842" transform="matrix(0.983224 0.182402 -0.184463 0.982839 3.77344 409.268)" fill="black"/>
<rect width="0.675684" height="519.383" rx="0.337842" transform="matrix(0.983224 0.182402 -0.184463 0.982839 26.5469 413.494)" fill="black"/>
<rect width="0.675684" height="519.383" rx="0.337842" transform="matrix(0.983224 0.182402 -0.184463 0.982839 7.5625 409.972)" fill="black"/>
<rect width="0.675684" height="519.383" rx="0.337842" transform="matrix(0.983224 0.182402 -0.184463 0.982839 30.3438 414.198)" fill="black"/>
<rect width="0.675684" height="519.383" rx="0.337842" transform="matrix(0.983224 0.182402 -0.184463 0.982839 11.3594 410.677)" fill="black"/>
<rect width="0.675684" height="519.383" rx="0.337842" transform="matrix(0.983224 0.182402 -0.184463 0.982839 34.1406 414.903)" fill="black"/>
<rect width="0.675684" height="519.383" rx="0.337842" transform="matrix(0.983224 0.182402 -0.184463 0.982839 15.1562 411.381)" fill="black"/>
<rect width="0.675684" height="519.383" rx="0.337842" transform="matrix(0.983224 0.182402 -0.184463 0.982839 37.9375 415.607)" fill="black"/>
<rect width="0.675684" height="519.383" rx="0.337842" transform="matrix(0.983224 0.182402 -0.184463 0.982839 18.9531 412.086)" fill="black"/>
<rect width="0.675684" height="519.383" rx="0.337842" transform="matrix(0.983224 0.182402 -0.184463 0.982839 41.7344 416.311)" fill="black"/>
<rect width="0.675684" height="519.383" rx="0.337842" transform="matrix(0.983224 0.182402 -0.184463 0.982839 22.75 412.79)" fill="black"/>
<rect width="0.675684" height="519.383" rx="0.337842" transform="matrix(0.983224 0.182402 -0.184463 0.982839 45.5312 417.015)" fill="black"/>
<rect width="0.675684" height="519.383" rx="0.337842" transform="matrix(0.983224 0.182402 -0.184463 0.982839 49.3203 417.72)" fill="black"/>
<rect width="0.675684" height="519.383" rx="0.337842" transform="matrix(0.983224 0.182402 -0.184463 0.982839 72.1016 421.945)" fill="black"/>
<rect width="0.675684" height="519.383" rx="0.337842" transform="matrix(0.983224 0.182402 -0.184463 0.982839 53.1172 418.424)" fill="black"/>
<rect width="0.675684" height="519.383" rx="0.337842" transform="matrix(0.983224 0.182402 -0.184463 0.982839 75.8984 422.649)" fill="black"/>
<rect width="0.675684" height="519.383" rx="0.337842" transform="matrix(0.983224 0.182402 -0.184463 0.982839 56.9219 419.128)" fill="black"/>
<rect width="0.675684" height="519.383" rx="0.337842" transform="matrix(0.983224 0.182402 -0.184463 0.982839 79.6953 423.354)" fill="black"/>
<rect width="0.675684" height="519.383" rx="0.337842" transform="matrix(0.983224 0.182402 -0.184463 0.982839 60.7109 419.832)" fill="black"/>
<rect width="0.675684" height="519.383" rx="0.337842" transform="matrix(0.983224 0.182402 -0.184463 0.982839 83.4922 424.058)" fill="black"/>
<rect width="0.675684" height="519.383" rx="0.337842" transform="matrix(0.983224 0.182402 -0.184463 0.982839 64.5078 420.537)" fill="black"/>
<rect width="0.675684" height="519.383" rx="0.337842" transform="matrix(0.983224 0.182402 -0.184463 0.982839 87.2891 424.762)" fill="black"/>
<rect width="0.675684" height="519.383" rx="0.337842" transform="matrix(0.983224 0.182402 -0.184463 0.982839 68.3047 421.241)" fill="black"/>
<rect width="0.675684" height="519.383" rx="0.337842" transform="matrix(0.983224 0.182402 -0.184463 0.982839 91.0859 425.467)" fill="black"/>
<rect width="0.675684" height="519.383" rx="0.337842" transform="matrix(0.983224 0.182402 -0.184463 0.982839 94.3906 426.079)" fill="black"/>
<rect width="0.675684" height="519.383" rx="0.337842" transform="matrix(0.983224 0.182402 -0.184463 0.982839 117.164 430.305)" fill="black"/>
<rect width="0.675684" height="519.383" rx="0.337842" transform="matrix(0.983224 0.182402 -0.184463 0.982839 98.1875 426.783)" fill="black"/>
<rect width="0.675684" height="519.383" rx="0.337842" transform="matrix(0.983224 0.182402 -0.184463 0.982839 120.961 431.009)" fill="black"/>
<rect width="0.675684" height="519.383" rx="0.337842" transform="matrix(0.983224 0.182402 -0.184463 0.982839 101.977 427.488)" fill="black"/>
<rect width="0.675684" height="519.383" rx="0.337842" transform="matrix(0.983224 0.182402 -0.184463 0.982839 124.758 431.713)" fill="black"/>
<rect width="0.675684" height="519.383" rx="0.337842" transform="matrix(0.983224 0.182402 -0.184463 0.982839 105.773 428.192)" fill="black"/>
<rect width="0.675684" height="519.383" rx="0.337842" transform="matrix(0.983224 0.182402 -0.184463 0.982839 128.555 432.417)" fill="black"/>
<rect width="0.675684" height="519.383" rx="0.337842" transform="matrix(0.983224 0.182402 -0.184463 0.982839 109.57 428.896)" fill="black"/>
<rect width="0.675684" height="519.383" rx="0.337842" transform="matrix(0.983224 0.182402 -0.184463 0.982839 132.352 433.122)" fill="black"/>
<rect width="0.675684" height="519.383" rx="0.337842" transform="matrix(0.983224 0.182402 -0.184463 0.982839 113.367 429.601)" fill="black"/>
<rect width="0.675684" height="519.383" rx="0.337842" transform="matrix(0.983224 0.182402 -0.184463 0.982839 136.148 433.826)" fill="black"/>
<rect width="0.675684" height="519.383" rx="0.337842" transform="matrix(0.983224 0.182402 -0.184463 0.982839 139.945 434.53)" fill="black"/>
<rect width="0.675684" height="519.383" rx="0.337842" transform="matrix(0.983224 0.182402 -0.184463 0.982839 162.719 438.756)" fill="black"/>
<rect width="0.675684" height="519.383" rx="0.337842" transform="matrix(0.983224 0.182402 -0.184463 0.982839 143.742 435.235)" fill="black"/>
<rect width="0.675684" height="519.383" rx="0.337842" transform="matrix(0.983224 0.182402 -0.184463 0.982839 166.516 439.46)" fill="black"/>
<rect width="0.675684" height="519.383" rx="0.337842" transform="matrix(0.983224 0.182402 -0.184463 0.982839 147.531 435.939)" fill="black"/>
<rect width="0.675684" height="519.383" rx="0.337842" transform="matrix(0.983224 0.182402 -0.184463 0.982839 170.312 440.165)" fill="black"/>
<rect width="0.675684" height="519.383" rx="0.337842" transform="matrix(0.983224 0.182402 -0.184463 0.982839 151.328 436.643)" fill="black"/>
<rect width="0.675684" height="519.383" rx="0.337842" transform="matrix(0.983224 0.182402 -0.184463 0.982839 174.109 440.869)" fill="black"/>
<rect width="0.675684" height="519.383" rx="0.337842" transform="matrix(0.983224 0.182402 -0.184463 0.982839 155.125 437.348)" fill="black"/>
<rect width="0.675684" height="519.383" rx="0.337842" transform="matrix(0.983224 0.182402 -0.184463 0.982839 177.906 441.573)" fill="black"/>
<rect width="0.675684" height="519.383" rx="0.337842" transform="matrix(0.983224 0.182402 -0.184463 0.982839 158.922 438.052)" fill="black"/>
<rect width="0.675684" height="519.383" rx="0.337842" transform="matrix(0.983224 0.182402 -0.184463 0.982839 181.703 442.277)" fill="black"/>
<rect width="0.675684" height="519.383" rx="0.337842" transform="matrix(0.983224 0.182402 -0.184463 0.982839 185.5 442.982)" fill="black"/>
<rect width="0.675684" height="519.383" rx="0.337842" transform="matrix(0.983224 0.182402 -0.184463 0.982839 208.273 447.207)" fill="black"/>
<rect width="0.675684" height="519.383" rx="0.337842" transform="matrix(0.983224 0.182402 -0.184463 0.982839 189.289 443.686)" fill="black"/>
<rect width="0.675684" height="519.383" rx="0.337842" transform="matrix(0.983224 0.182402 -0.184463 0.982839 212.07 447.911)" fill="black"/>
<rect width="0.675684" height="519.383" rx="0.337842" transform="matrix(0.983224 0.182402 -0.184463 0.982839 193.094 444.39)" fill="black"/>
<rect width="0.675684" height="519.383" rx="0.337842" transform="matrix(0.983224 0.182402 -0.184463 0.982839 215.867 448.615)" fill="black"/>
<rect width="0.675684" height="519.383" rx="0.337842" transform="matrix(0.983224 0.182402 -0.184463 0.982839 196.891 445.094)" fill="black"/>
<rect width="0.675684" height="519.383" rx="0.337842" transform="matrix(0.983224 0.182402 -0.184463 0.982839 219.664 449.32)" fill="black"/>
<rect width="0.675684" height="519.383" rx="0.337842" transform="matrix(0.983224 0.182402 -0.184463 0.982839 200.68 445.798)" fill="black"/>
<rect width="0.675684" height="519.383" rx="0.337842" transform="matrix(0.983224 0.182402 -0.184463 0.982839 223.461 450.024)" fill="black"/>
<rect width="0.675684" height="519.383" rx="0.337842" transform="matrix(0.983224 0.182402 -0.184463 0.982839 204.477 446.503)" fill="black"/>
<rect width="0.675684" height="519.383" rx="0.337842" transform="matrix(0.983224 0.182402 -0.184463 0.982839 227.258 450.728)" fill="black"/>
<rect width="0.675684" height="519.383" rx="0.337842" transform="matrix(0.983224 0.182402 -0.184463 0.982839 231.055 451.433)" fill="black"/>
<rect width="0.675684" height="519.383" rx="0.337842" transform="matrix(0.983224 0.182402 -0.184463 0.982839 253.836 455.658)" fill="black"/>
<rect width="0.675684" height="519.383" rx="0.337842" transform="matrix(0.983224 0.182402 -0.184463 0.982839 234.852 452.137)" fill="black"/>
<rect width="0.675684" height="519.383" rx="0.337842" transform="matrix(0.983224 0.182402 -0.184463 0.982839 257.625 456.363)" fill="black"/>
<rect width="0.675684" height="519.383" rx="0.337842" transform="matrix(0.983224 0.182402 -0.184463 0.982839 238.648 452.841)" fill="black"/>
<rect width="0.675684" height="519.383" rx="0.337842" transform="matrix(0.983224 0.182402 -0.184463 0.982839 261.43 457.067)" fill="black"/>
<rect width="0.675684" height="519.383" rx="0.337842" transform="matrix(0.983224 0.182402 -0.184463 0.982839 242.438 453.546)" fill="black"/>
<rect width="0.675684" height="519.383" rx="0.337842" transform="matrix(0.983224 0.182402 -0.184463 0.982839 265.219 457.771)" fill="black"/>
<rect width="0.675684" height="519.383" rx="0.337842" transform="matrix(0.983224 0.182402 -0.184463 0.982839 246.234 454.25)" fill="black"/>
<rect width="0.675684" height="519.383" rx="0.337842" transform="matrix(0.983224 0.182402 -0.184463 0.982839 269.016 458.476)" fill="black"/>
<rect width="0.675684" height="519.383" rx="0.337842" transform="matrix(0.983224 0.182402 -0.184463 0.982839 250.031 454.954)" fill="black"/>
<rect width="0.675684" height="519.383" rx="0.337842" transform="matrix(0.983224 0.182402 -0.184463 0.982839 272.812 459.179)" fill="black"/>
<rect width="0.675684" height="519.383" rx="0.337842" transform="matrix(0.983224 0.182402 -0.184463 0.982839 276.609 459.884)" fill="black"/>
<rect width="0.675684" height="519.383" rx="0.337842" transform="matrix(0.983224 0.182402 -0.184463 0.982839 299.383 464.109)" fill="black"/>
<rect width="0.675684" height="519.383" rx="0.337842" transform="matrix(0.983224 0.182402 -0.184463 0.982839 280.406 460.588)" fill="black"/>
<rect width="0.675684" height="519.383" rx="0.337842" transform="matrix(0.983224 0.182402 -0.184463 0.982839 303.18 464.814)" fill="black"/>
<rect width="0.675684" height="519.383" rx="0.337842" transform="matrix(0.983224 0.182402 -0.184463 0.982839 284.203 461.292)" fill="black"/>
<rect width="0.675684" height="519.383" rx="0.337842" transform="matrix(0.983224 0.182402 -0.184463 0.982839 306.977 465.518)" fill="black"/>
<rect width="0.675684" height="519.383" rx="0.337842" transform="matrix(0.983224 0.182402 -0.184463 0.982839 288 461.997)" fill="black"/>
<rect width="0.675684" height="519.383" rx="0.337842" transform="matrix(0.983224 0.182402 -0.184463 0.982839 310.773 466.222)" fill="black"/>
<rect width="0.675684" height="519.383" rx="0.337842" transform="matrix(0.983224 0.182402 -0.184463 0.982839 291.797 462.701)" fill="black"/>
<rect width="0.675684" height="519.383" rx="0.337842" transform="matrix(0.983224 0.182402 -0.184463 0.982839 314.57 466.926)" fill="black"/>
<rect width="0.675684" height="519.383" rx="0.337842" transform="matrix(0.983224 0.182402 -0.184463 0.982839 295.586 463.405)" fill="black"/>
<rect width="0.675684" height="519.383" rx="0.337842" transform="matrix(0.983224 0.182402 -0.184463 0.982839 318.367 467.631)" fill="black"/>
<rect width="0.675684" height="519.383" rx="0.337842" transform="matrix(0.983224 0.182402 -0.184463 0.982839 322.164 468.335)" fill="black"/>
<rect width="0.675684" height="519.383" rx="0.337842" transform="matrix(0.983224 0.182402 -0.184463 0.982839 344.938 472.561)" fill="black"/>
<rect width="0.675684" height="519.383" rx="0.337842" transform="matrix(0.983224 0.182402 -0.184463 0.982839 325.961 469.039)" fill="black"/>
<rect width="0.675684" height="519.383" rx="0.337842" transform="matrix(0.983224 0.182402 -0.184463 0.982839 348.734 473.265)" fill="black"/>
<rect width="0.675684" height="519.383" rx="0.337842" transform="matrix(0.983224 0.182402 -0.184463 0.982839 329.758 469.744)" fill="black"/>
<rect width="0.675684" height="519.383" rx="0.337842" transform="matrix(0.983224 0.182402 -0.184463 0.982839 352.531 473.969)" fill="black"/>
<rect width="0.675684" height="519.383" rx="0.337842" transform="matrix(0.983224 0.182402 -0.184463 0.982839 333.555 470.448)" fill="black"/>
<rect width="0.675684" height="519.383" rx="0.337842" transform="matrix(0.983224 0.182402 -0.184463 0.982839 356.328 474.674)" fill="black"/>
<rect width="0.675684" height="519.383" rx="0.337842" transform="matrix(0.983224 0.182402 -0.184463 0.982839 337.352 471.152)" fill="black"/>
<rect width="0.675684" height="519.383" rx="0.337842" transform="matrix(0.983224 0.182402 -0.184463 0.982839 360.125 475.378)" fill="black"/>
<rect width="0.675684" height="519.383" rx="0.337842" transform="matrix(0.983224 0.182402 -0.184463 0.982839 341.148 471.856)" fill="black"/>
<rect width="0.675684" height="519.383" rx="0.337842" transform="matrix(0.983224 0.182402 -0.184463 0.982839 363.922 476.082)" fill="black"/>
<rect width="0.675684" height="519.383" rx="0.337842" transform="matrix(0.983224 0.182402 -0.184463 0.982839 367.719 476.786)" fill="black"/>
<rect width="0.675684" height="519.383" rx="0.337842" transform="matrix(0.983224 0.182402 -0.184463 0.982839 390.5 481.012)" fill="black"/>
<rect width="0.675684" height="519.383" rx="0.337842" transform="matrix(0.983224 0.182402 -0.184463 0.982839 371.516 477.49)" fill="black"/>
<rect width="0.675684" height="519.383" rx="0.337842" transform="matrix(0.983224 0.182402 -0.184463 0.982839 394.297 481.716)" fill="black"/>
<rect width="0.675684" height="519.383" rx="0.337842" transform="matrix(0.983224 0.182402 -0.184463 0.982839 375.312 478.195)" fill="black"/>
<rect width="0.675684" height="519.383" rx="0.337842" transform="matrix(0.983224 0.182402 -0.184463 0.982839 398.094 482.42)" fill="black"/>
<rect width="0.675684" height="519.383" rx="0.337842" transform="matrix(0.983224 0.182402 -0.184463 0.982839 379.109 478.899)" fill="black"/>
<rect width="0.675684" height="519.383" rx="0.337842" transform="matrix(0.983224 0.182402 -0.184463 0.982839 401.891 483.124)" fill="black"/>
<rect width="0.675684" height="519.383" rx="0.337842" transform="matrix(0.983224 0.182402 -0.184463 0.982839 382.906 479.603)" fill="black"/>
<rect width="0.675684" height="519.383" rx="0.337842" transform="matrix(0.983224 0.182402 -0.184463 0.982839 405.688 483.829)" fill="black"/>
<rect width="0.675684" height="519.383" rx="0.337842" transform="matrix(0.983224 0.182402 -0.184463 0.982839 386.703 480.307)" fill="black"/>
<rect width="0.675684" height="519.383" rx="0.337842" transform="matrix(0.983224 0.182402 -0.184463 0.982839 409.477 484.533)" fill="black"/>
<rect width="0.675684" height="519.383" rx="0.337842" transform="matrix(0.983224 0.182402 -0.184463 0.982839 413.273 485.238)" fill="black"/>
<rect width="0.675684" height="519.383" rx="0.337842" transform="matrix(0.983224 0.182402 -0.184463 0.982839 436.055 489.463)" fill="black"/>
<rect width="0.675684" height="519.383" rx="0.337842" transform="matrix(0.983224 0.182402 -0.184463 0.982839 417.07 485.942)" fill="black"/>
<rect width="0.675684" height="519.383" rx="0.337842" transform="matrix(0.983224 0.182402 -0.184463 0.982839 439.852 490.167)" fill="black"/>
<rect width="0.675684" height="519.383" rx="0.337842" transform="matrix(0.983224 0.182402 -0.184463 0.982839 420.867 486.646)" fill="black"/>
<rect width="0.675684" height="519.383" rx="0.337842" transform="matrix(0.983224 0.182402 -0.184463 0.982839 443.648 490.872)" fill="black"/>
<rect width="0.675684" height="519.383" rx="0.337842" transform="matrix(0.983224 0.182402 -0.184463 0.982839 424.664 487.35)" fill="black"/>
<rect width="0.675684" height="519.383" rx="0.337842" transform="matrix(0.983224 0.182402 -0.184463 0.982839 447.438 491.576)" fill="black"/>
<rect width="0.675684" height="519.383" rx="0.337842" transform="matrix(0.983224 0.182402 -0.184463 0.982839 428.461 488.055)" fill="black"/>
<rect width="0.675684" height="519.383" rx="0.337842" transform="matrix(0.983224 0.182402 -0.184463 0.982839 451.234 492.28)" fill="black"/>
<rect width="0.675684" height="519.383" rx="0.337842" transform="matrix(0.983224 0.182402 -0.184463 0.982839 432.258 488.759)" fill="black"/>
<rect width="0.675684" height="519.383" rx="0.337842" transform="matrix(0.983224 0.182402 -0.184463 0.982839 455.031 492.984)" fill="black"/>
</g>
</svg>
