<svg width="290" height="76" viewBox="0 0 290 76" fill="none" xmlns="http://www.w3.org/2000/svg">
<mask id="mask0_242_2175" style="mask-type:alpha" maskUnits="userSpaceOnUse" x="0" y="0" width="290" height="76">
<rect width="290" height="76" fill="white" fill-opacity="0.2"/>
</mask>
<g mask="url(#mask0_242_2175)">
<rect width="0.691557" height="801.286" transform="matrix(0.960657 0.277739 -0.119567 0.992826 2.29004 -326.937)" fill="black"/>
<rect width="0.691557" height="801.286" transform="matrix(0.960657 0.277739 -0.119567 0.992826 6.08594 -325.838)" fill="black"/>
<rect width="0.691557" height="801.286" transform="matrix(0.960657 0.277739 -0.119567 0.992826 9.88208 -324.743)" fill="black"/>
<rect width="0.691557" height="801.286" transform="matrix(0.960657 0.277739 -0.119567 0.992826 32.6609 -318.157)" fill="black"/>
<rect width="0.691557" height="801.286" transform="matrix(0.960657 0.277739 -0.119567 0.992826 13.6797 -323.646)" fill="black"/>
<rect width="0.691557" height="801.286" transform="matrix(0.960657 0.277739 -0.119567 0.992826 36.4565 -317.058)" fill="black"/>
<rect width="0.691557" height="801.286" transform="matrix(0.960657 0.277739 -0.119567 0.992826 17.4753 -322.547)" fill="black"/>
<rect width="0.691557" height="801.286" transform="matrix(0.960657 0.277739 -0.119567 0.992826 40.2527 -315.962)" fill="black"/>
<rect width="0.691557" height="801.286" transform="matrix(0.960657 0.277739 -0.119567 0.992826 21.2712 -321.447)" fill="black"/>
<rect width="0.691557" height="801.286" transform="matrix(0.960657 0.277739 -0.119567 0.992826 44.0483 -314.864)" fill="black"/>
<rect width="0.691557" height="801.286" transform="matrix(0.960657 0.277739 -0.119567 0.992826 25.0671 -320.353)" fill="black"/>
<rect width="0.691557" height="801.286" transform="matrix(0.960657 0.277739 -0.119567 0.992826 47.8445 -313.765)" fill="black"/>
<rect width="0.691557" height="801.286" transform="matrix(0.960657 0.277739 -0.119567 0.992826 28.8628 -319.255)" fill="black"/>
<rect width="0.691557" height="801.286" transform="matrix(0.960657 0.277739 -0.119567 0.992826 51.6421 -312.669)" fill="black"/>
<rect width="0.691557" height="801.286" transform="matrix(0.960657 0.277739 -0.119567 0.992826 55.438 -311.572)" fill="black"/>
<rect width="0.691557" height="801.286" transform="matrix(0.960657 0.277739 -0.119567 0.992826 78.2148 -304.984)" fill="black"/>
<rect width="0.691557" height="801.286" transform="matrix(0.960657 0.277739 -0.119567 0.992826 59.2339 -310.474)" fill="black"/>
<rect width="0.691557" height="801.286" transform="matrix(0.960657 0.277739 -0.119567 0.992826 82.011 -303.889)" fill="black"/>
<rect width="0.691557" height="801.286" transform="matrix(0.960657 0.277739 -0.119567 0.992826 63.0298 -309.375)" fill="black"/>
<rect width="0.691557" height="801.286" transform="matrix(0.960657 0.277739 -0.119567 0.992826 85.8088 -302.791)" fill="black"/>
<rect width="0.691557" height="801.286" transform="matrix(0.960657 0.277739 -0.119567 0.992826 66.8274 -308.28)" fill="black"/>
<rect width="0.691557" height="801.286" transform="matrix(0.960657 0.277739 -0.119567 0.992826 89.6047 -301.692)" fill="black"/>
<rect width="0.691557" height="801.286" transform="matrix(0.960657 0.277739 -0.119567 0.992826 70.6233 -307.182)" fill="black"/>
<rect width="0.691557" height="801.286" transform="matrix(0.960657 0.277739 -0.119567 0.992826 93.4004 -300.595)" fill="black"/>
<rect width="0.691557" height="801.286" transform="matrix(0.960657 0.277739 -0.119567 0.992826 74.4192 -306.083)" fill="black"/>
<rect width="0.691557" height="801.286" transform="matrix(0.960657 0.277739 -0.119567 0.992826 97.1963 -299.499)" fill="black"/>
<rect width="0.691557" height="801.286" transform="matrix(0.960657 0.277739 -0.119567 0.992826 100.994 -298.401)" fill="black"/>
<rect width="0.691557" height="801.286" transform="matrix(0.960657 0.277739 -0.119567 0.992826 123.771 -291.817)" fill="black"/>
<rect width="0.691557" height="801.286" transform="matrix(0.960657 0.277739 -0.119567 0.992826 104.79 -297.302)" fill="black"/>
<rect width="0.691557" height="801.286" transform="matrix(0.960657 0.277739 -0.119567 0.992826 127.567 -290.719)" fill="black"/>
<rect width="0.691557" height="801.286" transform="matrix(0.960657 0.277739 -0.119567 0.992826 108.585 -296.205)" fill="black"/>
<rect width="0.691557" height="801.286" transform="matrix(0.960657 0.277739 -0.119567 0.992826 131.363 -289.619)" fill="black"/>
<rect width="0.691557" height="801.286" transform="matrix(0.960657 0.277739 -0.119567 0.992826 112.382 -295.108)" fill="black"/>
<rect width="0.691557" height="801.286" transform="matrix(0.960657 0.277739 -0.119567 0.992826 135.159 -288.522)" fill="black"/>
<rect width="0.691557" height="801.286" transform="matrix(0.960657 0.277739 -0.119567 0.992826 116.177 -294.01)" fill="black"/>
<rect width="0.691557" height="801.286" transform="matrix(0.960657 0.277739 -0.119567 0.992826 138.957 -287.426)" fill="black"/>
<rect width="0.691557" height="801.286" transform="matrix(0.960657 0.277739 -0.119567 0.992826 119.975 -292.912)" fill="black"/>
<rect width="0.691557" height="801.286" transform="matrix(0.960657 0.277739 -0.119567 0.992826 142.753 -286.329)" fill="black"/>
<rect width="0.691557" height="801.286" transform="matrix(0.960657 0.277739 -0.119567 0.992826 146.548 -285.229)" fill="black"/>
<rect width="0.691557" height="801.286" transform="matrix(0.960657 0.277739 -0.119567 0.992826 169.325 -278.646)" fill="black"/>
<rect width="0.691557" height="801.286" transform="matrix(0.960657 0.277739 -0.119567 0.992826 150.344 -284.132)" fill="black"/>
<rect width="0.691557" height="801.286" transform="matrix(0.960657 0.277739 -0.119567 0.992826 173.123 -277.547)" fill="black"/>
<rect width="0.691557" height="801.286" transform="matrix(0.960657 0.277739 -0.119567 0.992826 154.142 -283.036)" fill="black"/>
<rect width="0.691557" height="801.286" transform="matrix(0.960657 0.277739 -0.119567 0.992826 176.919 -276.448)" fill="black"/>
<rect width="0.691557" height="801.286" transform="matrix(0.960657 0.277739 -0.119567 0.992826 157.938 -281.937)" fill="black"/>
<rect width="0.691557" height="801.286" transform="matrix(0.960657 0.277739 -0.119567 0.992826 180.715 -275.353)" fill="black"/>
<rect width="0.691557" height="801.286" transform="matrix(0.960657 0.277739 -0.119567 0.992826 161.733 -280.838)" fill="black"/>
<rect width="0.691557" height="801.286" transform="matrix(0.960657 0.277739 -0.119567 0.992826 184.511 -274.255)" fill="black"/>
<rect width="0.691557" height="801.286" transform="matrix(0.960657 0.277739 -0.119567 0.992826 165.53 -279.743)" fill="black"/>
<rect width="0.691557" height="801.286" transform="matrix(0.960657 0.277739 -0.119567 0.992826 188.307 -273.156)" fill="black"/>
<rect width="0.691557" height="801.286" transform="matrix(0.960657 0.277739 -0.119567 0.992826 191.611 -272.203)" fill="black"/>
<rect width="0.691557" height="801.286" transform="matrix(0.960657 0.277739 -0.119567 0.992826 214.388 -265.616)" fill="black"/>
<rect width="0.691557" height="801.286" transform="matrix(0.960657 0.277739 -0.119567 0.992826 195.407 -271.104)" fill="black"/>
<rect width="0.691557" height="801.286" transform="matrix(0.960657 0.277739 -0.119567 0.992826 218.186 -264.521)" fill="black"/>
<rect width="0.691557" height="801.286" transform="matrix(0.960657 0.277739 -0.119567 0.992826 199.203 -270.006)" fill="black"/>
<rect width="0.691557" height="801.286" transform="matrix(0.960657 0.277739 -0.119567 0.992826 221.982 -263.421)" fill="black"/>
<rect width="0.691557" height="801.286" transform="matrix(0.960657 0.277739 -0.119567 0.992826 203.001 -268.91)" fill="black"/>
<rect width="0.691557" height="801.286" transform="matrix(0.960657 0.277739 -0.119567 0.992826 225.778 -262.323)" fill="black"/>
<rect width="0.691557" height="801.286" transform="matrix(0.960657 0.277739 -0.119567 0.992826 206.796 -267.812)" fill="black"/>
<rect width="0.691557" height="801.286" transform="matrix(0.960657 0.277739 -0.119567 0.992826 229.573 -261.227)" fill="black"/>
<rect width="0.691557" height="801.286" transform="matrix(0.960657 0.277739 -0.119567 0.992826 210.592 -266.713)" fill="black"/>
<rect width="0.691557" height="801.286" transform="matrix(0.960657 0.277739 -0.119567 0.992826 233.37 -260.13)" fill="black"/>
<rect width="0.691557" height="801.286" transform="matrix(0.960657 0.277739 -0.119567 0.992826 237.167 -259.031)" fill="black"/>
<rect width="0.691557" height="801.286" transform="matrix(0.960657 0.277739 -0.119567 0.992826 259.944 -252.447)" fill="black"/>
<rect width="0.691557" height="801.286" transform="matrix(0.960657 0.277739 -0.119567 0.992826 240.963 -257.932)" fill="black"/>
<rect width="0.691557" height="801.286" transform="matrix(0.960657 0.277739 -0.119567 0.992826 263.74 -251.349)" fill="black"/>
<rect width="0.691557" height="801.286" transform="matrix(0.960657 0.277739 -0.119567 0.992826 244.759 -256.837)" fill="black"/>
<rect width="0.691557" height="801.286" transform="matrix(0.960657 0.277739 -0.119567 0.992826 267.536 -250.249)" fill="black"/>
<rect width="0.691557" height="801.286" transform="matrix(0.960657 0.277739 -0.119567 0.992826 248.555 -255.74)" fill="black"/>
<rect width="0.691557" height="801.286" transform="matrix(0.960657 0.277739 -0.119567 0.992826 271.334 -249.153)" fill="black"/>
<rect width="0.691557" height="801.286" transform="matrix(0.960657 0.277739 -0.119567 0.992826 252.351 -254.64)" fill="black"/>
<rect width="0.691557" height="801.286" transform="matrix(0.960657 0.277739 -0.119567 0.992826 275.13 -248.056)" fill="black"/>
<rect width="0.691557" height="801.286" transform="matrix(0.960657 0.277739 -0.119567 0.992826 256.148 -253.542)" fill="black"/>
<rect width="0.691557" height="801.286" transform="matrix(0.960657 0.277739 -0.119567 0.992826 278.926 -246.958)" fill="black"/>
<rect width="0.691557" height="801.286" transform="matrix(0.960657 0.277739 -0.119567 0.992826 282.721 -245.858)" fill="black"/>
<rect width="0.691557" height="801.286" transform="matrix(0.960657 0.277739 -0.119567 0.992826 305.499 -239.275)" fill="black"/>
<rect width="0.691557" height="801.286" transform="matrix(0.960657 0.277739 -0.119567 0.992826 286.517 -244.764)" fill="black"/>
<rect width="0.691557" height="801.286" transform="matrix(0.960657 0.277739 -0.119567 0.992826 309.296 -238.177)" fill="black"/>
<rect width="0.691557" height="801.286" transform="matrix(0.960657 0.277739 -0.119567 0.992826 290.315 -243.667)" fill="black"/>
<rect width="0.691557" height="801.286" transform="matrix(0.960657 0.277739 -0.119567 0.992826 313.092 -237.08)" fill="black"/>
<rect width="0.691557" height="801.286" transform="matrix(0.960657 0.277739 -0.119567 0.992826 294.111 -242.568)" fill="black"/>
<rect width="0.691557" height="801.286" transform="matrix(0.960657 0.277739 -0.119567 0.992826 316.888 -235.982)" fill="black"/>
<rect width="0.691557" height="801.286" transform="matrix(0.960657 0.277739 -0.119567 0.992826 297.906 -241.47)" fill="black"/>
<rect width="0.691557" height="801.286" transform="matrix(0.960657 0.277739 -0.119567 0.992826 320.684 -234.885)" fill="black"/>
<rect width="0.691557" height="801.286" transform="matrix(0.960657 0.277739 -0.119567 0.992826 301.703 -240.374)" fill="black"/>
<rect width="0.691557" height="801.286" transform="matrix(0.960657 0.277739 -0.119567 0.992826 324.481 -233.786)" fill="black"/>
<rect width="0.691557" height="801.286" transform="matrix(0.960657 0.277739 -0.119567 0.992826 328.278 -232.691)" fill="black"/>
<rect width="0.691557" height="801.286" transform="matrix(0.960657 0.277739 -0.119567 0.992826 351.055 -226.104)" fill="black"/>
<rect width="0.691557" height="801.286" transform="matrix(0.960657 0.277739 -0.119567 0.992826 332.073 -231.593)" fill="black"/>
<rect width="0.691557" height="801.286" transform="matrix(0.960657 0.277739 -0.119567 0.992826 354.851 -225.006)" fill="black"/>
<rect width="0.691557" height="801.286" transform="matrix(0.960657 0.277739 -0.119567 0.992826 335.869 -230.495)" fill="black"/>
<rect width="0.691557" height="801.286" transform="matrix(0.960657 0.277739 -0.119567 0.992826 358.649 -223.91)" fill="black"/>
<rect width="0.691557" height="801.286" transform="matrix(0.960657 0.277739 -0.119567 0.992826 339.665 -229.396)" fill="black"/>
<rect width="0.691557" height="801.286" transform="matrix(0.960657 0.277739 -0.119567 0.992826 362.444 -222.813)" fill="black"/>
<rect width="0.691557" height="801.286" transform="matrix(0.960657 0.277739 -0.119567 0.992826 343.463 -228.3)" fill="black"/>
<rect width="0.691557" height="801.286" transform="matrix(0.960657 0.277739 -0.119567 0.992826 366.24 -221.713)" fill="black"/>
<rect width="0.691557" height="801.286" transform="matrix(0.960657 0.277739 -0.119567 0.992826 347.259 -227.203)" fill="black"/>
<rect width="0.691557" height="801.286" transform="matrix(0.960657 0.277739 -0.119567 0.992826 370.036 -220.616)" fill="black"/>
<rect width="0.691557" height="801.286" transform="matrix(0.960657 0.277739 -0.119567 0.992826 373.832 -219.519)" fill="black"/>
<rect width="0.691557" height="801.286" transform="matrix(0.960657 0.277739 -0.119567 0.992826 377.629 -218.421)" fill="black"/>
<rect width="0.691557" height="801.286" transform="matrix(0.960657 0.277739 -0.119567 0.992826 381.426 -217.323)" fill="black"/>
<rect width="0.691557" height="801.286" transform="matrix(0.960657 0.277739 -0.119567 0.992826 385.221 -216.227)" fill="black"/>
</g>
</svg>
