<svg width="1190" height="176" viewBox="0 0 1190 176" fill="none" xmlns="http://www.w3.org/2000/svg">
<mask id="mask0_229_400" style="mask-type:alpha" maskUnits="userSpaceOnUse" x="0" y="0" width="1190" height="176">
<rect width="1190" height="176" fill="white" fill-opacity="0.2"/>
</mask>
<g mask="url(#mask0_229_400)">
<rect x="-0.36084" y="-320.128" width="0.633123" height="489.313" transform="rotate(10.5696 -0.36084 -320.128)" fill="black"/>
<rect x="20.9775" y="-316.146" width="0.633123" height="489.313" transform="rotate(10.5696 20.9775 -316.146)" fill="black"/>
<rect x="3.19482" y="-319.464" width="0.633123" height="489.313" transform="rotate(10.5696 3.19482 -319.464)" fill="black"/>
<rect x="24.5332" y="-315.482" width="0.633123" height="489.313" transform="rotate(10.5696 24.5332 -315.482)" fill="black"/>
<rect x="6.75098" y="-318.8" width="0.633123" height="489.313" transform="rotate(10.5696 6.75098 -318.8)" fill="black"/>
<rect x="28.0894" y="-314.819" width="0.633123" height="489.313" transform="rotate(10.5696 28.0894 -314.819)" fill="black"/>
<rect x="10.3071" y="-318.137" width="0.633123" height="489.313" transform="rotate(10.5696 10.3071 -318.137)" fill="black"/>
<rect x="31.647" y="-314.155" width="0.633123" height="489.313" transform="rotate(10.5696 31.647 -314.155)" fill="black"/>
<rect x="13.8647" y="-317.473" width="0.633123" height="489.313" transform="rotate(10.5696 13.8647 -317.473)" fill="black"/>
<rect x="35.2031" y="-313.491" width="0.633123" height="489.313" transform="rotate(10.5696 35.2031 -313.491)" fill="black"/>
<rect x="17.4209" y="-316.809" width="0.633123" height="489.313" transform="rotate(10.5696 17.4209 -316.809)" fill="black"/>
<rect x="38.7593" y="-312.828" width="0.633123" height="489.313" transform="rotate(10.5696 38.7593 -312.828)" fill="black"/>
<rect x="42.3154" y="-312.164" width="0.633123" height="489.313" transform="rotate(10.5696 42.3154 -312.164)" fill="black"/>
<rect x="63.6553" y="-308.182" width="0.633123" height="489.313" transform="rotate(10.5696 63.6553 -308.182)" fill="black"/>
<rect x="45.873" y="-311.501" width="0.633123" height="489.313" transform="rotate(10.5696 45.873 -311.501)" fill="black"/>
<rect x="67.2114" y="-307.519" width="0.633123" height="489.313" transform="rotate(10.5696 67.2114 -307.519)" fill="black"/>
<rect x="49.4292" y="-310.837" width="0.633123" height="489.313" transform="rotate(10.5696 49.4292 -310.837)" fill="black"/>
<rect x="70.7676" y="-306.855" width="0.633123" height="489.313" transform="rotate(10.5696 70.7676 -306.855)" fill="black"/>
<rect x="52.9854" y="-310.173" width="0.633123" height="489.313" transform="rotate(10.5696 52.9854 -310.173)" fill="black"/>
<rect x="74.3237" y="-306.191" width="0.633123" height="489.313" transform="rotate(10.5696 74.3237 -306.191)" fill="black"/>
<rect x="56.5415" y="-309.51" width="0.633123" height="489.313" transform="rotate(10.5696 56.5415 -309.51)" fill="black"/>
<rect x="77.8799" y="-305.528" width="0.633123" height="489.313" transform="rotate(10.5696 77.8799 -305.528)" fill="black"/>
<rect x="60.0972" y="-308.846" width="0.633123" height="489.313" transform="rotate(10.5696 60.0972 -308.846)" fill="black"/>
<rect x="81.4375" y="-304.864" width="0.633123" height="489.313" transform="rotate(10.5696 81.4375 -304.864)" fill="black"/>
<rect x="84.9937" y="-304.201" width="0.633123" height="489.313" transform="rotate(10.5696 84.9937 -304.201)" fill="black"/>
<rect x="106.332" y="-300.219" width="0.633123" height="489.313" transform="rotate(10.5696 106.332 -300.219)" fill="black"/>
<rect x="88.5498" y="-303.537" width="0.633123" height="489.313" transform="rotate(10.5696 88.5498 -303.537)" fill="black"/>
<rect x="109.888" y="-299.555" width="0.633123" height="489.313" transform="rotate(10.5696 109.888 -299.555)" fill="black"/>
<rect x="92.1055" y="-302.873" width="0.633123" height="489.313" transform="rotate(10.5696 92.1055 -302.873)" fill="black"/>
<rect x="113.446" y="-298.892" width="0.633123" height="489.313" transform="rotate(10.5696 113.446 -298.892)" fill="black"/>
<rect x="95.6636" y="-302.21" width="0.633123" height="489.313" transform="rotate(10.5696 95.6636 -302.21)" fill="black"/>
<rect x="117.002" y="-298.228" width="0.633123" height="489.313" transform="rotate(10.5696 117.002 -298.228)" fill="black"/>
<rect x="99.2192" y="-301.546" width="0.633123" height="489.313" transform="rotate(10.5696 99.2192 -301.546)" fill="black"/>
<rect x="120.558" y="-297.564" width="0.633123" height="489.313" transform="rotate(10.5696 120.558 -297.564)" fill="black"/>
<rect x="102.776" y="-300.883" width="0.633123" height="489.313" transform="rotate(10.5696 102.776 -300.883)" fill="black"/>
<rect x="124.114" y="-296.901" width="0.633123" height="489.313" transform="rotate(10.5696 124.114 -296.901)" fill="black"/>
<rect x="127.672" y="-296.237" width="0.633123" height="489.313" transform="rotate(10.5696 127.672 -296.237)" fill="black"/>
<rect x="149.01" y="-292.256" width="0.633123" height="489.313" transform="rotate(10.5696 149.01 -292.256)" fill="black"/>
<rect x="131.228" y="-295.574" width="0.633123" height="489.313" transform="rotate(10.5696 131.228 -295.574)" fill="black"/>
<rect x="152.566" y="-291.592" width="0.633123" height="489.313" transform="rotate(10.5696 152.566 -291.592)" fill="black"/>
<rect x="134.784" y="-294.91" width="0.633123" height="489.313" transform="rotate(10.5696 134.784 -294.91)" fill="black"/>
<rect x="156.122" y="-290.928" width="0.633123" height="489.313" transform="rotate(10.5696 156.122 -290.928)" fill="black"/>
<rect x="138.34" y="-294.246" width="0.633123" height="489.313" transform="rotate(10.5696 138.34 -294.246)" fill="black"/>
<rect x="159.678" y="-290.265" width="0.633123" height="489.313" transform="rotate(10.5696 159.678 -290.265)" fill="black"/>
<rect x="141.896" y="-293.583" width="0.633123" height="489.313" transform="rotate(10.5696 141.896 -293.583)" fill="black"/>
<rect x="163.236" y="-289.601" width="0.633123" height="489.313" transform="rotate(10.5696 163.236 -289.601)" fill="black"/>
<rect x="145.454" y="-292.919" width="0.633123" height="489.313" transform="rotate(10.5696 145.454 -292.919)" fill="black"/>
<rect x="166.792" y="-288.937" width="0.633123" height="489.313" transform="rotate(10.5696 166.792 -288.937)" fill="black"/>
<rect x="170.348" y="-288.274" width="0.633123" height="489.313" transform="rotate(10.5696 170.348 -288.274)" fill="black"/>
<rect x="191.687" y="-284.292" width="0.633123" height="489.313" transform="rotate(10.5696 191.687 -284.292)" fill="black"/>
<rect x="173.904" y="-287.61" width="0.633123" height="489.313" transform="rotate(10.5696 173.904 -287.61)" fill="black"/>
<rect x="195.244" y="-283.628" width="0.633123" height="489.313" transform="rotate(10.5696 195.244 -283.628)" fill="black"/>
<rect x="177.462" y="-286.947" width="0.633123" height="489.313" transform="rotate(10.5696 177.462 -286.947)" fill="black"/>
<rect x="198.8" y="-282.965" width="0.633123" height="489.313" transform="rotate(10.5696 198.8 -282.965)" fill="black"/>
<rect x="181.018" y="-286.283" width="0.633123" height="489.313" transform="rotate(10.5696 181.018 -286.283)" fill="black"/>
<rect x="202.356" y="-282.301" width="0.633123" height="489.313" transform="rotate(10.5696 202.356 -282.301)" fill="black"/>
<rect x="184.574" y="-285.619" width="0.633123" height="489.313" transform="rotate(10.5696 184.574 -285.619)" fill="black"/>
<rect x="205.913" y="-281.638" width="0.633123" height="489.313" transform="rotate(10.5696 205.913 -281.638)" fill="black"/>
<rect x="188.13" y="-284.956" width="0.633123" height="489.313" transform="rotate(10.5696 188.13 -284.956)" fill="black"/>
<rect x="209.469" y="-280.974" width="0.633123" height="489.313" transform="rotate(10.5696 209.469 -280.974)" fill="black"/>
<rect x="212.564" y="-280.396" width="0.633123" height="489.313" transform="rotate(10.5696 212.564 -280.396)" fill="black"/>
<rect x="233.903" y="-276.415" width="0.633123" height="489.313" transform="rotate(10.5696 233.903 -276.415)" fill="black"/>
<rect x="216.12" y="-279.733" width="0.633123" height="489.313" transform="rotate(10.5696 216.12 -279.733)" fill="black"/>
<rect x="237.46" y="-275.751" width="0.633123" height="489.313" transform="rotate(10.5696 237.46 -275.751)" fill="black"/>
<rect x="219.676" y="-279.069" width="0.633123" height="489.313" transform="rotate(10.5696 219.676 -279.069)" fill="black"/>
<rect x="241.016" y="-275.088" width="0.633123" height="489.313" transform="rotate(10.5696 241.016 -275.088)" fill="black"/>
<rect x="223.234" y="-278.406" width="0.633123" height="489.313" transform="rotate(10.5696 223.234 -278.406)" fill="black"/>
<rect x="244.573" y="-274.424" width="0.633123" height="489.313" transform="rotate(10.5696 244.573 -274.424)" fill="black"/>
<rect x="226.79" y="-277.742" width="0.633123" height="489.313" transform="rotate(10.5696 226.79 -277.742)" fill="black"/>
<rect x="248.128" y="-273.76" width="0.633123" height="489.313" transform="rotate(10.5696 248.128 -273.76)" fill="black"/>
<rect x="230.346" y="-277.078" width="0.633123" height="489.313" transform="rotate(10.5696 230.346 -277.078)" fill="black"/>
<rect x="251.685" y="-273.097" width="0.633123" height="489.313" transform="rotate(10.5696 251.685 -273.097)" fill="black"/>
<rect x="255.243" y="-272.433" width="0.633123" height="489.313" transform="rotate(10.5696 255.243 -272.433)" fill="black"/>
<rect x="276.581" y="-268.451" width="0.633123" height="489.313" transform="rotate(10.5696 276.581 -268.451)" fill="black"/>
<rect x="258.798" y="-271.769" width="0.633123" height="489.313" transform="rotate(10.5696 258.798 -271.769)" fill="black"/>
<rect x="280.137" y="-267.788" width="0.633123" height="489.313" transform="rotate(10.5696 280.137 -267.788)" fill="black"/>
<rect x="262.355" y="-271.106" width="0.633123" height="489.313" transform="rotate(10.5696 262.355 -271.106)" fill="black"/>
<rect x="283.693" y="-267.124" width="0.633123" height="489.313" transform="rotate(10.5696 283.693 -267.124)" fill="black"/>
<rect x="265.911" y="-270.442" width="0.633123" height="489.313" transform="rotate(10.5696 265.911 -270.442)" fill="black"/>
<rect x="287.251" y="-266.461" width="0.633123" height="489.313" transform="rotate(10.5696 287.251 -266.461)" fill="black"/>
<rect x="269.467" y="-269.778" width="0.633123" height="489.313" transform="rotate(10.5696 269.467 -269.778)" fill="black"/>
<rect x="290.807" y="-265.797" width="0.633123" height="489.313" transform="rotate(10.5696 290.807 -265.797)" fill="black"/>
<rect x="273.024" y="-269.115" width="0.633123" height="489.313" transform="rotate(10.5696 273.024 -269.115)" fill="black"/>
<rect x="294.363" y="-265.133" width="0.633123" height="489.313" transform="rotate(10.5696 294.363 -265.133)" fill="black"/>
<rect x="297.919" y="-264.469" width="0.633123" height="489.313" transform="rotate(10.5696 297.919 -264.469)" fill="black"/>
<rect x="319.257" y="-260.488" width="0.633123" height="489.313" transform="rotate(10.5696 319.257 -260.488)" fill="black"/>
<rect x="301.475" y="-263.806" width="0.633123" height="489.313" transform="rotate(10.5696 301.475 -263.806)" fill="black"/>
<rect x="322.815" y="-259.824" width="0.633123" height="489.313" transform="rotate(10.5696 322.815 -259.824)" fill="black"/>
<rect x="305.033" y="-263.142" width="0.633123" height="489.313" transform="rotate(10.5696 305.033 -263.142)" fill="black"/>
<rect x="326.371" y="-259.161" width="0.633123" height="489.313" transform="rotate(10.5696 326.371 -259.161)" fill="black"/>
<rect x="308.589" y="-262.479" width="0.633123" height="489.313" transform="rotate(10.5696 308.589 -262.479)" fill="black"/>
<rect x="329.927" y="-258.497" width="0.633123" height="489.313" transform="rotate(10.5696 329.927 -258.497)" fill="black"/>
<rect x="312.145" y="-261.815" width="0.633123" height="489.313" transform="rotate(10.5696 312.145 -261.815)" fill="black"/>
<rect x="333.483" y="-257.833" width="0.633123" height="489.313" transform="rotate(10.5696 333.483 -257.833)" fill="black"/>
<rect x="315.701" y="-261.152" width="0.633123" height="489.313" transform="rotate(10.5696 315.701 -261.152)" fill="black"/>
<rect x="337.041" y="-257.17" width="0.633123" height="489.313" transform="rotate(10.5696 337.041 -257.17)" fill="black"/>
<rect x="340.597" y="-256.506" width="0.633123" height="489.313" transform="rotate(10.5696 340.597 -256.506)" fill="black"/>
<rect x="361.936" y="-252.524" width="0.633123" height="489.313" transform="rotate(10.5696 361.936 -252.524)" fill="black"/>
<rect x="344.153" y="-255.843" width="0.633123" height="489.313" transform="rotate(10.5696 344.153 -255.843)" fill="black"/>
<rect x="365.492" y="-251.861" width="0.633123" height="489.313" transform="rotate(10.5696 365.492 -251.861)" fill="black"/>
<rect x="347.709" y="-255.179" width="0.633123" height="489.313" transform="rotate(10.5696 347.709 -255.179)" fill="black"/>
<rect x="369.049" y="-251.197" width="0.633123" height="489.313" transform="rotate(10.5696 369.049 -251.197)" fill="black"/>
<rect x="351.265" y="-254.515" width="0.633123" height="489.313" transform="rotate(10.5696 351.265 -254.515)" fill="black"/>
<rect x="372.605" y="-250.534" width="0.633123" height="489.313" transform="rotate(10.5696 372.605 -250.534)" fill="black"/>
<rect x="354.823" y="-253.852" width="0.633123" height="489.313" transform="rotate(10.5696 354.823 -253.852)" fill="black"/>
<rect x="376.162" y="-249.87" width="0.633123" height="489.313" transform="rotate(10.5696 376.162 -249.87)" fill="black"/>
<rect x="358.379" y="-253.188" width="0.633123" height="489.313" transform="rotate(10.5696 358.379 -253.188)" fill="black"/>
<rect x="379.717" y="-249.206" width="0.633123" height="489.313" transform="rotate(10.5696 379.717 -249.206)" fill="black"/>
<rect x="383.274" y="-248.543" width="0.633123" height="489.313" transform="rotate(10.5696 383.274 -248.543)" fill="black"/>
<rect x="404.614" y="-244.561" width="0.633123" height="489.313" transform="rotate(10.5696 404.614 -244.561)" fill="black"/>
<rect x="386.831" y="-247.879" width="0.633123" height="489.313" transform="rotate(10.5696 386.831 -247.879)" fill="black"/>
<rect x="408.17" y="-243.897" width="0.633123" height="489.313" transform="rotate(10.5696 408.17 -243.897)" fill="black"/>
<rect x="390.388" y="-247.215" width="0.633123" height="489.313" transform="rotate(10.5696 390.388 -247.215)" fill="black"/>
<rect x="411.726" y="-243.234" width="0.633123" height="489.313" transform="rotate(10.5696 411.726 -243.234)" fill="black"/>
<rect x="393.944" y="-246.552" width="0.633123" height="489.313" transform="rotate(10.5696 393.944 -246.552)" fill="black"/>
<rect x="415.281" y="-242.57" width="0.633123" height="489.313" transform="rotate(10.5696 415.281 -242.57)" fill="black"/>
<rect x="397.5" y="-245.888" width="0.633123" height="489.313" transform="rotate(10.5696 397.5 -245.888)" fill="black"/>
<rect x="418.839" y="-241.906" width="0.633123" height="489.313" transform="rotate(10.5696 418.839 -241.906)" fill="black"/>
<rect x="401.056" y="-245.224" width="0.633123" height="489.313" transform="rotate(10.5696 401.056 -245.224)" fill="black"/>
<rect x="422.396" y="-241.243" width="0.633123" height="489.313" transform="rotate(10.5696 422.396 -241.243)" fill="black"/>
<rect x="425.952" y="-240.579" width="0.633123" height="489.313" transform="rotate(10.5696 425.952 -240.579)" fill="black"/>
<rect x="447.29" y="-236.597" width="0.633123" height="489.313" transform="rotate(10.5696 447.29 -236.597)" fill="black"/>
<rect x="429.508" y="-239.916" width="0.633123" height="489.313" transform="rotate(10.5696 429.508 -239.916)" fill="black"/>
<rect x="450.846" y="-235.934" width="0.633123" height="489.313" transform="rotate(10.5696 450.846 -235.934)" fill="black"/>
<rect x="433.064" y="-239.252" width="0.633123" height="489.313" transform="rotate(10.5696 433.064 -239.252)" fill="black"/>
<rect x="454.404" y="-235.27" width="0.633123" height="489.313" transform="rotate(10.5696 454.404 -235.27)" fill="black"/>
<rect x="436.622" y="-238.588" width="0.633123" height="489.313" transform="rotate(10.5696 436.622 -238.588)" fill="black"/>
<rect x="457.96" y="-234.607" width="0.633123" height="489.313" transform="rotate(10.5696 457.96 -234.607)" fill="black"/>
<rect x="440.178" y="-237.925" width="0.633123" height="489.313" transform="rotate(10.5696 440.178 -237.925)" fill="black"/>
<rect x="461.516" y="-233.943" width="0.633123" height="489.313" transform="rotate(10.5696 461.516 -233.943)" fill="black"/>
<rect x="443.734" y="-237.261" width="0.633123" height="489.313" transform="rotate(10.5696 443.734 -237.261)" fill="black"/>
<rect x="465.072" y="-233.279" width="0.633123" height="489.313" transform="rotate(10.5696 465.072 -233.279)" fill="black"/>
<rect x="468.63" y="-232.616" width="0.633123" height="489.313" transform="rotate(10.5696 468.63 -232.616)" fill="black"/>
<rect x="489.968" y="-228.634" width="0.633123" height="489.313" transform="rotate(10.5696 489.968 -228.634)" fill="black"/>
<rect x="472.186" y="-231.952" width="0.633123" height="489.313" transform="rotate(10.5696 472.186 -231.952)" fill="black"/>
<rect x="493.524" y="-227.97" width="0.633123" height="489.313" transform="rotate(10.5696 493.524 -227.97)" fill="black"/>
<rect x="475.742" y="-231.288" width="0.633123" height="489.313" transform="rotate(10.5696 475.742 -231.288)" fill="black"/>
<rect x="497.08" y="-227.307" width="0.633123" height="489.313" transform="rotate(10.5696 497.08 -227.307)" fill="black"/>
<rect x="479.298" y="-230.625" width="0.633123" height="489.313" transform="rotate(10.5696 479.298 -230.625)" fill="black"/>
<rect x="500.638" y="-226.643" width="0.633123" height="489.313" transform="rotate(10.5696 500.638 -226.643)" fill="black"/>
<rect x="482.854" y="-229.961" width="0.633123" height="489.313" transform="rotate(10.5696 482.854 -229.961)" fill="black"/>
<rect x="504.195" y="-225.98" width="0.633123" height="489.313" transform="rotate(10.5696 504.195 -225.98)" fill="black"/>
<rect x="486.412" y="-229.298" width="0.633123" height="489.313" transform="rotate(10.5696 486.412 -229.298)" fill="black"/>
<rect x="507.75" y="-225.316" width="0.633123" height="489.313" transform="rotate(10.5696 507.75 -225.316)" fill="black"/>
<rect x="511.306" y="-224.652" width="0.633123" height="489.313" transform="rotate(10.5696 511.306 -224.652)" fill="black"/>
<rect x="532.645" y="-220.67" width="0.633123" height="489.313" transform="rotate(10.5696 532.645 -220.67)" fill="black"/>
<rect x="514.862" y="-223.989" width="0.633123" height="489.313" transform="rotate(10.5696 514.862 -223.989)" fill="black"/>
<rect x="536.203" y="-220.007" width="0.633123" height="489.313" transform="rotate(10.5696 536.203 -220.007)" fill="black"/>
<rect x="518.42" y="-223.325" width="0.633123" height="489.313" transform="rotate(10.5696 518.42 -223.325)" fill="black"/>
<rect x="539.759" y="-219.343" width="0.633123" height="489.313" transform="rotate(10.5696 539.759 -219.343)" fill="black"/>
<rect x="521.977" y="-222.662" width="0.633123" height="489.313" transform="rotate(10.5696 521.977 -222.662)" fill="black"/>
<rect x="543.315" y="-218.68" width="0.633123" height="489.313" transform="rotate(10.5696 543.315 -218.68)" fill="black"/>
<rect x="525.532" y="-221.998" width="0.633123" height="489.313" transform="rotate(10.5696 525.532 -221.998)" fill="black"/>
<rect x="546.871" y="-218.016" width="0.633123" height="489.313" transform="rotate(10.5696 546.871 -218.016)" fill="black"/>
<rect x="529.089" y="-221.334" width="0.633123" height="489.313" transform="rotate(10.5696 529.089 -221.334)" fill="black"/>
<rect x="550.429" y="-217.352" width="0.633123" height="489.313" transform="rotate(10.5696 550.429 -217.352)" fill="black"/>
<rect x="575.305" y="-330.259" width="0.633123" height="489.313" transform="rotate(10.5696 575.305 -330.259)" fill="black"/>
<rect x="596.643" y="-326.278" width="0.633123" height="489.313" transform="rotate(10.5696 596.643 -326.278)" fill="black"/>
<rect x="578.861" y="-329.596" width="0.633123" height="489.313" transform="rotate(10.5696 578.861 -329.596)" fill="black"/>
<rect x="600.199" y="-325.614" width="0.633123" height="489.313" transform="rotate(10.5696 600.199 -325.614)" fill="black"/>
<rect x="582.417" y="-328.932" width="0.633123" height="489.313" transform="rotate(10.5696 582.417 -328.932)" fill="black"/>
<rect x="603.757" y="-324.951" width="0.633123" height="489.313" transform="rotate(10.5696 603.757 -324.951)" fill="black"/>
<rect x="585.975" y="-328.269" width="0.633123" height="489.313" transform="rotate(10.5696 585.975 -328.269)" fill="black"/>
<rect x="607.313" y="-324.287" width="0.633123" height="489.313" transform="rotate(10.5696 607.313 -324.287)" fill="black"/>
<rect x="589.531" y="-327.605" width="0.633123" height="489.313" transform="rotate(10.5696 589.531 -327.605)" fill="black"/>
<rect x="610.869" y="-323.623" width="0.633123" height="489.313" transform="rotate(10.5696 610.869 -323.623)" fill="black"/>
<rect x="593.087" y="-326.941" width="0.633123" height="489.313" transform="rotate(10.5696 593.087 -326.941)" fill="black"/>
<rect x="614.425" y="-322.96" width="0.633123" height="489.313" transform="rotate(10.5696 614.425 -322.96)" fill="black"/>
<rect x="617.983" y="-322.296" width="0.633123" height="489.313" transform="rotate(10.5696 617.983 -322.296)" fill="black"/>
<rect x="639.321" y="-318.314" width="0.633123" height="489.313" transform="rotate(10.5696 639.321 -318.314)" fill="black"/>
<rect x="621.539" y="-321.632" width="0.633123" height="489.313" transform="rotate(10.5696 621.539 -321.632)" fill="black"/>
<rect x="642.877" y="-317.651" width="0.633123" height="489.313" transform="rotate(10.5696 642.877 -317.651)" fill="black"/>
<rect x="625.095" y="-320.969" width="0.633123" height="489.313" transform="rotate(10.5696 625.095 -320.969)" fill="black"/>
<rect x="646.433" y="-316.987" width="0.633123" height="489.313" transform="rotate(10.5696 646.433 -316.987)" fill="black"/>
<rect x="628.651" y="-320.305" width="0.633123" height="489.313" transform="rotate(10.5696 628.651 -320.305)" fill="black"/>
<rect x="649.99" y="-316.323" width="0.633123" height="489.313" transform="rotate(10.5696 649.99 -316.323)" fill="black"/>
<rect x="632.207" y="-319.641" width="0.633123" height="489.313" transform="rotate(10.5696 632.207 -319.641)" fill="black"/>
<rect x="653.547" y="-315.66" width="0.633123" height="489.313" transform="rotate(10.5696 653.547 -315.66)" fill="black"/>
<rect x="635.765" y="-318.978" width="0.633123" height="489.313" transform="rotate(10.5696 635.765 -318.978)" fill="black"/>
<rect x="657.103" y="-314.996" width="0.633123" height="489.313" transform="rotate(10.5696 657.103 -314.996)" fill="black"/>
<rect x="660.659" y="-314.333" width="0.633123" height="489.313" transform="rotate(10.5696 660.659 -314.333)" fill="black"/>
<rect x="681.998" y="-310.351" width="0.633123" height="489.313" transform="rotate(10.5696 681.998 -310.351)" fill="black"/>
<rect x="664.215" y="-313.669" width="0.633123" height="489.313" transform="rotate(10.5696 664.215 -313.669)" fill="black"/>
<rect x="685.555" y="-309.687" width="0.633123" height="489.313" transform="rotate(10.5696 685.555 -309.687)" fill="black"/>
<rect x="667.773" y="-313.005" width="0.633123" height="489.313" transform="rotate(10.5696 667.773 -313.005)" fill="black"/>
<rect x="689.112" y="-309.024" width="0.633123" height="489.313" transform="rotate(10.5696 689.112 -309.024)" fill="black"/>
<rect x="671.329" y="-312.342" width="0.633123" height="489.313" transform="rotate(10.5696 671.329 -312.342)" fill="black"/>
<rect x="692.667" y="-308.36" width="0.633123" height="489.313" transform="rotate(10.5696 692.667 -308.36)" fill="black"/>
<rect x="674.885" y="-311.678" width="0.633123" height="489.313" transform="rotate(10.5696 674.885 -311.678)" fill="black"/>
<rect x="696.224" y="-307.696" width="0.633123" height="489.313" transform="rotate(10.5696 696.224 -307.696)" fill="black"/>
<rect x="678.441" y="-311.014" width="0.633123" height="489.313" transform="rotate(10.5696 678.441 -311.014)" fill="black"/>
<rect x="699.781" y="-307.033" width="0.633123" height="489.313" transform="rotate(10.5696 699.781 -307.033)" fill="black"/>
<rect x="703.337" y="-306.369" width="0.633123" height="489.313" transform="rotate(10.5696 703.337 -306.369)" fill="black"/>
<rect x="724.676" y="-302.387" width="0.633123" height="489.313" transform="rotate(10.5696 724.676 -302.387)" fill="black"/>
<rect x="706.894" y="-305.705" width="0.633123" height="489.313" transform="rotate(10.5696 706.894 -305.705)" fill="black"/>
<rect x="728.232" y="-301.724" width="0.633123" height="489.313" transform="rotate(10.5696 728.232 -301.724)" fill="black"/>
<rect x="710.45" y="-305.042" width="0.633123" height="489.313" transform="rotate(10.5696 710.45 -305.042)" fill="black"/>
<rect x="731.788" y="-301.06" width="0.633123" height="489.313" transform="rotate(10.5696 731.788 -301.06)" fill="black"/>
<rect x="714.006" y="-304.378" width="0.633123" height="489.313" transform="rotate(10.5696 714.006 -304.378)" fill="black"/>
<rect x="735.346" y="-300.397" width="0.633123" height="489.313" transform="rotate(10.5696 735.346 -300.397)" fill="black"/>
<rect x="717.564" y="-303.715" width="0.633123" height="489.313" transform="rotate(10.5696 717.564 -303.715)" fill="black"/>
<rect x="738.902" y="-299.733" width="0.633123" height="489.313" transform="rotate(10.5696 738.902 -299.733)" fill="black"/>
<rect x="721.12" y="-303.051" width="0.633123" height="489.313" transform="rotate(10.5696 721.12 -303.051)" fill="black"/>
<rect x="742.458" y="-299.069" width="0.633123" height="489.313" transform="rotate(10.5696 742.458 -299.069)" fill="black"/>
<rect x="746.014" y="-298.406" width="0.633123" height="489.313" transform="rotate(10.5696 746.014 -298.406)" fill="black"/>
<rect x="767.354" y="-294.424" width="0.633123" height="489.313" transform="rotate(10.5696 767.354 -294.424)" fill="black"/>
<rect x="749.572" y="-297.742" width="0.633123" height="489.313" transform="rotate(10.5696 749.572 -297.742)" fill="black"/>
<rect x="770.91" y="-293.76" width="0.633123" height="489.313" transform="rotate(10.5696 770.91 -293.76)" fill="black"/>
<rect x="753.128" y="-297.078" width="0.633123" height="489.313" transform="rotate(10.5696 753.128 -297.078)" fill="black"/>
<rect x="774.466" y="-293.097" width="0.633123" height="489.313" transform="rotate(10.5696 774.466 -293.097)" fill="black"/>
<rect x="756.684" y="-296.415" width="0.633123" height="489.313" transform="rotate(10.5696 756.684 -296.415)" fill="black"/>
<rect x="778.022" y="-292.433" width="0.633123" height="489.313" transform="rotate(10.5696 778.022 -292.433)" fill="black"/>
<rect x="760.24" y="-295.751" width="0.633123" height="489.313" transform="rotate(10.5696 760.24 -295.751)" fill="black"/>
<rect x="781.578" y="-291.769" width="0.633123" height="489.313" transform="rotate(10.5696 781.578 -291.769)" fill="black"/>
<rect x="763.796" y="-295.087" width="0.633123" height="489.313" transform="rotate(10.5696 763.796 -295.087)" fill="black"/>
<rect x="785.136" y="-291.106" width="0.633123" height="489.313" transform="rotate(10.5696 785.136 -291.106)" fill="black"/>
<rect x="788.692" y="-290.442" width="0.633123" height="489.313" transform="rotate(10.5696 788.692 -290.442)" fill="black"/>
<rect x="810.031" y="-286.46" width="0.633123" height="489.313" transform="rotate(10.5696 810.031 -286.46)" fill="black"/>
<rect x="792.248" y="-289.779" width="0.633123" height="489.313" transform="rotate(10.5696 792.248 -289.779)" fill="black"/>
<rect x="813.587" y="-285.797" width="0.633123" height="489.313" transform="rotate(10.5696 813.587 -285.797)" fill="black"/>
<rect x="795.804" y="-289.115" width="0.633123" height="489.313" transform="rotate(10.5696 795.804 -289.115)" fill="black"/>
<rect x="817.144" y="-285.133" width="0.633123" height="489.313" transform="rotate(10.5696 817.144 -285.133)" fill="black"/>
<rect x="799.362" y="-288.451" width="0.633123" height="489.313" transform="rotate(10.5696 799.362 -288.451)" fill="black"/>
<rect x="820.7" y="-284.47" width="0.633123" height="489.313" transform="rotate(10.5696 820.7 -284.47)" fill="black"/>
<rect x="802.918" y="-287.788" width="0.633123" height="489.313" transform="rotate(10.5696 802.918 -287.788)" fill="black"/>
<rect x="824.257" y="-283.806" width="0.633123" height="489.313" transform="rotate(10.5696 824.257 -283.806)" fill="black"/>
<rect x="806.474" y="-287.124" width="0.633123" height="489.313" transform="rotate(10.5696 806.474 -287.124)" fill="black"/>
<rect x="827.812" y="-283.142" width="0.633123" height="489.313" transform="rotate(10.5696 827.812 -283.142)" fill="black"/>
<rect x="831.371" y="-282.479" width="0.633123" height="489.313" transform="rotate(10.5696 831.371 -282.479)" fill="black"/>
<rect x="852.708" y="-278.497" width="0.633123" height="489.313" transform="rotate(10.5696 852.708 -278.497)" fill="black"/>
<rect x="834.926" y="-281.815" width="0.633123" height="489.313" transform="rotate(10.5696 834.926 -281.815)" fill="black"/>
<rect x="856.265" y="-277.833" width="0.633123" height="489.313" transform="rotate(10.5696 856.265 -277.833)" fill="black"/>
<rect x="838.482" y="-281.151" width="0.633123" height="489.313" transform="rotate(10.5696 838.482 -281.151)" fill="black"/>
<rect x="859.821" y="-277.17" width="0.633123" height="489.313" transform="rotate(10.5696 859.821 -277.17)" fill="black"/>
<rect x="842.039" y="-280.488" width="0.633123" height="489.313" transform="rotate(10.5696 842.039 -280.488)" fill="black"/>
<rect x="863.377" y="-276.506" width="0.633123" height="489.313" transform="rotate(10.5696 863.377 -276.506)" fill="black"/>
<rect x="845.595" y="-279.824" width="0.633123" height="489.313" transform="rotate(10.5696 845.595 -279.824)" fill="black"/>
<rect x="866.935" y="-275.843" width="0.633123" height="489.313" transform="rotate(10.5696 866.935 -275.843)" fill="black"/>
<rect x="849.153" y="-279.161" width="0.633123" height="489.313" transform="rotate(10.5696 849.153 -279.161)" fill="black"/>
<rect x="870.491" y="-275.179" width="0.633123" height="489.313" transform="rotate(10.5696 870.491 -275.179)" fill="black"/>
<rect x="874.047" y="-274.515" width="0.633123" height="489.313" transform="rotate(10.5696 874.047 -274.515)" fill="black"/>
<rect x="895.385" y="-270.533" width="0.633123" height="489.313" transform="rotate(10.5696 895.385 -270.533)" fill="black"/>
<rect x="877.603" y="-273.852" width="0.633123" height="489.313" transform="rotate(10.5696 877.603 -273.852)" fill="black"/>
<rect x="898.943" y="-269.87" width="0.633123" height="489.313" transform="rotate(10.5696 898.943 -269.87)" fill="black"/>
<rect x="881.161" y="-273.188" width="0.633123" height="489.313" transform="rotate(10.5696 881.161 -273.188)" fill="black"/>
<rect x="902.499" y="-269.206" width="0.633123" height="489.313" transform="rotate(10.5696 902.499 -269.206)" fill="black"/>
<rect x="884.717" y="-272.524" width="0.633123" height="489.313" transform="rotate(10.5696 884.717 -272.524)" fill="black"/>
<rect x="906.055" y="-268.543" width="0.633123" height="489.313" transform="rotate(10.5696 906.055 -268.543)" fill="black"/>
<rect x="888.273" y="-271.861" width="0.633123" height="489.313" transform="rotate(10.5696 888.273 -271.861)" fill="black"/>
<rect x="909.611" y="-267.879" width="0.633123" height="489.313" transform="rotate(10.5696 909.611 -267.879)" fill="black"/>
<rect x="891.829" y="-271.197" width="0.633123" height="489.313" transform="rotate(10.5696 891.829 -271.197)" fill="black"/>
<rect x="913.167" y="-267.215" width="0.633123" height="489.313" transform="rotate(10.5696 913.167 -267.215)" fill="black"/>
<rect x="916.263" y="-266.638" width="0.633123" height="489.313" transform="rotate(10.5696 916.263 -266.638)" fill="black"/>
<rect x="937.601" y="-262.656" width="0.633123" height="489.313" transform="rotate(10.5696 937.601 -262.656)" fill="black"/>
<rect x="919.819" y="-265.974" width="0.633123" height="489.313" transform="rotate(10.5696 919.819 -265.974)" fill="black"/>
<rect x="941.159" y="-261.993" width="0.633123" height="489.313" transform="rotate(10.5696 941.159 -261.993)" fill="black"/>
<rect x="923.375" y="-265.311" width="0.633123" height="489.313" transform="rotate(10.5696 923.375 -265.311)" fill="black"/>
<rect x="944.715" y="-261.329" width="0.633123" height="489.313" transform="rotate(10.5696 944.715 -261.329)" fill="black"/>
<rect x="926.933" y="-264.647" width="0.633123" height="489.313" transform="rotate(10.5696 926.933 -264.647)" fill="black"/>
<rect x="948.271" y="-260.665" width="0.633123" height="489.313" transform="rotate(10.5696 948.271 -260.665)" fill="black"/>
<rect x="930.489" y="-263.984" width="0.633123" height="489.313" transform="rotate(10.5696 930.489 -263.984)" fill="black"/>
<rect x="951.827" y="-260.002" width="0.633123" height="489.313" transform="rotate(10.5696 951.827 -260.002)" fill="black"/>
<rect x="934.045" y="-263.32" width="0.633123" height="489.313" transform="rotate(10.5696 934.045 -263.32)" fill="black"/>
<rect x="955.383" y="-259.338" width="0.633123" height="489.313" transform="rotate(10.5696 955.383 -259.338)" fill="black"/>
<rect x="958.941" y="-258.675" width="0.633123" height="489.313" transform="rotate(10.5696 958.941 -258.675)" fill="black"/>
<rect x="980.279" y="-254.693" width="0.633123" height="489.313" transform="rotate(10.5696 980.279 -254.693)" fill="black"/>
<rect x="962.497" y="-258.011" width="0.633123" height="489.313" transform="rotate(10.5696 962.497 -258.011)" fill="black"/>
<rect x="983.836" y="-254.029" width="0.633123" height="489.313" transform="rotate(10.5696 983.836 -254.029)" fill="black"/>
<rect x="966.053" y="-257.347" width="0.633123" height="489.313" transform="rotate(10.5696 966.053 -257.347)" fill="black"/>
<rect x="987.392" y="-253.366" width="0.633123" height="489.313" transform="rotate(10.5696 987.392 -253.366)" fill="black"/>
<rect x="969.609" y="-256.684" width="0.633123" height="489.313" transform="rotate(10.5696 969.609 -256.684)" fill="black"/>
<rect x="990.949" y="-252.702" width="0.633123" height="489.313" transform="rotate(10.5696 990.949 -252.702)" fill="black"/>
<rect x="973.166" y="-256.02" width="0.633123" height="489.313" transform="rotate(10.5696 973.166 -256.02)" fill="black"/>
<rect x="994.506" y="-252.038" width="0.633123" height="489.313" transform="rotate(10.5696 994.506 -252.038)" fill="black"/>
<rect x="976.723" y="-255.356" width="0.633123" height="489.313" transform="rotate(10.5696 976.723 -255.356)" fill="black"/>
<rect x="998.062" y="-251.375" width="0.633123" height="489.313" transform="rotate(10.5696 998.062 -251.375)" fill="black"/>
<rect x="1001.62" y="-250.711" width="0.633123" height="489.313" transform="rotate(10.5696 1001.62 -250.711)" fill="black"/>
<rect x="1022.96" y="-246.729" width="0.633123" height="489.313" transform="rotate(10.5696 1022.96 -246.729)" fill="black"/>
<rect x="1005.17" y="-250.047" width="0.633123" height="489.313" transform="rotate(10.5696 1005.17 -250.047)" fill="black"/>
<rect x="1026.51" y="-246.066" width="0.633123" height="489.313" transform="rotate(10.5696 1026.51 -246.066)" fill="black"/>
<rect x="1008.73" y="-249.384" width="0.633123" height="489.313" transform="rotate(10.5696 1008.73 -249.384)" fill="black"/>
<rect x="1030.07" y="-245.402" width="0.633123" height="489.313" transform="rotate(10.5696 1030.07 -245.402)" fill="black"/>
<rect x="1012.29" y="-248.72" width="0.633123" height="489.313" transform="rotate(10.5696 1012.29 -248.72)" fill="black"/>
<rect x="1033.63" y="-244.739" width="0.633123" height="489.313" transform="rotate(10.5696 1033.63 -244.739)" fill="black"/>
<rect x="1015.84" y="-248.057" width="0.633123" height="489.313" transform="rotate(10.5696 1015.84 -248.057)" fill="black"/>
<rect x="1037.18" y="-244.075" width="0.633123" height="489.313" transform="rotate(10.5696 1037.18 -244.075)" fill="black"/>
<rect x="1019.4" y="-247.393" width="0.633123" height="489.313" transform="rotate(10.5696 1019.4 -247.393)" fill="black"/>
<rect x="1040.74" y="-243.411" width="0.633123" height="489.313" transform="rotate(10.5696 1040.74 -243.411)" fill="black"/>
<rect x="1044.3" y="-242.748" width="0.633123" height="489.313" transform="rotate(10.5696 1044.3 -242.748)" fill="black"/>
<rect x="1065.63" y="-238.766" width="0.633123" height="489.313" transform="rotate(10.5696 1065.63 -238.766)" fill="black"/>
<rect x="1047.85" y="-242.084" width="0.633123" height="489.313" transform="rotate(10.5696 1047.85 -242.084)" fill="black"/>
<rect x="1069.19" y="-238.102" width="0.633123" height="489.313" transform="rotate(10.5696 1069.19 -238.102)" fill="black"/>
<rect x="1051.41" y="-241.42" width="0.633123" height="489.313" transform="rotate(10.5696 1051.41 -241.42)" fill="black"/>
<rect x="1072.75" y="-237.439" width="0.633123" height="489.313" transform="rotate(10.5696 1072.75 -237.439)" fill="black"/>
<rect x="1054.96" y="-240.757" width="0.633123" height="489.313" transform="rotate(10.5696 1054.96 -240.757)" fill="black"/>
<rect x="1076.3" y="-236.775" width="0.633123" height="489.313" transform="rotate(10.5696 1076.3 -236.775)" fill="black"/>
<rect x="1058.52" y="-240.093" width="0.633123" height="489.313" transform="rotate(10.5696 1058.52 -240.093)" fill="black"/>
<rect x="1079.86" y="-236.111" width="0.633123" height="489.313" transform="rotate(10.5696 1079.86 -236.111)" fill="black"/>
<rect x="1062.08" y="-239.43" width="0.633123" height="489.313" transform="rotate(10.5696 1062.08 -239.43)" fill="black"/>
<rect x="1083.42" y="-235.448" width="0.633123" height="489.313" transform="rotate(10.5696 1083.42 -235.448)" fill="black"/>
<rect x="1086.97" y="-234.784" width="0.633123" height="489.313" transform="rotate(10.5696 1086.97 -234.784)" fill="black"/>
<rect x="1108.31" y="-230.803" width="0.633123" height="489.313" transform="rotate(10.5696 1108.31 -230.803)" fill="black"/>
<rect x="1090.53" y="-234.121" width="0.633123" height="489.313" transform="rotate(10.5696 1090.53 -234.121)" fill="black"/>
<rect x="1111.87" y="-230.139" width="0.633123" height="489.313" transform="rotate(10.5696 1111.87 -230.139)" fill="black"/>
<rect x="1094.09" y="-233.457" width="0.633123" height="489.313" transform="rotate(10.5696 1094.09 -233.457)" fill="black"/>
<rect x="1115.42" y="-229.475" width="0.633123" height="489.313" transform="rotate(10.5696 1115.42 -229.475)" fill="black"/>
<rect x="1097.64" y="-232.793" width="0.633123" height="489.313" transform="rotate(10.5696 1097.64 -232.793)" fill="black"/>
<rect x="1118.98" y="-228.811" width="0.633123" height="489.313" transform="rotate(10.5696 1118.98 -228.811)" fill="black"/>
<rect x="1101.2" y="-232.13" width="0.633123" height="489.313" transform="rotate(10.5696 1101.2 -232.13)" fill="black"/>
<rect x="1122.54" y="-228.148" width="0.633123" height="489.313" transform="rotate(10.5696 1122.54 -228.148)" fill="black"/>
<rect x="1104.75" y="-231.466" width="0.633123" height="489.313" transform="rotate(10.5696 1104.75 -231.466)" fill="black"/>
<rect x="1126.09" y="-227.484" width="0.633123" height="489.313" transform="rotate(10.5696 1126.09 -227.484)" fill="black"/>
<rect x="1129.65" y="-226.821" width="0.633123" height="489.313" transform="rotate(10.5696 1129.65 -226.821)" fill="black"/>
<rect x="1150.99" y="-222.839" width="0.633123" height="489.313" transform="rotate(10.5696 1150.99 -222.839)" fill="black"/>
<rect x="1133.21" y="-226.157" width="0.633123" height="489.313" transform="rotate(10.5696 1133.21 -226.157)" fill="black"/>
<rect x="1154.54" y="-222.175" width="0.633123" height="489.313" transform="rotate(10.5696 1154.54 -222.175)" fill="black"/>
<rect x="1136.76" y="-225.493" width="0.633123" height="489.313" transform="rotate(10.5696 1136.76 -225.493)" fill="black"/>
<rect x="1158.1" y="-221.512" width="0.633123" height="489.313" transform="rotate(10.5696 1158.1 -221.512)" fill="black"/>
<rect x="1140.32" y="-224.83" width="0.633123" height="489.313" transform="rotate(10.5696 1140.32 -224.83)" fill="black"/>
<rect x="1161.66" y="-220.848" width="0.633123" height="489.313" transform="rotate(10.5696 1161.66 -220.848)" fill="black"/>
<rect x="1143.88" y="-224.166" width="0.633123" height="489.313" transform="rotate(10.5696 1143.88 -224.166)" fill="black"/>
<rect x="1165.21" y="-220.184" width="0.633123" height="489.313" transform="rotate(10.5696 1165.21 -220.184)" fill="black"/>
<rect x="1147.43" y="-223.503" width="0.633123" height="489.313" transform="rotate(10.5696 1147.43 -223.503)" fill="black"/>
<rect x="1168.77" y="-219.521" width="0.633123" height="489.313" transform="rotate(10.5696 1168.77 -219.521)" fill="black"/>
<rect x="1172.33" y="-218.857" width="0.633123" height="489.313" transform="rotate(10.5696 1172.33 -218.857)" fill="black"/>
<rect x="1193.67" y="-214.876" width="0.633123" height="489.313" transform="rotate(10.5696 1193.67 -214.876)" fill="black"/>
<rect x="1175.89" y="-218.194" width="0.633123" height="489.313" transform="rotate(10.5696 1175.89 -218.194)" fill="black"/>
<rect x="1197.22" y="-214.212" width="0.633123" height="489.313" transform="rotate(10.5696 1197.22 -214.212)" fill="black"/>
<rect x="1179.44" y="-217.53" width="0.633123" height="489.313" transform="rotate(10.5696 1179.44 -217.53)" fill="black"/>
<rect x="1200.78" y="-213.548" width="0.633123" height="489.313" transform="rotate(10.5696 1200.78 -213.548)" fill="black"/>
<rect x="1183" y="-216.866" width="0.633123" height="489.313" transform="rotate(10.5696 1183 -216.866)" fill="black"/>
<rect x="1204.34" y="-212.885" width="0.633123" height="489.313" transform="rotate(10.5696 1204.34 -212.885)" fill="black"/>
<rect x="1186.55" y="-216.203" width="0.633123" height="489.313" transform="rotate(10.5696 1186.55 -216.203)" fill="black"/>
<rect x="1207.89" y="-212.221" width="0.633123" height="489.313" transform="rotate(10.5696 1207.89 -212.221)" fill="black"/>
<rect x="1190.11" y="-215.539" width="0.633123" height="489.313" transform="rotate(10.5696 1190.11 -215.539)" fill="black"/>
<rect x="1211.45" y="-211.557" width="0.633123" height="489.313" transform="rotate(10.5696 1211.45 -211.557)" fill="black"/>
<rect x="1215.01" y="-210.894" width="0.633123" height="489.313" transform="rotate(10.5696 1215.01 -210.894)" fill="black"/>
<rect x="1236.34" y="-206.912" width="0.633123" height="489.313" transform="rotate(10.5696 1236.34 -206.912)" fill="black"/>
<rect x="1218.56" y="-210.23" width="0.633123" height="489.313" transform="rotate(10.5696 1218.56 -210.23)" fill="black"/>
<rect x="1239.9" y="-206.249" width="0.633123" height="489.313" transform="rotate(10.5696 1239.9 -206.249)" fill="black"/>
<rect x="1222.12" y="-209.567" width="0.633123" height="489.313" transform="rotate(10.5696 1222.12 -209.567)" fill="black"/>
<rect x="1243.46" y="-205.585" width="0.633123" height="489.313" transform="rotate(10.5696 1243.46 -205.585)" fill="black"/>
<rect x="1225.68" y="-208.903" width="0.633123" height="489.313" transform="rotate(10.5696 1225.68 -208.903)" fill="black"/>
<rect x="1247.01" y="-204.921" width="0.633123" height="489.313" transform="rotate(10.5696 1247.01 -204.921)" fill="black"/>
<rect x="1229.23" y="-208.239" width="0.633123" height="489.313" transform="rotate(10.5696 1229.23 -208.239)" fill="black"/>
<rect x="1250.57" y="-204.258" width="0.633123" height="489.313" transform="rotate(10.5696 1250.57 -204.258)" fill="black"/>
<rect x="1232.79" y="-207.576" width="0.633123" height="489.313" transform="rotate(10.5696 1232.79 -207.576)" fill="black"/>
<rect x="1254.13" y="-203.594" width="0.633123" height="489.313" transform="rotate(10.5696 1254.13 -203.594)" fill="black"/>
<rect x="1257.55" y="-202.278" width="0.633123" height="489.313" transform="rotate(10.5696 1257.55 -202.278)" fill="black"/>
<rect x="1278.89" y="-198.296" width="0.633123" height="489.313" transform="rotate(10.5696 1278.89 -198.296)" fill="black"/>
<rect x="1261.11" y="-201.614" width="0.633123" height="489.313" transform="rotate(10.5696 1261.11 -201.614)" fill="black"/>
<rect x="1264.67" y="-200.95" width="0.633123" height="489.313" transform="rotate(10.5696 1264.67 -200.95)" fill="black"/>
<rect x="1268.22" y="-200.287" width="0.633123" height="489.313" transform="rotate(10.5696 1268.22 -200.287)" fill="black"/>
<rect x="1271.78" y="-199.623" width="0.633123" height="489.313" transform="rotate(10.5696 1271.78 -199.623)" fill="black"/>
<rect x="1275.34" y="-198.96" width="0.633123" height="489.313" transform="rotate(10.5696 1275.34 -198.96)" fill="black"/>
<rect x="425.204" y="138.757" width="0.633123" height="489.313" transform="rotate(10.5696 425.204 138.757)" fill="black"/>
<rect x="446.542" y="142.739" width="0.633123" height="489.313" transform="rotate(10.5696 446.542 142.739)" fill="black"/>
<rect x="428.76" y="139.421" width="0.633123" height="489.313" transform="rotate(10.5696 428.76 139.421)" fill="black"/>
<rect x="450.098" y="143.403" width="0.633123" height="489.313" transform="rotate(10.5696 450.098 143.403)" fill="black"/>
<rect x="432.316" y="140.085" width="0.633123" height="489.313" transform="rotate(10.5696 432.316 140.085)" fill="black"/>
<rect x="453.656" y="144.066" width="0.633123" height="489.313" transform="rotate(10.5696 453.656 144.066)" fill="black"/>
<rect x="435.874" y="140.748" width="0.633123" height="489.313" transform="rotate(10.5696 435.874 140.748)" fill="black"/>
<rect x="457.212" y="144.73" width="0.633123" height="489.313" transform="rotate(10.5696 457.212 144.73)" fill="black"/>
<rect x="439.43" y="141.412" width="0.633123" height="489.313" transform="rotate(10.5696 439.43 141.412)" fill="black"/>
<rect x="460.768" y="145.393" width="0.633123" height="489.313" transform="rotate(10.5696 460.768 145.393)" fill="black"/>
<rect x="442.986" y="142.075" width="0.633123" height="489.313" transform="rotate(10.5696 442.986 142.075)" fill="black"/>
<rect x="464.324" y="146.057" width="0.633123" height="489.313" transform="rotate(10.5696 464.324 146.057)" fill="black"/>
<rect x="467.882" y="146.721" width="0.633123" height="489.313" transform="rotate(10.5696 467.882 146.721)" fill="black"/>
<rect x="489.22" y="150.702" width="0.633123" height="489.313" transform="rotate(10.5696 489.22 150.702)" fill="black"/>
<rect x="471.438" y="147.384" width="0.633123" height="489.313" transform="rotate(10.5696 471.438 147.384)" fill="black"/>
<rect x="492.776" y="151.366" width="0.633123" height="489.313" transform="rotate(10.5696 492.776 151.366)" fill="black"/>
<rect x="474.994" y="148.048" width="0.633123" height="489.313" transform="rotate(10.5696 474.994 148.048)" fill="black"/>
<rect x="496.332" y="152.03" width="0.633123" height="489.313" transform="rotate(10.5696 496.332 152.03)" fill="black"/>
<rect x="478.55" y="148.712" width="0.633123" height="489.313" transform="rotate(10.5696 478.55 148.712)" fill="black"/>
<rect x="499.888" y="152.693" width="0.633123" height="489.313" transform="rotate(10.5696 499.888 152.693)" fill="black"/>
<rect x="482.106" y="149.375" width="0.633123" height="489.313" transform="rotate(10.5696 482.106 149.375)" fill="black"/>
<rect x="503.446" y="153.357" width="0.633123" height="489.313" transform="rotate(10.5696 503.446 153.357)" fill="black"/>
<rect x="485.664" y="150.039" width="0.633123" height="489.313" transform="rotate(10.5696 485.664 150.039)" fill="black"/>
<rect x="507.002" y="154.02" width="0.633123" height="489.313" transform="rotate(10.5696 507.002 154.02)" fill="black"/>
<rect x="510.558" y="154.684" width="0.633123" height="489.313" transform="rotate(10.5696 510.558 154.684)" fill="black"/>
<rect x="531.896" y="158.666" width="0.633123" height="489.313" transform="rotate(10.5696 531.896 158.666)" fill="black"/>
<rect x="514.114" y="155.348" width="0.633123" height="489.313" transform="rotate(10.5696 514.114 155.348)" fill="black"/>
<rect x="535.454" y="159.33" width="0.633123" height="489.313" transform="rotate(10.5696 535.454 159.33)" fill="black"/>
<rect x="517.672" y="156.011" width="0.633123" height="489.313" transform="rotate(10.5696 517.672 156.011)" fill="black"/>
<rect x="539.011" y="159.993" width="0.633123" height="489.313" transform="rotate(10.5696 539.011 159.993)" fill="black"/>
<rect x="521.228" y="156.675" width="0.633123" height="489.313" transform="rotate(10.5696 521.228 156.675)" fill="black"/>
<rect x="542.566" y="160.657" width="0.633123" height="489.313" transform="rotate(10.5696 542.566 160.657)" fill="black"/>
<rect x="524.784" y="157.339" width="0.633123" height="489.313" transform="rotate(10.5696 524.784 157.339)" fill="black"/>
<rect x="546.123" y="161.32" width="0.633123" height="489.313" transform="rotate(10.5696 546.123 161.32)" fill="black"/>
<rect x="528.341" y="158.002" width="0.633123" height="489.313" transform="rotate(10.5696 528.341 158.002)" fill="black"/>
<rect x="549.68" y="161.984" width="0.633123" height="489.313" transform="rotate(10.5696 549.68 161.984)" fill="black"/>
<rect x="553.236" y="162.648" width="0.633123" height="489.313" transform="rotate(10.5696 553.236 162.648)" fill="black"/>
<rect x="574.575" y="166.629" width="0.633123" height="489.313" transform="rotate(10.5696 574.575 166.629)" fill="black"/>
<rect x="556.792" y="163.311" width="0.633123" height="489.313" transform="rotate(10.5696 556.792 163.311)" fill="black"/>
<rect x="578.131" y="167.293" width="0.633123" height="489.313" transform="rotate(10.5696 578.131 167.293)" fill="black"/>
<rect x="560.349" y="163.975" width="0.633123" height="489.313" transform="rotate(10.5696 560.349 163.975)" fill="black"/>
<rect x="581.687" y="167.957" width="0.633123" height="489.313" transform="rotate(10.5696 581.687 167.957)" fill="black"/>
<rect x="563.905" y="164.639" width="0.633123" height="489.313" transform="rotate(10.5696 563.905 164.639)" fill="black"/>
<rect x="585.245" y="168.62" width="0.633123" height="489.313" transform="rotate(10.5696 585.245 168.62)" fill="black"/>
<rect x="567.463" y="165.302" width="0.633123" height="489.313" transform="rotate(10.5696 567.463 165.302)" fill="black"/>
<rect x="588.801" y="169.284" width="0.633123" height="489.313" transform="rotate(10.5696 588.801 169.284)" fill="black"/>
<rect x="571.019" y="165.966" width="0.633123" height="489.313" transform="rotate(10.5696 571.019 165.966)" fill="black"/>
<rect x="592.357" y="169.947" width="0.633123" height="489.313" transform="rotate(10.5696 592.357 169.947)" fill="black"/>
<rect x="595.913" y="170.611" width="0.633123" height="489.313" transform="rotate(10.5696 595.913 170.611)" fill="black"/>
<rect x="617.253" y="174.593" width="0.633123" height="489.313" transform="rotate(10.5696 617.253 174.593)" fill="black"/>
<rect x="599.471" y="171.275" width="0.633123" height="489.313" transform="rotate(10.5696 599.471 171.275)" fill="black"/>
<rect x="620.809" y="175.256" width="0.633123" height="489.313" transform="rotate(10.5696 620.809 175.256)" fill="black"/>
<rect x="603.027" y="171.938" width="0.633123" height="489.313" transform="rotate(10.5696 603.027 171.938)" fill="black"/>
<rect x="624.365" y="175.92" width="0.633123" height="489.313" transform="rotate(10.5696 624.365 175.92)" fill="black"/>
<rect x="606.583" y="172.602" width="0.633123" height="489.313" transform="rotate(10.5696 606.583 172.602)" fill="black"/>
<rect x="610.139" y="173.266" width="0.633123" height="489.313" transform="rotate(10.5696 610.139 173.266)" fill="black"/>
<rect x="613.695" y="173.929" width="0.633123" height="489.313" transform="rotate(10.5696 613.695 173.929)" fill="black"/>
</g>
</svg>
