<svg width="468" height="740" viewBox="0 0 468 740" fill="none" xmlns="http://www.w3.org/2000/svg">
<mask id="mask0_187_4465" style="mask-type:alpha" maskUnits="userSpaceOnUse" x="0" y="0" width="468" height="740">
<rect width="468" height="740" fill="white" fill-opacity="0.14"/>
</mask>
<g mask="url(#mask0_187_4465)">
<rect x="4.83887" y="-91.1454" width="1.07647" height="831.954" transform="rotate(10.5696 4.83887 -91.1454)" fill="white" fill-opacity="0.62"/>
<rect x="10.8853" y="-90.017" width="1.07647" height="831.954" transform="rotate(10.5696 10.8853 -90.017)" fill="white" fill-opacity="0.62"/>
<rect x="16.9314" y="-88.8886" width="1.07647" height="831.954" transform="rotate(10.5696 16.9314 -88.8886)" fill="white" fill-opacity="0.62"/>
<rect x="22.9807" y="-87.7605" width="1.07647" height="831.954" transform="rotate(10.5696 22.9807 -87.7605)" fill="white" fill-opacity="0.62"/>
<rect x="59.2607" y="-80.9905" width="1.07647" height="831.954" transform="rotate(10.5696 59.2607 -80.9905)" fill="white" fill-opacity="0.62"/>
<rect x="29.0269" y="-86.6321" width="1.07647" height="831.954" transform="rotate(10.5696 29.0269 -86.6321)" fill="white" fill-opacity="0.62"/>
<rect x="65.3071" y="-79.8622" width="1.07647" height="831.954" transform="rotate(10.5696 65.3071 -79.8622)" fill="white" fill-opacity="0.62"/>
<rect x="35.0728" y="-85.5037" width="1.07647" height="831.954" transform="rotate(10.5696 35.0728 -85.5037)" fill="white" fill-opacity="0.62"/>
<rect x="71.3533" y="-78.7337" width="1.07647" height="831.954" transform="rotate(10.5696 71.3533 -78.7337)" fill="white" fill-opacity="0.62"/>
<rect x="41.1194" y="-84.3754" width="1.07647" height="831.954" transform="rotate(10.5696 41.1194 -84.3754)" fill="white" fill-opacity="0.62"/>
<rect x="77.3994" y="-77.6053" width="1.07647" height="831.954" transform="rotate(10.5696 77.3994 -77.6053)" fill="white" fill-opacity="0.62"/>
<rect x="47.1655" y="-83.2471" width="1.07647" height="831.954" transform="rotate(10.5696 47.1655 -83.2471)" fill="white" fill-opacity="0.62"/>
<rect x="83.4487" y="-76.4772" width="1.07647" height="831.954" transform="rotate(10.5696 83.4487 -76.4772)" fill="white" fill-opacity="0.62"/>
<rect x="53.2148" y="-82.1189" width="1.07647" height="831.954" transform="rotate(10.5696 53.2148 -82.1189)" fill="white" fill-opacity="0.62"/>
<rect x="89.4949" y="-75.3489" width="1.07647" height="831.954" transform="rotate(10.5696 89.4949 -75.3489)" fill="white" fill-opacity="0.62"/>
<rect x="95.541" y="-74.2205" width="1.07647" height="831.954" transform="rotate(10.5696 95.541 -74.2205)" fill="white" fill-opacity="0.62"/>
<rect x="131.822" y="-67.4505" width="1.07647" height="831.954" transform="rotate(10.5696 131.822 -67.4505)" fill="white" fill-opacity="0.62"/>
<rect x="101.587" y="-73.0921" width="1.07647" height="831.954" transform="rotate(10.5696 101.587 -73.0921)" fill="white" fill-opacity="0.62"/>
<rect x="137.871" y="-66.3224" width="1.07647" height="831.954" transform="rotate(10.5696 137.871 -66.3224)" fill="white" fill-opacity="0.62"/>
<rect x="107.637" y="-71.964" width="1.07647" height="831.954" transform="rotate(10.5696 107.637 -71.964)" fill="white" fill-opacity="0.62"/>
<rect x="143.917" y="-65.1939" width="1.07647" height="831.954" transform="rotate(10.5696 143.917 -65.1939)" fill="white" fill-opacity="0.62"/>
<rect x="113.683" y="-70.8356" width="1.07647" height="831.954" transform="rotate(10.5696 113.683 -70.8356)" fill="white" fill-opacity="0.62"/>
<rect x="149.963" y="-64.0656" width="1.07647" height="831.954" transform="rotate(10.5696 149.963 -64.0656)" fill="white" fill-opacity="0.62"/>
<rect x="119.729" y="-69.7072" width="1.07647" height="831.954" transform="rotate(10.5696 119.729 -69.7072)" fill="white" fill-opacity="0.62"/>
<rect x="156.009" y="-62.9372" width="1.07647" height="831.954" transform="rotate(10.5696 156.009 -62.9372)" fill="white" fill-opacity="0.62"/>
<rect x="125.775" y="-68.5788" width="1.07647" height="831.954" transform="rotate(10.5696 125.775 -68.5788)" fill="white" fill-opacity="0.62"/>
<rect x="162.056" y="-61.8088" width="1.07647" height="831.954" transform="rotate(10.5696 162.056 -61.8088)" fill="white" fill-opacity="0.62"/>
<rect x="167.319" y="-60.8271" width="1.07647" height="831.954" transform="rotate(10.5696 167.319 -60.8271)" fill="white" fill-opacity="0.62"/>
<rect x="203.599" y="-54.0572" width="1.07647" height="831.954" transform="rotate(10.5696 203.599 -54.0572)" fill="white" fill-opacity="0.62"/>
<rect x="173.365" y="-59.6989" width="1.07647" height="831.954" transform="rotate(10.5696 173.365 -59.6989)" fill="white" fill-opacity="0.62"/>
<rect x="209.648" y="-52.9291" width="1.07647" height="831.954" transform="rotate(10.5696 209.648 -52.9291)" fill="white" fill-opacity="0.62"/>
<rect x="179.411" y="-58.5705" width="1.07647" height="831.954" transform="rotate(10.5696 179.411 -58.5705)" fill="white" fill-opacity="0.62"/>
<rect x="215.695" y="-51.8007" width="1.07647" height="831.954" transform="rotate(10.5696 215.695 -51.8007)" fill="white" fill-opacity="0.62"/>
<rect x="185.461" y="-57.4423" width="1.07647" height="831.954" transform="rotate(10.5696 185.461 -57.4423)" fill="white" fill-opacity="0.62"/>
<rect x="221.741" y="-50.6723" width="1.07647" height="831.954" transform="rotate(10.5696 221.741 -50.6723)" fill="white" fill-opacity="0.62"/>
<rect x="191.507" y="-56.314" width="1.07647" height="831.954" transform="rotate(10.5696 191.507 -56.314)" fill="white" fill-opacity="0.62"/>
<rect x="227.787" y="-49.5439" width="1.07647" height="831.954" transform="rotate(10.5696 227.787 -49.5439)" fill="white" fill-opacity="0.62"/>
<rect x="197.553" y="-55.1856" width="1.07647" height="831.954" transform="rotate(10.5696 197.553 -55.1856)" fill="white" fill-opacity="0.62"/>
<rect x="233.833" y="-48.4155" width="1.07647" height="831.954" transform="rotate(10.5696 233.833 -48.4155)" fill="white" fill-opacity="0.62"/>
<rect x="239.882" y="-47.2874" width="1.07647" height="831.954" transform="rotate(10.5696 239.882 -47.2874)" fill="white" fill-opacity="0.62"/>
<rect x="276.163" y="-40.5175" width="1.07647" height="831.954" transform="rotate(10.5696 276.163 -40.5175)" fill="white" fill-opacity="0.62"/>
<rect x="245.929" y="-46.1591" width="1.07647" height="831.954" transform="rotate(10.5696 245.929 -46.1591)" fill="white" fill-opacity="0.62"/>
<rect x="282.209" y="-39.389" width="1.07647" height="831.954" transform="rotate(10.5696 282.209 -39.389)" fill="white" fill-opacity="0.62"/>
<rect x="251.975" y="-45.0306" width="1.07647" height="831.954" transform="rotate(10.5696 251.975 -45.0306)" fill="white" fill-opacity="0.62"/>
<rect x="288.255" y="-38.2608" width="1.07647" height="831.954" transform="rotate(10.5696 288.255 -38.2608)" fill="white" fill-opacity="0.62"/>
<rect x="258.021" y="-43.9023" width="1.07647" height="831.954" transform="rotate(10.5696 258.021 -43.9023)" fill="white" fill-opacity="0.62"/>
<rect x="294.305" y="-37.1327" width="1.07647" height="831.954" transform="rotate(10.5696 294.305 -37.1327)" fill="white" fill-opacity="0.62"/>
<rect x="264.067" y="-42.774" width="1.07647" height="831.954" transform="rotate(10.5696 264.067 -42.774)" fill="white" fill-opacity="0.62"/>
<rect x="300.351" y="-36.0042" width="1.07647" height="831.954" transform="rotate(10.5696 300.351 -36.0042)" fill="white" fill-opacity="0.62"/>
<rect x="270.116" y="-41.6459" width="1.07647" height="831.954" transform="rotate(10.5696 270.116 -41.6459)" fill="white" fill-opacity="0.62"/>
<rect x="306.397" y="-34.8758" width="1.07647" height="831.954" transform="rotate(10.5696 306.397 -34.8758)" fill="white" fill-opacity="0.62"/>
<rect x="312.443" y="-33.7475" width="1.07647" height="831.954" transform="rotate(10.5696 312.443 -33.7475)" fill="white" fill-opacity="0.62"/>
<rect x="348.723" y="-26.9775" width="1.07647" height="831.954" transform="rotate(10.5696 348.723 -26.9775)" fill="white" fill-opacity="0.62"/>
<rect x="318.49" y="-32.6192" width="1.07647" height="831.954" transform="rotate(10.5696 318.49 -32.6192)" fill="white" fill-opacity="0.62"/>
<rect x="354.772" y="-25.8492" width="1.07647" height="831.954" transform="rotate(10.5696 354.772 -25.8492)" fill="white" fill-opacity="0.62"/>
<rect x="324.538" y="-31.4909" width="1.07647" height="831.954" transform="rotate(10.5696 324.538 -31.4909)" fill="white" fill-opacity="0.62"/>
<rect x="360.819" y="-24.721" width="1.07647" height="831.954" transform="rotate(10.5696 360.819 -24.721)" fill="white" fill-opacity="0.62"/>
<rect x="330.584" y="-30.3625" width="1.07647" height="831.954" transform="rotate(10.5696 330.584 -30.3625)" fill="white" fill-opacity="0.62"/>
<rect x="366.865" y="-23.5926" width="1.07647" height="831.954" transform="rotate(10.5696 366.865 -23.5926)" fill="white" fill-opacity="0.62"/>
<rect x="336.631" y="-29.2343" width="1.07647" height="831.954" transform="rotate(10.5696 336.631 -29.2343)" fill="white" fill-opacity="0.62"/>
<rect x="372.911" y="-22.4642" width="1.07647" height="831.954" transform="rotate(10.5696 372.911 -22.4642)" fill="white" fill-opacity="0.62"/>
<rect x="342.677" y="-28.1059" width="1.07647" height="831.954" transform="rotate(10.5696 342.677 -28.1059)" fill="white" fill-opacity="0.62"/>
<rect x="378.96" y="-21.3361" width="1.07647" height="831.954" transform="rotate(10.5696 378.96 -21.3361)" fill="white" fill-opacity="0.62"/>
<rect x="385.007" y="-20.2077" width="1.07647" height="831.954" transform="rotate(10.5696 385.007 -20.2077)" fill="white" fill-opacity="0.62"/>
<rect x="421.287" y="-13.4376" width="1.07647" height="831.954" transform="rotate(10.5696 421.287 -13.4376)" fill="white" fill-opacity="0.62"/>
<rect x="391.053" y="-19.0793" width="1.07647" height="831.954" transform="rotate(10.5696 391.053 -19.0793)" fill="white" fill-opacity="0.62"/>
<rect x="427.333" y="-12.3094" width="1.07647" height="831.954" transform="rotate(10.5696 427.333 -12.3094)" fill="white" fill-opacity="0.62"/>
<rect x="397.099" y="-17.951" width="1.07647" height="831.954" transform="rotate(10.5696 397.099 -17.951)" fill="white" fill-opacity="0.62"/>
<rect x="433.382" y="-11.1812" width="1.07647" height="831.954" transform="rotate(10.5696 433.382 -11.1812)" fill="white" fill-opacity="0.62"/>
<rect x="403.145" y="-16.8225" width="1.07647" height="831.954" transform="rotate(10.5696 403.145 -16.8225)" fill="white" fill-opacity="0.62"/>
<rect x="439.428" y="-10.0529" width="1.07647" height="831.954" transform="rotate(10.5696 439.428 -10.0529)" fill="white" fill-opacity="0.62"/>
<rect x="409.194" y="-15.6945" width="1.07647" height="831.954" transform="rotate(10.5696 409.194 -15.6945)" fill="white" fill-opacity="0.62"/>
<rect x="445.475" y="-8.9245" width="1.07647" height="831.954" transform="rotate(10.5696 445.475 -8.9245)" fill="white" fill-opacity="0.62"/>
<rect x="415.241" y="-14.5661" width="1.07647" height="831.954" transform="rotate(10.5696 415.241 -14.5661)" fill="white" fill-opacity="0.62"/>
<rect x="451.521" y="-7.79608" width="1.07647" height="831.954" transform="rotate(10.5696 451.521 -7.79608)" fill="white" fill-opacity="0.62"/>
<rect x="457.567" y="-6.66766" width="1.07647" height="831.954" transform="rotate(10.5696 457.567 -6.66766)" fill="white" fill-opacity="0.62"/>
<rect x="493.85" y="0.10202" width="1.07647" height="831.954" transform="rotate(10.5696 493.85 0.10202)" fill="white" fill-opacity="0.62"/>
<rect x="463.616" y="-5.53961" width="1.07647" height="831.954" transform="rotate(10.5696 463.616 -5.53961)" fill="white" fill-opacity="0.62"/>
<rect x="499.897" y="1.2305" width="1.07647" height="831.954" transform="rotate(10.5696 499.897 1.2305)" fill="white" fill-opacity="0.62"/>
<rect x="469.663" y="-4.41125" width="1.07647" height="831.954" transform="rotate(10.5696 469.663 -4.41125)" fill="white" fill-opacity="0.62"/>
<rect x="505.943" y="2.3588" width="1.07647" height="831.954" transform="rotate(10.5696 505.943 2.3588)" fill="white" fill-opacity="0.62"/>
<rect x="475.709" y="-3.28278" width="1.07647" height="831.954" transform="rotate(10.5696 475.709 -3.28278)" fill="white" fill-opacity="0.62"/>
<rect x="511.989" y="3.48718" width="1.07647" height="831.954" transform="rotate(10.5696 511.989 3.48718)" fill="white" fill-opacity="0.62"/>
<rect x="481.755" y="-2.15448" width="1.07647" height="831.954" transform="rotate(10.5696 481.755 -2.15448)" fill="white" fill-opacity="0.62"/>
<rect x="518.038" y="4.61539" width="1.07647" height="831.954" transform="rotate(10.5696 518.038 4.61539)" fill="white" fill-opacity="0.62"/>
<rect x="487.801" y="-1.02612" width="1.07647" height="831.954" transform="rotate(10.5696 487.801 -1.02612)" fill="white" fill-opacity="0.62"/>
<rect x="524.084" y="5.74371" width="1.07647" height="831.954" transform="rotate(10.5696 524.084 5.74371)" fill="white" fill-opacity="0.62"/>
<rect x="530.131" y="6.87207" width="1.07647" height="831.954" transform="rotate(10.5696 530.131 6.87207)" fill="white" fill-opacity="0.62"/>
<rect x="566.411" y="13.6421" width="1.07647" height="831.954" transform="rotate(10.5696 566.411 13.6421)" fill="white" fill-opacity="0.62"/>
<rect x="536.177" y="8.00043" width="1.07647" height="831.954" transform="rotate(10.5696 536.177 8.00043)" fill="white" fill-opacity="0.62"/>
<rect x="572.457" y="14.7704" width="1.07647" height="831.954" transform="rotate(10.5696 572.457 14.7704)" fill="white" fill-opacity="0.62"/>
<rect x="542.223" y="9.12878" width="1.07647" height="831.954" transform="rotate(10.5696 542.223 9.12878)" fill="white" fill-opacity="0.62"/>
<rect x="578.506" y="15.8986" width="1.07647" height="831.954" transform="rotate(10.5696 578.506 15.8986)" fill="white" fill-opacity="0.62"/>
<rect x="548.272" y="10.2569" width="1.07647" height="831.954" transform="rotate(10.5696 548.272 10.2569)" fill="white" fill-opacity="0.62"/>
<rect x="584.552" y="17.0269" width="1.07647" height="831.954" transform="rotate(10.5696 584.552 17.0269)" fill="white" fill-opacity="0.62"/>
<rect x="554.319" y="11.3854" width="1.07647" height="831.954" transform="rotate(10.5696 554.319 11.3854)" fill="white" fill-opacity="0.62"/>
<rect x="590.599" y="18.1553" width="1.07647" height="831.954" transform="rotate(10.5696 590.599 18.1553)" fill="white" fill-opacity="0.62"/>
<rect x="560.365" y="12.5137" width="1.07647" height="831.954" transform="rotate(10.5696 560.365 12.5137)" fill="white" fill-opacity="0.62"/>
<rect x="596.645" y="19.2837" width="1.07647" height="831.954" transform="rotate(10.5696 596.645 19.2837)" fill="white" fill-opacity="0.62"/>
<rect x="602.694" y="20.4118" width="1.07647" height="831.954" transform="rotate(10.5696 602.694 20.4118)" fill="white" fill-opacity="0.62"/>
<rect x="608.741" y="21.5402" width="1.07647" height="831.954" transform="rotate(10.5696 608.741 21.5402)" fill="white" fill-opacity="0.62"/>
<rect x="614.786" y="22.6685" width="1.07647" height="831.954" transform="rotate(10.5696 614.786 22.6685)" fill="white" fill-opacity="0.62"/>
</g>
</svg>
