<svg width="711" height="630" viewBox="0 0 711 630" fill="none" xmlns="http://www.w3.org/2000/svg">
<mask id="mask0_187_6776" style="mask-type:alpha" maskUnits="userSpaceOnUse" x="0" y="0" width="711" height="630">
<rect width="711" height="630" fill="white" fill-opacity="0.14"/>
</mask>
<g mask="url(#mask0_187_6776)">
<rect x="4.83899" y="-130.146" width="1.07647" height="831.954" transform="rotate(10.5696 4.83899 -130.146)" fill="white" fill-opacity="0.62"/>
<rect x="10.8853" y="-129.017" width="1.07647" height="831.954" transform="rotate(10.5696 10.8853 -129.017)" fill="white" fill-opacity="0.62"/>
<rect x="16.9314" y="-127.889" width="1.07647" height="831.954" transform="rotate(10.5696 16.9314 -127.889)" fill="white" fill-opacity="0.62"/>
<rect x="22.9807" y="-126.76" width="1.07647" height="831.954" transform="rotate(10.5696 22.9807 -126.76)" fill="white" fill-opacity="0.62"/>
<rect x="59.2609" y="-119.991" width="1.07647" height="831.954" transform="rotate(10.5696 59.2609 -119.991)" fill="white" fill-opacity="0.62"/>
<rect x="29.0269" y="-125.632" width="1.07647" height="831.954" transform="rotate(10.5696 29.0269 -125.632)" fill="white" fill-opacity="0.62"/>
<rect x="65.3073" y="-118.862" width="1.07647" height="831.954" transform="rotate(10.5696 65.3073 -118.862)" fill="white" fill-opacity="0.62"/>
<rect x="35.0729" y="-124.504" width="1.07647" height="831.954" transform="rotate(10.5696 35.0729 -124.504)" fill="white" fill-opacity="0.62"/>
<rect x="71.3533" y="-117.734" width="1.07647" height="831.954" transform="rotate(10.5696 71.3533 -117.734)" fill="white" fill-opacity="0.62"/>
<rect x="41.1195" y="-123.375" width="1.07647" height="831.954" transform="rotate(10.5696 41.1195 -123.375)" fill="white" fill-opacity="0.62"/>
<rect x="77.3995" y="-116.605" width="1.07647" height="831.954" transform="rotate(10.5696 77.3995 -116.605)" fill="white" fill-opacity="0.62"/>
<rect x="47.1655" y="-122.247" width="1.07647" height="831.954" transform="rotate(10.5696 47.1655 -122.247)" fill="white" fill-opacity="0.62"/>
<rect x="83.4487" y="-115.477" width="1.07647" height="831.954" transform="rotate(10.5696 83.4487 -115.477)" fill="white" fill-opacity="0.62"/>
<rect x="53.2148" y="-121.119" width="1.07647" height="831.954" transform="rotate(10.5696 53.2148 -121.119)" fill="white" fill-opacity="0.62"/>
<rect x="89.4951" y="-114.349" width="1.07647" height="831.954" transform="rotate(10.5696 89.4951 -114.349)" fill="white" fill-opacity="0.62"/>
<rect x="95.541" y="-113.22" width="1.07647" height="831.954" transform="rotate(10.5696 95.541 -113.22)" fill="white" fill-opacity="0.62"/>
<rect x="131.821" y="-106.451" width="1.07647" height="831.954" transform="rotate(10.5696 131.821 -106.451)" fill="white" fill-opacity="0.62"/>
<rect x="101.587" y="-112.092" width="1.07647" height="831.954" transform="rotate(10.5696 101.587 -112.092)" fill="white" fill-opacity="0.62"/>
<rect x="137.871" y="-105.322" width="1.07647" height="831.954" transform="rotate(10.5696 137.871 -105.322)" fill="white" fill-opacity="0.62"/>
<rect x="107.637" y="-110.964" width="1.07647" height="831.954" transform="rotate(10.5696 107.637 -110.964)" fill="white" fill-opacity="0.62"/>
<rect x="143.917" y="-104.194" width="1.07647" height="831.954" transform="rotate(10.5696 143.917 -104.194)" fill="white" fill-opacity="0.62"/>
<rect x="113.683" y="-109.835" width="1.07647" height="831.954" transform="rotate(10.5696 113.683 -109.835)" fill="white" fill-opacity="0.62"/>
<rect x="149.963" y="-103.065" width="1.07647" height="831.954" transform="rotate(10.5696 149.963 -103.065)" fill="white" fill-opacity="0.62"/>
<rect x="119.729" y="-108.707" width="1.07647" height="831.954" transform="rotate(10.5696 119.729 -108.707)" fill="white" fill-opacity="0.62"/>
<rect x="156.009" y="-101.937" width="1.07647" height="831.954" transform="rotate(10.5696 156.009 -101.937)" fill="white" fill-opacity="0.62"/>
<rect x="125.775" y="-107.579" width="1.07647" height="831.954" transform="rotate(10.5696 125.775 -107.579)" fill="white" fill-opacity="0.62"/>
<rect x="162.056" y="-100.809" width="1.07647" height="831.954" transform="rotate(10.5696 162.056 -100.809)" fill="white" fill-opacity="0.62"/>
<rect x="167.319" y="-99.8271" width="1.07647" height="831.954" transform="rotate(10.5696 167.319 -99.8271)" fill="white" fill-opacity="0.62"/>
<rect x="203.599" y="-93.0571" width="1.07647" height="831.954" transform="rotate(10.5696 203.599 -93.0571)" fill="white" fill-opacity="0.62"/>
<rect x="173.365" y="-98.6987" width="1.07647" height="831.954" transform="rotate(10.5696 173.365 -98.6987)" fill="white" fill-opacity="0.62"/>
<rect x="209.649" y="-91.9292" width="1.07647" height="831.954" transform="rotate(10.5696 209.649 -91.9292)" fill="white" fill-opacity="0.62"/>
<rect x="179.411" y="-97.5703" width="1.07647" height="831.954" transform="rotate(10.5696 179.411 -97.5703)" fill="white" fill-opacity="0.62"/>
<rect x="215.695" y="-90.8008" width="1.07647" height="831.954" transform="rotate(10.5696 215.695 -90.8008)" fill="white" fill-opacity="0.62"/>
<rect x="185.461" y="-96.4424" width="1.07647" height="831.954" transform="rotate(10.5696 185.461 -96.4424)" fill="white" fill-opacity="0.62"/>
<rect x="221.741" y="-89.6724" width="1.07647" height="831.954" transform="rotate(10.5696 221.741 -89.6724)" fill="white" fill-opacity="0.62"/>
<rect x="191.507" y="-95.314" width="1.07647" height="831.954" transform="rotate(10.5696 191.507 -95.314)" fill="white" fill-opacity="0.62"/>
<rect x="227.787" y="-88.5439" width="1.07647" height="831.954" transform="rotate(10.5696 227.787 -88.5439)" fill="white" fill-opacity="0.62"/>
<rect x="197.553" y="-94.1855" width="1.07647" height="831.954" transform="rotate(10.5696 197.553 -94.1855)" fill="white" fill-opacity="0.62"/>
<rect x="233.833" y="-87.4155" width="1.07647" height="831.954" transform="rotate(10.5696 233.833 -87.4155)" fill="white" fill-opacity="0.62"/>
<rect x="239.882" y="-86.2876" width="1.07647" height="831.954" transform="rotate(10.5696 239.882 -86.2876)" fill="white" fill-opacity="0.62"/>
<rect x="276.163" y="-79.5176" width="1.07647" height="831.954" transform="rotate(10.5696 276.163 -79.5176)" fill="white" fill-opacity="0.62"/>
<rect x="245.929" y="-85.1592" width="1.07647" height="831.954" transform="rotate(10.5696 245.929 -85.1592)" fill="white" fill-opacity="0.62"/>
<rect x="282.209" y="-78.3892" width="1.07647" height="831.954" transform="rotate(10.5696 282.209 -78.3892)" fill="white" fill-opacity="0.62"/>
<rect x="251.975" y="-84.0308" width="1.07647" height="831.954" transform="rotate(10.5696 251.975 -84.0308)" fill="white" fill-opacity="0.62"/>
<rect x="288.255" y="-77.2607" width="1.07647" height="831.954" transform="rotate(10.5696 288.255 -77.2607)" fill="white" fill-opacity="0.62"/>
<rect x="258.021" y="-82.9023" width="1.07647" height="831.954" transform="rotate(10.5696 258.021 -82.9023)" fill="white" fill-opacity="0.62"/>
<rect x="294.305" y="-76.1328" width="1.07647" height="831.954" transform="rotate(10.5696 294.305 -76.1328)" fill="white" fill-opacity="0.62"/>
<rect x="264.067" y="-81.7739" width="1.07647" height="831.954" transform="rotate(10.5696 264.067 -81.7739)" fill="white" fill-opacity="0.62"/>
<rect x="300.351" y="-75.0044" width="1.07647" height="831.954" transform="rotate(10.5696 300.351 -75.0044)" fill="white" fill-opacity="0.62"/>
<rect x="270.116" y="-80.646" width="1.07647" height="831.954" transform="rotate(10.5696 270.116 -80.646)" fill="white" fill-opacity="0.62"/>
<rect x="306.397" y="-73.876" width="1.07647" height="831.954" transform="rotate(10.5696 306.397 -73.876)" fill="white" fill-opacity="0.62"/>
<rect x="312.443" y="-72.7476" width="1.07647" height="831.954" transform="rotate(10.5696 312.443 -72.7476)" fill="white" fill-opacity="0.62"/>
<rect x="348.723" y="-65.9775" width="1.07647" height="831.954" transform="rotate(10.5696 348.723 -65.9775)" fill="white" fill-opacity="0.62"/>
<rect x="318.49" y="-71.6191" width="1.07647" height="831.954" transform="rotate(10.5696 318.49 -71.6191)" fill="white" fill-opacity="0.62"/>
<rect x="354.772" y="-64.8491" width="1.07647" height="831.954" transform="rotate(10.5696 354.772 -64.8491)" fill="white" fill-opacity="0.62"/>
<rect x="324.539" y="-70.4907" width="1.07647" height="831.954" transform="rotate(10.5696 324.539 -70.4907)" fill="white" fill-opacity="0.62"/>
<rect x="360.819" y="-63.7212" width="1.07647" height="831.954" transform="rotate(10.5696 360.819 -63.7212)" fill="white" fill-opacity="0.62"/>
<rect x="330.585" y="-69.3623" width="1.07647" height="831.954" transform="rotate(10.5696 330.585 -69.3623)" fill="white" fill-opacity="0.62"/>
<rect x="366.865" y="-62.5928" width="1.07647" height="831.954" transform="rotate(10.5696 366.865 -62.5928)" fill="white" fill-opacity="0.62"/>
<rect x="336.631" y="-68.2344" width="1.07647" height="831.954" transform="rotate(10.5696 336.631 -68.2344)" fill="white" fill-opacity="0.62"/>
<rect x="372.911" y="-61.4644" width="1.07647" height="831.954" transform="rotate(10.5696 372.911 -61.4644)" fill="white" fill-opacity="0.62"/>
<rect x="342.677" y="-67.106" width="1.07647" height="831.954" transform="rotate(10.5696 342.677 -67.106)" fill="white" fill-opacity="0.62"/>
<rect x="378.96" y="-60.3359" width="1.07647" height="831.954" transform="rotate(10.5696 378.96 -60.3359)" fill="white" fill-opacity="0.62"/>
<rect x="385.007" y="-59.2075" width="1.07647" height="831.954" transform="rotate(10.5696 385.007 -59.2075)" fill="white" fill-opacity="0.62"/>
<rect x="421.287" y="-52.4375" width="1.07647" height="831.954" transform="rotate(10.5696 421.287 -52.4375)" fill="white" fill-opacity="0.62"/>
<rect x="391.053" y="-58.0796" width="1.07647" height="831.954" transform="rotate(10.5696 391.053 -58.0796)" fill="white" fill-opacity="0.62"/>
<rect x="427.333" y="-51.3096" width="1.07647" height="831.954" transform="rotate(10.5696 427.333 -51.3096)" fill="white" fill-opacity="0.62"/>
<rect x="397.099" y="-56.9512" width="1.07647" height="831.954" transform="rotate(10.5696 397.099 -56.9512)" fill="white" fill-opacity="0.62"/>
<rect x="433.382" y="-50.1812" width="1.07647" height="831.954" transform="rotate(10.5696 433.382 -50.1812)" fill="white" fill-opacity="0.62"/>
<rect x="403.145" y="-55.8223" width="1.07647" height="831.954" transform="rotate(10.5696 403.145 -55.8223)" fill="white" fill-opacity="0.62"/>
<rect x="439.429" y="-49.0527" width="1.07647" height="831.954" transform="rotate(10.5696 439.429 -49.0527)" fill="white" fill-opacity="0.62"/>
<rect x="409.194" y="-54.6943" width="1.07647" height="831.954" transform="rotate(10.5696 409.194 -54.6943)" fill="white" fill-opacity="0.62"/>
<rect x="445.475" y="-47.9243" width="1.07647" height="831.954" transform="rotate(10.5696 445.475 -47.9243)" fill="white" fill-opacity="0.62"/>
<rect x="415.241" y="-53.5659" width="1.07647" height="831.954" transform="rotate(10.5696 415.241 -53.5659)" fill="white" fill-opacity="0.62"/>
<rect x="451.521" y="-46.7959" width="1.07647" height="831.954" transform="rotate(10.5696 451.521 -46.7959)" fill="white" fill-opacity="0.62"/>
<rect x="457.567" y="-45.6675" width="1.07647" height="831.954" transform="rotate(10.5696 457.567 -45.6675)" fill="white" fill-opacity="0.62"/>
<rect x="493.85" y="-38.8979" width="1.07647" height="831.954" transform="rotate(10.5696 493.85 -38.8979)" fill="white" fill-opacity="0.62"/>
<rect x="463.616" y="-44.5396" width="1.07647" height="831.954" transform="rotate(10.5696 463.616 -44.5396)" fill="white" fill-opacity="0.62"/>
<rect x="499.897" y="-37.7695" width="1.07647" height="831.954" transform="rotate(10.5696 499.897 -37.7695)" fill="white" fill-opacity="0.62"/>
<rect x="469.663" y="-43.4111" width="1.07647" height="831.954" transform="rotate(10.5696 469.663 -43.4111)" fill="white" fill-opacity="0.62"/>
<rect x="505.943" y="-36.6411" width="1.07647" height="831.954" transform="rotate(10.5696 505.943 -36.6411)" fill="white" fill-opacity="0.62"/>
<rect x="475.709" y="-42.2827" width="1.07647" height="831.954" transform="rotate(10.5696 475.709 -42.2827)" fill="white" fill-opacity="0.62"/>
<rect x="511.989" y="-35.5127" width="1.07647" height="831.954" transform="rotate(10.5696 511.989 -35.5127)" fill="white" fill-opacity="0.62"/>
<rect x="481.755" y="-41.1543" width="1.07647" height="831.954" transform="rotate(10.5696 481.755 -41.1543)" fill="white" fill-opacity="0.62"/>
<rect x="518.038" y="-34.3848" width="1.07647" height="831.954" transform="rotate(10.5696 518.038 -34.3848)" fill="white" fill-opacity="0.62"/>
<rect x="487.801" y="-40.0259" width="1.07647" height="831.954" transform="rotate(10.5696 487.801 -40.0259)" fill="white" fill-opacity="0.62"/>
<rect x="524.085" y="-33.2563" width="1.07647" height="831.954" transform="rotate(10.5696 524.085 -33.2563)" fill="white" fill-opacity="0.62"/>
<rect x="530.131" y="-32.1279" width="1.07647" height="831.954" transform="rotate(10.5696 530.131 -32.1279)" fill="white" fill-opacity="0.62"/>
<rect x="566.411" y="-25.3579" width="1.07647" height="831.954" transform="rotate(10.5696 566.411 -25.3579)" fill="white" fill-opacity="0.62"/>
<rect x="536.177" y="-30.9995" width="1.07647" height="831.954" transform="rotate(10.5696 536.177 -30.9995)" fill="white" fill-opacity="0.62"/>
<rect x="572.457" y="-24.2295" width="1.07647" height="831.954" transform="rotate(10.5696 572.457 -24.2295)" fill="white" fill-opacity="0.62"/>
<rect x="542.223" y="-29.8711" width="1.07647" height="831.954" transform="rotate(10.5696 542.223 -29.8711)" fill="white" fill-opacity="0.62"/>
<rect x="578.506" y="-23.1016" width="1.07647" height="831.954" transform="rotate(10.5696 578.506 -23.1016)" fill="white" fill-opacity="0.62"/>
<rect x="548.272" y="-28.7432" width="1.07647" height="831.954" transform="rotate(10.5696 548.272 -28.7432)" fill="white" fill-opacity="0.62"/>
<rect x="584.552" y="-21.9731" width="1.07647" height="831.954" transform="rotate(10.5696 584.552 -21.9731)" fill="white" fill-opacity="0.62"/>
<rect x="554.318" y="-27.6147" width="1.07647" height="831.954" transform="rotate(10.5696 554.318 -27.6147)" fill="white" fill-opacity="0.62"/>
<rect x="590.599" y="-20.8447" width="1.07647" height="831.954" transform="rotate(10.5696 590.599 -20.8447)" fill="white" fill-opacity="0.62"/>
<rect x="560.365" y="-26.4863" width="1.07647" height="831.954" transform="rotate(10.5696 560.365 -26.4863)" fill="white" fill-opacity="0.62"/>
<rect x="596.645" y="-19.7163" width="1.07647" height="831.954" transform="rotate(10.5696 596.645 -19.7163)" fill="white" fill-opacity="0.62"/>
<rect x="602.694" y="-18.5884" width="1.07647" height="831.954" transform="rotate(10.5696 602.694 -18.5884)" fill="white" fill-opacity="0.62"/>
<rect x="638.974" y="-11.8184" width="1.07647" height="831.954" transform="rotate(10.5696 638.974 -11.8184)" fill="white" fill-opacity="0.62"/>
<rect x="608.741" y="-17.46" width="1.07647" height="831.954" transform="rotate(10.5696 608.741 -17.46)" fill="white" fill-opacity="0.62"/>
<rect x="645.021" y="-10.6899" width="1.07647" height="831.954" transform="rotate(10.5696 645.021 -10.6899)" fill="white" fill-opacity="0.62"/>
<rect x="614.786" y="-16.3315" width="1.07647" height="831.954" transform="rotate(10.5696 614.786 -16.3315)" fill="white" fill-opacity="0.62"/>
<rect x="651.067" y="-9.56152" width="1.07647" height="831.954" transform="rotate(10.5696 651.067 -9.56152)" fill="white" fill-opacity="0.62"/>
<rect x="620.833" y="-15.2031" width="1.07647" height="831.954" transform="rotate(10.5696 620.833 -15.2031)" fill="white" fill-opacity="0.62"/>
<rect x="657.116" y="-8.43311" width="1.07647" height="831.954" transform="rotate(10.5696 657.116 -8.43311)" fill="white" fill-opacity="0.62"/>
<rect x="626.879" y="-14.0747" width="1.07647" height="831.954" transform="rotate(10.5696 626.879 -14.0747)" fill="white" fill-opacity="0.62"/>
<rect x="663.163" y="-7.30518" width="1.07647" height="831.954" transform="rotate(10.5696 663.163 -7.30518)" fill="white" fill-opacity="0.62"/>
<rect x="632.928" y="-12.9468" width="1.07647" height="831.954" transform="rotate(10.5696 632.928 -12.9468)" fill="white" fill-opacity="0.62"/>
<rect x="669.208" y="-6.17676" width="1.07647" height="831.954" transform="rotate(10.5696 669.208 -6.17676)" fill="white" fill-opacity="0.62"/>
<rect x="675.255" y="-5.04834" width="1.07647" height="831.954" transform="rotate(10.5696 675.255 -5.04834)" fill="white" fill-opacity="0.62"/>
<rect x="711.535" y="1.72168" width="1.07647" height="831.954" transform="rotate(10.5696 711.535 1.72168)" fill="white" fill-opacity="0.62"/>
<rect x="681.301" y="-3.91992" width="1.07647" height="831.954" transform="rotate(10.5696 681.301 -3.91992)" fill="white" fill-opacity="0.62"/>
<rect x="717.584" y="2.8501" width="1.07647" height="831.954" transform="rotate(10.5696 717.584 2.8501)" fill="white" fill-opacity="0.62"/>
<rect x="687.35" y="-2.7915" width="1.07647" height="831.954" transform="rotate(10.5696 687.35 -2.7915)" fill="white" fill-opacity="0.62"/>
<rect x="723.631" y="3.97852" width="1.07647" height="831.954" transform="rotate(10.5696 723.631 3.97852)" fill="white" fill-opacity="0.62"/>
<rect x="693.396" y="-1.66357" width="1.07647" height="831.954" transform="rotate(10.5696 693.396 -1.66357)" fill="white" fill-opacity="0.62"/>
<rect x="729.677" y="5.10693" width="1.07647" height="831.954" transform="rotate(10.5696 729.677 5.10693)" fill="white" fill-opacity="0.62"/>
<rect x="699.443" y="-0.535156" width="1.07647" height="831.954" transform="rotate(10.5696 699.443 -0.535156)" fill="white" fill-opacity="0.62"/>
<rect x="735.723" y="6.23486" width="1.07647" height="831.954" transform="rotate(10.5696 735.723 6.23486)" fill="white" fill-opacity="0.62"/>
<rect x="705.489" y="0.593262" width="1.07647" height="831.954" transform="rotate(10.5696 705.489 0.593262)" fill="white" fill-opacity="0.62"/>
<rect x="741.772" y="7.36328" width="1.07647" height="831.954" transform="rotate(10.5696 741.772 7.36328)" fill="white" fill-opacity="0.62"/>
<rect x="747.599" y="9.60107" width="1.07647" height="831.954" transform="rotate(10.5696 747.599 9.60107)" fill="white" fill-opacity="0.62"/>
<rect x="783.88" y="16.3711" width="1.07647" height="831.954" transform="rotate(10.5696 783.88 16.3711)" fill="white" fill-opacity="0.62"/>
<rect x="753.646" y="10.7295" width="1.07647" height="831.954" transform="rotate(10.5696 753.646 10.7295)" fill="white" fill-opacity="0.62"/>
<rect x="789.926" y="17.4995" width="1.07647" height="831.954" transform="rotate(10.5696 789.926 17.4995)" fill="white" fill-opacity="0.62"/>
<rect x="759.692" y="11.8579" width="1.07647" height="831.954" transform="rotate(10.5696 759.692 11.8579)" fill="white" fill-opacity="0.62"/>
<rect x="795.975" y="18.6274" width="1.07647" height="831.954" transform="rotate(10.5696 795.975 18.6274)" fill="white" fill-opacity="0.62"/>
<rect x="765.741" y="12.9858" width="1.07647" height="831.954" transform="rotate(10.5696 765.741 12.9858)" fill="white" fill-opacity="0.62"/>
<rect x="802.021" y="19.7559" width="1.07647" height="831.954" transform="rotate(10.5696 802.021 19.7559)" fill="white" fill-opacity="0.62"/>
<rect x="771.787" y="14.1143" width="1.07647" height="831.954" transform="rotate(10.5696 771.787 14.1143)" fill="white" fill-opacity="0.62"/>
<rect x="808.067" y="20.8843" width="1.07647" height="831.954" transform="rotate(10.5696 808.067 20.8843)" fill="white" fill-opacity="0.62"/>
<rect x="777.833" y="15.2427" width="1.07647" height="831.954" transform="rotate(10.5696 777.833 15.2427)" fill="white" fill-opacity="0.62"/>
<rect x="814.114" y="22.0127" width="1.07647" height="831.954" transform="rotate(10.5696 814.114 22.0127)" fill="white" fill-opacity="0.62"/>
<rect x="820.163" y="23.1411" width="1.07647" height="831.954" transform="rotate(10.5696 820.163 23.1411)" fill="white" fill-opacity="0.62"/>
<rect x="856.443" y="29.9106" width="1.07647" height="831.954" transform="rotate(10.5696 856.443 29.9106)" fill="white" fill-opacity="0.62"/>
<rect x="826.209" y="24.269" width="1.07647" height="831.954" transform="rotate(10.5696 826.209 24.269)" fill="white" fill-opacity="0.62"/>
<rect x="862.489" y="31.0391" width="1.07647" height="831.954" transform="rotate(10.5696 862.489 31.0391)" fill="white" fill-opacity="0.62"/>
<rect x="832.255" y="25.3975" width="1.07647" height="831.954" transform="rotate(10.5696 832.255 25.3975)" fill="white" fill-opacity="0.62"/>
<rect x="838.302" y="26.5259" width="1.07647" height="831.954" transform="rotate(10.5696 838.302 26.5259)" fill="white" fill-opacity="0.62"/>
<rect x="844.348" y="27.6543" width="1.07647" height="831.954" transform="rotate(10.5696 844.348 27.6543)" fill="white" fill-opacity="0.62"/>
<rect x="850.397" y="28.7827" width="1.07647" height="831.954" transform="rotate(10.5696 850.397 28.7827)" fill="white" fill-opacity="0.62"/>
</g>
</svg>
