<svg width="1545" height="231" viewBox="0 0 1545 231" fill="none" xmlns="http://www.w3.org/2000/svg">
<g opacity="0.5">
<mask id="mask0_368_3236" style="mask-type:alpha" maskUnits="userSpaceOnUse" x="0" y="0" width="1545" height="231">
<rect width="1545" height="231" fill="white" fill-opacity="0.2"/>
</mask>
<g mask="url(#mask0_368_3236)">
<rect width="0.630633" height="430.635" transform="matrix(0.986914 0.161247 -0.208424 0.978038 3.44434 -267.093)" fill="white"/>
<rect width="0.630633" height="430.635" transform="matrix(0.986914 0.161247 -0.208424 0.978038 7.00049 -266.511)" fill="white"/>
<rect width="0.630633" height="430.635" transform="matrix(0.986914 0.161247 -0.208424 0.978038 10.5581 -265.931)" fill="white"/>
<rect width="0.630633" height="430.635" transform="matrix(0.986914 0.161247 -0.208424 0.978038 14.1143 -265.349)" fill="white"/>
<rect width="0.630633" height="430.635" transform="matrix(0.986914 0.161247 -0.208424 0.978038 17.6699 -264.768)" fill="white"/>
<rect width="0.630633" height="430.635" transform="matrix(0.986914 0.161247 -0.208424 0.978038 -0.111816 -267.674)" fill="white"/>
<rect width="0.630633" height="430.635" transform="matrix(0.986914 0.161247 -0.208424 0.978038 21.2266 -264.187)" fill="white"/>
<rect width="0.630633" height="430.635" transform="matrix(0.986914 0.161247 -0.208424 0.978038 24.7842 -263.606)" fill="white"/>
<rect width="0.630633" height="430.635" transform="matrix(0.986914 0.161247 -0.208424 0.978038 46.1226 -260.12)" fill="white"/>
<rect width="0.630633" height="430.635" transform="matrix(0.986914 0.161247 -0.208424 0.978038 28.3403 -263.025)" fill="white"/>
<rect width="0.630633" height="430.635" transform="matrix(0.986914 0.161247 -0.208424 0.978038 49.6787 -259.539)" fill="white"/>
<rect width="0.630633" height="430.635" transform="matrix(0.986914 0.161247 -0.208424 0.978038 31.8965 -262.444)" fill="white"/>
<rect width="0.630633" height="430.635" transform="matrix(0.986914 0.161247 -0.208424 0.978038 53.2344 -258.958)" fill="white"/>
<rect width="0.630633" height="430.635" transform="matrix(0.986914 0.161247 -0.208424 0.978038 35.4526 -261.863)" fill="white"/>
<rect width="0.630633" height="430.635" transform="matrix(0.986914 0.161247 -0.208424 0.978038 56.791 -258.376)" fill="white"/>
<rect width="0.630633" height="430.635" transform="matrix(0.986914 0.161247 -0.208424 0.978038 39.0088 -261.282)" fill="white"/>
<rect width="0.630633" height="430.635" transform="matrix(0.986914 0.161247 -0.208424 0.978038 60.3486 -257.795)" fill="white"/>
<rect width="0.630633" height="430.635" transform="matrix(0.986914 0.161247 -0.208424 0.978038 42.5664 -260.701)" fill="white"/>
<rect width="0.630633" height="430.635" transform="matrix(0.986914 0.161247 -0.208424 0.978038 63.9048 -257.214)" fill="white"/>
<rect width="0.630633" height="430.635" transform="matrix(0.986914 0.161247 -0.208424 0.978038 67.4604 -256.633)" fill="white"/>
<rect width="0.630633" height="430.635" transform="matrix(0.986914 0.161247 -0.208424 0.978038 88.7988 -253.147)" fill="white"/>
<rect width="0.630633" height="430.635" transform="matrix(0.986914 0.161247 -0.208424 0.978038 71.0166 -256.052)" fill="white"/>
<rect width="0.630633" height="430.635" transform="matrix(0.986914 0.161247 -0.208424 0.978038 92.3569 -252.566)" fill="white"/>
<rect width="0.630633" height="430.635" transform="matrix(0.986914 0.161247 -0.208424 0.978038 74.5747 -255.471)" fill="white"/>
<rect width="0.630633" height="430.635" transform="matrix(0.986914 0.161247 -0.208424 0.978038 95.9126 -251.985)" fill="white"/>
<rect width="0.630633" height="430.635" transform="matrix(0.986914 0.161247 -0.208424 0.978038 78.1309 -254.89)" fill="white"/>
<rect width="0.630633" height="430.635" transform="matrix(0.986914 0.161247 -0.208424 0.978038 99.4688 -251.404)" fill="white"/>
<rect width="0.630633" height="430.635" transform="matrix(0.986914 0.161247 -0.208424 0.978038 81.6865 -254.309)" fill="white"/>
<rect width="0.630633" height="430.635" transform="matrix(0.986914 0.161247 -0.208424 0.978038 103.025 -250.823)" fill="white"/>
<rect width="0.630633" height="430.635" transform="matrix(0.986914 0.161247 -0.208424 0.978038 85.2427 -253.728)" fill="white"/>
<rect width="0.630633" height="430.635" transform="matrix(0.986914 0.161247 -0.208424 0.978038 106.583 -250.242)" fill="white"/>
<rect width="0.630633" height="430.635" transform="matrix(0.986914 0.161247 -0.208424 0.978038 110.139 -249.661)" fill="white"/>
<rect width="0.630633" height="430.635" transform="matrix(0.986914 0.161247 -0.208424 0.978038 131.478 -246.174)" fill="white"/>
<rect width="0.630633" height="430.635" transform="matrix(0.986914 0.161247 -0.208424 0.978038 113.695 -249.08)" fill="white"/>
<rect width="0.630633" height="430.635" transform="matrix(0.986914 0.161247 -0.208424 0.978038 135.033 -245.593)" fill="white"/>
<rect width="0.630633" height="430.635" transform="matrix(0.986914 0.161247 -0.208424 0.978038 117.251 -248.499)" fill="white"/>
<rect width="0.630633" height="430.635" transform="matrix(0.986914 0.161247 -0.208424 0.978038 138.589 -245.012)" fill="white"/>
<rect width="0.630633" height="430.635" transform="matrix(0.986914 0.161247 -0.208424 0.978038 120.807 -247.917)" fill="white"/>
<rect width="0.630633" height="430.635" transform="matrix(0.986914 0.161247 -0.208424 0.978038 142.147 -244.431)" fill="white"/>
<rect width="0.630633" height="430.635" transform="matrix(0.986914 0.161247 -0.208424 0.978038 124.365 -247.336)" fill="white"/>
<rect width="0.630633" height="430.635" transform="matrix(0.986914 0.161247 -0.208424 0.978038 145.703 -243.85)" fill="white"/>
<rect width="0.630633" height="430.635" transform="matrix(0.986914 0.161247 -0.208424 0.978038 127.921 -246.755)" fill="white"/>
<rect width="0.630633" height="430.635" transform="matrix(0.986914 0.161247 -0.208424 0.978038 149.259 -243.269)" fill="white"/>
<rect width="0.630633" height="430.635" transform="matrix(0.986914 0.161247 -0.208424 0.978038 152.815 -242.688)" fill="white"/>
<rect width="0.630633" height="430.635" transform="matrix(0.986914 0.161247 -0.208424 0.978038 174.155 -239.201)" fill="white"/>
<rect width="0.630633" height="430.635" transform="matrix(0.986914 0.161247 -0.208424 0.978038 156.373 -242.107)" fill="white"/>
<rect width="0.630633" height="430.635" transform="matrix(0.986914 0.161247 -0.208424 0.978038 177.711 -238.62)" fill="white"/>
<rect width="0.630633" height="430.635" transform="matrix(0.986914 0.161247 -0.208424 0.978038 159.929 -241.526)" fill="white"/>
<rect width="0.630633" height="430.635" transform="matrix(0.986914 0.161247 -0.208424 0.978038 181.268 -238.039)" fill="white"/>
<rect width="0.630633" height="430.635" transform="matrix(0.986914 0.161247 -0.208424 0.978038 163.485 -240.944)" fill="white"/>
<rect width="0.630633" height="430.635" transform="matrix(0.986914 0.161247 -0.208424 0.978038 184.824 -237.458)" fill="white"/>
<rect width="0.630633" height="430.635" transform="matrix(0.986914 0.161247 -0.208424 0.978038 167.042 -240.363)" fill="white"/>
<rect width="0.630633" height="430.635" transform="matrix(0.986914 0.161247 -0.208424 0.978038 188.38 -236.877)" fill="white"/>
<rect width="0.630633" height="430.635" transform="matrix(0.986914 0.161247 -0.208424 0.978038 170.597 -239.782)" fill="white"/>
<rect width="0.630633" height="430.635" transform="matrix(0.986914 0.161247 -0.208424 0.978038 191.938 -236.296)" fill="white"/>
<rect width="0.630633" height="430.635" transform="matrix(0.986914 0.161247 -0.208424 0.978038 195.494 -235.715)" fill="white"/>
<rect width="0.630633" height="430.635" transform="matrix(0.986914 0.161247 -0.208424 0.978038 216.832 -232.229)" fill="white"/>
<rect width="0.630633" height="430.635" transform="matrix(0.986914 0.161247 -0.208424 0.978038 199.05 -235.133)" fill="white"/>
<rect width="0.630633" height="430.635" transform="matrix(0.986914 0.161247 -0.208424 0.978038 220.388 -231.647)" fill="white"/>
<rect width="0.630633" height="430.635" transform="matrix(0.986914 0.161247 -0.208424 0.978038 202.605 -234.552)" fill="white"/>
<rect width="0.630633" height="430.635" transform="matrix(0.986914 0.161247 -0.208424 0.978038 223.946 -231.066)" fill="white"/>
<rect width="0.630633" height="430.635" transform="matrix(0.986914 0.161247 -0.208424 0.978038 206.164 -233.971)" fill="white"/>
<rect width="0.630633" height="430.635" transform="matrix(0.986914 0.161247 -0.208424 0.978038 227.502 -230.485)" fill="white"/>
<rect width="0.630633" height="430.635" transform="matrix(0.986914 0.161247 -0.208424 0.978038 209.719 -233.391)" fill="white"/>
<rect width="0.630633" height="430.635" transform="matrix(0.986914 0.161247 -0.208424 0.978038 231.058 -229.904)" fill="white"/>
<rect width="0.630633" height="430.635" transform="matrix(0.986914 0.161247 -0.208424 0.978038 213.276 -232.81)" fill="white"/>
<rect width="0.630633" height="430.635" transform="matrix(0.986914 0.161247 -0.208424 0.978038 234.614 -229.323)" fill="white"/>
<rect width="0.630633" height="430.635" transform="matrix(0.986914 0.161247 -0.208424 0.978038 238.172 -228.742)" fill="white"/>
<rect width="0.630633" height="430.635" transform="matrix(0.986914 0.161247 -0.208424 0.978038 259.51 -225.255)" fill="white"/>
<rect width="0.630633" height="430.635" transform="matrix(0.986914 0.161247 -0.208424 0.978038 241.728 -228.161)" fill="white"/>
<rect width="0.630633" height="430.635" transform="matrix(0.986914 0.161247 -0.208424 0.978038 263.066 -224.674)" fill="white"/>
<rect width="0.630633" height="430.635" transform="matrix(0.986914 0.161247 -0.208424 0.978038 245.284 -227.58)" fill="white"/>
<rect width="0.630633" height="430.635" transform="matrix(0.986914 0.161247 -0.208424 0.978038 266.622 -224.093)" fill="white"/>
<rect width="0.630633" height="430.635" transform="matrix(0.986914 0.161247 -0.208424 0.978038 248.84 -226.999)" fill="white"/>
<rect width="0.630633" height="430.635" transform="matrix(0.986914 0.161247 -0.208424 0.978038 270.178 -223.512)" fill="white"/>
<rect width="0.630633" height="430.635" transform="matrix(0.986914 0.161247 -0.208424 0.978038 252.396 -226.417)" fill="white"/>
<rect width="0.630633" height="430.635" transform="matrix(0.986914 0.161247 -0.208424 0.978038 273.736 -222.931)" fill="white"/>
<rect width="0.630633" height="430.635" transform="matrix(0.986914 0.161247 -0.208424 0.978038 255.954 -225.836)" fill="white"/>
<rect width="0.630633" height="430.635" transform="matrix(0.986914 0.161247 -0.208424 0.978038 277.292 -222.35)" fill="white"/>
<rect width="0.630633" height="430.635" transform="matrix(0.986914 0.161247 -0.208424 0.978038 280.848 -221.769)" fill="white"/>
<rect width="0.630633" height="430.635" transform="matrix(0.986914 0.161247 -0.208424 0.978038 302.187 -218.283)" fill="white"/>
<rect width="0.630633" height="430.635" transform="matrix(0.986914 0.161247 -0.208424 0.978038 284.404 -221.188)" fill="white"/>
<rect width="0.630633" height="430.635" transform="matrix(0.986914 0.161247 -0.208424 0.978038 305.744 -217.702)" fill="white"/>
<rect width="0.630633" height="430.635" transform="matrix(0.986914 0.161247 -0.208424 0.978038 287.962 -220.607)" fill="white"/>
<rect width="0.630633" height="430.635" transform="matrix(0.986914 0.161247 -0.208424 0.978038 309.3 -217.12)" fill="white"/>
<rect width="0.630633" height="430.635" transform="matrix(0.986914 0.161247 -0.208424 0.978038 291.518 -220.026)" fill="white"/>
<rect width="0.630633" height="430.635" transform="matrix(0.986914 0.161247 -0.208424 0.978038 312.856 -216.539)" fill="white"/>
<rect width="0.630633" height="430.635" transform="matrix(0.986914 0.161247 -0.208424 0.978038 295.074 -219.445)" fill="white"/>
<rect width="0.630633" height="430.635" transform="matrix(0.986914 0.161247 -0.208424 0.978038 316.413 -215.958)" fill="white"/>
<rect width="0.630633" height="430.635" transform="matrix(0.986914 0.161247 -0.208424 0.978038 298.63 -218.864)" fill="white"/>
<rect width="0.630633" height="430.635" transform="matrix(0.986914 0.161247 -0.208424 0.978038 319.969 -215.377)" fill="white"/>
<rect width="0.630633" height="430.635" transform="matrix(0.986914 0.161247 -0.208424 0.978038 323.064 -214.871)" fill="white"/>
<rect width="0.630633" height="430.635" transform="matrix(0.986914 0.161247 -0.208424 0.978038 344.403 -211.385)" fill="white"/>
<rect width="0.630633" height="430.635" transform="matrix(0.986914 0.161247 -0.208424 0.978038 326.62 -214.291)" fill="white"/>
<rect width="0.630633" height="430.635" transform="matrix(0.986914 0.161247 -0.208424 0.978038 347.96 -210.804)" fill="white"/>
<rect width="0.630633" height="430.635" transform="matrix(0.986914 0.161247 -0.208424 0.978038 330.176 -213.709)" fill="white"/>
<rect width="0.630633" height="430.635" transform="matrix(0.986914 0.161247 -0.208424 0.978038 351.516 -210.223)" fill="white"/>
<rect width="0.630633" height="430.635" transform="matrix(0.986914 0.161247 -0.208424 0.978038 333.734 -213.128)" fill="white"/>
<rect width="0.630633" height="430.635" transform="matrix(0.986914 0.161247 -0.208424 0.978038 355.073 -209.642)" fill="white"/>
<rect width="0.630633" height="430.635" transform="matrix(0.986914 0.161247 -0.208424 0.978038 337.29 -212.547)" fill="white"/>
<rect width="0.630633" height="430.635" transform="matrix(0.986914 0.161247 -0.208424 0.978038 358.628 -209.061)" fill="white"/>
<rect width="0.630633" height="430.635" transform="matrix(0.986914 0.161247 -0.208424 0.978038 340.846 -211.966)" fill="white"/>
<rect width="0.630633" height="430.635" transform="matrix(0.986914 0.161247 -0.208424 0.978038 362.185 -208.479)" fill="white"/>
<rect width="0.630633" height="430.635" transform="matrix(0.986914 0.161247 -0.208424 0.978038 365.743 -207.898)" fill="white"/>
<rect width="0.630633" height="430.635" transform="matrix(0.986914 0.161247 -0.208424 0.978038 387.081 -204.412)" fill="white"/>
<rect width="0.630633" height="430.635" transform="matrix(0.986914 0.161247 -0.208424 0.978038 369.298 -207.317)" fill="white"/>
<rect width="0.630633" height="430.635" transform="matrix(0.986914 0.161247 -0.208424 0.978038 390.637 -203.831)" fill="white"/>
<rect width="0.630633" height="430.635" transform="matrix(0.986914 0.161247 -0.208424 0.978038 372.855 -206.736)" fill="white"/>
<rect width="0.630633" height="430.635" transform="matrix(0.986914 0.161247 -0.208424 0.978038 394.193 -203.25)" fill="white"/>
<rect width="0.630633" height="430.635" transform="matrix(0.986914 0.161247 -0.208424 0.978038 376.411 -206.155)" fill="white"/>
<rect width="0.630633" height="430.635" transform="matrix(0.986914 0.161247 -0.208424 0.978038 397.751 -202.669)" fill="white"/>
<rect width="0.630633" height="430.635" transform="matrix(0.986914 0.161247 -0.208424 0.978038 379.967 -205.574)" fill="white"/>
<rect width="0.630633" height="430.635" transform="matrix(0.986914 0.161247 -0.208424 0.978038 401.307 -202.088)" fill="white"/>
<rect width="0.630633" height="430.635" transform="matrix(0.986914 0.161247 -0.208424 0.978038 383.524 -204.993)" fill="white"/>
<rect width="0.630633" height="430.635" transform="matrix(0.986914 0.161247 -0.208424 0.978038 404.863 -201.507)" fill="white"/>
<rect width="0.630633" height="430.635" transform="matrix(0.986914 0.161247 -0.208424 0.978038 408.419 -200.926)" fill="white"/>
<rect width="0.630633" height="430.635" transform="matrix(0.986914 0.161247 -0.208424 0.978038 429.757 -197.439)" fill="white"/>
<rect width="0.630633" height="430.635" transform="matrix(0.986914 0.161247 -0.208424 0.978038 411.975 -200.345)" fill="white"/>
<rect width="0.630633" height="430.635" transform="matrix(0.986914 0.161247 -0.208424 0.978038 433.315 -196.858)" fill="white"/>
<rect width="0.630633" height="430.635" transform="matrix(0.986914 0.161247 -0.208424 0.978038 415.533 -199.764)" fill="white"/>
<rect width="0.630633" height="430.635" transform="matrix(0.986914 0.161247 -0.208424 0.978038 436.871 -196.277)" fill="white"/>
<rect width="0.630633" height="430.635" transform="matrix(0.986914 0.161247 -0.208424 0.978038 419.089 -199.183)" fill="white"/>
<rect width="0.630633" height="430.635" transform="matrix(0.986914 0.161247 -0.208424 0.978038 440.427 -195.696)" fill="white"/>
<rect width="0.630633" height="430.635" transform="matrix(0.986914 0.161247 -0.208424 0.978038 422.645 -198.602)" fill="white"/>
<rect width="0.630633" height="430.635" transform="matrix(0.986914 0.161247 -0.208424 0.978038 443.983 -195.115)" fill="white"/>
<rect width="0.630633" height="430.635" transform="matrix(0.986914 0.161247 -0.208424 0.978038 426.201 -198.021)" fill="white"/>
<rect width="0.630633" height="430.635" transform="matrix(0.986914 0.161247 -0.208424 0.978038 447.541 -194.534)" fill="white"/>
<rect width="0.630633" height="430.635" transform="matrix(0.986914 0.161247 -0.208424 0.978038 451.097 -193.953)" fill="white"/>
<rect width="0.630633" height="430.635" transform="matrix(0.986914 0.161247 -0.208424 0.978038 472.436 -190.466)" fill="white"/>
<rect width="0.630633" height="430.635" transform="matrix(0.986914 0.161247 -0.208424 0.978038 454.653 -193.372)" fill="white"/>
<rect width="0.630633" height="430.635" transform="matrix(0.986914 0.161247 -0.208424 0.978038 475.992 -189.885)" fill="white"/>
<rect width="0.630633" height="430.635" transform="matrix(0.986914 0.161247 -0.208424 0.978038 458.209 -192.791)" fill="white"/>
<rect width="0.630633" height="430.635" transform="matrix(0.986914 0.161247 -0.208424 0.978038 479.549 -189.304)" fill="white"/>
<rect width="0.630633" height="430.635" transform="matrix(0.986914 0.161247 -0.208424 0.978038 461.765 -192.209)" fill="white"/>
<rect width="0.630633" height="430.635" transform="matrix(0.986914 0.161247 -0.208424 0.978038 483.105 -188.723)" fill="white"/>
<rect width="0.630633" height="430.635" transform="matrix(0.986914 0.161247 -0.208424 0.978038 465.323 -191.629)" fill="white"/>
<rect width="0.630633" height="430.635" transform="matrix(0.986914 0.161247 -0.208424 0.978038 486.662 -188.142)" fill="white"/>
<rect width="0.630633" height="430.635" transform="matrix(0.986914 0.161247 -0.208424 0.978038 468.879 -191.048)" fill="white"/>
<rect width="0.630633" height="430.635" transform="matrix(0.986914 0.161247 -0.208424 0.978038 490.217 -187.561)" fill="white"/>
<rect width="0.630633" height="430.635" transform="matrix(0.986914 0.161247 -0.208424 0.978038 493.773 -186.98)" fill="white"/>
<rect width="0.630633" height="430.635" transform="matrix(0.986914 0.161247 -0.208424 0.978038 515.114 -183.494)" fill="white"/>
<rect width="0.630633" height="430.635" transform="matrix(0.986914 0.161247 -0.208424 0.978038 497.331 -186.399)" fill="white"/>
<rect width="0.630633" height="430.635" transform="matrix(0.986914 0.161247 -0.208424 0.978038 518.67 -182.913)" fill="white"/>
<rect width="0.630633" height="430.635" transform="matrix(0.986914 0.161247 -0.208424 0.978038 500.888 -185.818)" fill="white"/>
<rect width="0.630633" height="430.635" transform="matrix(0.986914 0.161247 -0.208424 0.978038 522.226 -182.332)" fill="white"/>
<rect width="0.630633" height="430.635" transform="matrix(0.986914 0.161247 -0.208424 0.978038 504.443 -185.237)" fill="white"/>
<rect width="0.630633" height="430.635" transform="matrix(0.986914 0.161247 -0.208424 0.978038 525.782 -181.75)" fill="white"/>
<rect width="0.630633" height="430.635" transform="matrix(0.986914 0.161247 -0.208424 0.978038 508 -184.656)" fill="white"/>
<rect width="0.630633" height="430.635" transform="matrix(0.986914 0.161247 -0.208424 0.978038 529.339 -181.169)" fill="white"/>
<rect width="0.630633" height="430.635" transform="matrix(0.986914 0.161247 -0.208424 0.978038 511.556 -184.075)" fill="white"/>
<rect width="0.630633" height="430.635" transform="matrix(0.986914 0.161247 -0.208424 0.978038 532.896 -180.588)" fill="white"/>
<rect width="0.630633" height="430.635" transform="matrix(0.986914 0.161247 -0.208424 0.978038 536.452 -180.007)" fill="white"/>
<rect width="0.630633" height="430.635" transform="matrix(0.986914 0.161247 -0.208424 0.978038 557.79 -176.521)" fill="white"/>
<rect width="0.630633" height="430.635" transform="matrix(0.986914 0.161247 -0.208424 0.978038 540.008 -179.426)" fill="white"/>
<rect width="0.630633" height="430.635" transform="matrix(0.986914 0.161247 -0.208424 0.978038 561.346 -175.939)" fill="white"/>
<rect width="0.630633" height="430.635" transform="matrix(0.986914 0.161247 -0.208424 0.978038 543.564 -178.845)" fill="white"/>
<rect width="0.630633" height="430.635" transform="matrix(0.986914 0.161247 -0.208424 0.978038 564.904 -175.358)" fill="white"/>
<rect width="0.630633" height="430.635" transform="matrix(0.986914 0.161247 -0.208424 0.978038 547.122 -178.264)" fill="white"/>
<rect width="0.630633" height="430.635" transform="matrix(0.986914 0.161247 -0.208424 0.978038 568.46 -174.777)" fill="white"/>
<rect width="0.630633" height="430.635" transform="matrix(0.986914 0.161247 -0.208424 0.978038 550.678 -177.683)" fill="white"/>
<rect width="0.630633" height="430.635" transform="matrix(0.986914 0.161247 -0.208424 0.978038 572.016 -174.196)" fill="white"/>
<rect width="0.630633" height="430.635" transform="matrix(0.986914 0.161247 -0.208424 0.978038 554.234 -177.102)" fill="white"/>
<rect width="0.630633" height="430.635" transform="matrix(0.986914 0.161247 -0.208424 0.978038 575.572 -173.616)" fill="white"/>
<rect width="0.630633" height="430.635" transform="matrix(0.986914 0.161247 -0.208424 0.978038 579.13 -173.035)" fill="white"/>
<rect width="0.630633" height="430.635" transform="matrix(0.986914 0.161247 -0.208424 0.978038 600.468 -169.548)" fill="white"/>
<rect width="0.630633" height="430.635" transform="matrix(0.986914 0.161247 -0.208424 0.978038 582.686 -172.454)" fill="white"/>
<rect width="0.630633" height="430.635" transform="matrix(0.986914 0.161247 -0.208424 0.978038 604.024 -168.967)" fill="white"/>
<rect width="0.630633" height="430.635" transform="matrix(0.986914 0.161247 -0.208424 0.978038 586.242 -171.872)" fill="white"/>
<rect width="0.630633" height="430.635" transform="matrix(0.986914 0.161247 -0.208424 0.978038 607.58 -168.386)" fill="white"/>
<rect width="0.630633" height="430.635" transform="matrix(0.986914 0.161247 -0.208424 0.978038 589.798 -171.291)" fill="white"/>
<rect width="0.630633" height="430.635" transform="matrix(0.986914 0.161247 -0.208424 0.978038 611.138 -167.805)" fill="white"/>
<rect width="0.630633" height="430.635" transform="matrix(0.986914 0.161247 -0.208424 0.978038 593.354 -170.71)" fill="white"/>
<rect width="0.630633" height="430.635" transform="matrix(0.986914 0.161247 -0.208424 0.978038 614.695 -167.224)" fill="white"/>
<rect width="0.630633" height="430.635" transform="matrix(0.986914 0.161247 -0.208424 0.978038 596.912 -170.129)" fill="white"/>
<rect width="0.630633" height="430.635" transform="matrix(0.986914 0.161247 -0.208424 0.978038 618.25 -166.643)" fill="white"/>
<rect width="0.630633" height="430.635" transform="matrix(0.986914 0.161247 -0.208424 0.978038 621.807 -166.061)" fill="white"/>
<rect width="0.630633" height="430.635" transform="matrix(0.986914 0.161247 -0.208424 0.978038 643.145 -162.575)" fill="white"/>
<rect width="0.630633" height="430.635" transform="matrix(0.986914 0.161247 -0.208424 0.978038 625.362 -165.48)" fill="white"/>
<rect width="0.630633" height="430.635" transform="matrix(0.986914 0.161247 -0.208424 0.978038 646.703 -161.994)" fill="white"/>
<rect width="0.630633" height="430.635" transform="matrix(0.986914 0.161247 -0.208424 0.978038 628.92 -164.899)" fill="white"/>
<rect width="0.630633" height="430.635" transform="matrix(0.986914 0.161247 -0.208424 0.978038 650.259 -161.413)" fill="white"/>
<rect width="0.630633" height="430.635" transform="matrix(0.986914 0.161247 -0.208424 0.978038 632.477 -164.318)" fill="white"/>
<rect width="0.630633" height="430.635" transform="matrix(0.986914 0.161247 -0.208424 0.978038 653.814 -160.832)" fill="white"/>
<rect width="0.630633" height="430.635" transform="matrix(0.986914 0.161247 -0.208424 0.978038 636.033 -163.737)" fill="white"/>
<rect width="0.630633" height="430.635" transform="matrix(0.986914 0.161247 -0.208424 0.978038 657.371 -160.25)" fill="white"/>
<rect width="0.630633" height="430.635" transform="matrix(0.986914 0.161247 -0.208424 0.978038 639.589 -163.156)" fill="white"/>
<rect width="0.630633" height="430.635" transform="matrix(0.986914 0.161247 -0.208424 0.978038 660.929 -159.669)" fill="white"/>
<rect width="0.630633" height="430.635" transform="matrix(0.986914 0.161247 -0.208424 0.978038 685.805 -258.532)" fill="white"/>
<rect width="0.630633" height="430.635" transform="matrix(0.986914 0.161247 -0.208424 0.978038 707.143 -255.046)" fill="white"/>
<rect width="0.630633" height="430.635" transform="matrix(0.986914 0.161247 -0.208424 0.978038 689.361 -257.951)" fill="white"/>
<rect width="0.630633" height="430.635" transform="matrix(0.986914 0.161247 -0.208424 0.978038 710.699 -254.465)" fill="white"/>
<rect width="0.630633" height="430.635" transform="matrix(0.986914 0.161247 -0.208424 0.978038 692.917 -257.37)" fill="white"/>
<rect width="0.630633" height="430.635" transform="matrix(0.986914 0.161247 -0.208424 0.978038 714.257 -253.884)" fill="white"/>
<rect width="0.630633" height="430.635" transform="matrix(0.986914 0.161247 -0.208424 0.978038 696.475 -256.789)" fill="white"/>
<rect width="0.630633" height="430.635" transform="matrix(0.986914 0.161247 -0.208424 0.978038 717.813 -253.303)" fill="white"/>
<rect width="0.630633" height="430.635" transform="matrix(0.986914 0.161247 -0.208424 0.978038 700.031 -256.208)" fill="white"/>
<rect width="0.630633" height="430.635" transform="matrix(0.986914 0.161247 -0.208424 0.978038 721.369 -252.721)" fill="white"/>
<rect width="0.630633" height="430.635" transform="matrix(0.986914 0.161247 -0.208424 0.978038 703.587 -255.627)" fill="white"/>
<rect width="0.630633" height="430.635" transform="matrix(0.986914 0.161247 -0.208424 0.978038 724.925 -252.14)" fill="white"/>
<rect width="0.630633" height="430.635" transform="matrix(0.986914 0.161247 -0.208424 0.978038 728.483 -251.559)" fill="white"/>
<rect width="0.630633" height="430.635" transform="matrix(0.986914 0.161247 -0.208424 0.978038 749.821 -248.073)" fill="white"/>
<rect width="0.630633" height="430.635" transform="matrix(0.986914 0.161247 -0.208424 0.978038 732.039 -250.979)" fill="white"/>
<rect width="0.630633" height="430.635" transform="matrix(0.986914 0.161247 -0.208424 0.978038 753.377 -247.492)" fill="white"/>
<rect width="0.630633" height="430.635" transform="matrix(0.986914 0.161247 -0.208424 0.978038 735.595 -250.397)" fill="white"/>
<rect width="0.630633" height="430.635" transform="matrix(0.986914 0.161247 -0.208424 0.978038 756.933 -246.911)" fill="white"/>
<rect width="0.630633" height="430.635" transform="matrix(0.986914 0.161247 -0.208424 0.978038 739.151 -249.816)" fill="white"/>
<rect width="0.630633" height="430.635" transform="matrix(0.986914 0.161247 -0.208424 0.978038 760.489 -246.33)" fill="white"/>
<rect width="0.630633" height="430.635" transform="matrix(0.986914 0.161247 -0.208424 0.978038 742.707 -249.235)" fill="white"/>
<rect width="0.630633" height="430.635" transform="matrix(0.986914 0.161247 -0.208424 0.978038 764.047 -245.749)" fill="white"/>
<rect width="0.630633" height="430.635" transform="matrix(0.986914 0.161247 -0.208424 0.978038 746.265 -248.654)" fill="white"/>
<rect width="0.630633" height="430.635" transform="matrix(0.986914 0.161247 -0.208424 0.978038 767.603 -245.167)" fill="white"/>
<rect width="0.630633" height="430.635" transform="matrix(0.986914 0.161247 -0.208424 0.978038 771.159 -244.586)" fill="white"/>
<rect width="0.630633" height="430.635" transform="matrix(0.986914 0.161247 -0.208424 0.978038 792.498 -241.1)" fill="white"/>
<rect width="0.630633" height="430.635" transform="matrix(0.986914 0.161247 -0.208424 0.978038 774.715 -244.005)" fill="white"/>
<rect width="0.630633" height="430.635" transform="matrix(0.986914 0.161247 -0.208424 0.978038 796.055 -240.519)" fill="white"/>
<rect width="0.630633" height="430.635" transform="matrix(0.986914 0.161247 -0.208424 0.978038 778.273 -243.424)" fill="white"/>
<rect width="0.630633" height="430.635" transform="matrix(0.986914 0.161247 -0.208424 0.978038 799.612 -239.938)" fill="white"/>
<rect width="0.630633" height="430.635" transform="matrix(0.986914 0.161247 -0.208424 0.978038 781.829 -242.843)" fill="white"/>
<rect width="0.630633" height="430.635" transform="matrix(0.986914 0.161247 -0.208424 0.978038 803.167 -239.357)" fill="white"/>
<rect width="0.630633" height="430.635" transform="matrix(0.986914 0.161247 -0.208424 0.978038 785.385 -242.262)" fill="white"/>
<rect width="0.630633" height="430.635" transform="matrix(0.986914 0.161247 -0.208424 0.978038 806.724 -238.776)" fill="white"/>
<rect width="0.630633" height="430.635" transform="matrix(0.986914 0.161247 -0.208424 0.978038 788.941 -241.681)" fill="white"/>
<rect width="0.630633" height="430.635" transform="matrix(0.986914 0.161247 -0.208424 0.978038 810.281 -238.195)" fill="white"/>
<rect width="0.630633" height="430.635" transform="matrix(0.986914 0.161247 -0.208424 0.978038 813.837 -237.614)" fill="white"/>
<rect width="0.630633" height="430.635" transform="matrix(0.986914 0.161247 -0.208424 0.978038 835.176 -234.127)" fill="white"/>
<rect width="0.630633" height="430.635" transform="matrix(0.986914 0.161247 -0.208424 0.978038 817.394 -237.033)" fill="white"/>
<rect width="0.630633" height="430.635" transform="matrix(0.986914 0.161247 -0.208424 0.978038 838.732 -233.546)" fill="white"/>
<rect width="0.630633" height="430.635" transform="matrix(0.986914 0.161247 -0.208424 0.978038 820.95 -236.452)" fill="white"/>
<rect width="0.630633" height="430.635" transform="matrix(0.986914 0.161247 -0.208424 0.978038 842.288 -232.965)" fill="white"/>
<rect width="0.630633" height="430.635" transform="matrix(0.986914 0.161247 -0.208424 0.978038 824.506 -235.87)" fill="white"/>
<rect width="0.630633" height="430.635" transform="matrix(0.986914 0.161247 -0.208424 0.978038 845.846 -232.384)" fill="white"/>
<rect width="0.630633" height="430.635" transform="matrix(0.986914 0.161247 -0.208424 0.978038 828.063 -235.29)" fill="white"/>
<rect width="0.630633" height="430.635" transform="matrix(0.986914 0.161247 -0.208424 0.978038 849.402 -231.803)" fill="white"/>
<rect width="0.630633" height="430.635" transform="matrix(0.986914 0.161247 -0.208424 0.978038 831.62 -234.708)" fill="white"/>
<rect width="0.630633" height="430.635" transform="matrix(0.986914 0.161247 -0.208424 0.978038 852.958 -231.222)" fill="white"/>
<rect width="0.630633" height="430.635" transform="matrix(0.986914 0.161247 -0.208424 0.978038 856.514 -230.641)" fill="white"/>
<rect width="0.630633" height="430.635" transform="matrix(0.986914 0.161247 -0.208424 0.978038 877.854 -227.154)" fill="white"/>
<rect width="0.630633" height="430.635" transform="matrix(0.986914 0.161247 -0.208424 0.978038 860.072 -230.06)" fill="white"/>
<rect width="0.630633" height="430.635" transform="matrix(0.986914 0.161247 -0.208424 0.978038 881.41 -226.573)" fill="white"/>
<rect width="0.630633" height="430.635" transform="matrix(0.986914 0.161247 -0.208424 0.978038 863.628 -229.479)" fill="white"/>
<rect width="0.630633" height="430.635" transform="matrix(0.986914 0.161247 -0.208424 0.978038 884.966 -225.992)" fill="white"/>
<rect width="0.630633" height="430.635" transform="matrix(0.986914 0.161247 -0.208424 0.978038 867.184 -228.897)" fill="white"/>
<rect width="0.630633" height="430.635" transform="matrix(0.986914 0.161247 -0.208424 0.978038 888.522 -225.411)" fill="white"/>
<rect width="0.630633" height="430.635" transform="matrix(0.986914 0.161247 -0.208424 0.978038 870.74 -228.316)" fill="white"/>
<rect width="0.630633" height="430.635" transform="matrix(0.986914 0.161247 -0.208424 0.978038 892.078 -224.83)" fill="white"/>
<rect width="0.630633" height="430.635" transform="matrix(0.986914 0.161247 -0.208424 0.978038 874.296 -227.735)" fill="white"/>
<rect width="0.630633" height="430.635" transform="matrix(0.986914 0.161247 -0.208424 0.978038 895.636 -224.249)" fill="white"/>
<rect width="0.630633" height="430.635" transform="matrix(0.986914 0.161247 -0.208424 0.978038 899.192 -223.668)" fill="white"/>
<rect width="0.630633" height="430.635" transform="matrix(0.986914 0.161247 -0.208424 0.978038 920.53 -220.182)" fill="white"/>
<rect width="0.630633" height="430.635" transform="matrix(0.986914 0.161247 -0.208424 0.978038 902.749 -223.087)" fill="white"/>
<rect width="0.630633" height="430.635" transform="matrix(0.986914 0.161247 -0.208424 0.978038 924.086 -219.601)" fill="white"/>
<rect width="0.630633" height="430.635" transform="matrix(0.986914 0.161247 -0.208424 0.978038 906.304 -222.505)" fill="white"/>
<rect width="0.630633" height="430.635" transform="matrix(0.986914 0.161247 -0.208424 0.978038 927.645 -219.02)" fill="white"/>
<rect width="0.630633" height="430.635" transform="matrix(0.986914 0.161247 -0.208424 0.978038 909.862 -221.924)" fill="white"/>
<rect width="0.630633" height="430.635" transform="matrix(0.986914 0.161247 -0.208424 0.978038 931.2 -218.438)" fill="white"/>
<rect width="0.630633" height="430.635" transform="matrix(0.986914 0.161247 -0.208424 0.978038 913.418 -221.343)" fill="white"/>
<rect width="0.630633" height="430.635" transform="matrix(0.986914 0.161247 -0.208424 0.978038 934.756 -217.857)" fill="white"/>
<rect width="0.630633" height="430.635" transform="matrix(0.986914 0.161247 -0.208424 0.978038 916.975 -220.763)" fill="white"/>
<rect width="0.630633" height="430.635" transform="matrix(0.986914 0.161247 -0.208424 0.978038 938.312 -217.276)" fill="white"/>
<rect width="0.630633" height="430.635" transform="matrix(0.986914 0.161247 -0.208424 0.978038 941.871 -216.695)" fill="white"/>
<rect width="0.630633" height="430.635" transform="matrix(0.986914 0.161247 -0.208424 0.978038 963.208 -213.208)" fill="white"/>
<rect width="0.630633" height="430.635" transform="matrix(0.986914 0.161247 -0.208424 0.978038 945.426 -216.114)" fill="white"/>
<rect width="0.630633" height="430.635" transform="matrix(0.986914 0.161247 -0.208424 0.978038 966.765 -212.627)" fill="white"/>
<rect width="0.630633" height="430.635" transform="matrix(0.986914 0.161247 -0.208424 0.978038 948.982 -215.533)" fill="white"/>
<rect width="0.630633" height="430.635" transform="matrix(0.986914 0.161247 -0.208424 0.978038 970.321 -212.046)" fill="white"/>
<rect width="0.630633" height="430.635" transform="matrix(0.986914 0.161247 -0.208424 0.978038 952.539 -214.952)" fill="white"/>
<rect width="0.630633" height="430.635" transform="matrix(0.986914 0.161247 -0.208424 0.978038 973.877 -211.465)" fill="white"/>
<rect width="0.630633" height="430.635" transform="matrix(0.986914 0.161247 -0.208424 0.978038 956.095 -214.371)" fill="white"/>
<rect width="0.630633" height="430.635" transform="matrix(0.986914 0.161247 -0.208424 0.978038 977.435 -210.884)" fill="white"/>
<rect width="0.630633" height="430.635" transform="matrix(0.986914 0.161247 -0.208424 0.978038 959.653 -213.79)" fill="white"/>
<rect width="0.630633" height="430.635" transform="matrix(0.986914 0.161247 -0.208424 0.978038 980.991 -210.303)" fill="white"/>
<rect width="0.630633" height="430.635" transform="matrix(0.986914 0.161247 -0.208424 0.978038 984.547 -209.722)" fill="white"/>
<rect width="0.630633" height="430.635" transform="matrix(0.986914 0.161247 -0.208424 0.978038 1005.89 -206.236)" fill="white"/>
<rect width="0.630633" height="430.635" transform="matrix(0.986914 0.161247 -0.208424 0.978038 988.103 -209.141)" fill="white"/>
<rect width="0.630633" height="430.635" transform="matrix(0.986914 0.161247 -0.208424 0.978038 1009.44 -205.655)" fill="white"/>
<rect width="0.630633" height="430.635" transform="matrix(0.986914 0.161247 -0.208424 0.978038 991.661 -208.56)" fill="white"/>
<rect width="0.630633" height="430.635" transform="matrix(0.986914 0.161247 -0.208424 0.978038 1013 -205.073)" fill="white"/>
<rect width="0.630633" height="430.635" transform="matrix(0.986914 0.161247 -0.208424 0.978038 995.217 -207.979)" fill="white"/>
<rect width="0.630633" height="430.635" transform="matrix(0.986914 0.161247 -0.208424 0.978038 1016.56 -204.492)" fill="white"/>
<rect width="0.630633" height="430.635" transform="matrix(0.986914 0.161247 -0.208424 0.978038 998.773 -207.398)" fill="white"/>
<rect width="0.630633" height="430.635" transform="matrix(0.986914 0.161247 -0.208424 0.978038 1020.11 -203.911)" fill="white"/>
<rect width="0.630633" height="430.635" transform="matrix(0.986914 0.161247 -0.208424 0.978038 1002.33 -206.817)" fill="white"/>
<rect width="0.630633" height="430.635" transform="matrix(0.986914 0.161247 -0.208424 0.978038 1023.67 -203.33)" fill="white"/>
<rect width="0.630633" height="430.635" transform="matrix(0.986914 0.161247 -0.208424 0.978038 1026.76 -202.825)" fill="white"/>
<rect width="0.630633" height="430.635" transform="matrix(0.986914 0.161247 -0.208424 0.978038 1048.1 -199.338)" fill="white"/>
<rect width="0.630633" height="430.635" transform="matrix(0.986914 0.161247 -0.208424 0.978038 1030.32 -202.243)" fill="white"/>
<rect width="0.630633" height="430.635" transform="matrix(0.986914 0.161247 -0.208424 0.978038 1051.66 -198.757)" fill="white"/>
<rect width="0.630633" height="430.635" transform="matrix(0.986914 0.161247 -0.208424 0.978038 1033.88 -201.663)" fill="white"/>
<rect width="0.630633" height="430.635" transform="matrix(0.986914 0.161247 -0.208424 0.978038 1055.21 -198.176)" fill="white"/>
<rect width="0.630633" height="430.635" transform="matrix(0.986914 0.161247 -0.208424 0.978038 1037.43 -201.082)" fill="white"/>
<rect width="0.630633" height="430.635" transform="matrix(0.986914 0.161247 -0.208424 0.978038 1058.77 -197.595)" fill="white"/>
<rect width="0.630633" height="430.635" transform="matrix(0.986914 0.161247 -0.208424 0.978038 1040.99 -200.5)" fill="white"/>
<rect width="0.630633" height="430.635" transform="matrix(0.986914 0.161247 -0.208424 0.978038 1062.33 -197.014)" fill="white"/>
<rect width="0.630633" height="430.635" transform="matrix(0.986914 0.161247 -0.208424 0.978038 1044.55 -199.919)" fill="white"/>
<rect width="0.630633" height="430.635" transform="matrix(0.986914 0.161247 -0.208424 0.978038 1065.88 -196.433)" fill="white"/>
<rect width="0.630633" height="430.635" transform="matrix(0.986914 0.161247 -0.208424 0.978038 1069.44 -195.852)" fill="white"/>
<rect width="0.630633" height="430.635" transform="matrix(0.986914 0.161247 -0.208424 0.978038 1090.78 -192.365)" fill="white"/>
<rect width="0.630633" height="430.635" transform="matrix(0.986914 0.161247 -0.208424 0.978038 1073 -195.271)" fill="white"/>
<rect width="0.630633" height="430.635" transform="matrix(0.986914 0.161247 -0.208424 0.978038 1094.34 -191.784)" fill="white"/>
<rect width="0.630633" height="430.635" transform="matrix(0.986914 0.161247 -0.208424 0.978038 1076.55 -194.689)" fill="white"/>
<rect width="0.630633" height="430.635" transform="matrix(0.986914 0.161247 -0.208424 0.978038 1097.89 -191.204)" fill="white"/>
<rect width="0.630633" height="430.635" transform="matrix(0.986914 0.161247 -0.208424 0.978038 1080.11 -194.108)" fill="white"/>
<rect width="0.630633" height="430.635" transform="matrix(0.986914 0.161247 -0.208424 0.978038 1101.45 -190.623)" fill="white"/>
<rect width="0.630633" height="430.635" transform="matrix(0.986914 0.161247 -0.208424 0.978038 1083.67 -193.527)" fill="white"/>
<rect width="0.630633" height="430.635" transform="matrix(0.986914 0.161247 -0.208424 0.978038 1105.01 -190.042)" fill="white"/>
<rect width="0.630633" height="430.635" transform="matrix(0.986914 0.161247 -0.208424 0.978038 1087.22 -192.946)" fill="white"/>
<rect width="0.630633" height="430.635" transform="matrix(0.986914 0.161247 -0.208424 0.978038 1108.56 -189.46)" fill="white"/>
<rect width="0.630633" height="430.635" transform="matrix(0.986914 0.161247 -0.208424 0.978038 1112.12 -188.879)" fill="white"/>
<rect width="0.630633" height="430.635" transform="matrix(0.986914 0.161247 -0.208424 0.978038 1133.46 -185.393)" fill="white"/>
<rect width="0.630633" height="430.635" transform="matrix(0.986914 0.161247 -0.208424 0.978038 1115.67 -188.298)" fill="white"/>
<rect width="0.630633" height="430.635" transform="matrix(0.986914 0.161247 -0.208424 0.978038 1137.01 -184.812)" fill="white"/>
<rect width="0.630633" height="430.635" transform="matrix(0.986914 0.161247 -0.208424 0.978038 1119.23 -187.717)" fill="white"/>
<rect width="0.630633" height="430.635" transform="matrix(0.986914 0.161247 -0.208424 0.978038 1140.57 -184.23)" fill="white"/>
<rect width="0.630633" height="430.635" transform="matrix(0.986914 0.161247 -0.208424 0.978038 1122.79 -187.136)" fill="white"/>
<rect width="0.630633" height="430.635" transform="matrix(0.986914 0.161247 -0.208424 0.978038 1144.13 -183.649)" fill="white"/>
<rect width="0.630633" height="430.635" transform="matrix(0.986914 0.161247 -0.208424 0.978038 1126.34 -186.555)" fill="white"/>
<rect width="0.630633" height="430.635" transform="matrix(0.986914 0.161247 -0.208424 0.978038 1147.68 -183.068)" fill="white"/>
<rect width="0.630633" height="430.635" transform="matrix(0.986914 0.161247 -0.208424 0.978038 1129.9 -185.974)" fill="white"/>
<rect width="0.630633" height="430.635" transform="matrix(0.986914 0.161247 -0.208424 0.978038 1151.24 -182.487)" fill="white"/>
<rect width="0.630633" height="430.635" transform="matrix(0.986914 0.161247 -0.208424 0.978038 1154.8 -181.906)" fill="white"/>
<rect width="0.630633" height="430.635" transform="matrix(0.986914 0.161247 -0.208424 0.978038 1176.13 -178.419)" fill="white"/>
<rect width="0.630633" height="430.635" transform="matrix(0.986914 0.161247 -0.208424 0.978038 1158.35 -181.325)" fill="white"/>
<rect width="0.630633" height="430.635" transform="matrix(0.986914 0.161247 -0.208424 0.978038 1179.69 -177.839)" fill="white"/>
<rect width="0.630633" height="430.635" transform="matrix(0.986914 0.161247 -0.208424 0.978038 1161.91 -180.744)" fill="white"/>
<rect width="0.630633" height="430.635" transform="matrix(0.986914 0.161247 -0.208424 0.978038 1183.25 -177.257)" fill="white"/>
<rect width="0.630633" height="430.635" transform="matrix(0.986914 0.161247 -0.208424 0.978038 1165.46 -180.163)" fill="white"/>
<rect width="0.630633" height="430.635" transform="matrix(0.986914 0.161247 -0.208424 0.978038 1186.8 -176.676)" fill="white"/>
<rect width="0.630633" height="430.635" transform="matrix(0.986914 0.161247 -0.208424 0.978038 1169.02 -179.582)" fill="white"/>
<rect width="0.630633" height="430.635" transform="matrix(0.986914 0.161247 -0.208424 0.978038 1190.36 -176.095)" fill="white"/>
<rect width="0.630633" height="430.635" transform="matrix(0.986914 0.161247 -0.208424 0.978038 1172.58 -179.001)" fill="white"/>
<rect width="0.630633" height="430.635" transform="matrix(0.986914 0.161247 -0.208424 0.978038 1193.92 -175.514)" fill="white"/>
<rect width="0.630633" height="430.635" transform="matrix(0.986914 0.161247 -0.208424 0.978038 1197.47 -174.933)" fill="white"/>
<rect width="0.630633" height="430.635" transform="matrix(0.986914 0.161247 -0.208424 0.978038 1218.81 -171.447)" fill="white"/>
<rect width="0.630633" height="430.635" transform="matrix(0.986914 0.161247 -0.208424 0.978038 1201.03 -174.352)" fill="white"/>
<rect width="0.630633" height="430.635" transform="matrix(0.986914 0.161247 -0.208424 0.978038 1222.37 -170.866)" fill="white"/>
<rect width="0.630633" height="430.635" transform="matrix(0.986914 0.161247 -0.208424 0.978038 1204.59 -173.771)" fill="white"/>
<rect width="0.630633" height="430.635" transform="matrix(0.986914 0.161247 -0.208424 0.978038 1225.92 -170.285)" fill="white"/>
<rect width="0.630633" height="430.635" transform="matrix(0.986914 0.161247 -0.208424 0.978038 1208.14 -173.19)" fill="white"/>
<rect width="0.630633" height="430.635" transform="matrix(0.986914 0.161247 -0.208424 0.978038 1229.48 -169.704)" fill="white"/>
<rect width="0.630633" height="430.635" transform="matrix(0.986914 0.161247 -0.208424 0.978038 1211.7 -172.609)" fill="white"/>
<rect width="0.630633" height="430.635" transform="matrix(0.986914 0.161247 -0.208424 0.978038 1233.04 -169.123)" fill="white"/>
<rect width="0.630633" height="430.635" transform="matrix(0.986914 0.161247 -0.208424 0.978038 1215.25 -172.028)" fill="white"/>
<rect width="0.630633" height="430.635" transform="matrix(0.986914 0.161247 -0.208424 0.978038 1236.59 -168.542)" fill="white"/>
<rect width="0.630633" height="430.635" transform="matrix(0.986914 0.161247 -0.208424 0.978038 1240.15 -167.96)" fill="white"/>
<rect width="0.630633" height="430.635" transform="matrix(0.986914 0.161247 -0.208424 0.978038 1261.49 -164.474)" fill="white"/>
<rect width="0.630633" height="430.635" transform="matrix(0.986914 0.161247 -0.208424 0.978038 1243.71 -167.379)" fill="white"/>
<rect width="0.630633" height="430.635" transform="matrix(0.986914 0.161247 -0.208424 0.978038 1265.04 -163.893)" fill="white"/>
<rect width="0.630633" height="430.635" transform="matrix(0.986914 0.161247 -0.208424 0.978038 1247.26 -166.798)" fill="white"/>
<rect width="0.630633" height="430.635" transform="matrix(0.986914 0.161247 -0.208424 0.978038 1268.6 -163.312)" fill="white"/>
<rect width="0.630633" height="430.635" transform="matrix(0.986914 0.161247 -0.208424 0.978038 1250.82 -166.217)" fill="white"/>
<rect width="0.630633" height="430.635" transform="matrix(0.986914 0.161247 -0.208424 0.978038 1272.16 -162.73)" fill="white"/>
<rect width="0.630633" height="430.635" transform="matrix(0.986914 0.161247 -0.208424 0.978038 1254.38 -165.636)" fill="white"/>
<rect width="0.630633" height="430.635" transform="matrix(0.986914 0.161247 -0.208424 0.978038 1275.71 -162.149)" fill="white"/>
<rect width="0.630633" height="430.635" transform="matrix(0.986914 0.161247 -0.208424 0.978038 1257.93 -165.055)" fill="white"/>
<rect width="0.630633" height="430.635" transform="matrix(0.986914 0.161247 -0.208424 0.978038 1279.27 -161.568)" fill="white"/>
<rect width="0.630633" height="430.635" transform="matrix(0.986914 0.161247 -0.208424 0.978038 1282.83 -160.988)" fill="white"/>
<rect width="0.630633" height="430.635" transform="matrix(0.986914 0.161247 -0.208424 0.978038 1304.17 -157.501)" fill="white"/>
<rect width="0.630633" height="430.635" transform="matrix(0.986914 0.161247 -0.208424 0.978038 1286.38 -160.407)" fill="white"/>
<rect width="0.630633" height="430.635" transform="matrix(0.986914 0.161247 -0.208424 0.978038 1307.72 -156.92)" fill="white"/>
<rect width="0.630633" height="430.635" transform="matrix(0.986914 0.161247 -0.208424 0.978038 1289.94 -159.825)" fill="white"/>
<rect width="0.630633" height="430.635" transform="matrix(0.986914 0.161247 -0.208424 0.978038 1311.28 -156.339)" fill="white"/>
<rect width="0.630633" height="430.635" transform="matrix(0.986914 0.161247 -0.208424 0.978038 1293.5 -159.244)" fill="white"/>
<rect width="0.630633" height="430.635" transform="matrix(0.986914 0.161247 -0.208424 0.978038 1314.84 -155.758)" fill="white"/>
<rect width="0.630633" height="430.635" transform="matrix(0.986914 0.161247 -0.208424 0.978038 1297.05 -158.663)" fill="white"/>
<rect width="0.630633" height="430.635" transform="matrix(0.986914 0.161247 -0.208424 0.978038 1318.39 -155.177)" fill="white"/>
<rect width="0.630633" height="430.635" transform="matrix(0.986914 0.161247 -0.208424 0.978038 1300.61 -158.082)" fill="white"/>
<rect width="0.630633" height="430.635" transform="matrix(0.986914 0.161247 -0.208424 0.978038 1321.95 -154.596)" fill="white"/>
<rect width="0.630633" height="430.635" transform="matrix(0.986914 0.161247 -0.208424 0.978038 1325.5 -154.014)" fill="white"/>
<rect width="0.630633" height="430.635" transform="matrix(0.986914 0.161247 -0.208424 0.978038 1346.84 -150.528)" fill="white"/>
<rect width="0.630633" height="430.635" transform="matrix(0.986914 0.161247 -0.208424 0.978038 1329.06 -153.433)" fill="white"/>
<rect width="0.630633" height="430.635" transform="matrix(0.986914 0.161247 -0.208424 0.978038 1350.4 -149.947)" fill="white"/>
<rect width="0.630633" height="430.635" transform="matrix(0.986914 0.161247 -0.208424 0.978038 1332.62 -152.852)" fill="white"/>
<rect width="0.630633" height="430.635" transform="matrix(0.986914 0.161247 -0.208424 0.978038 1353.96 -149.366)" fill="white"/>
<rect width="0.630633" height="430.635" transform="matrix(0.986914 0.161247 -0.208424 0.978038 1336.18 -152.271)" fill="white"/>
<rect width="0.630633" height="430.635" transform="matrix(0.986914 0.161247 -0.208424 0.978038 1357.51 -148.785)" fill="white"/>
<rect width="0.630633" height="430.635" transform="matrix(0.986914 0.161247 -0.208424 0.978038 1339.73 -151.69)" fill="white"/>
<rect width="0.630633" height="430.635" transform="matrix(0.986914 0.161247 -0.208424 0.978038 1361.07 -148.204)" fill="white"/>
<rect width="0.630633" height="430.635" transform="matrix(0.986914 0.161247 -0.208424 0.978038 1343.29 -151.109)" fill="white"/>
<rect width="0.630633" height="430.635" transform="matrix(0.986914 0.161247 -0.208424 0.978038 1364.63 -147.623)" fill="white"/>
<rect width="0.630633" height="430.635" transform="matrix(0.986914 0.161247 -0.208424 0.978038 1368.05 -146.47)" fill="white"/>
<rect width="0.630633" height="430.635" transform="matrix(0.986914 0.161247 -0.208424 0.978038 1389.39 -142.983)" fill="white"/>
<rect width="0.630633" height="430.635" transform="matrix(0.986914 0.161247 -0.208424 0.978038 1371.61 -145.889)" fill="white"/>
<rect width="0.630633" height="430.635" transform="matrix(0.986914 0.161247 -0.208424 0.978038 1392.95 -142.402)" fill="white"/>
<rect width="0.630633" height="430.635" transform="matrix(0.986914 0.161247 -0.208424 0.978038 1375.17 -145.308)" fill="white"/>
<rect width="0.630633" height="430.635" transform="matrix(0.986914 0.161247 -0.208424 0.978038 1396.51 -141.821)" fill="white"/>
<rect width="0.630633" height="430.635" transform="matrix(0.986914 0.161247 -0.208424 0.978038 1378.72 -144.727)" fill="white"/>
<rect width="0.630633" height="430.635" transform="matrix(0.986914 0.161247 -0.208424 0.978038 1400.06 -141.24)" fill="white"/>
<rect width="0.630633" height="430.635" transform="matrix(0.986914 0.161247 -0.208424 0.978038 1382.28 -144.146)" fill="white"/>
<rect width="0.630633" height="430.635" transform="matrix(0.986914 0.161247 -0.208424 0.978038 1403.62 -140.659)" fill="white"/>
<rect width="0.630633" height="430.635" transform="matrix(0.986914 0.161247 -0.208424 0.978038 1385.84 -143.564)" fill="white"/>
<rect width="0.630633" height="430.635" transform="matrix(0.986914 0.161247 -0.208424 0.978038 1407.18 -140.078)" fill="white"/>
<rect width="0.630633" height="430.635" transform="matrix(0.986914 0.161247 -0.208424 0.978038 1410.73 -139.497)" fill="white"/>
<rect width="0.630633" height="430.635" transform="matrix(0.986914 0.161247 -0.208424 0.978038 1432.07 -136.011)" fill="white"/>
<rect width="0.630633" height="430.635" transform="matrix(0.986914 0.161247 -0.208424 0.978038 1414.29 -138.916)" fill="white"/>
<rect width="0.630633" height="430.635" transform="matrix(0.986914 0.161247 -0.208424 0.978038 1435.63 -135.43)" fill="white"/>
<rect width="0.630633" height="430.635" transform="matrix(0.986914 0.161247 -0.208424 0.978038 1417.85 -138.335)" fill="white"/>
<rect width="0.630633" height="430.635" transform="matrix(0.986914 0.161247 -0.208424 0.978038 1439.18 -134.848)" fill="white"/>
<rect width="0.630633" height="430.635" transform="matrix(0.986914 0.161247 -0.208424 0.978038 1421.4 -137.754)" fill="white"/>
<rect width="0.630633" height="430.635" transform="matrix(0.986914 0.161247 -0.208424 0.978038 1442.74 -134.267)" fill="white"/>
<rect width="0.630633" height="430.635" transform="matrix(0.986914 0.161247 -0.208424 0.978038 1424.96 -137.173)" fill="white"/>
<rect width="0.630633" height="430.635" transform="matrix(0.986914 0.161247 -0.208424 0.978038 1446.3 -133.686)" fill="white"/>
<rect width="0.630633" height="430.635" transform="matrix(0.986914 0.161247 -0.208424 0.978038 1428.52 -136.592)" fill="white"/>
<rect width="0.630633" height="430.635" transform="matrix(0.986914 0.161247 -0.208424 0.978038 1449.85 -133.105)" fill="white"/>
<rect width="0.630633" height="430.635" transform="matrix(0.986914 0.161247 -0.208424 0.978038 1453.41 -132.524)" fill="white"/>
<rect width="0.630633" height="430.635" transform="matrix(0.986914 0.161247 -0.208424 0.978038 1474.75 -129.038)" fill="white"/>
<rect width="0.630633" height="430.635" transform="matrix(0.986914 0.161247 -0.208424 0.978038 1456.97 -131.943)" fill="white"/>
<rect width="0.630633" height="430.635" transform="matrix(0.986914 0.161247 -0.208424 0.978038 1478.31 -128.457)" fill="white"/>
<rect width="0.630633" height="430.635" transform="matrix(0.986914 0.161247 -0.208424 0.978038 1460.52 -131.362)" fill="white"/>
<rect width="0.630633" height="430.635" transform="matrix(0.986914 0.161247 -0.208424 0.978038 1481.86 -127.875)" fill="white"/>
<rect width="0.630633" height="430.635" transform="matrix(0.986914 0.161247 -0.208424 0.978038 1464.08 -130.781)" fill="white"/>
<rect width="0.630633" height="430.635" transform="matrix(0.986914 0.161247 -0.208424 0.978038 1485.42 -127.294)" fill="white"/>
<rect width="0.630633" height="430.635" transform="matrix(0.986914 0.161247 -0.208424 0.978038 1467.64 -130.2)" fill="white"/>
<rect width="0.630633" height="430.635" transform="matrix(0.986914 0.161247 -0.208424 0.978038 1488.97 -126.713)" fill="white"/>
<rect width="0.630633" height="430.635" transform="matrix(0.986914 0.161247 -0.208424 0.978038 1471.19 -129.619)" fill="white"/>
<rect width="0.630633" height="430.635" transform="matrix(0.986914 0.161247 -0.208424 0.978038 1492.53 -126.132)" fill="white"/>
<rect width="0.630633" height="430.635" transform="matrix(0.986914 0.161247 -0.208424 0.978038 1496.09 -125.551)" fill="white"/>
<rect width="0.630633" height="430.635" transform="matrix(0.986914 0.161247 -0.208424 0.978038 1517.43 -122.064)" fill="white"/>
<rect width="0.630633" height="430.635" transform="matrix(0.986914 0.161247 -0.208424 0.978038 1499.64 -124.97)" fill="white"/>
<rect width="0.630633" height="430.635" transform="matrix(0.986914 0.161247 -0.208424 0.978038 1520.98 -121.483)" fill="white"/>
<rect width="0.630633" height="430.635" transform="matrix(0.986914 0.161247 -0.208424 0.978038 1503.2 -124.389)" fill="white"/>
<rect width="0.630633" height="430.635" transform="matrix(0.986914 0.161247 -0.208424 0.978038 1524.54 -120.902)" fill="white"/>
<rect width="0.630633" height="430.635" transform="matrix(0.986914 0.161247 -0.208424 0.978038 1506.76 -123.808)" fill="white"/>
<rect width="0.630633" height="430.635" transform="matrix(0.986914 0.161247 -0.208424 0.978038 1528.1 -120.321)" fill="white"/>
<rect width="0.630633" height="430.635" transform="matrix(0.986914 0.161247 -0.208424 0.978038 1510.31 -123.227)" fill="white"/>
<rect width="0.630633" height="430.635" transform="matrix(0.986914 0.161247 -0.208424 0.978038 1531.65 -119.741)" fill="white"/>
<rect width="0.630633" height="430.635" transform="matrix(0.986914 0.161247 -0.208424 0.978038 1513.87 -122.646)" fill="white"/>
<rect width="0.630633" height="430.635" transform="matrix(0.986914 0.161247 -0.208424 0.978038 1535.21 -119.16)" fill="white"/>
<rect width="0.630633" height="430.635" transform="matrix(0.986914 0.161247 -0.208424 0.978038 1538.76 -118.579)" fill="white"/>
<rect width="0.630633" height="430.635" transform="matrix(0.986914 0.161247 -0.208424 0.978038 1560.1 -115.092)" fill="white"/>
<rect width="0.630633" height="430.635" transform="matrix(0.986914 0.161247 -0.208424 0.978038 1542.32 -117.998)" fill="white"/>
<rect width="0.630633" height="430.635" transform="matrix(0.986914 0.161247 -0.208424 0.978038 1563.66 -114.511)" fill="white"/>
<rect width="0.630633" height="430.635" transform="matrix(0.986914 0.161247 -0.208424 0.978038 1545.88 -117.417)" fill="white"/>
<rect width="0.630633" height="430.635" transform="matrix(0.986914 0.161247 -0.208424 0.978038 1567.22 -113.93)" fill="white"/>
<rect width="0.630633" height="430.635" transform="matrix(0.986914 0.161247 -0.208424 0.978038 1549.43 -116.835)" fill="white"/>
<rect width="0.630633" height="430.635" transform="matrix(0.986914 0.161247 -0.208424 0.978038 1570.77 -113.349)" fill="white"/>
<rect width="0.630633" height="430.635" transform="matrix(0.986914 0.161247 -0.208424 0.978038 1552.99 -116.254)" fill="white"/>
<rect width="0.630633" height="430.635" transform="matrix(0.986914 0.161247 -0.208424 0.978038 1574.33 -112.768)" fill="white"/>
<rect width="0.630633" height="430.635" transform="matrix(0.986914 0.161247 -0.208424 0.978038 1556.55 -115.673)" fill="white"/>
<rect width="0.630633" height="430.635" transform="matrix(0.986914 0.161247 -0.208424 0.978038 1577.89 -112.187)" fill="white"/>
<rect width="0.630633" height="430.635" transform="matrix(0.986914 0.161247 -0.208424 0.978038 1581.44 -111.605)" fill="white"/>
<rect width="0.630633" height="430.635" transform="matrix(0.986914 0.161247 -0.208424 0.978038 1602.78 -108.119)" fill="white"/>
<rect width="0.630633" height="430.635" transform="matrix(0.986914 0.161247 -0.208424 0.978038 1585 -111.024)" fill="white"/>
<rect width="0.630633" height="430.635" transform="matrix(0.986914 0.161247 -0.208424 0.978038 1606.34 -107.538)" fill="white"/>
<rect width="0.630633" height="430.635" transform="matrix(0.986914 0.161247 -0.208424 0.978038 1588.55 -110.443)" fill="white"/>
<rect width="0.630633" height="430.635" transform="matrix(0.986914 0.161247 -0.208424 0.978038 1609.89 -106.957)" fill="white"/>
<rect width="0.630633" height="430.635" transform="matrix(0.986914 0.161247 -0.208424 0.978038 1592.11 -109.862)" fill="white"/>
<rect width="0.630633" height="430.635" transform="matrix(0.986914 0.161247 -0.208424 0.978038 1613.45 -106.376)" fill="white"/>
<rect width="0.630633" height="430.635" transform="matrix(0.986914 0.161247 -0.208424 0.978038 1595.67 -109.281)" fill="white"/>
<rect width="0.630633" height="430.635" transform="matrix(0.986914 0.161247 -0.208424 0.978038 1617.01 -105.795)" fill="white"/>
<rect width="0.630633" height="430.635" transform="matrix(0.986914 0.161247 -0.208424 0.978038 1599.22 -108.7)" fill="white"/>
<rect width="0.630633" height="430.635" transform="matrix(0.986914 0.161247 -0.208424 0.978038 1620.56 -105.214)" fill="white"/>
<rect width="0.630633" height="430.635" transform="matrix(0.986914 0.161247 -0.208424 0.978038 1624.12 -104.633)" fill="white"/>
<rect width="0.630633" height="430.635" transform="matrix(0.986914 0.161247 -0.208424 0.978038 1627.68 -104.051)" fill="white"/>
<rect width="0.630633" height="430.635" transform="matrix(0.986914 0.161247 -0.208424 0.978038 1631.23 -103.47)" fill="white"/>
<rect width="0.630633" height="430.635" transform="matrix(0.986914 0.161247 -0.208424 0.978038 595.755 161.988)" fill="white"/>
<rect width="0.630633" height="430.635" transform="matrix(0.986914 0.161247 -0.208424 0.978038 617.093 165.475)" fill="white"/>
<rect width="0.630633" height="430.635" transform="matrix(0.986914 0.161247 -0.208424 0.978038 599.311 162.569)" fill="white"/>
<rect width="0.630633" height="430.635" transform="matrix(0.986914 0.161247 -0.208424 0.978038 620.649 166.056)" fill="white"/>
<rect width="0.630633" height="430.635" transform="matrix(0.986914 0.161247 -0.208424 0.978038 602.867 163.15)" fill="white"/>
<rect width="0.630633" height="430.635" transform="matrix(0.986914 0.161247 -0.208424 0.978038 624.207 166.637)" fill="white"/>
<rect width="0.630633" height="430.635" transform="matrix(0.986914 0.161247 -0.208424 0.978038 606.425 163.731)" fill="white"/>
<rect width="0.630633" height="430.635" transform="matrix(0.986914 0.161247 -0.208424 0.978038 627.763 167.218)" fill="white"/>
<rect width="0.630633" height="430.635" transform="matrix(0.986914 0.161247 -0.208424 0.978038 609.981 164.312)" fill="white"/>
<rect width="0.630633" height="430.635" transform="matrix(0.986914 0.161247 -0.208424 0.978038 631.319 167.798)" fill="white"/>
<rect width="0.630633" height="430.635" transform="matrix(0.986914 0.161247 -0.208424 0.978038 613.537 164.894)" fill="white"/>
<rect width="0.630633" height="430.635" transform="matrix(0.986914 0.161247 -0.208424 0.978038 634.875 168.38)" fill="white"/>
<rect width="0.630633" height="430.635" transform="matrix(0.986914 0.161247 -0.208424 0.978038 638.433 168.961)" fill="white"/>
<rect width="0.630633" height="430.635" transform="matrix(0.986914 0.161247 -0.208424 0.978038 659.771 172.447)" fill="white"/>
<rect width="0.630633" height="430.635" transform="matrix(0.986914 0.161247 -0.208424 0.978038 641.989 169.542)" fill="white"/>
<rect width="0.630633" height="430.635" transform="matrix(0.986914 0.161247 -0.208424 0.978038 663.327 173.028)" fill="white"/>
<rect width="0.630633" height="430.635" transform="matrix(0.986914 0.161247 -0.208424 0.978038 645.545 170.123)" fill="white"/>
<rect width="0.630633" height="430.635" transform="matrix(0.986914 0.161247 -0.208424 0.978038 666.883 173.61)" fill="white"/>
<rect width="0.630633" height="430.635" transform="matrix(0.986914 0.161247 -0.208424 0.978038 649.101 170.704)" fill="white"/>
<rect width="0.630633" height="430.635" transform="matrix(0.986914 0.161247 -0.208424 0.978038 670.439 174.191)" fill="white"/>
<rect width="0.630633" height="430.635" transform="matrix(0.986914 0.161247 -0.208424 0.978038 652.657 171.285)" fill="white"/>
<rect width="0.630633" height="430.635" transform="matrix(0.986914 0.161247 -0.208424 0.978038 673.998 174.772)" fill="white"/>
<rect width="0.630633" height="430.635" transform="matrix(0.986914 0.161247 -0.208424 0.978038 656.215 171.866)" fill="white"/>
<rect width="0.630633" height="430.635" transform="matrix(0.986914 0.161247 -0.208424 0.978038 677.553 175.353)" fill="white"/>
<rect width="0.630633" height="430.635" transform="matrix(0.986914 0.161247 -0.208424 0.978038 681.109 175.934)" fill="white"/>
<rect width="0.630633" height="430.635" transform="matrix(0.986914 0.161247 -0.208424 0.978038 702.448 179.42)" fill="white"/>
<rect width="0.630633" height="430.635" transform="matrix(0.986914 0.161247 -0.208424 0.978038 684.666 176.515)" fill="white"/>
<rect width="0.630633" height="430.635" transform="matrix(0.986914 0.161247 -0.208424 0.978038 706.005 180.001)" fill="white"/>
<rect width="0.630633" height="430.635" transform="matrix(0.986914 0.161247 -0.208424 0.978038 688.224 177.096)" fill="white"/>
<rect width="0.630633" height="430.635" transform="matrix(0.986914 0.161247 -0.208424 0.978038 709.562 180.583)" fill="white"/>
<rect width="0.630633" height="430.635" transform="matrix(0.986914 0.161247 -0.208424 0.978038 691.779 177.677)" fill="white"/>
<rect width="0.630633" height="430.635" transform="matrix(0.986914 0.161247 -0.208424 0.978038 713.118 181.164)" fill="white"/>
<rect width="0.630633" height="430.635" transform="matrix(0.986914 0.161247 -0.208424 0.978038 695.335 178.258)" fill="white"/>
<rect width="0.630633" height="430.635" transform="matrix(0.986914 0.161247 -0.208424 0.978038 716.674 181.745)" fill="white"/>
<rect width="0.630633" height="430.635" transform="matrix(0.986914 0.161247 -0.208424 0.978038 698.892 178.839)" fill="white"/>
<rect width="0.630633" height="430.635" transform="matrix(0.986914 0.161247 -0.208424 0.978038 720.231 182.326)" fill="white"/>
<rect width="0.630633" height="430.635" transform="matrix(0.986914 0.161247 -0.208424 0.978038 723.788 182.907)" fill="white"/>
<rect width="0.630633" height="430.635" transform="matrix(0.986914 0.161247 -0.208424 0.978038 745.126 186.393)" fill="white"/>
<rect width="0.630633" height="430.635" transform="matrix(0.986914 0.161247 -0.208424 0.978038 727.344 183.488)" fill="white"/>
<rect width="0.630633" height="430.635" transform="matrix(0.986914 0.161247 -0.208424 0.978038 748.682 186.974)" fill="white"/>
<rect width="0.630633" height="430.635" transform="matrix(0.986914 0.161247 -0.208424 0.978038 730.9 184.069)" fill="white"/>
<rect width="0.630633" height="430.635" transform="matrix(0.986914 0.161247 -0.208424 0.978038 752.238 187.555)" fill="white"/>
<rect width="0.630633" height="430.635" transform="matrix(0.986914 0.161247 -0.208424 0.978038 734.456 184.65)" fill="white"/>
<rect width="0.630633" height="430.635" transform="matrix(0.986914 0.161247 -0.208424 0.978038 755.796 188.136)" fill="white"/>
<rect width="0.630633" height="430.635" transform="matrix(0.986914 0.161247 -0.208424 0.978038 738.014 185.231)" fill="white"/>
<rect width="0.630633" height="430.635" transform="matrix(0.986914 0.161247 -0.208424 0.978038 759.352 188.717)" fill="white"/>
<rect width="0.630633" height="430.635" transform="matrix(0.986914 0.161247 -0.208424 0.978038 741.57 185.812)" fill="white"/>
<rect width="0.630633" height="430.635" transform="matrix(0.986914 0.161247 -0.208424 0.978038 762.908 189.298)" fill="white"/>
<rect width="0.630633" height="430.635" transform="matrix(0.986914 0.161247 -0.208424 0.978038 766.464 189.879)" fill="white"/>
<rect width="0.630633" height="430.635" transform="matrix(0.986914 0.161247 -0.208424 0.978038 787.804 193.366)" fill="white"/>
<rect width="0.630633" height="430.635" transform="matrix(0.986914 0.161247 -0.208424 0.978038 770.022 190.46)" fill="white"/>
<rect width="0.630633" height="430.635" transform="matrix(0.986914 0.161247 -0.208424 0.978038 791.36 193.947)" fill="white"/>
<rect width="0.630633" height="430.635" transform="matrix(0.986914 0.161247 -0.208424 0.978038 773.578 191.042)" fill="white"/>
<rect width="0.630633" height="430.635" transform="matrix(0.986914 0.161247 -0.208424 0.978038 794.917 194.528)" fill="white"/>
<rect width="0.630633" height="430.635" transform="matrix(0.986914 0.161247 -0.208424 0.978038 777.134 191.623)" fill="white"/>
<rect width="0.630633" height="430.635" transform="matrix(0.986914 0.161247 -0.208424 0.978038 798.473 195.109)" fill="white"/>
<rect width="0.630633" height="430.635" transform="matrix(0.986914 0.161247 -0.208424 0.978038 780.69 192.204)" fill="white"/>
<rect width="0.630633" height="430.635" transform="matrix(0.986914 0.161247 -0.208424 0.978038 802.028 195.69)" fill="white"/>
<rect width="0.630633" height="430.635" transform="matrix(0.986914 0.161247 -0.208424 0.978038 784.247 192.785)" fill="white"/>
<rect width="0.630633" height="430.635" transform="matrix(0.986914 0.161247 -0.208424 0.978038 805.586 196.271)" fill="white"/>
<rect width="0.630633" height="430.635" transform="matrix(0.986914 0.161247 -0.208424 0.978038 809.142 196.852)" fill="white"/>
<rect width="0.630633" height="430.635" transform="matrix(0.986914 0.161247 -0.208424 0.978038 830.48 200.339)" fill="white"/>
<rect width="0.630633" height="430.635" transform="matrix(0.986914 0.161247 -0.208424 0.978038 812.699 197.434)" fill="white"/>
<rect width="0.630633" height="430.635" transform="matrix(0.986914 0.161247 -0.208424 0.978038 834.037 200.92)" fill="white"/>
<rect width="0.630633" height="430.635" transform="matrix(0.986914 0.161247 -0.208424 0.978038 816.254 198.015)" fill="white"/>
<rect width="0.630633" height="430.635" transform="matrix(0.986914 0.161247 -0.208424 0.978038 837.595 201.501)" fill="white"/>
<rect width="0.630633" height="430.635" transform="matrix(0.986914 0.161247 -0.208424 0.978038 819.812 198.596)" fill="white"/>
<rect width="0.630633" height="430.635" transform="matrix(0.986914 0.161247 -0.208424 0.978038 841.15 202.082)" fill="white"/>
<rect width="0.630633" height="430.635" transform="matrix(0.986914 0.161247 -0.208424 0.978038 823.369 199.177)" fill="white"/>
<rect width="0.630633" height="430.635" transform="matrix(0.986914 0.161247 -0.208424 0.978038 844.707 202.663)" fill="white"/>
<rect width="0.630633" height="430.635" transform="matrix(0.986914 0.161247 -0.208424 0.978038 826.925 199.758)" fill="white"/>
<rect width="0.630633" height="430.635" transform="matrix(0.986914 0.161247 -0.208424 0.978038 848.263 203.245)" fill="white"/>
<rect width="0.630633" height="430.635" transform="matrix(0.986914 0.161247 -0.208424 0.978038 851.821 203.825)" fill="white"/>
<rect width="0.630633" height="430.635" transform="matrix(0.986914 0.161247 -0.208424 0.978038 873.159 207.312)" fill="white"/>
<rect width="0.630633" height="430.635" transform="matrix(0.986914 0.161247 -0.208424 0.978038 855.376 204.406)" fill="white"/>
<rect width="0.630633" height="430.635" transform="matrix(0.986914 0.161247 -0.208424 0.978038 876.715 207.893)" fill="white"/>
<rect width="0.630633" height="430.635" transform="matrix(0.986914 0.161247 -0.208424 0.978038 858.933 204.988)" fill="white"/>
<rect width="0.630633" height="430.635" transform="matrix(0.986914 0.161247 -0.208424 0.978038 880.271 208.474)" fill="white"/>
<rect width="0.630633" height="430.635" transform="matrix(0.986914 0.161247 -0.208424 0.978038 862.489 205.569)" fill="white"/>
<rect width="0.630633" height="430.635" transform="matrix(0.986914 0.161247 -0.208424 0.978038 883.827 209.055)" fill="white"/>
<rect width="0.630633" height="430.635" transform="matrix(0.986914 0.161247 -0.208424 0.978038 866.045 206.15)" fill="white"/>
<rect width="0.630633" height="430.635" transform="matrix(0.986914 0.161247 -0.208424 0.978038 887.385 209.636)" fill="white"/>
<rect width="0.630633" height="430.635" transform="matrix(0.986914 0.161247 -0.208424 0.978038 869.603 206.73)" fill="white"/>
<rect width="0.630633" height="430.635" transform="matrix(0.986914 0.161247 -0.208424 0.978038 890.941 210.217)" fill="white"/>
<rect width="0.630633" height="430.635" transform="matrix(0.986914 0.161247 -0.208424 0.978038 894.497 210.798)" fill="white"/>
<rect width="0.630633" height="430.635" transform="matrix(0.986914 0.161247 -0.208424 0.978038 915.835 214.285)" fill="white"/>
<rect width="0.630633" height="430.635" transform="matrix(0.986914 0.161247 -0.208424 0.978038 898.053 211.379)" fill="white"/>
<rect width="0.630633" height="430.635" transform="matrix(0.986914 0.161247 -0.208424 0.978038 919.393 214.866)" fill="white"/>
<rect width="0.630633" height="430.635" transform="matrix(0.986914 0.161247 -0.208424 0.978038 901.611 211.96)" fill="white"/>
<rect width="0.630633" height="430.635" transform="matrix(0.986914 0.161247 -0.208424 0.978038 922.949 215.447)" fill="white"/>
<rect width="0.630633" height="430.635" transform="matrix(0.986914 0.161247 -0.208424 0.978038 905.167 212.542)" fill="white"/>
<rect width="0.630633" height="430.635" transform="matrix(0.986914 0.161247 -0.208424 0.978038 926.505 216.028)" fill="white"/>
<rect width="0.630633" height="430.635" transform="matrix(0.986914 0.161247 -0.208424 0.978038 908.723 213.123)" fill="white"/>
<rect width="0.630633" height="430.635" transform="matrix(0.986914 0.161247 -0.208424 0.978038 930.061 216.609)" fill="white"/>
<rect width="0.630633" height="430.635" transform="matrix(0.986914 0.161247 -0.208424 0.978038 912.279 213.704)" fill="white"/>
<rect width="0.630633" height="430.635" transform="matrix(0.986914 0.161247 -0.208424 0.978038 933.618 217.19)" fill="white"/>
<rect width="0.630633" height="430.635" transform="matrix(0.986914 0.161247 -0.208424 0.978038 936.713 217.695)" fill="white"/>
<rect width="0.630633" height="430.635" transform="matrix(0.986914 0.161247 -0.208424 0.978038 958.051 221.182)" fill="white"/>
<rect width="0.630633" height="430.635" transform="matrix(0.986914 0.161247 -0.208424 0.978038 940.269 218.276)" fill="white"/>
<rect width="0.630633" height="430.635" transform="matrix(0.986914 0.161247 -0.208424 0.978038 961.609 221.763)" fill="white"/>
<rect width="0.630633" height="430.635" transform="matrix(0.986914 0.161247 -0.208424 0.978038 943.825 218.858)" fill="white"/>
<rect width="0.630633" height="430.635" transform="matrix(0.986914 0.161247 -0.208424 0.978038 965.166 222.344)" fill="white"/>
<rect width="0.630633" height="430.635" transform="matrix(0.986914 0.161247 -0.208424 0.978038 947.383 219.439)" fill="white"/>
<rect width="0.630633" height="430.635" transform="matrix(0.986914 0.161247 -0.208424 0.978038 968.721 222.925)" fill="white"/>
<rect width="0.630633" height="430.635" transform="matrix(0.986914 0.161247 -0.208424 0.978038 950.939 220.02)" fill="white"/>
<rect width="0.630633" height="430.635" transform="matrix(0.986914 0.161247 -0.208424 0.978038 972.277 223.507)" fill="white"/>
<rect width="0.630633" height="430.635" transform="matrix(0.986914 0.161247 -0.208424 0.978038 954.496 220.601)" fill="white"/>
<rect width="0.630633" height="430.635" transform="matrix(0.986914 0.161247 -0.208424 0.978038 975.833 224.087)" fill="white"/>
<rect width="0.630633" height="430.635" transform="matrix(0.986914 0.161247 -0.208424 0.978038 979.392 224.668)" fill="white"/>
<rect width="0.630633" height="430.635" transform="matrix(0.986914 0.161247 -0.208424 0.978038 1000.73 228.155)" fill="white"/>
<rect width="0.630633" height="430.635" transform="matrix(0.986914 0.161247 -0.208424 0.978038 982.947 225.25)" fill="white"/>
<rect width="0.630633" height="430.635" transform="matrix(0.986914 0.161247 -0.208424 0.978038 1004.29 228.736)" fill="white"/>
<rect width="0.630633" height="430.635" transform="matrix(0.986914 0.161247 -0.208424 0.978038 986.503 225.831)" fill="white"/>
<rect width="0.630633" height="430.635" transform="matrix(0.986914 0.161247 -0.208424 0.978038 1007.84 229.317)" fill="white"/>
<rect width="0.630633" height="430.635" transform="matrix(0.986914 0.161247 -0.208424 0.978038 990.06 226.412)" fill="white"/>
<rect width="0.630633" height="430.635" transform="matrix(0.986914 0.161247 -0.208424 0.978038 1011.4 229.898)" fill="white"/>
<rect width="0.630633" height="430.635" transform="matrix(0.986914 0.161247 -0.208424 0.978038 993.616 226.993)" fill="white"/>
<rect width="0.630633" height="430.635" transform="matrix(0.986914 0.161247 -0.208424 0.978038 1014.96 230.479)" fill="white"/>
<rect width="0.630633" height="430.635" transform="matrix(0.986914 0.161247 -0.208424 0.978038 997.173 227.574)" fill="white"/>
<rect width="0.630633" height="430.635" transform="matrix(0.986914 0.161247 -0.208424 0.978038 2.75586 168.602)" fill="white"/>
<rect width="0.630633" height="430.635" transform="matrix(0.986914 0.161247 -0.208424 0.978038 6.31152 169.183)" fill="white"/>
<rect width="0.630633" height="430.635" transform="matrix(0.986914 0.161247 -0.208424 0.978038 9.86768 169.764)" fill="white"/>
<rect width="0.630633" height="430.635" transform="matrix(0.986914 0.161247 -0.208424 0.978038 13.4238 170.346)" fill="white"/>
<rect width="0.630633" height="430.635" transform="matrix(0.986914 0.161247 -0.208424 0.978038 16.9814 170.926)" fill="white"/>
<rect width="0.630633" height="430.635" transform="matrix(0.986914 0.161247 -0.208424 0.978038 20.5376 171.508)" fill="white"/>
<rect width="0.630633" height="430.635" transform="matrix(0.986914 0.161247 -0.208424 0.978038 41.8765 174.994)" fill="white"/>
<rect width="0.630633" height="430.635" transform="matrix(0.986914 0.161247 -0.208424 0.978038 24.0938 172.089)" fill="white"/>
<rect width="0.630633" height="430.635" transform="matrix(0.986914 0.161247 -0.208424 0.978038 45.4321 175.575)" fill="white"/>
<rect width="0.630633" height="430.635" transform="matrix(0.986914 0.161247 -0.208424 0.978038 27.6499 172.67)" fill="white"/>
<rect width="0.630633" height="430.635" transform="matrix(0.986914 0.161247 -0.208424 0.978038 48.9883 176.156)" fill="white"/>
<rect width="0.630633" height="430.635" transform="matrix(0.986914 0.161247 -0.208424 0.978038 31.2061 173.251)" fill="white"/>
<rect width="0.630633" height="430.635" transform="matrix(0.986914 0.161247 -0.208424 0.978038 52.5459 176.737)" fill="white"/>
<rect width="0.630633" height="430.635" transform="matrix(0.986914 0.161247 -0.208424 0.978038 34.7637 173.832)" fill="white"/>
<rect width="0.630633" height="430.635" transform="matrix(0.986914 0.161247 -0.208424 0.978038 56.1021 177.318)" fill="white"/>
<rect width="0.630633" height="430.635" transform="matrix(0.986914 0.161247 -0.208424 0.978038 38.3198 174.413)" fill="white"/>
<rect width="0.630633" height="430.635" transform="matrix(0.986914 0.161247 -0.208424 0.978038 59.6582 177.899)" fill="white"/>
<rect width="0.630633" height="430.635" transform="matrix(0.986914 0.161247 -0.208424 0.978038 63.2144 178.48)" fill="white"/>
<rect width="0.630633" height="430.635" transform="matrix(0.986914 0.161247 -0.208424 0.978038 84.5542 181.967)" fill="white"/>
<rect width="0.630633" height="430.635" transform="matrix(0.986914 0.161247 -0.208424 0.978038 66.772 179.062)" fill="white"/>
<rect width="0.630633" height="430.635" transform="matrix(0.986914 0.161247 -0.208424 0.978038 88.1104 182.548)" fill="white"/>
<rect width="0.630633" height="430.635" transform="matrix(0.986914 0.161247 -0.208424 0.978038 70.3281 179.643)" fill="white"/>
<rect width="0.630633" height="430.635" transform="matrix(0.986914 0.161247 -0.208424 0.978038 91.666 183.129)" fill="white"/>
<rect width="0.630633" height="430.635" transform="matrix(0.986914 0.161247 -0.208424 0.978038 73.8843 180.224)" fill="white"/>
<rect width="0.630633" height="430.635" transform="matrix(0.986914 0.161247 -0.208424 0.978038 95.2222 183.71)" fill="white"/>
<rect width="0.630633" height="430.635" transform="matrix(0.986914 0.161247 -0.208424 0.978038 77.4399 180.805)" fill="white"/>
<rect width="0.630633" height="430.635" transform="matrix(0.986914 0.161247 -0.208424 0.978038 98.7783 184.292)" fill="white"/>
<rect width="0.630633" height="430.635" transform="matrix(0.986914 0.161247 -0.208424 0.978038 80.9961 181.386)" fill="white"/>
<rect width="0.630633" height="430.635" transform="matrix(0.986914 0.161247 -0.208424 0.978038 102.336 184.872)" fill="white"/>
<rect width="0.630633" height="430.635" transform="matrix(0.986914 0.161247 -0.208424 0.978038 105.893 185.453)" fill="white"/>
<rect width="0.630633" height="430.635" transform="matrix(0.986914 0.161247 -0.208424 0.978038 127.23 188.94)" fill="white"/>
<rect width="0.630633" height="430.635" transform="matrix(0.986914 0.161247 -0.208424 0.978038 109.449 186.034)" fill="white"/>
<rect width="0.630633" height="430.635" transform="matrix(0.986914 0.161247 -0.208424 0.978038 130.787 189.521)" fill="white"/>
<rect width="0.630633" height="430.635" transform="matrix(0.986914 0.161247 -0.208424 0.978038 113.004 186.615)" fill="white"/>
<rect width="0.630633" height="430.635" transform="matrix(0.986914 0.161247 -0.208424 0.978038 134.345 190.102)" fill="white"/>
<rect width="0.630633" height="430.635" transform="matrix(0.986914 0.161247 -0.208424 0.978038 116.562 187.196)" fill="white"/>
<rect width="0.630633" height="430.635" transform="matrix(0.986914 0.161247 -0.208424 0.978038 137.901 190.683)" fill="white"/>
<rect width="0.630633" height="430.635" transform="matrix(0.986914 0.161247 -0.208424 0.978038 120.119 187.777)" fill="white"/>
<rect width="0.630633" height="430.635" transform="matrix(0.986914 0.161247 -0.208424 0.978038 141.457 191.264)" fill="white"/>
<rect width="0.630633" height="430.635" transform="matrix(0.986914 0.161247 -0.208424 0.978038 123.674 188.358)" fill="white"/>
<rect width="0.630633" height="430.635" transform="matrix(0.986914 0.161247 -0.208424 0.978038 145.013 191.845)" fill="white"/>
<rect width="0.630633" height="430.635" transform="matrix(0.986914 0.161247 -0.208424 0.978038 148.571 192.426)" fill="white"/>
<rect width="0.630633" height="430.635" transform="matrix(0.986914 0.161247 -0.208424 0.978038 169.909 195.913)" fill="white"/>
<rect width="0.630633" height="430.635" transform="matrix(0.986914 0.161247 -0.208424 0.978038 152.126 193.007)" fill="white"/>
<rect width="0.630633" height="430.635" transform="matrix(0.986914 0.161247 -0.208424 0.978038 173.465 196.494)" fill="white"/>
<rect width="0.630633" height="430.635" transform="matrix(0.986914 0.161247 -0.208424 0.978038 155.683 193.588)" fill="white"/>
<rect width="0.630633" height="430.635" transform="matrix(0.986914 0.161247 -0.208424 0.978038 177.021 197.075)" fill="white"/>
<rect width="0.630633" height="430.635" transform="matrix(0.986914 0.161247 -0.208424 0.978038 159.239 194.169)" fill="white"/>
<rect width="0.630633" height="430.635" transform="matrix(0.986914 0.161247 -0.208424 0.978038 180.577 197.656)" fill="white"/>
<rect width="0.630633" height="430.635" transform="matrix(0.986914 0.161247 -0.208424 0.978038 162.795 194.75)" fill="white"/>
<rect width="0.630633" height="430.635" transform="matrix(0.986914 0.161247 -0.208424 0.978038 184.135 198.237)" fill="white"/>
<rect width="0.630633" height="430.635" transform="matrix(0.986914 0.161247 -0.208424 0.978038 166.353 195.332)" fill="white"/>
<rect width="0.630633" height="430.635" transform="matrix(0.986914 0.161247 -0.208424 0.978038 187.691 198.818)" fill="white"/>
<rect width="0.630633" height="430.635" transform="matrix(0.986914 0.161247 -0.208424 0.978038 191.247 199.399)" fill="white"/>
<rect width="0.630633" height="430.635" transform="matrix(0.986914 0.161247 -0.208424 0.978038 212.585 202.886)" fill="white"/>
<rect width="0.630633" height="430.635" transform="matrix(0.986914 0.161247 -0.208424 0.978038 194.803 199.98)" fill="white"/>
<rect width="0.630633" height="430.635" transform="matrix(0.986914 0.161247 -0.208424 0.978038 216.143 203.467)" fill="white"/>
<rect width="0.630633" height="430.635" transform="matrix(0.986914 0.161247 -0.208424 0.978038 198.361 200.562)" fill="white"/>
<rect width="0.630633" height="430.635" transform="matrix(0.986914 0.161247 -0.208424 0.978038 219.699 204.048)" fill="white"/>
<rect width="0.630633" height="430.635" transform="matrix(0.986914 0.161247 -0.208424 0.978038 201.917 201.143)" fill="white"/>
<rect width="0.630633" height="430.635" transform="matrix(0.986914 0.161247 -0.208424 0.978038 223.255 204.629)" fill="white"/>
<rect width="0.630633" height="430.635" transform="matrix(0.986914 0.161247 -0.208424 0.978038 205.473 201.724)" fill="white"/>
<rect width="0.630633" height="430.635" transform="matrix(0.986914 0.161247 -0.208424 0.978038 226.812 205.209)" fill="white"/>
<rect width="0.630633" height="430.635" transform="matrix(0.986914 0.161247 -0.208424 0.978038 209.029 202.305)" fill="white"/>
<rect width="0.630633" height="430.635" transform="matrix(0.986914 0.161247 -0.208424 0.978038 230.367 205.791)" fill="white"/>
<rect width="0.630633" height="430.635" transform="matrix(0.986914 0.161247 -0.208424 0.978038 233.463 206.296)" fill="white"/>
<rect width="0.630633" height="430.635" transform="matrix(0.986914 0.161247 -0.208424 0.978038 254.801 209.783)" fill="white"/>
<rect width="0.630633" height="430.635" transform="matrix(0.986914 0.161247 -0.208424 0.978038 237.019 206.877)" fill="white"/>
<rect width="0.630633" height="430.635" transform="matrix(0.986914 0.161247 -0.208424 0.978038 258.359 210.364)" fill="white"/>
<rect width="0.630633" height="430.635" transform="matrix(0.986914 0.161247 -0.208424 0.978038 240.575 207.458)" fill="white"/>
<rect width="0.630633" height="430.635" transform="matrix(0.986914 0.161247 -0.208424 0.978038 261.916 210.945)" fill="white"/>
<rect width="0.630633" height="430.635" transform="matrix(0.986914 0.161247 -0.208424 0.978038 244.133 208.04)" fill="white"/>
<rect width="0.630633" height="430.635" transform="matrix(0.986914 0.161247 -0.208424 0.978038 265.471 211.526)" fill="white"/>
<rect width="0.630633" height="430.635" transform="matrix(0.986914 0.161247 -0.208424 0.978038 247.689 208.621)" fill="white"/>
<rect width="0.630633" height="430.635" transform="matrix(0.986914 0.161247 -0.208424 0.978038 269.027 212.107)" fill="white"/>
<rect width="0.630633" height="430.635" transform="matrix(0.986914 0.161247 -0.208424 0.978038 251.245 209.202)" fill="white"/>
<rect width="0.630633" height="430.635" transform="matrix(0.986914 0.161247 -0.208424 0.978038 272.583 212.688)" fill="white"/>
<rect width="0.630633" height="430.635" transform="matrix(0.986914 0.161247 -0.208424 0.978038 276.141 213.27)" fill="white"/>
<rect width="0.630633" height="430.635" transform="matrix(0.986914 0.161247 -0.208424 0.978038 297.48 216.756)" fill="white"/>
<rect width="0.630633" height="430.635" transform="matrix(0.986914 0.161247 -0.208424 0.978038 279.697 213.851)" fill="white"/>
<rect width="0.630633" height="430.635" transform="matrix(0.986914 0.161247 -0.208424 0.978038 301.036 217.337)" fill="white"/>
<rect width="0.630633" height="430.635" transform="matrix(0.986914 0.161247 -0.208424 0.978038 283.254 214.431)" fill="white"/>
<rect width="0.630633" height="430.635" transform="matrix(0.986914 0.161247 -0.208424 0.978038 304.592 217.918)" fill="white"/>
<rect width="0.630633" height="430.635" transform="matrix(0.986914 0.161247 -0.208424 0.978038 286.81 215.012)" fill="white"/>
<rect width="0.630633" height="430.635" transform="matrix(0.986914 0.161247 -0.208424 0.978038 308.149 218.499)" fill="white"/>
<rect width="0.630633" height="430.635" transform="matrix(0.986914 0.161247 -0.208424 0.978038 290.366 215.594)" fill="white"/>
<rect width="0.630633" height="430.635" transform="matrix(0.986914 0.161247 -0.208424 0.978038 311.706 219.08)" fill="white"/>
<rect width="0.630633" height="430.635" transform="matrix(0.986914 0.161247 -0.208424 0.978038 293.923 216.174)" fill="white"/>
<rect width="0.630633" height="430.635" transform="matrix(0.986914 0.161247 -0.208424 0.978038 315.262 219.661)" fill="white"/>
<rect width="0.630633" height="430.635" transform="matrix(0.986914 0.161247 -0.208424 0.978038 318.818 220.243)" fill="white"/>
<rect width="0.630633" height="430.635" transform="matrix(0.986914 0.161247 -0.208424 0.978038 340.156 223.729)" fill="white"/>
<rect width="0.630633" height="430.635" transform="matrix(0.986914 0.161247 -0.208424 0.978038 322.374 220.823)" fill="white"/>
<rect width="0.630633" height="430.635" transform="matrix(0.986914 0.161247 -0.208424 0.978038 343.714 224.31)" fill="white"/>
<rect width="0.630633" height="430.635" transform="matrix(0.986914 0.161247 -0.208424 0.978038 325.932 221.404)" fill="white"/>
<rect width="0.630633" height="430.635" transform="matrix(0.986914 0.161247 -0.208424 0.978038 347.27 224.891)" fill="white"/>
<rect width="0.630633" height="430.635" transform="matrix(0.986914 0.161247 -0.208424 0.978038 329.487 221.986)" fill="white"/>
<rect width="0.630633" height="430.635" transform="matrix(0.986914 0.161247 -0.208424 0.978038 350.826 225.472)" fill="white"/>
<rect width="0.630633" height="430.635" transform="matrix(0.986914 0.161247 -0.208424 0.978038 333.043 222.566)" fill="white"/>
<rect width="0.630633" height="430.635" transform="matrix(0.986914 0.161247 -0.208424 0.978038 354.382 226.053)" fill="white"/>
<rect width="0.630633" height="430.635" transform="matrix(0.986914 0.161247 -0.208424 0.978038 336.6 223.148)" fill="white"/>
<rect width="0.630633" height="430.635" transform="matrix(0.986914 0.161247 -0.208424 0.978038 357.94 226.634)" fill="white"/>
<rect width="0.630633" height="430.635" transform="matrix(0.986914 0.161247 -0.208424 0.978038 361.496 227.215)" fill="white"/>
<rect width="0.630633" height="430.635" transform="matrix(0.986914 0.161247 -0.208424 0.978038 382.834 230.702)" fill="white"/>
<rect width="0.630633" height="430.635" transform="matrix(0.986914 0.161247 -0.208424 0.978038 365.052 227.796)" fill="white"/>
<rect width="0.630633" height="430.635" transform="matrix(0.986914 0.161247 -0.208424 0.978038 368.608 228.377)" fill="white"/>
<rect width="0.630633" height="430.635" transform="matrix(0.986914 0.161247 -0.208424 0.978038 372.164 228.958)" fill="white"/>
<rect width="0.630633" height="430.635" transform="matrix(0.986914 0.161247 -0.208424 0.978038 375.722 229.54)" fill="white"/>
<rect width="0.630633" height="430.635" transform="matrix(0.986914 0.161247 -0.208424 0.978038 379.278 230.121)" fill="white"/>
</g>
</g>
</svg>
