<svg width="500" height="1325" viewBox="0 0 500 1325" fill="none" xmlns="http://www.w3.org/2000/svg">
<mask id="mask0_550_117" style="mask-type:alpha" maskUnits="userSpaceOnUse" x="0" y="0" width="500" height="1325">
<rect width="500" height="1325" fill="white" fill-opacity="0.3"/>
</mask>
<g mask="url(#mask0_550_117)">
<rect width="0.744494" height="577.478" rx="0.372247" transform="matrix(0.982904 0.184121 -0.182742 0.983161 1.37109 -214.907)" fill="black"/>
<rect width="0.744494" height="577.478" rx="0.372247" transform="matrix(0.982904 0.184121 -0.182742 0.983161 26.4609 -210.207)" fill="black"/>
<rect width="0.744494" height="577.478" rx="0.372247" transform="matrix(0.982904 0.184121 -0.182742 0.983161 5.54688 -214.123)" fill="black"/>
<rect width="0.744494" height="577.478" rx="0.372247" transform="matrix(0.982904 0.184121 -0.182742 0.983161 30.6406 -209.423)" fill="black"/>
<rect width="0.744494" height="577.478" rx="0.372247" transform="matrix(0.982904 0.184121 -0.182742 0.983161 9.73828 -213.34)" fill="black"/>
<rect width="0.744494" height="577.478" rx="0.372247" transform="matrix(0.982904 0.184121 -0.182742 0.983161 34.8281 -208.64)" fill="black"/>
<rect width="0.744494" height="577.478" rx="0.372247" transform="matrix(0.982904 0.184121 -0.182742 0.983161 13.9141 -212.557)" fill="black"/>
<rect width="0.744494" height="577.478" rx="0.372247" transform="matrix(0.982904 0.184121 -0.182742 0.983161 39.0039 -207.857)" fill="black"/>
<rect width="0.744494" height="577.478" rx="0.372247" transform="matrix(0.982904 0.184121 -0.182742 0.983161 18.0938 -211.774)" fill="black"/>
<rect width="0.744494" height="577.478" rx="0.372247" transform="matrix(0.982904 0.184121 -0.182742 0.983161 43.1836 -207.074)" fill="black"/>
<rect width="0.744494" height="577.478" rx="0.372247" transform="matrix(0.982904 0.184121 -0.182742 0.983161 22.2773 -210.99)" fill="black"/>
<rect width="0.744494" height="577.478" rx="0.372247" transform="matrix(0.982904 0.184121 -0.182742 0.983161 47.3672 -206.29)" fill="black"/>
<rect width="0.744494" height="577.478" rx="0.372247" transform="matrix(0.982904 0.184121 -0.182742 0.983161 51.5508 -205.507)" fill="black"/>
<rect width="0.744494" height="577.478" rx="0.372247" transform="matrix(0.982904 0.184121 -0.182742 0.983161 76.6406 -200.807)" fill="black"/>
<rect width="0.744494" height="577.478" rx="0.372247" transform="matrix(0.982904 0.184121 -0.182742 0.983161 55.7305 -204.724)" fill="black"/>
<rect width="0.744494" height="577.478" rx="0.372247" transform="matrix(0.982904 0.184121 -0.182742 0.983161 80.8203 -200.024)" fill="black"/>
<rect width="0.744494" height="577.478" rx="0.372247" transform="matrix(0.982904 0.184121 -0.182742 0.983161 59.9102 -203.941)" fill="black"/>
<rect width="0.744494" height="577.478" rx="0.372247" transform="matrix(0.982904 0.184121 -0.182742 0.983161 84.9961 -199.241)" fill="black"/>
<rect width="0.744494" height="577.478" rx="0.372247" transform="matrix(0.982904 0.184121 -0.182742 0.983161 64.0938 -203.157)" fill="black"/>
<rect width="0.744494" height="577.478" rx="0.372247" transform="matrix(0.982904 0.184121 -0.182742 0.983161 89.1875 -198.458)" fill="black"/>
<rect width="0.744494" height="577.478" rx="0.372247" transform="matrix(0.982904 0.184121 -0.182742 0.983161 68.2734 -202.374)" fill="black"/>
<rect width="0.744494" height="577.478" rx="0.372247" transform="matrix(0.982904 0.184121 -0.182742 0.983161 93.3672 -197.674)" fill="black"/>
<rect width="0.744494" height="577.478" rx="0.372247" transform="matrix(0.982904 0.184121 -0.182742 0.983161 72.4531 -201.591)" fill="black"/>
<rect width="0.744494" height="577.478" rx="0.372247" transform="matrix(0.982904 0.184121 -0.182742 0.983161 97.543 -196.891)" fill="black"/>
<rect width="0.744494" height="577.478" rx="0.372247" transform="matrix(0.982904 0.184121 -0.182742 0.983161 101.727 -196.107)" fill="black"/>
<rect width="0.744494" height="577.478" rx="0.372247" transform="matrix(0.982904 0.184121 -0.182742 0.983161 126.812 -191.408)" fill="black"/>
<rect width="0.744494" height="577.478" rx="0.372247" transform="matrix(0.982904 0.184121 -0.182742 0.983161 105.906 -195.324)" fill="black"/>
<rect width="0.744494" height="577.478" rx="0.372247" transform="matrix(0.982904 0.184121 -0.182742 0.983161 131 -190.624)" fill="black"/>
<rect width="0.744494" height="577.478" rx="0.372247" transform="matrix(0.982904 0.184121 -0.182742 0.983161 110.09 -194.541)" fill="black"/>
<rect width="0.744494" height="577.478" rx="0.372247" transform="matrix(0.982904 0.184121 -0.182742 0.983161 135.18 -189.841)" fill="black"/>
<rect width="0.744494" height="577.478" rx="0.372247" transform="matrix(0.982904 0.184121 -0.182742 0.983161 114.27 -193.758)" fill="black"/>
<rect width="0.744494" height="577.478" rx="0.372247" transform="matrix(0.982904 0.184121 -0.182742 0.983161 139.359 -189.058)" fill="black"/>
<rect width="0.744494" height="577.478" rx="0.372247" transform="matrix(0.982904 0.184121 -0.182742 0.983161 118.457 -192.974)" fill="black"/>
<rect width="0.744494" height="577.478" rx="0.372247" transform="matrix(0.982904 0.184121 -0.182742 0.983161 143.543 -188.275)" fill="black"/>
<rect width="0.744494" height="577.478" rx="0.372247" transform="matrix(0.982904 0.184121 -0.182742 0.983161 122.633 -192.191)" fill="black"/>
<rect width="0.744494" height="577.478" rx="0.372247" transform="matrix(0.982904 0.184121 -0.182742 0.983161 147.727 -187.491)" fill="black"/>
<rect width="0.744494" height="577.478" rx="0.372247" transform="matrix(0.982904 0.184121 -0.182742 0.983161 151.754 -185.938)" fill="black"/>
<rect width="0.744494" height="577.478" rx="0.372247" transform="matrix(0.982904 0.184121 -0.182742 0.983161 176.844 -181.238)" fill="black"/>
<rect width="0.744494" height="577.478" rx="0.372247" transform="matrix(0.982904 0.184121 -0.182742 0.983161 155.934 -185.154)" fill="black"/>
<rect width="0.744494" height="577.478" rx="0.372247" transform="matrix(0.982904 0.184121 -0.182742 0.983161 181.02 -180.455)" fill="black"/>
<rect width="0.744494" height="577.478" rx="0.372247" transform="matrix(0.982904 0.184121 -0.182742 0.983161 160.121 -184.371)" fill="black"/>
<rect width="0.744494" height="577.478" rx="0.372247" transform="matrix(0.982904 0.184121 -0.182742 0.983161 185.203 -179.671)" fill="black"/>
<rect width="0.744494" height="577.478" rx="0.372247" transform="matrix(0.982904 0.184121 -0.182742 0.983161 164.301 -183.588)" fill="black"/>
<rect width="0.744494" height="577.478" rx="0.372247" transform="matrix(0.982904 0.184121 -0.182742 0.983161 189.387 -178.888)" fill="black"/>
<rect width="0.744494" height="577.478" rx="0.372247" transform="matrix(0.982904 0.184121 -0.182742 0.983161 168.48 -182.804)" fill="black"/>
<rect width="0.744494" height="577.478" rx="0.372247" transform="matrix(0.982904 0.184121 -0.182742 0.983161 193.57 -178.105)" fill="black"/>
<rect width="0.744494" height="577.478" rx="0.372247" transform="matrix(0.982904 0.184121 -0.182742 0.983161 172.664 -182.021)" fill="black"/>
<rect width="0.744494" height="577.478" rx="0.372247" transform="matrix(0.982904 0.184121 -0.182742 0.983161 197.746 -177.321)" fill="black"/>
<rect width="0.744494" height="577.478" rx="0.372247" transform="matrix(0.982904 0.184121 -0.182742 0.983161 201.934 -176.538)" fill="black"/>
<rect width="0.744494" height="577.478" rx="0.372247" transform="matrix(0.982904 0.184121 -0.182742 0.983161 227.023 -171.838)" fill="black"/>
<rect width="0.744494" height="577.478" rx="0.372247" transform="matrix(0.982904 0.184121 -0.182742 0.983161 206.113 -175.755)" fill="black"/>
<rect width="0.744494" height="577.478" rx="0.372247" transform="matrix(0.982904 0.184121 -0.182742 0.983161 231.203 -171.055)" fill="black"/>
<rect width="0.744494" height="577.478" rx="0.372247" transform="matrix(0.982904 0.184121 -0.182742 0.983161 210.293 -174.972)" fill="black"/>
<rect width="0.744494" height="577.478" rx="0.372247" transform="matrix(0.982904 0.184121 -0.182742 0.983161 235.383 -170.272)" fill="black"/>
<rect width="0.744494" height="577.478" rx="0.372247" transform="matrix(0.982904 0.184121 -0.182742 0.983161 214.48 -174.188)" fill="black"/>
<rect width="0.744494" height="577.478" rx="0.372247" transform="matrix(0.982904 0.184121 -0.182742 0.983161 239.562 -169.488)" fill="black"/>
<rect width="0.744494" height="577.478" rx="0.372247" transform="matrix(0.982904 0.184121 -0.182742 0.983161 218.66 -173.405)" fill="black"/>
<rect width="0.744494" height="577.478" rx="0.372247" transform="matrix(0.982904 0.184121 -0.182742 0.983161 243.75 -168.705)" fill="black"/>
<rect width="0.744494" height="577.478" rx="0.372247" transform="matrix(0.982904 0.184121 -0.182742 0.983161 222.84 -172.622)" fill="black"/>
<rect width="0.744494" height="577.478" rx="0.372247" transform="matrix(0.982904 0.184121 -0.182742 0.983161 247.926 -167.922)" fill="black"/>
<rect width="0.744494" height="577.478" rx="0.372247" transform="matrix(0.982904 0.184121 -0.182742 0.983161 252.109 -167.138)" fill="black"/>
<rect width="0.744494" height="577.478" rx="0.372247" transform="matrix(0.982904 0.184121 -0.182742 0.983161 277.195 -162.439)" fill="black"/>
<rect width="0.744494" height="577.478" rx="0.372247" transform="matrix(0.982904 0.184121 -0.182742 0.983161 256.297 -166.355)" fill="black"/>
<rect width="0.744494" height="577.478" rx="0.372247" transform="matrix(0.982904 0.184121 -0.182742 0.983161 281.379 -161.656)" fill="black"/>
<rect width="0.744494" height="577.478" rx="0.372247" transform="matrix(0.982904 0.184121 -0.182742 0.983161 260.477 -165.572)" fill="black"/>
<rect width="0.744494" height="577.478" rx="0.372247" transform="matrix(0.982904 0.184121 -0.182742 0.983161 285.562 -160.872)" fill="black"/>
<rect width="0.744494" height="577.478" rx="0.372247" transform="matrix(0.982904 0.184121 -0.182742 0.983161 264.652 -164.789)" fill="black"/>
<rect width="0.744494" height="577.478" rx="0.372247" transform="matrix(0.982904 0.184121 -0.182742 0.983161 289.742 -160.089)" fill="black"/>
<rect width="0.744494" height="577.478" rx="0.372247" transform="matrix(0.982904 0.184121 -0.182742 0.983161 268.84 -164.005)" fill="black"/>
<rect width="0.744494" height="577.478" rx="0.372247" transform="matrix(0.982904 0.184121 -0.182742 0.983161 293.922 -159.305)" fill="black"/>
<rect width="0.744494" height="577.478" rx="0.372247" transform="matrix(0.982904 0.184121 -0.182742 0.983161 273.02 -163.222)" fill="black"/>
<rect width="0.744494" height="577.478" rx="0.372247" transform="matrix(0.982904 0.184121 -0.182742 0.983161 298.109 -158.522)" fill="black"/>
<rect width="0.744494" height="577.478" rx="0.372247" transform="matrix(0.982904 0.184121 -0.182742 0.983161 302.289 -157.739)" fill="black"/>
<rect width="0.744494" height="577.478" rx="0.372247" transform="matrix(0.982904 0.184121 -0.182742 0.983161 327.379 -153.039)" fill="black"/>
<rect width="0.744494" height="577.478" rx="0.372247" transform="matrix(0.982904 0.184121 -0.182742 0.983161 306.469 -156.956)" fill="black"/>
<rect width="0.744494" height="577.478" rx="0.372247" transform="matrix(0.982904 0.184121 -0.182742 0.983161 331.559 -152.256)" fill="black"/>
<rect width="0.744494" height="577.478" rx="0.372247" transform="matrix(0.982904 0.184121 -0.182742 0.983161 310.652 -156.172)" fill="black"/>
<rect width="0.744494" height="577.478" rx="0.372247" transform="matrix(0.982904 0.184121 -0.182742 0.983161 335.738 -151.473)" fill="black"/>
<rect width="0.744494" height="577.478" rx="0.372247" transform="matrix(0.982904 0.184121 -0.182742 0.983161 314.832 -155.389)" fill="black"/>
<rect width="0.744494" height="577.478" rx="0.372247" transform="matrix(0.982904 0.184121 -0.182742 0.983161 339.926 -150.689)" fill="black"/>
<rect width="0.744494" height="577.478" rx="0.372247" transform="matrix(0.982904 0.184121 -0.182742 0.983161 319.016 -154.606)" fill="black"/>
<rect width="0.744494" height="577.478" rx="0.372247" transform="matrix(0.982904 0.184121 -0.182742 0.983161 344.102 -149.906)" fill="black"/>
<rect width="0.744494" height="577.478" rx="0.372247" transform="matrix(0.982904 0.184121 -0.182742 0.983161 323.203 -153.823)" fill="black"/>
<rect width="0.744494" height="577.478" rx="0.372247" transform="matrix(0.982904 0.184121 -0.182742 0.983161 348.285 -149.123)" fill="black"/>
<rect width="0.744494" height="577.478" rx="0.372247" transform="matrix(0.982904 0.184121 -0.182742 0.983161 352.469 -148.34)" fill="black"/>
<rect width="0.744494" height="577.478" rx="0.372247" transform="matrix(0.982904 0.184121 -0.182742 0.983161 377.559 -143.64)" fill="black"/>
<rect width="0.744494" height="577.478" rx="0.372247" transform="matrix(0.982904 0.184121 -0.182742 0.983161 356.648 -147.556)" fill="black"/>
<rect width="0.744494" height="577.478" rx="0.372247" transform="matrix(0.982904 0.184121 -0.182742 0.983161 381.738 -142.857)" fill="black"/>
<rect width="0.744494" height="577.478" rx="0.372247" transform="matrix(0.982904 0.184121 -0.182742 0.983161 360.828 -146.773)" fill="black"/>
<rect width="0.744494" height="577.478" rx="0.372247" transform="matrix(0.982904 0.184121 -0.182742 0.983161 385.918 -142.073)" fill="black"/>
<rect width="0.744494" height="577.478" rx="0.372247" transform="matrix(0.982904 0.184121 -0.182742 0.983161 365.012 -145.99)" fill="black"/>
<rect width="0.744494" height="577.478" rx="0.372247" transform="matrix(0.982904 0.184121 -0.182742 0.983161 390.094 -141.29)" fill="black"/>
<rect width="0.744494" height="577.478" rx="0.372247" transform="matrix(0.982904 0.184121 -0.182742 0.983161 369.191 -145.206)" fill="black"/>
<rect width="0.744494" height="577.478" rx="0.372247" transform="matrix(0.982904 0.184121 -0.182742 0.983161 394.285 -140.507)" fill="black"/>
<rect width="0.744494" height="577.478" rx="0.372247" transform="matrix(0.982904 0.184121 -0.182742 0.983161 373.371 -144.423)" fill="black"/>
<rect width="0.744494" height="577.478" rx="0.372247" transform="matrix(0.982904 0.184121 -0.182742 0.983161 398.465 -139.723)" fill="black"/>
<rect width="0.744494" height="577.478" rx="0.372247" transform="matrix(0.982904 0.184121 -0.182742 0.983161 402.645 -138.94)" fill="black"/>
<rect width="0.744494" height="577.478" rx="0.372247" transform="matrix(0.982904 0.184121 -0.182742 0.983161 427.734 -134.24)" fill="black"/>
<rect width="0.744494" height="577.478" rx="0.372247" transform="matrix(0.982904 0.184121 -0.182742 0.983161 406.828 -138.157)" fill="black"/>
<rect width="0.744494" height="577.478" rx="0.372247" transform="matrix(0.982904 0.184121 -0.182742 0.983161 431.91 -133.457)" fill="black"/>
<rect width="0.744494" height="577.478" rx="0.372247" transform="matrix(0.982904 0.184121 -0.182742 0.983161 411.008 -137.374)" fill="black"/>
<rect width="0.744494" height="577.478" rx="0.372247" transform="matrix(0.982904 0.184121 -0.182742 0.983161 436.098 -132.673)" fill="black"/>
<rect width="0.744494" height="577.478" rx="0.372247" transform="matrix(0.982904 0.184121 -0.182742 0.983161 415.188 -136.59)" fill="black"/>
<rect width="0.744494" height="577.478" rx="0.372247" transform="matrix(0.982904 0.184121 -0.182742 0.983161 440.277 -131.89)" fill="black"/>
<rect width="0.744494" height="577.478" rx="0.372247" transform="matrix(0.982904 0.184121 -0.182742 0.983161 419.371 -135.807)" fill="black"/>
<rect width="0.744494" height="577.478" rx="0.372247" transform="matrix(0.982904 0.184121 -0.182742 0.983161 444.461 -131.107)" fill="black"/>
<rect width="0.744494" height="577.478" rx="0.372247" transform="matrix(0.982904 0.184121 -0.182742 0.983161 423.555 -135.023)" fill="black"/>
<rect width="0.744494" height="577.478" rx="0.372247" transform="matrix(0.982904 0.184121 -0.182742 0.983161 448.641 -130.324)" fill="black"/>
<rect width="0.744494" height="577.478" rx="0.372247" transform="matrix(0.982904 0.184121 -0.182742 0.983161 452.824 -129.541)" fill="black"/>
<rect width="0.744494" height="577.478" rx="0.372247" transform="matrix(0.982904 0.184121 -0.182742 0.983161 477.914 -124.841)" fill="black"/>
<rect width="0.744494" height="577.478" rx="0.372247" transform="matrix(0.982904 0.184121 -0.182742 0.983161 457.004 -128.757)" fill="black"/>
<rect width="0.744494" height="577.478" rx="0.372247" transform="matrix(0.982904 0.184121 -0.182742 0.983161 482.094 -124.057)" fill="black"/>
<rect width="0.744494" height="577.478" rx="0.372247" transform="matrix(0.982904 0.184121 -0.182742 0.983161 461.188 -127.974)" fill="black"/>
<rect width="0.744494" height="577.478" rx="0.372247" transform="matrix(0.982904 0.184121 -0.182742 0.983161 486.27 -123.274)" fill="black"/>
<rect width="0.744494" height="577.478" rx="0.372247" transform="matrix(0.982904 0.184121 -0.182742 0.983161 465.367 -127.191)" fill="black"/>
<rect width="0.744494" height="577.478" rx="0.372247" transform="matrix(0.982904 0.184121 -0.182742 0.983161 490.457 -122.491)" fill="black"/>
<rect width="0.744494" height="577.478" rx="0.372247" transform="matrix(0.982904 0.184121 -0.182742 0.983161 469.547 -126.407)" fill="black"/>
<rect width="0.744494" height="577.478" rx="0.372247" transform="matrix(0.982904 0.184121 -0.182742 0.983161 494.637 -121.707)" fill="black"/>
<rect width="0.744494" height="577.478" rx="0.372247" transform="matrix(0.982904 0.184121 -0.182742 0.983161 473.734 -125.624)" fill="black"/>
<rect width="0.744494" height="577.478" rx="0.372247" transform="matrix(0.982904 0.184121 -0.182742 0.983161 498.816 -120.924)" fill="black"/>
<rect width="0.744494" height="577.478" rx="0.372247" transform="matrix(0.982904 0.184121 -0.182742 0.983161 503.004 -120.141)" fill="black"/>
<rect width="0.744494" height="577.478" rx="0.372247" transform="matrix(0.982904 0.184121 -0.182742 0.983161 528.086 -115.441)" fill="black"/>
<rect width="0.744494" height="577.478" rx="0.372247" transform="matrix(0.982904 0.184121 -0.182742 0.983161 507.18 -119.358)" fill="black"/>
<rect width="0.744494" height="577.478" rx="0.372247" transform="matrix(0.982904 0.184121 -0.182742 0.983161 532.277 -114.658)" fill="black"/>
<rect width="0.744494" height="577.478" rx="0.372247" transform="matrix(0.982904 0.184121 -0.182742 0.983161 511.363 -118.574)" fill="black"/>
<rect width="0.744494" height="577.478" rx="0.372247" transform="matrix(0.982904 0.184121 -0.182742 0.983161 536.453 -113.875)" fill="black"/>
<rect width="0.744494" height="577.478" rx="0.372247" transform="matrix(0.982904 0.184121 -0.182742 0.983161 515.551 -117.791)" fill="black"/>
<rect width="0.744494" height="577.478" rx="0.372247" transform="matrix(0.982904 0.184121 -0.182742 0.983161 540.633 -113.091)" fill="black"/>
<rect width="0.744494" height="577.478" rx="0.372247" transform="matrix(0.982904 0.184121 -0.182742 0.983161 519.73 -117.008)" fill="black"/>
<rect width="0.744494" height="577.478" rx="0.372247" transform="matrix(0.982904 0.184121 -0.182742 0.983161 544.816 -112.308)" fill="black"/>
<rect width="0.744494" height="577.478" rx="0.372247" transform="matrix(0.982904 0.184121 -0.182742 0.983161 523.906 -116.224)" fill="black"/>
<rect width="0.744494" height="577.478" rx="0.372247" transform="matrix(0.982904 0.184121 -0.182742 0.983161 548.996 -111.524)" fill="black"/>
<rect width="0.744494" height="577.478" rx="0.372247" transform="matrix(0.982904 0.184121 -0.182742 0.983161 552.637 -110.843)" fill="black"/>
<rect width="0.744494" height="577.478" rx="0.372247" transform="matrix(0.982904 0.184121 -0.182742 0.983161 577.727 -106.143)" fill="black"/>
<rect width="0.744494" height="577.478" rx="0.372247" transform="matrix(0.982904 0.184121 -0.182742 0.983161 556.816 -110.06)" fill="black"/>
<rect width="0.744494" height="577.478" rx="0.372247" transform="matrix(0.982904 0.184121 -0.182742 0.983161 581.906 -105.36)" fill="black"/>
<rect width="0.744494" height="577.478" rx="0.372247" transform="matrix(0.982904 0.184121 -0.182742 0.983161 561 -109.276)" fill="black"/>
<rect width="0.744494" height="577.478" rx="0.372247" transform="matrix(0.982904 0.184121 -0.182742 0.983161 586.082 -104.577)" fill="black"/>
<rect width="0.744494" height="577.478" rx="0.372247" transform="matrix(0.982904 0.184121 -0.182742 0.983161 565.184 -108.493)" fill="black"/>
<rect width="0.744494" height="577.478" rx="0.372247" transform="matrix(0.982904 0.184121 -0.182742 0.983161 590.273 -103.793)" fill="black"/>
<rect width="0.744494" height="577.478" rx="0.372247" transform="matrix(0.982904 0.184121 -0.182742 0.983161 569.363 -107.71)" fill="black"/>
<rect width="0.744494" height="577.478" rx="0.372247" transform="matrix(0.982904 0.184121 -0.182742 0.983161 594.449 -103.01)" fill="black"/>
<rect width="0.744494" height="577.478" rx="0.372247" transform="matrix(0.982904 0.184121 -0.182742 0.983161 573.543 -106.927)" fill="black"/>
<rect width="0.744494" height="577.478" rx="0.372247" transform="matrix(0.982904 0.184121 -0.182742 0.983161 598.633 -102.227)" fill="black"/>
<rect width="0.744494" height="577.478" rx="0.372247" transform="matrix(0.982904 0.184121 -0.182742 0.983161 602.82 -101.444)" fill="black"/>
<rect width="0.744494" height="577.478" rx="0.372247" transform="matrix(0.982904 0.184121 -0.182742 0.983161 0.367188 372.359)" fill="black"/>
<rect width="0.744494" height="577.478" rx="0.372247" transform="matrix(0.982904 0.184121 -0.182742 0.983161 4.54688 373.142)" fill="black"/>
<rect width="0.744494" height="577.478" rx="0.372247" transform="matrix(0.982904 0.184121 -0.182742 0.983161 8.72656 373.925)" fill="black"/>
<rect width="0.744494" height="577.478" rx="0.372247" transform="matrix(0.982904 0.184121 -0.182742 0.983161 12.9102 374.708)" fill="black"/>
<rect width="0.744494" height="577.478" rx="0.372247" transform="matrix(0.982904 0.184121 -0.182742 0.983161 17.0938 375.492)" fill="black"/>
<rect width="0.744494" height="577.478" rx="0.372247" transform="matrix(0.982904 0.184121 -0.182742 0.983161 21.2695 376.275)" fill="black"/>
<rect width="0.744494" height="577.478" rx="0.372247" transform="matrix(0.982904 0.184121 -0.182742 0.983161 25.457 377.058)" fill="black"/>
<rect width="0.744494" height="577.478" rx="0.372247" transform="matrix(0.982904 0.184121 -0.182742 0.983161 50.543 381.759)" fill="black"/>
<rect width="0.744494" height="577.478" rx="0.372247" transform="matrix(0.982904 0.184121 -0.182742 0.983161 29.6367 377.842)" fill="black"/>
<rect width="0.744494" height="577.478" rx="0.372247" transform="matrix(0.982904 0.184121 -0.182742 0.983161 54.7266 382.541)" fill="black"/>
<rect width="0.744494" height="577.478" rx="0.372247" transform="matrix(0.982904 0.184121 -0.182742 0.983161 33.8164 378.625)" fill="black"/>
<rect width="0.744494" height="577.478" rx="0.372247" transform="matrix(0.982904 0.184121 -0.182742 0.983161 58.9062 383.325)" fill="black"/>
<rect width="0.744494" height="577.478" rx="0.372247" transform="matrix(0.982904 0.184121 -0.182742 0.983161 38.0039 379.409)" fill="black"/>
<rect width="0.744494" height="577.478" rx="0.372247" transform="matrix(0.982904 0.184121 -0.182742 0.983161 63.0859 384.108)" fill="black"/>
<rect width="0.744494" height="577.478" rx="0.372247" transform="matrix(0.982904 0.184121 -0.182742 0.983161 42.1836 380.192)" fill="black"/>
<rect width="0.744494" height="577.478" rx="0.372247" transform="matrix(0.982904 0.184121 -0.182742 0.983161 67.2734 384.891)" fill="black"/>
<rect width="0.744494" height="577.478" rx="0.372247" transform="matrix(0.982904 0.184121 -0.182742 0.983161 46.3633 380.975)" fill="black"/>
<rect width="0.744494" height="577.478" rx="0.372247" transform="matrix(0.982904 0.184121 -0.182742 0.983161 71.4492 385.675)" fill="black"/>
<rect width="0.744494" height="577.478" rx="0.372247" transform="matrix(0.982904 0.184121 -0.182742 0.983161 75.6289 386.458)" fill="black"/>
<rect width="0.744494" height="577.478" rx="0.372247" transform="matrix(0.982904 0.184121 -0.182742 0.983161 100.719 391.158)" fill="black"/>
<rect width="0.744494" height="577.478" rx="0.372247" transform="matrix(0.982904 0.184121 -0.182742 0.983161 79.8164 387.241)" fill="black"/>
<rect width="0.744494" height="577.478" rx="0.372247" transform="matrix(0.982904 0.184121 -0.182742 0.983161 104.902 391.941)" fill="black"/>
<rect width="0.744494" height="577.478" rx="0.372247" transform="matrix(0.982904 0.184121 -0.182742 0.983161 83.9961 388.025)" fill="black"/>
<rect width="0.744494" height="577.478" rx="0.372247" transform="matrix(0.982904 0.184121 -0.182742 0.983161 109.086 392.725)" fill="black"/>
<rect width="0.744494" height="577.478" rx="0.372247" transform="matrix(0.982904 0.184121 -0.182742 0.983161 88.1797 388.808)" fill="black"/>
<rect width="0.744494" height="577.478" rx="0.372247" transform="matrix(0.982904 0.184121 -0.182742 0.983161 113.266 393.508)" fill="black"/>
<rect width="0.744494" height="577.478" rx="0.372247" transform="matrix(0.982904 0.184121 -0.182742 0.983161 92.3594 389.591)" fill="black"/>
<rect width="0.744494" height="577.478" rx="0.372247" transform="matrix(0.982904 0.184121 -0.182742 0.983161 117.445 394.291)" fill="black"/>
<rect width="0.744494" height="577.478" rx="0.372247" transform="matrix(0.982904 0.184121 -0.182742 0.983161 96.543 390.375)" fill="black"/>
<rect width="0.744494" height="577.478" rx="0.372247" transform="matrix(0.982904 0.184121 -0.182742 0.983161 121.637 395.074)" fill="black"/>
<rect width="0.744494" height="577.478" rx="0.372247" transform="matrix(0.982904 0.184121 -0.182742 0.983161 125.812 395.858)" fill="black"/>
<rect width="0.744494" height="577.478" rx="0.372247" transform="matrix(0.982904 0.184121 -0.182742 0.983161 150.902 400.557)" fill="black"/>
<rect width="0.744494" height="577.478" rx="0.372247" transform="matrix(0.982904 0.184121 -0.182742 0.983161 129.992 396.641)" fill="black"/>
<rect width="0.744494" height="577.478" rx="0.372247" transform="matrix(0.982904 0.184121 -0.182742 0.983161 155.082 401.341)" fill="black"/>
<rect width="0.744494" height="577.478" rx="0.372247" transform="matrix(0.982904 0.184121 -0.182742 0.983161 134.176 397.424)" fill="black"/>
<rect width="0.744494" height="577.478" rx="0.372247" transform="matrix(0.982904 0.184121 -0.182742 0.983161 159.262 402.124)" fill="black"/>
<rect width="0.744494" height="577.478" rx="0.372247" transform="matrix(0.982904 0.184121 -0.182742 0.983161 138.355 398.208)" fill="black"/>
<rect width="0.744494" height="577.478" rx="0.372247" transform="matrix(0.982904 0.184121 -0.182742 0.983161 163.449 402.907)" fill="black"/>
<rect width="0.744494" height="577.478" rx="0.372247" transform="matrix(0.982904 0.184121 -0.182742 0.983161 142.535 398.991)" fill="black"/>
<rect width="0.744494" height="577.478" rx="0.372247" transform="matrix(0.982904 0.184121 -0.182742 0.983161 167.629 403.691)" fill="black"/>
<rect width="0.744494" height="577.478" rx="0.372247" transform="matrix(0.982904 0.184121 -0.182742 0.983161 146.715 399.774)" fill="black"/>
<rect width="0.744494" height="577.478" rx="0.372247" transform="matrix(0.982904 0.184121 -0.182742 0.983161 171.805 404.474)" fill="black"/>
<rect width="0.744494" height="577.478" rx="0.372247" transform="matrix(0.982904 0.184121 -0.182742 0.983161 175.988 405.257)" fill="black"/>
<rect width="0.744494" height="577.478" rx="0.372247" transform="matrix(0.982904 0.184121 -0.182742 0.983161 201.078 409.957)" fill="black"/>
<rect width="0.744494" height="577.478" rx="0.372247" transform="matrix(0.982904 0.184121 -0.182742 0.983161 180.172 406.04)" fill="black"/>
<rect width="0.744494" height="577.478" rx="0.372247" transform="matrix(0.982904 0.184121 -0.182742 0.983161 205.262 410.74)" fill="black"/>
<rect width="0.744494" height="577.478" rx="0.372247" transform="matrix(0.982904 0.184121 -0.182742 0.983161 184.352 406.824)" fill="black"/>
<rect width="0.744494" height="577.478" rx="0.372247" transform="matrix(0.982904 0.184121 -0.182742 0.983161 209.441 411.524)" fill="black"/>
<rect width="0.744494" height="577.478" rx="0.372247" transform="matrix(0.982904 0.184121 -0.182742 0.983161 188.535 407.607)" fill="black"/>
<rect width="0.744494" height="577.478" rx="0.372247" transform="matrix(0.982904 0.184121 -0.182742 0.983161 213.621 412.307)" fill="black"/>
<rect width="0.744494" height="577.478" rx="0.372247" transform="matrix(0.982904 0.184121 -0.182742 0.983161 192.715 408.39)" fill="black"/>
<rect width="0.744494" height="577.478" rx="0.372247" transform="matrix(0.982904 0.184121 -0.182742 0.983161 217.805 413.09)" fill="black"/>
<rect width="0.744494" height="577.478" rx="0.372247" transform="matrix(0.982904 0.184121 -0.182742 0.983161 196.895 409.173)" fill="black"/>
<rect width="0.744494" height="577.478" rx="0.372247" transform="matrix(0.982904 0.184121 -0.182742 0.983161 221.988 413.873)" fill="black"/>
<rect width="0.744494" height="577.478" rx="0.372247" transform="matrix(0.982904 0.184121 -0.182742 0.983161 226.168 414.657)" fill="black"/>
<rect width="0.744494" height="577.478" rx="0.372247" transform="matrix(0.982904 0.184121 -0.182742 0.983161 251.258 419.356)" fill="black"/>
<rect width="0.744494" height="577.478" rx="0.372247" transform="matrix(0.982904 0.184121 -0.182742 0.983161 230.352 415.44)" fill="black"/>
<rect width="0.744494" height="577.478" rx="0.372247" transform="matrix(0.982904 0.184121 -0.182742 0.983161 255.434 420.14)" fill="black"/>
<rect width="0.744494" height="577.478" rx="0.372247" transform="matrix(0.982904 0.184121 -0.182742 0.983161 234.535 416.223)" fill="black"/>
<rect width="0.744494" height="577.478" rx="0.372247" transform="matrix(0.982904 0.184121 -0.182742 0.983161 259.621 420.923)" fill="black"/>
<rect width="0.744494" height="577.478" rx="0.372247" transform="matrix(0.982904 0.184121 -0.182742 0.983161 238.711 417.007)" fill="black"/>
<rect width="0.744494" height="577.478" rx="0.372247" transform="matrix(0.982904 0.184121 -0.182742 0.983161 263.801 421.706)" fill="black"/>
<rect width="0.744494" height="577.478" rx="0.372247" transform="matrix(0.982904 0.184121 -0.182742 0.983161 242.895 417.79)" fill="black"/>
<rect width="0.744494" height="577.478" rx="0.372247" transform="matrix(0.982904 0.184121 -0.182742 0.983161 267.98 422.49)" fill="black"/>
<rect width="0.744494" height="577.478" rx="0.372247" transform="matrix(0.982904 0.184121 -0.182742 0.983161 247.078 418.573)" fill="black"/>
<rect width="0.744494" height="577.478" rx="0.372247" transform="matrix(0.982904 0.184121 -0.182742 0.983161 272.164 423.273)" fill="black"/>
<rect width="0.744494" height="577.478" rx="0.372247" transform="matrix(0.982904 0.184121 -0.182742 0.983161 276.348 424.056)" fill="black"/>
<rect width="0.744494" height="577.478" rx="0.372247" transform="matrix(0.982904 0.184121 -0.182742 0.983161 301.438 428.756)" fill="black"/>
<rect width="0.744494" height="577.478" rx="0.372247" transform="matrix(0.982904 0.184121 -0.182742 0.983161 280.523 424.839)" fill="black"/>
<rect width="0.744494" height="577.478" rx="0.372247" transform="matrix(0.982904 0.184121 -0.182742 0.983161 305.613 429.539)" fill="black"/>
<rect width="0.744494" height="577.478" rx="0.372247" transform="matrix(0.982904 0.184121 -0.182742 0.983161 284.711 425.623)" fill="black"/>
<rect width="0.744494" height="577.478" rx="0.372247" transform="matrix(0.982904 0.184121 -0.182742 0.983161 309.793 430.323)" fill="black"/>
<rect width="0.744494" height="577.478" rx="0.372247" transform="matrix(0.982904 0.184121 -0.182742 0.983161 288.891 426.406)" fill="black"/>
<rect width="0.744494" height="577.478" rx="0.372247" transform="matrix(0.982904 0.184121 -0.182742 0.983161 313.984 431.106)" fill="black"/>
<rect width="0.744494" height="577.478" rx="0.372247" transform="matrix(0.982904 0.184121 -0.182742 0.983161 293.07 427.19)" fill="black"/>
<rect width="0.744494" height="577.478" rx="0.372247" transform="matrix(0.982904 0.184121 -0.182742 0.983161 318.16 431.889)" fill="black"/>
<rect width="0.744494" height="577.478" rx="0.372247" transform="matrix(0.982904 0.184121 -0.182742 0.983161 297.25 427.973)" fill="black"/>
<rect width="0.744494" height="577.478" rx="0.372247" transform="matrix(0.982904 0.184121 -0.182742 0.983161 322.34 432.673)" fill="black"/>
<rect width="0.744494" height="577.478" rx="0.372247" transform="matrix(0.982904 0.184121 -0.182742 0.983161 326.527 433.456)" fill="black"/>
<rect width="0.744494" height="577.478" rx="0.372247" transform="matrix(0.982904 0.184121 -0.182742 0.983161 351.609 438.155)" fill="black"/>
<rect width="0.744494" height="577.478" rx="0.372247" transform="matrix(0.982904 0.184121 -0.182742 0.983161 330.707 434.239)" fill="black"/>
<rect width="0.744494" height="577.478" rx="0.372247" transform="matrix(0.982904 0.184121 -0.182742 0.983161 355.797 438.939)" fill="black"/>
<rect width="0.744494" height="577.478" rx="0.372247" transform="matrix(0.982904 0.184121 -0.182742 0.983161 334.887 435.022)" fill="black"/>
<rect width="0.744494" height="577.478" rx="0.372247" transform="matrix(0.982904 0.184121 -0.182742 0.983161 359.977 439.722)" fill="black"/>
<rect width="0.744494" height="577.478" rx="0.372247" transform="matrix(0.982904 0.184121 -0.182742 0.983161 339.066 435.806)" fill="black"/>
<rect width="0.744494" height="577.478" rx="0.372247" transform="matrix(0.982904 0.184121 -0.182742 0.983161 364.156 440.505)" fill="black"/>
<rect width="0.744494" height="577.478" rx="0.372247" transform="matrix(0.982904 0.184121 -0.182742 0.983161 343.25 436.589)" fill="black"/>
<rect width="0.744494" height="577.478" rx="0.372247" transform="matrix(0.982904 0.184121 -0.182742 0.983161 368.34 441.288)" fill="black"/>
<rect width="0.744494" height="577.478" rx="0.372247" transform="matrix(0.982904 0.184121 -0.182742 0.983161 347.43 437.372)" fill="black"/>
<rect width="0.744494" height="577.478" rx="0.372247" transform="matrix(0.982904 0.184121 -0.182742 0.983161 372.52 442.072)" fill="black"/>
<rect width="0.744494" height="577.478" rx="0.372247" transform="matrix(0.982904 0.184121 -0.182742 0.983161 376.16 442.754)" fill="black"/>
<rect width="0.744494" height="577.478" rx="0.372247" transform="matrix(0.982904 0.184121 -0.182742 0.983161 401.25 447.453)" fill="black"/>
<rect width="0.744494" height="577.478" rx="0.372247" transform="matrix(0.982904 0.184121 -0.182742 0.983161 380.34 443.537)" fill="black"/>
<rect width="0.744494" height="577.478" rx="0.372247" transform="matrix(0.982904 0.184121 -0.182742 0.983161 405.43 448.236)" fill="black"/>
<rect width="0.744494" height="577.478" rx="0.372247" transform="matrix(0.982904 0.184121 -0.182742 0.983161 384.516 444.32)" fill="black"/>
<rect width="0.744494" height="577.478" rx="0.372247" transform="matrix(0.982904 0.184121 -0.182742 0.983161 409.609 449.02)" fill="black"/>
<rect width="0.744494" height="577.478" rx="0.372247" transform="matrix(0.982904 0.184121 -0.182742 0.983161 388.707 445.104)" fill="black"/>
<rect width="0.744494" height="577.478" rx="0.372247" transform="matrix(0.982904 0.184121 -0.182742 0.983161 413.797 449.803)" fill="black"/>
<rect width="0.744494" height="577.478" rx="0.372247" transform="matrix(0.982904 0.184121 -0.182742 0.983161 392.883 445.887)" fill="black"/>
<rect width="0.744494" height="577.478" rx="0.372247" transform="matrix(0.982904 0.184121 -0.182742 0.983161 417.973 450.587)" fill="black"/>
<rect width="0.744494" height="577.478" rx="0.372247" transform="matrix(0.982904 0.184121 -0.182742 0.983161 397.066 446.67)" fill="black"/>
<rect width="0.744494" height="577.478" rx="0.372247" transform="matrix(0.982904 0.184121 -0.182742 0.983161 422.152 451.37)" fill="black"/>
<rect width="0.744494" height="577.478" rx="0.372247" transform="matrix(0.982904 0.184121 -0.182742 0.983161 426.34 452.153)" fill="black"/>
<rect width="0.744494" height="577.478" rx="0.372247" transform="matrix(0.982904 0.184121 -0.182742 0.983161 451.426 456.853)" fill="black"/>
<rect width="0.744494" height="577.478" rx="0.372247" transform="matrix(0.982904 0.184121 -0.182742 0.983161 430.52 452.936)" fill="black"/>
<rect width="0.744494" height="577.478" rx="0.372247" transform="matrix(0.982904 0.184121 -0.182742 0.983161 455.613 457.636)" fill="black"/>
<rect width="0.744494" height="577.478" rx="0.372247" transform="matrix(0.982904 0.184121 -0.182742 0.983161 434.695 453.719)" fill="black"/>
<rect width="0.744494" height="577.478" rx="0.372247" transform="matrix(0.982904 0.184121 -0.182742 0.983161 459.789 458.419)" fill="black"/>
<rect width="0.744494" height="577.478" rx="0.372247" transform="matrix(0.982904 0.184121 -0.182742 0.983161 438.879 454.503)" fill="black"/>
<rect width="0.744494" height="577.478" rx="0.372247" transform="matrix(0.982904 0.184121 -0.182742 0.983161 463.973 459.203)" fill="black"/>
<rect width="0.744494" height="577.478" rx="0.372247" transform="matrix(0.982904 0.184121 -0.182742 0.983161 443.066 455.287)" fill="black"/>
<rect width="0.744494" height="577.478" rx="0.372247" transform="matrix(0.982904 0.184121 -0.182742 0.983161 468.156 459.986)" fill="black"/>
<rect width="0.744494" height="577.478" rx="0.372247" transform="matrix(0.982904 0.184121 -0.182742 0.983161 447.246 456.07)" fill="black"/>
<rect width="0.744494" height="577.478" rx="0.372247" transform="matrix(0.982904 0.184121 -0.182742 0.983161 472.336 460.769)" fill="black"/>
<rect width="0.744494" height="577.478" rx="0.372247" transform="matrix(0.982904 0.184121 -0.182742 0.983161 476.516 461.553)" fill="black"/>
<rect width="0.744494" height="577.478" rx="0.372247" transform="matrix(0.982904 0.184121 -0.182742 0.983161 501.602 466.253)" fill="black"/>
<rect width="0.744494" height="577.478" rx="0.372247" transform="matrix(0.982904 0.184121 -0.182742 0.983161 480.695 462.336)" fill="black"/>
<rect width="0.744494" height="577.478" rx="0.372247" transform="matrix(0.982904 0.184121 -0.182742 0.983161 505.785 467.036)" fill="black"/>
<rect width="0.744494" height="577.478" rx="0.372247" transform="matrix(0.982904 0.184121 -0.182742 0.983161 484.883 463.119)" fill="black"/>
<rect width="0.744494" height="577.478" rx="0.372247" transform="matrix(0.982904 0.184121 -0.182742 0.983161 509.969 467.819)" fill="black"/>
<rect width="0.744494" height="577.478" rx="0.372247" transform="matrix(0.982904 0.184121 -0.182742 0.983161 489.059 463.903)" fill="black"/>
<rect width="0.744494" height="577.478" rx="0.372247" transform="matrix(0.982904 0.184121 -0.182742 0.983161 514.148 468.602)" fill="black"/>
<rect width="0.744494" height="577.478" rx="0.372247" transform="matrix(0.982904 0.184121 -0.182742 0.983161 493.242 464.686)" fill="black"/>
<rect width="0.744494" height="577.478" rx="0.372247" transform="matrix(0.982904 0.184121 -0.182742 0.983161 518.328 469.386)" fill="black"/>
<rect width="0.744494" height="577.478" rx="0.372247" transform="matrix(0.982904 0.184121 -0.182742 0.983161 497.422 465.469)" fill="black"/>
<rect width="0.744494" height="577.478" rx="0.372247" transform="matrix(0.982904 0.184121 -0.182742 0.983161 522.52 470.169)" fill="black"/>
<rect width="0.744494" height="577.478" rx="0.372247" transform="matrix(0.982904 0.184121 -0.182742 0.983161 526.695 470.952)" fill="black"/>
<rect width="0.744494" height="577.478" rx="0.372247" transform="matrix(0.982904 0.184121 -0.182742 0.983161 551.785 475.652)" fill="black"/>
<rect width="0.744494" height="577.478" rx="0.372247" transform="matrix(0.982904 0.184121 -0.182742 0.983161 530.875 471.735)" fill="black"/>
<rect width="0.744494" height="577.478" rx="0.372247" transform="matrix(0.982904 0.184121 -0.182742 0.983161 555.965 476.435)" fill="black"/>
<rect width="0.744494" height="577.478" rx="0.372247" transform="matrix(0.982904 0.184121 -0.182742 0.983161 535.055 472.519)" fill="black"/>
<rect width="0.744494" height="577.478" rx="0.372247" transform="matrix(0.982904 0.184121 -0.182742 0.983161 560.148 477.219)" fill="black"/>
<rect width="0.744494" height="577.478" rx="0.372247" transform="matrix(0.982904 0.184121 -0.182742 0.983161 539.238 473.302)" fill="black"/>
<rect width="0.744494" height="577.478" rx="0.372247" transform="matrix(0.982904 0.184121 -0.182742 0.983161 564.328 478.002)" fill="black"/>
<rect width="0.744494" height="577.478" rx="0.372247" transform="matrix(0.982904 0.184121 -0.182742 0.983161 543.422 474.085)" fill="black"/>
<rect width="0.744494" height="577.478" rx="0.372247" transform="matrix(0.982904 0.184121 -0.182742 0.983161 568.512 478.785)" fill="black"/>
<rect width="0.744494" height="577.478" rx="0.372247" transform="matrix(0.982904 0.184121 -0.182742 0.983161 547.602 474.869)" fill="black"/>
<rect width="0.744494" height="577.478" rx="0.372247" transform="matrix(0.982904 0.184121 -0.182742 0.983161 572.688 479.568)" fill="black"/>
<rect width="0.744494" height="577.478" rx="0.372247" transform="matrix(0.982904 0.184121 -0.182742 0.983161 576.871 480.352)" fill="black"/>
<rect width="0.744494" height="577.478" rx="0.372247" transform="matrix(0.982904 0.184121 -0.182742 0.983161 601.957 485.051)" fill="black"/>
<rect width="0.744494" height="577.478" rx="0.372247" transform="matrix(0.982904 0.184121 -0.182742 0.983161 581.055 481.135)" fill="black"/>
<rect width="0.744494" height="577.478" rx="0.372247" transform="matrix(0.982904 0.184121 -0.182742 0.983161 585.234 481.918)" fill="black"/>
<rect width="0.744494" height="577.478" rx="0.372247" transform="matrix(0.982904 0.184121 -0.182742 0.983161 589.414 482.701)" fill="black"/>
<rect width="0.744494" height="577.478" rx="0.372247" transform="matrix(0.982904 0.184121 -0.182742 0.983161 593.598 483.485)" fill="black"/>
<rect width="0.744494" height="577.478" rx="0.372247" transform="matrix(0.982904 0.184121 -0.182742 0.983161 597.781 484.268)" fill="black"/>
<rect width="0.744494" height="577.478" rx="0.372247" transform="matrix(0.982904 0.184121 -0.182742 0.983161 0.0351562 959.248)" fill="black"/>
<rect width="0.744494" height="577.478" rx="0.372247" transform="matrix(0.982904 0.184121 -0.182742 0.983161 4.21875 960.031)" fill="black"/>
<rect width="0.744494" height="577.478" rx="0.372247" transform="matrix(0.982904 0.184121 -0.182742 0.983161 8.39844 960.814)" fill="black"/>
<rect width="0.744494" height="577.478" rx="0.372247" transform="matrix(0.982904 0.184121 -0.182742 0.983161 12.582 961.597)" fill="black"/>
<rect width="0.744494" height="577.478" rx="0.372247" transform="matrix(0.982904 0.184121 -0.182742 0.983161 37.6719 966.297)" fill="black"/>
<rect width="0.744494" height="577.478" rx="0.372247" transform="matrix(0.982904 0.184121 -0.182742 0.983161 16.7617 962.381)" fill="black"/>
<rect width="0.744494" height="577.478" rx="0.372247" transform="matrix(0.982904 0.184121 -0.182742 0.983161 41.8477 967.081)" fill="black"/>
<rect width="0.744494" height="577.478" rx="0.372247" transform="matrix(0.982904 0.184121 -0.182742 0.983161 20.9453 963.164)" fill="black"/>
<rect width="0.744494" height="577.478" rx="0.372247" transform="matrix(0.982904 0.184121 -0.182742 0.983161 46.0391 967.864)" fill="black"/>
<rect width="0.744494" height="577.478" rx="0.372247" transform="matrix(0.982904 0.184121 -0.182742 0.983161 25.125 963.947)" fill="black"/>
<rect width="0.744494" height="577.478" rx="0.372247" transform="matrix(0.982904 0.184121 -0.182742 0.983161 50.2148 968.647)" fill="black"/>
<rect width="0.744494" height="577.478" rx="0.372247" transform="matrix(0.982904 0.184121 -0.182742 0.983161 29.3047 964.731)" fill="black"/>
<rect width="0.744494" height="577.478" rx="0.372247" transform="matrix(0.982904 0.184121 -0.182742 0.983161 54.3945 969.43)" fill="black"/>
<rect width="0.744494" height="577.478" rx="0.372247" transform="matrix(0.982904 0.184121 -0.182742 0.983161 33.4922 965.514)" fill="black"/>
<rect width="0.744494" height="577.478" rx="0.372247" transform="matrix(0.982904 0.184121 -0.182742 0.983161 58.5781 970.214)" fill="black"/>
<rect width="0.744494" height="577.478" rx="0.372247" transform="matrix(0.982904 0.184121 -0.182742 0.983161 62.7656 970.997)" fill="black"/>
<rect width="0.744494" height="577.478" rx="0.372247" transform="matrix(0.982904 0.184121 -0.182742 0.983161 87.8516 975.697)" fill="black"/>
<rect width="0.744494" height="577.478" rx="0.372247" transform="matrix(0.982904 0.184121 -0.182742 0.983161 66.9414 971.78)" fill="black"/>
<rect width="0.744494" height="577.478" rx="0.372247" transform="matrix(0.982904 0.184121 -0.182742 0.983161 92.0273 976.48)" fill="black"/>
<rect width="0.744494" height="577.478" rx="0.372247" transform="matrix(0.982904 0.184121 -0.182742 0.983161 71.125 972.563)" fill="black"/>
<rect width="0.744494" height="577.478" rx="0.372247" transform="matrix(0.982904 0.184121 -0.182742 0.983161 96.207 977.263)" fill="black"/>
<rect width="0.744494" height="577.478" rx="0.372247" transform="matrix(0.982904 0.184121 -0.182742 0.983161 75.3047 973.347)" fill="black"/>
<rect width="0.744494" height="577.478" rx="0.372247" transform="matrix(0.982904 0.184121 -0.182742 0.983161 100.398 978.047)" fill="black"/>
<rect width="0.744494" height="577.478" rx="0.372247" transform="matrix(0.982904 0.184121 -0.182742 0.983161 79.4844 974.13)" fill="black"/>
<rect width="0.744494" height="577.478" rx="0.372247" transform="matrix(0.982904 0.184121 -0.182742 0.983161 104.574 978.83)" fill="black"/>
<rect width="0.744494" height="577.478" rx="0.372247" transform="matrix(0.982904 0.184121 -0.182742 0.983161 83.6641 974.913)" fill="black"/>
<rect width="0.744494" height="577.478" rx="0.372247" transform="matrix(0.982904 0.184121 -0.182742 0.983161 108.754 979.613)" fill="black"/>
<rect width="0.744494" height="577.478" rx="0.372247" transform="matrix(0.982904 0.184121 -0.182742 0.983161 112.941 980.397)" fill="black"/>
<rect width="0.744494" height="577.478" rx="0.372247" transform="matrix(0.982904 0.184121 -0.182742 0.983161 138.023 985.096)" fill="black"/>
<rect width="0.744494" height="577.478" rx="0.372247" transform="matrix(0.982904 0.184121 -0.182742 0.983161 117.121 981.18)" fill="black"/>
<rect width="0.744494" height="577.478" rx="0.372247" transform="matrix(0.982904 0.184121 -0.182742 0.983161 142.215 985.879)" fill="black"/>
<rect width="0.744494" height="577.478" rx="0.372247" transform="matrix(0.982904 0.184121 -0.182742 0.983161 121.301 981.963)" fill="black"/>
<rect width="0.744494" height="577.478" rx="0.372247" transform="matrix(0.982904 0.184121 -0.182742 0.983161 146.391 986.663)" fill="black"/>
<rect width="0.744494" height="577.478" rx="0.372247" transform="matrix(0.982904 0.184121 -0.182742 0.983161 125.48 982.746)" fill="black"/>
<rect width="0.744494" height="577.478" rx="0.372247" transform="matrix(0.982904 0.184121 -0.182742 0.983161 150.57 987.446)" fill="black"/>
<rect width="0.744494" height="577.478" rx="0.372247" transform="matrix(0.982904 0.184121 -0.182742 0.983161 129.664 983.53)" fill="black"/>
<rect width="0.744494" height="577.478" rx="0.372247" transform="matrix(0.982904 0.184121 -0.182742 0.983161 154.754 988.229)" fill="black"/>
<rect width="0.744494" height="577.478" rx="0.372247" transform="matrix(0.982904 0.184121 -0.182742 0.983161 133.848 984.313)" fill="black"/>
<rect width="0.744494" height="577.478" rx="0.372247" transform="matrix(0.982904 0.184121 -0.182742 0.983161 158.934 989.013)" fill="black"/>
<rect width="0.744494" height="577.478" rx="0.372247" transform="matrix(0.982904 0.184121 -0.182742 0.983161 162.574 989.695)" fill="black"/>
<rect width="0.744494" height="577.478" rx="0.372247" transform="matrix(0.982904 0.184121 -0.182742 0.983161 187.664 994.394)" fill="black"/>
<rect width="0.744494" height="577.478" rx="0.372247" transform="matrix(0.982904 0.184121 -0.182742 0.983161 166.754 990.478)" fill="black"/>
<rect width="0.744494" height="577.478" rx="0.372247" transform="matrix(0.982904 0.184121 -0.182742 0.983161 191.844 995.177)" fill="black"/>
<rect width="0.744494" height="577.478" rx="0.372247" transform="matrix(0.982904 0.184121 -0.182742 0.983161 170.934 991.261)" fill="black"/>
<rect width="0.744494" height="577.478" rx="0.372247" transform="matrix(0.982904 0.184121 -0.182742 0.983161 196.023 995.961)" fill="black"/>
<rect width="0.744494" height="577.478" rx="0.372247" transform="matrix(0.982904 0.184121 -0.182742 0.983161 175.121 992.044)" fill="black"/>
<rect width="0.744494" height="577.478" rx="0.372247" transform="matrix(0.982904 0.184121 -0.182742 0.983161 200.211 996.744)" fill="black"/>
<rect width="0.744494" height="577.478" rx="0.372247" transform="matrix(0.982904 0.184121 -0.182742 0.983161 179.297 992.828)" fill="black"/>
<rect width="0.744494" height="577.478" rx="0.372247" transform="matrix(0.982904 0.184121 -0.182742 0.983161 204.387 997.528)" fill="black"/>
<rect width="0.744494" height="577.478" rx="0.372247" transform="matrix(0.982904 0.184121 -0.182742 0.983161 183.48 993.611)" fill="black"/>
<rect width="0.744494" height="577.478" rx="0.372247" transform="matrix(0.982904 0.184121 -0.182742 0.983161 208.566 998.311)" fill="black"/>
<rect width="0.744494" height="577.478" rx="0.372247" transform="matrix(0.982904 0.184121 -0.182742 0.983161 212.754 999.093)" fill="black"/>
<rect width="0.744494" height="577.478" rx="0.372247" transform="matrix(0.982904 0.184121 -0.182742 0.983161 237.84 1003.79)" fill="black"/>
<rect width="0.744494" height="577.478" rx="0.372247" transform="matrix(0.982904 0.184121 -0.182742 0.983161 216.934 999.877)" fill="black"/>
<rect width="0.744494" height="577.478" rx="0.372247" transform="matrix(0.982904 0.184121 -0.182742 0.983161 242.027 1004.58)" fill="black"/>
<rect width="0.744494" height="577.478" rx="0.372247" transform="matrix(0.982904 0.184121 -0.182742 0.983161 221.109 1000.66)" fill="black"/>
<rect width="0.744494" height="577.478" rx="0.372247" transform="matrix(0.982904 0.184121 -0.182742 0.983161 246.203 1005.36)" fill="black"/>
<rect width="0.744494" height="577.478" rx="0.372247" transform="matrix(0.982904 0.184121 -0.182742 0.983161 225.293 1001.44)" fill="black"/>
<rect width="0.744494" height="577.478" rx="0.372247" transform="matrix(0.982904 0.184121 -0.182742 0.983161 250.383 1006.14)" fill="black"/>
<rect width="0.744494" height="577.478" rx="0.372247" transform="matrix(0.982904 0.184121 -0.182742 0.983161 229.48 1002.23)" fill="black"/>
<rect width="0.744494" height="577.478" rx="0.372247" transform="matrix(0.982904 0.184121 -0.182742 0.983161 254.57 1006.93)" fill="black"/>
<rect width="0.744494" height="577.478" rx="0.372247" transform="matrix(0.982904 0.184121 -0.182742 0.983161 233.656 1003.01)" fill="black"/>
<rect width="0.744494" height="577.478" rx="0.372247" transform="matrix(0.982904 0.184121 -0.182742 0.983161 258.746 1007.71)" fill="black"/>
<rect width="0.744494" height="577.478" rx="0.372247" transform="matrix(0.982904 0.184121 -0.182742 0.983161 262.93 1008.49)" fill="black"/>
<rect width="0.744494" height="577.478" rx="0.372247" transform="matrix(0.982904 0.184121 -0.182742 0.983161 288.02 1013.19)" fill="black"/>
<rect width="0.744494" height="577.478" rx="0.372247" transform="matrix(0.982904 0.184121 -0.182742 0.983161 267.109 1009.28)" fill="black"/>
<rect width="0.744494" height="577.478" rx="0.372247" transform="matrix(0.982904 0.184121 -0.182742 0.983161 292.199 1013.98)" fill="black"/>
<rect width="0.744494" height="577.478" rx="0.372247" transform="matrix(0.982904 0.184121 -0.182742 0.983161 271.293 1010.06)" fill="black"/>
<rect width="0.744494" height="577.478" rx="0.372247" transform="matrix(0.982904 0.184121 -0.182742 0.983161 296.387 1014.76)" fill="black"/>
<rect width="0.744494" height="577.478" rx="0.372247" transform="matrix(0.982904 0.184121 -0.182742 0.983161 275.473 1010.84)" fill="black"/>
<rect width="0.744494" height="577.478" rx="0.372247" transform="matrix(0.982904 0.184121 -0.182742 0.983161 300.562 1015.54)" fill="black"/>
<rect width="0.744494" height="577.478" rx="0.372247" transform="matrix(0.982904 0.184121 -0.182742 0.983161 279.652 1011.63)" fill="black"/>
<rect width="0.744494" height="577.478" rx="0.372247" transform="matrix(0.982904 0.184121 -0.182742 0.983161 304.746 1016.33)" fill="black"/>
<rect width="0.744494" height="577.478" rx="0.372247" transform="matrix(0.982904 0.184121 -0.182742 0.983161 283.84 1012.41)" fill="black"/>
<rect width="0.744494" height="577.478" rx="0.372247" transform="matrix(0.982904 0.184121 -0.182742 0.983161 308.93 1017.11)" fill="black"/>
<rect width="0.744494" height="577.478" rx="0.372247" transform="matrix(0.982904 0.184121 -0.182742 0.983161 313.113 1017.89)" fill="black"/>
<rect width="0.744494" height="577.478" rx="0.372247" transform="matrix(0.982904 0.184121 -0.182742 0.983161 338.199 1022.59)" fill="black"/>
<rect width="0.744494" height="577.478" rx="0.372247" transform="matrix(0.982904 0.184121 -0.182742 0.983161 317.289 1018.68)" fill="black"/>
<rect width="0.744494" height="577.478" rx="0.372247" transform="matrix(0.982904 0.184121 -0.182742 0.983161 342.379 1023.38)" fill="black"/>
<rect width="0.744494" height="577.478" rx="0.372247" transform="matrix(0.982904 0.184121 -0.182742 0.983161 321.469 1019.46)" fill="black"/>
<rect width="0.744494" height="577.478" rx="0.372247" transform="matrix(0.982904 0.184121 -0.182742 0.983161 346.562 1024.16)" fill="black"/>
<rect width="0.744494" height="577.478" rx="0.372247" transform="matrix(0.982904 0.184121 -0.182742 0.983161 325.652 1020.24)" fill="black"/>
<rect width="0.744494" height="577.478" rx="0.372247" transform="matrix(0.982904 0.184121 -0.182742 0.983161 350.746 1024.94)" fill="black"/>
<rect width="0.744494" height="577.478" rx="0.372247" transform="matrix(0.982904 0.184121 -0.182742 0.983161 329.836 1021.03)" fill="black"/>
<rect width="0.744494" height="577.478" rx="0.372247" transform="matrix(0.982904 0.184121 -0.182742 0.983161 354.926 1025.73)" fill="black"/>
<rect width="0.744494" height="577.478" rx="0.372247" transform="matrix(0.982904 0.184121 -0.182742 0.983161 334.016 1021.81)" fill="black"/>
<rect width="0.744494" height="577.478" rx="0.372247" transform="matrix(0.982904 0.184121 -0.182742 0.983161 359.105 1026.51)" fill="black"/>
<rect width="0.744494" height="577.478" rx="0.372247" transform="matrix(0.982904 0.184121 -0.182742 0.983161 363.289 1027.29)" fill="black"/>
<rect width="0.744494" height="577.478" rx="0.372247" transform="matrix(0.982904 0.184121 -0.182742 0.983161 388.371 1031.99)" fill="black"/>
<rect width="0.744494" height="577.478" rx="0.372247" transform="matrix(0.982904 0.184121 -0.182742 0.983161 367.469 1028.08)" fill="black"/>
<rect width="0.744494" height="577.478" rx="0.372247" transform="matrix(0.982904 0.184121 -0.182742 0.983161 392.559 1032.78)" fill="black"/>
<rect width="0.744494" height="577.478" rx="0.372247" transform="matrix(0.982904 0.184121 -0.182742 0.983161 371.652 1028.86)" fill="black"/>
<rect width="0.744494" height="577.478" rx="0.372247" transform="matrix(0.982904 0.184121 -0.182742 0.983161 396.742 1033.56)" fill="black"/>
<rect width="0.744494" height="577.478" rx="0.372247" transform="matrix(0.982904 0.184121 -0.182742 0.983161 375.828 1029.64)" fill="black"/>
<rect width="0.744494" height="577.478" rx="0.372247" transform="matrix(0.982904 0.184121 -0.182742 0.983161 400.918 1034.34)" fill="black"/>
<rect width="0.744494" height="577.478" rx="0.372247" transform="matrix(0.982904 0.184121 -0.182742 0.983161 380.016 1030.43)" fill="black"/>
<rect width="0.744494" height="577.478" rx="0.372247" transform="matrix(0.982904 0.184121 -0.182742 0.983161 405.105 1035.13)" fill="black"/>
<rect width="0.744494" height="577.478" rx="0.372247" transform="matrix(0.982904 0.184121 -0.182742 0.983161 384.191 1031.21)" fill="black"/>
<rect width="0.744494" height="577.478" rx="0.372247" transform="matrix(0.982904 0.184121 -0.182742 0.983161 409.285 1035.91)" fill="black"/>
<rect width="0.744494" height="577.478" rx="0.372247" transform="matrix(0.982904 0.184121 -0.182742 0.983161 413.465 1036.69)" fill="black"/>
<rect width="0.744494" height="577.478" rx="0.372247" transform="matrix(0.982904 0.184121 -0.182742 0.983161 438.555 1041.39)" fill="black"/>
<rect width="0.744494" height="577.478" rx="0.372247" transform="matrix(0.982904 0.184121 -0.182742 0.983161 417.641 1037.48)" fill="black"/>
<rect width="0.744494" height="577.478" rx="0.372247" transform="matrix(0.982904 0.184121 -0.182742 0.983161 442.73 1042.18)" fill="black"/>
<rect width="0.744494" height="577.478" rx="0.372247" transform="matrix(0.982904 0.184121 -0.182742 0.983161 421.828 1038.26)" fill="black"/>
<rect width="0.744494" height="577.478" rx="0.372247" transform="matrix(0.982904 0.184121 -0.182742 0.983161 446.922 1042.96)" fill="black"/>
<rect width="0.744494" height="577.478" rx="0.372247" transform="matrix(0.982904 0.184121 -0.182742 0.983161 426.008 1039.04)" fill="black"/>
<rect width="0.744494" height="577.478" rx="0.372247" transform="matrix(0.982904 0.184121 -0.182742 0.983161 451.098 1043.74)" fill="black"/>
<rect width="0.744494" height="577.478" rx="0.372247" transform="matrix(0.982904 0.184121 -0.182742 0.983161 430.188 1039.83)" fill="black"/>
<rect width="0.744494" height="577.478" rx="0.372247" transform="matrix(0.982904 0.184121 -0.182742 0.983161 455.277 1044.52)" fill="black"/>
<rect width="0.744494" height="577.478" rx="0.372247" transform="matrix(0.982904 0.184121 -0.182742 0.983161 434.379 1040.61)" fill="black"/>
<rect width="0.744494" height="577.478" rx="0.372247" transform="matrix(0.982904 0.184121 -0.182742 0.983161 459.461 1045.31)" fill="black"/>
<rect width="0.744494" height="577.478" rx="0.372247" transform="matrix(0.982904 0.184121 -0.182742 0.983161 463.648 1046.09)" fill="black"/>
<rect width="0.744494" height="577.478" rx="0.372247" transform="matrix(0.982904 0.184121 -0.182742 0.983161 488.738 1050.79)" fill="black"/>
<rect width="0.744494" height="577.478" rx="0.372247" transform="matrix(0.982904 0.184121 -0.182742 0.983161 467.824 1046.87)" fill="black"/>
<rect width="0.744494" height="577.478" rx="0.372247" transform="matrix(0.982904 0.184121 -0.182742 0.983161 492.914 1051.57)" fill="black"/>
<rect width="0.744494" height="577.478" rx="0.372247" transform="matrix(0.982904 0.184121 -0.182742 0.983161 472.004 1047.66)" fill="black"/>
<rect width="0.744494" height="577.478" rx="0.372247" transform="matrix(0.982904 0.184121 -0.182742 0.983161 497.094 1052.36)" fill="black"/>
<rect width="0.744494" height="577.478" rx="0.372247" transform="matrix(0.982904 0.184121 -0.182742 0.983161 476.188 1048.44)" fill="black"/>
<rect width="0.744494" height="577.478" rx="0.372247" transform="matrix(0.982904 0.184121 -0.182742 0.983161 501.281 1053.14)" fill="black"/>
<rect width="0.744494" height="577.478" rx="0.372247" transform="matrix(0.982904 0.184121 -0.182742 0.983161 480.371 1049.22)" fill="black"/>
<rect width="0.744494" height="577.478" rx="0.372247" transform="matrix(0.982904 0.184121 -0.182742 0.983161 505.461 1053.92)" fill="black"/>
<rect width="0.744494" height="577.478" rx="0.372247" transform="matrix(0.982904 0.184121 -0.182742 0.983161 484.547 1050.01)" fill="black"/>
<rect width="0.744494" height="577.478" rx="0.372247" transform="matrix(0.982904 0.184121 -0.182742 0.983161 509.641 1054.71)" fill="black"/>
<rect width="0.744494" height="577.478" rx="0.372247" transform="matrix(0.982904 0.184121 -0.182742 0.983161 513.816 1055.49)" fill="black"/>
<rect width="0.744494" height="577.478" rx="0.372247" transform="matrix(0.982904 0.184121 -0.182742 0.983161 538.906 1060.19)" fill="black"/>
<rect width="0.744494" height="577.478" rx="0.372247" transform="matrix(0.982904 0.184121 -0.182742 0.983161 518.004 1056.27)" fill="black"/>
<rect width="0.744494" height="577.478" rx="0.372247" transform="matrix(0.982904 0.184121 -0.182742 0.983161 543.094 1060.97)" fill="black"/>
<rect width="0.744494" height="577.478" rx="0.372247" transform="matrix(0.982904 0.184121 -0.182742 0.983161 522.188 1057.06)" fill="black"/>
<rect width="0.744494" height="577.478" rx="0.372247" transform="matrix(0.982904 0.184121 -0.182742 0.983161 547.277 1061.76)" fill="black"/>
<rect width="0.744494" height="577.478" rx="0.372247" transform="matrix(0.982904 0.184121 -0.182742 0.983161 526.363 1057.84)" fill="black"/>
<rect width="0.744494" height="577.478" rx="0.372247" transform="matrix(0.982904 0.184121 -0.182742 0.983161 551.453 1062.54)" fill="black"/>
<rect width="0.744494" height="577.478" rx="0.372247" transform="matrix(0.982904 0.184121 -0.182742 0.983161 530.551 1058.62)" fill="black"/>
<rect width="0.744494" height="577.478" rx="0.372247" transform="matrix(0.982904 0.184121 -0.182742 0.983161 555.641 1063.32)" fill="black"/>
<rect width="0.744494" height="577.478" rx="0.372247" transform="matrix(0.982904 0.184121 -0.182742 0.983161 534.727 1059.41)" fill="black"/>
<rect width="0.744494" height="577.478" rx="0.372247" transform="matrix(0.982904 0.184121 -0.182742 0.983161 559.82 1064.11)" fill="black"/>
</g>
</svg>
