<svg width="876" height="612" viewBox="0 0 876 612" fill="none" xmlns="http://www.w3.org/2000/svg">
<mask id="mask0_369_4904" style="mask-type:alpha" maskUnits="userSpaceOnUse" x="0" y="0" width="876" height="612">
<rect width="876" height="612" fill="white" fill-opacity="0.14"/>
</mask>
<g mask="url(#mask0_369_4904)">
<rect x="8.69727" y="-166.53" width="1.07647" height="831.954" transform="rotate(10.5696 8.69727 -166.53)" fill="black"/>
<rect x="14.7437" y="-165.402" width="1.07647" height="831.954" transform="rotate(10.5696 14.7437 -165.402)" fill="black"/>
<rect x="20.793" y="-164.274" width="1.07647" height="831.954" transform="rotate(10.5696 20.793 -164.274)" fill="black"/>
<rect x="26.8389" y="-163.146" width="1.07647" height="831.954" transform="rotate(10.5696 26.8389 -163.146)" fill="black"/>
<rect x="32.8853" y="-162.017" width="1.07647" height="831.954" transform="rotate(10.5696 32.8853 -162.017)" fill="black"/>
<rect x="2.65137" y="-167.659" width="1.07647" height="831.954" transform="rotate(10.5696 2.65137 -167.659)" fill="black"/>
<rect x="38.9312" y="-160.889" width="1.07647" height="831.954" transform="rotate(10.5696 38.9312 -160.889)" fill="black"/>
<rect x="44.9805" y="-159.76" width="1.07647" height="831.954" transform="rotate(10.5696 44.9805 -159.76)" fill="black"/>
<rect x="81.2607" y="-152.991" width="1.07647" height="831.954" transform="rotate(10.5696 81.2607 -152.991)" fill="black"/>
<rect x="51.0269" y="-158.632" width="1.07647" height="831.954" transform="rotate(10.5696 51.0269 -158.632)" fill="black"/>
<rect x="87.3071" y="-151.862" width="1.07647" height="831.954" transform="rotate(10.5696 87.3071 -151.862)" fill="black"/>
<rect x="57.0728" y="-157.504" width="1.07647" height="831.954" transform="rotate(10.5696 57.0728 -157.504)" fill="black"/>
<rect x="93.3535" y="-150.734" width="1.07647" height="831.954" transform="rotate(10.5696 93.3535 -150.734)" fill="black"/>
<rect x="63.1196" y="-156.375" width="1.07647" height="831.954" transform="rotate(10.5696 63.1196 -156.375)" fill="black"/>
<rect x="99.3994" y="-149.605" width="1.07647" height="831.954" transform="rotate(10.5696 99.3994 -149.605)" fill="black"/>
<rect x="69.1655" y="-155.247" width="1.07647" height="831.954" transform="rotate(10.5696 69.1655 -155.247)" fill="black"/>
<rect x="105.449" y="-148.477" width="1.07647" height="831.954" transform="rotate(10.5696 105.449 -148.477)" fill="black"/>
<rect x="75.2148" y="-154.119" width="1.07647" height="831.954" transform="rotate(10.5696 75.2148 -154.119)" fill="black"/>
<rect x="111.495" y="-147.349" width="1.07647" height="831.954" transform="rotate(10.5696 111.495 -147.349)" fill="black"/>
<rect x="117.541" y="-146.22" width="1.07647" height="831.954" transform="rotate(10.5696 117.541 -146.22)" fill="black"/>
<rect x="153.821" y="-139.451" width="1.07647" height="831.954" transform="rotate(10.5696 153.821 -139.451)" fill="black"/>
<rect x="123.587" y="-145.092" width="1.07647" height="831.954" transform="rotate(10.5696 123.587 -145.092)" fill="black"/>
<rect x="159.871" y="-138.322" width="1.07647" height="831.954" transform="rotate(10.5696 159.871 -138.322)" fill="black"/>
<rect x="129.637" y="-143.964" width="1.07647" height="831.954" transform="rotate(10.5696 129.637 -143.964)" fill="black"/>
<rect x="165.917" y="-137.194" width="1.07647" height="831.954" transform="rotate(10.5696 165.917 -137.194)" fill="black"/>
<rect x="135.683" y="-142.835" width="1.07647" height="831.954" transform="rotate(10.5696 135.683 -142.835)" fill="black"/>
<rect x="171.963" y="-136.065" width="1.07647" height="831.954" transform="rotate(10.5696 171.963 -136.065)" fill="black"/>
<rect x="141.729" y="-141.707" width="1.07647" height="831.954" transform="rotate(10.5696 141.729 -141.707)" fill="black"/>
<rect x="178.009" y="-134.937" width="1.07647" height="831.954" transform="rotate(10.5696 178.009 -134.937)" fill="black"/>
<rect x="147.775" y="-140.579" width="1.07647" height="831.954" transform="rotate(10.5696 147.775 -140.579)" fill="black"/>
<rect x="184.056" y="-133.809" width="1.07647" height="831.954" transform="rotate(10.5696 184.056 -133.809)" fill="black"/>
<rect x="189.319" y="-132.827" width="1.07647" height="831.954" transform="rotate(10.5696 189.319 -132.827)" fill="black"/>
<rect x="225.599" y="-126.057" width="1.07647" height="831.954" transform="rotate(10.5696 225.599 -126.057)" fill="black"/>
<rect x="195.365" y="-131.699" width="1.07647" height="831.954" transform="rotate(10.5696 195.365 -131.699)" fill="black"/>
<rect x="231.648" y="-124.929" width="1.07647" height="831.954" transform="rotate(10.5696 231.648 -124.929)" fill="black"/>
<rect x="201.412" y="-130.57" width="1.07647" height="831.954" transform="rotate(10.5696 201.412 -130.57)" fill="black"/>
<rect x="237.695" y="-123.801" width="1.07647" height="831.954" transform="rotate(10.5696 237.695 -123.801)" fill="black"/>
<rect x="207.46" y="-129.442" width="1.07647" height="831.954" transform="rotate(10.5696 207.46 -129.442)" fill="black"/>
<rect x="243.741" y="-122.672" width="1.07647" height="831.954" transform="rotate(10.5696 243.741 -122.672)" fill="black"/>
<rect x="213.507" y="-128.314" width="1.07647" height="831.954" transform="rotate(10.5696 213.507 -128.314)" fill="black"/>
<rect x="249.787" y="-121.544" width="1.07647" height="831.954" transform="rotate(10.5696 249.787 -121.544)" fill="black"/>
<rect x="219.553" y="-127.186" width="1.07647" height="831.954" transform="rotate(10.5696 219.553 -127.186)" fill="black"/>
<rect x="255.833" y="-120.416" width="1.07647" height="831.954" transform="rotate(10.5696 255.833 -120.416)" fill="black"/>
<rect x="261.882" y="-119.288" width="1.07647" height="831.954" transform="rotate(10.5696 261.882 -119.288)" fill="black"/>
<rect x="298.163" y="-112.518" width="1.07647" height="831.954" transform="rotate(10.5696 298.163 -112.518)" fill="black"/>
<rect x="267.929" y="-118.159" width="1.07647" height="831.954" transform="rotate(10.5696 267.929 -118.159)" fill="black"/>
<rect x="304.209" y="-111.389" width="1.07647" height="831.954" transform="rotate(10.5696 304.209 -111.389)" fill="black"/>
<rect x="273.975" y="-117.031" width="1.07647" height="831.954" transform="rotate(10.5696 273.975 -117.031)" fill="black"/>
<rect x="310.255" y="-110.261" width="1.07647" height="831.954" transform="rotate(10.5696 310.255 -110.261)" fill="black"/>
<rect x="280.021" y="-115.902" width="1.07647" height="831.954" transform="rotate(10.5696 280.021 -115.902)" fill="black"/>
<rect x="316.305" y="-109.133" width="1.07647" height="831.954" transform="rotate(10.5696 316.305 -109.133)" fill="black"/>
<rect x="286.067" y="-114.774" width="1.07647" height="831.954" transform="rotate(10.5696 286.067 -114.774)" fill="black"/>
<rect x="322.351" y="-108.004" width="1.07647" height="831.954" transform="rotate(10.5696 322.351 -108.004)" fill="black"/>
<rect x="292.116" y="-113.646" width="1.07647" height="831.954" transform="rotate(10.5696 292.116 -113.646)" fill="black"/>
<rect x="328.397" y="-106.876" width="1.07647" height="831.954" transform="rotate(10.5696 328.397 -106.876)" fill="black"/>
<rect x="334.443" y="-105.748" width="1.07647" height="831.954" transform="rotate(10.5696 334.443 -105.748)" fill="black"/>
<rect x="370.723" y="-98.9775" width="1.07647" height="831.954" transform="rotate(10.5696 370.723 -98.9775)" fill="black"/>
<rect x="340.489" y="-104.619" width="1.07647" height="831.954" transform="rotate(10.5696 340.489 -104.619)" fill="black"/>
<rect x="376.772" y="-97.8491" width="1.07647" height="831.954" transform="rotate(10.5696 376.772 -97.8491)" fill="black"/>
<rect x="346.539" y="-103.491" width="1.07647" height="831.954" transform="rotate(10.5696 346.539 -103.491)" fill="black"/>
<rect x="382.819" y="-96.7212" width="1.07647" height="831.954" transform="rotate(10.5696 382.819 -96.7212)" fill="black"/>
<rect x="352.584" y="-102.362" width="1.07647" height="831.954" transform="rotate(10.5696 352.584 -102.362)" fill="black"/>
<rect x="388.865" y="-95.5928" width="1.07647" height="831.954" transform="rotate(10.5696 388.865 -95.5928)" fill="black"/>
<rect x="358.631" y="-101.234" width="1.07647" height="831.954" transform="rotate(10.5696 358.631 -101.234)" fill="black"/>
<rect x="394.911" y="-94.4644" width="1.07647" height="831.954" transform="rotate(10.5696 394.911 -94.4644)" fill="black"/>
<rect x="364.677" y="-100.106" width="1.07647" height="831.954" transform="rotate(10.5696 364.677 -100.106)" fill="black"/>
<rect x="400.96" y="-93.3359" width="1.07647" height="831.954" transform="rotate(10.5696 400.96 -93.3359)" fill="black"/>
<rect x="407.007" y="-92.2075" width="1.07647" height="831.954" transform="rotate(10.5696 407.007 -92.2075)" fill="black"/>
<rect x="443.287" y="-85.4375" width="1.07647" height="831.954" transform="rotate(10.5696 443.287 -85.4375)" fill="black"/>
<rect x="413.053" y="-91.0796" width="1.07647" height="831.954" transform="rotate(10.5696 413.053 -91.0796)" fill="black"/>
<rect x="449.333" y="-84.3096" width="1.07647" height="831.954" transform="rotate(10.5696 449.333 -84.3096)" fill="black"/>
<rect x="419.099" y="-89.9512" width="1.07647" height="831.954" transform="rotate(10.5696 419.099 -89.9512)" fill="black"/>
<rect x="455.382" y="-83.1812" width="1.07647" height="831.954" transform="rotate(10.5696 455.382 -83.1812)" fill="black"/>
<rect x="425.146" y="-88.8223" width="1.07647" height="831.954" transform="rotate(10.5696 425.146 -88.8223)" fill="black"/>
<rect x="461.429" y="-82.0527" width="1.07647" height="831.954" transform="rotate(10.5696 461.429 -82.0527)" fill="black"/>
<rect x="431.194" y="-87.6943" width="1.07647" height="831.954" transform="rotate(10.5696 431.194 -87.6943)" fill="black"/>
<rect x="467.475" y="-80.9243" width="1.07647" height="831.954" transform="rotate(10.5696 467.475 -80.9243)" fill="black"/>
<rect x="437.241" y="-86.5659" width="1.07647" height="831.954" transform="rotate(10.5696 437.241 -86.5659)" fill="black"/>
<rect x="473.521" y="-79.7959" width="1.07647" height="831.954" transform="rotate(10.5696 473.521 -79.7959)" fill="black"/>
<rect x="479.567" y="-78.6675" width="1.07647" height="831.954" transform="rotate(10.5696 479.567 -78.6675)" fill="black"/>
<rect x="515.85" y="-71.8979" width="1.07647" height="831.954" transform="rotate(10.5696 515.85 -71.8979)" fill="black"/>
<rect x="485.616" y="-77.5396" width="1.07647" height="831.954" transform="rotate(10.5696 485.616 -77.5396)" fill="black"/>
<rect x="521.896" y="-70.7695" width="1.07647" height="831.954" transform="rotate(10.5696 521.896 -70.7695)" fill="black"/>
<rect x="491.663" y="-76.4111" width="1.07647" height="831.954" transform="rotate(10.5696 491.663 -76.4111)" fill="black"/>
<rect x="527.943" y="-69.6411" width="1.07647" height="831.954" transform="rotate(10.5696 527.943 -69.6411)" fill="black"/>
<rect x="497.709" y="-75.2827" width="1.07647" height="831.954" transform="rotate(10.5696 497.709 -75.2827)" fill="black"/>
<rect x="533.989" y="-68.5127" width="1.07647" height="831.954" transform="rotate(10.5696 533.989 -68.5127)" fill="black"/>
<rect x="503.755" y="-74.1543" width="1.07647" height="831.954" transform="rotate(10.5696 503.755 -74.1543)" fill="black"/>
<rect x="540.038" y="-67.3848" width="1.07647" height="831.954" transform="rotate(10.5696 540.038 -67.3848)" fill="black"/>
<rect x="509.801" y="-73.0259" width="1.07647" height="831.954" transform="rotate(10.5696 509.801 -73.0259)" fill="black"/>
<rect x="546.084" y="-66.2563" width="1.07647" height="831.954" transform="rotate(10.5696 546.084 -66.2563)" fill="black"/>
<rect x="552.131" y="-65.1279" width="1.07647" height="831.954" transform="rotate(10.5696 552.131 -65.1279)" fill="black"/>
<rect x="588.411" y="-58.3579" width="1.07647" height="831.954" transform="rotate(10.5696 588.411 -58.3579)" fill="black"/>
<rect x="558.177" y="-63.9995" width="1.07647" height="831.954" transform="rotate(10.5696 558.177 -63.9995)" fill="black"/>
<rect x="594.457" y="-57.2295" width="1.07647" height="831.954" transform="rotate(10.5696 594.457 -57.2295)" fill="black"/>
<rect x="564.223" y="-62.8711" width="1.07647" height="831.954" transform="rotate(10.5696 564.223 -62.8711)" fill="black"/>
<rect x="600.506" y="-56.1016" width="1.07647" height="831.954" transform="rotate(10.5696 600.506 -56.1016)" fill="black"/>
<rect x="570.272" y="-61.7432" width="1.07647" height="831.954" transform="rotate(10.5696 570.272 -61.7432)" fill="black"/>
<rect x="606.553" y="-54.9731" width="1.07647" height="831.954" transform="rotate(10.5696 606.553 -54.9731)" fill="black"/>
<rect x="576.318" y="-60.6147" width="1.07647" height="831.954" transform="rotate(10.5696 576.318 -60.6147)" fill="black"/>
<rect x="612.599" y="-53.8447" width="1.07647" height="831.954" transform="rotate(10.5696 612.599 -53.8447)" fill="black"/>
<rect x="582.365" y="-59.4863" width="1.07647" height="831.954" transform="rotate(10.5696 582.365 -59.4863)" fill="black"/>
<rect x="618.645" y="-52.7163" width="1.07647" height="831.954" transform="rotate(10.5696 618.645 -52.7163)" fill="black"/>
<rect x="624.694" y="-51.5884" width="1.07647" height="831.954" transform="rotate(10.5696 624.694 -51.5884)" fill="black"/>
<rect x="660.975" y="-44.8184" width="1.07647" height="831.954" transform="rotate(10.5696 660.975 -44.8184)" fill="black"/>
<rect x="630.741" y="-50.46" width="1.07647" height="831.954" transform="rotate(10.5696 630.741 -50.46)" fill="black"/>
<rect x="667.021" y="-43.6899" width="1.07647" height="831.954" transform="rotate(10.5696 667.021 -43.6899)" fill="black"/>
<rect x="636.787" y="-49.3315" width="1.07647" height="831.954" transform="rotate(10.5696 636.787 -49.3315)" fill="black"/>
<rect x="673.066" y="-42.5615" width="1.07647" height="831.954" transform="rotate(10.5696 673.066 -42.5615)" fill="black"/>
<rect x="642.833" y="-48.2031" width="1.07647" height="831.954" transform="rotate(10.5696 642.833 -48.2031)" fill="black"/>
<rect x="679.116" y="-41.4331" width="1.07647" height="831.954" transform="rotate(10.5696 679.116 -41.4331)" fill="black"/>
<rect x="648.879" y="-47.0747" width="1.07647" height="831.954" transform="rotate(10.5696 648.879 -47.0747)" fill="black"/>
<rect x="685.163" y="-40.3052" width="1.07647" height="831.954" transform="rotate(10.5696 685.163 -40.3052)" fill="black"/>
<rect x="654.928" y="-45.9468" width="1.07647" height="831.954" transform="rotate(10.5696 654.928 -45.9468)" fill="black"/>
<rect x="691.208" y="-39.1768" width="1.07647" height="831.954" transform="rotate(10.5696 691.208 -39.1768)" fill="black"/>
<rect x="697.254" y="-38.0483" width="1.07647" height="831.954" transform="rotate(10.5696 697.254 -38.0483)" fill="black"/>
<rect x="733.535" y="-31.2783" width="1.07647" height="831.954" transform="rotate(10.5696 733.535 -31.2783)" fill="black"/>
<rect x="703.301" y="-36.9199" width="1.07647" height="831.954" transform="rotate(10.5696 703.301 -36.9199)" fill="black"/>
<rect x="739.584" y="-30.1499" width="1.07647" height="831.954" transform="rotate(10.5696 739.584 -30.1499)" fill="black"/>
<rect x="709.35" y="-35.7915" width="1.07647" height="831.954" transform="rotate(10.5696 709.35 -35.7915)" fill="black"/>
<rect x="745.63" y="-29.0215" width="1.07647" height="831.954" transform="rotate(10.5696 745.63 -29.0215)" fill="black"/>
<rect x="715.396" y="-34.6636" width="1.07647" height="831.954" transform="rotate(10.5696 715.396 -34.6636)" fill="black"/>
<rect x="751.677" y="-27.8931" width="1.07647" height="831.954" transform="rotate(10.5696 751.677 -27.8931)" fill="black"/>
<rect x="721.442" y="-33.5352" width="1.07647" height="831.954" transform="rotate(10.5696 721.442 -33.5352)" fill="black"/>
<rect x="757.723" y="-26.7651" width="1.07647" height="831.954" transform="rotate(10.5696 757.723 -26.7651)" fill="black"/>
<rect x="727.489" y="-32.4067" width="1.07647" height="831.954" transform="rotate(10.5696 727.489 -32.4067)" fill="black"/>
<rect x="763.772" y="-25.6367" width="1.07647" height="831.954" transform="rotate(10.5696 763.772 -25.6367)" fill="black"/>
<rect x="769.6" y="-23.3989" width="1.07647" height="831.954" transform="rotate(10.5696 769.6 -23.3989)" fill="black"/>
<rect x="805.88" y="-16.6289" width="1.07647" height="831.954" transform="rotate(10.5696 805.88 -16.6289)" fill="black"/>
<rect x="775.646" y="-22.2705" width="1.07647" height="831.954" transform="rotate(10.5696 775.646 -22.2705)" fill="black"/>
<rect x="811.926" y="-15.5005" width="1.07647" height="831.954" transform="rotate(10.5696 811.926 -15.5005)" fill="black"/>
<rect x="781.692" y="-21.1421" width="1.07647" height="831.954" transform="rotate(10.5696 781.692 -21.1421)" fill="black"/>
<rect x="817.975" y="-14.3726" width="1.07647" height="831.954" transform="rotate(10.5696 817.975 -14.3726)" fill="black"/>
<rect x="787.741" y="-20.0142" width="1.07647" height="831.954" transform="rotate(10.5696 787.741 -20.0142)" fill="black"/>
<rect x="824.021" y="-13.2441" width="1.07647" height="831.954" transform="rotate(10.5696 824.021 -13.2441)" fill="black"/>
<rect x="793.788" y="-18.8857" width="1.07647" height="831.954" transform="rotate(10.5696 793.788 -18.8857)" fill="black"/>
<rect x="830.067" y="-12.1157" width="1.07647" height="831.954" transform="rotate(10.5696 830.067 -12.1157)" fill="black"/>
<rect x="799.833" y="-17.7573" width="1.07647" height="831.954" transform="rotate(10.5696 799.833 -17.7573)" fill="black"/>
<rect x="836.114" y="-10.9873" width="1.07647" height="831.954" transform="rotate(10.5696 836.114 -10.9873)" fill="black"/>
<rect x="842.163" y="-9.85889" width="1.07647" height="831.954" transform="rotate(10.5696 842.163 -9.85889)" fill="black"/>
<rect x="878.443" y="-3.08936" width="1.07647" height="831.954" transform="rotate(10.5696 878.443 -3.08936)" fill="black"/>
<rect x="848.209" y="-8.73096" width="1.07647" height="831.954" transform="rotate(10.5696 848.209 -8.73096)" fill="black"/>
<rect x="884.49" y="-1.96094" width="1.07647" height="831.954" transform="rotate(10.5696 884.49 -1.96094)" fill="black"/>
<rect x="854.255" y="-7.60254" width="1.07647" height="831.954" transform="rotate(10.5696 854.255 -7.60254)" fill="black"/>
<rect x="890.536" y="-0.83252" width="1.07647" height="831.954" transform="rotate(10.5696 890.536 -0.83252)" fill="black"/>
<rect x="860.302" y="-6.47412" width="1.07647" height="831.954" transform="rotate(10.5696 860.302 -6.47412)" fill="black"/>
<rect x="896.582" y="0.295898" width="1.07647" height="831.954" transform="rotate(10.5696 896.582 0.295898)" fill="black"/>
<rect x="866.348" y="-5.3457" width="1.07647" height="831.954" transform="rotate(10.5696 866.348 -5.3457)" fill="black"/>
<rect x="902.631" y="1.42432" width="1.07647" height="831.954" transform="rotate(10.5696 902.631 1.42432)" fill="black"/>
<rect x="872.397" y="-4.21729" width="1.07647" height="831.954" transform="rotate(10.5696 872.397 -4.21729)" fill="black"/>
<rect x="908.678" y="2.55225" width="1.07647" height="831.954" transform="rotate(10.5696 908.678 2.55225)" fill="black"/>
<rect x="914.724" y="3.68066" width="1.07647" height="831.954" transform="rotate(10.5696 914.724 3.68066)" fill="black"/>
<rect x="951.004" y="10.4507" width="1.07647" height="831.954" transform="rotate(10.5696 951.004 10.4507)" fill="black"/>
<rect x="920.77" y="4.80908" width="1.07647" height="831.954" transform="rotate(10.5696 920.77 4.80908)" fill="black"/>
<rect x="957.053" y="11.5791" width="1.07647" height="831.954" transform="rotate(10.5696 957.053 11.5791)" fill="black"/>
<rect x="926.819" y="5.9375" width="1.07647" height="831.954" transform="rotate(10.5696 926.819 5.9375)" fill="black"/>
<rect x="963.099" y="12.7075" width="1.07647" height="831.954" transform="rotate(10.5696 963.099 12.7075)" fill="black"/>
<rect x="932.865" y="7.06592" width="1.07647" height="831.954" transform="rotate(10.5696 932.865 7.06592)" fill="black"/>
<rect x="969.146" y="13.8359" width="1.07647" height="831.954" transform="rotate(10.5696 969.146 13.8359)" fill="black"/>
<rect x="938.912" y="8.19385" width="1.07647" height="831.954" transform="rotate(10.5696 938.912 8.19385)" fill="black"/>
<rect x="975.192" y="14.9644" width="1.07647" height="831.954" transform="rotate(10.5696 975.192 14.9644)" fill="black"/>
<rect x="944.958" y="9.32275" width="1.07647" height="831.954" transform="rotate(10.5696 944.958 9.32275)" fill="black"/>
<rect x="981.241" y="16.0923" width="1.07647" height="831.954" transform="rotate(10.5696 981.241 16.0923)" fill="black"/>
<rect x="987.287" y="17.2207" width="1.07647" height="831.954" transform="rotate(10.5696 987.287 17.2207)" fill="black"/>
<rect x="1023.57" y="23.9907" width="1.07647" height="831.954" transform="rotate(10.5696 1023.57 23.9907)" fill="black"/>
<rect x="993.333" y="18.3491" width="1.07647" height="831.954" transform="rotate(10.5696 993.333 18.3491)" fill="black"/>
<rect x="999.379" y="19.4775" width="1.07647" height="831.954" transform="rotate(10.5696 999.379 19.4775)" fill="black"/>
<rect x="1005.43" y="20.606" width="1.07647" height="831.954" transform="rotate(10.5696 1005.43 20.606)" fill="black"/>
<rect x="1011.48" y="21.7339" width="1.07647" height="831.954" transform="rotate(10.5696 1011.48 21.7339)" fill="black"/>
<rect x="1017.52" y="22.8623" width="1.07647" height="831.954" transform="rotate(10.5696 1017.52 22.8623)" fill="black"/>
</g>
</svg>
