<svg width="760" height="362" viewBox="0 0 760 362" fill="none" xmlns="http://www.w3.org/2000/svg">
<mask id="mask0_297_2590" style="mask-type:alpha" maskUnits="userSpaceOnUse" x="0" y="0" width="760" height="362">
<rect x="760" y="361.587" width="760" height="361" transform="rotate(-180 760 361.587)" fill="white" fill-opacity="0.3"/>
</mask>
<g mask="url(#mask0_297_2590)">
<rect width="0.839172" height="664.464" transform="matrix(-0.982152 -0.188089 0.178879 -0.983871 742.146 679.059)" fill="black" fill-opacity="0.62"/>
<rect width="0.839172" height="664.464" transform="matrix(-0.982152 -0.188089 0.178879 -0.983871 737.437 678.157)" fill="black" fill-opacity="0.62"/>
<rect width="0.839172" height="664.464" transform="matrix(-0.982152 -0.188089 0.178879 -0.983871 732.726 677.255)" fill="black" fill-opacity="0.62"/>
<rect width="0.839172" height="664.464" transform="matrix(-0.982152 -0.188089 0.178879 -0.983871 756.274 681.765)" fill="black" fill-opacity="0.62"/>
<rect width="0.839172" height="664.464" transform="matrix(-0.982152 -0.188089 0.178879 -0.983871 728.017 676.354)" fill="black" fill-opacity="0.62"/>
<rect width="0.839172" height="664.464" transform="matrix(-0.982152 -0.188089 0.178879 -0.983871 751.564 680.863)" fill="black" fill-opacity="0.62"/>
<rect width="0.839172" height="664.464" transform="matrix(-0.982152 -0.188089 0.178879 -0.983871 723.307 675.451)" fill="black" fill-opacity="0.62"/>
<rect width="0.839172" height="664.464" transform="matrix(-0.982152 -0.188089 0.178879 -0.983871 746.856 679.961)" fill="black" fill-opacity="0.62"/>
<rect width="0.839172" height="664.464" transform="matrix(-0.982152 -0.188089 0.178879 -0.983871 718.598 674.549)" fill="black" fill-opacity="0.62"/>
<rect width="0.839172" height="664.464" transform="matrix(-0.982152 -0.188089 0.178879 -0.983871 713.887 673.647)" fill="black" fill-opacity="0.62"/>
<rect width="0.839172" height="664.464" transform="matrix(-0.982152 -0.188089 0.178879 -0.983871 685.629 668.236)" fill="black" fill-opacity="0.62"/>
<rect width="0.839172" height="664.464" transform="matrix(-0.982152 -0.188089 0.178879 -0.983871 709.177 672.745)" fill="black" fill-opacity="0.62"/>
<rect width="0.839172" height="664.464" transform="matrix(-0.982152 -0.188089 0.178879 -0.983871 680.92 667.334)" fill="black" fill-opacity="0.62"/>
<rect width="0.839172" height="664.464" transform="matrix(-0.982152 -0.188089 0.178879 -0.983871 704.469 671.843)" fill="black" fill-opacity="0.62"/>
<rect width="0.839172" height="664.464" transform="matrix(-0.982152 -0.188089 0.178879 -0.983871 676.211 666.432)" fill="black" fill-opacity="0.62"/>
<rect width="0.839172" height="664.464" transform="matrix(-0.982152 -0.188089 0.178879 -0.983871 699.759 670.942)" fill="black" fill-opacity="0.62"/>
<rect width="0.839172" height="664.464" transform="matrix(-0.982152 -0.188089 0.178879 -0.983871 671.502 665.53)" fill="black" fill-opacity="0.62"/>
<rect width="0.839172" height="664.464" transform="matrix(-0.982152 -0.188089 0.178879 -0.983871 695.05 670.04)" fill="black" fill-opacity="0.62"/>
<rect width="0.839172" height="664.464" transform="matrix(-0.982152 -0.188089 0.178879 -0.983871 666.79 664.628)" fill="black" fill-opacity="0.62"/>
<rect width="0.839172" height="664.464" transform="matrix(-0.982152 -0.188089 0.178879 -0.983871 690.338 669.138)" fill="black" fill-opacity="0.62"/>
<rect width="0.839172" height="664.464" transform="matrix(-0.982152 -0.188089 0.178879 -0.983871 662.081 663.727)" fill="black" fill-opacity="0.62"/>
<rect width="0.839172" height="664.464" transform="matrix(-0.982152 -0.188089 0.178879 -0.983871 657.372 662.824)" fill="black" fill-opacity="0.62"/>
<rect width="0.839172" height="664.464" transform="matrix(-0.982152 -0.188089 0.178879 -0.983871 629.115 657.413)" fill="black" fill-opacity="0.62"/>
<rect width="0.839172" height="664.464" transform="matrix(-0.982152 -0.188089 0.178879 -0.983871 652.663 661.922)" fill="black" fill-opacity="0.62"/>
<rect width="0.839172" height="664.464" transform="matrix(-0.982152 -0.188089 0.178879 -0.983871 624.403 656.511)" fill="black" fill-opacity="0.62"/>
<rect width="0.839172" height="664.464" transform="matrix(-0.982152 -0.188089 0.178879 -0.983871 647.951 661.021)" fill="black" fill-opacity="0.62"/>
<rect width="0.839172" height="664.464" transform="matrix(-0.982152 -0.188089 0.178879 -0.983871 619.694 655.609)" fill="black" fill-opacity="0.62"/>
<rect width="0.839172" height="664.464" transform="matrix(-0.982152 -0.188089 0.178879 -0.983871 643.242 660.118)" fill="black" fill-opacity="0.62"/>
<rect width="0.839172" height="664.464" transform="matrix(-0.982152 -0.188089 0.178879 -0.983871 614.985 654.707)" fill="black" fill-opacity="0.62"/>
<rect width="0.839172" height="664.464" transform="matrix(-0.982152 -0.188089 0.178879 -0.983871 638.533 659.216)" fill="black" fill-opacity="0.62"/>
<rect width="0.839172" height="664.464" transform="matrix(-0.982152 -0.188089 0.178879 -0.983871 610.276 653.805)" fill="black" fill-opacity="0.62"/>
<rect width="0.839172" height="664.464" transform="matrix(-0.982152 -0.188089 0.178879 -0.983871 633.824 658.314)" fill="black" fill-opacity="0.62"/>
<rect width="0.839172" height="664.464" transform="matrix(-0.982152 -0.188089 0.178879 -0.983871 605.566 652.903)" fill="black" fill-opacity="0.62"/>
<rect width="0.839172" height="664.464" transform="matrix(-0.982152 -0.188089 0.178879 -0.983871 601.466 652.118)" fill="black" fill-opacity="0.62"/>
<rect width="0.839172" height="664.464" transform="matrix(-0.982152 -0.188089 0.178879 -0.983871 573.209 646.707)" fill="black" fill-opacity="0.62"/>
<rect width="0.839172" height="664.464" transform="matrix(-0.982152 -0.188089 0.178879 -0.983871 596.758 651.216)" fill="black" fill-opacity="0.62"/>
<rect width="0.839172" height="664.464" transform="matrix(-0.982152 -0.188089 0.178879 -0.983871 568.498 645.805)" fill="black" fill-opacity="0.62"/>
<rect width="0.839172" height="664.464" transform="matrix(-0.982152 -0.188089 0.178879 -0.983871 592.048 650.314)" fill="black" fill-opacity="0.62"/>
<rect width="0.839172" height="664.464" transform="matrix(-0.982152 -0.188089 0.178879 -0.983871 563.789 644.903)" fill="black" fill-opacity="0.62"/>
<rect width="0.839172" height="664.464" transform="matrix(-0.982152 -0.188089 0.178879 -0.983871 587.337 649.413)" fill="black" fill-opacity="0.62"/>
<rect width="0.839172" height="664.464" transform="matrix(-0.982152 -0.188089 0.178879 -0.983871 559.079 644.001)" fill="black" fill-opacity="0.62"/>
<rect width="0.839172" height="664.464" transform="matrix(-0.982152 -0.188089 0.178879 -0.983871 582.628 648.51)" fill="black" fill-opacity="0.62"/>
<rect width="0.839172" height="664.464" transform="matrix(-0.982152 -0.188089 0.178879 -0.983871 554.37 643.099)" fill="black" fill-opacity="0.62"/>
<rect width="0.839172" height="664.464" transform="matrix(-0.982152 -0.188089 0.178879 -0.983871 577.918 647.608)" fill="black" fill-opacity="0.62"/>
<rect width="0.839172" height="664.464" transform="matrix(-0.982152 -0.188089 0.178879 -0.983871 549.661 642.197)" fill="black" fill-opacity="0.62"/>
<rect width="0.839172" height="664.464" transform="matrix(-0.982152 -0.188089 0.178879 -0.983871 544.95 641.295)" fill="black" fill-opacity="0.62"/>
<rect width="0.839172" height="664.464" transform="matrix(-0.982152 -0.188089 0.178879 -0.983871 516.692 635.883)" fill="black" fill-opacity="0.62"/>
<rect width="0.839172" height="664.464" transform="matrix(-0.982152 -0.188089 0.178879 -0.983871 540.24 640.393)" fill="black" fill-opacity="0.62"/>
<rect width="0.839172" height="664.464" transform="matrix(-0.982152 -0.188089 0.178879 -0.983871 511.983 634.981)" fill="black" fill-opacity="0.62"/>
<rect width="0.839172" height="664.464" transform="matrix(-0.982152 -0.188089 0.178879 -0.983871 535.531 639.491)" fill="black" fill-opacity="0.62"/>
<rect width="0.839172" height="664.464" transform="matrix(-0.982152 -0.188089 0.178879 -0.983871 507.274 634.08)" fill="black" fill-opacity="0.62"/>
<rect width="0.839172" height="664.464" transform="matrix(-0.982152 -0.188089 0.178879 -0.983871 530.822 638.589)" fill="black" fill-opacity="0.62"/>
<rect width="0.839172" height="664.464" transform="matrix(-0.982152 -0.188089 0.178879 -0.983871 502.562 633.178)" fill="black" fill-opacity="0.62"/>
<rect width="0.839172" height="664.464" transform="matrix(-0.982152 -0.188089 0.178879 -0.983871 526.113 637.687)" fill="black" fill-opacity="0.62"/>
<rect width="0.839172" height="664.464" transform="matrix(-0.982152 -0.188089 0.178879 -0.983871 497.853 632.276)" fill="black" fill-opacity="0.62"/>
<rect width="0.839172" height="664.464" transform="matrix(-0.982152 -0.188089 0.178879 -0.983871 521.401 636.786)" fill="black" fill-opacity="0.62"/>
<rect width="0.839172" height="664.464" transform="matrix(-0.982152 -0.188089 0.178879 -0.983871 493.144 631.374)" fill="black" fill-opacity="0.62"/>
<rect width="0.839172" height="664.464" transform="matrix(-0.982152 -0.188089 0.178879 -0.983871 488.435 630.472)" fill="black" fill-opacity="0.62"/>
<rect width="0.839172" height="664.464" transform="matrix(-0.982152 -0.188089 0.178879 -0.983871 460.177 625.06)" fill="black" fill-opacity="0.62"/>
<rect width="0.839172" height="664.464" transform="matrix(-0.982152 -0.188089 0.178879 -0.983871 483.726 629.57)" fill="black" fill-opacity="0.62"/>
<rect width="0.839172" height="664.464" transform="matrix(-0.982152 -0.188089 0.178879 -0.983871 455.466 624.158)" fill="black" fill-opacity="0.62"/>
<rect width="0.839172" height="664.464" transform="matrix(-0.982152 -0.188089 0.178879 -0.983871 479.014 628.667)" fill="black" fill-opacity="0.62"/>
<rect width="0.839172" height="664.464" transform="matrix(-0.982152 -0.188089 0.178879 -0.983871 450.757 623.256)" fill="black" fill-opacity="0.62"/>
<rect width="0.839172" height="664.464" transform="matrix(-0.982152 -0.188089 0.178879 -0.983871 474.305 627.766)" fill="black" fill-opacity="0.62"/>
<rect width="0.839172" height="664.464" transform="matrix(-0.982152 -0.188089 0.178879 -0.983871 446.048 622.354)" fill="black" fill-opacity="0.62"/>
<rect width="0.839172" height="664.464" transform="matrix(-0.982152 -0.188089 0.178879 -0.983871 469.596 626.864)" fill="black" fill-opacity="0.62"/>
<rect width="0.839172" height="664.464" transform="matrix(-0.982152 -0.188089 0.178879 -0.983871 441.338 621.453)" fill="black" fill-opacity="0.62"/>
<rect width="0.839172" height="664.464" transform="matrix(-0.982152 -0.188089 0.178879 -0.983871 464.886 625.962)" fill="black" fill-opacity="0.62"/>
<rect width="0.839172" height="664.464" transform="matrix(-0.982152 -0.188089 0.178879 -0.983871 436.627 620.55)" fill="black" fill-opacity="0.62"/>
<rect width="0.839172" height="664.464" transform="matrix(-0.982152 -0.188089 0.178879 -0.983871 431.917 619.648)" fill="black" fill-opacity="0.62"/>
<rect width="0.839172" height="664.464" transform="matrix(-0.982152 -0.188089 0.178879 -0.983871 403.66 614.237)" fill="black" fill-opacity="0.62"/>
<rect width="0.839172" height="664.464" transform="matrix(-0.982152 -0.188089 0.178879 -0.983871 427.208 618.747)" fill="black" fill-opacity="0.62"/>
<rect width="0.839172" height="664.464" transform="matrix(-0.982152 -0.188089 0.178879 -0.983871 398.951 613.335)" fill="black" fill-opacity="0.62"/>
<rect width="0.839172" height="664.464" transform="matrix(-0.982152 -0.188089 0.178879 -0.983871 422.499 617.845)" fill="black" fill-opacity="0.62"/>
<rect width="0.839172" height="664.464" transform="matrix(-0.982152 -0.188089 0.178879 -0.983871 394.24 612.433)" fill="black" fill-opacity="0.62"/>
<rect width="0.839172" height="664.464" transform="matrix(-0.982152 -0.188089 0.178879 -0.983871 417.79 616.942)" fill="black" fill-opacity="0.62"/>
<rect width="0.839172" height="664.464" transform="matrix(-0.982152 -0.188089 0.178879 -0.983871 389.53 611.531)" fill="black" fill-opacity="0.62"/>
<rect width="0.839172" height="664.464" transform="matrix(-0.982152 -0.188089 0.178879 -0.983871 413.079 616.041)" fill="black" fill-opacity="0.62"/>
<rect width="0.839172" height="664.464" transform="matrix(-0.982152 -0.188089 0.178879 -0.983871 384.821 610.629)" fill="black" fill-opacity="0.62"/>
<rect width="0.839172" height="664.464" transform="matrix(-0.982152 -0.188089 0.178879 -0.983871 408.369 615.139)" fill="black" fill-opacity="0.62"/>
<rect width="0.839172" height="664.464" transform="matrix(-0.982152 -0.188089 0.178879 -0.983871 380.112 609.727)" fill="black" fill-opacity="0.62"/>
<rect width="0.839172" height="664.464" transform="matrix(-0.982152 -0.188089 0.178879 -0.983871 375.403 608.825)" fill="black" fill-opacity="0.62"/>
<rect width="0.839172" height="664.464" transform="matrix(-0.982152 -0.188089 0.178879 -0.983871 347.143 603.414)" fill="black" fill-opacity="0.62"/>
<rect width="0.839172" height="664.464" transform="matrix(-0.982152 -0.188089 0.178879 -0.983871 370.691 607.923)" fill="black" fill-opacity="0.62"/>
<rect width="0.839172" height="664.464" transform="matrix(-0.982152 -0.188089 0.178879 -0.983871 342.434 602.512)" fill="black" fill-opacity="0.62"/>
<rect width="0.839172" height="664.464" transform="matrix(-0.982152 -0.188089 0.178879 -0.983871 365.982 607.021)" fill="black" fill-opacity="0.62"/>
<rect width="0.839172" height="664.464" transform="matrix(-0.982152 -0.188089 0.178879 -0.983871 337.725 601.61)" fill="black" fill-opacity="0.62"/>
<rect width="0.839172" height="664.464" transform="matrix(-0.982152 -0.188089 0.178879 -0.983871 361.273 606.119)" fill="black" fill-opacity="0.62"/>
<rect width="0.839172" height="664.464" transform="matrix(-0.982152 -0.188089 0.178879 -0.983871 333.016 600.708)" fill="black" fill-opacity="0.62"/>
<rect width="0.839172" height="664.464" transform="matrix(-0.982152 -0.188089 0.178879 -0.983871 356.564 605.217)" fill="black" fill-opacity="0.62"/>
<rect width="0.839172" height="664.464" transform="matrix(-0.982152 -0.188089 0.178879 -0.983871 328.304 599.806)" fill="black" fill-opacity="0.62"/>
<rect width="0.839172" height="664.464" transform="matrix(-0.982152 -0.188089 0.178879 -0.983871 351.855 604.315)" fill="black" fill-opacity="0.62"/>
<rect width="0.839172" height="664.464" transform="matrix(-0.982152 -0.188089 0.178879 -0.983871 323.595 598.904)" fill="black" fill-opacity="0.62"/>
<rect width="0.839172" height="664.464" transform="matrix(-0.982152 -0.188089 0.178879 -0.983871 318.886 598.002)" fill="black" fill-opacity="0.62"/>
<rect width="0.839172" height="664.464" transform="matrix(-0.982152 -0.188089 0.178879 -0.983871 290.628 592.59)" fill="black" fill-opacity="0.62"/>
<rect width="0.839172" height="664.464" transform="matrix(-0.982152 -0.188089 0.178879 -0.983871 314.176 597.1)" fill="black" fill-opacity="0.62"/>
<rect width="0.839172" height="664.464" transform="matrix(-0.982152 -0.188089 0.178879 -0.983871 285.919 591.688)" fill="black" fill-opacity="0.62"/>
<rect width="0.839172" height="664.464" transform="matrix(-0.982152 -0.188089 0.178879 -0.983871 309.467 596.198)" fill="black" fill-opacity="0.62"/>
<rect width="0.839172" height="664.464" transform="matrix(-0.982152 -0.188089 0.178879 -0.983871 281.208 590.786)" fill="black" fill-opacity="0.62"/>
<rect width="0.839172" height="664.464" transform="matrix(-0.982152 -0.188089 0.178879 -0.983871 304.756 595.296)" fill="black" fill-opacity="0.62"/>
<rect width="0.839172" height="664.464" transform="matrix(-0.982152 -0.188089 0.178879 -0.983871 276.498 589.885)" fill="black" fill-opacity="0.62"/>
<rect width="0.839172" height="664.464" transform="matrix(-0.982152 -0.188089 0.178879 -0.983871 300.047 594.395)" fill="black" fill-opacity="0.62"/>
<rect width="0.839172" height="664.464" transform="matrix(-0.982152 -0.188089 0.178879 -0.983871 271.789 588.982)" fill="black" fill-opacity="0.62"/>
<rect width="0.839172" height="664.464" transform="matrix(-0.982152 -0.188089 0.178879 -0.983871 295.337 593.492)" fill="black" fill-opacity="0.62"/>
<rect width="0.839172" height="664.464" transform="matrix(-0.982152 -0.188089 0.178879 -0.983871 267.08 588.081)" fill="black" fill-opacity="0.62"/>
<rect width="0.839172" height="664.464" transform="matrix(-0.982152 -0.188089 0.178879 -0.983871 262.369 587.179)" fill="black" fill-opacity="0.62"/>
<rect width="0.839172" height="664.464" transform="matrix(-0.982152 -0.188089 0.178879 -0.983871 234.111 581.768)" fill="black" fill-opacity="0.62"/>
<rect width="0.839172" height="664.464" transform="matrix(-0.982152 -0.188089 0.178879 -0.983871 257.659 586.277)" fill="black" fill-opacity="0.62"/>
<rect width="0.839172" height="664.464" transform="matrix(-0.982152 -0.188089 0.178879 -0.983871 229.402 580.865)" fill="black" fill-opacity="0.62"/>
<rect width="0.839172" height="664.464" transform="matrix(-0.982152 -0.188089 0.178879 -0.983871 252.95 585.375)" fill="black" fill-opacity="0.62"/>
<rect width="0.839172" height="664.464" transform="matrix(-0.982152 -0.188089 0.178879 -0.983871 224.693 579.963)" fill="black" fill-opacity="0.62"/>
<rect width="0.839172" height="664.464" transform="matrix(-0.982152 -0.188089 0.178879 -0.983871 248.241 584.473)" fill="black" fill-opacity="0.62"/>
<rect width="0.839172" height="664.464" transform="matrix(-0.982152 -0.188089 0.178879 -0.983871 219.981 579.062)" fill="black" fill-opacity="0.62"/>
<rect width="0.839172" height="664.464" transform="matrix(-0.982152 -0.188089 0.178879 -0.983871 243.532 583.571)" fill="black" fill-opacity="0.62"/>
<rect width="0.839172" height="664.464" transform="matrix(-0.982152 -0.188089 0.178879 -0.983871 215.272 578.16)" fill="black" fill-opacity="0.62"/>
<rect width="0.839172" height="664.464" transform="matrix(-0.982152 -0.188089 0.178879 -0.983871 238.82 582.669)" fill="black" fill-opacity="0.62"/>
<rect width="0.839172" height="664.464" transform="matrix(-0.982152 -0.188089 0.178879 -0.983871 210.563 577.258)" fill="black" fill-opacity="0.62"/>
<rect width="0.839172" height="664.464" transform="matrix(-0.982152 -0.188089 0.178879 -0.983871 205.854 576.355)" fill="black" fill-opacity="0.62"/>
<rect width="0.839172" height="664.464" transform="matrix(-0.982152 -0.188089 0.178879 -0.983871 177.596 570.943)" fill="black" fill-opacity="0.62"/>
<rect width="0.839172" height="664.464" transform="matrix(-0.982152 -0.188089 0.178879 -0.983871 201.145 575.454)" fill="black" fill-opacity="0.62"/>
<rect width="0.839172" height="664.464" transform="matrix(-0.982152 -0.188089 0.178879 -0.983871 172.885 570.042)" fill="black" fill-opacity="0.62"/>
<rect width="0.839172" height="664.464" transform="matrix(-0.982152 -0.188089 0.178879 -0.983871 196.433 574.552)" fill="black" fill-opacity="0.62"/>
<rect width="0.839172" height="664.464" transform="matrix(-0.982152 -0.188089 0.178879 -0.983871 168.176 569.14)" fill="black" fill-opacity="0.62"/>
<rect width="0.839172" height="664.464" transform="matrix(-0.982152 -0.188089 0.178879 -0.983871 191.724 573.649)" fill="black" fill-opacity="0.62"/>
<rect width="0.839172" height="664.464" transform="matrix(-0.982152 -0.188089 0.178879 -0.983871 163.466 568.238)" fill="black" fill-opacity="0.62"/>
<rect width="0.839172" height="664.464" transform="matrix(-0.982152 -0.188089 0.178879 -0.983871 187.015 572.748)" fill="black" fill-opacity="0.62"/>
<rect width="0.839172" height="664.464" transform="matrix(-0.982152 -0.188089 0.178879 -0.983871 158.757 567.336)" fill="black" fill-opacity="0.62"/>
<rect width="0.839172" height="664.464" transform="matrix(-0.982152 -0.188089 0.178879 -0.983871 182.305 571.846)" fill="black" fill-opacity="0.62"/>
<rect width="0.839172" height="664.464" transform="matrix(-0.982152 -0.188089 0.178879 -0.983871 154.046 566.434)" fill="black" fill-opacity="0.62"/>
<rect width="0.839172" height="664.464" transform="matrix(-0.982152 -0.188089 0.178879 -0.983871 149.507 564.646)" fill="black" fill-opacity="0.62"/>
<rect width="0.839172" height="664.464" transform="matrix(-0.982152 -0.188089 0.178879 -0.983871 121.25 559.234)" fill="black" fill-opacity="0.62"/>
<rect width="0.839172" height="664.464" transform="matrix(-0.982152 -0.188089 0.178879 -0.983871 144.798 563.743)" fill="black" fill-opacity="0.62"/>
<rect width="0.839172" height="664.464" transform="matrix(-0.982152 -0.188089 0.178879 -0.983871 116.54 558.332)" fill="black" fill-opacity="0.62"/>
<rect width="0.839172" height="664.464" transform="matrix(-0.982152 -0.188089 0.178879 -0.983871 140.089 562.841)" fill="black" fill-opacity="0.62"/>
<rect width="0.839172" height="664.464" transform="matrix(-0.982152 -0.188089 0.178879 -0.983871 111.829 557.43)" fill="black" fill-opacity="0.62"/>
<rect width="0.839172" height="664.464" transform="matrix(-0.982152 -0.188089 0.178879 -0.983871 135.377 561.94)" fill="black" fill-opacity="0.62"/>
<rect width="0.839172" height="664.464" transform="matrix(-0.982152 -0.188089 0.178879 -0.983871 107.12 556.528)" fill="black" fill-opacity="0.62"/>
<rect width="0.839172" height="664.464" transform="matrix(-0.982152 -0.188089 0.178879 -0.983871 130.668 561.038)" fill="black" fill-opacity="0.62"/>
<rect width="0.839172" height="664.464" transform="matrix(-0.982152 -0.188089 0.178879 -0.983871 102.41 555.626)" fill="black" fill-opacity="0.62"/>
<rect width="0.839172" height="664.464" transform="matrix(-0.982152 -0.188089 0.178879 -0.983871 125.958 560.136)" fill="black" fill-opacity="0.62"/>
<rect width="0.839172" height="664.464" transform="matrix(-0.982152 -0.188089 0.178879 -0.983871 97.7012 554.724)" fill="black" fill-opacity="0.62"/>
<rect width="0.839172" height="664.464" transform="matrix(-0.982152 -0.188089 0.178879 -0.983871 92.9897 553.822)" fill="black" fill-opacity="0.62"/>
<rect width="0.839172" height="664.464" transform="matrix(-0.982152 -0.188089 0.178879 -0.983871 64.7324 548.411)" fill="black" fill-opacity="0.62"/>
<rect width="0.839172" height="664.464" transform="matrix(-0.982152 -0.188089 0.178879 -0.983871 88.2805 552.92)" fill="black" fill-opacity="0.62"/>
<rect width="0.839172" height="664.464" transform="matrix(-0.982152 -0.188089 0.178879 -0.983871 60.0232 547.509)" fill="black" fill-opacity="0.62"/>
<rect width="0.839172" height="664.464" transform="matrix(-0.982152 -0.188089 0.178879 -0.983871 83.5715 552.019)" fill="black" fill-opacity="0.62"/>
<rect width="0.839172" height="664.464" transform="matrix(-0.982152 -0.188089 0.178879 -0.983871 55.3142 546.607)" fill="black" fill-opacity="0.62"/>
<rect width="0.839172" height="664.464" transform="matrix(-0.982152 -0.188089 0.178879 -0.983871 78.8623 551.116)" fill="black" fill-opacity="0.62"/>
<rect width="0.839172" height="664.464" transform="matrix(-0.982152 -0.188089 0.178879 -0.983871 50.605 545.705)" fill="black" fill-opacity="0.62"/>
<rect width="0.839172" height="664.464" transform="matrix(-0.982152 -0.188089 0.178879 -0.983871 74.1528 550.214)" fill="black" fill-opacity="0.62"/>
<rect width="0.839172" height="664.464" transform="matrix(-0.982152 -0.188089 0.178879 -0.983871 45.8933 544.803)" fill="black" fill-opacity="0.62"/>
<rect width="0.839172" height="664.464" transform="matrix(-0.982152 -0.188089 0.178879 -0.983871 69.4417 549.312)" fill="black" fill-opacity="0.62"/>
<rect width="0.839172" height="664.464" transform="matrix(-0.982152 -0.188089 0.178879 -0.983871 41.1841 543.901)" fill="black" fill-opacity="0.62"/>
<rect width="0.839172" height="664.464" transform="matrix(-0.982152 -0.188089 0.178879 -0.983871 36.475 542.999)" fill="black" fill-opacity="0.62"/>
<rect width="0.839172" height="664.464" transform="matrix(-0.982152 -0.188089 0.178879 -0.983871 8.21765 537.587)" fill="black" fill-opacity="0.62"/>
<rect width="0.839172" height="664.464" transform="matrix(-0.982152 -0.188089 0.178879 -0.983871 31.7657 542.097)" fill="black" fill-opacity="0.62"/>
<rect width="0.839172" height="664.464" transform="matrix(-0.982152 -0.188089 0.178879 -0.983871 3.5061 536.686)" fill="black" fill-opacity="0.62"/>
<rect width="0.839172" height="664.464" transform="matrix(-0.982152 -0.188089 0.178879 -0.983871 27.0542 541.195)" fill="black" fill-opacity="0.62"/>
<rect width="0.839172" height="664.464" transform="matrix(-0.982152 -0.188089 0.178879 -0.983871 -1.20312 535.783)" fill="black" fill-opacity="0.62"/>
<rect width="0.839172" height="664.464" transform="matrix(-0.982152 -0.188089 0.178879 -0.983871 22.3451 540.293)" fill="black" fill-opacity="0.62"/>
<rect width="0.839172" height="664.464" transform="matrix(-0.982152 -0.188089 0.178879 -0.983871 -5.91211 534.881)" fill="black" fill-opacity="0.62"/>
<rect width="0.839172" height="664.464" transform="matrix(-0.982152 -0.188089 0.178879 -0.983871 17.6359 539.392)" fill="black" fill-opacity="0.62"/>
<rect width="0.839172" height="664.464" transform="matrix(-0.982152 -0.188089 0.178879 -0.983871 -10.6215 533.979)" fill="black" fill-opacity="0.62"/>
<rect width="0.839172" height="664.464" transform="matrix(-0.982152 -0.188089 0.178879 -0.983871 12.9269 538.489)" fill="black" fill-opacity="0.62"/>
<rect width="0.839172" height="664.464" transform="matrix(-0.982152 -0.188089 0.178879 -0.983871 -15.3329 533.078)" fill="black" fill-opacity="0.62"/>
<rect width="0.839172" height="664.464" transform="matrix(-0.982152 -0.188089 0.178879 -0.983871 -20.0421 532.176)" fill="black" fill-opacity="0.62"/>
<rect width="0.839172" height="664.464" transform="matrix(-0.982152 -0.188089 0.178879 -0.983871 -48.2999 526.764)" fill="black" fill-opacity="0.62"/>
<rect width="0.839172" height="664.464" transform="matrix(-0.982152 -0.188089 0.178879 -0.983871 -24.7513 531.273)" fill="black" fill-opacity="0.62"/>
<rect width="0.839172" height="664.464" transform="matrix(-0.982152 -0.188089 0.178879 -0.983871 -53.0088 525.862)" fill="black" fill-opacity="0.62"/>
<rect width="0.839172" height="664.464" transform="matrix(-0.982152 -0.188089 0.178879 -0.983871 -29.4604 530.372)" fill="black" fill-opacity="0.62"/>
<rect width="0.839172" height="664.464" transform="matrix(-0.982152 -0.188089 0.178879 -0.983871 -57.7178 524.96)" fill="black" fill-opacity="0.62"/>
<rect width="0.839172" height="664.464" transform="matrix(-0.982152 -0.188089 0.178879 -0.983871 -34.1698 529.47)" fill="black" fill-opacity="0.62"/>
<rect width="0.839172" height="664.464" transform="matrix(-0.982152 -0.188089 0.178879 -0.983871 -62.4296 524.058)" fill="black" fill-opacity="0.62"/>
<rect width="0.839172" height="664.464" transform="matrix(-0.982152 -0.188089 0.178879 -0.983871 -38.8812 528.568)" fill="black" fill-opacity="0.62"/>
<rect width="0.839172" height="664.464" transform="matrix(-0.982152 -0.188089 0.178879 -0.983871 -67.1385 523.156)" fill="black" fill-opacity="0.62"/>
<rect width="0.839172" height="664.464" transform="matrix(-0.982152 -0.188089 0.178879 -0.983871 -43.5905 527.666)" fill="black" fill-opacity="0.62"/>
<rect width="0.839172" height="664.464" transform="matrix(-0.982152 -0.188089 0.178879 -0.983871 -71.8479 522.254)" fill="black" fill-opacity="0.62"/>
<rect width="0.839172" height="664.464" transform="matrix(-0.982152 -0.188089 0.178879 -0.983871 -76.5573 521.353)" fill="black" fill-opacity="0.62"/>
<rect width="0.839172" height="664.464" transform="matrix(-0.982152 -0.188089 0.178879 -0.983871 -104.817 515.941)" fill="black" fill-opacity="0.62"/>
<rect width="0.839172" height="664.464" transform="matrix(-0.982152 -0.188089 0.178879 -0.983871 -81.2686 520.451)" fill="black" fill-opacity="0.62"/>
<rect width="0.839172" height="664.464" transform="matrix(-0.982152 -0.188089 0.178879 -0.983871 -109.526 515.039)" fill="black" fill-opacity="0.62"/>
<rect width="0.839172" height="664.464" transform="matrix(-0.982152 -0.188089 0.178879 -0.983871 -85.9777 519.549)" fill="black" fill-opacity="0.62"/>
<rect width="0.839172" height="664.464" transform="matrix(-0.982152 -0.188089 0.178879 -0.983871 -114.235 514.137)" fill="black" fill-opacity="0.62"/>
<rect width="0.839172" height="664.464" transform="matrix(-0.982152 -0.188089 0.178879 -0.983871 -90.6868 518.646)" fill="black" fill-opacity="0.62"/>
<rect width="0.839172" height="664.464" transform="matrix(-0.982152 -0.188089 0.178879 -0.983871 -95.3961 517.745)" fill="black" fill-opacity="0.62"/>
<rect width="0.839172" height="664.464" transform="matrix(-0.982152 -0.188089 0.178879 -0.983871 -100.105 516.843)" fill="black" fill-opacity="0.62"/>
</g>
</svg>
