<svg width="590" height="735" viewBox="0 0 590 735" fill="none" xmlns="http://www.w3.org/2000/svg">
<mask id="mask0_299_5728" style="mask-type:alpha" maskUnits="userSpaceOnUse" x="0" y="0" width="590" height="735">
<rect width="590" height="735" fill="white" fill-opacity="0.3"/>
</mask>
<g mask="url(#mask0_299_5728)">
<rect width="0.675684" height="519.383" rx="0.337842" transform="matrix(0.983224 0.182402 -0.184463 0.982839 9.99402 -113.503)" fill="black"/>
<rect width="0.675684" height="519.383" rx="0.337842" transform="matrix(0.983224 0.182402 -0.184463 0.982839 13.7899 -112.799)" fill="black"/>
<rect width="0.675684" height="519.383" rx="0.337842" transform="matrix(0.983224 0.182402 -0.184463 0.982839 17.5856 -112.094)" fill="black"/>
<rect width="0.675684" height="519.383" rx="0.337842" transform="matrix(0.983224 0.182402 -0.184463 0.982839 21.3817 -111.39)" fill="black"/>
<rect width="0.675684" height="519.383" rx="0.337842" transform="matrix(0.983224 0.182402 -0.184463 0.982839 2.40051 -114.912)" fill="black"/>
<rect width="0.675684" height="519.383" rx="0.337842" transform="matrix(0.983224 0.182402 -0.184463 0.982839 25.1794 -110.686)" fill="black"/>
<rect width="0.675684" height="519.383" rx="0.337842" transform="matrix(0.983224 0.182402 -0.184463 0.982839 6.19812 -114.208)" fill="black"/>
<rect width="0.675684" height="519.383" rx="0.337842" transform="matrix(0.983224 0.182402 -0.184463 0.982839 28.9752 -109.981)" fill="black"/>
<rect width="0.675684" height="519.383" rx="0.337842" transform="matrix(0.983224 0.182402 -0.184463 0.982839 32.7711 -109.277)" fill="black"/>
<rect width="0.675684" height="519.383" rx="0.337842" transform="matrix(0.983224 0.182402 -0.184463 0.982839 55.5481 -105.052)" fill="black"/>
<rect width="0.675684" height="519.383" rx="0.337842" transform="matrix(0.983224 0.182402 -0.184463 0.982839 36.567 -108.573)" fill="black"/>
<rect width="0.675684" height="519.383" rx="0.337842" transform="matrix(0.983224 0.182402 -0.184463 0.982839 59.3462 -104.348)" fill="black"/>
<rect width="0.675684" height="519.383" rx="0.337842" transform="matrix(0.983224 0.182402 -0.184463 0.982839 40.3647 -107.869)" fill="black"/>
<rect width="0.675684" height="519.383" rx="0.337842" transform="matrix(0.983224 0.182402 -0.184463 0.982839 63.1418 -103.644)" fill="black"/>
<rect width="0.675684" height="519.383" rx="0.337842" transform="matrix(0.983224 0.182402 -0.184463 0.982839 44.1606 -107.165)" fill="black"/>
<rect width="0.675684" height="519.383" rx="0.337842" transform="matrix(0.983224 0.182402 -0.184463 0.982839 66.9377 -102.939)" fill="black"/>
<rect width="0.675684" height="519.383" rx="0.337842" transform="matrix(0.983224 0.182402 -0.184463 0.982839 47.9563 -106.46)" fill="black"/>
<rect width="0.675684" height="519.383" rx="0.337842" transform="matrix(0.983224 0.182402 -0.184463 0.982839 70.7336 -102.235)" fill="black"/>
<rect width="0.675684" height="519.383" rx="0.337842" transform="matrix(0.983224 0.182402 -0.184463 0.982839 51.7522 -105.756)" fill="black"/>
<rect width="0.675684" height="519.383" rx="0.337842" transform="matrix(0.983224 0.182402 -0.184463 0.982839 74.5311 -101.531)" fill="black"/>
<rect width="0.675684" height="519.383" rx="0.337842" transform="matrix(0.983224 0.182402 -0.184463 0.982839 78.3273 -100.826)" fill="black"/>
<rect width="0.675684" height="519.383" rx="0.337842" transform="matrix(0.983224 0.182402 -0.184463 0.982839 101.104 -96.6006)" fill="black"/>
<rect width="0.675684" height="519.383" rx="0.337842" transform="matrix(0.983224 0.182402 -0.184463 0.982839 82.1229 -100.122)" fill="black"/>
<rect width="0.675684" height="519.383" rx="0.337842" transform="matrix(0.983224 0.182402 -0.184463 0.982839 104.9 -95.8965)" fill="black"/>
<rect width="0.675684" height="519.383" rx="0.337842" transform="matrix(0.983224 0.182402 -0.184463 0.982839 85.9191 -99.418)" fill="black"/>
<rect width="0.675684" height="519.383" rx="0.337842" transform="matrix(0.983224 0.182402 -0.184463 0.982839 108.696 -95.1924)" fill="black"/>
<rect width="0.675684" height="519.383" rx="0.337842" transform="matrix(0.983224 0.182402 -0.184463 0.982839 89.715 -98.7134)" fill="black"/>
<rect width="0.675684" height="519.383" rx="0.337842" transform="matrix(0.983224 0.182402 -0.184463 0.982839 112.494 -94.4878)" fill="black"/>
<rect width="0.675684" height="519.383" rx="0.337842" transform="matrix(0.983224 0.182402 -0.184463 0.982839 93.5126 -98.0093)" fill="black"/>
<rect width="0.675684" height="519.383" rx="0.337842" transform="matrix(0.983224 0.182402 -0.184463 0.982839 116.29 -93.7837)" fill="black"/>
<rect width="0.675684" height="519.383" rx="0.337842" transform="matrix(0.983224 0.182402 -0.184463 0.982839 97.3085 -97.3052)" fill="black"/>
<rect width="0.675684" height="519.383" rx="0.337842" transform="matrix(0.983224 0.182402 -0.184463 0.982839 120.086 -93.0796)" fill="black"/>
<rect width="0.675684" height="519.383" rx="0.337842" transform="matrix(0.983224 0.182402 -0.184463 0.982839 123.882 -92.375)" fill="black"/>
<rect width="0.675684" height="519.383" rx="0.337842" transform="matrix(0.983224 0.182402 -0.184463 0.982839 146.661 -88.1499)" fill="black"/>
<rect width="0.675684" height="519.383" rx="0.337842" transform="matrix(0.983224 0.182402 -0.184463 0.982839 127.679 -91.6709)" fill="black"/>
<rect width="0.675684" height="519.383" rx="0.337842" transform="matrix(0.983224 0.182402 -0.184463 0.982839 150.456 -87.4453)" fill="black"/>
<rect width="0.675684" height="519.383" rx="0.337842" transform="matrix(0.983224 0.182402 -0.184463 0.982839 131.475 -90.9668)" fill="black"/>
<rect width="0.675684" height="519.383" rx="0.337842" transform="matrix(0.983224 0.182402 -0.184463 0.982839 154.252 -86.7407)" fill="black"/>
<rect width="0.675684" height="519.383" rx="0.337842" transform="matrix(0.983224 0.182402 -0.184463 0.982839 135.271 -90.2622)" fill="black"/>
<rect width="0.675684" height="519.383" rx="0.337842" transform="matrix(0.983224 0.182402 -0.184463 0.982839 158.048 -86.0366)" fill="black"/>
<rect width="0.675684" height="519.383" rx="0.337842" transform="matrix(0.983224 0.182402 -0.184463 0.982839 139.067 -89.5581)" fill="black"/>
<rect width="0.675684" height="519.383" rx="0.337842" transform="matrix(0.983224 0.182402 -0.184463 0.982839 161.844 -85.3325)" fill="black"/>
<rect width="0.675684" height="519.383" rx="0.337842" transform="matrix(0.983224 0.182402 -0.184463 0.982839 142.863 -88.8535)" fill="black"/>
<rect width="0.675684" height="519.383" rx="0.337842" transform="matrix(0.983224 0.182402 -0.184463 0.982839 165.642 -84.6284)" fill="black"/>
<rect width="0.675684" height="519.383" rx="0.337842" transform="matrix(0.983224 0.182402 -0.184463 0.982839 169.438 -83.9238)" fill="black"/>
<rect width="0.675684" height="519.383" rx="0.337842" transform="matrix(0.983224 0.182402 -0.184463 0.982839 192.215 -79.6982)" fill="black"/>
<rect width="0.675684" height="519.383" rx="0.337842" transform="matrix(0.983224 0.182402 -0.184463 0.982839 173.234 -83.2197)" fill="black"/>
<rect width="0.675684" height="519.383" rx="0.337842" transform="matrix(0.983224 0.182402 -0.184463 0.982839 196.011 -78.9941)" fill="black"/>
<rect width="0.675684" height="519.383" rx="0.337842" transform="matrix(0.983224 0.182402 -0.184463 0.982839 177.029 -82.5156)" fill="black"/>
<rect width="0.675684" height="519.383" rx="0.337842" transform="matrix(0.983224 0.182402 -0.184463 0.982839 199.808 -78.2896)" fill="black"/>
<rect width="0.675684" height="519.383" rx="0.337842" transform="matrix(0.983224 0.182402 -0.184463 0.982839 180.827 -81.811)" fill="black"/>
<rect width="0.675684" height="519.383" rx="0.337842" transform="matrix(0.983224 0.182402 -0.184463 0.982839 203.604 -77.5854)" fill="black"/>
<rect width="0.675684" height="519.383" rx="0.337842" transform="matrix(0.983224 0.182402 -0.184463 0.982839 184.623 -81.1069)" fill="black"/>
<rect width="0.675684" height="519.383" rx="0.337842" transform="matrix(0.983224 0.182402 -0.184463 0.982839 207.4 -76.8813)" fill="black"/>
<rect width="0.675684" height="519.383" rx="0.337842" transform="matrix(0.983224 0.182402 -0.184463 0.982839 188.419 -80.4023)" fill="black"/>
<rect width="0.675684" height="519.383" rx="0.337842" transform="matrix(0.983224 0.182402 -0.184463 0.982839 211.196 -76.1772)" fill="black"/>
<rect width="0.675684" height="519.383" rx="0.337842" transform="matrix(0.983224 0.182402 -0.184463 0.982839 214.994 -75.4731)" fill="black"/>
<rect width="0.675684" height="519.383" rx="0.337842" transform="matrix(0.983224 0.182402 -0.184463 0.982839 237.771 -71.2476)" fill="black"/>
<rect width="0.675684" height="519.383" rx="0.337842" transform="matrix(0.983224 0.182402 -0.184463 0.982839 218.789 -74.7686)" fill="black"/>
<rect width="0.675684" height="519.383" rx="0.337842" transform="matrix(0.983224 0.182402 -0.184463 0.982839 241.567 -70.543)" fill="black"/>
<rect width="0.675684" height="519.383" rx="0.337842" transform="matrix(0.983224 0.182402 -0.184463 0.982839 222.585 -74.064)" fill="black"/>
<rect width="0.675684" height="519.383" rx="0.337842" transform="matrix(0.983224 0.182402 -0.184463 0.982839 245.363 -69.8384)" fill="black"/>
<rect width="0.675684" height="519.383" rx="0.337842" transform="matrix(0.983224 0.182402 -0.184463 0.982839 226.381 -73.3599)" fill="black"/>
<rect width="0.675684" height="519.383" rx="0.337842" transform="matrix(0.983224 0.182402 -0.184463 0.982839 249.158 -69.1343)" fill="black"/>
<rect width="0.675684" height="519.383" rx="0.337842" transform="matrix(0.983224 0.182402 -0.184463 0.982839 230.177 -72.6558)" fill="black"/>
<rect width="0.675684" height="519.383" rx="0.337842" transform="matrix(0.983224 0.182402 -0.184463 0.982839 252.956 -68.4302)" fill="black"/>
<rect width="0.675684" height="519.383" rx="0.337842" transform="matrix(0.983224 0.182402 -0.184463 0.982839 233.975 -71.9517)" fill="black"/>
<rect width="0.675684" height="519.383" rx="0.337842" transform="matrix(0.983224 0.182402 -0.184463 0.982839 256.752 -67.7261)" fill="black"/>
<rect width="0.675684" height="519.383" rx="0.337842" transform="matrix(0.983224 0.182402 -0.184463 0.982839 260.548 -67.0215)" fill="black"/>
<rect width="0.675684" height="519.383" rx="0.337842" transform="matrix(0.983224 0.182402 -0.184463 0.982839 283.325 -62.7959)" fill="black"/>
<rect width="0.675684" height="519.383" rx="0.337842" transform="matrix(0.983224 0.182402 -0.184463 0.982839 264.344 -66.3174)" fill="black"/>
<rect width="0.675684" height="519.383" rx="0.337842" transform="matrix(0.983224 0.182402 -0.184463 0.982839 287.123 -62.0918)" fill="black"/>
<rect width="0.675684" height="519.383" rx="0.337842" transform="matrix(0.983224 0.182402 -0.184463 0.982839 268.141 -65.6133)" fill="black"/>
<rect width="0.675684" height="519.383" rx="0.337842" transform="matrix(0.983224 0.182402 -0.184463 0.982839 290.919 -61.3877)" fill="black"/>
<rect width="0.675684" height="519.383" rx="0.337842" transform="matrix(0.983224 0.182402 -0.184463 0.982839 271.938 -64.9087)" fill="black"/>
<rect width="0.675684" height="519.383" rx="0.337842" transform="matrix(0.983224 0.182402 -0.184463 0.982839 294.715 -60.6831)" fill="black"/>
<rect width="0.675684" height="519.383" rx="0.337842" transform="matrix(0.983224 0.182402 -0.184463 0.982839 275.733 -64.2046)" fill="black"/>
<rect width="0.675684" height="519.383" rx="0.337842" transform="matrix(0.983224 0.182402 -0.184463 0.982839 298.51 -59.979)" fill="black"/>
<rect width="0.675684" height="519.383" rx="0.337842" transform="matrix(0.983224 0.182402 -0.184463 0.982839 279.529 -63.5)" fill="black"/>
<rect width="0.675684" height="519.383" rx="0.337842" transform="matrix(0.983224 0.182402 -0.184463 0.982839 302.306 -59.2744)" fill="black"/>
<rect width="0.675684" height="519.383" rx="0.337842" transform="matrix(0.983224 0.182402 -0.184463 0.982839 305.611 -58.6621)" fill="black"/>
<rect width="0.675684" height="519.383" rx="0.337842" transform="matrix(0.983224 0.182402 -0.184463 0.982839 328.388 -54.436)" fill="black"/>
<rect width="0.675684" height="519.383" rx="0.337842" transform="matrix(0.983224 0.182402 -0.184463 0.982839 309.406 -57.9575)" fill="black"/>
<rect width="0.675684" height="519.383" rx="0.337842" transform="matrix(0.983224 0.182402 -0.184463 0.982839 332.185 -53.7324)" fill="black"/>
<rect width="0.675684" height="519.383" rx="0.337842" transform="matrix(0.983224 0.182402 -0.184463 0.982839 313.202 -57.2534)" fill="black"/>
<rect width="0.675684" height="519.383" rx="0.337842" transform="matrix(0.983224 0.182402 -0.184463 0.982839 335.981 -53.0278)" fill="black"/>
<rect width="0.675684" height="519.383" rx="0.337842" transform="matrix(0.983224 0.182402 -0.184463 0.982839 317 -56.5493)" fill="black"/>
<rect width="0.675684" height="519.383" rx="0.337842" transform="matrix(0.983224 0.182402 -0.184463 0.982839 339.777 -52.3237)" fill="black"/>
<rect width="0.675684" height="519.383" rx="0.337842" transform="matrix(0.983224 0.182402 -0.184463 0.982839 320.796 -55.8447)" fill="black"/>
<rect width="0.675684" height="519.383" rx="0.337842" transform="matrix(0.983224 0.182402 -0.184463 0.982839 343.573 -51.6191)" fill="black"/>
<rect width="0.675684" height="519.383" rx="0.337842" transform="matrix(0.983224 0.182402 -0.184463 0.982839 324.592 -55.1406)" fill="black"/>
<rect width="0.675684" height="519.383" rx="0.337842" transform="matrix(0.983224 0.182402 -0.184463 0.982839 347.369 -50.915)" fill="black"/>
<rect width="0.675684" height="519.383" rx="0.337842" transform="matrix(0.983224 0.182402 -0.184463 0.982839 351.167 -50.2109)" fill="black"/>
<rect width="0.675684" height="519.383" rx="0.337842" transform="matrix(0.983224 0.182402 -0.184463 0.982839 373.944 -45.9854)" fill="black"/>
<rect width="0.675684" height="519.383" rx="0.337842" transform="matrix(0.983224 0.182402 -0.184463 0.982839 354.963 -49.5063)" fill="black"/>
<rect width="0.675684" height="519.383" rx="0.337842" transform="matrix(0.983224 0.182402 -0.184463 0.982839 377.74 -45.2808)" fill="black"/>
<rect width="0.675684" height="519.383" rx="0.337842" transform="matrix(0.983224 0.182402 -0.184463 0.982839 358.759 -48.8022)" fill="black"/>
<rect width="0.675684" height="519.383" rx="0.337842" transform="matrix(0.983224 0.182402 -0.184463 0.982839 381.536 -44.5762)" fill="black"/>
<rect width="0.675684" height="519.383" rx="0.337842" transform="matrix(0.983224 0.182402 -0.184463 0.982839 362.554 -48.0981)" fill="black"/>
<rect width="0.675684" height="519.383" rx="0.337842" transform="matrix(0.983224 0.182402 -0.184463 0.982839 385.333 -43.8726)" fill="black"/>
<rect width="0.675684" height="519.383" rx="0.337842" transform="matrix(0.983224 0.182402 -0.184463 0.982839 366.35 -47.3936)" fill="black"/>
<rect width="0.675684" height="519.383" rx="0.337842" transform="matrix(0.983224 0.182402 -0.184463 0.982839 389.13 -43.168)" fill="black"/>
<rect width="0.675684" height="519.383" rx="0.337842" transform="matrix(0.983224 0.182402 -0.184463 0.982839 370.148 -46.6895)" fill="black"/>
<rect width="0.675684" height="519.383" rx="0.337842" transform="matrix(0.983224 0.182402 -0.184463 0.982839 392.925 -42.4639)" fill="black"/>
<rect width="0.675684" height="519.383" rx="0.337842" transform="matrix(0.983224 0.182402 -0.184463 0.982839 396.721 -41.7593)" fill="black"/>
<rect width="0.675684" height="519.383" rx="0.337842" transform="matrix(0.983224 0.182402 -0.184463 0.982839 419.498 -37.5337)" fill="black"/>
<rect width="0.675684" height="519.383" rx="0.337842" transform="matrix(0.983224 0.182402 -0.184463 0.982839 400.517 -41.0552)" fill="black"/>
<rect width="0.675684" height="519.383" rx="0.337842" transform="matrix(0.983224 0.182402 -0.184463 0.982839 423.296 -36.8296)" fill="black"/>
<rect width="0.675684" height="519.383" rx="0.337842" transform="matrix(0.983224 0.182402 -0.184463 0.982839 404.315 -40.3511)" fill="black"/>
<rect width="0.675684" height="519.383" rx="0.337842" transform="matrix(0.983224 0.182402 -0.184463 0.982839 427.092 -36.1255)" fill="black"/>
<rect width="0.675684" height="519.383" rx="0.337842" transform="matrix(0.983224 0.182402 -0.184463 0.982839 408.11 -39.647)" fill="black"/>
<rect width="0.675684" height="519.383" rx="0.337842" transform="matrix(0.983224 0.182402 -0.184463 0.982839 430.888 -35.4209)" fill="black"/>
<rect width="0.675684" height="519.383" rx="0.337842" transform="matrix(0.983224 0.182402 -0.184463 0.982839 411.906 -38.9429)" fill="black"/>
<rect width="0.675684" height="519.383" rx="0.337842" transform="matrix(0.983224 0.182402 -0.184463 0.982839 434.684 -34.7168)" fill="black"/>
<rect width="0.675684" height="519.383" rx="0.337842" transform="matrix(0.983224 0.182402 -0.184463 0.982839 415.702 -38.2383)" fill="black"/>
<rect width="0.675684" height="519.383" rx="0.337842" transform="matrix(0.983224 0.182402 -0.184463 0.982839 438.481 -34.0127)" fill="black"/>
<rect width="0.675684" height="519.383" rx="0.337842" transform="matrix(0.983224 0.182402 -0.184463 0.982839 442.277 -33.3086)" fill="black"/>
<rect width="0.675684" height="519.383" rx="0.337842" transform="matrix(0.983224 0.182402 -0.184463 0.982839 465.054 -29.0825)" fill="black"/>
<rect width="0.675684" height="519.383" rx="0.337842" transform="matrix(0.983224 0.182402 -0.184463 0.982839 446.073 -32.604)" fill="black"/>
<rect width="0.675684" height="519.383" rx="0.337842" transform="matrix(0.983224 0.182402 -0.184463 0.982839 468.85 -28.3784)" fill="black"/>
<rect width="0.675684" height="519.383" rx="0.337842" transform="matrix(0.983224 0.182402 -0.184463 0.982839 449.869 -31.8999)" fill="black"/>
<rect width="0.675684" height="519.383" rx="0.337842" transform="matrix(0.983224 0.182402 -0.184463 0.982839 472.648 -27.6743)" fill="black"/>
<rect width="0.675684" height="519.383" rx="0.337842" transform="matrix(0.983224 0.182402 -0.184463 0.982839 453.665 -31.1953)" fill="black"/>
<rect width="0.675684" height="519.383" rx="0.337842" transform="matrix(0.983224 0.182402 -0.184463 0.982839 476.444 -26.9702)" fill="black"/>
<rect width="0.675684" height="519.383" rx="0.337842" transform="matrix(0.983224 0.182402 -0.184463 0.982839 457.462 -30.4912)" fill="black"/>
<rect width="0.675684" height="519.383" rx="0.337842" transform="matrix(0.983224 0.182402 -0.184463 0.982839 480.24 -26.2656)" fill="black"/>
<rect width="0.675684" height="519.383" rx="0.337842" transform="matrix(0.983224 0.182402 -0.184463 0.982839 461.258 -29.7871)" fill="black"/>
<rect width="0.675684" height="519.383" rx="0.337842" transform="matrix(0.983224 0.182402 -0.184463 0.982839 484.036 -25.5615)" fill="black"/>
<rect width="0.675684" height="519.383" rx="0.337842" transform="matrix(0.983224 0.182402 -0.184463 0.982839 487.831 -24.8569)" fill="black"/>
<rect width="0.675684" height="519.383" rx="0.337842" transform="matrix(0.983224 0.182402 -0.184463 0.982839 510.61 -20.6318)" fill="black"/>
<rect width="0.675684" height="519.383" rx="0.337842" transform="matrix(0.983224 0.182402 -0.184463 0.982839 491.629 -24.1528)" fill="black"/>
<rect width="0.675684" height="519.383" rx="0.337842" transform="matrix(0.983224 0.182402 -0.184463 0.982839 514.406 -19.9272)" fill="black"/>
<rect width="0.675684" height="519.383" rx="0.337842" transform="matrix(0.983224 0.182402 -0.184463 0.982839 495.425 -23.4487)" fill="black"/>
<rect width="0.675684" height="519.383" rx="0.337842" transform="matrix(0.983224 0.182402 -0.184463 0.982839 518.202 -19.2231)" fill="black"/>
<rect width="0.675684" height="519.383" rx="0.337842" transform="matrix(0.983224 0.182402 -0.184463 0.982839 499.221 -22.7441)" fill="black"/>
<rect width="0.675684" height="519.383" rx="0.337842" transform="matrix(0.983224 0.182402 -0.184463 0.982839 521.998 -18.5186)" fill="black"/>
<rect width="0.675684" height="519.383" rx="0.337842" transform="matrix(0.983224 0.182402 -0.184463 0.982839 503.017 -22.04)" fill="black"/>
<rect width="0.675684" height="519.383" rx="0.337842" transform="matrix(0.983224 0.182402 -0.184463 0.982839 525.796 -17.8145)" fill="black"/>
<rect width="0.675684" height="519.383" rx="0.337842" transform="matrix(0.983224 0.182402 -0.184463 0.982839 506.812 -21.3359)" fill="black"/>
<rect width="0.675684" height="519.383" rx="0.337842" transform="matrix(0.983224 0.182402 -0.184463 0.982839 529.592 -17.1104)" fill="black"/>
<rect width="0.675684" height="519.383" rx="0.337842" transform="matrix(0.983224 0.182402 -0.184463 0.982839 533.388 -16.4062)" fill="black"/>
<rect width="0.675684" height="519.383" rx="0.337842" transform="matrix(0.983224 0.182402 -0.184463 0.982839 556.165 -12.1802)" fill="black"/>
<rect width="0.675684" height="519.383" rx="0.337842" transform="matrix(0.983224 0.182402 -0.184463 0.982839 537.184 -15.7017)" fill="black"/>
<rect width="0.675684" height="519.383" rx="0.337842" transform="matrix(0.983224 0.182402 -0.184463 0.982839 559.96 -11.4761)" fill="black"/>
<rect width="0.675684" height="519.383" rx="0.337842" transform="matrix(0.983224 0.182402 -0.184463 0.982839 540.979 -14.9971)" fill="black"/>
<rect width="0.675684" height="519.383" rx="0.337842" transform="matrix(0.983224 0.182402 -0.184463 0.982839 563.759 -10.7715)" fill="black"/>
<rect width="0.675684" height="519.383" rx="0.337842" transform="matrix(0.983224 0.182402 -0.184463 0.982839 544.777 -14.2935)" fill="black"/>
<rect width="0.675684" height="519.383" rx="0.337842" transform="matrix(0.983224 0.182402 -0.184463 0.982839 567.554 -10.0674)" fill="black"/>
<rect width="0.675684" height="519.383" rx="0.337842" transform="matrix(0.983224 0.182402 -0.184463 0.982839 548.573 -13.5889)" fill="black"/>
<rect width="0.675684" height="519.383" rx="0.337842" transform="matrix(0.983224 0.182402 -0.184463 0.982839 571.35 -9.36328)" fill="black"/>
<rect width="0.675684" height="519.383" rx="0.337842" transform="matrix(0.983224 0.182402 -0.184463 0.982839 552.369 -12.8848)" fill="black"/>
<rect width="0.675684" height="519.383" rx="0.337842" transform="matrix(0.983224 0.182402 -0.184463 0.982839 575.146 -8.65918)" fill="black"/>
<rect width="0.675684" height="519.383" rx="0.337842" transform="matrix(0.983224 0.182402 -0.184463 0.982839 578.944 -7.95508)" fill="black"/>
<rect width="0.675684" height="519.383" rx="0.337842" transform="matrix(0.983224 0.182402 -0.184463 0.982839 601.721 -3.72949)" fill="black"/>
<rect width="0.675684" height="519.383" rx="0.337842" transform="matrix(0.983224 0.182402 -0.184463 0.982839 582.74 -7.25049)" fill="black"/>
<rect width="0.675684" height="519.383" rx="0.337842" transform="matrix(0.983224 0.182402 -0.184463 0.982839 605.517 -3.0249)" fill="black"/>
<rect width="0.675684" height="519.383" rx="0.337842" transform="matrix(0.983224 0.182402 -0.184463 0.982839 586.535 -6.54639)" fill="black"/>
<rect width="0.675684" height="519.383" rx="0.337842" transform="matrix(0.983224 0.182402 -0.184463 0.982839 609.312 -2.3208)" fill="black"/>
<rect width="0.675684" height="519.383" rx="0.337842" transform="matrix(0.983224 0.182402 -0.184463 0.982839 590.331 -5.8418)" fill="black"/>
<rect width="0.675684" height="519.383" rx="0.337842" transform="matrix(0.983224 0.182402 -0.184463 0.982839 613.11 -1.6167)" fill="black"/>
<rect width="0.675684" height="519.383" rx="0.337842" transform="matrix(0.983224 0.182402 -0.184463 0.982839 594.127 -5.1377)" fill="black"/>
<rect width="0.675684" height="519.383" rx="0.337842" transform="matrix(0.983224 0.182402 -0.184463 0.982839 616.906 -0.912598)" fill="black"/>
<rect width="0.675684" height="519.383" rx="0.337842" transform="matrix(0.983224 0.182402 -0.184463 0.982839 597.925 -4.43359)" fill="black"/>
<rect width="0.675684" height="519.383" rx="0.337842" transform="matrix(0.983224 0.182402 -0.184463 0.982839 620.702 -0.20752)" fill="black"/>
<rect width="0.675684" height="519.383" rx="0.337842" transform="matrix(0.983224 0.182402 -0.184463 0.982839 624.498 0.496582)" fill="black"/>
<rect width="0.675684" height="519.383" rx="0.337842" transform="matrix(0.983224 0.182402 -0.184463 0.982839 647.275 4.72217)" fill="black"/>
<rect width="0.675684" height="519.383" rx="0.337842" transform="matrix(0.983224 0.182402 -0.184463 0.982839 628.294 1.20068)" fill="black"/>
<rect width="0.675684" height="519.383" rx="0.337842" transform="matrix(0.983224 0.182402 -0.184463 0.982839 651.073 5.42627)" fill="black"/>
<rect width="0.675684" height="519.383" rx="0.337842" transform="matrix(0.983224 0.182402 -0.184463 0.982839 632.092 1.90479)" fill="black"/>
<rect width="0.675684" height="519.383" rx="0.337842" transform="matrix(0.983224 0.182402 -0.184463 0.982839 654.869 6.13037)" fill="black"/>
<rect width="0.675684" height="519.383" rx="0.337842" transform="matrix(0.983224 0.182402 -0.184463 0.982839 635.887 2.60889)" fill="black"/>
<rect width="0.675684" height="519.383" rx="0.337842" transform="matrix(0.983224 0.182402 -0.184463 0.982839 658.664 6.83447)" fill="black"/>
<rect width="0.675684" height="519.383" rx="0.337842" transform="matrix(0.983224 0.182402 -0.184463 0.982839 639.683 3.31348)" fill="black"/>
<rect width="0.675684" height="519.383" rx="0.337842" transform="matrix(0.983224 0.182402 -0.184463 0.982839 662.461 7.53906)" fill="black"/>
<rect width="0.675684" height="519.383" rx="0.337842" transform="matrix(0.983224 0.182402 -0.184463 0.982839 643.479 4.01758)" fill="black"/>
<rect width="0.675684" height="519.383" rx="0.337842" transform="matrix(0.983224 0.182402 -0.184463 0.982839 666.258 8.24316)" fill="black"/>
<rect width="0.675684" height="519.383" rx="0.337842" transform="matrix(0.983224 0.182402 -0.184463 0.982839 532.588 386.163)" fill="black"/>
<rect width="0.675684" height="519.383" rx="0.337842" transform="matrix(0.983224 0.182402 -0.184463 0.982839 555.365 390.389)" fill="black"/>
<rect width="0.675684" height="519.383" rx="0.337842" transform="matrix(0.983224 0.182402 -0.184463 0.982839 536.384 386.867)" fill="black"/>
<rect width="0.675684" height="519.383" rx="0.337842" transform="matrix(0.983224 0.182402 -0.184463 0.982839 559.161 391.093)" fill="black"/>
<rect width="0.675684" height="519.383" rx="0.337842" transform="matrix(0.983224 0.182402 -0.184463 0.982839 540.18 387.572)" fill="black"/>
<rect width="0.675684" height="519.383" rx="0.337842" transform="matrix(0.983224 0.182402 -0.184463 0.982839 562.959 391.797)" fill="black"/>
<rect width="0.675684" height="519.383" rx="0.337842" transform="matrix(0.983224 0.182402 -0.184463 0.982839 543.978 388.276)" fill="black"/>
<rect width="0.675684" height="519.383" rx="0.337842" transform="matrix(0.983224 0.182402 -0.184463 0.982839 566.755 392.501)" fill="black"/>
<rect width="0.675684" height="519.383" rx="0.337842" transform="matrix(0.983224 0.182402 -0.184463 0.982839 547.774 388.98)" fill="black"/>
<rect width="0.675684" height="519.383" rx="0.337842" transform="matrix(0.983224 0.182402 -0.184463 0.982839 570.551 393.206)" fill="black"/>
<rect width="0.675684" height="519.383" rx="0.337842" transform="matrix(0.983224 0.182402 -0.184463 0.982839 551.57 389.684)" fill="black"/>
<rect width="0.675684" height="519.383" rx="0.337842" transform="matrix(0.983224 0.182402 -0.184463 0.982839 574.347 393.91)" fill="black"/>
<rect width="0.675684" height="519.383" rx="0.337842" transform="matrix(0.983224 0.182402 -0.184463 0.982839 578.145 394.614)" fill="black"/>
<rect width="0.675684" height="519.383" rx="0.337842" transform="matrix(0.983224 0.182402 -0.184463 0.982839 600.922 398.839)" fill="black"/>
<rect width="0.675684" height="519.383" rx="0.337842" transform="matrix(0.983224 0.182402 -0.184463 0.982839 581.94 395.318)" fill="black"/>
<rect width="0.675684" height="519.383" rx="0.337842" transform="matrix(0.983224 0.182402 -0.184463 0.982839 604.718 399.544)" fill="black"/>
<rect width="0.675684" height="519.383" rx="0.337842" transform="matrix(0.983224 0.182402 -0.184463 0.982839 585.736 396.022)" fill="black"/>
<rect width="0.675684" height="519.383" rx="0.337842" transform="matrix(0.983224 0.182402 -0.184463 0.982839 608.513 400.248)" fill="black"/>
<rect width="0.675684" height="519.383" rx="0.337842" transform="matrix(0.983224 0.182402 -0.184463 0.982839 589.532 396.727)" fill="black"/>
<rect width="0.675684" height="519.383" rx="0.337842" transform="matrix(0.983224 0.182402 -0.184463 0.982839 612.309 400.953)" fill="black"/>
<rect width="0.675684" height="519.383" rx="0.337842" transform="matrix(0.983224 0.182402 -0.184463 0.982839 593.328 397.431)" fill="black"/>
<rect width="0.675684" height="519.383" rx="0.337842" transform="matrix(0.983224 0.182402 -0.184463 0.982839 616.107 401.657)" fill="black"/>
<rect width="0.675684" height="519.383" rx="0.337842" transform="matrix(0.983224 0.182402 -0.184463 0.982839 597.126 398.135)" fill="black"/>
<rect width="0.675684" height="519.383" rx="0.337842" transform="matrix(0.983224 0.182402 -0.184463 0.982839 619.903 402.361)" fill="black"/>
<rect width="0.675684" height="519.383" rx="0.337842" transform="matrix(0.983224 0.182402 -0.184463 0.982839 623.699 403.065)" fill="black"/>
<rect width="0.675684" height="519.383" rx="0.337842" transform="matrix(0.983224 0.182402 -0.184463 0.982839 646.476 407.291)" fill="black"/>
<rect width="0.675684" height="519.383" rx="0.337842" transform="matrix(0.983224 0.182402 -0.184463 0.982839 627.495 403.77)" fill="black"/>
<rect width="0.675684" height="519.383" rx="0.337842" transform="matrix(0.983224 0.182402 -0.184463 0.982839 650.273 407.995)" fill="black"/>
<rect width="0.675684" height="519.383" rx="0.337842" transform="matrix(0.983224 0.182402 -0.184463 0.982839 631.292 404.474)" fill="black"/>
<rect width="0.675684" height="519.383" rx="0.337842" transform="matrix(0.983224 0.182402 -0.184463 0.982839 654.07 408.699)" fill="black"/>
<rect width="0.675684" height="519.383" rx="0.337842" transform="matrix(0.983224 0.182402 -0.184463 0.982839 635.088 405.178)" fill="black"/>
<rect width="0.675684" height="519.383" rx="0.337842" transform="matrix(0.983224 0.182402 -0.184463 0.982839 657.865 409.404)" fill="black"/>
<rect width="0.675684" height="519.383" rx="0.337842" transform="matrix(0.983224 0.182402 -0.184463 0.982839 638.884 405.882)" fill="black"/>
<rect width="0.675684" height="519.383" rx="0.337842" transform="matrix(0.983224 0.182402 -0.184463 0.982839 661.661 410.108)" fill="black"/>
<rect width="0.675684" height="519.383" rx="0.337842" transform="matrix(0.983224 0.182402 -0.184463 0.982839 642.68 406.587)" fill="black"/>
<rect width="0.675684" height="519.383" rx="0.337842" transform="matrix(0.983224 0.182402 -0.184463 0.982839 665.459 410.812)" fill="black"/>
<rect width="0.675684" height="519.383" rx="0.337842" transform="matrix(0.983224 0.182402 -0.184463 0.982839 669.255 411.517)" fill="black"/>
<rect width="0.675684" height="519.383" rx="0.337842" transform="matrix(0.983224 0.182402 -0.184463 0.982839 673.051 412.221)" fill="black"/>
<rect width="0.675684" height="519.383" rx="0.337842" transform="matrix(0.983224 0.182402 -0.184463 0.982839 676.847 412.925)" fill="black"/>
<rect width="0.675684" height="519.383" rx="0.337842" transform="matrix(0.983224 0.182402 -0.184463 0.982839 680.642 413.629)" fill="black"/>
<rect width="0.675684" height="519.383" rx="0.337842" transform="matrix(0.983224 0.182402 -0.184463 0.982839 684.44 414.333)" fill="black"/>
<rect width="0.675684" height="519.383" rx="0.337842" transform="matrix(0.983224 0.182402 -0.184463 0.982839 1.62085 412.409)" fill="black"/>
<rect width="0.675684" height="519.383" rx="0.337842" transform="matrix(0.983224 0.182402 -0.184463 0.982839 5.41858 413.113)" fill="black"/>
<rect width="0.675684" height="519.383" rx="0.337842" transform="matrix(0.983224 0.182402 -0.184463 0.982839 9.21448 413.817)" fill="black"/>
<rect width="0.675684" height="519.383" rx="0.337842" transform="matrix(0.983224 0.182402 -0.184463 0.982839 31.9916 418.043)" fill="black"/>
<rect width="0.675684" height="519.383" rx="0.337842" transform="matrix(0.983224 0.182402 -0.184463 0.982839 13.0104 414.521)" fill="black"/>
<rect width="0.675684" height="519.383" rx="0.337842" transform="matrix(0.983224 0.182402 -0.184463 0.982839 35.7875 418.748)" fill="black"/>
<rect width="0.675684" height="519.383" rx="0.337842" transform="matrix(0.983224 0.182402 -0.184463 0.982839 16.8063 415.226)" fill="black"/>
<rect width="0.675684" height="519.383" rx="0.337842" transform="matrix(0.983224 0.182402 -0.184463 0.982839 39.5852 419.451)" fill="black"/>
<rect width="0.675684" height="519.383" rx="0.337842" transform="matrix(0.983224 0.182402 -0.184463 0.982839 20.6039 415.93)" fill="black"/>
<rect width="0.675684" height="519.383" rx="0.337842" transform="matrix(0.983224 0.182402 -0.184463 0.982839 43.3811 420.156)" fill="black"/>
<rect width="0.675684" height="519.383" rx="0.337842" transform="matrix(0.983224 0.182402 -0.184463 0.982839 24.3998 416.634)" fill="black"/>
<rect width="0.675684" height="519.383" rx="0.337842" transform="matrix(0.983224 0.182402 -0.184463 0.982839 47.177 420.86)" fill="black"/>
<rect width="0.675684" height="519.383" rx="0.337842" transform="matrix(0.983224 0.182402 -0.184463 0.982839 28.1957 417.339)" fill="black"/>
<rect width="0.675684" height="519.383" rx="0.337842" transform="matrix(0.983224 0.182402 -0.184463 0.982839 50.9728 421.564)" fill="black"/>
<rect width="0.675684" height="519.383" rx="0.337842" transform="matrix(0.983224 0.182402 -0.184463 0.982839 54.7706 422.269)" fill="black"/>
<rect width="0.675684" height="519.383" rx="0.337842" transform="matrix(0.983224 0.182402 -0.184463 0.982839 77.5477 426.495)" fill="black"/>
<rect width="0.675684" height="519.383" rx="0.337842" transform="matrix(0.983224 0.182402 -0.184463 0.982839 58.5664 422.973)" fill="black"/>
<rect width="0.675684" height="519.383" rx="0.337842" transform="matrix(0.983224 0.182402 -0.184463 0.982839 81.3436 427.199)" fill="black"/>
<rect width="0.675684" height="519.383" rx="0.337842" transform="matrix(0.983224 0.182402 -0.184463 0.982839 62.3621 423.677)" fill="black"/>
<rect width="0.675684" height="519.383" rx="0.337842" transform="matrix(0.983224 0.182402 -0.184463 0.982839 85.1395 427.903)" fill="black"/>
<rect width="0.675684" height="519.383" rx="0.337842" transform="matrix(0.983224 0.182402 -0.184463 0.982839 66.1582 424.381)" fill="black"/>
<rect width="0.675684" height="519.383" rx="0.337842" transform="matrix(0.983224 0.182402 -0.184463 0.982839 88.9353 428.607)" fill="black"/>
<rect width="0.675684" height="519.383" rx="0.337842" transform="matrix(0.983224 0.182402 -0.184463 0.982839 69.954 425.086)" fill="black"/>
<rect width="0.675684" height="519.383" rx="0.337842" transform="matrix(0.983224 0.182402 -0.184463 0.982839 92.733 429.311)" fill="black"/>
<rect width="0.675684" height="519.383" rx="0.337842" transform="matrix(0.983224 0.182402 -0.184463 0.982839 73.7518 425.79)" fill="black"/>
<rect width="0.675684" height="519.383" rx="0.337842" transform="matrix(0.983224 0.182402 -0.184463 0.982839 96.5292 430.016)" fill="black"/>
<rect width="0.675684" height="519.383" rx="0.337842" transform="matrix(0.983224 0.182402 -0.184463 0.982839 100.325 430.72)" fill="black"/>
<rect width="0.675684" height="519.383" rx="0.337842" transform="matrix(0.983224 0.182402 -0.184463 0.982839 123.102 434.945)" fill="black"/>
<rect width="0.675684" height="519.383" rx="0.337842" transform="matrix(0.983224 0.182402 -0.184463 0.982839 104.121 431.424)" fill="black"/>
<rect width="0.675684" height="519.383" rx="0.337842" transform="matrix(0.983224 0.182402 -0.184463 0.982839 126.9 435.649)" fill="black"/>
<rect width="0.675684" height="519.383" rx="0.337842" transform="matrix(0.983224 0.182402 -0.184463 0.982839 107.918 432.128)" fill="black"/>
<rect width="0.675684" height="519.383" rx="0.337842" transform="matrix(0.983224 0.182402 -0.184463 0.982839 130.696 436.354)" fill="black"/>
<rect width="0.675684" height="519.383" rx="0.337842" transform="matrix(0.983224 0.182402 -0.184463 0.982839 111.714 432.833)" fill="black"/>
<rect width="0.675684" height="519.383" rx="0.337842" transform="matrix(0.983224 0.182402 -0.184463 0.982839 134.491 437.058)" fill="black"/>
<rect width="0.675684" height="519.383" rx="0.337842" transform="matrix(0.983224 0.182402 -0.184463 0.982839 115.51 433.537)" fill="black"/>
<rect width="0.675684" height="519.383" rx="0.337842" transform="matrix(0.983224 0.182402 -0.184463 0.982839 138.287 437.762)" fill="black"/>
<rect width="0.675684" height="519.383" rx="0.337842" transform="matrix(0.983224 0.182402 -0.184463 0.982839 119.306 434.241)" fill="black"/>
<rect width="0.675684" height="519.383" rx="0.337842" transform="matrix(0.983224 0.182402 -0.184463 0.982839 142.083 438.467)" fill="black"/>
<rect width="0.675684" height="519.383" rx="0.337842" transform="matrix(0.983224 0.182402 -0.184463 0.982839 145.388 439.08)" fill="black"/>
<rect width="0.675684" height="519.383" rx="0.337842" transform="matrix(0.983224 0.182402 -0.184463 0.982839 168.165 443.305)" fill="black"/>
<rect width="0.675684" height="519.383" rx="0.337842" transform="matrix(0.983224 0.182402 -0.184463 0.982839 149.183 439.784)" fill="black"/>
<rect width="0.675684" height="519.383" rx="0.337842" transform="matrix(0.983224 0.182402 -0.184463 0.982839 171.962 444.009)" fill="black"/>
<rect width="0.675684" height="519.383" rx="0.337842" transform="matrix(0.983224 0.182402 -0.184463 0.982839 152.979 440.488)" fill="black"/>
<rect width="0.675684" height="519.383" rx="0.337842" transform="matrix(0.983224 0.182402 -0.184463 0.982839 175.758 444.713)" fill="black"/>
<rect width="0.675684" height="519.383" rx="0.337842" transform="matrix(0.983224 0.182402 -0.184463 0.982839 156.777 441.192)" fill="black"/>
<rect width="0.675684" height="519.383" rx="0.337842" transform="matrix(0.983224 0.182402 -0.184463 0.982839 179.554 445.417)" fill="black"/>
<rect width="0.675684" height="519.383" rx="0.337842" transform="matrix(0.983224 0.182402 -0.184463 0.982839 160.573 441.896)" fill="black"/>
<rect width="0.675684" height="519.383" rx="0.337842" transform="matrix(0.983224 0.182402 -0.184463 0.982839 183.35 446.122)" fill="black"/>
<rect width="0.675684" height="519.383" rx="0.337842" transform="matrix(0.983224 0.182402 -0.184463 0.982839 164.369 442.601)" fill="black"/>
<rect width="0.675684" height="519.383" rx="0.337842" transform="matrix(0.983224 0.182402 -0.184463 0.982839 187.146 446.826)" fill="black"/>
<rect width="0.675684" height="519.383" rx="0.337842" transform="matrix(0.983224 0.182402 -0.184463 0.982839 190.944 447.53)" fill="black"/>
<rect width="0.675684" height="519.383" rx="0.337842" transform="matrix(0.983224 0.182402 -0.184463 0.982839 213.721 451.756)" fill="black"/>
<rect width="0.675684" height="519.383" rx="0.337842" transform="matrix(0.983224 0.182402 -0.184463 0.982839 194.74 448.235)" fill="black"/>
<rect width="0.675684" height="519.383" rx="0.337842" transform="matrix(0.983224 0.182402 -0.184463 0.982839 217.517 452.46)" fill="black"/>
<rect width="0.675684" height="519.383" rx="0.337842" transform="matrix(0.983224 0.182402 -0.184463 0.982839 198.536 448.939)" fill="black"/>
<rect width="0.675684" height="519.383" rx="0.337842" transform="matrix(0.983224 0.182402 -0.184463 0.982839 221.313 453.165)" fill="black"/>
<rect width="0.675684" height="519.383" rx="0.337842" transform="matrix(0.983224 0.182402 -0.184463 0.982839 202.331 449.643)" fill="black"/>
<rect width="0.675684" height="519.383" rx="0.337842" transform="matrix(0.983224 0.182402 -0.184463 0.982839 225.11 453.869)" fill="black"/>
<rect width="0.675684" height="519.383" rx="0.337842" transform="matrix(0.983224 0.182402 -0.184463 0.982839 206.127 450.348)" fill="black"/>
<rect width="0.675684" height="519.383" rx="0.337842" transform="matrix(0.983224 0.182402 -0.184463 0.982839 228.906 454.574)" fill="black"/>
<rect width="0.675684" height="519.383" rx="0.337842" transform="matrix(0.983224 0.182402 -0.184463 0.982839 209.925 451.052)" fill="black"/>
<rect width="0.675684" height="519.383" rx="0.337842" transform="matrix(0.983224 0.182402 -0.184463 0.982839 232.702 455.277)" fill="black"/>
<rect width="0.675684" height="519.383" rx="0.337842" transform="matrix(0.983224 0.182402 -0.184463 0.982839 236.498 455.982)" fill="black"/>
<rect width="0.675684" height="519.383" rx="0.337842" transform="matrix(0.983224 0.182402 -0.184463 0.982839 259.275 460.208)" fill="black"/>
<rect width="0.675684" height="519.383" rx="0.337842" transform="matrix(0.983224 0.182402 -0.184463 0.982839 240.294 456.686)" fill="black"/>
<rect width="0.675684" height="519.383" rx="0.337842" transform="matrix(0.983224 0.182402 -0.184463 0.982839 263.073 460.912)" fill="black"/>
<rect width="0.675684" height="519.383" rx="0.337842" transform="matrix(0.983224 0.182402 -0.184463 0.982839 244.092 457.39)" fill="black"/>
<rect width="0.675684" height="519.383" rx="0.337842" transform="matrix(0.983224 0.182402 -0.184463 0.982839 266.869 461.616)" fill="black"/>
<rect width="0.675684" height="519.383" rx="0.337842" transform="matrix(0.983224 0.182402 -0.184463 0.982839 247.887 458.095)" fill="black"/>
<rect width="0.675684" height="519.383" rx="0.337842" transform="matrix(0.983224 0.182402 -0.184463 0.982839 270.665 462.32)" fill="black"/>
<rect width="0.675684" height="519.383" rx="0.337842" transform="matrix(0.983224 0.182402 -0.184463 0.982839 251.683 458.798)" fill="black"/>
<rect width="0.675684" height="519.383" rx="0.337842" transform="matrix(0.983224 0.182402 -0.184463 0.982839 274.461 463.024)" fill="black"/>
<rect width="0.675684" height="519.383" rx="0.337842" transform="matrix(0.983224 0.182402 -0.184463 0.982839 255.479 459.503)" fill="black"/>
<rect width="0.675684" height="519.383" rx="0.337842" transform="matrix(0.983224 0.182402 -0.184463 0.982839 278.258 463.729)" fill="black"/>
<rect width="0.675684" height="519.383" rx="0.337842" transform="matrix(0.983224 0.182402 -0.184463 0.982839 282.054 464.433)" fill="black"/>
<rect width="0.675684" height="519.383" rx="0.337842" transform="matrix(0.983224 0.182402 -0.184463 0.982839 304.831 468.659)" fill="black"/>
<rect width="0.675684" height="519.383" rx="0.337842" transform="matrix(0.983224 0.182402 -0.184463 0.982839 285.85 465.137)" fill="black"/>
<rect width="0.675684" height="519.383" rx="0.337842" transform="matrix(0.983224 0.182402 -0.184463 0.982839 308.627 469.363)" fill="black"/>
<rect width="0.675684" height="519.383" rx="0.337842" transform="matrix(0.983224 0.182402 -0.184463 0.982839 289.646 465.842)" fill="black"/>
<rect width="0.675684" height="519.383" rx="0.337842" transform="matrix(0.983224 0.182402 -0.184463 0.982839 312.425 470.067)" fill="black"/>
<rect width="0.675684" height="519.383" rx="0.337842" transform="matrix(0.983224 0.182402 -0.184463 0.982839 293.442 466.546)" fill="black"/>
<rect width="0.675684" height="519.383" rx="0.337842" transform="matrix(0.983224 0.182402 -0.184463 0.982839 316.221 470.771)" fill="black"/>
<rect width="0.675684" height="519.383" rx="0.337842" transform="matrix(0.983224 0.182402 -0.184463 0.982839 297.239 467.25)" fill="black"/>
<rect width="0.675684" height="519.383" rx="0.337842" transform="matrix(0.983224 0.182402 -0.184463 0.982839 320.017 471.476)" fill="black"/>
<rect width="0.675684" height="519.383" rx="0.337842" transform="matrix(0.983224 0.182402 -0.184463 0.982839 301.035 467.955)" fill="black"/>
<rect width="0.675684" height="519.383" rx="0.337842" transform="matrix(0.983224 0.182402 -0.184463 0.982839 323.812 472.18)" fill="black"/>
<rect width="0.675684" height="519.383" rx="0.337842" transform="matrix(0.983224 0.182402 -0.184463 0.982839 327.608 472.884)" fill="black"/>
<rect width="0.675684" height="519.383" rx="0.337842" transform="matrix(0.983224 0.182402 -0.184463 0.982839 350.387 477.109)" fill="black"/>
<rect width="0.675684" height="519.383" rx="0.337842" transform="matrix(0.983224 0.182402 -0.184463 0.982839 331.406 473.588)" fill="black"/>
<rect width="0.675684" height="519.383" rx="0.337842" transform="matrix(0.983224 0.182402 -0.184463 0.982839 354.183 477.814)" fill="black"/>
<rect width="0.675684" height="519.383" rx="0.337842" transform="matrix(0.983224 0.182402 -0.184463 0.982839 335.202 474.293)" fill="black"/>
<rect width="0.675684" height="519.383" rx="0.337842" transform="matrix(0.983224 0.182402 -0.184463 0.982839 357.979 478.518)" fill="black"/>
<rect width="0.675684" height="519.383" rx="0.337842" transform="matrix(0.983224 0.182402 -0.184463 0.982839 338.998 474.997)" fill="black"/>
<rect width="0.675684" height="519.383" rx="0.337842" transform="matrix(0.983224 0.182402 -0.184463 0.982839 361.775 479.223)" fill="black"/>
<rect width="0.675684" height="519.383" rx="0.337842" transform="matrix(0.983224 0.182402 -0.184463 0.982839 342.794 475.701)" fill="black"/>
<rect width="0.675684" height="519.383" rx="0.337842" transform="matrix(0.983224 0.182402 -0.184463 0.982839 365.572 479.926)" fill="black"/>
<rect width="0.675684" height="519.383" rx="0.337842" transform="matrix(0.983224 0.182402 -0.184463 0.982839 346.589 476.406)" fill="black"/>
<rect width="0.675684" height="519.383" rx="0.337842" transform="matrix(0.983224 0.182402 -0.184463 0.982839 369.369 480.631)" fill="black"/>
<rect width="0.675684" height="519.383" rx="0.337842" transform="matrix(0.983224 0.182402 -0.184463 0.982839 373.165 481.335)" fill="black"/>
<rect width="0.675684" height="519.383" rx="0.337842" transform="matrix(0.983224 0.182402 -0.184463 0.982839 395.942 485.561)" fill="black"/>
<rect width="0.675684" height="519.383" rx="0.337842" transform="matrix(0.983224 0.182402 -0.184463 0.982839 376.96 482.04)" fill="black"/>
<rect width="0.675684" height="519.383" rx="0.337842" transform="matrix(0.983224 0.182402 -0.184463 0.982839 399.737 486.266)" fill="black"/>
<rect width="0.675684" height="519.383" rx="0.337842" transform="matrix(0.983224 0.182402 -0.184463 0.982839 380.756 482.744)" fill="black"/>
<rect width="0.675684" height="519.383" rx="0.337842" transform="matrix(0.983224 0.182402 -0.184463 0.982839 403.535 486.969)" fill="black"/>
<rect width="0.675684" height="519.383" rx="0.337842" transform="matrix(0.983224 0.182402 -0.184463 0.982839 384.554 483.448)" fill="black"/>
<rect width="0.675684" height="519.383" rx="0.337842" transform="matrix(0.983224 0.182402 -0.184463 0.982839 407.331 487.674)" fill="black"/>
<rect width="0.675684" height="519.383" rx="0.337842" transform="matrix(0.983224 0.182402 -0.184463 0.982839 388.35 484.152)" fill="black"/>
<rect width="0.675684" height="519.383" rx="0.337842" transform="matrix(0.983224 0.182402 -0.184463 0.982839 411.127 488.378)" fill="black"/>
<rect width="0.675684" height="519.383" rx="0.337842" transform="matrix(0.983224 0.182402 -0.184463 0.982839 392.146 484.856)" fill="black"/>
<rect width="0.675684" height="519.383" rx="0.337842" transform="matrix(0.983224 0.182402 -0.184463 0.982839 414.923 489.083)" fill="black"/>
<rect width="0.675684" height="519.383" rx="0.337842" transform="matrix(0.983224 0.182402 -0.184463 0.982839 418.721 489.786)" fill="black"/>
<rect width="0.675684" height="519.383" rx="0.337842" transform="matrix(0.983224 0.182402 -0.184463 0.982839 441.498 494.012)" fill="black"/>
<rect width="0.675684" height="519.383" rx="0.337842" transform="matrix(0.983224 0.182402 -0.184463 0.982839 422.516 490.491)" fill="black"/>
<rect width="0.675684" height="519.383" rx="0.337842" transform="matrix(0.983224 0.182402 -0.184463 0.982839 445.294 494.716)" fill="black"/>
<rect width="0.675684" height="519.383" rx="0.337842" transform="matrix(0.983224 0.182402 -0.184463 0.982839 426.312 491.195)" fill="black"/>
<rect width="0.675684" height="519.383" rx="0.337842" transform="matrix(0.983224 0.182402 -0.184463 0.982839 449.089 495.42)" fill="black"/>
<rect width="0.675684" height="519.383" rx="0.337842" transform="matrix(0.983224 0.182402 -0.184463 0.982839 430.108 491.899)" fill="black"/>
<rect width="0.675684" height="519.383" rx="0.337842" transform="matrix(0.983224 0.182402 -0.184463 0.982839 452.887 496.125)" fill="black"/>
<rect width="0.675684" height="519.383" rx="0.337842" transform="matrix(0.983224 0.182402 -0.184463 0.982839 433.904 492.604)" fill="black"/>
<rect width="0.675684" height="519.383" rx="0.337842" transform="matrix(0.983224 0.182402 -0.184463 0.982839 456.683 496.829)" fill="black"/>
<rect width="0.675684" height="519.383" rx="0.337842" transform="matrix(0.983224 0.182402 -0.184463 0.982839 437.702 493.308)" fill="black"/>
<rect width="0.675684" height="519.383" rx="0.337842" transform="matrix(0.983224 0.182402 -0.184463 0.982839 460.479 497.533)" fill="black"/>
<rect width="0.675684" height="519.383" rx="0.337842" transform="matrix(0.983224 0.182402 -0.184463 0.982839 464.275 498.238)" fill="black"/>
<rect width="0.675684" height="519.383" rx="0.337842" transform="matrix(0.983224 0.182402 -0.184463 0.982839 487.052 502.463)" fill="black"/>
<rect width="0.675684" height="519.383" rx="0.337842" transform="matrix(0.983224 0.182402 -0.184463 0.982839 468.071 498.942)" fill="black"/>
<rect width="0.675684" height="519.383" rx="0.337842" transform="matrix(0.983224 0.182402 -0.184463 0.982839 490.85 503.167)" fill="black"/>
<rect width="0.675684" height="519.383" rx="0.337842" transform="matrix(0.983224 0.182402 -0.184463 0.982839 471.869 499.646)" fill="black"/>
<rect width="0.675684" height="519.383" rx="0.337842" transform="matrix(0.983224 0.182402 -0.184463 0.982839 494.646 503.872)" fill="black"/>
<rect width="0.675684" height="519.383" rx="0.337842" transform="matrix(0.983224 0.182402 -0.184463 0.982839 475.665 500.351)" fill="black"/>
<rect width="0.675684" height="519.383" rx="0.337842" transform="matrix(0.983224 0.182402 -0.184463 0.982839 498.441 504.576)" fill="black"/>
<rect width="0.675684" height="519.383" rx="0.337842" transform="matrix(0.983224 0.182402 -0.184463 0.982839 479.46 501.055)" fill="black"/>
<rect width="0.675684" height="519.383" rx="0.337842" transform="matrix(0.983224 0.182402 -0.184463 0.982839 502.237 505.28)" fill="black"/>
<rect width="0.675684" height="519.383" rx="0.337842" transform="matrix(0.983224 0.182402 -0.184463 0.982839 483.256 501.759)" fill="black"/>
<rect width="0.675684" height="519.383" rx="0.337842" transform="matrix(0.983224 0.182402 -0.184463 0.982839 506.035 505.984)" fill="black"/>
</g>
</svg>
