<svg width="446" height="318" viewBox="0 0 446 318" fill="none" xmlns="http://www.w3.org/2000/svg">
<mask id="mask0_299_2982" style="mask-type:alpha" maskUnits="userSpaceOnUse" x="0" y="0" width="446" height="321">
<rect y="0.587402" width="446" height="320" fill="white" fill-opacity="0.3"/>
</mask>
<g mask="url(#mask0_299_2982)">
<rect width="0.681569" height="593.607" transform="matrix(0.978235 0.2075 -0.161978 0.986794 0.76123 -133.062)" fill="black" fill-opacity="0.62"/>
<rect width="0.681569" height="593.607" transform="matrix(0.978235 0.2075 -0.161978 0.986794 4.57056 -132.254)" fill="black" fill-opacity="0.62"/>
<rect width="0.681569" height="593.607" transform="matrix(0.978235 0.2075 -0.161978 0.986794 8.37988 -131.446)" fill="black" fill-opacity="0.62"/>
<rect width="0.681569" height="593.607" transform="matrix(0.978235 0.2075 -0.161978 0.986794 12.1895 -130.638)" fill="black" fill-opacity="0.62"/>
<rect width="0.681569" height="593.607" transform="matrix(0.978235 0.2075 -0.161978 0.986794 15.5061 -129.935)" fill="black" fill-opacity="0.62"/>
<rect width="0.681569" height="593.607" transform="matrix(0.978235 0.2075 -0.161978 0.986794 38.3647 -125.086)" fill="black" fill-opacity="0.62"/>
<rect width="0.681569" height="593.607" transform="matrix(0.978235 0.2075 -0.161978 0.986794 19.3152 -129.127)" fill="black" fill-opacity="0.62"/>
<rect width="0.681569" height="593.607" transform="matrix(0.978235 0.2075 -0.161978 0.986794 42.176 -124.278)" fill="black" fill-opacity="0.62"/>
<rect width="0.681569" height="593.607" transform="matrix(0.978235 0.2075 -0.161978 0.986794 23.125 -128.318)" fill="black" fill-opacity="0.62"/>
<rect width="0.681569" height="593.607" transform="matrix(0.978235 0.2075 -0.161978 0.986794 45.9856 -123.47)" fill="black" fill-opacity="0.62"/>
<rect width="0.681569" height="593.607" transform="matrix(0.978235 0.2075 -0.161978 0.986794 26.9363 -127.511)" fill="black" fill-opacity="0.62"/>
<rect width="0.681569" height="593.607" transform="matrix(0.978235 0.2075 -0.161978 0.986794 49.7952 -122.662)" fill="black" fill-opacity="0.62"/>
<rect width="0.681569" height="593.607" transform="matrix(0.978235 0.2075 -0.161978 0.986794 30.7456 -126.702)" fill="black" fill-opacity="0.62"/>
<rect width="0.681569" height="593.607" transform="matrix(0.978235 0.2075 -0.161978 0.986794 53.6047 -121.854)" fill="black" fill-opacity="0.62"/>
<rect width="0.681569" height="593.607" transform="matrix(0.978235 0.2075 -0.161978 0.986794 34.5554 -125.894)" fill="black" fill-opacity="0.62"/>
<rect width="0.681569" height="593.607" transform="matrix(0.978235 0.2075 -0.161978 0.986794 57.4143 -121.045)" fill="black" fill-opacity="0.62"/>
<rect width="0.681569" height="593.607" transform="matrix(0.978235 0.2075 -0.161978 0.986794 61.2256 -120.237)" fill="black" fill-opacity="0.62"/>
<rect width="0.681569" height="593.607" transform="matrix(0.978235 0.2075 -0.161978 0.986794 84.0842 -115.388)" fill="black" fill-opacity="0.62"/>
<rect width="0.681569" height="593.607" transform="matrix(0.978235 0.2075 -0.161978 0.986794 65.0349 -119.429)" fill="black" fill-opacity="0.62"/>
<rect width="0.681569" height="593.607" transform="matrix(0.978235 0.2075 -0.161978 0.986794 87.8938 -114.58)" fill="black" fill-opacity="0.62"/>
<rect width="0.681569" height="593.607" transform="matrix(0.978235 0.2075 -0.161978 0.986794 68.8445 -118.621)" fill="black" fill-opacity="0.62"/>
<rect width="0.681569" height="593.607" transform="matrix(0.978235 0.2075 -0.161978 0.986794 91.7034 -113.771)" fill="black" fill-opacity="0.62"/>
<rect width="0.681569" height="593.607" transform="matrix(0.978235 0.2075 -0.161978 0.986794 72.6541 -117.812)" fill="black" fill-opacity="0.62"/>
<rect width="0.681569" height="593.607" transform="matrix(0.978235 0.2075 -0.161978 0.986794 95.5149 -112.964)" fill="black" fill-opacity="0.62"/>
<rect width="0.681569" height="593.607" transform="matrix(0.978235 0.2075 -0.161978 0.986794 76.4636 -117.004)" fill="black" fill-opacity="0.62"/>
<rect width="0.681569" height="593.607" transform="matrix(0.978235 0.2075 -0.161978 0.986794 99.3245 -112.156)" fill="black" fill-opacity="0.62"/>
<rect width="0.681569" height="593.607" transform="matrix(0.978235 0.2075 -0.161978 0.986794 80.2749 -116.197)" fill="black" fill-opacity="0.62"/>
<rect width="0.681569" height="593.607" transform="matrix(0.978235 0.2075 -0.161978 0.986794 103.134 -111.348)" fill="black" fill-opacity="0.62"/>
<rect width="0.681569" height="593.607" transform="matrix(0.978235 0.2075 -0.161978 0.986794 106.944 -110.54)" fill="black" fill-opacity="0.62"/>
<rect width="0.681569" height="593.607" transform="matrix(0.978235 0.2075 -0.161978 0.986794 129.802 -105.69)" fill="black" fill-opacity="0.62"/>
<rect width="0.681569" height="593.607" transform="matrix(0.978235 0.2075 -0.161978 0.986794 110.753 -109.731)" fill="black" fill-opacity="0.62"/>
<rect width="0.681569" height="593.607" transform="matrix(0.978235 0.2075 -0.161978 0.986794 133.614 -104.882)" fill="black" fill-opacity="0.62"/>
<rect width="0.681569" height="593.607" transform="matrix(0.978235 0.2075 -0.161978 0.986794 114.564 -108.923)" fill="black" fill-opacity="0.62"/>
<rect width="0.681569" height="593.607" transform="matrix(0.978235 0.2075 -0.161978 0.986794 137.423 -104.075)" fill="black" fill-opacity="0.62"/>
<rect width="0.681569" height="593.607" transform="matrix(0.978235 0.2075 -0.161978 0.986794 118.374 -108.115)" fill="black" fill-opacity="0.62"/>
<rect width="0.681569" height="593.607" transform="matrix(0.978235 0.2075 -0.161978 0.986794 141.233 -103.266)" fill="black" fill-opacity="0.62"/>
<rect width="0.681569" height="593.607" transform="matrix(0.978235 0.2075 -0.161978 0.986794 122.183 -107.307)" fill="black" fill-opacity="0.62"/>
<rect width="0.681569" height="593.607" transform="matrix(0.978235 0.2075 -0.161978 0.986794 145.042 -102.458)" fill="black" fill-opacity="0.62"/>
<rect width="0.681569" height="593.607" transform="matrix(0.978235 0.2075 -0.161978 0.986794 125.993 -106.499)" fill="black" fill-opacity="0.62"/>
<rect width="0.681569" height="593.607" transform="matrix(0.978235 0.2075 -0.161978 0.986794 148.854 -101.649)" fill="black" fill-opacity="0.62"/>
<rect width="0.681569" height="593.607" transform="matrix(0.978235 0.2075 -0.161978 0.986794 152.663 -100.841)" fill="black" fill-opacity="0.62"/>
<rect width="0.681569" height="593.607" transform="matrix(0.978235 0.2075 -0.161978 0.986794 175.522 -95.9927)" fill="black" fill-opacity="0.62"/>
<rect width="0.681569" height="593.607" transform="matrix(0.978235 0.2075 -0.161978 0.986794 156.473 -100.034)" fill="black" fill-opacity="0.62"/>
<rect width="0.681569" height="593.607" transform="matrix(0.978235 0.2075 -0.161978 0.986794 179.332 -95.1846)" fill="black" fill-opacity="0.62"/>
<rect width="0.681569" height="593.607" transform="matrix(0.978235 0.2075 -0.161978 0.986794 160.282 -99.2256)" fill="black" fill-opacity="0.62"/>
<rect width="0.681569" height="593.607" transform="matrix(0.978235 0.2075 -0.161978 0.986794 183.143 -94.3765)" fill="black" fill-opacity="0.62"/>
<rect width="0.681569" height="593.607" transform="matrix(0.978235 0.2075 -0.161978 0.986794 164.092 -98.4165)" fill="black" fill-opacity="0.62"/>
<rect width="0.681569" height="593.607" transform="matrix(0.978235 0.2075 -0.161978 0.986794 186.952 -93.5684)" fill="black" fill-opacity="0.62"/>
<rect width="0.681569" height="593.607" transform="matrix(0.978235 0.2075 -0.161978 0.986794 167.903 -97.6089)" fill="black" fill-opacity="0.62"/>
<rect width="0.681569" height="593.607" transform="matrix(0.978235 0.2075 -0.161978 0.986794 190.762 -92.7598)" fill="black" fill-opacity="0.62"/>
<rect width="0.681569" height="593.607" transform="matrix(0.978235 0.2075 -0.161978 0.986794 171.712 -96.8008)" fill="black" fill-opacity="0.62"/>
<rect width="0.681569" height="593.607" transform="matrix(0.978235 0.2075 -0.161978 0.986794 194.572 -91.9521)" fill="black" fill-opacity="0.62"/>
<rect width="0.681569" height="593.607" transform="matrix(0.978235 0.2075 -0.161978 0.986794 198.381 -91.1436)" fill="black" fill-opacity="0.62"/>
<rect width="0.681569" height="593.607" transform="matrix(0.978235 0.2075 -0.161978 0.986794 221.242 -86.2949)" fill="black" fill-opacity="0.62"/>
<rect width="0.681569" height="593.607" transform="matrix(0.978235 0.2075 -0.161978 0.986794 202.192 -90.3359)" fill="black" fill-opacity="0.62"/>
<rect width="0.681569" height="593.607" transform="matrix(0.978235 0.2075 -0.161978 0.986794 225.051 -85.4868)" fill="black" fill-opacity="0.62"/>
<rect width="0.681569" height="593.607" transform="matrix(0.978235 0.2075 -0.161978 0.986794 206.002 -89.5273)" fill="black" fill-opacity="0.62"/>
<rect width="0.681569" height="593.607" transform="matrix(0.978235 0.2075 -0.161978 0.986794 228.861 -84.6782)" fill="black" fill-opacity="0.62"/>
<rect width="0.681569" height="593.607" transform="matrix(0.978235 0.2075 -0.161978 0.986794 209.812 -88.7192)" fill="black" fill-opacity="0.62"/>
<rect width="0.681569" height="593.607" transform="matrix(0.978235 0.2075 -0.161978 0.986794 232.67 -83.8706)" fill="black" fill-opacity="0.62"/>
<rect width="0.681569" height="593.607" transform="matrix(0.978235 0.2075 -0.161978 0.986794 213.621 -87.9111)" fill="black" fill-opacity="0.62"/>
<rect width="0.681569" height="593.607" transform="matrix(0.978235 0.2075 -0.161978 0.986794 236.481 -83.0625)" fill="black" fill-opacity="0.62"/>
<rect width="0.681569" height="593.607" transform="matrix(0.978235 0.2075 -0.161978 0.986794 217.43 -87.103)" fill="black" fill-opacity="0.62"/>
<rect width="0.681569" height="593.607" transform="matrix(0.978235 0.2075 -0.161978 0.986794 240.291 -82.2544)" fill="black" fill-opacity="0.62"/>
<rect width="0.681569" height="593.607" transform="matrix(0.978235 0.2075 -0.161978 0.986794 244.101 -81.4458)" fill="black" fill-opacity="0.62"/>
<rect width="0.681569" height="593.607" transform="matrix(0.978235 0.2075 -0.161978 0.986794 266.959 -76.5967)" fill="black" fill-opacity="0.62"/>
<rect width="0.681569" height="593.607" transform="matrix(0.978235 0.2075 -0.161978 0.986794 247.91 -80.6377)" fill="black" fill-opacity="0.62"/>
<rect width="0.681569" height="593.607" transform="matrix(0.978235 0.2075 -0.161978 0.986794 270.769 -75.7886)" fill="black" fill-opacity="0.62"/>
<rect width="0.681569" height="593.607" transform="matrix(0.978235 0.2075 -0.161978 0.986794 251.72 -79.8296)" fill="black" fill-opacity="0.62"/>
<rect width="0.681569" height="593.607" transform="matrix(0.978235 0.2075 -0.161978 0.986794 274.581 -74.981)" fill="black" fill-opacity="0.62"/>
<rect width="0.681569" height="593.607" transform="matrix(0.978235 0.2075 -0.161978 0.986794 255.531 -79.022)" fill="black" fill-opacity="0.62"/>
<rect width="0.681569" height="593.607" transform="matrix(0.978235 0.2075 -0.161978 0.986794 278.39 -74.1729)" fill="black" fill-opacity="0.62"/>
<rect width="0.681569" height="593.607" transform="matrix(0.978235 0.2075 -0.161978 0.986794 259.341 -78.2134)" fill="black" fill-opacity="0.62"/>
<rect width="0.681569" height="593.607" transform="matrix(0.978235 0.2075 -0.161978 0.986794 282.2 -73.3647)" fill="black" fill-opacity="0.62"/>
<rect width="0.681569" height="593.607" transform="matrix(0.978235 0.2075 -0.161978 0.986794 263.15 -77.4053)" fill="black" fill-opacity="0.62"/>
<rect width="0.681569" height="593.607" transform="matrix(0.978235 0.2075 -0.161978 0.986794 286.009 -72.5562)" fill="black" fill-opacity="0.62"/>
<rect width="0.681569" height="593.607" transform="matrix(0.978235 0.2075 -0.161978 0.986794 289.82 -71.7485)" fill="black" fill-opacity="0.62"/>
<rect width="0.681569" height="593.607" transform="matrix(0.978235 0.2075 -0.161978 0.986794 312.679 -66.8994)" fill="black" fill-opacity="0.62"/>
<rect width="0.681569" height="593.607" transform="matrix(0.978235 0.2075 -0.161978 0.986794 293.63 -70.9404)" fill="black" fill-opacity="0.62"/>
<rect width="0.681569" height="593.607" transform="matrix(0.978235 0.2075 -0.161978 0.986794 316.489 -66.0913)" fill="black" fill-opacity="0.62"/>
<rect width="0.681569" height="593.607" transform="matrix(0.978235 0.2075 -0.161978 0.986794 297.439 -70.1323)" fill="black" fill-opacity="0.62"/>
<rect width="0.681569" height="593.607" transform="matrix(0.978235 0.2075 -0.161978 0.986794 320.298 -65.2832)" fill="black" fill-opacity="0.62"/>
<rect width="0.681569" height="593.607" transform="matrix(0.978235 0.2075 -0.161978 0.986794 301.249 -69.3237)" fill="black" fill-opacity="0.62"/>
<rect width="0.681569" height="593.607" transform="matrix(0.978235 0.2075 -0.161978 0.986794 324.11 -64.4746)" fill="black" fill-opacity="0.62"/>
<rect width="0.681569" height="593.607" transform="matrix(0.978235 0.2075 -0.161978 0.986794 305.058 -68.5156)" fill="black" fill-opacity="0.62"/>
<rect width="0.681569" height="593.607" transform="matrix(0.978235 0.2075 -0.161978 0.986794 327.92 -63.667)" fill="black" fill-opacity="0.62"/>
<rect width="0.681569" height="593.607" transform="matrix(0.978235 0.2075 -0.161978 0.986794 308.87 -67.7075)" fill="black" fill-opacity="0.62"/>
<rect width="0.681569" height="593.607" transform="matrix(0.978235 0.2075 -0.161978 0.986794 331.729 -62.8584)" fill="black" fill-opacity="0.62"/>
<rect width="0.681569" height="593.607" transform="matrix(0.978235 0.2075 -0.161978 0.986794 335.538 -62.0508)" fill="black" fill-opacity="0.62"/>
<rect width="0.681569" height="593.607" transform="matrix(0.978235 0.2075 -0.161978 0.986794 358.397 -57.2017)" fill="black" fill-opacity="0.62"/>
<rect width="0.681569" height="593.607" transform="matrix(0.978235 0.2075 -0.161978 0.986794 339.347 -61.2422)" fill="black" fill-opacity="0.62"/>
<rect width="0.681569" height="593.607" transform="matrix(0.978235 0.2075 -0.161978 0.986794 362.208 -56.3936)" fill="black" fill-opacity="0.62"/>
<rect width="0.681569" height="593.607" transform="matrix(0.978235 0.2075 -0.161978 0.986794 343.159 -60.4341)" fill="black" fill-opacity="0.62"/>
<rect width="0.681569" height="593.607" transform="matrix(0.978235 0.2075 -0.161978 0.986794 366.018 -55.585)" fill="black" fill-opacity="0.62"/>
<rect width="0.681569" height="593.607" transform="matrix(0.978235 0.2075 -0.161978 0.986794 346.969 -59.626)" fill="black" fill-opacity="0.62"/>
<rect width="0.681569" height="593.607" transform="matrix(0.978235 0.2075 -0.161978 0.986794 369.828 -54.7769)" fill="black" fill-opacity="0.62"/>
<rect width="0.681569" height="593.607" transform="matrix(0.978235 0.2075 -0.161978 0.986794 350.778 -58.8179)" fill="black" fill-opacity="0.62"/>
<rect width="0.681569" height="593.607" transform="matrix(0.978235 0.2075 -0.161978 0.986794 373.637 -53.9692)" fill="black" fill-opacity="0.62"/>
<rect width="0.681569" height="593.607" transform="matrix(0.978235 0.2075 -0.161978 0.986794 354.588 -58.0098)" fill="black" fill-opacity="0.62"/>
<rect width="0.681569" height="593.607" transform="matrix(0.978235 0.2075 -0.161978 0.986794 377.449 -53.1611)" fill="black" fill-opacity="0.62"/>
<rect width="0.681569" height="593.607" transform="matrix(0.978235 0.2075 -0.161978 0.986794 381.12 -51.5581)" fill="black" fill-opacity="0.62"/>
<rect width="0.681569" height="593.607" transform="matrix(0.978235 0.2075 -0.161978 0.986794 403.979 -46.7095)" fill="black" fill-opacity="0.62"/>
<rect width="0.681569" height="593.607" transform="matrix(0.978235 0.2075 -0.161978 0.986794 384.93 -50.75)" fill="black" fill-opacity="0.62"/>
<rect width="0.681569" height="593.607" transform="matrix(0.978235 0.2075 -0.161978 0.986794 407.788 -45.9009)" fill="black" fill-opacity="0.62"/>
<rect width="0.681569" height="593.607" transform="matrix(0.978235 0.2075 -0.161978 0.986794 388.739 -49.9419)" fill="black" fill-opacity="0.62"/>
<rect width="0.681569" height="593.607" transform="matrix(0.978235 0.2075 -0.161978 0.986794 411.6 -45.0933)" fill="black" fill-opacity="0.62"/>
<rect width="0.681569" height="593.607" transform="matrix(0.978235 0.2075 -0.161978 0.986794 392.55 -49.1338)" fill="black" fill-opacity="0.62"/>
<rect width="0.681569" height="593.607" transform="matrix(0.978235 0.2075 -0.161978 0.986794 415.409 -44.2847)" fill="black" fill-opacity="0.62"/>
<rect width="0.681569" height="593.607" transform="matrix(0.978235 0.2075 -0.161978 0.986794 396.36 -48.3257)" fill="black" fill-opacity="0.62"/>
<rect width="0.681569" height="593.607" transform="matrix(0.978235 0.2075 -0.161978 0.986794 419.219 -43.4766)" fill="black" fill-opacity="0.62"/>
<rect width="0.681569" height="593.607" transform="matrix(0.978235 0.2075 -0.161978 0.986794 400.169 -47.5176)" fill="black" fill-opacity="0.62"/>
<rect width="0.681569" height="593.607" transform="matrix(0.978235 0.2075 -0.161978 0.986794 423.028 -42.6689)" fill="black" fill-opacity="0.62"/>
<rect width="0.681569" height="593.607" transform="matrix(0.978235 0.2075 -0.161978 0.986794 426.84 -41.8604)" fill="black" fill-opacity="0.62"/>
<rect width="0.681569" height="593.607" transform="matrix(0.978235 0.2075 -0.161978 0.986794 449.698 -37.0117)" fill="black" fill-opacity="0.62"/>
<rect width="0.681569" height="593.607" transform="matrix(0.978235 0.2075 -0.161978 0.986794 430.649 -41.0527)" fill="black" fill-opacity="0.62"/>
<rect width="0.681569" height="593.607" transform="matrix(0.978235 0.2075 -0.161978 0.986794 453.508 -36.2036)" fill="black" fill-opacity="0.62"/>
<rect width="0.681569" height="593.607" transform="matrix(0.978235 0.2075 -0.161978 0.986794 434.459 -40.2441)" fill="black" fill-opacity="0.62"/>
<rect width="0.681569" height="593.607" transform="matrix(0.978235 0.2075 -0.161978 0.986794 457.318 -35.395)" fill="black" fill-opacity="0.62"/>
<rect width="0.681569" height="593.607" transform="matrix(0.978235 0.2075 -0.161978 0.986794 438.268 -39.436)" fill="black" fill-opacity="0.62"/>
<rect width="0.681569" height="593.607" transform="matrix(0.978235 0.2075 -0.161978 0.986794 461.127 -34.5874)" fill="black" fill-opacity="0.62"/>
<rect width="0.681569" height="593.607" transform="matrix(0.978235 0.2075 -0.161978 0.986794 442.078 -38.6279)" fill="black" fill-opacity="0.62"/>
<rect width="0.681569" height="593.607" transform="matrix(0.978235 0.2075 -0.161978 0.986794 464.938 -33.7788)" fill="black" fill-opacity="0.62"/>
<rect width="0.681569" height="593.607" transform="matrix(0.978235 0.2075 -0.161978 0.986794 445.889 -37.8198)" fill="black" fill-opacity="0.62"/>
<rect width="0.681569" height="593.607" transform="matrix(0.978235 0.2075 -0.161978 0.986794 468.748 -32.9712)" fill="black" fill-opacity="0.62"/>
<rect width="0.681569" height="593.607" transform="matrix(0.978235 0.2075 -0.161978 0.986794 472.557 -32.1626)" fill="black" fill-opacity="0.62"/>
<rect width="0.681569" height="593.607" transform="matrix(0.978235 0.2075 -0.161978 0.986794 495.416 -27.3135)" fill="black" fill-opacity="0.62"/>
<rect width="0.681569" height="593.607" transform="matrix(0.978235 0.2075 -0.161978 0.986794 476.367 -31.3545)" fill="black" fill-opacity="0.62"/>
<rect width="0.681569" height="593.607" transform="matrix(0.978235 0.2075 -0.161978 0.986794 499.228 -26.5059)" fill="black" fill-opacity="0.62"/>
<rect width="0.681569" height="593.607" transform="matrix(0.978235 0.2075 -0.161978 0.986794 480.178 -30.5464)" fill="black" fill-opacity="0.62"/>
<rect width="0.681569" height="593.607" transform="matrix(0.978235 0.2075 -0.161978 0.986794 503.037 -25.6978)" fill="black" fill-opacity="0.62"/>
<rect width="0.681569" height="593.607" transform="matrix(0.978235 0.2075 -0.161978 0.986794 483.988 -29.7383)" fill="black" fill-opacity="0.62"/>
<rect width="0.681569" height="593.607" transform="matrix(0.978235 0.2075 -0.161978 0.986794 506.847 -24.8892)" fill="black" fill-opacity="0.62"/>
<rect width="0.681569" height="593.607" transform="matrix(0.978235 0.2075 -0.161978 0.986794 487.797 -28.9302)" fill="black" fill-opacity="0.62"/>
<rect width="0.681569" height="593.607" transform="matrix(0.978235 0.2075 -0.161978 0.986794 510.656 -24.0811)" fill="black" fill-opacity="0.62"/>
<rect width="0.681569" height="593.607" transform="matrix(0.978235 0.2075 -0.161978 0.986794 491.607 -28.1216)" fill="black" fill-opacity="0.62"/>
<rect width="0.681569" height="593.607" transform="matrix(0.978235 0.2075 -0.161978 0.986794 514.468 -23.2729)" fill="black" fill-opacity="0.62"/>
<rect width="0.681569" height="593.607" transform="matrix(0.978235 0.2075 -0.161978 0.986794 518.277 -22.4648)" fill="black" fill-opacity="0.62"/>
<rect width="0.681569" height="593.607" transform="matrix(0.978235 0.2075 -0.161978 0.986794 541.136 -17.6162)" fill="black" fill-opacity="0.62"/>
<rect width="0.681569" height="593.607" transform="matrix(0.978235 0.2075 -0.161978 0.986794 522.087 -21.6567)" fill="black" fill-opacity="0.62"/>
<rect width="0.681569" height="593.607" transform="matrix(0.978235 0.2075 -0.161978 0.986794 525.896 -20.8486)" fill="black" fill-opacity="0.62"/>
<rect width="0.681569" height="593.607" transform="matrix(0.978235 0.2075 -0.161978 0.986794 529.706 -20.04)" fill="black" fill-opacity="0.62"/>
<rect width="0.681569" height="593.607" transform="matrix(0.978235 0.2075 -0.161978 0.986794 533.517 -19.2324)" fill="black" fill-opacity="0.62"/>
<rect width="0.681569" height="593.607" transform="matrix(0.978235 0.2075 -0.161978 0.986794 537.326 -18.4238)" fill="black" fill-opacity="0.62"/>
</g>
</svg>
