<svg width="254" height="732" viewBox="0 0 254 732" fill="none" xmlns="http://www.w3.org/2000/svg">
<path d="M119.32 365.579H240.158M240.158 365.579V732M240.158 365.579H253.846" stroke="#FF6B2C" stroke-opacity="0.3"/>
<path d="M118.375 344.55H253.373V365.09" stroke="#FF6B2C" stroke-opacity="0.3"/>
<path d="M202 366V732" stroke="#FF6B2C" stroke-opacity="0.3"/>
<path d="M160 366V628.639V732" stroke="#FF6B2C" stroke-opacity="0.3"/>
<path d="M1 730.613L39.9611 290.749M39.9611 290.749L57.2269 731.885M39.9611 290.749H114.78M91.7603 731.885L114.78 290.749M114.78 290.749L147.718 731.885" stroke="#FF6B2C" stroke-opacity="0.3"/>
<path d="M49.6875 290.749V283.433H104.355V290.749" stroke="#FF6B2C" stroke-opacity="0.3"/>
<path d="M58.8594 283.326V275.891H96.0555V283.326" stroke="#FF6B2C" stroke-opacity="0.3"/>
<path d="M78.5194 235L91.9245 275.892H64.0273L78.5194 235Z" stroke="#FF6B2C" stroke-opacity="0.3"/>
<path d="M131.286 16.9409H77C77 13.3545 79.0541 5.59471 87.2703 3.24722C94.6062 1.15124 100.475 5.69252 101.942 8.62689C103.409 6.01856 107.811 -0.665321 118.081 1.29092C126.772 2.9463 130.145 11.7243 131.286 16.9409Z" stroke="#FF6B2C" stroke-opacity="0.3"/>
</svg>
