<svg width="188" height="290" viewBox="0 0 188 290" fill="none" xmlns="http://www.w3.org/2000/svg">
<mask id="path-1-inside-1_187_3994" fill="white">
<path fill-rule="evenodd" clip-rule="evenodd" d="M72.413 145.889C66.3242 150.501 60.5209 155.484 55.0399 160.813C37.5901 177.778 23.7482 197.919 14.3044 220.084C4.86065 242.25 2.09747e-06 266.008 1.52588e-05 290L86.6239 290C86.6239 277.067 89.2439 264.261 94.3344 252.313C99.4249 240.365 106.886 229.509 116.292 220.364C125.698 211.219 136.865 203.965 149.154 199.016C161.444 194.067 174.616 191.52 187.918 191.52L187.918 188.21L187.918 101.586C174.985 101.586 162.179 98.9657 150.231 93.8752C138.283 88.7847 127.427 81.3234 118.282 71.9174C109.137 62.5113 101.883 51.3447 96.934 39.0552C91.9849 26.7656 89.4376 13.5937 89.4376 0.291556L5.21998 0.291549C5.21998 24.9693 9.94558 49.4054 19.127 72.2047C28.3085 95.0039 41.7659 115.72 58.731 133.17C63.0887 137.652 67.6558 141.896 72.413 145.889Z"/>
</mask>
<path d="M72.413 145.889L73.0169 146.686L74.0162 145.929L73.0559 145.123L72.413 145.889ZM55.0399 160.813L54.3428 160.096L55.0399 160.813ZM14.3044 220.084L15.2244 220.476L14.3044 220.084ZM1.52588e-05 290L-0.999985 290L-0.999985 291L1.51714e-05 291L1.52588e-05 290ZM86.6239 290L86.6239 291L87.6239 291L87.6239 290L86.6239 290ZM94.3344 252.313L95.2544 252.705L94.3344 252.313ZM116.292 220.364L115.595 219.647L116.292 220.364ZM149.154 199.016L149.528 199.944L149.154 199.016ZM187.918 191.52L187.918 192.52L188.918 192.52L188.918 191.52L187.918 191.52ZM187.918 188.21L188.918 188.21L187.918 188.21ZM187.918 101.586L188.918 101.586L188.918 100.586L187.918 100.586L187.918 101.586ZM150.231 93.8752L149.839 94.7952L150.231 93.8752ZM118.282 71.9174L118.999 71.2203L118.282 71.9174ZM96.934 39.0552L97.8616 38.6816L96.934 39.0552ZM89.4376 0.291556L90.4376 0.291556L90.4376 -0.708444L89.4376 -0.708444L89.4376 0.291556ZM5.21998 0.291549L5.21998 -0.708451L4.21998 -0.708451L4.21998 0.291549L5.21998 0.291549ZM58.731 133.17L59.448 132.473L58.731 133.17ZM71.8091 145.092C65.6878 149.729 59.8534 154.738 54.3428 160.096L55.737 161.53C61.1885 156.23 66.9605 151.274 73.0169 146.686L71.8091 145.092ZM54.3428 160.096C36.7989 177.153 22.8807 197.403 13.3844 219.692L15.2244 220.476C24.6156 198.434 38.3813 178.403 55.737 161.53L54.3428 160.096ZM13.3844 219.692C3.8881 241.982 -0.999998 265.872 -0.999985 290L1.00002 290C1 266.143 5.8332 242.519 15.2244 220.476L13.3844 219.692ZM1.51714e-05 291L86.6239 291L86.6239 289L1.53462e-05 289L1.51714e-05 291ZM87.6239 290C87.6239 277.203 90.2165 264.53 95.2544 252.705L93.4144 251.921C88.2714 263.993 85.6239 276.932 85.6239 290L87.6239 290ZM95.2544 252.705C100.292 240.88 107.677 230.134 116.989 221.081L115.595 219.647C106.095 228.883 98.5575 239.85 93.4144 251.921L95.2544 252.705ZM116.989 221.081C126.301 212.028 137.358 204.845 149.528 199.944L148.781 198.088C136.372 203.085 125.095 210.411 115.595 219.647L116.989 221.081ZM149.528 199.944C161.698 195.042 174.743 192.52 187.918 192.52L187.918 190.52C174.488 190.52 161.19 193.091 148.781 198.088L149.528 199.944ZM188.918 191.52L188.918 188.21L186.918 188.21L186.918 191.52L188.918 191.52ZM188.918 188.21L188.918 101.586L186.918 101.586L186.918 188.21L188.918 188.21ZM187.918 100.586C175.121 100.586 162.448 97.9931 150.623 92.9552L149.839 94.7952C161.911 99.9382 174.85 102.586 187.918 102.586L187.918 100.586ZM150.623 92.9552C138.798 87.9172 128.052 80.5322 118.999 71.2203L117.565 72.6144C126.801 82.1146 137.768 89.6521 149.839 94.7952L150.623 92.9552ZM118.999 71.2203C109.946 61.9083 102.763 50.8519 97.8616 38.6816L96.0064 39.4287C101.004 51.8376 108.329 63.1143 117.565 72.6144L118.999 71.2203ZM97.8616 38.6816C92.9605 26.5113 90.4376 13.4662 90.4376 0.291556L88.4376 0.291556C88.4376 13.7212 91.0092 27.0199 96.0064 39.4287L97.8616 38.6816ZM89.4376 -0.708444L5.21998 -0.708451L5.21998 1.29155L89.4376 1.29156L89.4376 -0.708444ZM4.21998 0.291549C4.21998 25.0968 8.96996 49.6597 18.1994 72.5782L20.0546 71.8311C10.9212 49.1511 6.21998 24.8418 6.21998 0.291549L4.21998 0.291549ZM18.1994 72.5782C27.4289 95.4968 40.9574 116.323 58.014 133.867L59.448 132.473C42.5744 115.117 29.188 94.5111 20.0546 71.8311L18.1994 72.5782ZM58.014 133.867C62.3952 138.373 66.9871 142.64 71.7701 146.655L73.0559 145.123C68.3246 141.152 63.7821 136.931 59.448 132.473L58.014 133.867Z" fill="#FF6644" mask="url(#path-1-inside-1_187_3994)"/>
</svg>
