<svg width="360" height="849" viewBox="0 0 360 849" fill="none" xmlns="http://www.w3.org/2000/svg">
<path d="M119.319 524.857H240.156M240.156 524.857V891.278M240.156 524.857H253.844" stroke="#FF6B2C"/>
<path d="M118.375 503.828H253.372V524.368" stroke="#FF6B2C"/>
<path d="M202 525.278V891.278" stroke="#FF6B2C"/>
<path d="M160 525.278V787.917V891.278" stroke="#FF6B2C"/>
<path d="M1 889.891L39.9611 450.027M39.9611 450.027L57.2269 891.164M39.9611 450.027H114.78M91.7603 891.164L114.78 450.027M114.78 450.027L147.718 891.164" stroke="#FF6B2C"/>
<path d="M49.688 450.027V442.712H104.355V450.027" stroke="#FF6B2C"/>
<path d="M58.8608 442.605V435.17H96.057V442.605" stroke="#FF6B2C"/>
<path d="M78.5191 394.278L91.9242 435.17H64.0271L78.5191 394.278Z" stroke="#FF6B2C"/>
<path d="M342.342 223.629C345.087 224.544 350.713 227.746 351.262 233.235C351.811 228.844 356.98 225.001 359.496 223.629" stroke="#FF6B2C" stroke-width="1.5"/>
<path d="M342.342 223.629C345.087 224.544 350.713 227.746 351.262 233.235C351.811 228.844 356.98 225.001 359.496 223.629" stroke="#FF6B2C" stroke-width="1.5"/>
<path d="M313.524 211.278C316.269 212.193 321.895 215.395 322.444 220.884C322.993 216.493 328.162 212.651 330.678 211.278" stroke="#FF6B2C" stroke-width="1.5"/>
<path d="M131.286 176.219H77C77 172.633 79.0541 164.873 87.2703 162.526C94.6062 160.43 100.475 164.971 101.942 167.905C103.409 165.297 107.811 158.613 118.081 160.569C126.772 162.225 130.145 171.003 131.286 176.219Z" stroke="#FF6B2C"/>
<path d="M339.593 16.2564H307.663C308.004 7.73332 315.021 0.92832 323.628 0.92832C332.235 0.92832 339.252 7.73332 339.593 16.2564Z" stroke="#FF6B2C" stroke-width="1.3"/>
</svg>
