<svg width="254" height="1115" viewBox="0 0 254 1115" fill="none" xmlns="http://www.w3.org/2000/svg">
<path d="M119.32 742.176H240.158M240.158 742.176V1114.95M240.158 742.176H253.846" stroke="white" stroke-opacity="0.08"/>
<path d="M118.375 720.782H253.373V741.679" stroke="white" stroke-opacity="0.08"/>
<path d="M202 742.604V1114.95" stroke="white" stroke-opacity="0.08"/>
<path d="M160 742.604V1009.8V1114.95" stroke="white" stroke-opacity="0.08"/>
<path d="M1 1113.54L39.9611 666.049M39.9611 666.049L57.2269 1114.83M39.9611 666.049H114.78M91.7603 1114.83L114.78 666.049M114.78 666.049L147.718 1114.83" stroke="white" stroke-opacity="0.08"/>
<path d="M49.6875 666.049V658.607H104.355V666.049" stroke="white" stroke-opacity="0.08"/>
<path d="M58.8594 658.498V650.934H96.0555V658.498" stroke="white" stroke-opacity="0.08"/>
<path d="M78.5194 609.333L91.9245 650.934H64.0273L78.5194 609.333Z" stroke="white" stroke-opacity="0.08"/>
<path d="M249.286 17.2499H195C195 13.6013 197.054 5.70705 205.27 3.31887C212.606 1.18656 218.475 5.80655 219.942 8.79178C221.409 6.13824 225.811 -0.661485 236.081 1.32866C244.772 3.01274 248.145 11.9429 249.286 17.2499Z" stroke="white" stroke-opacity="0.08"/>
<path d="M70.5936 385.51H38.6625C38.9978 376.818 46.0274 369.893 54.6281 369.893C63.2287 369.893 70.2584 376.818 70.5936 385.51Z" stroke="white" stroke-opacity="0.08" stroke-width="1.3"/>
</svg>
