<svg width="1406" height="961" viewBox="0 0 1406 961" fill="none" xmlns="http://www.w3.org/2000/svg">
<g opacity="0.7">
<mask id="mask0_654_629" style="mask-type:alpha" maskUnits="userSpaceOnUse" x="0" y="0" width="1406" height="961">
<rect width="1406" height="961" fill="white" fill-opacity="0.3"/>
</mask>
<g mask="url(#mask0_654_629)">
<rect x="1.79688" y="345.417" width="0.780023" height="602.846" transform="rotate(10.5696 1.79688 345.417)" fill="black"/>
<rect x="6.16406" y="346.234" width="0.780023" height="602.846" transform="rotate(10.5696 6.16406 346.234)" fill="black"/>
<rect x="10.5547" y="347.052" width="0.780023" height="602.846" transform="rotate(10.5696 10.5547 347.052)" fill="black"/>
<rect x="14.9297" y="347.869" width="0.780023" height="602.846" transform="rotate(10.5696 14.9297 347.869)" fill="black"/>
<rect x="19.3203" y="348.687" width="0.780023" height="602.846" transform="rotate(10.5696 19.3203 348.687)" fill="black"/>
<rect x="45.6094" y="353.592" width="0.780023" height="602.846" transform="rotate(10.5696 45.6094 353.592)" fill="black"/>
<rect x="23.6953" y="349.504" width="0.780023" height="602.846" transform="rotate(10.5696 23.6953 349.504)" fill="black"/>
<rect x="49.9922" y="354.41" width="0.780023" height="602.846" transform="rotate(10.5696 49.9922 354.41)" fill="black"/>
<rect x="28.0781" y="350.322" width="0.780023" height="602.846" transform="rotate(10.5696 28.0781 350.322)" fill="black"/>
<rect x="54.375" y="355.228" width="0.780023" height="602.846" transform="rotate(10.5696 54.375 355.228)" fill="black"/>
<rect x="32.4609" y="351.14" width="0.780023" height="602.846" transform="rotate(10.5696 32.4609 351.14)" fill="black"/>
<rect x="58.75" y="356.045" width="0.780023" height="602.846" transform="rotate(10.5696 58.75 356.045)" fill="black"/>
<rect x="36.8516" y="351.957" width="0.780023" height="602.846" transform="rotate(10.5696 36.8516 351.957)" fill="black"/>
<rect x="63.1406" y="356.863" width="0.780023" height="602.846" transform="rotate(10.5696 63.1406 356.863)" fill="black"/>
<rect x="41.2188" y="352.775" width="0.780023" height="602.846" transform="rotate(10.5696 41.2188 352.775)" fill="black"/>
<rect x="67.5078" y="357.68" width="0.780023" height="602.846" transform="rotate(10.5696 67.5078 357.68)" fill="black"/>
<rect x="71.8984" y="358.498" width="0.780023" height="602.846" transform="rotate(10.5696 71.8984 358.498)" fill="black"/>
<rect x="98.1875" y="363.403" width="0.780023" height="602.846" transform="rotate(10.5696 98.1875 363.403)" fill="black"/>
<rect x="76.2734" y="359.315" width="0.780023" height="602.846" transform="rotate(10.5696 76.2734 359.315)" fill="black"/>
<rect x="102.57" y="364.221" width="0.780023" height="602.846" transform="rotate(10.5696 102.57 364.221)" fill="black"/>
<rect x="80.6562" y="360.133" width="0.780023" height="602.846" transform="rotate(10.5696 80.6562 360.133)" fill="black"/>
<rect x="106.945" y="365.039" width="0.780023" height="602.846" transform="rotate(10.5696 106.945 365.039)" fill="black"/>
<rect x="85.0391" y="360.951" width="0.780023" height="602.846" transform="rotate(10.5696 85.0391 360.951)" fill="black"/>
<rect x="111.344" y="365.856" width="0.780023" height="602.846" transform="rotate(10.5696 111.344 365.856)" fill="black"/>
<rect x="89.4219" y="361.768" width="0.780023" height="602.846" transform="rotate(10.5696 89.4219 361.768)" fill="black"/>
<rect x="115.711" y="366.674" width="0.780023" height="602.846" transform="rotate(10.5696 115.711 366.674)" fill="black"/>
<rect x="93.8047" y="362.586" width="0.780023" height="602.846" transform="rotate(10.5696 93.8047 362.586)" fill="black"/>
<rect x="120.102" y="367.492" width="0.780023" height="602.846" transform="rotate(10.5696 120.102 367.492)" fill="black"/>
<rect x="124.469" y="368.309" width="0.780023" height="602.846" transform="rotate(10.5696 124.469 368.309)" fill="black"/>
<rect x="150.766" y="373.215" width="0.780023" height="602.846" transform="rotate(10.5696 150.766 373.215)" fill="black"/>
<rect x="128.859" y="369.127" width="0.780023" height="602.846" transform="rotate(10.5696 128.859 369.127)" fill="black"/>
<rect x="155.148" y="374.032" width="0.780023" height="602.846" transform="rotate(10.5696 155.148 374.032)" fill="black"/>
<rect x="133.242" y="369.944" width="0.780023" height="602.846" transform="rotate(10.5696 133.242 369.944)" fill="black"/>
<rect x="159.531" y="374.85" width="0.780023" height="602.846" transform="rotate(10.5696 159.531 374.85)" fill="black"/>
<rect x="137.625" y="370.762" width="0.780023" height="602.846" transform="rotate(10.5696 137.625 370.762)" fill="black"/>
<rect x="163.906" y="375.667" width="0.780023" height="602.846" transform="rotate(10.5696 163.906 375.667)" fill="black"/>
<rect x="142" y="371.58" width="0.780023" height="602.846" transform="rotate(10.5696 142 371.58)" fill="black"/>
<rect x="168.297" y="376.485" width="0.780023" height="602.846" transform="rotate(10.5696 168.297 376.485)" fill="black"/>
<rect x="146.383" y="372.397" width="0.780023" height="602.846" transform="rotate(10.5696 146.383 372.397)" fill="black"/>
<rect x="172.68" y="377.303" width="0.780023" height="602.846" transform="rotate(10.5696 172.68 377.303)" fill="black"/>
<rect x="177.055" y="378.12" width="0.780023" height="602.846" transform="rotate(10.5696 177.055 378.12)" fill="black"/>
<rect x="203.344" y="383.026" width="0.780023" height="602.846" transform="rotate(10.5696 203.344 383.026)" fill="black"/>
<rect x="181.438" y="378.938" width="0.780023" height="602.846" transform="rotate(10.5696 181.438 378.938)" fill="black"/>
<rect x="207.727" y="383.843" width="0.780023" height="602.846" transform="rotate(10.5696 207.727 383.843)" fill="black"/>
<rect x="185.812" y="379.755" width="0.780023" height="602.846" transform="rotate(10.5696 185.812 379.755)" fill="black"/>
<rect x="212.109" y="384.661" width="0.780023" height="602.846" transform="rotate(10.5696 212.109 384.661)" fill="black"/>
<rect x="190.203" y="380.573" width="0.780023" height="602.846" transform="rotate(10.5696 190.203 380.573)" fill="black"/>
<rect x="216.492" y="385.479" width="0.780023" height="602.846" transform="rotate(10.5696 216.492 385.479)" fill="black"/>
<rect x="194.586" y="381.391" width="0.780023" height="602.846" transform="rotate(10.5696 194.586 381.391)" fill="black"/>
<rect x="220.875" y="386.296" width="0.780023" height="602.846" transform="rotate(10.5696 220.875 386.296)" fill="black"/>
<rect x="198.961" y="382.208" width="0.780023" height="602.846" transform="rotate(10.5696 198.961 382.208)" fill="black"/>
<rect x="225.25" y="387.114" width="0.780023" height="602.846" transform="rotate(10.5696 225.25 387.114)" fill="black"/>
<rect x="229.641" y="387.932" width="0.780023" height="602.846" transform="rotate(10.5696 229.641 387.932)" fill="black"/>
<rect x="255.93" y="392.837" width="0.780023" height="602.846" transform="rotate(10.5696 255.93 392.837)" fill="black"/>
<rect x="234.023" y="388.749" width="0.780023" height="602.846" transform="rotate(10.5696 234.023 388.749)" fill="black"/>
<rect x="260.305" y="393.655" width="0.780023" height="602.846" transform="rotate(10.5696 260.305 393.655)" fill="black"/>
<rect x="238.398" y="389.567" width="0.780023" height="602.846" transform="rotate(10.5696 238.398 389.567)" fill="black"/>
<rect x="264.688" y="394.472" width="0.780023" height="602.846" transform="rotate(10.5696 264.688 394.472)" fill="black"/>
<rect x="242.781" y="390.384" width="0.780023" height="602.846" transform="rotate(10.5696 242.781 390.384)" fill="black"/>
<rect x="269.078" y="395.29" width="0.780023" height="602.846" transform="rotate(10.5696 269.078 395.29)" fill="black"/>
<rect x="247.156" y="391.202" width="0.780023" height="602.846" transform="rotate(10.5696 247.156 391.202)" fill="black"/>
<rect x="273.453" y="396.108" width="0.780023" height="602.846" transform="rotate(10.5696 273.453 396.108)" fill="black"/>
<rect x="251.547" y="392.019" width="0.780023" height="602.846" transform="rotate(10.5696 251.547 392.019)" fill="black"/>
<rect x="277.836" y="396.925" width="0.780023" height="602.846" transform="rotate(10.5696 277.836 396.925)" fill="black"/>
<rect x="281.648" y="397.636" width="0.780023" height="602.846" transform="rotate(10.5696 281.648 397.636)" fill="black"/>
<rect x="307.938" y="402.542" width="0.780023" height="602.846" transform="rotate(10.5696 307.938 402.542)" fill="black"/>
<rect x="286.023" y="398.454" width="0.780023" height="602.846" transform="rotate(10.5696 286.023 398.454)" fill="black"/>
<rect x="312.32" y="403.359" width="0.780023" height="602.846" transform="rotate(10.5696 312.32 403.359)" fill="black"/>
<rect x="290.406" y="399.272" width="0.780023" height="602.846" transform="rotate(10.5696 290.406 399.272)" fill="black"/>
<rect x="316.703" y="404.177" width="0.780023" height="602.846" transform="rotate(10.5696 316.703 404.177)" fill="black"/>
<rect x="294.789" y="400.089" width="0.780023" height="602.846" transform="rotate(10.5696 294.789 400.089)" fill="black"/>
<rect x="321.078" y="404.995" width="0.780023" height="602.846" transform="rotate(10.5696 321.078 404.995)" fill="black"/>
<rect x="299.18" y="400.907" width="0.780023" height="602.846" transform="rotate(10.5696 299.18 400.907)" fill="black"/>
<rect x="325.469" y="405.812" width="0.780023" height="602.846" transform="rotate(10.5696 325.469 405.812)" fill="black"/>
<rect x="303.547" y="401.724" width="0.780023" height="602.846" transform="rotate(10.5696 303.547 401.724)" fill="black"/>
<rect x="329.836" y="406.63" width="0.780023" height="602.846" transform="rotate(10.5696 329.836 406.63)" fill="black"/>
<rect x="334.227" y="407.447" width="0.780023" height="602.846" transform="rotate(10.5696 334.227 407.447)" fill="black"/>
<rect x="360.516" y="412.353" width="0.780023" height="602.846" transform="rotate(10.5696 360.516 412.353)" fill="black"/>
<rect x="338.602" y="408.265" width="0.780023" height="602.846" transform="rotate(10.5696 338.602 408.265)" fill="black"/>
<rect x="364.891" y="413.171" width="0.780023" height="602.846" transform="rotate(10.5696 364.891 413.171)" fill="black"/>
<rect x="342.984" y="409.083" width="0.780023" height="602.846" transform="rotate(10.5696 342.984 409.083)" fill="black"/>
<rect x="369.273" y="413.988" width="0.780023" height="602.846" transform="rotate(10.5696 369.273 413.988)" fill="black"/>
<rect x="347.367" y="409.901" width="0.780023" height="602.846" transform="rotate(10.5696 347.367 409.901)" fill="black"/>
<rect x="373.672" y="414.806" width="0.780023" height="602.846" transform="rotate(10.5696 373.672 414.806)" fill="black"/>
<rect x="351.742" y="410.718" width="0.780023" height="602.846" transform="rotate(10.5696 351.742 410.718)" fill="black"/>
<rect x="378.039" y="415.623" width="0.780023" height="602.846" transform="rotate(10.5696 378.039 415.623)" fill="black"/>
<rect x="356.133" y="411.536" width="0.780023" height="602.846" transform="rotate(10.5696 356.133 411.536)" fill="black"/>
<rect x="382.43" y="416.441" width="0.780023" height="602.846" transform="rotate(10.5696 382.43 416.441)" fill="black"/>
<rect x="386.797" y="417.259" width="0.780023" height="602.846" transform="rotate(10.5696 386.797 417.259)" fill="black"/>
<rect x="413.094" y="422.164" width="0.780023" height="602.846" transform="rotate(10.5696 413.094 422.164)" fill="black"/>
<rect x="391.188" y="418.076" width="0.780023" height="602.846" transform="rotate(10.5696 391.188 418.076)" fill="black"/>
<rect x="417.477" y="422.982" width="0.780023" height="602.846" transform="rotate(10.5696 417.477 422.982)" fill="black"/>
<rect x="395.57" y="418.894" width="0.780023" height="602.846" transform="rotate(10.5696 395.57 418.894)" fill="black"/>
<rect x="421.859" y="423.8" width="0.780023" height="602.846" transform="rotate(10.5696 421.859 423.8)" fill="black"/>
<rect x="399.945" y="419.712" width="0.780023" height="602.846" transform="rotate(10.5696 399.945 419.712)" fill="black"/>
<rect x="426.234" y="424.617" width="0.780023" height="602.846" transform="rotate(10.5696 426.234 424.617)" fill="black"/>
<rect x="404.328" y="420.529" width="0.780023" height="602.846" transform="rotate(10.5696 404.328 420.529)" fill="black"/>
<rect x="430.617" y="425.435" width="0.780023" height="602.846" transform="rotate(10.5696 430.617 425.435)" fill="black"/>
<rect x="408.711" y="421.347" width="0.780023" height="602.846" transform="rotate(10.5696 408.711 421.347)" fill="black"/>
<rect x="435.008" y="426.253" width="0.780023" height="602.846" transform="rotate(10.5696 435.008 426.253)" fill="black"/>
<rect x="439.383" y="427.07" width="0.780023" height="602.846" transform="rotate(10.5696 439.383 427.07)" fill="black"/>
<rect x="465.672" y="431.976" width="0.780023" height="602.846" transform="rotate(10.5696 465.672 431.976)" fill="black"/>
<rect x="443.766" y="427.887" width="0.780023" height="602.846" transform="rotate(10.5696 443.766 427.887)" fill="black"/>
<rect x="470.055" y="432.793" width="0.780023" height="602.846" transform="rotate(10.5696 470.055 432.793)" fill="black"/>
<rect x="448.141" y="428.705" width="0.780023" height="602.846" transform="rotate(10.5696 448.141 428.705)" fill="black"/>
<rect x="474.43" y="433.611" width="0.780023" height="602.846" transform="rotate(10.5696 474.43 433.611)" fill="black"/>
<rect x="452.531" y="429.523" width="0.780023" height="602.846" transform="rotate(10.5696 452.531 429.523)" fill="black"/>
<rect x="478.82" y="434.428" width="0.780023" height="602.846" transform="rotate(10.5696 478.82 434.428)" fill="black"/>
<rect x="456.914" y="430.34" width="0.780023" height="602.846" transform="rotate(10.5696 456.914 430.34)" fill="black"/>
<rect x="483.203" y="435.246" width="0.780023" height="602.846" transform="rotate(10.5696 483.203 435.246)" fill="black"/>
<rect x="461.289" y="431.158" width="0.780023" height="602.846" transform="rotate(10.5696 461.289 431.158)" fill="black"/>
<rect x="487.578" y="436.064" width="0.780023" height="602.846" transform="rotate(10.5696 487.578 436.064)" fill="black"/>
<rect x="491.969" y="436.881" width="0.780023" height="602.846" transform="rotate(10.5696 491.969 436.881)" fill="black"/>
<rect x="518.258" y="441.787" width="0.780023" height="602.846" transform="rotate(10.5696 518.258 441.787)" fill="black"/>
<rect x="496.352" y="437.699" width="0.780023" height="602.846" transform="rotate(10.5696 496.352 437.699)" fill="black"/>
<rect x="522.633" y="442.604" width="0.780023" height="602.846" transform="rotate(10.5696 522.633 442.604)" fill="black"/>
<rect x="500.727" y="438.516" width="0.780023" height="602.846" transform="rotate(10.5696 500.727 438.516)" fill="black"/>
<rect x="527.016" y="443.422" width="0.780023" height="602.846" transform="rotate(10.5696 527.016 443.422)" fill="black"/>
<rect x="505.109" y="439.334" width="0.780023" height="602.846" transform="rotate(10.5696 505.109 439.334)" fill="black"/>
<rect x="531.406" y="444.24" width="0.780023" height="602.846" transform="rotate(10.5696 531.406 444.24)" fill="black"/>
<rect x="509.484" y="440.151" width="0.780023" height="602.846" transform="rotate(10.5696 509.484 440.151)" fill="black"/>
<rect x="535.781" y="445.057" width="0.780023" height="602.846" transform="rotate(10.5696 535.781 445.057)" fill="black"/>
<rect x="513.875" y="440.969" width="0.780023" height="602.846" transform="rotate(10.5696 513.875 440.969)" fill="black"/>
<rect x="540.156" y="445.875" width="0.780023" height="602.846" transform="rotate(10.5696 540.156 445.875)" fill="black"/>
<rect x="544.547" y="446.692" width="0.780023" height="602.846" transform="rotate(10.5696 544.547 446.692)" fill="black"/>
<rect x="570.844" y="451.598" width="0.780023" height="602.846" transform="rotate(10.5696 570.844 451.598)" fill="black"/>
<rect x="548.922" y="447.51" width="0.780023" height="602.846" transform="rotate(10.5696 548.922 447.51)" fill="black"/>
<rect x="575.211" y="452.416" width="0.780023" height="602.846" transform="rotate(10.5696 575.211 452.416)" fill="black"/>
<rect x="553.312" y="448.328" width="0.780023" height="602.846" transform="rotate(10.5696 553.312 448.328)" fill="black"/>
<rect x="579.602" y="453.233" width="0.780023" height="602.846" transform="rotate(10.5696 579.602 453.233)" fill="black"/>
<rect x="557.688" y="449.145" width="0.780023" height="602.846" transform="rotate(10.5696 557.688 449.145)" fill="black"/>
<rect x="583.969" y="454.051" width="0.780023" height="602.846" transform="rotate(10.5696 583.969 454.051)" fill="black"/>
<rect x="562.07" y="449.963" width="0.780023" height="602.846" transform="rotate(10.5696 562.07 449.963)" fill="black"/>
<rect x="588.359" y="454.868" width="0.780023" height="602.846" transform="rotate(10.5696 588.359 454.868)" fill="black"/>
<rect x="566.445" y="450.78" width="0.780023" height="602.846" transform="rotate(10.5696 566.445 450.78)" fill="black"/>
<rect x="592.742" y="455.686" width="0.780023" height="602.846" transform="rotate(10.5696 592.742 455.686)" fill="black"/>
<rect x="597.125" y="456.503" width="0.780023" height="602.846" transform="rotate(10.5696 597.125 456.503)" fill="black"/>
<rect x="623.406" y="461.409" width="0.780023" height="602.846" transform="rotate(10.5696 623.406 461.409)" fill="black"/>
<rect x="601.508" y="457.321" width="0.780023" height="602.846" transform="rotate(10.5696 601.508 457.321)" fill="black"/>
<rect x="627.797" y="462.227" width="0.780023" height="602.846" transform="rotate(10.5696 627.797 462.227)" fill="black"/>
<rect x="605.891" y="458.139" width="0.780023" height="602.846" transform="rotate(10.5696 605.891 458.139)" fill="black"/>
<rect x="632.172" y="463.044" width="0.780023" height="602.846" transform="rotate(10.5696 632.172 463.044)" fill="black"/>
<rect x="610.273" y="458.956" width="0.780023" height="602.846" transform="rotate(10.5696 610.273 458.956)" fill="black"/>
<rect x="636.562" y="463.862" width="0.780023" height="602.846" transform="rotate(10.5696 636.562 463.862)" fill="black"/>
<rect x="614.648" y="459.774" width="0.780023" height="602.846" transform="rotate(10.5696 614.648 459.774)" fill="black"/>
<rect x="640.938" y="464.679" width="0.780023" height="602.846" transform="rotate(10.5696 640.938 464.679)" fill="black"/>
<rect x="619.039" y="460.591" width="0.780023" height="602.846" transform="rotate(10.5696 619.039 460.591)" fill="black"/>
<rect x="645.32" y="465.497" width="0.780023" height="602.846" transform="rotate(10.5696 645.32 465.497)" fill="black"/>
<rect x="649.703" y="466.315" width="0.780023" height="602.846" transform="rotate(10.5696 649.703 466.315)" fill="black"/>
<rect x="675.992" y="471.22" width="0.780023" height="602.846" transform="rotate(10.5696 675.992 471.22)" fill="black"/>
<rect x="654.094" y="467.132" width="0.780023" height="602.846" transform="rotate(10.5696 654.094 467.132)" fill="black"/>
<rect x="680.375" y="472.038" width="0.780023" height="602.846" transform="rotate(10.5696 680.375 472.038)" fill="black"/>
<rect x="658.461" y="467.95" width="0.780023" height="602.846" transform="rotate(10.5696 658.461 467.95)" fill="black"/>
<rect x="684.75" y="472.856" width="0.780023" height="602.846" transform="rotate(10.5696 684.75 472.856)" fill="black"/>
<rect x="662.852" y="468.767" width="0.780023" height="602.846" transform="rotate(10.5696 662.852 468.767)" fill="black"/>
<rect x="689.141" y="473.673" width="0.780023" height="602.846" transform="rotate(10.5696 689.141 473.673)" fill="black"/>
<rect x="667.227" y="469.585" width="0.780023" height="602.846" transform="rotate(10.5696 667.227 469.585)" fill="black"/>
<rect x="693.516" y="474.491" width="0.780023" height="602.846" transform="rotate(10.5696 693.516 474.491)" fill="black"/>
<rect x="671.617" y="470.403" width="0.780023" height="602.846" transform="rotate(10.5696 671.617 470.403)" fill="black"/>
<rect x="697.898" y="475.308" width="0.780023" height="602.846" transform="rotate(10.5696 697.898 475.308)" fill="black"/>
<rect x="702.117" y="476.93" width="0.780023" height="602.846" transform="rotate(10.5696 702.117 476.93)" fill="black"/>
<rect x="728.406" y="481.835" width="0.780023" height="602.846" transform="rotate(10.5696 728.406 481.835)" fill="black"/>
<rect x="706.5" y="477.747" width="0.780023" height="602.846" transform="rotate(10.5696 706.5 477.747)" fill="black"/>
<rect x="732.789" y="482.653" width="0.780023" height="602.846" transform="rotate(10.5696 732.789 482.653)" fill="black"/>
<rect x="710.875" y="478.565" width="0.780023" height="602.846" transform="rotate(10.5696 710.875 478.565)" fill="black"/>
<rect x="737.172" y="483.47" width="0.780023" height="602.846" transform="rotate(10.5696 737.172 483.47)" fill="black"/>
<rect x="715.266" y="479.382" width="0.780023" height="602.846" transform="rotate(10.5696 715.266 479.382)" fill="black"/>
<rect x="741.555" y="484.288" width="0.780023" height="602.846" transform="rotate(10.5696 741.555 484.288)" fill="black"/>
<rect x="719.648" y="480.2" width="0.780023" height="602.846" transform="rotate(10.5696 719.648 480.2)" fill="black"/>
<rect x="745.93" y="485.106" width="0.780023" height="602.846" transform="rotate(10.5696 745.93 485.106)" fill="black"/>
<rect x="724.023" y="481.018" width="0.780023" height="602.846" transform="rotate(10.5696 724.023 481.018)" fill="black"/>
<rect x="750.312" y="485.923" width="0.780023" height="602.846" transform="rotate(10.5696 750.312 485.923)" fill="black"/>
<rect x="754.703" y="486.741" width="0.780023" height="602.846" transform="rotate(10.5696 754.703 486.741)" fill="black"/>
<rect x="780.984" y="491.646" width="0.780023" height="602.846" transform="rotate(10.5696 780.984 491.646)" fill="black"/>
<rect x="759.078" y="487.558" width="0.780023" height="602.846" transform="rotate(10.5696 759.078 487.558)" fill="black"/>
<rect x="785.367" y="492.464" width="0.780023" height="602.846" transform="rotate(10.5696 785.367 492.464)" fill="black"/>
<rect x="763.461" y="488.376" width="0.780023" height="602.846" transform="rotate(10.5696 763.461 488.376)" fill="black"/>
<rect x="789.742" y="493.282" width="0.780023" height="602.846" transform="rotate(10.5696 789.742 493.282)" fill="black"/>
<rect x="767.844" y="489.194" width="0.780023" height="602.846" transform="rotate(10.5696 767.844 489.194)" fill="black"/>
<rect x="794.133" y="494.099" width="0.780023" height="602.846" transform="rotate(10.5696 794.133 494.099)" fill="black"/>
<rect x="772.219" y="490.011" width="0.780023" height="602.846" transform="rotate(10.5696 772.219 490.011)" fill="black"/>
<rect x="798.508" y="494.917" width="0.780023" height="602.846" transform="rotate(10.5696 798.508 494.917)" fill="black"/>
<rect x="776.609" y="490.829" width="0.780023" height="602.846" transform="rotate(10.5696 776.609 490.829)" fill="black"/>
<rect x="802.898" y="495.734" width="0.780023" height="602.846" transform="rotate(10.5696 802.898 495.734)" fill="black"/>
<rect x="807.266" y="496.552" width="0.780023" height="602.846" transform="rotate(10.5696 807.266 496.552)" fill="black"/>
<rect x="833.57" y="501.458" width="0.780023" height="602.846" transform="rotate(10.5696 833.57 501.458)" fill="black"/>
<rect x="811.656" y="497.37" width="0.780023" height="602.846" transform="rotate(10.5696 811.656 497.37)" fill="black"/>
<rect x="837.953" y="502.275" width="0.780023" height="602.846" transform="rotate(10.5696 837.953 502.275)" fill="black"/>
<rect x="816.039" y="498.187" width="0.780023" height="602.846" transform="rotate(10.5696 816.039 498.187)" fill="black"/>
<rect x="842.336" y="503.093" width="0.780023" height="602.846" transform="rotate(10.5696 842.336 503.093)" fill="black"/>
<rect x="820.422" y="499.005" width="0.780023" height="602.846" transform="rotate(10.5696 820.422 499.005)" fill="black"/>
<rect x="846.703" y="503.911" width="0.780023" height="602.846" transform="rotate(10.5696 846.703 503.911)" fill="black"/>
<rect x="824.805" y="499.822" width="0.780023" height="602.846" transform="rotate(10.5696 824.805 499.822)" fill="black"/>
<rect x="851.094" y="504.728" width="0.780023" height="602.846" transform="rotate(10.5696 851.094 504.728)" fill="black"/>
<rect x="829.188" y="500.64" width="0.780023" height="602.846" transform="rotate(10.5696 829.188 500.64)" fill="black"/>
<rect x="855.469" y="505.546" width="0.780023" height="602.846" transform="rotate(10.5696 855.469 505.546)" fill="black"/>
<rect x="859.859" y="506.363" width="0.780023" height="602.846" transform="rotate(10.5696 859.859 506.363)" fill="black"/>
<rect x="886.148" y="511.269" width="0.780023" height="602.846" transform="rotate(10.5696 886.148 511.269)" fill="black"/>
<rect x="864.234" y="507.181" width="0.780023" height="602.846" transform="rotate(10.5696 864.234 507.181)" fill="black"/>
<rect x="890.531" y="512.086" width="0.780023" height="602.846" transform="rotate(10.5696 890.531 512.086)" fill="black"/>
<rect x="868.617" y="507.999" width="0.780023" height="602.846" transform="rotate(10.5696 868.617 507.999)" fill="black"/>
<rect x="894.914" y="512.904" width="0.780023" height="602.846" transform="rotate(10.5696 894.914 512.904)" fill="black"/>
<rect x="873" y="508.816" width="0.780023" height="602.846" transform="rotate(10.5696 873 508.816)" fill="black"/>
<rect x="899.289" y="513.722" width="0.780023" height="602.846" transform="rotate(10.5696 899.289 513.722)" fill="black"/>
<rect x="877.391" y="509.634" width="0.780023" height="602.846" transform="rotate(10.5696 877.391 509.634)" fill="black"/>
<rect x="903.68" y="514.539" width="0.780023" height="602.846" transform="rotate(10.5696 903.68 514.539)" fill="black"/>
<rect x="881.758" y="510.451" width="0.780023" height="602.846" transform="rotate(10.5696 881.758 510.451)" fill="black"/>
<rect x="908.047" y="515.357" width="0.780023" height="602.846" transform="rotate(10.5696 908.047 515.357)" fill="black"/>
<rect x="912.438" y="516.175" width="0.780023" height="602.846" transform="rotate(10.5696 912.438 516.175)" fill="black"/>
<rect x="938.727" y="521.08" width="0.780023" height="602.846" transform="rotate(10.5696 938.727 521.08)" fill="black"/>
<rect x="916.812" y="516.992" width="0.780023" height="602.846" transform="rotate(10.5696 916.812 516.992)" fill="black"/>
<rect x="943.109" y="521.898" width="0.780023" height="602.846" transform="rotate(10.5696 943.109 521.898)" fill="black"/>
<rect x="921.195" y="517.81" width="0.780023" height="602.846" transform="rotate(10.5696 921.195 517.81)" fill="black"/>
<rect x="947.484" y="522.715" width="0.780023" height="602.846" transform="rotate(10.5696 947.484 522.715)" fill="black"/>
<rect x="925.578" y="518.627" width="0.780023" height="602.846" transform="rotate(10.5696 925.578 518.627)" fill="black"/>
<rect x="951.883" y="523.533" width="0.780023" height="602.846" transform="rotate(10.5696 951.883 523.533)" fill="black"/>
<rect x="929.961" y="519.445" width="0.780023" height="602.846" transform="rotate(10.5696 929.961 519.445)" fill="black"/>
<rect x="956.25" y="524.35" width="0.780023" height="602.846" transform="rotate(10.5696 956.25 524.35)" fill="black"/>
<rect x="934.344" y="520.262" width="0.780023" height="602.846" transform="rotate(10.5696 934.344 520.262)" fill="black"/>
<rect x="960.641" y="525.168" width="0.780023" height="602.846" transform="rotate(10.5696 960.641 525.168)" fill="black"/>
<rect x="965.008" y="525.985" width="0.780023" height="602.846" transform="rotate(10.5696 965.008 525.985)" fill="black"/>
<rect x="991.305" y="530.891" width="0.780023" height="602.846" transform="rotate(10.5696 991.305 530.891)" fill="black"/>
<rect x="969.398" y="526.803" width="0.780023" height="602.846" transform="rotate(10.5696 969.398 526.803)" fill="black"/>
<rect x="995.688" y="531.709" width="0.780023" height="602.846" transform="rotate(10.5696 995.688 531.709)" fill="black"/>
<rect x="973.781" y="527.621" width="0.780023" height="602.846" transform="rotate(10.5696 973.781 527.621)" fill="black"/>
<rect x="1000.07" y="532.526" width="0.780023" height="602.846" transform="rotate(10.5696 1000.07 532.526)" fill="black"/>
<rect x="978.164" y="528.438" width="0.780023" height="602.846" transform="rotate(10.5696 978.164 528.438)" fill="black"/>
<rect x="1004.45" y="533.344" width="0.780023" height="602.846" transform="rotate(10.5696 1004.45 533.344)" fill="black"/>
<rect x="982.539" y="529.256" width="0.780023" height="602.846" transform="rotate(10.5696 982.539 529.256)" fill="black"/>
<rect x="1008.84" y="534.162" width="0.780023" height="602.846" transform="rotate(10.5696 1008.84 534.162)" fill="black"/>
<rect x="986.922" y="530.074" width="0.780023" height="602.846" transform="rotate(10.5696 986.922 530.074)" fill="black"/>
<rect x="1013.22" y="534.979" width="0.780023" height="602.846" transform="rotate(10.5696 1013.22 534.979)" fill="black"/>
<rect x="1017.59" y="535.797" width="0.780023" height="602.846" transform="rotate(10.5696 1017.59 535.797)" fill="black"/>
<rect x="1043.88" y="540.702" width="0.780023" height="602.846" transform="rotate(10.5696 1043.88 540.702)" fill="black"/>
<rect x="1021.98" y="536.614" width="0.780023" height="602.846" transform="rotate(10.5696 1021.98 536.614)" fill="black"/>
<rect x="1048.27" y="541.52" width="0.780023" height="602.846" transform="rotate(10.5696 1048.27 541.52)" fill="black"/>
<rect x="1026.35" y="537.432" width="0.780023" height="602.846" transform="rotate(10.5696 1026.35 537.432)" fill="black"/>
<rect x="1052.65" y="542.338" width="0.780023" height="602.846" transform="rotate(10.5696 1052.65 542.338)" fill="black"/>
<rect x="1030.74" y="538.25" width="0.780023" height="602.846" transform="rotate(10.5696 1030.74 538.25)" fill="black"/>
<rect x="1057.03" y="543.155" width="0.780023" height="602.846" transform="rotate(10.5696 1057.03 543.155)" fill="black"/>
<rect x="1035.12" y="539.067" width="0.780023" height="602.846" transform="rotate(10.5696 1035.12 539.067)" fill="black"/>
<rect x="1061.41" y="543.973" width="0.780023" height="602.846" transform="rotate(10.5696 1061.41 543.973)" fill="black"/>
<rect x="1039.5" y="539.884" width="0.780023" height="602.846" transform="rotate(10.5696 1039.5 539.884)" fill="black"/>
<rect x="1065.79" y="544.79" width="0.780023" height="602.846" transform="rotate(10.5696 1065.79 544.79)" fill="black"/>
<rect x="1070.18" y="545.608" width="0.780023" height="602.846" transform="rotate(10.5696 1070.18 545.608)" fill="black"/>
<rect x="1096.47" y="550.514" width="0.780023" height="602.846" transform="rotate(10.5696 1096.47 550.514)" fill="black"/>
<rect x="1074.56" y="546.426" width="0.780023" height="602.846" transform="rotate(10.5696 1074.56 546.426)" fill="black"/>
<rect x="1100.84" y="551.331" width="0.780023" height="602.846" transform="rotate(10.5696 1100.84 551.331)" fill="black"/>
<rect x="1078.94" y="547.243" width="0.780023" height="602.846" transform="rotate(10.5696 1078.94 547.243)" fill="black"/>
<rect x="1105.23" y="552.149" width="0.780023" height="602.846" transform="rotate(10.5696 1105.23 552.149)" fill="black"/>
<rect x="1083.32" y="548.061" width="0.780023" height="602.846" transform="rotate(10.5696 1083.32 548.061)" fill="black"/>
<rect x="1109.62" y="552.966" width="0.780023" height="602.846" transform="rotate(10.5696 1109.62 552.966)" fill="black"/>
<rect x="1087.7" y="548.878" width="0.780023" height="602.846" transform="rotate(10.5696 1087.7 548.878)" fill="black"/>
<rect x="1113.99" y="553.784" width="0.780023" height="602.846" transform="rotate(10.5696 1113.99 553.784)" fill="black"/>
<rect x="1092.09" y="549.696" width="0.780023" height="602.846" transform="rotate(10.5696 1092.09 549.696)" fill="black"/>
<rect x="1118.38" y="554.602" width="0.780023" height="602.846" transform="rotate(10.5696 1118.38 554.602)" fill="black"/>
<rect x="1122.19" y="555.313" width="0.780023" height="602.846" transform="rotate(10.5696 1122.19 555.313)" fill="black"/>
<rect x="1148.48" y="560.219" width="0.780023" height="602.846" transform="rotate(10.5696 1148.48 560.219)" fill="black"/>
<rect x="1126.56" y="556.131" width="0.780023" height="602.846" transform="rotate(10.5696 1126.56 556.131)" fill="black"/>
<rect x="1152.86" y="561.036" width="0.780023" height="602.846" transform="rotate(10.5696 1152.86 561.036)" fill="black"/>
<rect x="1130.95" y="556.948" width="0.780023" height="602.846" transform="rotate(10.5696 1130.95 556.948)" fill="black"/>
<rect x="1157.24" y="561.854" width="0.780023" height="602.846" transform="rotate(10.5696 1157.24 561.854)" fill="black"/>
<rect x="1135.33" y="557.766" width="0.780023" height="602.846" transform="rotate(10.5696 1135.33 557.766)" fill="black"/>
<rect x="1161.62" y="562.671" width="0.780023" height="602.846" transform="rotate(10.5696 1161.62 562.671)" fill="black"/>
<rect x="1139.72" y="558.583" width="0.780023" height="602.846" transform="rotate(10.5696 1139.72 558.583)" fill="black"/>
<rect x="1166.01" y="563.489" width="0.780023" height="602.846" transform="rotate(10.5696 1166.01 563.489)" fill="black"/>
<rect x="1144.09" y="559.401" width="0.780023" height="602.846" transform="rotate(10.5696 1144.09 559.401)" fill="black"/>
<rect x="1170.38" y="564.307" width="0.780023" height="602.846" transform="rotate(10.5696 1170.38 564.307)" fill="black"/>
<rect x="1174.77" y="565.124" width="0.780023" height="602.846" transform="rotate(10.5696 1174.77 565.124)" fill="black"/>
<rect x="1201.05" y="570.03" width="0.780023" height="602.846" transform="rotate(10.5696 1201.05 570.03)" fill="black"/>
<rect x="1179.14" y="565.942" width="0.780023" height="602.846" transform="rotate(10.5696 1179.14 565.942)" fill="black"/>
<rect x="1205.43" y="570.847" width="0.780023" height="602.846" transform="rotate(10.5696 1205.43 570.847)" fill="black"/>
<rect x="1183.52" y="566.759" width="0.780023" height="602.846" transform="rotate(10.5696 1183.52 566.759)" fill="black"/>
<rect x="1209.81" y="571.665" width="0.780023" height="602.846" transform="rotate(10.5696 1209.81 571.665)" fill="black"/>
<rect x="1187.91" y="567.577" width="0.780023" height="602.846" transform="rotate(10.5696 1187.91 567.577)" fill="black"/>
<rect x="1214.21" y="572.482" width="0.780023" height="602.846" transform="rotate(10.5696 1214.21 572.482)" fill="black"/>
<rect x="1192.28" y="568.395" width="0.780023" height="602.846" transform="rotate(10.5696 1192.28 568.395)" fill="black"/>
<rect x="1218.58" y="573.3" width="0.780023" height="602.846" transform="rotate(10.5696 1218.58 573.3)" fill="black"/>
<rect x="1196.67" y="569.212" width="0.780023" height="602.846" transform="rotate(10.5696 1196.67 569.212)" fill="black"/>
<rect x="1222.97" y="574.118" width="0.780023" height="602.846" transform="rotate(10.5696 1222.97 574.118)" fill="black"/>
<rect x="1227.34" y="574.935" width="0.780023" height="602.846" transform="rotate(10.5696 1227.34 574.935)" fill="black"/>
<rect x="1253.63" y="579.841" width="0.780023" height="602.846" transform="rotate(10.5696 1253.63 579.841)" fill="black"/>
<rect x="1231.73" y="575.753" width="0.780023" height="602.846" transform="rotate(10.5696 1231.73 575.753)" fill="black"/>
<rect x="1258.02" y="580.659" width="0.780023" height="602.846" transform="rotate(10.5696 1258.02 580.659)" fill="black"/>
<rect x="1236.11" y="576.57" width="0.780023" height="602.846" transform="rotate(10.5696 1236.11 576.57)" fill="black"/>
<rect x="1262.4" y="581.476" width="0.780023" height="602.846" transform="rotate(10.5696 1262.4 581.476)" fill="black"/>
<rect x="1240.49" y="577.388" width="0.780023" height="602.846" transform="rotate(10.5696 1240.49 577.388)" fill="black"/>
<rect x="1266.77" y="582.294" width="0.780023" height="602.846" transform="rotate(10.5696 1266.77 582.294)" fill="black"/>
<rect x="1244.87" y="578.206" width="0.780023" height="602.846" transform="rotate(10.5696 1244.87 578.206)" fill="black"/>
<rect x="1271.16" y="583.111" width="0.780023" height="602.846" transform="rotate(10.5696 1271.16 583.111)" fill="black"/>
<rect x="1249.25" y="579.023" width="0.780023" height="602.846" transform="rotate(10.5696 1249.25 579.023)" fill="black"/>
<rect x="1275.55" y="583.929" width="0.780023" height="602.846" transform="rotate(10.5696 1275.55 583.929)" fill="black"/>
<rect x="1279.92" y="584.746" width="0.780023" height="602.846" transform="rotate(10.5696 1279.92 584.746)" fill="black"/>
<rect x="1306.21" y="589.652" width="0.780023" height="602.846" transform="rotate(10.5696 1306.21 589.652)" fill="black"/>
<rect x="1284.3" y="585.564" width="0.780023" height="602.846" transform="rotate(10.5696 1284.3 585.564)" fill="black"/>
<rect x="1310.59" y="590.47" width="0.780023" height="602.846" transform="rotate(10.5696 1310.59 590.47)" fill="black"/>
<rect x="1288.68" y="586.382" width="0.780023" height="602.846" transform="rotate(10.5696 1288.68 586.382)" fill="black"/>
<rect x="1314.97" y="591.287" width="0.780023" height="602.846" transform="rotate(10.5696 1314.97 591.287)" fill="black"/>
<rect x="1293.07" y="587.2" width="0.780023" height="602.846" transform="rotate(10.5696 1293.07 587.2)" fill="black"/>
<rect x="1319.36" y="592.105" width="0.780023" height="602.846" transform="rotate(10.5696 1319.36 592.105)" fill="black"/>
<rect x="1297.45" y="588.017" width="0.780023" height="602.846" transform="rotate(10.5696 1297.45 588.017)" fill="black"/>
<rect x="1323.74" y="592.923" width="0.780023" height="602.846" transform="rotate(10.5696 1323.74 592.923)" fill="black"/>
<rect x="1301.83" y="588.834" width="0.780023" height="602.846" transform="rotate(10.5696 1301.83 588.834)" fill="black"/>
<rect x="1328.12" y="593.74" width="0.780023" height="602.846" transform="rotate(10.5696 1328.12 593.74)" fill="black"/>
<rect x="1332.51" y="594.558" width="0.780023" height="602.846" transform="rotate(10.5696 1332.51 594.558)" fill="black"/>
<rect x="1358.8" y="599.463" width="0.780023" height="602.846" transform="rotate(10.5696 1358.8 599.463)" fill="black"/>
<rect x="1336.89" y="595.375" width="0.780023" height="602.846" transform="rotate(10.5696 1336.89 595.375)" fill="black"/>
<rect x="1363.17" y="600.281" width="0.780023" height="602.846" transform="rotate(10.5696 1363.17 600.281)" fill="black"/>
<rect x="1341.27" y="596.193" width="0.780023" height="602.846" transform="rotate(10.5696 1341.27 596.193)" fill="black"/>
<rect x="1367.55" y="601.098" width="0.780023" height="602.846" transform="rotate(10.5696 1367.55 601.098)" fill="black"/>
<rect x="1345.65" y="597.01" width="0.780023" height="602.846" transform="rotate(10.5696 1345.65 597.01)" fill="black"/>
<rect x="1371.95" y="601.916" width="0.780023" height="602.846" transform="rotate(10.5696 1371.95 601.916)" fill="black"/>
<rect x="1350.02" y="597.828" width="0.780023" height="602.846" transform="rotate(10.5696 1350.02 597.828)" fill="black"/>
<rect x="1376.32" y="602.734" width="0.780023" height="602.846" transform="rotate(10.5696 1376.32 602.734)" fill="black"/>
<rect x="1354.41" y="598.646" width="0.780023" height="602.846" transform="rotate(10.5696 1354.41 598.646)" fill="black"/>
<rect x="1380.7" y="603.551" width="0.780023" height="602.846" transform="rotate(10.5696 1380.7 603.551)" fill="black"/>
<rect x="1385.09" y="604.369" width="0.780023" height="602.846" transform="rotate(10.5696 1385.09 604.369)" fill="black"/>
<rect x="1411.38" y="609.275" width="0.780023" height="602.846" transform="rotate(10.5696 1411.38 609.275)" fill="black"/>
<rect x="1389.46" y="605.187" width="0.780023" height="602.846" transform="rotate(10.5696 1389.46 605.187)" fill="black"/>
<rect x="1415.75" y="610.092" width="0.780023" height="602.846" transform="rotate(10.5696 1415.75 610.092)" fill="black"/>
<rect x="1393.85" y="606.004" width="0.780023" height="602.846" transform="rotate(10.5696 1393.85 606.004)" fill="black"/>
<rect x="1420.14" y="610.91" width="0.780023" height="602.846" transform="rotate(10.5696 1420.14 610.91)" fill="black"/>
<rect x="1398.23" y="606.821" width="0.780023" height="602.846" transform="rotate(10.5696 1398.23 606.821)" fill="black"/>
<rect x="1424.51" y="611.727" width="0.780023" height="602.846" transform="rotate(10.5696 1424.51 611.727)" fill="black"/>
<rect x="1402.61" y="607.639" width="0.780023" height="602.846" transform="rotate(10.5696 1402.61 607.639)" fill="black"/>
<rect x="1428.9" y="612.545" width="0.780023" height="602.846" transform="rotate(10.5696 1428.9 612.545)" fill="black"/>
<rect x="1406.98" y="608.457" width="0.780023" height="602.846" transform="rotate(10.5696 1406.98 608.457)" fill="black"/>
<rect x="1433.28" y="613.363" width="0.780023" height="602.846" transform="rotate(10.5696 1433.28 613.363)" fill="black"/>
<rect x="1437.66" y="614.18" width="0.780023" height="602.846" transform="rotate(10.5696 1437.66 614.18)" fill="black"/>
<rect x="1463.95" y="619.086" width="0.780023" height="602.846" transform="rotate(10.5696 1463.95 619.086)" fill="black"/>
<rect x="1442.05" y="614.997" width="0.780023" height="602.846" transform="rotate(10.5696 1442.05 614.997)" fill="black"/>
<rect x="1468.34" y="619.903" width="0.780023" height="602.846" transform="rotate(10.5696 1468.34 619.903)" fill="black"/>
<rect x="1446.43" y="615.815" width="0.780023" height="602.846" transform="rotate(10.5696 1446.43 615.815)" fill="black"/>
<rect x="1472.71" y="620.721" width="0.780023" height="602.846" transform="rotate(10.5696 1472.71 620.721)" fill="black"/>
<rect x="1450.81" y="616.633" width="0.780023" height="602.846" transform="rotate(10.5696 1450.81 616.633)" fill="black"/>
<rect x="1477.1" y="621.538" width="0.780023" height="602.846" transform="rotate(10.5696 1477.1 621.538)" fill="black"/>
<rect x="1455.19" y="617.45" width="0.780023" height="602.846" transform="rotate(10.5696 1455.19 617.45)" fill="black"/>
<rect x="1481.48" y="622.356" width="0.780023" height="602.846" transform="rotate(10.5696 1481.48 622.356)" fill="black"/>
<rect x="1459.58" y="618.268" width="0.780023" height="602.846" transform="rotate(10.5696 1459.58 618.268)" fill="black"/>
<rect x="1485.86" y="623.174" width="0.780023" height="602.846" transform="rotate(10.5696 1485.86 623.174)" fill="black"/>
<rect x="1490.24" y="623.991" width="0.780023" height="602.846" transform="rotate(10.5696 1490.24 623.991)" fill="black"/>
<rect x="1516.53" y="628.897" width="0.780023" height="602.846" transform="rotate(10.5696 1516.53 628.897)" fill="black"/>
<rect x="1494.63" y="624.809" width="0.780023" height="602.846" transform="rotate(10.5696 1494.63 624.809)" fill="black"/>
<rect x="1499" y="625.626" width="0.780023" height="602.846" transform="rotate(10.5696 1499 625.626)" fill="black"/>
<rect x="1503.39" y="626.444" width="0.780023" height="602.846" transform="rotate(10.5696 1503.39 626.444)" fill="black"/>
<rect x="1507.77" y="627.262" width="0.780023" height="602.846" transform="rotate(10.5696 1507.77 627.262)" fill="black"/>
<rect x="1512.16" y="628.079" width="0.780023" height="602.846" transform="rotate(10.5696 1512.16 628.079)" fill="black"/>
<rect x="1404.84" y="608.249" width="0.780023" height="602.846" transform="rotate(-169.43 1404.84 608.249)" fill="black"/>
<rect x="1378.55" y="603.343" width="0.780023" height="602.846" transform="rotate(-169.43 1378.55 603.343)" fill="black"/>
<rect x="1400.47" y="607.431" width="0.780023" height="602.846" transform="rotate(-169.43 1400.47 607.431)" fill="black"/>
<rect x="1374.17" y="602.525" width="0.780023" height="602.846" transform="rotate(-169.43 1374.17 602.525)" fill="black"/>
<rect x="1396.09" y="606.613" width="0.780023" height="602.846" transform="rotate(-169.43 1396.09 606.613)" fill="black"/>
<rect x="1369.8" y="601.708" width="0.780023" height="602.846" transform="rotate(-169.43 1369.8 601.708)" fill="black"/>
<rect x="1391.7" y="605.796" width="0.780023" height="602.846" transform="rotate(-169.43 1391.7 605.796)" fill="black"/>
<rect x="1365.4" y="600.89" width="0.780023" height="602.846" transform="rotate(-169.43 1365.4 600.89)" fill="black"/>
<rect x="1387.32" y="604.978" width="0.780023" height="602.846" transform="rotate(-169.43 1387.32 604.978)" fill="black"/>
<rect x="1361.03" y="600.072" width="0.780023" height="602.846" transform="rotate(-169.43 1361.03 600.072)" fill="black"/>
<rect x="1382.94" y="604.161" width="0.780023" height="602.846" transform="rotate(-169.43 1382.94 604.161)" fill="black"/>
<rect x="1356.64" y="599.255" width="0.780023" height="602.846" transform="rotate(-169.43 1356.64 599.255)" fill="black"/>
<rect x="1352.27" y="598.437" width="0.780023" height="602.846" transform="rotate(-169.43 1352.27 598.437)" fill="black"/>
<rect x="1325.98" y="593.532" width="0.780023" height="602.846" transform="rotate(-169.43 1325.98 593.532)" fill="black"/>
<rect x="1347.88" y="597.62" width="0.780023" height="602.846" transform="rotate(-169.43 1347.88 597.62)" fill="black"/>
<rect x="1321.59" y="592.714" width="0.780023" height="602.846" transform="rotate(-169.43 1321.59 592.714)" fill="black"/>
<rect x="1343.5" y="596.802" width="0.780023" height="602.846" transform="rotate(-169.43 1343.5 596.802)" fill="black"/>
<rect x="1317.21" y="591.896" width="0.780023" height="602.846" transform="rotate(-169.43 1317.21 591.896)" fill="black"/>
<rect x="1339.12" y="595.985" width="0.780023" height="602.846" transform="rotate(-169.43 1339.12 595.985)" fill="black"/>
<rect x="1312.84" y="591.079" width="0.780023" height="602.846" transform="rotate(-169.43 1312.84 591.079)" fill="black"/>
<rect x="1334.74" y="595.167" width="0.780023" height="602.846" transform="rotate(-169.43 1334.74 595.167)" fill="black"/>
<rect x="1308.45" y="590.261" width="0.780023" height="602.846" transform="rotate(-169.43 1308.45 590.261)" fill="black"/>
<rect x="1330.36" y="594.349" width="0.780023" height="602.846" transform="rotate(-169.43 1330.36 594.349)" fill="black"/>
<rect x="1304.06" y="589.444" width="0.780023" height="602.846" transform="rotate(-169.43 1304.06 589.444)" fill="black"/>
<rect x="1299.69" y="588.626" width="0.780023" height="602.846" transform="rotate(-169.43 1299.69 588.626)" fill="black"/>
<rect x="1273.4" y="583.721" width="0.780023" height="602.846" transform="rotate(-169.43 1273.4 583.721)" fill="black"/>
<rect x="1295.3" y="587.809" width="0.780023" height="602.846" transform="rotate(-169.43 1295.3 587.809)" fill="black"/>
<rect x="1269.02" y="582.903" width="0.780023" height="602.846" transform="rotate(-169.43 1269.02 582.903)" fill="black"/>
<rect x="1290.93" y="586.991" width="0.780023" height="602.846" transform="rotate(-169.43 1290.93 586.991)" fill="black"/>
<rect x="1264.63" y="582.085" width="0.780023" height="602.846" transform="rotate(-169.43 1264.63 582.085)" fill="black"/>
<rect x="1286.54" y="586.173" width="0.780023" height="602.846" transform="rotate(-169.43 1286.54 586.173)" fill="black"/>
<rect x="1260.25" y="581.268" width="0.780023" height="602.846" transform="rotate(-169.43 1260.25 581.268)" fill="black"/>
<rect x="1282.16" y="585.356" width="0.780023" height="602.846" transform="rotate(-169.43 1282.16 585.356)" fill="black"/>
<rect x="1255.87" y="580.45" width="0.780023" height="602.846" transform="rotate(-169.43 1255.87 580.45)" fill="black"/>
<rect x="1277.78" y="584.538" width="0.780023" height="602.846" transform="rotate(-169.43 1277.78 584.538)" fill="black"/>
<rect x="1251.49" y="579.633" width="0.780023" height="602.846" transform="rotate(-169.43 1251.49 579.633)" fill="black"/>
<rect x="1247.1" y="578.815" width="0.780023" height="602.846" transform="rotate(-169.43 1247.1 578.815)" fill="black"/>
<rect x="1220.81" y="573.91" width="0.780023" height="602.846" transform="rotate(-169.43 1220.81 573.91)" fill="black"/>
<rect x="1242.72" y="577.997" width="0.780023" height="602.846" transform="rotate(-169.43 1242.72 577.997)" fill="black"/>
<rect x="1216.44" y="573.092" width="0.780023" height="602.846" transform="rotate(-169.43 1216.44 573.092)" fill="black"/>
<rect x="1238.34" y="577.18" width="0.780023" height="602.846" transform="rotate(-169.43 1238.34 577.18)" fill="black"/>
<rect x="1212.05" y="572.274" width="0.780023" height="602.846" transform="rotate(-169.43 1212.05 572.274)" fill="black"/>
<rect x="1233.96" y="576.362" width="0.780023" height="602.846" transform="rotate(-169.43 1233.96 576.362)" fill="black"/>
<rect x="1207.66" y="571.457" width="0.780023" height="602.846" transform="rotate(-169.43 1207.66 571.457)" fill="black"/>
<rect x="1229.59" y="575.544" width="0.780023" height="602.846" transform="rotate(-169.43 1229.59 575.544)" fill="black"/>
<rect x="1203.29" y="570.639" width="0.780023" height="602.846" transform="rotate(-169.43 1203.29 570.639)" fill="black"/>
<rect x="1225.2" y="574.727" width="0.780023" height="602.846" transform="rotate(-169.43 1225.2 574.727)" fill="black"/>
<rect x="1198.91" y="569.822" width="0.780023" height="602.846" transform="rotate(-169.43 1198.91 569.822)" fill="black"/>
<rect x="1195.09" y="569.11" width="0.780023" height="602.846" transform="rotate(-169.43 1195.09 569.11)" fill="black"/>
<rect x="1168.8" y="564.204" width="0.780023" height="602.846" transform="rotate(-169.43 1168.8 564.204)" fill="black"/>
<rect x="1190.72" y="568.292" width="0.780023" height="602.846" transform="rotate(-169.43 1190.72 568.292)" fill="black"/>
<rect x="1164.42" y="563.387" width="0.780023" height="602.846" transform="rotate(-169.43 1164.42 563.387)" fill="black"/>
<rect x="1186.34" y="567.475" width="0.780023" height="602.846" transform="rotate(-169.43 1186.34 567.475)" fill="black"/>
<rect x="1160.04" y="562.569" width="0.780023" height="602.846" transform="rotate(-169.43 1160.04 562.569)" fill="black"/>
<rect x="1181.95" y="566.657" width="0.780023" height="602.846" transform="rotate(-169.43 1181.95 566.657)" fill="black"/>
<rect x="1155.66" y="561.752" width="0.780023" height="602.846" transform="rotate(-169.43 1155.66 561.752)" fill="black"/>
<rect x="1177.56" y="565.84" width="0.780023" height="602.846" transform="rotate(-169.43 1177.56 565.84)" fill="black"/>
<rect x="1151.27" y="560.934" width="0.780023" height="602.846" transform="rotate(-169.43 1151.27 560.934)" fill="black"/>
<rect x="1173.2" y="565.022" width="0.780023" height="602.846" transform="rotate(-169.43 1173.2 565.022)" fill="black"/>
<rect x="1146.91" y="560.116" width="0.780023" height="602.846" transform="rotate(-169.43 1146.91 560.116)" fill="black"/>
<rect x="1142.52" y="559.299" width="0.780023" height="602.846" transform="rotate(-169.43 1142.52 559.299)" fill="black"/>
<rect x="1116.23" y="554.393" width="0.780023" height="602.846" transform="rotate(-169.43 1116.23 554.393)" fill="black"/>
<rect x="1138.14" y="558.481" width="0.780023" height="602.846" transform="rotate(-169.43 1138.14 558.481)" fill="black"/>
<rect x="1111.85" y="553.576" width="0.780023" height="602.846" transform="rotate(-169.43 1111.85 553.576)" fill="black"/>
<rect x="1133.76" y="557.664" width="0.780023" height="602.846" transform="rotate(-169.43 1133.76 557.664)" fill="black"/>
<rect x="1107.47" y="552.758" width="0.780023" height="602.846" transform="rotate(-169.43 1107.47 552.758)" fill="black"/>
<rect x="1129.38" y="556.846" width="0.780023" height="602.846" transform="rotate(-169.43 1129.38 556.846)" fill="black"/>
<rect x="1103.07" y="551.941" width="0.780023" height="602.846" transform="rotate(-169.43 1103.07 551.941)" fill="black"/>
<rect x="1125" y="556.028" width="0.780023" height="602.846" transform="rotate(-169.43 1125 556.028)" fill="black"/>
<rect x="1098.7" y="551.123" width="0.780023" height="602.846" transform="rotate(-169.43 1098.7 551.123)" fill="black"/>
<rect x="1120.61" y="555.211" width="0.780023" height="602.846" transform="rotate(-169.43 1120.61 555.211)" fill="black"/>
<rect x="1094.31" y="550.305" width="0.780023" height="602.846" transform="rotate(-169.43 1094.31 550.305)" fill="black"/>
<rect x="1089.95" y="549.488" width="0.780023" height="602.846" transform="rotate(-169.43 1089.95 549.488)" fill="black"/>
<rect x="1063.65" y="544.582" width="0.780023" height="602.846" transform="rotate(-169.43 1063.65 544.582)" fill="black"/>
<rect x="1085.55" y="548.67" width="0.780023" height="602.846" transform="rotate(-169.43 1085.55 548.67)" fill="black"/>
<rect x="1059.27" y="543.765" width="0.780023" height="602.846" transform="rotate(-169.43 1059.27 543.765)" fill="black"/>
<rect x="1081.17" y="547.852" width="0.780023" height="602.846" transform="rotate(-169.43 1081.17 547.852)" fill="black"/>
<rect x="1054.88" y="542.947" width="0.780023" height="602.846" transform="rotate(-169.43 1054.88 542.947)" fill="black"/>
<rect x="1076.8" y="547.035" width="0.780023" height="602.846" transform="rotate(-169.43 1076.8 547.035)" fill="black"/>
<rect x="1050.51" y="542.129" width="0.780023" height="602.846" transform="rotate(-169.43 1050.51 542.129)" fill="black"/>
<rect x="1072.41" y="546.217" width="0.780023" height="602.846" transform="rotate(-169.43 1072.41 546.217)" fill="black"/>
<rect x="1046.12" y="541.312" width="0.780023" height="602.846" transform="rotate(-169.43 1046.12 541.312)" fill="black"/>
<rect x="1068.03" y="545.4" width="0.780023" height="602.846" transform="rotate(-169.43 1068.03 545.4)" fill="black"/>
<rect x="1041.73" y="540.494" width="0.780023" height="602.846" transform="rotate(-169.43 1041.73 540.494)" fill="black"/>
<rect x="1037.36" y="539.677" width="0.780023" height="602.846" transform="rotate(-169.43 1037.36 539.677)" fill="black"/>
<rect x="1011.07" y="534.771" width="0.780023" height="602.846" transform="rotate(-169.43 1011.07 534.771)" fill="black"/>
<rect x="1032.98" y="538.859" width="0.780023" height="602.846" transform="rotate(-169.43 1032.98 538.859)" fill="black"/>
<rect x="1006.69" y="533.953" width="0.780023" height="602.846" transform="rotate(-169.43 1006.69 533.953)" fill="black"/>
<rect x="1028.6" y="538.041" width="0.780023" height="602.846" transform="rotate(-169.43 1028.6 538.041)" fill="black"/>
<rect x="1002.31" y="533.136" width="0.780023" height="602.846" transform="rotate(-169.43 1002.31 533.136)" fill="black"/>
<rect x="1024.21" y="537.223" width="0.780023" height="602.846" transform="rotate(-169.43 1024.21 537.223)" fill="black"/>
<rect x="997.922" y="532.318" width="0.780023" height="602.846" transform="rotate(-169.43 997.922 532.318)" fill="black"/>
<rect x="1019.83" y="536.406" width="0.780023" height="602.846" transform="rotate(-169.43 1019.83 536.406)" fill="black"/>
<rect x="993.539" y="531.5" width="0.780023" height="602.846" transform="rotate(-169.43 993.539 531.5)" fill="black"/>
<rect x="1015.45" y="535.588" width="0.780023" height="602.846" transform="rotate(-169.43 1015.45 535.588)" fill="black"/>
<rect x="989.164" y="530.683" width="0.780023" height="602.846" transform="rotate(-169.43 989.164 530.683)" fill="black"/>
<rect x="984.773" y="529.865" width="0.780023" height="602.846" transform="rotate(-169.43 984.773 529.865)" fill="black"/>
<rect x="958.484" y="524.96" width="0.780023" height="602.846" transform="rotate(-169.43 958.484 524.96)" fill="black"/>
<rect x="980.391" y="529.048" width="0.780023" height="602.846" transform="rotate(-169.43 980.391 529.048)" fill="black"/>
<rect x="954.109" y="524.142" width="0.780023" height="602.846" transform="rotate(-169.43 954.109 524.142)" fill="black"/>
<rect x="976.016" y="528.23" width="0.780023" height="602.846" transform="rotate(-169.43 976.016 528.23)" fill="black"/>
<rect x="949.727" y="523.324" width="0.780023" height="602.846" transform="rotate(-169.43 949.727 523.324)" fill="black"/>
<rect x="971.633" y="527.412" width="0.780023" height="602.846" transform="rotate(-169.43 971.633 527.412)" fill="black"/>
<rect x="945.336" y="522.507" width="0.780023" height="602.846" transform="rotate(-169.43 945.336 522.507)" fill="black"/>
<rect x="967.258" y="526.595" width="0.780023" height="602.846" transform="rotate(-169.43 967.258 526.595)" fill="black"/>
<rect x="940.961" y="521.689" width="0.780023" height="602.846" transform="rotate(-169.43 940.961 521.689)" fill="black"/>
<rect x="962.867" y="525.777" width="0.780023" height="602.846" transform="rotate(-169.43 962.867 525.777)" fill="black"/>
<rect x="936.586" y="520.872" width="0.780023" height="602.846" transform="rotate(-169.43 936.586 520.872)" fill="black"/>
<rect x="932.195" y="520.054" width="0.780023" height="602.846" transform="rotate(-169.43 932.195 520.054)" fill="black"/>
<rect x="905.898" y="515.148" width="0.780023" height="602.846" transform="rotate(-169.43 905.898 515.148)" fill="black"/>
<rect x="927.82" y="519.237" width="0.780023" height="602.846" transform="rotate(-169.43 927.82 519.237)" fill="black"/>
<rect x="901.531" y="514.331" width="0.780023" height="602.846" transform="rotate(-169.43 901.531 514.331)" fill="black"/>
<rect x="923.43" y="518.419" width="0.780023" height="602.846" transform="rotate(-169.43 923.43 518.419)" fill="black"/>
<rect x="897.141" y="513.513" width="0.780023" height="602.846" transform="rotate(-169.43 897.141 513.513)" fill="black"/>
<rect x="919.055" y="517.601" width="0.780023" height="602.846" transform="rotate(-169.43 919.055 517.601)" fill="black"/>
<rect x="892.773" y="512.696" width="0.780023" height="602.846" transform="rotate(-169.43 892.773 512.696)" fill="black"/>
<rect x="914.672" y="516.784" width="0.780023" height="602.846" transform="rotate(-169.43 914.672 516.784)" fill="black"/>
<rect x="888.383" y="511.878" width="0.780023" height="602.846" transform="rotate(-169.43 888.383 511.878)" fill="black"/>
<rect x="910.297" y="515.966" width="0.780023" height="602.846" transform="rotate(-169.43 910.297 515.966)" fill="black"/>
<rect x="884" y="511.06" width="0.780023" height="602.846" transform="rotate(-169.43 884 511.06)" fill="black"/>
<rect x="879.617" y="510.243" width="0.780023" height="602.846" transform="rotate(-169.43 879.617 510.243)" fill="black"/>
<rect x="853.336" y="505.337" width="0.780023" height="602.846" transform="rotate(-169.43 853.336 505.337)" fill="black"/>
<rect x="875.234" y="509.425" width="0.780023" height="602.846" transform="rotate(-169.43 875.234 509.425)" fill="black"/>
<rect x="848.945" y="504.52" width="0.780023" height="602.846" transform="rotate(-169.43 848.945 504.52)" fill="black"/>
<rect x="870.852" y="508.608" width="0.780023" height="602.846" transform="rotate(-169.43 870.852 508.608)" fill="black"/>
<rect x="844.57" y="503.702" width="0.780023" height="602.846" transform="rotate(-169.43 844.57 503.702)" fill="black"/>
<rect x="866.469" y="507.79" width="0.780023" height="602.846" transform="rotate(-169.43 866.469 507.79)" fill="black"/>
<rect x="840.18" y="502.884" width="0.780023" height="602.846" transform="rotate(-169.43 840.18 502.884)" fill="black"/>
<rect x="862.094" y="506.973" width="0.780023" height="602.846" transform="rotate(-169.43 862.094 506.973)" fill="black"/>
<rect x="835.805" y="502.067" width="0.780023" height="602.846" transform="rotate(-169.43 835.805 502.067)" fill="black"/>
<rect x="857.703" y="506.155" width="0.780023" height="602.846" transform="rotate(-169.43 857.703 506.155)" fill="black"/>
<rect x="831.422" y="501.249" width="0.780023" height="602.846" transform="rotate(-169.43 831.422 501.249)" fill="black"/>
<rect x="827.039" y="500.431" width="0.780023" height="602.846" transform="rotate(-169.43 827.039 500.431)" fill="black"/>
<rect x="800.75" y="495.526" width="0.780023" height="602.846" transform="rotate(-169.43 800.75 495.526)" fill="black"/>
<rect x="822.648" y="499.614" width="0.780023" height="602.846" transform="rotate(-169.43 822.648 499.614)" fill="black"/>
<rect x="796.367" y="494.708" width="0.780023" height="602.846" transform="rotate(-169.43 796.367 494.708)" fill="black"/>
<rect x="818.281" y="498.796" width="0.780023" height="602.846" transform="rotate(-169.43 818.281 498.796)" fill="black"/>
<rect x="791.992" y="493.891" width="0.780023" height="602.846" transform="rotate(-169.43 791.992 493.891)" fill="black"/>
<rect x="813.891" y="497.979" width="0.780023" height="602.846" transform="rotate(-169.43 813.891 497.979)" fill="black"/>
<rect x="787.602" y="493.073" width="0.780023" height="602.846" transform="rotate(-169.43 787.602 493.073)" fill="black"/>
<rect x="809.516" y="497.161" width="0.780023" height="602.846" transform="rotate(-169.43 809.516 497.161)" fill="black"/>
<rect x="783.227" y="492.255" width="0.780023" height="602.846" transform="rotate(-169.43 783.227 492.255)" fill="black"/>
<rect x="805.125" y="496.344" width="0.780023" height="602.846" transform="rotate(-169.43 805.125 496.344)" fill="black"/>
<rect x="778.844" y="491.438" width="0.780023" height="602.846" transform="rotate(-169.43 778.844 491.438)" fill="black"/>
<rect x="774.625" y="489.816" width="0.780023" height="602.846" transform="rotate(-169.43 774.625 489.816)" fill="black"/>
<rect x="748.336" y="484.911" width="0.780023" height="602.846" transform="rotate(-169.43 748.336 484.911)" fill="black"/>
<rect x="770.242" y="488.999" width="0.780023" height="602.846" transform="rotate(-169.43 770.242 488.999)" fill="black"/>
<rect x="743.953" y="484.093" width="0.780023" height="602.846" transform="rotate(-169.43 743.953 484.093)" fill="black"/>
<rect x="765.867" y="488.181" width="0.780023" height="602.846" transform="rotate(-169.43 765.867 488.181)" fill="black"/>
<rect x="739.57" y="483.276" width="0.780023" height="602.846" transform="rotate(-169.43 739.57 483.276)" fill="black"/>
<rect x="761.477" y="487.364" width="0.780023" height="602.846" transform="rotate(-169.43 761.477 487.364)" fill="black"/>
<rect x="735.188" y="482.458" width="0.780023" height="602.846" transform="rotate(-169.43 735.188 482.458)" fill="black"/>
<rect x="757.094" y="486.546" width="0.780023" height="602.846" transform="rotate(-169.43 757.094 486.546)" fill="black"/>
<rect x="730.812" y="481.64" width="0.780023" height="602.846" transform="rotate(-169.43 730.812 481.64)" fill="black"/>
<rect x="752.719" y="485.728" width="0.780023" height="602.846" transform="rotate(-169.43 752.719 485.728)" fill="black"/>
<rect x="726.43" y="480.823" width="0.780023" height="602.846" transform="rotate(-169.43 726.43 480.823)" fill="black"/>
<rect x="722.039" y="480.005" width="0.780023" height="602.846" transform="rotate(-169.43 722.039 480.005)" fill="black"/>
<rect x="695.758" y="475.1" width="0.780023" height="602.846" transform="rotate(-169.43 695.758 475.1)" fill="black"/>
<rect x="717.664" y="479.188" width="0.780023" height="602.846" transform="rotate(-169.43 717.664 479.188)" fill="black"/>
<rect x="691.375" y="474.282" width="0.780023" height="602.846" transform="rotate(-169.43 691.375 474.282)" fill="black"/>
<rect x="713.281" y="478.37" width="0.780023" height="602.846" transform="rotate(-169.43 713.281 478.37)" fill="black"/>
<rect x="687" y="473.464" width="0.780023" height="602.846" transform="rotate(-169.43 687 473.464)" fill="black"/>
<rect x="708.898" y="477.552" width="0.780023" height="602.846" transform="rotate(-169.43 708.898 477.552)" fill="black"/>
<rect x="682.609" y="472.647" width="0.780023" height="602.846" transform="rotate(-169.43 682.609 472.647)" fill="black"/>
<rect x="704.523" y="476.735" width="0.780023" height="602.846" transform="rotate(-169.43 704.523 476.735)" fill="black"/>
<rect x="678.234" y="471.829" width="0.780023" height="602.846" transform="rotate(-169.43 678.234 471.829)" fill="black"/>
<rect x="700.133" y="475.917" width="0.780023" height="602.846" transform="rotate(-169.43 700.133 475.917)" fill="black"/>
<rect x="673.844" y="471.012" width="0.780023" height="602.846" transform="rotate(-169.43 673.844 471.012)" fill="black"/>
<rect x="669.477" y="470.194" width="0.780023" height="602.846" transform="rotate(-169.43 669.477 470.194)" fill="black"/>
<rect x="643.172" y="465.288" width="0.780023" height="602.846" transform="rotate(-169.43 643.172 465.288)" fill="black"/>
<rect x="665.086" y="469.376" width="0.780023" height="602.846" transform="rotate(-169.43 665.086 469.376)" fill="black"/>
<rect x="638.789" y="464.471" width="0.780023" height="602.846" transform="rotate(-169.43 638.789 464.471)" fill="black"/>
<rect x="660.703" y="468.559" width="0.780023" height="602.846" transform="rotate(-169.43 660.703 468.559)" fill="black"/>
<rect x="634.406" y="463.653" width="0.780023" height="602.846" transform="rotate(-169.43 634.406 463.653)" fill="black"/>
<rect x="656.32" y="467.741" width="0.780023" height="602.846" transform="rotate(-169.43 656.32 467.741)" fill="black"/>
<rect x="630.039" y="462.836" width="0.780023" height="602.846" transform="rotate(-169.43 630.039 462.836)" fill="black"/>
<rect x="651.938" y="466.924" width="0.780023" height="602.846" transform="rotate(-169.43 651.938 466.924)" fill="black"/>
<rect x="625.648" y="462.018" width="0.780023" height="602.846" transform="rotate(-169.43 625.648 462.018)" fill="black"/>
<rect x="647.555" y="466.106" width="0.780023" height="602.846" transform="rotate(-169.43 647.555 466.106)" fill="black"/>
<rect x="621.273" y="461.2" width="0.780023" height="602.846" transform="rotate(-169.43 621.273 461.2)" fill="black"/>
<rect x="616.883" y="460.383" width="0.780023" height="602.846" transform="rotate(-169.43 616.883 460.383)" fill="black"/>
<rect x="590.594" y="455.477" width="0.780023" height="602.846" transform="rotate(-169.43 590.594 455.477)" fill="black"/>
<rect x="612.508" y="459.565" width="0.780023" height="602.846" transform="rotate(-169.43 612.508 459.565)" fill="black"/>
<rect x="586.211" y="454.659" width="0.780023" height="602.846" transform="rotate(-169.43 586.211 454.659)" fill="black"/>
<rect x="608.125" y="458.747" width="0.780023" height="602.846" transform="rotate(-169.43 608.125 458.747)" fill="black"/>
<rect x="581.828" y="453.842" width="0.780023" height="602.846" transform="rotate(-169.43 581.828 453.842)" fill="black"/>
<rect x="603.742" y="457.93" width="0.780023" height="602.846" transform="rotate(-169.43 603.742 457.93)" fill="black"/>
<rect x="577.453" y="453.024" width="0.780023" height="602.846" transform="rotate(-169.43 577.453 453.024)" fill="black"/>
<rect x="599.352" y="457.112" width="0.780023" height="602.846" transform="rotate(-169.43 599.352 457.112)" fill="black"/>
<rect x="573.062" y="452.207" width="0.780023" height="602.846" transform="rotate(-169.43 573.062 452.207)" fill="black"/>
<rect x="594.984" y="456.295" width="0.780023" height="602.846" transform="rotate(-169.43 594.984 456.295)" fill="black"/>
<rect x="568.695" y="451.389" width="0.780023" height="602.846" transform="rotate(-169.43 568.695 451.389)" fill="black"/>
<rect x="564.305" y="450.571" width="0.780023" height="602.846" transform="rotate(-169.43 564.305 450.571)" fill="black"/>
<rect x="538.016" y="445.666" width="0.780023" height="602.846" transform="rotate(-169.43 538.016 445.666)" fill="black"/>
<rect x="559.93" y="449.754" width="0.780023" height="602.846" transform="rotate(-169.43 559.93 449.754)" fill="black"/>
<rect x="533.633" y="444.848" width="0.780023" height="602.846" transform="rotate(-169.43 533.633 444.848)" fill="black"/>
<rect x="555.547" y="448.936" width="0.780023" height="602.846" transform="rotate(-169.43 555.547 448.936)" fill="black"/>
<rect x="529.258" y="444.031" width="0.780023" height="602.846" transform="rotate(-169.43 529.258 444.031)" fill="black"/>
<rect x="551.164" y="448.119" width="0.780023" height="602.846" transform="rotate(-169.43 551.164 448.119)" fill="black"/>
<rect x="524.859" y="443.213" width="0.780023" height="602.846" transform="rotate(-169.43 524.859 443.213)" fill="black"/>
<rect x="546.781" y="447.301" width="0.780023" height="602.846" transform="rotate(-169.43 546.781 447.301)" fill="black"/>
<rect x="520.492" y="442.396" width="0.780023" height="602.846" transform="rotate(-169.43 520.492 442.396)" fill="black"/>
<rect x="542.398" y="446.484" width="0.780023" height="602.846" transform="rotate(-169.43 542.398 446.484)" fill="black"/>
<rect x="516.102" y="441.578" width="0.780023" height="602.846" transform="rotate(-169.43 516.102 441.578)" fill="black"/>
<rect x="511.727" y="440.76" width="0.780023" height="602.846" transform="rotate(-169.43 511.727 440.76)" fill="black"/>
<rect x="485.438" y="435.855" width="0.780023" height="602.846" transform="rotate(-169.43 485.438 435.855)" fill="black"/>
<rect x="507.344" y="439.943" width="0.780023" height="602.846" transform="rotate(-169.43 507.344 439.943)" fill="black"/>
<rect x="481.055" y="435.037" width="0.780023" height="602.846" transform="rotate(-169.43 481.055 435.037)" fill="black"/>
<rect x="502.961" y="439.125" width="0.780023" height="602.846" transform="rotate(-169.43 502.961 439.125)" fill="black"/>
<rect x="476.672" y="434.22" width="0.780023" height="602.846" transform="rotate(-169.43 476.672 434.22)" fill="black"/>
<rect x="498.578" y="438.308" width="0.780023" height="602.846" transform="rotate(-169.43 498.578 438.308)" fill="black"/>
<rect x="472.297" y="433.402" width="0.780023" height="602.846" transform="rotate(-169.43 472.297 433.402)" fill="black"/>
<rect x="494.203" y="437.49" width="0.780023" height="602.846" transform="rotate(-169.43 494.203 437.49)" fill="black"/>
<rect x="467.906" y="432.584" width="0.780023" height="602.846" transform="rotate(-169.43 467.906 432.584)" fill="black"/>
<rect x="489.82" y="436.672" width="0.780023" height="602.846" transform="rotate(-169.43 489.82 436.672)" fill="black"/>
<rect x="463.523" y="431.767" width="0.780023" height="602.846" transform="rotate(-169.43 463.523 431.767)" fill="black"/>
<rect x="459.148" y="430.949" width="0.780023" height="602.846" transform="rotate(-169.43 459.148 430.949)" fill="black"/>
<rect x="432.859" y="426.044" width="0.780023" height="602.846" transform="rotate(-169.43 432.859 426.044)" fill="black"/>
<rect x="454.766" y="430.132" width="0.780023" height="602.846" transform="rotate(-169.43 454.766 430.132)" fill="black"/>
<rect x="428.477" y="425.226" width="0.780023" height="602.846" transform="rotate(-169.43 428.477 425.226)" fill="black"/>
<rect x="450.383" y="429.314" width="0.780023" height="602.846" transform="rotate(-169.43 450.383 429.314)" fill="black"/>
<rect x="424.094" y="424.408" width="0.780023" height="602.846" transform="rotate(-169.43 424.094 424.408)" fill="black"/>
<rect x="446" y="428.496" width="0.780023" height="602.846" transform="rotate(-169.43 446 428.496)" fill="black"/>
<rect x="419.711" y="423.591" width="0.780023" height="602.846" transform="rotate(-169.43 419.711 423.591)" fill="black"/>
<rect x="441.617" y="427.679" width="0.780023" height="602.846" transform="rotate(-169.43 441.617 427.679)" fill="black"/>
<rect x="415.328" y="422.773" width="0.780023" height="602.846" transform="rotate(-169.43 415.328 422.773)" fill="black"/>
<rect x="437.242" y="426.862" width="0.780023" height="602.846" transform="rotate(-169.43 437.242 426.862)" fill="black"/>
<rect x="410.953" y="421.956" width="0.780023" height="602.846" transform="rotate(-169.43 410.953 421.956)" fill="black"/>
<rect x="406.562" y="421.138" width="0.780023" height="602.846" transform="rotate(-169.43 406.562 421.138)" fill="black"/>
<rect x="380.273" y="416.232" width="0.780023" height="602.846" transform="rotate(-169.43 380.273 416.232)" fill="black"/>
<rect x="402.18" y="420.32" width="0.780023" height="602.846" transform="rotate(-169.43 402.18 420.32)" fill="black"/>
<rect x="375.898" y="415.415" width="0.780023" height="602.846" transform="rotate(-169.43 375.898 415.415)" fill="black"/>
<rect x="397.805" y="419.503" width="0.780023" height="602.846" transform="rotate(-169.43 397.805 419.503)" fill="black"/>
<rect x="371.516" y="414.597" width="0.780023" height="602.846" transform="rotate(-169.43 371.516 414.597)" fill="black"/>
<rect x="393.422" y="418.685" width="0.780023" height="602.846" transform="rotate(-169.43 393.422 418.685)" fill="black"/>
<rect x="367.125" y="413.78" width="0.780023" height="602.846" transform="rotate(-169.43 367.125 413.78)" fill="black"/>
<rect x="389.047" y="417.868" width="0.780023" height="602.846" transform="rotate(-169.43 389.047 417.868)" fill="black"/>
<rect x="362.75" y="412.962" width="0.780023" height="602.846" transform="rotate(-169.43 362.75 412.962)" fill="black"/>
<rect x="384.656" y="417.05" width="0.780023" height="602.846" transform="rotate(-169.43 384.656 417.05)" fill="black"/>
<rect x="358.367" y="412.144" width="0.780023" height="602.846" transform="rotate(-169.43 358.367 412.144)" fill="black"/>
<rect x="354.555" y="411.433" width="0.780023" height="602.846" transform="rotate(-169.43 354.555 411.433)" fill="black"/>
<rect x="328.266" y="406.527" width="0.780023" height="602.846" transform="rotate(-169.43 328.266 406.527)" fill="black"/>
<rect x="350.18" y="410.615" width="0.780023" height="602.846" transform="rotate(-169.43 350.18 410.615)" fill="black"/>
<rect x="323.883" y="405.71" width="0.780023" height="602.846" transform="rotate(-169.43 323.883 405.71)" fill="black"/>
<rect x="345.797" y="409.798" width="0.780023" height="602.846" transform="rotate(-169.43 345.797 409.798)" fill="black"/>
<rect x="319.5" y="404.892" width="0.780023" height="602.846" transform="rotate(-169.43 319.5 404.892)" fill="black"/>
<rect x="341.414" y="408.98" width="0.780023" height="602.846" transform="rotate(-169.43 341.414 408.98)" fill="black"/>
<rect x="315.125" y="404.075" width="0.780023" height="602.846" transform="rotate(-169.43 315.125 404.075)" fill="black"/>
<rect x="337.023" y="408.163" width="0.780023" height="602.846" transform="rotate(-169.43 337.023 408.163)" fill="black"/>
<rect x="310.734" y="403.257" width="0.780023" height="602.846" transform="rotate(-169.43 310.734 403.257)" fill="black"/>
<rect x="332.656" y="407.345" width="0.780023" height="602.846" transform="rotate(-169.43 332.656 407.345)" fill="black"/>
<rect x="306.367" y="402.439" width="0.780023" height="602.846" transform="rotate(-169.43 306.367 402.439)" fill="black"/>
<rect x="301.977" y="401.622" width="0.780023" height="602.846" transform="rotate(-169.43 301.977 401.622)" fill="black"/>
<rect x="275.688" y="396.716" width="0.780023" height="602.846" transform="rotate(-169.43 275.688 396.716)" fill="black"/>
<rect x="297.602" y="400.804" width="0.780023" height="602.846" transform="rotate(-169.43 297.602 400.804)" fill="black"/>
<rect x="271.312" y="395.899" width="0.780023" height="602.846" transform="rotate(-169.43 271.312 395.899)" fill="black"/>
<rect x="293.219" y="399.987" width="0.780023" height="602.846" transform="rotate(-169.43 293.219 399.987)" fill="black"/>
<rect x="266.93" y="395.081" width="0.780023" height="602.846" transform="rotate(-169.43 266.93 395.081)" fill="black"/>
<rect x="288.836" y="399.169" width="0.780023" height="602.846" transform="rotate(-169.43 288.836 399.169)" fill="black"/>
<rect x="262.531" y="394.264" width="0.780023" height="602.846" transform="rotate(-169.43 262.531 394.264)" fill="black"/>
<rect x="284.461" y="398.351" width="0.780023" height="602.846" transform="rotate(-169.43 284.461 398.351)" fill="black"/>
<rect x="258.164" y="393.446" width="0.780023" height="602.846" transform="rotate(-169.43 258.164 393.446)" fill="black"/>
<rect x="280.07" y="397.534" width="0.780023" height="602.846" transform="rotate(-169.43 280.07 397.534)" fill="black"/>
<rect x="253.773" y="392.628" width="0.780023" height="602.846" transform="rotate(-169.43 253.773 392.628)" fill="black"/>
<rect x="249.406" y="391.81" width="0.780023" height="602.846" transform="rotate(-169.43 249.406 391.81)" fill="black"/>
<rect x="223.109" y="386.905" width="0.780023" height="602.846" transform="rotate(-169.43 223.109 386.905)" fill="black"/>
<rect x="245.016" y="390.993" width="0.780023" height="602.846" transform="rotate(-169.43 245.016 390.993)" fill="black"/>
<rect x="218.727" y="386.088" width="0.780023" height="602.846" transform="rotate(-169.43 218.727 386.088)" fill="black"/>
<rect x="240.633" y="390.175" width="0.780023" height="602.846" transform="rotate(-169.43 240.633 390.175)" fill="black"/>
<rect x="214.344" y="385.27" width="0.780023" height="602.846" transform="rotate(-169.43 214.344 385.27)" fill="black"/>
<rect x="236.25" y="389.358" width="0.780023" height="602.846" transform="rotate(-169.43 236.25 389.358)" fill="black"/>
<rect x="209.969" y="384.452" width="0.780023" height="602.846" transform="rotate(-169.43 209.969 384.452)" fill="black"/>
<rect x="231.875" y="388.54" width="0.780023" height="602.846" transform="rotate(-169.43 231.875 388.54)" fill="black"/>
<rect x="205.586" y="383.635" width="0.780023" height="602.846" transform="rotate(-169.43 205.586 383.635)" fill="black"/>
<rect x="227.492" y="387.723" width="0.780023" height="602.846" transform="rotate(-169.43 227.492 387.723)" fill="black"/>
<rect x="201.195" y="382.817" width="0.780023" height="602.846" transform="rotate(-169.43 201.195 382.817)" fill="black"/>
<rect x="196.82" y="382" width="0.780023" height="602.846" transform="rotate(-169.43 196.82 382)" fill="black"/>
<rect x="170.531" y="377.094" width="0.780023" height="602.846" transform="rotate(-169.43 170.531 377.094)" fill="black"/>
<rect x="192.438" y="381.182" width="0.780023" height="602.846" transform="rotate(-169.43 192.438 381.182)" fill="black"/>
<rect x="166.148" y="376.276" width="0.780023" height="602.846" transform="rotate(-169.43 166.148 376.276)" fill="black"/>
<rect x="188.055" y="380.364" width="0.780023" height="602.846" transform="rotate(-169.43 188.055 380.364)" fill="black"/>
<rect x="161.773" y="375.459" width="0.780023" height="602.846" transform="rotate(-169.43 161.773 375.459)" fill="black"/>
<rect x="183.672" y="379.546" width="0.780023" height="602.846" transform="rotate(-169.43 183.672 379.546)" fill="black"/>
<rect x="157.383" y="374.641" width="0.780023" height="602.846" transform="rotate(-169.43 157.383 374.641)" fill="black"/>
<rect x="179.289" y="378.729" width="0.780023" height="602.846" transform="rotate(-169.43 179.289 378.729)" fill="black"/>
<rect x="153" y="373.823" width="0.780023" height="602.846" transform="rotate(-169.43 153 373.823)" fill="black"/>
<rect x="174.914" y="377.911" width="0.780023" height="602.846" transform="rotate(-169.43 174.914 377.911)" fill="black"/>
<rect x="148.625" y="373.006" width="0.780023" height="602.846" transform="rotate(-169.43 148.625 373.006)" fill="black"/>
<rect x="144.234" y="372.188" width="0.780023" height="602.846" transform="rotate(-169.43 144.234 372.188)" fill="black"/>
<rect x="117.945" y="367.283" width="0.780023" height="602.846" transform="rotate(-169.43 117.945 367.283)" fill="black"/>
<rect x="139.852" y="371.371" width="0.780023" height="602.846" transform="rotate(-169.43 139.852 371.371)" fill="black"/>
<rect x="113.57" y="366.465" width="0.780023" height="602.846" transform="rotate(-169.43 113.57 366.465)" fill="black"/>
<rect x="135.477" y="370.553" width="0.780023" height="602.846" transform="rotate(-169.43 135.477 370.553)" fill="black"/>
<rect x="109.188" y="365.648" width="0.780023" height="602.846" transform="rotate(-169.43 109.188 365.648)" fill="black"/>
<rect x="131.094" y="369.735" width="0.780023" height="602.846" transform="rotate(-169.43 131.094 369.735)" fill="black"/>
<rect x="104.797" y="364.83" width="0.780023" height="602.846" transform="rotate(-169.43 104.797 364.83)" fill="black"/>
<rect x="126.719" y="368.918" width="0.780023" height="602.846" transform="rotate(-169.43 126.719 368.918)" fill="black"/>
<rect x="100.422" y="364.012" width="0.780023" height="602.846" transform="rotate(-169.43 100.422 364.012)" fill="black"/>
<rect x="122.328" y="368.1" width="0.780023" height="602.846" transform="rotate(-169.43 122.328 368.1)" fill="black"/>
<rect x="96.0391" y="363.195" width="0.780023" height="602.846" transform="rotate(-169.43 96.0391 363.195)" fill="black"/>
<rect x="91.6562" y="362.377" width="0.780023" height="602.846" transform="rotate(-169.43 91.6562 362.377)" fill="black"/>
<rect x="65.3594" y="357.471" width="0.780023" height="602.846" transform="rotate(-169.43 65.3594 357.471)" fill="black"/>
<rect x="87.2812" y="361.559" width="0.780023" height="602.846" transform="rotate(-169.43 87.2812 361.559)" fill="black"/>
<rect x="60.9922" y="356.654" width="0.780023" height="602.846" transform="rotate(-169.43 60.9922 356.654)" fill="black"/>
<rect x="82.8906" y="360.742" width="0.780023" height="602.846" transform="rotate(-169.43 82.8906 360.742)" fill="black"/>
<rect x="56.6016" y="355.836" width="0.780023" height="602.846" transform="rotate(-169.43 56.6016 355.836)" fill="black"/>
<rect x="78.5156" y="359.924" width="0.780023" height="602.846" transform="rotate(-169.43 78.5156 359.924)" fill="black"/>
<rect x="52.2344" y="355.019" width="0.780023" height="602.846" transform="rotate(-169.43 52.2344 355.019)" fill="black"/>
<rect x="74.1328" y="359.107" width="0.780023" height="602.846" transform="rotate(-169.43 74.1328 359.107)" fill="black"/>
<rect x="47.8438" y="354.201" width="0.780023" height="602.846" transform="rotate(-169.43 47.8438 354.201)" fill="black"/>
<rect x="69.7578" y="358.289" width="0.780023" height="602.846" transform="rotate(-169.43 69.7578 358.289)" fill="black"/>
<rect x="43.4609" y="353.383" width="0.780023" height="602.846" transform="rotate(-169.43 43.4609 353.383)" fill="black"/>
<rect x="39.0781" y="352.566" width="0.780023" height="602.846" transform="rotate(-169.43 39.0781 352.566)" fill="black"/>
<rect x="12.7969" y="347.66" width="0.780023" height="602.846" transform="rotate(-169.43 12.7969 347.66)" fill="black"/>
<rect x="34.6953" y="351.748" width="0.780023" height="602.846" transform="rotate(-169.43 34.6953 351.748)" fill="black"/>
<rect x="8.40625" y="346.843" width="0.780023" height="602.846" transform="rotate(-169.43 8.40625 346.843)" fill="black"/>
<rect x="30.3125" y="350.931" width="0.780023" height="602.846" transform="rotate(-169.43 30.3125 350.931)" fill="black"/>
<rect x="4.03125" y="346.025" width="0.780023" height="602.846" transform="rotate(-169.43 4.03125 346.025)" fill="black"/>
<rect x="25.9297" y="350.113" width="0.780023" height="602.846" transform="rotate(-169.43 25.9297 350.113)" fill="black"/>
<rect x="-0.359375" y="345.208" width="0.780023" height="602.846" transform="rotate(-169.43 -0.359375 345.208)" fill="black"/>
<rect x="21.5547" y="349.296" width="0.780023" height="602.846" transform="rotate(-169.43 21.5547 349.296)" fill="black"/>
<rect x="-4.73438" y="344.39" width="0.780023" height="602.846" transform="rotate(-169.43 -4.73438 344.39)" fill="black"/>
<rect x="17.1641" y="348.478" width="0.780023" height="602.846" transform="rotate(-169.43 17.1641 348.478)" fill="black"/>
<rect x="-9.11719" y="343.572" width="0.780023" height="602.846" transform="rotate(-169.43 -9.11719 343.572)" fill="black"/>
<rect x="-13.5" y="342.755" width="0.780023" height="602.846" transform="rotate(-169.43 -13.5 342.755)" fill="black"/>
<rect x="-39.7891" y="337.849" width="0.780023" height="602.846" transform="rotate(-169.43 -39.7891 337.849)" fill="black"/>
<rect x="-17.8906" y="341.937" width="0.780023" height="602.846" transform="rotate(-169.43 -17.8906 341.937)" fill="black"/>
<rect x="-44.1797" y="337.032" width="0.780023" height="602.846" transform="rotate(-169.43 -44.1797 337.032)" fill="black"/>
<rect x="-22.2578" y="341.12" width="0.780023" height="602.846" transform="rotate(-169.43 -22.2578 341.12)" fill="black"/>
<rect x="-48.5469" y="336.214" width="0.780023" height="602.846" transform="rotate(-169.43 -48.5469 336.214)" fill="black"/>
<rect x="-26.6484" y="340.302" width="0.780023" height="602.846" transform="rotate(-169.43 -26.6484 340.302)" fill="black"/>
<rect x="-52.9375" y="335.396" width="0.780023" height="602.846" transform="rotate(-169.43 -52.9375 335.396)" fill="black"/>
<rect x="-31.0234" y="339.484" width="0.780023" height="602.846" transform="rotate(-169.43 -31.0234 339.484)" fill="black"/>
<rect x="-57.3125" y="334.578" width="0.780023" height="602.846" transform="rotate(-169.43 -57.3125 334.578)" fill="black"/>
<rect x="-35.4141" y="338.667" width="0.780023" height="602.846" transform="rotate(-169.43 -35.4141 338.667)" fill="black"/>
<rect x="-61.6953" y="333.761" width="0.780023" height="602.846" transform="rotate(-169.43 -61.6953 333.761)" fill="black"/>
</g>
</g>
</svg>
