<svg width="122" height="110" viewBox="0 0 122 110" fill="none" xmlns="http://www.w3.org/2000/svg">
<mask id="mask0_187_9228" style="mask-type:alpha" maskUnits="userSpaceOnUse" x="0" y="0" width="122" height="110">
<rect y="110" width="110" height="122" transform="rotate(-90 0 110)" fill="black"/>
</mask>
<g mask="url(#mask0_187_9228)">
<circle cx="20" cy="90" r="2" transform="rotate(-90 20 90)" fill="black"/>
<circle cx="20" cy="52" r="2" transform="rotate(-90 20 52)" fill="black"/>
<circle cx="20" cy="17" r="2" transform="rotate(-90 20 17)" fill="black"/>
<circle cx="58" cy="96" r="2" transform="rotate(-90 58 96)" fill="black"/>
<circle cx="58" cy="58" r="2" transform="rotate(-90 58 58)" fill="black"/>
<circle cx="58" cy="23" r="2" transform="rotate(-90 58 23)" fill="black"/>
<circle cx="96" cy="103" r="2" transform="rotate(-90 96 103)" fill="black"/>
<circle cx="96" cy="65" r="2" transform="rotate(-90 96 65)" fill="black"/>
<circle cx="96" cy="31" r="2" transform="rotate(-90 96 31)" fill="black"/>
</g>
</svg>
