<svg width="283" height="292" viewBox="0 0 283 292" fill="none" xmlns="http://www.w3.org/2000/svg">
<mask id="path-1-inside-1_187_454" fill="white">
<path fill-rule="evenodd" clip-rule="evenodd" d="M-0.779541 -0.000494968L124.894 -0.000495192L130.035 -0.000494968C130.035 20.6616 133.992 41.1214 141.679 60.2107C149.367 79.3 160.634 96.645 174.839 111.255C189.043 125.866 205.906 137.455 224.465 145.362C243.024 153.269 262.916 157.339 283.004 157.339L283.004 291.891C245.737 291.891 208.835 284.341 174.405 269.672C139.975 255.003 108.69 233.503 82.3387 206.398C74.0617 197.885 66.3221 188.87 59.1571 179.413C52.9553 186.802 46.363 193.896 39.4009 200.665C12.2963 227.017 -19.8816 247.92 -55.2956 262.181C-90.7095 276.443 -128.666 283.783 -166.998 283.783L-166.998 152.968C-146.336 152.968 -125.876 149.012 -106.786 141.324C-87.6971 133.637 -70.3522 122.369 -55.7418 108.165C-41.1315 93.9604 -29.542 77.0972 -21.6349 58.5382C-13.7279 39.9791 -9.65814 20.0877 -9.65814 -0.000495356L-0.779541 -0.000494968Z"/>
</mask>
<path d="M124.894 -0.000495192L124.894 -1.0005L124.894 -0.000495192ZM-0.779541 -0.000494968L-0.779541 0.999505L-0.779541 -0.000494968ZM130.035 -0.000494968L131.035 -0.000494924L131.035 -1.00049L130.035 -1.00049L130.035 -0.000494968ZM141.679 60.2107L140.752 60.5843L141.679 60.2107ZM174.839 111.255L174.122 111.952L174.839 111.255ZM283.004 157.339L284.004 157.339L284.004 156.339L283.004 156.339L283.004 157.339ZM283.004 291.891L283.004 292.891L284.004 292.891L284.004 291.891L283.004 291.891ZM174.405 269.672L174.013 270.592L174.405 269.672ZM82.3387 206.398L83.0557 205.701L82.3387 206.398ZM59.1571 179.413L59.9542 178.809L59.1971 177.81L58.3911 178.77L59.1571 179.413ZM39.4009 200.665L40.098 201.382L39.4009 200.665ZM-55.2956 262.181L-55.6691 261.254L-55.2956 262.181ZM-166.998 283.783L-167.998 283.783L-167.998 284.783L-166.998 284.783L-166.998 283.783ZM-166.998 152.968L-166.998 151.968L-167.998 151.968L-167.998 152.968L-166.998 152.968ZM-106.786 141.324L-107.16 140.397L-106.786 141.324ZM-55.7418 108.165L-55.0447 108.882L-55.7418 108.165ZM-9.65814 -0.000495356L-9.65814 -1.0005L-10.6581 -1.0005L-10.6581 -0.0004954L-9.65814 -0.000495356ZM124.894 -1.0005L-0.779541 -1.00049L-0.779541 0.999505L124.894 0.999505L124.894 -1.0005ZM130.035 -1.00049L124.894 -1.0005L124.894 0.999505L130.035 0.999505L130.035 -1.00049ZM142.607 59.8372C134.967 40.8671 131.035 20.5342 131.035 -0.000494924L129.035 -0.000495011C129.035 20.7891 133.016 41.3757 140.752 60.5843L142.607 59.8372ZM175.556 110.558C161.443 96.042 150.246 78.8072 142.607 59.8372L140.752 60.5843C148.487 79.7929 159.826 97.248 174.122 111.952L175.556 110.558ZM224.857 144.442C206.422 136.588 189.669 125.074 175.556 110.558L174.122 111.952C188.418 126.657 205.391 138.323 224.073 146.282L224.857 144.442ZM283.004 156.339C263.051 156.339 243.293 152.297 224.857 144.442L224.073 146.282C242.756 154.242 262.781 158.339 283.004 158.339L283.004 156.339ZM284.004 291.891L284.004 157.339L282.004 157.339L282.004 291.891L284.004 291.891ZM174.013 270.592C208.566 285.314 245.602 292.891 283.004 292.891L283.004 290.891C245.872 290.891 209.104 283.369 174.797 268.752L174.013 270.592ZM81.6217 207.095C108.065 234.294 139.459 255.871 174.013 270.592L174.797 268.752C140.49 254.136 109.316 232.712 83.0557 205.701L81.6217 207.095ZM58.36 180.017C65.5497 189.507 73.3159 198.552 81.6217 207.095L83.0557 205.701C74.8074 197.217 67.0946 188.234 59.9542 178.809L58.36 180.017ZM40.098 201.382C47.0843 194.59 53.6996 187.471 59.9231 180.056L58.3911 178.77C52.2111 186.133 45.6417 193.203 38.7039 199.948L40.098 201.382ZM-54.922 263.109C-19.3888 248.799 12.8993 227.825 40.098 201.382L38.7039 199.948C11.6933 226.208 -20.3745 247.04 -55.6691 261.254L-54.922 263.109ZM-166.998 284.783C-128.538 284.783 -90.4552 277.418 -54.922 263.109L-55.6691 261.254C-90.9638 275.467 -128.793 282.783 -166.998 282.783L-166.998 284.783ZM-167.998 152.968L-167.998 283.783L-165.998 283.783L-165.998 152.968L-167.998 152.968ZM-107.16 140.397C-126.13 148.036 -146.463 151.968 -166.998 151.968L-166.998 153.968C-146.208 153.968 -125.621 149.987 -106.413 142.252L-107.16 140.397ZM-56.4389 107.448C-70.9552 121.561 -88.1899 132.757 -107.16 140.397L-106.413 142.252C-87.2043 134.517 -69.7492 123.178 -55.0447 108.882L-56.4389 107.448ZM-22.5549 58.1462C-30.4094 76.582 -41.9227 93.3349 -56.4389 107.448L-55.0447 108.882C-40.3403 94.5859 -28.6745 77.6125 -20.7149 58.9301L-22.5549 58.1462ZM-10.6581 -0.0004954C-10.6581 19.9524 -14.7004 39.7106 -22.5549 58.1462L-20.7149 58.9301C-12.7553 40.2477 -8.65814 20.223 -8.65814 -0.000495312L-10.6581 -0.0004954ZM-0.779541 -1.00049L-9.65814 -1.0005L-9.65814 0.999505L-0.779541 0.999505L-0.779541 -1.00049Z" fill="#FF6644" mask="url(#path-1-inside-1_187_454)"/>
</svg>
