<svg width="812" height="634" viewBox="0 0 812 634" fill="none" xmlns="http://www.w3.org/2000/svg">
<mask id="mask0_354_5952" style="mask-type:alpha" maskUnits="userSpaceOnUse" x="0" y="0" width="812" height="634">
<rect width="812" height="634" fill="white" fill-opacity="0.3"/>
</mask>
<g mask="url(#mask0_354_5952)">
<rect width="0.675684" height="519.383" rx="0.337842" transform="matrix(0.983224 0.182402 -0.184463 0.982839 13.7988 -164.903)" fill="black"/>
<rect width="0.675684" height="519.383" rx="0.337842" transform="matrix(0.983224 0.182402 -0.184463 0.982839 17.5942 -164.198)" fill="black"/>
<rect width="0.675684" height="519.383" rx="0.337842" transform="matrix(0.983224 0.182402 -0.184463 0.982839 21.3921 -163.495)" fill="black"/>
<rect width="0.675684" height="519.383" rx="0.337842" transform="matrix(0.983224 0.182402 -0.184463 0.982839 2.40918 -167.017)" fill="black"/>
<rect width="0.675684" height="519.383" rx="0.337842" transform="matrix(0.983224 0.182402 -0.184463 0.982839 25.188 -162.79)" fill="black"/>
<rect width="0.675684" height="519.383" rx="0.337842" transform="matrix(0.983224 0.182402 -0.184463 0.982839 6.20703 -166.311)" fill="black"/>
<rect width="0.675684" height="519.383" rx="0.337842" transform="matrix(0.983224 0.182402 -0.184463 0.982839 28.9839 -162.086)" fill="black"/>
<rect width="0.675684" height="519.383" rx="0.337842" transform="matrix(0.983224 0.182402 -0.184463 0.982839 10.0029 -165.608)" fill="black"/>
<rect width="0.675684" height="519.383" rx="0.337842" transform="matrix(0.983224 0.182402 -0.184463 0.982839 32.7798 -161.381)" fill="black"/>
<rect width="0.675684" height="519.383" rx="0.337842" transform="matrix(0.983224 0.182402 -0.184463 0.982839 36.5757 -160.678)" fill="black"/>
<rect width="0.675684" height="519.383" rx="0.337842" transform="matrix(0.983224 0.182402 -0.184463 0.982839 59.3545 -156.452)" fill="black"/>
<rect width="0.675684" height="519.383" rx="0.337842" transform="matrix(0.983224 0.182402 -0.184463 0.982839 40.3735 -159.973)" fill="black"/>
<rect width="0.675684" height="519.383" rx="0.337842" transform="matrix(0.983224 0.182402 -0.184463 0.982839 63.1509 -155.749)" fill="black"/>
<rect width="0.675684" height="519.383" rx="0.337842" transform="matrix(0.983224 0.182402 -0.184463 0.982839 44.1694 -159.27)" fill="black"/>
<rect width="0.675684" height="519.383" rx="0.337842" transform="matrix(0.983224 0.182402 -0.184463 0.982839 66.9463 -155.043)" fill="black"/>
<rect width="0.675684" height="519.383" rx="0.337842" transform="matrix(0.983224 0.182402 -0.184463 0.982839 47.9653 -158.565)" fill="black"/>
<rect width="0.675684" height="519.383" rx="0.337842" transform="matrix(0.983224 0.182402 -0.184463 0.982839 70.7422 -154.338)" fill="black"/>
<rect width="0.675684" height="519.383" rx="0.337842" transform="matrix(0.983224 0.182402 -0.184463 0.982839 51.7612 -157.86)" fill="black"/>
<rect width="0.675684" height="519.383" rx="0.337842" transform="matrix(0.983224 0.182402 -0.184463 0.982839 74.54 -153.635)" fill="black"/>
<rect width="0.675684" height="519.383" rx="0.337842" transform="matrix(0.983224 0.182402 -0.184463 0.982839 55.5566 -157.157)" fill="black"/>
<rect width="0.675684" height="519.383" rx="0.337842" transform="matrix(0.983224 0.182402 -0.184463 0.982839 78.3359 -152.93)" fill="black"/>
<rect width="0.675684" height="519.383" rx="0.337842" transform="matrix(0.983224 0.182402 -0.184463 0.982839 82.1318 -152.227)" fill="black"/>
<rect width="0.675684" height="519.383" rx="0.337842" transform="matrix(0.983224 0.182402 -0.184463 0.982839 104.909 -148.001)" fill="black"/>
<rect width="0.675684" height="519.383" rx="0.337842" transform="matrix(0.983224 0.182402 -0.184463 0.982839 85.9277 -151.522)" fill="black"/>
<rect width="0.675684" height="519.383" rx="0.337842" transform="matrix(0.983224 0.182402 -0.184463 0.982839 108.705 -147.295)" fill="black"/>
<rect width="0.675684" height="519.383" rx="0.337842" transform="matrix(0.983224 0.182402 -0.184463 0.982839 89.7236 -150.817)" fill="black"/>
<rect width="0.675684" height="519.383" rx="0.337842" transform="matrix(0.983224 0.182402 -0.184463 0.982839 112.502 -146.592)" fill="black"/>
<rect width="0.675684" height="519.383" rx="0.337842" transform="matrix(0.983224 0.182402 -0.184463 0.982839 93.5215 -150.114)" fill="black"/>
<rect width="0.675684" height="519.383" rx="0.337842" transform="matrix(0.983224 0.182402 -0.184463 0.982839 116.298 -145.887)" fill="black"/>
<rect width="0.675684" height="519.383" rx="0.337842" transform="matrix(0.983224 0.182402 -0.184463 0.982839 97.3174 -149.409)" fill="black"/>
<rect width="0.675684" height="519.383" rx="0.337842" transform="matrix(0.983224 0.182402 -0.184463 0.982839 120.094 -145.184)" fill="black"/>
<rect width="0.675684" height="519.383" rx="0.337842" transform="matrix(0.983224 0.182402 -0.184463 0.982839 101.113 -148.706)" fill="black"/>
<rect width="0.675684" height="519.383" rx="0.337842" transform="matrix(0.983224 0.182402 -0.184463 0.982839 123.89 -144.479)" fill="black"/>
<rect width="0.675684" height="519.383" rx="0.337842" transform="matrix(0.983224 0.182402 -0.184463 0.982839 127.688 -143.776)" fill="black"/>
<rect width="0.675684" height="519.383" rx="0.337842" transform="matrix(0.983224 0.182402 -0.184463 0.982839 150.465 -139.549)" fill="black"/>
<rect width="0.675684" height="519.383" rx="0.337842" transform="matrix(0.983224 0.182402 -0.184463 0.982839 131.484 -143.071)" fill="black"/>
<rect width="0.675684" height="519.383" rx="0.337842" transform="matrix(0.983224 0.182402 -0.184463 0.982839 154.261 -138.846)" fill="black"/>
<rect width="0.675684" height="519.383" rx="0.337842" transform="matrix(0.983224 0.182402 -0.184463 0.982839 135.279 -142.368)" fill="black"/>
<rect width="0.675684" height="519.383" rx="0.337842" transform="matrix(0.983224 0.182402 -0.184463 0.982839 158.057 -138.141)" fill="black"/>
<rect width="0.675684" height="519.383" rx="0.337842" transform="matrix(0.983224 0.182402 -0.184463 0.982839 139.076 -141.663)" fill="black"/>
<rect width="0.675684" height="519.383" rx="0.337842" transform="matrix(0.983224 0.182402 -0.184463 0.982839 161.854 -137.436)" fill="black"/>
<rect width="0.675684" height="519.383" rx="0.337842" transform="matrix(0.983224 0.182402 -0.184463 0.982839 142.871 -140.958)" fill="black"/>
<rect width="0.675684" height="519.383" rx="0.337842" transform="matrix(0.983224 0.182402 -0.184463 0.982839 165.65 -136.733)" fill="black"/>
<rect width="0.675684" height="519.383" rx="0.337842" transform="matrix(0.983224 0.182402 -0.184463 0.982839 146.669 -140.254)" fill="black"/>
<rect width="0.675684" height="519.383" rx="0.337842" transform="matrix(0.983224 0.182402 -0.184463 0.982839 169.446 -136.028)" fill="black"/>
<rect width="0.675684" height="519.383" rx="0.337842" transform="matrix(0.983224 0.182402 -0.184463 0.982839 173.242 -135.325)" fill="black"/>
<rect width="0.675684" height="519.383" rx="0.337842" transform="matrix(0.983224 0.182402 -0.184463 0.982839 196.02 -131.099)" fill="black"/>
<rect width="0.675684" height="519.383" rx="0.337842" transform="matrix(0.983224 0.182402 -0.184463 0.982839 177.038 -134.62)" fill="black"/>
<rect width="0.675684" height="519.383" rx="0.337842" transform="matrix(0.983224 0.182402 -0.184463 0.982839 199.817 -130.395)" fill="black"/>
<rect width="0.675684" height="519.383" rx="0.337842" transform="matrix(0.983224 0.182402 -0.184463 0.982839 180.836 -133.915)" fill="black"/>
<rect width="0.675684" height="519.383" rx="0.337842" transform="matrix(0.983224 0.182402 -0.184463 0.982839 203.613 -129.69)" fill="black"/>
<rect width="0.675684" height="519.383" rx="0.337842" transform="matrix(0.983224 0.182402 -0.184463 0.982839 184.632 -133.211)" fill="black"/>
<rect width="0.675684" height="519.383" rx="0.337842" transform="matrix(0.983224 0.182402 -0.184463 0.982839 207.409 -128.985)" fill="black"/>
<rect width="0.675684" height="519.383" rx="0.337842" transform="matrix(0.983224 0.182402 -0.184463 0.982839 188.428 -132.506)" fill="black"/>
<rect width="0.675684" height="519.383" rx="0.337842" transform="matrix(0.983224 0.182402 -0.184463 0.982839 211.205 -128.282)" fill="black"/>
<rect width="0.675684" height="519.383" rx="0.337842" transform="matrix(0.983224 0.182402 -0.184463 0.982839 192.224 -131.803)" fill="black"/>
<rect width="0.675684" height="519.383" rx="0.337842" transform="matrix(0.983224 0.182402 -0.184463 0.982839 215.002 -127.577)" fill="black"/>
<rect width="0.675684" height="519.383" rx="0.337842" transform="matrix(0.983224 0.182402 -0.184463 0.982839 218.661 -126.183)" fill="black"/>
<rect width="0.675684" height="519.383" rx="0.337842" transform="matrix(0.983224 0.182402 -0.184463 0.982839 241.438 -121.957)" fill="black"/>
<rect width="0.675684" height="519.383" rx="0.337842" transform="matrix(0.983224 0.182402 -0.184463 0.982839 222.457 -125.478)" fill="black"/>
<rect width="0.675684" height="519.383" rx="0.337842" transform="matrix(0.983224 0.182402 -0.184463 0.982839 245.234 -121.253)" fill="black"/>
<rect width="0.675684" height="519.383" rx="0.337842" transform="matrix(0.983224 0.182402 -0.184463 0.982839 226.253 -124.773)" fill="black"/>
<rect width="0.675684" height="519.383" rx="0.337842" transform="matrix(0.983224 0.182402 -0.184463 0.982839 249.032 -120.548)" fill="black"/>
<rect width="0.675684" height="519.383" rx="0.337842" transform="matrix(0.983224 0.182402 -0.184463 0.982839 230.051 -124.07)" fill="black"/>
<rect width="0.675684" height="519.383" rx="0.337842" transform="matrix(0.983224 0.182402 -0.184463 0.982839 252.828 -119.843)" fill="black"/>
<rect width="0.675684" height="519.383" rx="0.337842" transform="matrix(0.983224 0.182402 -0.184463 0.982839 233.846 -123.365)" fill="black"/>
<rect width="0.675684" height="519.383" rx="0.337842" transform="matrix(0.983224 0.182402 -0.184463 0.982839 256.624 -119.14)" fill="black"/>
<rect width="0.675684" height="519.383" rx="0.337842" transform="matrix(0.983224 0.182402 -0.184463 0.982839 237.643 -122.662)" fill="black"/>
<rect width="0.675684" height="519.383" rx="0.337842" transform="matrix(0.983224 0.182402 -0.184463 0.982839 260.419 -118.435)" fill="black"/>
<rect width="0.675684" height="519.383" rx="0.337842" transform="matrix(0.983224 0.182402 -0.184463 0.982839 264.217 -117.732)" fill="black"/>
<rect width="0.675684" height="519.383" rx="0.337842" transform="matrix(0.983224 0.182402 -0.184463 0.982839 286.995 -113.505)" fill="black"/>
<rect width="0.675684" height="519.383" rx="0.337842" transform="matrix(0.983224 0.182402 -0.184463 0.982839 268.013 -117.027)" fill="black"/>
<rect width="0.675684" height="519.383" rx="0.337842" transform="matrix(0.983224 0.182402 -0.184463 0.982839 290.791 -112.802)" fill="black"/>
<rect width="0.675684" height="519.383" rx="0.337842" transform="matrix(0.983224 0.182402 -0.184463 0.982839 271.809 -116.324)" fill="black"/>
<rect width="0.675684" height="519.383" rx="0.337842" transform="matrix(0.983224 0.182402 -0.184463 0.982839 294.586 -112.097)" fill="black"/>
<rect width="0.675684" height="519.383" rx="0.337842" transform="matrix(0.983224 0.182402 -0.184463 0.982839 275.605 -115.619)" fill="black"/>
<rect width="0.675684" height="519.383" rx="0.337842" transform="matrix(0.983224 0.182402 -0.184463 0.982839 298.382 -111.392)" fill="black"/>
<rect width="0.675684" height="519.383" rx="0.337842" transform="matrix(0.983224 0.182402 -0.184463 0.982839 279.401 -114.914)" fill="black"/>
<rect width="0.675684" height="519.383" rx="0.337842" transform="matrix(0.983224 0.182402 -0.184463 0.982839 302.18 -110.689)" fill="black"/>
<rect width="0.675684" height="519.383" rx="0.337842" transform="matrix(0.983224 0.182402 -0.184463 0.982839 283.199 -114.21)" fill="black"/>
<rect width="0.675684" height="519.383" rx="0.337842" transform="matrix(0.983224 0.182402 -0.184463 0.982839 305.976 -109.984)" fill="black"/>
<rect width="0.675684" height="519.383" rx="0.337842" transform="matrix(0.983224 0.182402 -0.184463 0.982839 309.771 -109.281)" fill="black"/>
<rect width="0.675684" height="519.383" rx="0.337842" transform="matrix(0.983224 0.182402 -0.184463 0.982839 332.548 -105.054)" fill="black"/>
<rect width="0.675684" height="519.383" rx="0.337842" transform="matrix(0.983224 0.182402 -0.184463 0.982839 313.567 -108.576)" fill="black"/>
<rect width="0.675684" height="519.383" rx="0.337842" transform="matrix(0.983224 0.182402 -0.184463 0.982839 336.347 -104.351)" fill="black"/>
<rect width="0.675684" height="519.383" rx="0.337842" transform="matrix(0.983224 0.182402 -0.184463 0.982839 317.365 -107.873)" fill="black"/>
<rect width="0.675684" height="519.383" rx="0.337842" transform="matrix(0.983224 0.182402 -0.184463 0.982839 340.142 -103.646)" fill="black"/>
<rect width="0.675684" height="519.383" rx="0.337842" transform="matrix(0.983224 0.182402 -0.184463 0.982839 321.161 -107.167)" fill="black"/>
<rect width="0.675684" height="519.383" rx="0.337842" transform="matrix(0.983224 0.182402 -0.184463 0.982839 343.938 -102.941)" fill="black"/>
<rect width="0.675684" height="519.383" rx="0.337842" transform="matrix(0.983224 0.182402 -0.184463 0.982839 324.957 -106.462)" fill="black"/>
<rect width="0.675684" height="519.383" rx="0.337842" transform="matrix(0.983224 0.182402 -0.184463 0.982839 347.734 -102.238)" fill="black"/>
<rect width="0.675684" height="519.383" rx="0.337842" transform="matrix(0.983224 0.182402 -0.184463 0.982839 328.752 -105.759)" fill="black"/>
<rect width="0.675684" height="519.383" rx="0.337842" transform="matrix(0.983224 0.182402 -0.184463 0.982839 351.532 -101.533)" fill="black"/>
<rect width="0.675684" height="519.383" rx="0.337842" transform="matrix(0.983224 0.182402 -0.184463 0.982839 355.328 -100.83)" fill="black"/>
<rect width="0.675684" height="519.383" rx="0.337842" transform="matrix(0.983224 0.182402 -0.184463 0.982839 378.105 -96.603)" fill="black"/>
<rect width="0.675684" height="519.383" rx="0.337842" transform="matrix(0.983224 0.182402 -0.184463 0.982839 359.124 -100.125)" fill="black"/>
<rect width="0.675684" height="519.383" rx="0.337842" transform="matrix(0.983224 0.182402 -0.184463 0.982839 381.901 -95.8999)" fill="black"/>
<rect width="0.675684" height="519.383" rx="0.337842" transform="matrix(0.983224 0.182402 -0.184463 0.982839 362.919 -99.4209)" fill="black"/>
<rect width="0.675684" height="519.383" rx="0.337842" transform="matrix(0.983224 0.182402 -0.184463 0.982839 385.696 -95.1948)" fill="black"/>
<rect width="0.675684" height="519.383" rx="0.337842" transform="matrix(0.983224 0.182402 -0.184463 0.982839 366.715 -98.7163)" fill="black"/>
<rect width="0.675684" height="519.383" rx="0.337842" transform="matrix(0.983224 0.182402 -0.184463 0.982839 389.494 -94.4897)" fill="black"/>
<rect width="0.675684" height="519.383" rx="0.337842" transform="matrix(0.983224 0.182402 -0.184463 0.982839 370.513 -98.0107)" fill="black"/>
<rect width="0.675684" height="519.383" rx="0.337842" transform="matrix(0.983224 0.182402 -0.184463 0.982839 393.29 -93.7866)" fill="black"/>
<rect width="0.675684" height="519.383" rx="0.337842" transform="matrix(0.983224 0.182402 -0.184463 0.982839 374.309 -97.3081)" fill="black"/>
<rect width="0.675684" height="519.383" rx="0.337842" transform="matrix(0.983224 0.182402 -0.184463 0.982839 397.085 -93.0811)" fill="black"/>
<rect width="0.675684" height="519.383" rx="0.337842" transform="matrix(0.983224 0.182402 -0.184463 0.982839 400.882 -92.3784)" fill="black"/>
<rect width="0.675684" height="519.383" rx="0.337842" transform="matrix(0.983224 0.182402 -0.184463 0.982839 423.661 -88.1519)" fill="black"/>
<rect width="0.675684" height="519.383" rx="0.337842" transform="matrix(0.983224 0.182402 -0.184463 0.982839 404.68 -91.6733)" fill="black"/>
<rect width="0.675684" height="519.383" rx="0.337842" transform="matrix(0.983224 0.182402 -0.184463 0.982839 427.457 -87.4487)" fill="black"/>
<rect width="0.675684" height="519.383" rx="0.337842" transform="matrix(0.983224 0.182402 -0.184463 0.982839 408.476 -90.9702)" fill="black"/>
<rect width="0.675684" height="519.383" rx="0.337842" transform="matrix(0.983224 0.182402 -0.184463 0.982839 431.252 -86.7437)" fill="black"/>
<rect width="0.675684" height="519.383" rx="0.337842" transform="matrix(0.983224 0.182402 -0.184463 0.982839 412.271 -90.2651)" fill="black"/>
<rect width="0.675684" height="519.383" rx="0.337842" transform="matrix(0.983224 0.182402 -0.184463 0.982839 435.048 -86.0386)" fill="black"/>
<rect width="0.675684" height="519.383" rx="0.337842" transform="matrix(0.983224 0.182402 -0.184463 0.982839 416.067 -89.5596)" fill="black"/>
<rect width="0.675684" height="519.383" rx="0.337842" transform="matrix(0.983224 0.182402 -0.184463 0.982839 438.844 -85.3354)" fill="black"/>
<rect width="0.675684" height="519.383" rx="0.337842" transform="matrix(0.983224 0.182402 -0.184463 0.982839 419.863 -88.8569)" fill="black"/>
<rect width="0.675684" height="519.383" rx="0.337842" transform="matrix(0.983224 0.182402 -0.184463 0.982839 442.642 -84.6304)" fill="black"/>
<rect width="0.675684" height="519.383" rx="0.337842" transform="matrix(0.983224 0.182402 -0.184463 0.982839 446.438 -83.9272)" fill="black"/>
<rect width="0.675684" height="519.383" rx="0.337842" transform="matrix(0.983224 0.182402 -0.184463 0.982839 469.215 -79.7007)" fill="black"/>
<rect width="0.675684" height="519.383" rx="0.337842" transform="matrix(0.983224 0.182402 -0.184463 0.982839 450.234 -83.2222)" fill="black"/>
<rect width="0.675684" height="519.383" rx="0.337842" transform="matrix(0.983224 0.182402 -0.184463 0.982839 473.011 -78.9971)" fill="black"/>
<rect width="0.675684" height="519.383" rx="0.337842" transform="matrix(0.983224 0.182402 -0.184463 0.982839 454.03 -82.519)" fill="black"/>
<rect width="0.675684" height="519.383" rx="0.337842" transform="matrix(0.983224 0.182402 -0.184463 0.982839 476.809 -78.2925)" fill="black"/>
<rect width="0.675684" height="519.383" rx="0.337842" transform="matrix(0.983224 0.182402 -0.184463 0.982839 457.827 -81.814)" fill="black"/>
<rect width="0.675684" height="519.383" rx="0.337842" transform="matrix(0.983224 0.182402 -0.184463 0.982839 480.604 -77.5859)" fill="black"/>
<rect width="0.675684" height="519.383" rx="0.337842" transform="matrix(0.983224 0.182402 -0.184463 0.982839 461.623 -81.1089)" fill="black"/>
<rect width="0.675684" height="519.383" rx="0.337842" transform="matrix(0.983224 0.182402 -0.184463 0.982839 484.4 -76.8838)" fill="black"/>
<rect width="0.675684" height="519.383" rx="0.337842" transform="matrix(0.983224 0.182402 -0.184463 0.982839 465.419 -80.4058)" fill="black"/>
<rect width="0.675684" height="519.383" rx="0.337842" transform="matrix(0.983224 0.182402 -0.184463 0.982839 488.196 -76.1787)" fill="black"/>
<rect width="0.675684" height="519.383" rx="0.337842" transform="matrix(0.983224 0.182402 -0.184463 0.982839 491.994 -75.4761)" fill="black"/>
<rect width="0.675684" height="519.383" rx="0.337842" transform="matrix(0.983224 0.182402 -0.184463 0.982839 514.771 -71.2495)" fill="black"/>
<rect width="0.675684" height="519.383" rx="0.337842" transform="matrix(0.983224 0.182402 -0.184463 0.982839 495.79 -74.7705)" fill="black"/>
<rect width="0.675684" height="519.383" rx="0.337842" transform="matrix(0.983224 0.182402 -0.184463 0.982839 518.567 -70.5464)" fill="black"/>
<rect width="0.675684" height="519.383" rx="0.337842" transform="matrix(0.983224 0.182402 -0.184463 0.982839 499.585 -74.0654)" fill="black"/>
<rect width="0.675684" height="519.383" rx="0.337842" transform="matrix(0.983224 0.182402 -0.184463 0.982839 522.363 -69.8403)" fill="black"/>
<rect width="0.675684" height="519.383" rx="0.337842" transform="matrix(0.983224 0.182402 -0.184463 0.982839 503.382 -73.3628)" fill="black"/>
<rect width="0.675684" height="519.383" rx="0.337842" transform="matrix(0.983224 0.182402 -0.184463 0.982839 526.159 -69.1357)" fill="black"/>
<rect width="0.675684" height="519.383" rx="0.337842" transform="matrix(0.983224 0.182402 -0.184463 0.982839 507.177 -72.6548)" fill="black"/>
<rect width="0.675684" height="519.383" rx="0.337842" transform="matrix(0.983224 0.182402 -0.184463 0.982839 529.957 -68.4331)" fill="black"/>
<rect width="0.675684" height="519.383" rx="0.337842" transform="matrix(0.983224 0.182402 -0.184463 0.982839 510.975 -71.9541)" fill="black"/>
<rect width="0.675684" height="519.383" rx="0.337842" transform="matrix(0.983224 0.182402 -0.184463 0.982839 533.752 -67.7271)" fill="black"/>
<rect width="0.675684" height="519.383" rx="0.337842" transform="matrix(0.983224 0.182402 -0.184463 0.982839 537.548 -67.0244)" fill="black"/>
<rect width="0.675684" height="519.383" rx="0.337842" transform="matrix(0.983224 0.182402 -0.184463 0.982839 560.325 -62.7969)" fill="black"/>
<rect width="0.675684" height="519.383" rx="0.337842" transform="matrix(0.983224 0.182402 -0.184463 0.982839 541.344 -66.3198)" fill="black"/>
<rect width="0.675684" height="519.383" rx="0.337842" transform="matrix(0.983224 0.182402 -0.184463 0.982839 564.123 -62.0947)" fill="black"/>
<rect width="0.675684" height="519.383" rx="0.337842" transform="matrix(0.983224 0.182402 -0.184463 0.982839 545.142 -65.6147)" fill="black"/>
<rect width="0.675684" height="519.383" rx="0.337842" transform="matrix(0.983224 0.182402 -0.184463 0.982839 567.919 -61.3877)" fill="black"/>
<rect width="0.675684" height="519.383" rx="0.337842" transform="matrix(0.983224 0.182402 -0.184463 0.982839 548.938 -64.9111)" fill="black"/>
<rect width="0.675684" height="519.383" rx="0.337842" transform="matrix(0.983224 0.182402 -0.184463 0.982839 571.715 -60.6836)" fill="black"/>
<rect width="0.675684" height="519.383" rx="0.337842" transform="matrix(0.983224 0.182402 -0.184463 0.982839 552.733 -64.2061)" fill="black"/>
<rect width="0.675684" height="519.383" rx="0.337842" transform="matrix(0.983224 0.182402 -0.184463 0.982839 575.511 -59.981)" fill="black"/>
<rect width="0.675684" height="519.383" rx="0.337842" transform="matrix(0.983224 0.182402 -0.184463 0.982839 556.529 -63.5005)" fill="black"/>
<rect width="0.675684" height="519.383" rx="0.337842" transform="matrix(0.983224 0.182402 -0.184463 0.982839 579.307 -59.2764)" fill="black"/>
<rect width="0.675684" height="519.383" rx="0.337842" transform="matrix(0.983224 0.182402 -0.184463 0.982839 582.611 -58.665)" fill="black"/>
<rect width="0.675684" height="519.383" rx="0.337842" transform="matrix(0.983224 0.182402 -0.184463 0.982839 605.388 -54.4385)" fill="black"/>
<rect width="0.675684" height="519.383" rx="0.337842" transform="matrix(0.983224 0.182402 -0.184463 0.982839 586.407 -57.96)" fill="black"/>
<rect width="0.675684" height="519.383" rx="0.337842" transform="matrix(0.983224 0.182402 -0.184463 0.982839 609.186 -53.7354)" fill="black"/>
<rect width="0.675684" height="519.383" rx="0.337842" transform="matrix(0.983224 0.182402 -0.184463 0.982839 590.203 -57.2529)" fill="black"/>
<rect width="0.675684" height="519.383" rx="0.337842" transform="matrix(0.983224 0.182402 -0.184463 0.982839 612.982 -53.0308)" fill="black"/>
<rect width="0.675684" height="519.383" rx="0.337842" transform="matrix(0.983224 0.182402 -0.184463 0.982839 594.001 -56.5518)" fill="black"/>
<rect width="0.675684" height="519.383" rx="0.337842" transform="matrix(0.983224 0.182402 -0.184463 0.982839 616.778 -52.3247)" fill="black"/>
<rect width="0.675684" height="519.383" rx="0.337842" transform="matrix(0.983224 0.182402 -0.184463 0.982839 597.796 -55.8467)" fill="black"/>
<rect width="0.675684" height="519.383" rx="0.337842" transform="matrix(0.983224 0.182402 -0.184463 0.982839 620.573 -51.6216)" fill="black"/>
<rect width="0.675684" height="519.383" rx="0.337842" transform="matrix(0.983224 0.182402 -0.184463 0.982839 601.592 -55.1436)" fill="black"/>
<rect width="0.675684" height="519.383" rx="0.337842" transform="matrix(0.983224 0.182402 -0.184463 0.982839 624.37 -50.9175)" fill="black"/>
<rect width="0.675684" height="519.383" rx="0.337842" transform="matrix(0.983224 0.182402 -0.184463 0.982839 628.167 -50.2144)" fill="black"/>
<rect width="0.675684" height="519.383" rx="0.337842" transform="matrix(0.983224 0.182402 -0.184463 0.982839 650.944 -45.9878)" fill="black"/>
<rect width="0.675684" height="519.383" rx="0.337842" transform="matrix(0.983224 0.182402 -0.184463 0.982839 631.963 -49.5083)" fill="black"/>
<rect width="0.675684" height="519.383" rx="0.337842" transform="matrix(0.983224 0.182402 -0.184463 0.982839 654.74 -45.2817)" fill="black"/>
<rect width="0.675684" height="519.383" rx="0.337842" transform="matrix(0.983224 0.182402 -0.184463 0.982839 635.759 -48.8042)" fill="black"/>
<rect width="0.675684" height="519.383" rx="0.337842" transform="matrix(0.983224 0.182402 -0.184463 0.982839 658.536 -44.5791)" fill="black"/>
<rect width="0.675684" height="519.383" rx="0.337842" transform="matrix(0.983224 0.182402 -0.184463 0.982839 639.555 -48.1011)" fill="black"/>
<rect width="0.675684" height="519.383" rx="0.337842" transform="matrix(0.983224 0.182402 -0.184463 0.982839 662.334 -43.8745)" fill="black"/>
<rect width="0.675684" height="519.383" rx="0.337842" transform="matrix(0.983224 0.182402 -0.184463 0.982839 643.351 -47.395)" fill="black"/>
<rect width="0.675684" height="519.383" rx="0.337842" transform="matrix(0.983224 0.182402 -0.184463 0.982839 666.13 -43.1689)" fill="black"/>
<rect width="0.675684" height="519.383" rx="0.337842" transform="matrix(0.983224 0.182402 -0.184463 0.982839 647.148 -46.6924)" fill="black"/>
<rect width="0.675684" height="519.383" rx="0.337842" transform="matrix(0.983224 0.182402 -0.184463 0.982839 669.925 -42.4648)" fill="black"/>
<rect width="0.675684" height="519.383" rx="0.337842" transform="matrix(0.983224 0.182402 -0.184463 0.982839 673.722 -41.7612)" fill="black"/>
<rect width="0.675684" height="519.383" rx="0.337842" transform="matrix(0.983224 0.182402 -0.184463 0.982839 696.499 -37.5361)" fill="black"/>
<rect width="0.675684" height="519.383" rx="0.337842" transform="matrix(0.983224 0.182402 -0.184463 0.982839 677.517 -41.0576)" fill="black"/>
<rect width="0.675684" height="519.383" rx="0.337842" transform="matrix(0.983224 0.182402 -0.184463 0.982839 700.296 -36.8315)" fill="black"/>
<rect width="0.675684" height="519.383" rx="0.337842" transform="matrix(0.983224 0.182402 -0.184463 0.982839 681.315 -40.3521)" fill="black"/>
<rect width="0.675684" height="519.383" rx="0.337842" transform="matrix(0.983224 0.182402 -0.184463 0.982839 704.092 -36.1279)" fill="black"/>
<rect width="0.675684" height="519.383" rx="0.337842" transform="matrix(0.983224 0.182402 -0.184463 0.982839 685.111 -39.6489)" fill="black"/>
<rect width="0.675684" height="519.383" rx="0.337842" transform="matrix(0.983224 0.182402 -0.184463 0.982839 707.888 -35.4229)" fill="black"/>
<rect width="0.675684" height="519.383" rx="0.337842" transform="matrix(0.983224 0.182402 -0.184463 0.982839 688.907 -38.9448)" fill="black"/>
<rect width="0.675684" height="519.383" rx="0.337842" transform="matrix(0.983224 0.182402 -0.184463 0.982839 711.684 -34.7197)" fill="black"/>
<rect width="0.675684" height="519.383" rx="0.337842" transform="matrix(0.983224 0.182402 -0.184463 0.982839 692.703 -38.2412)" fill="black"/>
<rect width="0.675684" height="519.383" rx="0.337842" transform="matrix(0.983224 0.182402 -0.184463 0.982839 715.481 -34.0146)" fill="black"/>
<rect width="0.675684" height="519.383" rx="0.337842" transform="matrix(0.983224 0.182402 -0.184463 0.982839 719.277 -33.3115)" fill="black"/>
<rect width="0.675684" height="519.383" rx="0.337842" transform="matrix(0.983224 0.182402 -0.184463 0.982839 742.055 -29.083)" fill="black"/>
<rect width="0.675684" height="519.383" rx="0.337842" transform="matrix(0.983224 0.182402 -0.184463 0.982839 723.073 -32.605)" fill="black"/>
<rect width="0.675684" height="519.383" rx="0.337842" transform="matrix(0.983224 0.182402 -0.184463 0.982839 745.851 -28.3779)" fill="black"/>
<rect width="0.675684" height="519.383" rx="0.337842" transform="matrix(0.983224 0.182402 -0.184463 0.982839 726.87 -31.9019)" fill="black"/>
<rect width="0.675684" height="519.383" rx="0.337842" transform="matrix(0.983224 0.182402 -0.184463 0.982839 749.649 -27.6772)" fill="black"/>
<rect width="0.675684" height="519.383" rx="0.337842" transform="matrix(0.983224 0.182402 -0.184463 0.982839 730.665 -31.1987)" fill="black"/>
<rect width="0.675684" height="519.383" rx="0.337842" transform="matrix(0.983224 0.182402 -0.184463 0.982839 753.444 -26.9697)" fill="black"/>
<rect width="0.675684" height="519.383" rx="0.337842" transform="matrix(0.983224 0.182402 -0.184463 0.982839 734.462 -30.4917)" fill="black"/>
<rect width="0.675684" height="519.383" rx="0.337842" transform="matrix(0.983224 0.182402 -0.184463 0.982839 757.24 -26.2666)" fill="black"/>
<rect width="0.675684" height="519.383" rx="0.337842" transform="matrix(0.983224 0.182402 -0.184463 0.982839 738.258 -29.7886)" fill="black"/>
<rect width="0.675684" height="519.383" rx="0.337842" transform="matrix(0.983224 0.182402 -0.184463 0.982839 761.036 -25.5615)" fill="black"/>
<rect width="0.675684" height="519.383" rx="0.337842" transform="matrix(0.983224 0.182402 -0.184463 0.982839 764.832 -24.8584)" fill="black"/>
<rect width="0.675684" height="519.383" rx="0.337842" transform="matrix(0.983224 0.182402 -0.184463 0.982839 787.611 -20.6338)" fill="black"/>
<rect width="0.675684" height="519.383" rx="0.337842" transform="matrix(0.983224 0.182402 -0.184463 0.982839 768.629 -24.1558)" fill="black"/>
<rect width="0.675684" height="519.383" rx="0.337842" transform="matrix(0.983224 0.182402 -0.184463 0.982839 791.407 -19.9287)" fill="black"/>
<rect width="0.675684" height="519.383" rx="0.337842" transform="matrix(0.983224 0.182402 -0.184463 0.982839 772.425 -23.4482)" fill="black"/>
<rect width="0.675684" height="519.383" rx="0.337842" transform="matrix(0.983224 0.182402 -0.184463 0.982839 795.202 -19.2241)" fill="black"/>
<rect width="0.675684" height="519.383" rx="0.337842" transform="matrix(0.983224 0.182402 -0.184463 0.982839 776.221 -22.7451)" fill="black"/>
<rect width="0.675684" height="519.383" rx="0.337842" transform="matrix(0.983224 0.182402 -0.184463 0.982839 798.998 -18.519)" fill="black"/>
<rect width="0.675684" height="519.383" rx="0.337842" transform="matrix(0.983224 0.182402 -0.184463 0.982839 780.017 -22.0405)" fill="black"/>
<rect width="0.675684" height="519.383" rx="0.337842" transform="matrix(0.983224 0.182402 -0.184463 0.982839 802.795 -17.8154)" fill="black"/>
<rect width="0.675684" height="519.383" rx="0.337842" transform="matrix(0.983224 0.182402 -0.184463 0.982839 783.813 -21.3389)" fill="black"/>
<rect width="0.675684" height="519.383" rx="0.337842" transform="matrix(0.983224 0.182402 -0.184463 0.982839 806.592 -17.1108)" fill="black"/>
<rect width="0.675684" height="519.383" rx="0.337842" transform="matrix(0.983224 0.182402 -0.184463 0.982839 810.388 -16.4077)" fill="black"/>
<rect width="0.675684" height="519.383" rx="0.337842" transform="matrix(0.983224 0.182402 -0.184463 0.982839 833.165 -12.1821)" fill="black"/>
<rect width="0.675684" height="519.383" rx="0.337842" transform="matrix(0.983224 0.182402 -0.184463 0.982839 814.185 -15.7046)" fill="black"/>
<rect width="0.675684" height="519.383" rx="0.337842" transform="matrix(0.983224 0.182402 -0.184463 0.982839 836.96 -11.4756)" fill="black"/>
<rect width="0.675684" height="519.383" rx="0.337842" transform="matrix(0.983224 0.182402 -0.184463 0.982839 817.98 -14.9995)" fill="black"/>
<rect width="0.675684" height="519.383" rx="0.337842" transform="matrix(0.983224 0.182402 -0.184463 0.982839 840.759 -10.7749)" fill="black"/>
<rect width="0.675684" height="519.383" rx="0.337842" transform="matrix(0.983224 0.182402 -0.184463 0.982839 821.777 -14.2944)" fill="black"/>
<rect width="0.675684" height="519.383" rx="0.337842" transform="matrix(0.983224 0.182402 -0.184463 0.982839 844.555 -10.0698)" fill="black"/>
<rect width="0.675684" height="519.383" rx="0.337842" transform="matrix(0.983224 0.182402 -0.184463 0.982839 825.573 -13.5894)" fill="black"/>
<rect width="0.675684" height="519.383" rx="0.337842" transform="matrix(0.983224 0.182402 -0.184463 0.982839 848.35 -9.36426)" fill="black"/>
<rect width="0.675684" height="519.383" rx="0.337842" transform="matrix(0.983224 0.182402 -0.184463 0.982839 829.37 -12.8882)" fill="black"/>
<rect width="0.675684" height="519.383" rx="0.337842" transform="matrix(0.983224 0.182402 -0.184463 0.982839 852.146 -8.65918)" fill="black"/>
<rect width="0.675684" height="519.383" rx="0.337842" transform="matrix(0.983224 0.182402 -0.184463 0.982839 855.944 -7.9585)" fill="black"/>
<rect width="0.675684" height="519.383" rx="0.337842" transform="matrix(0.983224 0.182402 -0.184463 0.982839 878.721 -3.72949)" fill="black"/>
<rect width="0.675684" height="519.383" rx="0.337842" transform="matrix(0.983224 0.182402 -0.184463 0.982839 859.74 -7.25098)" fill="black"/>
<rect width="0.675684" height="519.383" rx="0.337842" transform="matrix(0.983224 0.182402 -0.184463 0.982839 882.517 -3.02637)" fill="black"/>
<rect width="0.675684" height="519.383" rx="0.337842" transform="matrix(0.983224 0.182402 -0.184463 0.982839 863.536 -6.5459)" fill="black"/>
<rect width="0.675684" height="519.383" rx="0.337842" transform="matrix(0.983224 0.182402 -0.184463 0.982839 886.312 -2.32178)" fill="black"/>
<rect width="0.675684" height="519.383" rx="0.337842" transform="matrix(0.983224 0.182402 -0.184463 0.982839 867.332 -5.84473)" fill="black"/>
<rect width="0.675684" height="519.383" rx="0.337842" transform="matrix(0.983224 0.182402 -0.184463 0.982839 890.11 -1.61621)" fill="black"/>
<rect width="0.675684" height="519.383" rx="0.337842" transform="matrix(0.983224 0.182402 -0.184463 0.982839 871.127 -5.13818)" fill="black"/>
<rect width="0.675684" height="519.383" rx="0.337842" transform="matrix(0.983224 0.182402 -0.184463 0.982839 893.907 -0.915039)" fill="black"/>
<rect width="0.675684" height="519.383" rx="0.337842" transform="matrix(0.983224 0.182402 -0.184463 0.982839 874.925 -4.43457)" fill="black"/>
<rect width="0.675684" height="519.383" rx="0.337842" transform="matrix(0.983224 0.182402 -0.184463 0.982839 897.702 -0.208496)" fill="black"/>
<rect width="0.675684" height="519.383" rx="0.337842" transform="matrix(0.983224 0.182402 -0.184463 0.982839 901.498 0.496582)" fill="black"/>
<rect width="0.675684" height="519.383" rx="0.337842" transform="matrix(0.983224 0.182402 -0.184463 0.982839 905.293 1.19971)" fill="black"/>
<rect width="0.675684" height="519.383" rx="0.337842" transform="matrix(0.983224 0.182402 -0.184463 0.982839 809.588 386.162)" fill="black"/>
<rect width="0.675684" height="519.383" rx="0.337842" transform="matrix(0.983224 0.182402 -0.184463 0.982839 832.366 390.388)" fill="black"/>
<rect width="0.675684" height="519.383" rx="0.337842" transform="matrix(0.983224 0.182402 -0.184463 0.982839 813.384 386.867)" fill="black"/>
<rect width="0.675684" height="519.383" rx="0.337842" transform="matrix(0.983224 0.182402 -0.184463 0.982839 836.162 391.091)" fill="black"/>
<rect width="0.675684" height="519.383" rx="0.337842" transform="matrix(0.983224 0.182402 -0.184463 0.982839 817.18 387.572)" fill="black"/>
<rect width="0.675684" height="519.383" rx="0.337842" transform="matrix(0.983224 0.182402 -0.184463 0.982839 839.959 391.796)" fill="black"/>
<rect width="0.675684" height="519.383" rx="0.337842" transform="matrix(0.983224 0.182402 -0.184463 0.982839 820.978 388.275)" fill="black"/>
<rect width="0.675684" height="519.383" rx="0.337842" transform="matrix(0.983224 0.182402 -0.184463 0.982839 843.755 392.501)" fill="black"/>
<rect width="0.675684" height="519.383" rx="0.337842" transform="matrix(0.983224 0.182402 -0.184463 0.982839 824.773 388.98)" fill="black"/>
<rect width="0.675684" height="519.383" rx="0.337842" transform="matrix(0.983224 0.182402 -0.184463 0.982839 847.551 393.205)" fill="black"/>
<rect width="0.675684" height="519.383" rx="0.337842" transform="matrix(0.983224 0.182402 -0.184463 0.982839 828.57 389.683)" fill="black"/>
<rect width="0.675684" height="519.383" rx="0.337842" transform="matrix(0.983224 0.182402 -0.184463 0.982839 851.347 393.91)" fill="black"/>
<rect width="0.675684" height="519.383" rx="0.337842" transform="matrix(0.983224 0.182402 -0.184463 0.982839 855.145 394.613)" fill="black"/>
<rect width="0.675684" height="519.383" rx="0.337842" transform="matrix(0.983224 0.182402 -0.184463 0.982839 877.921 398.839)" fill="black"/>
<rect width="0.675684" height="519.383" rx="0.337842" transform="matrix(0.983224 0.182402 -0.184463 0.982839 858.94 395.318)" fill="black"/>
<rect width="0.675684" height="519.383" rx="0.337842" transform="matrix(0.983224 0.182402 -0.184463 0.982839 881.718 399.542)" fill="black"/>
<rect width="0.675684" height="519.383" rx="0.337842" transform="matrix(0.983224 0.182402 -0.184463 0.982839 862.736 396.021)" fill="black"/>
<rect width="0.675684" height="519.383" rx="0.337842" transform="matrix(0.983224 0.182402 -0.184463 0.982839 885.514 400.248)" fill="black"/>
<rect width="0.675684" height="519.383" rx="0.337842" transform="matrix(0.983224 0.182402 -0.184463 0.982839 866.532 396.726)" fill="black"/>
<rect width="0.675684" height="519.383" rx="0.337842" transform="matrix(0.983224 0.182402 -0.184463 0.982839 889.31 400.953)" fill="black"/>
<rect width="0.675684" height="519.383" rx="0.337842" transform="matrix(0.983224 0.182402 -0.184463 0.982839 870.328 397.431)" fill="black"/>
<rect width="0.675684" height="519.383" rx="0.337842" transform="matrix(0.983224 0.182402 -0.184463 0.982839 893.107 401.656)" fill="black"/>
<rect width="0.675684" height="519.383" rx="0.337842" transform="matrix(0.983224 0.182402 -0.184463 0.982839 874.126 398.134)" fill="black"/>
<rect width="0.675684" height="519.383" rx="0.337842" transform="matrix(0.983224 0.182402 -0.184463 0.982839 896.903 402.361)" fill="black"/>
<rect width="0.675684" height="519.383" rx="0.337842" transform="matrix(0.983224 0.182402 -0.184463 0.982839 900.699 403.064)" fill="black"/>
<rect width="0.675684" height="519.383" rx="0.337842" transform="matrix(0.983224 0.182402 -0.184463 0.982839 904.495 403.769)" fill="black"/>
<rect width="0.675684" height="519.383" rx="0.337842" transform="matrix(0.983224 0.182402 -0.184463 0.982839 1.63135 360.305)" fill="black"/>
<rect width="0.675684" height="519.383" rx="0.337842" transform="matrix(0.983224 0.182402 -0.184463 0.982839 5.42676 361.008)" fill="black"/>
<rect width="0.675684" height="519.383" rx="0.337842" transform="matrix(0.983224 0.182402 -0.184463 0.982839 9.22314 361.713)" fill="black"/>
<rect width="0.675684" height="519.383" rx="0.337842" transform="matrix(0.983224 0.182402 -0.184463 0.982839 13.019 362.418)" fill="black"/>
<rect width="0.675684" height="519.383" rx="0.337842" transform="matrix(0.983224 0.182402 -0.184463 0.982839 35.7959 366.643)" fill="black"/>
<rect width="0.675684" height="519.383" rx="0.337842" transform="matrix(0.983224 0.182402 -0.184463 0.982839 16.8149 363.121)" fill="black"/>
<rect width="0.675684" height="519.383" rx="0.337842" transform="matrix(0.983224 0.182402 -0.184463 0.982839 39.5938 367.348)" fill="black"/>
<rect width="0.675684" height="519.383" rx="0.337842" transform="matrix(0.983224 0.182402 -0.184463 0.982839 20.6123 363.826)" fill="black"/>
<rect width="0.675684" height="519.383" rx="0.337842" transform="matrix(0.983224 0.182402 -0.184463 0.982839 43.3896 368.051)" fill="black"/>
<rect width="0.675684" height="519.383" rx="0.337842" transform="matrix(0.983224 0.182402 -0.184463 0.982839 24.4082 364.529)" fill="black"/>
<rect width="0.675684" height="519.383" rx="0.337842" transform="matrix(0.983224 0.182402 -0.184463 0.982839 47.1855 368.756)" fill="black"/>
<rect width="0.675684" height="519.383" rx="0.337842" transform="matrix(0.983224 0.182402 -0.184463 0.982839 28.2046 365.234)" fill="black"/>
<rect width="0.675684" height="519.383" rx="0.337842" transform="matrix(0.983224 0.182402 -0.184463 0.982839 50.9814 369.461)" fill="black"/>
<rect width="0.675684" height="519.383" rx="0.337842" transform="matrix(0.983224 0.182402 -0.184463 0.982839 32 365.938)" fill="black"/>
<rect width="0.675684" height="519.383" rx="0.337842" transform="matrix(0.983224 0.182402 -0.184463 0.982839 54.7793 370.164)" fill="black"/>
<rect width="0.675684" height="519.383" rx="0.337842" transform="matrix(0.983224 0.182402 -0.184463 0.982839 58.4375 371.56)" fill="black"/>
<rect width="0.675684" height="519.383" rx="0.337842" transform="matrix(0.983224 0.182402 -0.184463 0.982839 81.2144 375.786)" fill="black"/>
<rect width="0.675684" height="519.383" rx="0.337842" transform="matrix(0.983224 0.182402 -0.184463 0.982839 62.2334 372.265)" fill="black"/>
<rect width="0.675684" height="519.383" rx="0.337842" transform="matrix(0.983224 0.182402 -0.184463 0.982839 85.0103 376.491)" fill="black"/>
<rect width="0.675684" height="519.383" rx="0.337842" transform="matrix(0.983224 0.182402 -0.184463 0.982839 66.0293 372.97)" fill="black"/>
<rect width="0.675684" height="519.383" rx="0.337842" transform="matrix(0.983224 0.182402 -0.184463 0.982839 88.8081 377.195)" fill="black"/>
<rect width="0.675684" height="519.383" rx="0.337842" transform="matrix(0.983224 0.182402 -0.184463 0.982839 69.8271 373.673)" fill="black"/>
<rect width="0.675684" height="519.383" rx="0.337842" transform="matrix(0.983224 0.182402 -0.184463 0.982839 92.604 377.897)" fill="black"/>
<rect width="0.675684" height="519.383" rx="0.337842" transform="matrix(0.983224 0.182402 -0.184463 0.982839 73.6226 374.378)" fill="black"/>
<rect width="0.675684" height="519.383" rx="0.337842" transform="matrix(0.983224 0.182402 -0.184463 0.982839 96.3999 378.603)" fill="black"/>
<rect width="0.675684" height="519.383" rx="0.337842" transform="matrix(0.983224 0.182402 -0.184463 0.982839 77.4189 375.081)" fill="black"/>
<rect width="0.675684" height="519.383" rx="0.337842" transform="matrix(0.983224 0.182402 -0.184463 0.982839 100.196 379.308)" fill="black"/>
<rect width="0.675684" height="519.383" rx="0.337842" transform="matrix(0.983224 0.182402 -0.184463 0.982839 103.994 380.011)" fill="black"/>
<rect width="0.675684" height="519.383" rx="0.337842" transform="matrix(0.983224 0.182402 -0.184463 0.982839 126.771 384.237)" fill="black"/>
<rect width="0.675684" height="519.383" rx="0.337842" transform="matrix(0.983224 0.182402 -0.184463 0.982839 107.79 380.716)" fill="black"/>
<rect width="0.675684" height="519.383" rx="0.337842" transform="matrix(0.983224 0.182402 -0.184463 0.982839 130.567 384.94)" fill="black"/>
<rect width="0.675684" height="519.383" rx="0.337842" transform="matrix(0.983224 0.182402 -0.184463 0.982839 111.585 381.421)" fill="black"/>
<rect width="0.675684" height="519.383" rx="0.337842" transform="matrix(0.983224 0.182402 -0.184463 0.982839 134.362 385.646)" fill="black"/>
<rect width="0.675684" height="519.383" rx="0.337842" transform="matrix(0.983224 0.182402 -0.184463 0.982839 115.381 382.124)" fill="black"/>
<rect width="0.675684" height="519.383" rx="0.337842" transform="matrix(0.983224 0.182402 -0.184463 0.982839 138.159 386.351)" fill="black"/>
<rect width="0.675684" height="519.383" rx="0.337842" transform="matrix(0.983224 0.182402 -0.184463 0.982839 119.177 382.83)" fill="black"/>
<rect width="0.675684" height="519.383" rx="0.337842" transform="matrix(0.983224 0.182402 -0.184463 0.982839 141.956 387.054)" fill="black"/>
<rect width="0.675684" height="519.383" rx="0.337842" transform="matrix(0.983224 0.182402 -0.184463 0.982839 122.975 383.532)" fill="black"/>
<rect width="0.675684" height="519.383" rx="0.337842" transform="matrix(0.983224 0.182402 -0.184463 0.982839 145.752 387.759)" fill="black"/>
<rect width="0.675684" height="519.383" rx="0.337842" transform="matrix(0.983224 0.182402 -0.184463 0.982839 149.548 388.462)" fill="black"/>
<rect width="0.675684" height="519.383" rx="0.337842" transform="matrix(0.983224 0.182402 -0.184463 0.982839 172.325 392.688)" fill="black"/>
<rect width="0.675684" height="519.383" rx="0.337842" transform="matrix(0.983224 0.182402 -0.184463 0.982839 153.344 389.167)" fill="black"/>
<rect width="0.675684" height="519.383" rx="0.337842" transform="matrix(0.983224 0.182402 -0.184463 0.982839 176.123 393.392)" fill="black"/>
<rect width="0.675684" height="519.383" rx="0.337842" transform="matrix(0.983224 0.182402 -0.184463 0.982839 157.142 389.872)" fill="black"/>
<rect width="0.675684" height="519.383" rx="0.337842" transform="matrix(0.983224 0.182402 -0.184463 0.982839 179.918 394.097)" fill="black"/>
<rect width="0.675684" height="519.383" rx="0.337842" transform="matrix(0.983224 0.182402 -0.184463 0.982839 160.938 390.575)" fill="black"/>
<rect width="0.675684" height="519.383" rx="0.337842" transform="matrix(0.983224 0.182402 -0.184463 0.982839 183.714 394.802)" fill="black"/>
<rect width="0.675684" height="519.383" rx="0.337842" transform="matrix(0.983224 0.182402 -0.184463 0.982839 164.733 391.28)" fill="black"/>
<rect width="0.675684" height="519.383" rx="0.337842" transform="matrix(0.983224 0.182402 -0.184463 0.982839 187.51 395.505)" fill="black"/>
<rect width="0.675684" height="519.383" rx="0.337842" transform="matrix(0.983224 0.182402 -0.184463 0.982839 168.529 391.983)" fill="black"/>
<rect width="0.675684" height="519.383" rx="0.337842" transform="matrix(0.983224 0.182402 -0.184463 0.982839 191.308 396.21)" fill="black"/>
<rect width="0.675684" height="519.383" rx="0.337842" transform="matrix(0.983224 0.182402 -0.184463 0.982839 195.104 396.915)" fill="black"/>
<rect width="0.675684" height="519.383" rx="0.337842" transform="matrix(0.983224 0.182402 -0.184463 0.982839 217.881 401.14)" fill="black"/>
<rect width="0.675684" height="519.383" rx="0.337842" transform="matrix(0.983224 0.182402 -0.184463 0.982839 198.9 397.618)" fill="black"/>
<rect width="0.675684" height="519.383" rx="0.337842" transform="matrix(0.983224 0.182402 -0.184463 0.982839 221.677 401.843)" fill="black"/>
<rect width="0.675684" height="519.383" rx="0.337842" transform="matrix(0.983224 0.182402 -0.184463 0.982839 202.696 398.323)" fill="black"/>
<rect width="0.675684" height="519.383" rx="0.337842" transform="matrix(0.983224 0.182402 -0.184463 0.982839 225.473 402.548)" fill="black"/>
<rect width="0.675684" height="519.383" rx="0.337842" transform="matrix(0.983224 0.182402 -0.184463 0.982839 206.492 399.026)" fill="black"/>
<rect width="0.675684" height="519.383" rx="0.337842" transform="matrix(0.983224 0.182402 -0.184463 0.982839 229.271 403.251)" fill="black"/>
<rect width="0.675684" height="519.383" rx="0.337842" transform="matrix(0.983224 0.182402 -0.184463 0.982839 210.29 399.731)" fill="black"/>
<rect width="0.675684" height="519.383" rx="0.337842" transform="matrix(0.983224 0.182402 -0.184463 0.982839 233.066 403.956)" fill="black"/>
<rect width="0.675684" height="519.383" rx="0.337842" transform="matrix(0.983224 0.182402 -0.184463 0.982839 214.085 400.435)" fill="black"/>
<rect width="0.675684" height="519.383" rx="0.337842" transform="matrix(0.983224 0.182402 -0.184463 0.982839 236.862 404.661)" fill="black"/>
<rect width="0.675684" height="519.383" rx="0.337842" transform="matrix(0.983224 0.182402 -0.184463 0.982839 240.658 405.364)" fill="black"/>
<rect width="0.675684" height="519.383" rx="0.337842" transform="matrix(0.983224 0.182402 -0.184463 0.982839 263.438 409.591)" fill="black"/>
<rect width="0.675684" height="519.383" rx="0.337842" transform="matrix(0.983224 0.182402 -0.184463 0.982839 244.456 406.07)" fill="black"/>
<rect width="0.675684" height="519.383" rx="0.337842" transform="matrix(0.983224 0.182402 -0.184463 0.982839 267.233 410.294)" fill="black"/>
<rect width="0.675684" height="519.383" rx="0.337842" transform="matrix(0.983224 0.182402 -0.184463 0.982839 248.251 406.772)" fill="black"/>
<rect width="0.675684" height="519.383" rx="0.337842" transform="matrix(0.983224 0.182402 -0.184463 0.982839 271.029 410.999)" fill="black"/>
<rect width="0.675684" height="519.383" rx="0.337842" transform="matrix(0.983224 0.182402 -0.184463 0.982839 252.048 407.478)" fill="black"/>
<rect width="0.675684" height="519.383" rx="0.337842" transform="matrix(0.983224 0.182402 -0.184463 0.982839 274.825 411.704)" fill="black"/>
<rect width="0.675684" height="519.383" rx="0.337842" transform="matrix(0.983224 0.182402 -0.184463 0.982839 255.843 408.181)" fill="black"/>
<rect width="0.675684" height="519.383" rx="0.337842" transform="matrix(0.983224 0.182402 -0.184463 0.982839 278.621 412.407)" fill="black"/>
<rect width="0.675684" height="519.383" rx="0.337842" transform="matrix(0.983224 0.182402 -0.184463 0.982839 259.639 408.886)" fill="black"/>
<rect width="0.675684" height="519.383" rx="0.337842" transform="matrix(0.983224 0.182402 -0.184463 0.982839 282.418 413.112)" fill="black"/>
<rect width="0.675684" height="519.383" rx="0.337842" transform="matrix(0.983224 0.182402 -0.184463 0.982839 286.214 413.815)" fill="black"/>
<rect width="0.675684" height="519.383" rx="0.337842" transform="matrix(0.983224 0.182402 -0.184463 0.982839 308.991 418.042)" fill="black"/>
<rect width="0.675684" height="519.383" rx="0.337842" transform="matrix(0.983224 0.182402 -0.184463 0.982839 290.01 414.521)" fill="black"/>
<rect width="0.675684" height="519.383" rx="0.337842" transform="matrix(0.983224 0.182402 -0.184463 0.982839 312.787 418.747)" fill="black"/>
<rect width="0.675684" height="519.383" rx="0.337842" transform="matrix(0.983224 0.182402 -0.184463 0.982839 293.806 415.226)" fill="black"/>
<rect width="0.675684" height="519.383" rx="0.337842" transform="matrix(0.983224 0.182402 -0.184463 0.982839 316.585 419.451)" fill="black"/>
<rect width="0.675684" height="519.383" rx="0.337842" transform="matrix(0.983224 0.182402 -0.184463 0.982839 297.604 415.929)" fill="black"/>
<rect width="0.675684" height="519.383" rx="0.337842" transform="matrix(0.983224 0.182402 -0.184463 0.982839 320.381 420.155)" fill="black"/>
<rect width="0.675684" height="519.383" rx="0.337842" transform="matrix(0.983224 0.182402 -0.184463 0.982839 301.399 416.634)" fill="black"/>
<rect width="0.675684" height="519.383" rx="0.337842" transform="matrix(0.983224 0.182402 -0.184463 0.982839 324.177 420.858)" fill="black"/>
<rect width="0.675684" height="519.383" rx="0.337842" transform="matrix(0.983224 0.182402 -0.184463 0.982839 305.195 417.337)" fill="black"/>
<rect width="0.675684" height="519.383" rx="0.337842" transform="matrix(0.983224 0.182402 -0.184463 0.982839 327.973 421.563)" fill="black"/>
<rect width="0.675684" height="519.383" rx="0.337842" transform="matrix(0.983224 0.182402 -0.184463 0.982839 331.771 422.267)" fill="black"/>
<rect width="0.675684" height="519.383" rx="0.337842" transform="matrix(0.983224 0.182402 -0.184463 0.982839 354.547 426.493)" fill="black"/>
<rect width="0.675684" height="519.383" rx="0.337842" transform="matrix(0.983224 0.182402 -0.184463 0.982839 335.566 422.972)" fill="black"/>
<rect width="0.675684" height="519.383" rx="0.337842" transform="matrix(0.983224 0.182402 -0.184463 0.982839 358.344 427.198)" fill="black"/>
<rect width="0.675684" height="519.383" rx="0.337842" transform="matrix(0.983224 0.182402 -0.184463 0.982839 339.362 423.677)" fill="black"/>
<rect width="0.675684" height="519.383" rx="0.337842" transform="matrix(0.983224 0.182402 -0.184463 0.982839 362.14 427.901)" fill="black"/>
<rect width="0.675684" height="519.383" rx="0.337842" transform="matrix(0.983224 0.182402 -0.184463 0.982839 343.158 424.38)" fill="black"/>
<rect width="0.675684" height="519.383" rx="0.337842" transform="matrix(0.983224 0.182402 -0.184463 0.982839 365.935 428.606)" fill="black"/>
<rect width="0.675684" height="519.383" rx="0.337842" transform="matrix(0.983224 0.182402 -0.184463 0.982839 346.954 425.085)" fill="black"/>
<rect width="0.675684" height="519.383" rx="0.337842" transform="matrix(0.983224 0.182402 -0.184463 0.982839 369.733 429.31)" fill="black"/>
<rect width="0.675684" height="519.383" rx="0.337842" transform="matrix(0.983224 0.182402 -0.184463 0.982839 350.752 425.788)" fill="black"/>
<rect width="0.675684" height="519.383" rx="0.337842" transform="matrix(0.983224 0.182402 -0.184463 0.982839 373.529 430.015)" fill="black"/>
<rect width="0.675684" height="519.383" rx="0.337842" transform="matrix(0.983224 0.182402 -0.184463 0.982839 377.325 430.718)" fill="black"/>
<rect width="0.675684" height="519.383" rx="0.337842" transform="matrix(0.983224 0.182402 -0.184463 0.982839 400.102 434.944)" fill="black"/>
<rect width="0.675684" height="519.383" rx="0.337842" transform="matrix(0.983224 0.182402 -0.184463 0.982839 381.121 431.423)" fill="black"/>
<rect width="0.675684" height="519.383" rx="0.337842" transform="matrix(0.983224 0.182402 -0.184463 0.982839 403.899 435.647)" fill="black"/>
<rect width="0.675684" height="519.383" rx="0.337842" transform="matrix(0.983224 0.182402 -0.184463 0.982839 384.918 432.128)" fill="black"/>
<rect width="0.675684" height="519.383" rx="0.337842" transform="matrix(0.983224 0.182402 -0.184463 0.982839 407.695 436.353)" fill="black"/>
<rect width="0.675684" height="519.383" rx="0.337842" transform="matrix(0.983224 0.182402 -0.184463 0.982839 388.714 432.831)" fill="black"/>
<rect width="0.675684" height="519.383" rx="0.337842" transform="matrix(0.983224 0.182402 -0.184463 0.982839 411.491 437.058)" fill="black"/>
<rect width="0.675684" height="519.383" rx="0.337842" transform="matrix(0.983224 0.182402 -0.184463 0.982839 392.51 433.536)" fill="black"/>
<rect width="0.675684" height="519.383" rx="0.337842" transform="matrix(0.983224 0.182402 -0.184463 0.982839 415.287 437.761)" fill="black"/>
<rect width="0.675684" height="519.383" rx="0.337842" transform="matrix(0.983224 0.182402 -0.184463 0.982839 396.306 434.239)" fill="black"/>
<rect width="0.675684" height="519.383" rx="0.337842" transform="matrix(0.983224 0.182402 -0.184463 0.982839 419.083 438.466)" fill="black"/>
<rect width="0.675684" height="519.383" rx="0.337842" transform="matrix(0.983224 0.182402 -0.184463 0.982839 422.388 439.079)" fill="black"/>
<rect width="0.675684" height="519.383" rx="0.337842" transform="matrix(0.983224 0.182402 -0.184463 0.982839 445.165 443.304)" fill="black"/>
<rect width="0.675684" height="519.383" rx="0.337842" transform="matrix(0.983224 0.182402 -0.184463 0.982839 426.183 439.782)" fill="black"/>
<rect width="0.675684" height="519.383" rx="0.337842" transform="matrix(0.983224 0.182402 -0.184463 0.982839 448.962 444.007)" fill="black"/>
<rect width="0.675684" height="519.383" rx="0.337842" transform="matrix(0.983224 0.182402 -0.184463 0.982839 429.979 440.487)" fill="black"/>
<rect width="0.675684" height="519.383" rx="0.337842" transform="matrix(0.983224 0.182402 -0.184463 0.982839 452.758 444.712)" fill="black"/>
<rect width="0.675684" height="519.383" rx="0.337842" transform="matrix(0.983224 0.182402 -0.184463 0.982839 433.777 441.19)" fill="black"/>
<rect width="0.675684" height="519.383" rx="0.337842" transform="matrix(0.983224 0.182402 -0.184463 0.982839 456.554 445.417)" fill="black"/>
<rect width="0.675684" height="519.383" rx="0.337842" transform="matrix(0.983224 0.182402 -0.184463 0.982839 437.573 441.896)" fill="black"/>
<rect width="0.675684" height="519.383" rx="0.337842" transform="matrix(0.983224 0.182402 -0.184463 0.982839 460.35 446.12)" fill="black"/>
<rect width="0.675684" height="519.383" rx="0.337842" transform="matrix(0.983224 0.182402 -0.184463 0.982839 441.369 442.599)" fill="black"/>
<rect width="0.675684" height="519.383" rx="0.337842" transform="matrix(0.983224 0.182402 -0.184463 0.982839 464.146 446.826)" fill="black"/>
<rect width="0.675684" height="519.383" rx="0.337842" transform="matrix(0.983224 0.182402 -0.184463 0.982839 467.944 447.528)" fill="black"/>
<rect width="0.675684" height="519.383" rx="0.337842" transform="matrix(0.983224 0.182402 -0.184463 0.982839 490.721 451.755)" fill="black"/>
<rect width="0.675684" height="519.383" rx="0.337842" transform="matrix(0.983224 0.182402 -0.184463 0.982839 471.739 448.233)" fill="black"/>
<rect width="0.675684" height="519.383" rx="0.337842" transform="matrix(0.983224 0.182402 -0.184463 0.982839 494.517 452.46)" fill="black"/>
<rect width="0.675684" height="519.383" rx="0.337842" transform="matrix(0.983224 0.182402 -0.184463 0.982839 475.536 448.938)" fill="black"/>
<rect width="0.675684" height="519.383" rx="0.337842" transform="matrix(0.983224 0.182402 -0.184463 0.982839 498.312 453.163)" fill="black"/>
<rect width="0.675684" height="519.383" rx="0.337842" transform="matrix(0.983224 0.182402 -0.184463 0.982839 479.331 449.642)" fill="black"/>
<rect width="0.675684" height="519.383" rx="0.337842" transform="matrix(0.983224 0.182402 -0.184463 0.982839 502.11 453.868)" fill="black"/>
<rect width="0.675684" height="519.383" rx="0.337842" transform="matrix(0.983224 0.182402 -0.184463 0.982839 483.127 450.347)" fill="black"/>
<rect width="0.675684" height="519.383" rx="0.337842" transform="matrix(0.983224 0.182402 -0.184463 0.982839 505.906 454.573)" fill="black"/>
<rect width="0.675684" height="519.383" rx="0.337842" transform="matrix(0.983224 0.182402 -0.184463 0.982839 486.925 451.05)" fill="black"/>
<rect width="0.675684" height="519.383" rx="0.337842" transform="matrix(0.983224 0.182402 -0.184463 0.982839 509.702 455.276)" fill="black"/>
<rect width="0.675684" height="519.383" rx="0.337842" transform="matrix(0.983224 0.182402 -0.184463 0.982839 513.498 455.981)" fill="black"/>
<rect width="0.675684" height="519.383" rx="0.337842" transform="matrix(0.983224 0.182402 -0.184463 0.982839 536.275 460.206)" fill="black"/>
<rect width="0.675684" height="519.383" rx="0.337842" transform="matrix(0.983224 0.182402 -0.184463 0.982839 517.293 456.685)" fill="black"/>
<rect width="0.675684" height="519.383" rx="0.337842" transform="matrix(0.983224 0.182402 -0.184463 0.982839 540.073 460.911)" fill="black"/>
<rect width="0.675684" height="519.383" rx="0.337842" transform="matrix(0.983224 0.182402 -0.184463 0.982839 521.091 457.39)" fill="black"/>
<rect width="0.675684" height="519.383" rx="0.337842" transform="matrix(0.983224 0.182402 -0.184463 0.982839 543.869 461.614)" fill="black"/>
<rect width="0.675684" height="519.383" rx="0.337842" transform="matrix(0.983224 0.182402 -0.184463 0.982839 524.887 458.093)" fill="black"/>
<rect width="0.675684" height="519.383" rx="0.337842" transform="matrix(0.983224 0.182402 -0.184463 0.982839 547.665 462.319)" fill="black"/>
<rect width="0.675684" height="519.383" rx="0.337842" transform="matrix(0.983224 0.182402 -0.184463 0.982839 528.683 458.798)" fill="black"/>
<rect width="0.675684" height="519.383" rx="0.337842" transform="matrix(0.983224 0.182402 -0.184463 0.982839 551.46 463.022)" fill="black"/>
<rect width="0.675684" height="519.383" rx="0.337842" transform="matrix(0.983224 0.182402 -0.184463 0.982839 532.479 459.501)" fill="black"/>
<rect width="0.675684" height="519.383" rx="0.337842" transform="matrix(0.983224 0.182402 -0.184463 0.982839 555.258 463.728)" fill="black"/>
<rect width="0.675684" height="519.383" rx="0.337842" transform="matrix(0.983224 0.182402 -0.184463 0.982839 559.054 464.431)" fill="black"/>
<rect width="0.675684" height="519.383" rx="0.337842" transform="matrix(0.983224 0.182402 -0.184463 0.982839 581.831 468.657)" fill="black"/>
<rect width="0.675684" height="519.383" rx="0.337842" transform="matrix(0.983224 0.182402 -0.184463 0.982839 562.85 465.136)" fill="black"/>
<rect width="0.675684" height="519.383" rx="0.337842" transform="matrix(0.983224 0.182402 -0.184463 0.982839 585.627 469.362)" fill="black"/>
<rect width="0.675684" height="519.383" rx="0.337842" transform="matrix(0.983224 0.182402 -0.184463 0.982839 566.646 465.841)" fill="black"/>
<rect width="0.675684" height="519.383" rx="0.337842" transform="matrix(0.983224 0.182402 -0.184463 0.982839 589.425 470.065)" fill="black"/>
<rect width="0.675684" height="519.383" rx="0.337842" transform="matrix(0.983224 0.182402 -0.184463 0.982839 570.441 466.544)" fill="black"/>
<rect width="0.675684" height="519.383" rx="0.337842" transform="matrix(0.983224 0.182402 -0.184463 0.982839 593.221 470.771)" fill="black"/>
<rect width="0.675684" height="519.383" rx="0.337842" transform="matrix(0.983224 0.182402 -0.184463 0.982839 574.239 467.249)" fill="black"/>
<rect width="0.675684" height="519.383" rx="0.337842" transform="matrix(0.983224 0.182402 -0.184463 0.982839 597.017 471.474)" fill="black"/>
<rect width="0.675684" height="519.383" rx="0.337842" transform="matrix(0.983224 0.182402 -0.184463 0.982839 578.035 467.954)" fill="black"/>
<rect width="0.675684" height="519.383" rx="0.337842" transform="matrix(0.983224 0.182402 -0.184463 0.982839 600.812 472.179)" fill="black"/>
<rect width="0.675684" height="519.383" rx="0.337842" transform="matrix(0.983224 0.182402 -0.184463 0.982839 604.608 472.884)" fill="black"/>
<rect width="0.675684" height="519.383" rx="0.337842" transform="matrix(0.983224 0.182402 -0.184463 0.982839 627.387 477.109)" fill="black"/>
<rect width="0.675684" height="519.383" rx="0.337842" transform="matrix(0.983224 0.182402 -0.184463 0.982839 608.406 473.587)" fill="black"/>
<rect width="0.675684" height="519.383" rx="0.337842" transform="matrix(0.983224 0.182402 -0.184463 0.982839 631.183 477.813)" fill="black"/>
<rect width="0.675684" height="519.383" rx="0.337842" transform="matrix(0.983224 0.182402 -0.184463 0.982839 612.202 474.292)" fill="black"/>
<rect width="0.675684" height="519.383" rx="0.337842" transform="matrix(0.983224 0.182402 -0.184463 0.982839 634.979 478.517)" fill="black"/>
<rect width="0.675684" height="519.383" rx="0.337842" transform="matrix(0.983224 0.182402 -0.184463 0.982839 615.998 474.995)" fill="black"/>
<rect width="0.675684" height="519.383" rx="0.337842" transform="matrix(0.983224 0.182402 -0.184463 0.982839 638.774 479.222)" fill="black"/>
<rect width="0.675684" height="519.383" rx="0.337842" transform="matrix(0.983224 0.182402 -0.184463 0.982839 619.794 475.701)" fill="black"/>
<rect width="0.675684" height="519.383" rx="0.337842" transform="matrix(0.983224 0.182402 -0.184463 0.982839 642.572 479.925)" fill="black"/>
<rect width="0.675684" height="519.383" rx="0.337842" transform="matrix(0.983224 0.182402 -0.184463 0.982839 623.589 476.405)" fill="black"/>
<rect width="0.675684" height="519.383" rx="0.337842" transform="matrix(0.983224 0.182402 -0.184463 0.982839 646.369 480.63)" fill="black"/>
<rect width="0.675684" height="519.383" rx="0.337842" transform="matrix(0.983224 0.182402 -0.184463 0.982839 650.165 481.335)" fill="black"/>
<rect width="0.675684" height="519.383" rx="0.337842" transform="matrix(0.983224 0.182402 -0.184463 0.982839 672.941 485.56)" fill="black"/>
<rect width="0.675684" height="519.383" rx="0.337842" transform="matrix(0.983224 0.182402 -0.184463 0.982839 653.96 482.038)" fill="black"/>
<rect width="0.675684" height="519.383" rx="0.337842" transform="matrix(0.983224 0.182402 -0.184463 0.982839 676.737 486.265)" fill="black"/>
<rect width="0.675684" height="519.383" rx="0.337842" transform="matrix(0.983224 0.182402 -0.184463 0.982839 657.756 482.744)" fill="black"/>
<rect width="0.675684" height="519.383" rx="0.337842" transform="matrix(0.983224 0.182402 -0.184463 0.982839 680.535 486.968)" fill="black"/>
<rect width="0.675684" height="519.383" rx="0.337842" transform="matrix(0.983224 0.182402 -0.184463 0.982839 661.554 483.446)" fill="black"/>
<rect width="0.675684" height="519.383" rx="0.337842" transform="matrix(0.983224 0.182402 -0.184463 0.982839 684.331 487.673)" fill="black"/>
<rect width="0.675684" height="519.383" rx="0.337842" transform="matrix(0.983224 0.182402 -0.184463 0.982839 665.35 484.151)" fill="black"/>
<rect width="0.675684" height="519.383" rx="0.337842" transform="matrix(0.983224 0.182402 -0.184463 0.982839 688.127 488.376)" fill="black"/>
<rect width="0.675684" height="519.383" rx="0.337842" transform="matrix(0.983224 0.182402 -0.184463 0.982839 669.146 484.854)" fill="black"/>
<rect width="0.675684" height="519.383" rx="0.337842" transform="matrix(0.983224 0.182402 -0.184463 0.982839 691.923 489.081)" fill="black"/>
<rect width="0.675684" height="519.383" rx="0.337842" transform="matrix(0.983224 0.182402 -0.184463 0.982839 695.72 489.784)" fill="black"/>
<rect width="0.675684" height="519.383" rx="0.337842" transform="matrix(0.983224 0.182402 -0.184463 0.982839 718.498 494.011)" fill="black"/>
<rect width="0.675684" height="519.383" rx="0.337842" transform="matrix(0.983224 0.182402 -0.184463 0.982839 699.516 490.489)" fill="black"/>
<rect width="0.675684" height="519.383" rx="0.337842" transform="matrix(0.983224 0.182402 -0.184463 0.982839 722.293 494.716)" fill="black"/>
<rect width="0.675684" height="519.383" rx="0.337842" transform="matrix(0.983224 0.182402 -0.184463 0.982839 703.312 491.194)" fill="black"/>
<rect width="0.675684" height="519.383" rx="0.337842" transform="matrix(0.983224 0.182402 -0.184463 0.982839 726.089 495.419)" fill="black"/>
<rect width="0.675684" height="519.383" rx="0.337842" transform="matrix(0.983224 0.182402 -0.184463 0.982839 707.108 491.897)" fill="black"/>
<rect width="0.675684" height="519.383" rx="0.337842" transform="matrix(0.983224 0.182402 -0.184463 0.982839 729.887 496.124)" fill="black"/>
<rect width="0.675684" height="519.383" rx="0.337842" transform="matrix(0.983224 0.182402 -0.184463 0.982839 710.904 492.603)" fill="black"/>
<rect width="0.675684" height="519.383" rx="0.337842" transform="matrix(0.983224 0.182402 -0.184463 0.982839 733.684 496.827)" fill="black"/>
<rect width="0.675684" height="519.383" rx="0.337842" transform="matrix(0.983224 0.182402 -0.184463 0.982839 714.702 493.306)" fill="black"/>
<rect width="0.675684" height="519.383" rx="0.337842" transform="matrix(0.983224 0.182402 -0.184463 0.982839 737.479 497.533)" fill="black"/>
<rect width="0.675684" height="519.383" rx="0.337842" transform="matrix(0.983224 0.182402 -0.184463 0.982839 741.274 498.237)" fill="black"/>
<rect width="0.675684" height="519.383" rx="0.337842" transform="matrix(0.983224 0.182402 -0.184463 0.982839 764.052 502.462)" fill="black"/>
<rect width="0.675684" height="519.383" rx="0.337842" transform="matrix(0.983224 0.182402 -0.184463 0.982839 745.07 498.94)" fill="black"/>
<rect width="0.675684" height="519.383" rx="0.337842" transform="matrix(0.983224 0.182402 -0.184463 0.982839 767.85 503.167)" fill="black"/>
<rect width="0.675684" height="519.383" rx="0.337842" transform="matrix(0.983224 0.182402 -0.184463 0.982839 748.869 499.646)" fill="black"/>
<rect width="0.675684" height="519.383" rx="0.337842" transform="matrix(0.983224 0.182402 -0.184463 0.982839 771.646 503.87)" fill="black"/>
<rect width="0.675684" height="519.383" rx="0.337842" transform="matrix(0.983224 0.182402 -0.184463 0.982839 752.665 500.349)" fill="black"/>
<rect width="0.675684" height="519.383" rx="0.337842" transform="matrix(0.983224 0.182402 -0.184463 0.982839 775.441 504.575)" fill="black"/>
<rect width="0.675684" height="519.383" rx="0.337842" transform="matrix(0.983224 0.182402 -0.184463 0.982839 756.46 501.054)" fill="black"/>
<rect width="0.675684" height="519.383" rx="0.337842" transform="matrix(0.983224 0.182402 -0.184463 0.982839 779.237 505.278)" fill="black"/>
<rect width="0.675684" height="519.383" rx="0.337842" transform="matrix(0.983224 0.182402 -0.184463 0.982839 760.256 501.759)" fill="black"/>
<rect width="0.675684" height="519.383" rx="0.337842" transform="matrix(0.983224 0.182402 -0.184463 0.982839 783.035 505.984)" fill="black"/>
</g>
</svg>
