<svg width="258" height="18" viewBox="0 0 258 18" fill="none" xmlns="http://www.w3.org/2000/svg">
<path d="M2 15.1456C30.2671 14.5126 59.2847 9.40848 86.843 3.3463C93.4093 1.90187 78.6567 12.9847 76.7301 14.5728C74.386 16.5051 76.6976 16.0133 78.9055 15.7184C92.1634 13.9477 105.322 11.6343 118.417 8.95957C129.367 6.72275 140.368 4.86526 151.343 2.77351C152.898 2.47702 157.921 0.701936 154.988 3.80452C152.024 6.93946 149.047 12.7608 145.463 15.0883C144.778 15.5329 147.056 15.6924 147.874 15.6038C162.796 13.9886 177.645 12.2294 192.5 10.0479C205.2 8.18273 217.553 6.66795 230.247 5.63743C238.781 4.94467 247.686 4.79828 256 2.77351" stroke="#FF6625" stroke-width="3" stroke-linecap="round"/>
</svg>
