<svg width="269" height="18" viewBox="0 0 269 18" fill="none" xmlns="http://www.w3.org/2000/svg">
<path d="M2 15.1456C31.4913 14.5126 61.7656 9.40848 90.5174 3.3463C97.368 1.90187 81.9765 12.9847 79.9664 14.5728C77.5208 16.5051 79.9325 16.0133 82.2361 15.7184C96.0681 13.9477 109.797 11.6343 123.458 8.95957C134.883 6.72275 146.36 4.86526 157.81 2.77351C159.433 2.47702 164.674 0.701936 161.613 3.80452C158.521 6.93946 155.415 12.7608 151.676 15.0883C150.962 15.5329 153.338 15.6924 154.191 15.6038C169.759 13.9886 185.252 12.2294 200.75 10.0479C214 8.18273 226.888 6.66795 240.132 5.63743C249.035 4.94467 258.326 4.79828 267 2.77351" stroke="#FF6625" stroke-width="3" stroke-linecap="round"/>
</svg>
