<svg width="365" height="24" viewBox="0 0 365 24" fill="none" xmlns="http://www.w3.org/2000/svg">
<path d="M2 22C8.04141 22 14.2414 20.998 20.227 20.3945C45.9154 17.8041 72.0351 14.7728 97.0869 8.71273C97.1607 8.6949 109.94 4.2863 104.873 6.66428C99.5304 9.17157 93.8755 12.7699 90.3624 17.3495C86.1549 22.8342 100.883 19.0625 102.632 18.7889C125.041 15.2835 147.081 10.2748 169.582 7.16255C170.606 7.02092 182.742 4.32544 179.728 6.71964C176.291 9.4493 173.554 12.8648 169.936 15.4117C164.567 19.1912 183.397 15.4078 190.05 14.5813C212.677 11.7705 234.669 5.8237 257.295 3.06565C260.401 2.68705 267.653 0.62992 262.132 3.50855C258.026 5.64999 253.549 10.1327 250.689 13.5847C247.945 16.8964 252.207 16.0752 255.054 16.2422C276.463 17.498 297.811 13.3205 318.878 10.2629C333.693 8.11262 349.007 6.05528 363 6.05528" stroke="#FF6625" stroke-width="3" stroke-linecap="round"/>
</svg>
