<svg width="405" height="19" viewBox="0 0 405 19" fill="none" xmlns="http://www.w3.org/2000/svg">
<path d="M2 12.2447C43.3185 12.2447 84.7631 9.57319 125.817 6.64537C143.527 5.38231 161.217 3.9389 178.857 2.29034C183.185 1.88591 180.25 1.92092 178.353 2.29034C171.664 3.59324 165.452 6.3969 159.02 8.17246C150.119 10.6295 138.124 11.877 130.272 15.7513C126.636 17.5452 139.227 16.9495 143.721 16.7128C175.625 15.0328 207.362 12.6265 238.958 9.19052C255.776 7.36168 272.488 5.11278 289.309 3.3084C294.475 2.75429 281.102 4.12766 280.063 4.32646C274.078 5.47098 269.362 7.54839 264.008 9.52987C259.366 11.2476 264.493 10.2251 268.295 10.152C312.667 9.29899 357.679 6.65155 401.61 2.29034C406.802 1.77491 395.926 3.6406 393.877 4.10023" stroke="#FF6625" stroke-width="3" stroke-linecap="round"/>
</svg>
