<svg width="350" height="19" viewBox="0 0 350 19" fill="none" xmlns="http://www.w3.org/2000/svg">
<path d="M2 12.2447C37.6514 12.2447 73.4116 9.57319 108.835 6.64537C124.116 5.38231 139.379 3.9389 154.6 2.29034C158.334 1.88591 155.801 1.92092 154.165 2.29034C148.393 3.59324 143.033 6.3969 137.483 8.17246C129.803 10.6295 119.453 11.877 112.679 15.7513C109.542 17.5452 120.405 16.9495 124.283 16.7128C151.811 15.0328 179.195 12.6265 206.458 9.19052C220.969 7.36168 235.388 5.11278 249.902 3.3084C254.36 2.75429 242.821 4.12766 241.924 4.32646C236.76 5.47098 232.691 7.54839 228.071 9.52987C224.066 11.2476 228.491 10.2251 231.77 10.152C270.056 9.29899 308.895 6.65155 346.801 2.29034C351.281 1.77491 341.896 3.6406 340.128 4.10023" stroke="#FF6625" stroke-width="3" stroke-linecap="round"/>
</svg>
