<svg width="231" height="18" viewBox="0 0 231 18" fill="none" xmlns="http://www.w3.org/2000/svg">
<path d="M229 2.85438C203.738 3.48742 177.805 8.59152 153.176 14.6537C147.307 16.0981 160.492 5.01529 162.214 3.42716C164.309 1.49487 162.243 1.98671 160.269 2.2816C148.421 4.05228 136.661 6.36573 124.958 9.04043C115.172 11.2773 105.34 13.1347 95.5324 15.2265C94.1422 15.523 89.653 17.2981 92.2745 14.1955C94.9234 11.0605 97.5841 5.23923 100.787 2.91166C101.399 2.4671 99.3634 2.30765 98.6326 2.39615C85.2966 4.01137 72.0255 5.77059 58.75 7.95215C47.4001 9.81727 36.3599 11.3321 25.0153 12.3626C17.389 13.0553 9.42998 13.2017 2 15.2265" stroke="#FF6625" stroke-width="3" stroke-linecap="round"/>
</svg>
