<svg width="244" height="18" viewBox="0 0 244 18" fill="none" xmlns="http://www.w3.org/2000/svg">
<path d="M2 15C28.7091 14.386 56.1273 9.43542 82.1667 3.55556C88.371 2.15458 74.4315 12.9041 72.6111 14.4445C70.3962 16.3186 72.5804 15.8416 74.6667 15.5556C87.1938 13.8381 99.6274 11.5943 112 9.00001C122.347 6.83046 132.742 5.02884 143.111 3.00001C144.581 2.71242 149.327 0.990733 146.556 4.00001C143.755 7.04066 140.942 12.6869 137.556 14.9445C136.909 15.3756 139.061 15.5303 139.833 15.4445C153.933 13.8778 167.964 12.1715 182 10.0556C194 8.24653 205.672 6.77731 217.667 5.77778C225.73 5.10587 234.145 4.96388 242 3.00001" stroke="#FF6625" stroke-width="3" stroke-linecap="round"/>
</svg>
