<svg width="303" height="18" viewBox="0 0 303 18" fill="none" xmlns="http://www.w3.org/2000/svg">
<path d="M2 15.1456C35.2751 14.5126 69.4336 9.40848 101.874 3.3463C109.604 1.90187 92.2376 12.9847 89.9697 14.5728C87.2102 16.5051 89.9314 16.0133 92.5305 15.7184C108.137 13.9477 123.627 11.6343 139.042 8.95957C151.932 6.72275 164.882 4.86526 177.801 2.77351C179.632 2.47702 185.545 0.701936 182.092 3.80452C178.603 6.93946 175.098 12.7608 170.88 15.0883C170.074 15.5329 172.755 15.6924 173.717 15.6038C191.283 13.9886 208.764 12.2294 226.25 10.0479C241.2 8.18273 255.742 6.66795 270.685 5.63743C280.73 4.94467 291.213 4.79828 301 2.77351" stroke="#FF6625" stroke-width="3" stroke-linecap="round"/>
</svg>
