<svg width="327" height="18" viewBox="0 0 327 18" fill="none" xmlns="http://www.w3.org/2000/svg">
<path d="M2 15.1456C37.946 14.5126 74.8463 9.40848 109.891 3.3463C118.241 1.90187 99.4808 12.9847 97.0308 14.5728C94.0499 16.5051 96.9895 16.0133 99.7972 15.7184C116.657 13.9477 133.39 11.6343 150.042 8.95957C163.967 6.72275 177.956 4.86526 191.912 2.77351C193.89 2.47702 200.278 0.701936 196.548 3.80452C192.779 6.93946 188.993 12.7608 184.435 15.0883C183.565 15.5329 186.461 15.6924 187.501 15.6038C206.477 13.9886 225.36 12.2294 244.25 10.0479C260.4 8.18273 276.109 6.66795 292.251 5.63743C303.103 4.94467 314.428 4.79828 325 2.77351" stroke="#FF6625" stroke-width="3" stroke-linecap="round"/>
</svg>
