<svg width="1800" height="681" viewBox="0 0 1800 681" fill="none" xmlns="http://www.w3.org/2000/svg">
<path d="M998.607 781.999C921.623 740.807 768.715 647.086 725.768 647.086C682.82 647.086 646.754 685.941 622.47 704.829L579.837 737.208" stroke="#343434"/>
<path d="M1151.87 728.052C1085.04 687.58 1012.29 647.104 977.547 647.104C946.57 647.104 901.274 680.459 869.091 708.626" stroke="#343434"/>
<path d="M597.79 633.493C578.268 643.533 584.079 660.452 589.424 667.656C576.177 675.326 577.571 699.728 588.029 709.489C597.428 718.261 620.101 726.222 635.44 710.186C642.412 717.856 657.751 719.25 666.815 712.278C675.879 705.306 680.062 682.995 657.751 676.72C673.09 665.565 671.695 647.437 670.301 641.859C668.907 636.282 661.934 614.668 631.257 621.64C636.835 595.843 614.524 587.476 599.882 594.449C585.241 601.421 581.755 622.337 597.79 633.493Z" fill="white"/>
<path d="M599.645 633.87C580.454 643.74 586.165 660.372 591.42 667.454C578.398 674.994 579.768 698.982 590.049 708.578C599.288 717.201 621.577 725.027 636.656 709.263C643.51 716.803 658.589 718.173 667.499 711.319C676.409 704.465 680.521 682.533 658.589 676.364C673.667 665.398 672.297 647.578 670.926 642.095C669.555 636.611 662.701 615.364 632.544 622.218C638.027 596.859 616.094 588.634 601.701 595.488C587.308 602.342 583.881 622.904 599.645 633.87Z" fill="white" stroke="black" stroke-linecap="round"/>
<path d="M621.577 645.521C630.03 668.596 645.429 727.769 639.397 779.859" stroke="black" stroke-linecap="round"/>
<path d="M641.454 666.769L633.915 687.33" stroke="black" stroke-linecap="round"/>
<path d="M614.038 656.488L627.746 665.398" stroke="black" stroke-linecap="round"/>
<path d="M548.537 680.563H341.851V781.478H548.537V680.563Z" fill="white"/>
<path d="M447.845 597.457H230.905L337.756 537.556L447.845 597.457Z" stroke="white" stroke-linecap="round"/>
<path d="M427.406 592.055H235.906L331.406 539.555L427.406 592.055Z" stroke="#282828" stroke-linecap="round"/>
<circle cx="330.835" cy="568.172" r="13.61" fill="white" stroke="black"/>
<rect x="259.784" y="610.369" width="64.8375" height="42.1721" stroke="black"/>
<rect x="345.049" y="610.369" width="64.8375" height="42.1721" stroke="black"/>
<path d="M246.332 591.917L246.332 775.399" stroke="black" stroke-linecap="round"/>
<path d="M421.799 592.917V662.532" stroke="black" stroke-linecap="round"/>
<path d="M566.886 665.993H321.884V680.024H566.886V665.993Z" fill="white" stroke="black" stroke-linecap="round"/>
<path d="M342.391 680.024V781.479" stroke="black" stroke-linecap="round"/>
<rect x="1431.41" y="651.962" width="100.375" height="99.2959" fill="white"/>
<rect x="1436.23" y="665.414" width="85.3443" height="68.0754" stroke="black"/>
<path d="M548.538 680.024L548.538 745.862" stroke="black" stroke-linecap="round"/>
<path d="M1415.76 636.851H1178.85V780.938H1424.39V769.605H1415.76V636.851Z" fill="white"/>
<path d="M1166.98 649.262H1179V636.817H1415.3V649.262H1430.33V639.41L1382.83 556.442H1213.28L1166.98 639.41V649.262Z" stroke="black" stroke-linecap="round"/>
<path d="M1183.13 770.684H1415.22V636.851H1178.85V735.067" stroke="black" stroke-linecap="round"/>
<path d="M1237.13 608.767V652.5H1284.62V608.767L1261.43 585.583L1237.13 608.767Z" fill="white" stroke="black" stroke-linecap="round"/>
<path d="M1261.07 587.374V652.276M1282.88 609.181H1238.22" stroke="black" stroke-linecap="round"/>
<rect x="1198.78" y="667.313" width="123.12" height="89.3438" stroke="black"/>
<path d="M1260.25 667.852V755.599" stroke="black" stroke-linecap="round"/>
<path d="M1402.27 666.531H1346.14V770.684H1402.27V666.531Z" stroke="black" stroke-linecap="round"/>
<path d="M1359.11 701.069V678.403H1390.41V701.069H1359.11Z" fill="white" stroke="black" stroke-linecap="round"/>
<path d="M1097.02 635.517C1115.31 644.374 1110.88 661.139 1106.37 668.415C1118.83 675.26 1118.8 699.109 1109.77 709.118C1101.66 718.113 1081.42 726.949 1066.63 712.049C1060.67 719.854 1046.78 721.942 1038.17 715.577C1029.56 709.213 1024.62 687.667 1044.62 680.493C1030.08 670.349 1030.43 652.616 1031.42 647.114C1032.4 641.612 1037.65 620.216 1065.94 625.554C1059.55 600.678 1079.44 591.465 1093.13 597.564C1106.82 603.664 1111.05 623.883 1097.02 635.517Z" fill="white" stroke="black" stroke-linecap="round"/>
<path d="M1077.31 648.127C1070.67 671.412 1059.46 730.819 1067.74 782.169" stroke="black" stroke-linecap="round"/>
<path d="M1059.99 670.152L1068.04 690.173" stroke="black" stroke-linecap="round"/>
<path d="M1084.86 658.635L1072.62 668.13" stroke="black" stroke-linecap="round"/>
<path d="M1599.97 525.356V782.053H1657.95V686.535H1724.33V782.053H1783.3V525.356H1599.97Z" fill="white" stroke="black" stroke-linecap="round"/>
<circle cx="1691.78" cy="474.768" r="21.3505" fill="white" stroke="black"/>
<rect x="1621.8" y="548.701" width="59.2292" height="92.4591" fill="white" stroke="black"/>
<rect x="1702.8" y="548.701" width="59.2292" height="92.4591" fill="white" stroke="black"/>
<path d="M1638.52 675.201H1743.92" stroke="black" stroke-linecap="round"/>
<path d="M1592.22 662.428H1790.05" stroke="black" stroke-linecap="round"/>
<path d="M183.193 517.279H15.3616V801.136H65.0095V703.999H130.847V801.136H183.193V517.279Z" fill="white" stroke="black" stroke-linecap="round"/>
<path fill-rule="evenodd" clip-rule="evenodd" d="M1.28418 508.497H197.391V517.232H1.28418L1.28418 508.497Z" fill="white" stroke="#1C1C1C"/>
<path d="M73.7288 483.949C73.7288 470.446 84.6747 459.5 98.1773 459.5C111.68 459.5 122.626 470.446 122.626 483.949V487.641H73.7288V483.949Z" fill="white" stroke="black"/>
<rect x="114.078" y="533.416" width="47.7669" height="43.2514" fill="white" stroke="black"/>
<rect x="114.078" y="596.568" width="47.7669" height="43.2514" fill="white" stroke="black"/>
<rect x="39.6062" y="532.889" width="47.7669" height="43.2514" fill="white" stroke="black"/>
<rect x="40.6855" y="596.568" width="47.7669" height="43.2514" fill="white" stroke="black"/>
<path d="M1562 587.742H1401.73L1421.15 620.121H1562V587.742Z" fill="white"/>
<path d="M1402.81 589.901H1562V617.963H1419" stroke="black"/>
<path d="M1541.5 619.042L1541.5 780.937" stroke="white"/>
<path d="M1541.5 619.042L1541.5 780.937" stroke="black"/>
<path d="M1.33105 508.36L100.087 415L197.225 508.36" stroke="black"/>
<path d="M1599.89 525.113L1690.97 423.522L1783.15 525.113" stroke="black"/>
<rect x="-4" y="377" width="1815" height="481" fill="url(#paint0_linear_337_5731)"/>
<g opacity="0.584496">
<path fill-rule="evenodd" clip-rule="evenodd" d="M1312.09 368.022H1359.32V365.875H1312.09V368.022Z" fill="#FFF0EF"/>
<path fill-rule="evenodd" clip-rule="evenodd" d="M1750.02 179.109H1757.54V176.962H1750.02V179.109Z" fill="#FFF0EF"/>
<path d="M868.63 616.554C871.642 617.558 877.817 621.071 878.419 627.095C879.021 622.276 884.694 618.06 887.454 616.554" stroke="#B8B8B8"/>
<path d="M868.63 616.554C871.642 617.558 877.817 621.071 878.419 627.095C879.021 622.276 884.694 618.06 887.454 616.554" stroke="#B8B8B8"/>
<path d="M837.006 603C840.018 604.004 846.192 607.518 846.794 613.541C847.397 608.723 853.069 604.506 855.83 603" stroke="#B8B8B8"/>
<path d="M45.2635 240.562H-14.3086C-14.3086 236.626 -12.0545 228.111 -3.0382 225.535C5.01208 223.235 11.4523 228.218 13.0624 231.438C14.6724 228.576 19.5026 221.241 30.773 223.388C40.31 225.204 44.0112 234.837 45.2635 240.562Z" stroke="#B8B8B8"/>
<path d="M1801.68 17.7473H1766.2C1766.46 8.17694 1774.3 0.5 1783.94 0.5C1793.57 0.5 1801.41 8.17694 1801.68 17.7473Z" stroke="#B8B8B8"/>
<path d="M100.679 40.7473H65.1983C65.4631 31.1769 73.3044 23.5 82.9387 23.5C92.5731 23.5 100.414 31.1769 100.679 40.7473Z" stroke="#B8B8B8"/>
<path d="M1765.32 299.999C1768.33 301.003 1774.5 304.517 1775.1 310.54C1775.71 305.722 1781.38 301.505 1784.14 299.999" stroke="#B8B8B8"/>
<path d="M1765.32 299.999C1768.33 301.003 1774.5 304.517 1775.1 310.54C1775.71 305.722 1781.38 301.505 1784.14 299.999" stroke="#B8B8B8"/>
<path d="M1733.69 286.445C1736.7 287.449 1742.88 290.963 1743.48 296.987C1744.08 292.168 1749.75 287.951 1752.52 286.445" stroke="#B8B8B8"/>
<path d="M1732.61 142.228H1660.69C1663.91 115.93 1689.67 112.174 1704.16 129.884C1721.34 118.614 1732.61 132.031 1732.61 142.228Z" stroke="#B8B8B8"/>
</g>
<defs>
<linearGradient id="paint0_linear_337_5731" x1="903.5" y1="377" x2="903.5" y2="858" gradientUnits="userSpaceOnUse">
<stop stop-color="white"/>
<stop offset="0.576407" stop-color="white" stop-opacity="0.69"/>
<stop offset="1" stop-color="white" stop-opacity="0.19"/>
</linearGradient>
</defs>
</svg>
