<svg width="37" height="32" viewBox="0 0 37 32" fill="none" xmlns="http://www.w3.org/2000/svg">
<path d="M21.6258 31.8726H14.8836V20.7845C14.8836 18.9577 16.2406 15.6441 18.8696 15.729C20.9728 15.797 21.5834 17.7682 21.6258 18.7453V31.8726Z" fill="#161616"/>
<path d="M0 32V12.5853L8.56552 6.4958L14.9685 1.94375L17.3719 0.235097C17.8119 -0.0777689 18.4012 -0.0784194 18.8419 0.233474L33.4269 10.5541C35.227 11.8278 36.2974 13.8982 36.2974 16.1061V32H30.4458C29.0875 32 27.9863 30.8968 27.9863 29.536V16.8761C27.9863 13.474 25.2336 10.716 21.8378 10.716C19.185 10.716 16.6765 11.9263 15.0225 14.0043L14.9685 14.0722V1.94375L8.56552 6.4958L8.37171 29.8093C8.36163 31.0221 7.37742 32 6.1668 32H0Z" fill="#161616"/>
</svg>
