<svg width="68" height="60" viewBox="0 0 68 60" fill="none" xmlns="http://www.w3.org/2000/svg">
<mask id="mask0_115_31" style="mask-type:alpha" maskUnits="userSpaceOnUse" x="0" y="0" width="68" height="60">
<rect width="68" height="60" fill="#D9D9D9"/>
</mask>
<g mask="url(#mask0_115_31)">
<path d="M37.531 30.259H31.1302V19.7323C31.1302 17.998 32.4184 14.8521 34.9143 14.9327C36.9111 14.9973 37.4908 16.8687 37.531 17.7963V30.259Z" fill="#161616"/>
<path d="M17 30.38V11.9482L25.1319 6.16695L31.2107 1.84535L33.4924 0.223195C33.9102 -0.0738319 34.4696 -0.0744495 34.8881 0.221655L48.7347 10.0198C50.4437 11.2291 51.4599 13.1946 51.4599 15.2908V30.38H45.9044C44.6149 30.38 43.5695 29.3327 43.5695 28.0407V16.0217C43.5695 12.7919 40.9561 10.1735 37.7323 10.1735C35.2138 10.1735 32.8323 11.3226 31.262 13.2953L31.2107 13.3598V1.84535L25.1319 6.16695L24.9479 28.3002C24.9383 29.4516 24.0039 30.38 22.8546 30.38H17Z" fill="#161616"/>
<path d="M12.9863 53.38H10.1303V46.204C10.1303 44.284 9.19431 43.012 7.29831 43.012C5.49831 43.012 4.34631 44.308 4.34631 46.252V53.38H1.49031V33.844H4.34631V42.196C5.33031 40.924 6.62631 40.3 8.18631 40.3C11.3303 40.3 12.9863 42.412 12.9863 45.484V53.38ZM22.5818 40.3C24.4298 40.3 26.0138 40.924 27.3338 42.196C28.6538 43.468 29.3018 45.028 29.3018 46.9C29.3018 48.796 28.6538 50.38 27.3338 51.676C26.0378 52.948 24.4538 53.596 22.5578 53.596C20.6858 53.596 19.0778 52.948 17.7578 51.676C16.4378 50.404 15.7898 48.82 15.7898 46.948C15.7898 45.076 16.4618 43.492 17.7818 42.22C19.1018 40.948 20.7098 40.3 22.5818 40.3ZM19.7738 44.068C19.0778 44.836 18.7178 45.772 18.7178 46.9C18.7178 48.028 19.0778 48.988 19.7978 49.804C20.5178 50.596 21.4538 51.004 22.5818 51.004C23.7098 51.004 24.6458 50.62 25.3418 49.828C26.0378 49.036 26.3978 48.076 26.3978 46.948C26.3978 45.82 26.0378 44.86 25.3178 44.068C24.6218 43.276 23.6858 42.892 22.5578 42.892C21.4298 42.892 20.4938 43.276 19.7738 44.068ZM43.5432 53.38H40.7112V46.18C40.7112 44.26 39.8472 42.988 37.9512 42.988C36.2232 42.988 35.1432 44.308 35.1432 46.252V53.38H32.2872V40.564H35.0712V42.292C36.0792 40.948 37.3512 40.276 38.8872 40.276C40.7352 40.276 42.0552 40.972 42.8472 42.388C44.1672 40.948 45.4152 40.276 47.3112 40.276C50.4072 40.276 51.9672 42.388 51.9672 45.46V53.38H49.1112V46.156C49.1112 44.212 48.2712 42.988 46.3752 42.988C44.6232 42.988 43.5432 44.284 43.5432 46.228V53.38ZM57.3824 40.564L61.3664 48.964L65.0624 40.564H68.1584L59.3504 59.692H56.3024L59.8304 51.94L54.1184 40.564H57.3824Z" fill="#161616"/>
</g>
</svg>
