<svg width="119" height="119" viewBox="0 0 119 119" fill="none" xmlns="http://www.w3.org/2000/svg">
<circle cx="59.5" cy="59.5" r="59.5" fill="black"/>
<path d="M67.7758 81.5933H55.5505V61.4877C55.5505 58.1753 58.0109 52.1668 62.778 52.3208C66.5917 52.4441 67.6989 56.0184 67.7758 57.7902V81.5933Z" fill="white"/>
<path d="M28.5625 81.8244V46.6204L44.094 35.5786L55.7042 27.3245L60.0623 24.2263C60.8602 23.659 61.9286 23.6578 62.7279 24.2233L89.1743 42.9373C92.4384 45.247 94.3793 49.0011 94.3793 53.0047V81.8244H83.7687C81.3057 81.8244 79.3091 79.824 79.3091 77.3565V54.4007C79.3091 48.2318 74.3176 43.231 68.1602 43.231C63.3499 43.231 58.8014 45.4255 55.8023 49.1934L55.7042 49.3166V27.3245L44.094 35.5786L43.7426 77.852C43.7243 80.0512 41.9397 81.8244 39.7445 81.8244H28.5625Z" fill="white"/>
</svg>
