<svg width="117" height="36" viewBox="0 0 117 36" fill="none" xmlns="http://www.w3.org/2000/svg">
<mask id="mask0_17_30" style="mask-type:alpha" maskUnits="userSpaceOnUse" x="0" y="0" width="117" height="36">
<rect width="117" height="36" fill="#D9D9D9"/>
</mask>
<g mask="url(#mask0_17_30)">
<path d="M21.531 30.259H15.1302V19.7323C15.1302 17.998 16.4184 14.8521 18.9143 14.9327C20.9111 14.9973 21.4908 16.8687 21.531 17.7963V30.259Z" fill="black"/>
<path d="M1 30.38V11.9482L9.13189 6.16695L15.2107 1.84535L17.4924 0.223195C17.9102 -0.0738319 18.4696 -0.0744495 18.8881 0.221655L32.7347 10.0198C34.4437 11.2291 35.4599 13.1946 35.4599 15.2908V30.38H29.9044C28.6149 30.38 27.5695 29.3327 27.5695 28.0407V16.0217C27.5695 12.7919 24.9561 10.1735 21.7323 10.1735C19.2138 10.1735 16.8323 11.3226 15.262 13.2953L15.2107 13.3598V1.84535L9.13189 6.16695L8.94789 28.3002C8.93832 29.4516 8.00394 30.38 6.85461 30.38H1Z" fill="black"/>
<path d="M60.416 30H57.56V22.824C57.56 20.904 56.624 19.632 54.728 19.632C52.928 19.632 51.776 20.928 51.776 22.872V30H48.92V10.464H51.776V18.816C52.76 17.544 54.056 16.92 55.616 16.92C58.76 16.92 60.416 19.032 60.416 22.104V30ZM70.0115 16.92C71.8595 16.92 73.4435 17.544 74.7635 18.816C76.0835 20.088 76.7315 21.648 76.7315 23.52C76.7315 25.416 76.0835 27 74.7635 28.296C73.4675 29.568 71.8835 30.216 69.9875 30.216C68.1155 30.216 66.5075 29.568 65.1875 28.296C63.8675 27.024 63.2195 25.44 63.2195 23.568C63.2195 21.696 63.8915 20.112 65.2115 18.84C66.5315 17.568 68.1395 16.92 70.0115 16.92ZM67.2035 20.688C66.5075 21.456 66.1475 22.392 66.1475 23.52C66.1475 24.648 66.5075 25.608 67.2275 26.424C67.9475 27.216 68.8835 27.624 70.0115 27.624C71.1395 27.624 72.0755 27.24 72.7715 26.448C73.4675 25.656 73.8275 24.696 73.8275 23.568C73.8275 22.44 73.4675 21.48 72.7475 20.688C72.0515 19.896 71.1155 19.512 69.9875 19.512C68.8595 19.512 67.9235 19.896 67.2035 20.688ZM90.9729 30H88.1409V22.8C88.1409 20.88 87.2769 19.608 85.3809 19.608C83.6529 19.608 82.5729 20.928 82.5729 22.872V30H79.7169V17.184H82.5009V18.912C83.5089 17.568 84.7809 16.896 86.3169 16.896C88.1649 16.896 89.4849 17.592 90.2769 19.008C91.5969 17.568 92.8449 16.896 94.7409 16.896C97.8369 16.896 99.3969 19.008 99.3969 22.08V30H96.5409V22.776C96.5409 20.832 95.7009 19.608 93.8049 19.608C92.0529 19.608 90.9729 20.904 90.9729 22.848V30ZM104.812 17.184L108.796 25.584L112.492 17.184H115.588L106.78 36.312H103.732L107.26 28.56L101.548 17.184H104.812Z" fill="black"/>
</g>
</svg>
