<svg width="50" height="50" viewBox="0 0 50 50" fill="none" xmlns="http://www.w3.org/2000/svg">
<circle cx="25" cy="25" r="25" fill="black"/>
<path d="M28.4762 34.2829H23.3395V25.8352C23.3395 24.4434 24.3733 21.9188 26.3763 21.9836C27.9787 22.0353 28.4439 23.5372 28.4762 24.2816V34.2829Z" fill="white"/>
<path d="M12 34.38V19.5884L18.5259 14.949L23.4041 11.4809L25.2352 10.1791C25.5705 9.94075 26.0194 9.94025 26.3552 10.1779L37.4672 18.0409C38.8386 19.0113 39.6541 20.5887 39.6541 22.2709V34.38H35.1959C34.161 34.38 33.3221 33.5395 33.3221 32.5027V22.8575C33.3221 20.2655 31.2248 18.1643 28.6377 18.1643C26.6166 18.1643 24.7054 19.0864 23.4453 20.6695L23.4041 20.7212V11.4809L18.5259 14.949L18.3782 32.7109C18.3705 33.635 17.6207 34.38 16.6983 34.38H12Z" fill="white"/>
</svg>
