<svg width="130" height="50" viewBox="0 0 130 50" fill="none" xmlns="http://www.w3.org/2000/svg">
<circle cx="25" cy="25" r="25" fill="black"/>
<path d="M28.4762 34.2829H23.3395V25.8352C23.3395 24.4434 24.3733 21.9188 26.3763 21.9836C27.9787 22.0353 28.4439 23.5372 28.4762 24.2816V34.2829Z" fill="white"/>
<path d="M12 34.38V19.5884L18.5259 14.949L23.4041 11.4809L25.2352 10.1791C25.5705 9.94075 26.0194 9.94025 26.3552 10.1779L37.4672 18.0409C38.8386 19.0113 39.6541 20.5887 39.6541 22.2709V34.38H35.1959C34.161 34.38 33.3221 33.5395 33.3221 32.5027V22.8575C33.3221 20.2655 31.2248 18.1643 28.6377 18.1643C26.6166 18.1643 24.7054 19.0864 23.4453 20.6695L23.4041 20.7212V11.4809L18.5259 14.949L18.3782 32.7109C18.3705 33.635 17.6207 34.38 16.6983 34.38H12Z" fill="white"/>
<path d="M74.4159 35H71.5599V27.824C71.5599 25.904 70.6239 24.632 68.7279 24.632C66.9279 24.632 65.7759 25.928 65.7759 27.872V35H62.9199V15.464H65.7759V23.816C66.7599 22.544 68.0559 21.92 69.6159 21.92C72.7599 21.92 74.4159 24.032 74.4159 27.104V35Z" fill="black"/>
<path d="M84.0114 21.92C85.8594 21.92 87.4434 22.544 88.7634 23.816C90.0834 25.088 90.7314 26.648 90.7314 28.52C90.7314 30.416 90.0834 32 88.7634 33.296C87.4674 34.568 85.8834 35.216 83.9874 35.216C82.1154 35.216 80.5074 34.568 79.1874 33.296C77.8674 32.024 77.2194 30.44 77.2194 28.568C77.2194 26.696 77.8914 25.112 79.2114 23.84C80.5314 22.568 82.1394 21.92 84.0114 21.92ZM81.2034 25.688C80.5074 26.456 80.1474 27.392 80.1474 28.52C80.1474 29.648 80.5074 30.608 81.2274 31.424C81.9474 32.216 82.8834 32.624 84.0114 32.624C85.1394 32.624 86.0754 32.24 86.7714 31.448C87.4674 30.656 87.8274 29.696 87.8274 28.568C87.8274 27.44 87.4674 26.48 86.7474 25.688C86.0514 24.896 85.1154 24.512 83.9874 24.512C82.8594 24.512 81.9234 24.896 81.2034 25.688Z" fill="black"/>
<path d="M104.973 35H102.141V27.8C102.141 25.88 101.277 24.608 99.3808 24.608C97.6528 24.608 96.5728 25.928 96.5728 27.872V35H93.7168V22.184H96.5008V23.912C97.5088 22.568 98.7808 21.896 100.317 21.896C102.165 21.896 103.485 22.592 104.277 24.008C105.597 22.568 106.845 21.896 108.741 21.896C111.837 21.896 113.397 24.008 113.397 27.08V35H110.541V27.776C110.541 25.832 109.701 24.608 107.805 24.608C106.053 24.608 104.973 25.904 104.973 27.848V35Z" fill="black"/>
<path d="M118.812 22.184L122.796 30.584L126.492 22.184H129.588L120.78 41.312H117.732L121.26 33.56L115.548 22.184H118.812Z" fill="black"/>
</svg>
