<svg width="36" height="37" viewBox="0 0 36 37" fill="none" xmlns="http://www.w3.org/2000/svg">
<circle cx="18" cy="18.5" r="18" fill="#EEEEEE"/>
<path fill-rule="evenodd" clip-rule="evenodd" d="M22.0454 11.5C24.6069 11.5 26.5385 13.59 26.5385 16.3615V21.6446C26.5385 23.0631 26.0369 24.3446 25.1254 25.2538C24.3077 26.0685 23.2469 26.5 22.0577 26.5H14.4785C13.2915 26.5 12.2315 26.0692 11.4131 25.2538C10.5015 24.3446 10 23.0631 10 21.6446V16.3615C10 13.59 11.9315 11.5 14.4931 11.5H22.0454ZM22.0454 12.6538H14.4931C12.5585 12.6538 11.1538 14.2131 11.1538 16.3615V21.6446C11.1538 22.7546 11.5354 23.7462 12.2277 24.4362C12.8246 25.0323 13.6038 25.3462 14.4808 25.3462H22.0454C22.0469 25.3446 22.0531 25.3462 22.0577 25.3462C22.9354 25.3462 23.7138 25.0323 24.3108 24.4362C25.0038 23.7462 25.3846 22.7546 25.3846 21.6446V16.3615C25.3846 14.2131 23.98 12.6538 22.0454 12.6538ZM23.2577 16.2145C23.4585 16.4614 23.4208 16.8245 23.1738 17.026L19.7554 19.8045C19.3231 20.1475 18.8062 20.3191 18.29 20.3191C17.7754 20.3191 17.2623 20.1491 16.8331 19.8091L13.3831 17.0275C13.1346 16.8275 13.0962 16.4637 13.2954 16.216C13.4962 15.9691 13.8592 15.9298 14.1069 16.1291L17.5538 18.9075C17.9869 19.2506 18.5969 19.2506 19.0331 18.9045L22.4454 16.1306C22.6931 15.9283 23.0562 15.9668 23.2577 16.2145Z" fill="black"/>
</svg>
