<svg width="20" height="21" viewBox="0 0 20 21" fill="none" xmlns="http://www.w3.org/2000/svg">
<path d="M16.9965 7.89429C16.9965 7.89429 16.4388 14.8065 16.1153 17.7181C15.9612 19.1087 15.1016 19.9236 13.6935 19.9493C11.0138 19.9975 8.33114 20.0006 5.65254 19.9441C4.29784 19.9164 3.45256 19.0913 3.30158 17.7253C2.976 14.788 2.42139 7.89429 2.42139 7.89429" stroke="black" stroke-width="1.5" stroke-linecap="round" stroke-linejoin="round"/>
<path d="M18.417 4.58081H1" stroke="black" stroke-width="1.5" stroke-linecap="round" stroke-linejoin="round"/>
<path d="M15.0606 4.58078C14.2544 4.58078 13.5601 4.01118 13.4019 3.22195L13.1523 1.97396C12.9982 1.39821 12.4765 1 11.8818 1H7.53425C6.93957 1 6.41782 1.39821 6.26376 1.97396L6.01418 3.22195C5.85602 4.01118 5.16172 4.58078 4.35547 4.58078" stroke="black" stroke-width="1.5" stroke-linecap="round" stroke-linejoin="round"/>
</svg>
