<svg width="36" height="37" viewBox="0 0 36 37" fill="none" xmlns="http://www.w3.org/2000/svg">
<circle cx="18" cy="18.5" r="18" fill="#EEEEEE"/>
<path fill-rule="evenodd" clip-rule="evenodd" d="M21.6598 10.5C24.256 10.5 26 12.2779 26 14.9236V22.5173C26 25.1862 24.3097 26.922 21.6936 26.9385L15.341 26.941C12.7448 26.941 11 25.1631 11 22.5173V14.9236C11 12.2539 12.6903 10.519 15.3064 10.5033L21.659 10.5H21.6598ZM21.6598 11.7386L15.3105 11.7419C13.3881 11.7535 12.2386 12.9426 12.2386 14.9236V22.5173C12.2386 24.5116 13.3988 25.7023 15.3402 25.7023L21.6895 25.6998C23.6119 25.6883 24.7614 24.4975 24.7614 22.5173V14.9236C24.7614 12.9294 23.602 11.7386 21.6598 11.7386ZM21.5005 21.6261C21.8424 21.6261 22.1198 21.9036 22.1198 22.2454C22.1198 22.5873 21.8424 22.8647 21.5005 22.8647H15.5385C15.1966 22.8647 14.9192 22.5873 14.9192 22.2454C14.9192 21.9036 15.1966 21.6261 15.5385 21.6261H21.5005ZM21.5005 18.169C21.8424 18.169 22.1198 18.4465 22.1198 18.7884C22.1198 19.1302 21.8424 19.4077 21.5005 19.4077H15.5385C15.1966 19.4077 14.9192 19.1302 14.9192 18.7884C14.9192 18.4465 15.1966 18.169 15.5385 18.169H21.5005ZM17.8132 14.72C18.1551 14.72 18.4325 14.9974 18.4325 15.3393C18.4325 15.6812 18.1551 15.9586 17.8132 15.9586H15.5382C15.1964 15.9586 14.9189 15.6812 14.9189 15.3393C14.9189 14.9974 15.1964 14.72 15.5382 14.72H17.8132Z" fill="black"/>
</svg>
