<svg width="20" height="20" viewBox="0 0 20 20" fill="none" xmlns="http://www.w3.org/2000/svg">
<path fill-rule="evenodd" clip-rule="evenodd" d="M1 4.58404C1 2.0617 1.02811 1.22119 4.49997 1.22119C7.97182 1.22119 7.99993 2.0617 7.99993 4.58404C7.99993 7.10639 8.01101 7.9469 4.49997 7.9469C0.988927 7.9469 1 7.10639 1 4.58404Z" stroke="black" stroke-width="1.5" stroke-linecap="round" stroke-linejoin="round"/>
<path fill-rule="evenodd" clip-rule="evenodd" d="M12 4.58404C12 2.0617 12.0281 1.22119 15.5 1.22119C18.9718 1.22119 18.9999 2.0617 18.9999 4.58404C18.9999 7.10639 19.011 7.9469 15.5 7.9469C11.9889 7.9469 12 7.10639 12 4.58404Z" stroke="black" stroke-width="1.5" stroke-linecap="round" stroke-linejoin="round"/>
<path fill-rule="evenodd" clip-rule="evenodd" d="M1 15.1529C1 12.6305 1.02811 11.79 4.49997 11.79C7.97182 11.79 7.99993 12.6305 7.99993 15.1529C7.99993 17.6752 8.01101 18.5157 4.49997 18.5157C0.988927 18.5157 1 17.6752 1 15.1529Z" stroke="black" stroke-width="1.5" stroke-linecap="round" stroke-linejoin="round"/>
<path fill-rule="evenodd" clip-rule="evenodd" d="M12 15.1529C12 12.6305 12.0281 11.79 15.5 11.79C18.9718 11.79 18.9999 12.6305 18.9999 15.1529C18.9999 17.6752 19.011 18.5157 15.5 18.5157C11.9889 18.5157 12 17.6752 12 15.1529Z" stroke="black" stroke-width="1.5" stroke-linecap="round" stroke-linejoin="round"/>
</svg>
