<svg width="100" height="100" viewBox="0 0 100 100" fill="none" xmlns="http://www.w3.org/2000/svg">
<path d="M49.9999 100C77.6134 100 100 77.6577 100 50.0002C100 22.3426 77.5145 0 49.9999 0C22.3865 0 0 22.3426 0 50.0002C0 77.6577 22.3865 100 49.9999 100Z" fill="black"/>
<path d="M34.388 41.3684V64.2851C34.388 69.3477 38.4921 73.4517 43.5547 73.4517H57.3047C62.3673 73.4517 66.4714 69.3477 66.4714 64.2851V41.3684M55.013 48.2434V61.9934M45.8464 48.2434L45.8464 61.9934M59.5964 34.4934L56.3737 29.6594C55.5236 28.3843 54.0925 27.6184 52.5601 27.6184H48.2993C46.7668 27.6184 45.3358 28.3843 44.4857 29.6594L41.263 34.4934M59.5964 34.4934H41.263M59.5964 34.4934H71.0547M41.263 34.4934H29.8047" stroke="white" stroke-width="3" stroke-linecap="round" stroke-linejoin="round"/>
</svg>
