<svg width="14" height="14" viewBox="0 0 14 14" fill="none" xmlns="http://www.w3.org/2000/svg">
<g opacity="0.5">
<path d="M9.80523 2.69967L11.3003 4.19405L9.80523 2.69967ZM10.7667 1.38318L6.724 5.42584C6.51512 5.63443 6.37266 5.90019 6.31458 6.18962L5.94116 8.05883L7.81037 7.68471C8.09979 7.62682 8.36521 7.48494 8.57415 7.27599L12.6168 3.23333C12.7383 3.11185 12.8347 2.96763 12.9004 2.8089C12.9662 2.65018 13 2.48006 13 2.30825C13 2.13645 12.9662 1.96633 12.9004 1.80761C12.8347 1.64888 12.7383 1.50466 12.6168 1.38318C12.4953 1.2617 12.3511 1.16533 12.1924 1.09958C12.0337 1.03384 11.8635 1 11.6917 1C11.5199 1 11.3498 1.03384 11.1911 1.09958C11.0324 1.16533 10.8881 1.2617 10.7667 1.38318V1.38318Z" stroke="black" stroke-width="1.5" stroke-linecap="round" stroke-linejoin="round"/>
<path d="M11.5884 9.47033V11.588C11.5884 11.9624 11.4397 12.3215 11.1749 12.5863C10.9102 12.8511 10.5511 12.9998 10.1766 12.9998H2.41179C2.03736 12.9998 1.67827 12.8511 1.4135 12.5863C1.14874 12.3215 1 11.9624 1 11.588V3.82317C1 3.44874 1.14874 3.08964 1.4135 2.82488C1.67827 2.56012 2.03736 2.41138 2.41179 2.41138H4.52948" stroke="black" stroke-width="1.5" stroke-linecap="round" stroke-linejoin="round"/>
</g>
</svg>
