<svg width="20" height="20" viewBox="0 0 20 20" fill="none" xmlns="http://www.w3.org/2000/svg">
<path fill-rule="evenodd" clip-rule="evenodd" d="M1 4.71154C1 2.18732 1.02811 1.34619 4.49997 1.34619C7.97182 1.34619 7.99993 2.18732 7.99993 4.71154C7.99993 7.23576 8.01101 8.0769 4.49997 8.0769C0.988927 8.0769 1 7.23576 1 4.71154Z" stroke="white" stroke-width="1.5" stroke-linecap="round" stroke-linejoin="round"/>
<path fill-rule="evenodd" clip-rule="evenodd" d="M12 4.71154C12 2.18732 12.0281 1.34619 15.5 1.34619C18.9718 1.34619 18.9999 2.18732 18.9999 4.71154C18.9999 7.23576 19.011 8.0769 15.5 8.0769C11.9889 8.0769 12 7.23576 12 4.71154Z" stroke="white" stroke-width="1.5" stroke-linecap="round" stroke-linejoin="round"/>
<path fill-rule="evenodd" clip-rule="evenodd" d="M1 15.2882C1 12.764 1.02811 11.9229 4.49997 11.9229C7.97182 11.9229 7.99993 12.764 7.99993 15.2882C7.99993 17.8124 8.01101 18.6536 4.49997 18.6536C0.988927 18.6536 1 17.8124 1 15.2882Z" stroke="white" stroke-width="1.5" stroke-linecap="round" stroke-linejoin="round"/>
<path fill-rule="evenodd" clip-rule="evenodd" d="M12 15.2882C12 12.764 12.0281 11.9229 15.5 11.9229C18.9718 11.9229 18.9999 12.764 18.9999 15.2882C18.9999 17.8124 19.011 18.6536 15.5 18.6536C11.9889 18.6536 12 17.8124 12 15.2882Z" stroke="white" stroke-width="1.5" stroke-linecap="round" stroke-linejoin="round"/>
</svg>
