<svg width="24" height="19" viewBox="0 0 24 19" fill="none" xmlns="http://www.w3.org/2000/svg">
<path d="M9.54665 2.53955C9.58531 2.52255 9.62762 2.51553 9.66971 2.51913C9.71179 2.52274 9.75229 2.53685 9.78749 2.56018C9.82268 2.58352 9.85145 2.61531 9.87113 2.65265C9.89082 2.68999 9.9008 2.73168 9.90015 2.77388V4.79013C9.90015 5.02202 9.99234 5.24442 10.1564 5.40839C10.3205 5.57236 10.5431 5.66448 10.7752 5.66448C11.9424 5.66448 14.2979 5.67322 16.5502 7.10191C18.2722 8.1931 20.0327 10.1796 21.0914 13.8799C19.3064 12.1609 17.2677 11.2288 15.4827 10.734C14.3855 10.4312 13.2579 10.2517 12.1209 10.1989C11.6555 10.1784 11.1893 10.1831 10.7244 10.2128H10.7017L10.6929 10.2146H10.6912L10.7752 11.0854L10.6877 10.2146C10.4717 10.2363 10.2715 10.3374 10.1259 10.4984C9.9804 10.6593 9.89993 10.8685 9.90015 11.0854V13.1017C9.90015 13.2906 9.70765 13.4095 9.54665 13.336L2.57465 8.20709C2.55099 8.18955 2.52646 8.17321 2.50115 8.15812C2.4631 8.13528 2.43161 8.10298 2.40975 8.06437C2.38789 8.02576 2.37641 7.98215 2.37641 7.93779C2.37641 7.89343 2.38789 7.84982 2.40975 7.81121C2.43161 7.7726 2.4631 7.7403 2.50115 7.71745C2.52646 7.70238 2.55099 7.68604 2.57465 7.66849L9.54665 2.53955ZM11.6502 11.9353C11.7692 11.9353 11.9004 11.9406 12.0404 11.9458C12.7999 11.9808 13.8499 12.0962 15.0154 12.4197C17.3359 13.0632 20.0834 14.5216 21.9104 17.8057C22.0092 17.983 22.1666 18.1204 22.3557 18.1944C22.5448 18.2684 22.7537 18.2744 22.9467 18.2114C23.1397 18.1483 23.3048 18.0201 23.4136 17.8488C23.5224 17.6775 23.5682 17.4737 23.5432 17.2723C22.7312 10.7847 20.2427 7.37121 17.4882 5.62601C15.3094 4.24454 13.0659 3.97873 11.6502 3.92802V2.77388C11.6503 2.41377 11.5532 2.06029 11.369 1.75074C11.1849 1.44119 10.9205 1.18705 10.6039 1.01514C10.2872 0.843225 9.92999 0.759912 9.56989 0.773991C9.20978 0.788069 8.86016 0.899017 8.5579 1.09513L1.5684 6.2363C1.27944 6.41654 1.04114 6.6673 0.875924 6.96496C0.710711 7.26263 0.624023 7.59741 0.624023 7.93779C0.624023 8.27817 0.710711 8.61295 0.875924 8.91062C1.04114 9.20828 1.27944 9.45904 1.5684 9.63927L8.5579 14.7805C8.86016 14.9766 9.20978 15.0875 9.56989 15.1016C9.92999 15.1157 10.2872 15.0324 10.6039 14.8604C10.9205 14.6885 11.1849 14.4344 11.369 14.1248C11.5532 13.8153 11.6503 13.4618 11.6502 13.1017V11.9353Z" fill="black" fill-opacity="0.4"/>
</svg>
