<svg width="31" height="20" viewBox="0 0 31 20" fill="none" xmlns="http://www.w3.org/2000/svg">
<path fill-rule="evenodd" clip-rule="evenodd" d="M15.2871 0.640381C23.4038 0.640381 29.7591 9.28341 30.0258 9.65143C30.2788 10.0002 30.2788 10.4741 30.0258 10.8232C29.7591 11.1908 23.4038 19.8339 15.2871 19.8339C7.1703 19.8339 0.814785 11.1909 0.548349 10.8229C0.295733 10.4737 0.295733 10.0002 0.548349 9.65108C0.814785 9.28341 7.1703 0.640381 15.2871 0.640381ZM2.59277 10.2363C4.12567 12.1117 9.304 17.8483 15.2829 17.8483C21.2746 17.8483 26.4421 12.1146 27.973 10.2377C26.4394 8.36133 21.2614 2.62577 15.2829 2.62577C9.29117 2.62577 4.12369 8.35933 2.59277 10.2363Z" fill="white"/>
<path fill-rule="evenodd" clip-rule="evenodd" d="M10.3086 9.61662C10.3086 6.72537 12.6609 4.37305 15.5522 4.37305C18.4434 4.37305 20.7957 6.72537 20.7957 9.61662C20.7957 12.5079 18.4434 14.8602 15.5522 14.8602C12.6609 14.8602 10.3086 12.5079 10.3086 9.61662ZM12.0574 9.61588C12.0574 11.5434 13.6254 13.1116 15.553 13.1116C17.4806 13.1116 19.0487 11.5434 19.0487 9.61588C19.0487 7.68833 17.4806 6.1202 15.553 6.1202C13.6255 6.1202 12.0574 7.68833 12.0574 9.61588Z" fill="white"/>
</svg>
