<svg width="23" height="25" viewBox="0 0 23 25" fill="none" xmlns="http://www.w3.org/2000/svg">
<path fill-rule="evenodd" clip-rule="evenodd" d="M21.4625 7.24046L20.7359 5.97954C20.1212 4.91262 18.7589 4.54455 17.6905 5.15674C17.1819 5.45633 16.5751 5.54133 16.0038 5.39299C15.4325 5.24465 14.9436 4.87516 14.6451 4.366C14.453 4.04237 14.3498 3.67375 14.3459 3.29743C14.3632 2.69409 14.1356 2.10942 13.7148 1.67663C13.2941 1.24383 12.7161 0.999752 12.1125 1H10.6486C10.0573 1 9.49031 1.23563 9.07318 1.65477C8.65605 2.0739 8.42313 2.64199 8.42597 3.23331C8.40845 4.4542 7.41367 5.4347 6.19266 5.43457C5.81634 5.43066 5.44772 5.32745 5.12409 5.13537C4.0557 4.52318 2.69339 4.89125 2.07866 5.95817L1.2986 7.24046C0.684618 8.30605 1.04767 9.6675 2.11072 10.2859C2.80171 10.6848 3.22739 11.4221 3.22739 12.22C3.22739 13.0179 2.80171 13.7552 2.11072 14.1541C1.04902 14.7683 0.685572 16.1265 1.2986 17.1889L2.03592 18.4605C2.32394 18.9802 2.8072 19.3637 3.37876 19.5261C3.95031 19.6886 4.56304 19.6165 5.08135 19.326C5.59087 19.0287 6.19806 18.9472 6.76793 19.0997C7.33781 19.2522 7.82315 19.6261 8.11609 20.1381C8.30817 20.4617 8.41138 20.8304 8.41529 21.2067C8.41529 22.4401 9.41518 23.44 10.6486 23.44H12.1125C13.3418 23.44 14.34 22.4466 14.3459 21.2174C14.343 20.6242 14.5774 20.0545 14.9968 19.635C15.4163 19.2156 15.986 18.9812 16.5792 18.9841C16.9546 18.9941 17.3217 19.0969 17.6477 19.2833C18.7133 19.8972 20.0748 19.5342 20.6932 18.4711L21.4625 17.1889C21.7603 16.6777 21.8421 16.0689 21.6897 15.4973C21.5372 14.9257 21.1632 14.4384 20.6504 14.1434C20.1377 13.8484 19.7636 13.3612 19.6112 12.7896C19.4588 12.218 19.5405 11.6092 19.8383 11.098C20.032 10.7599 20.3123 10.4795 20.6504 10.2859C21.7071 9.66784 22.0693 8.31434 21.4625 7.25114V7.24046Z" stroke="black" stroke-width="1.5" stroke-linecap="round" stroke-linejoin="round"/>
<path d="M11.3861 15.2975C13.0857 15.2975 14.4636 13.9197 14.4636 12.2201C14.4636 10.5204 13.0857 9.14258 11.3861 9.14258C9.68643 9.14258 8.30859 10.5204 8.30859 12.2201C8.30859 13.9197 9.68643 15.2975 11.3861 15.2975Z" stroke="black" stroke-width="1.5" stroke-linecap="round" stroke-linejoin="round"/>
</svg>
