<svg width="20" height="21" viewBox="0 0 20 21" fill="none" xmlns="http://www.w3.org/2000/svg">
<g opacity="0.4">
<path d="M16.9965 7.66406C16.9965 7.66406 16.4388 14.5762 16.1153 17.4879C15.9612 18.8785 15.1016 19.6934 13.6935 19.719C11.0138 19.7673 8.33114 19.7704 5.65254 19.7139C4.29784 19.6862 3.45256 18.8611 3.30158 17.495C2.976 14.5578 2.42139 7.66406 2.42139 7.66406" stroke="black" stroke-width="1.5" stroke-linecap="round" stroke-linejoin="round"/>
<path d="M18.417 4.35059H1" stroke="black" stroke-width="1.5" stroke-linecap="round" stroke-linejoin="round"/>
<path d="M15.0606 4.35056C14.2544 4.35056 13.5601 3.78096 13.4019 2.99173L13.1523 1.74374C12.9982 1.16798 12.4765 0.769775 11.8818 0.769775H7.53425C6.93957 0.769775 6.41782 1.16798 6.26376 1.74374L6.01418 2.99173C5.85602 3.78096 5.16172 4.35056 4.35547 4.35056" stroke="black" stroke-width="1.5" stroke-linecap="round" stroke-linejoin="round"/>
</g>
</svg>
