<svg width="24" height="30" viewBox="0 0 24 30" fill="none" xmlns="http://www.w3.org/2000/svg">
<path fill-rule="evenodd" clip-rule="evenodd" d="M23.8537 23.8207C23.8537 28.6587 17.219 29.2179 12.2298 29.2179L11.8728 29.2176C8.69409 29.2099 0.603027 29.0092 0.603027 23.7913C0.603027 19.052 6.97105 18.4187 11.9223 18.3948L12.5868 18.3944C15.7653 18.4021 23.8537 18.6028 23.8537 23.8207ZM12.2298 20.5958C5.97534 20.5958 2.80479 21.6703 2.80479 23.7913C2.80479 25.9314 5.97534 27.0162 12.2298 27.0162C18.4828 27.0162 21.6519 25.9417 21.6519 23.8207C21.6519 21.6806 18.4828 20.5958 12.2298 20.5958ZM12.2298 0.0512695C16.5277 0.0512695 20.0226 3.54768 20.0226 7.84553C20.0226 12.1434 16.5277 15.6383 12.2298 15.6383H12.1829C7.89381 15.6251 4.41942 12.1272 4.43406 7.84112C4.43406 3.54768 7.93051 0.0512695 12.2298 0.0512695ZM12.2298 2.14735C9.08717 2.14735 6.53015 4.70287 6.53015 7.84553C6.51991 10.9779 9.05781 13.532 12.1873 13.5437L12.2298 14.5917V13.5437C15.371 13.5437 17.9265 10.9867 17.9265 7.84553C17.9265 4.70287 15.371 2.14735 12.2298 2.14735Z" fill="white"/>
</svg>
