<svg width="36" height="37" viewBox="0 0 36 37" fill="none" xmlns="http://www.w3.org/2000/svg">
<circle cx="18" cy="18.5" r="18" fill="#EEEEEE"/>
<path fill-rule="evenodd" clip-rule="evenodd" d="M20.7396 9.5C21.062 9.5 21.3236 9.76161 21.3236 10.084L21.3239 10.7441C22.4608 10.822 23.405 11.2114 24.0732 11.881C24.8028 12.6137 25.1866 13.6672 25.1827 14.9308V22.034C25.1827 24.6283 23.5352 26.24 20.8841 26.24H14.2987C11.6475 26.24 10 24.6057 10 21.9748V14.9293C10 12.4823 11.4693 10.9116 13.8655 10.7443L13.866 10.084C13.866 9.76161 14.1276 9.5 14.4499 9.5C14.7723 9.5 15.0339 9.76161 15.0339 10.084L15.0337 10.7294H20.1553L20.1557 10.084C20.1557 9.76161 20.4173 9.5 20.7396 9.5ZM24.0148 16.4327H11.1679V21.9748C11.1679 23.9727 12.2797 25.0721 14.2987 25.0721H20.8841C22.903 25.0721 24.0148 23.993 24.0148 22.034L24.0148 16.4327ZM21.0571 21.3319C21.3794 21.3319 21.641 21.5935 21.641 21.9158C21.641 22.2381 21.3794 22.4998 21.0571 22.4998C20.7347 22.4998 20.47 22.2381 20.47 21.9158C20.47 21.5935 20.7277 21.3319 21.0501 21.3319H21.0571ZM17.602 21.3319C17.9244 21.3319 18.186 21.5935 18.186 21.9158C18.186 22.2381 17.9244 22.4998 17.602 22.4998C17.2797 22.4998 17.015 22.2381 17.015 21.9158C17.015 21.5935 17.2727 21.3319 17.595 21.3319H17.602ZM14.1397 21.3319C14.4621 21.3319 14.7237 21.5935 14.7237 21.9158C14.7237 22.2381 14.4621 22.4998 14.1397 22.4998C13.8174 22.4998 13.5519 22.2381 13.5519 21.9158C13.5519 21.5935 13.8104 21.3319 14.1327 21.3319H14.1397ZM21.0571 18.3057C21.3794 18.3057 21.641 18.5673 21.641 18.8896C21.641 19.212 21.3794 19.4736 21.0571 19.4736C20.7347 19.4736 20.47 19.212 20.47 18.8896C20.47 18.5673 20.7277 18.3057 21.0501 18.3057H21.0571ZM17.602 18.3057C17.9244 18.3057 18.186 18.5673 18.186 18.8896C18.186 19.212 17.9244 19.4736 17.602 19.4736C17.2797 19.4736 17.015 19.212 17.015 18.8896C17.015 18.5673 17.2727 18.3057 17.595 18.3057H17.602ZM14.1397 18.3057C14.4621 18.3057 14.7237 18.5673 14.7237 18.8896C14.7237 19.212 14.4621 19.4736 14.1397 19.4736C13.8174 19.4736 13.5519 19.212 13.5519 18.8896C13.5519 18.5673 13.8104 18.3057 14.1327 18.3057H14.1397ZM20.1553 11.8973H15.0337L15.0339 12.6463C15.0339 12.9687 14.7723 13.2303 14.4499 13.2303C14.1276 13.2303 13.866 12.9687 13.866 12.6463L13.8656 11.915C12.1213 12.0615 11.1679 13.1188 11.1679 14.9293V15.2648H24.0148L24.0148 14.9293C24.0179 13.9677 23.7594 13.2202 23.2463 12.7064C22.7959 12.2546 22.1375 11.9848 21.3242 11.9154L21.3236 12.6463C21.3236 12.9687 21.062 13.2303 20.7396 13.2303C20.4173 13.2303 20.1557 12.9687 20.1557 12.6463L20.1553 11.8973Z" fill="black"/>
</svg>
