<svg width="22" height="27" viewBox="0 0 22 27" fill="none" xmlns="http://www.w3.org/2000/svg">
<path fill-rule="evenodd" clip-rule="evenodd" d="M15.1851 0.55127C19.3906 0.55127 21.8032 2.6329 21.8032 6.25932V24.2811C21.8032 25.0374 21.4139 25.718 20.7593 26.0986C20.1072 26.4805 19.3211 26.4879 18.6615 26.116L11.2723 21.9416L3.81492 26.1247C3.49257 26.3057 3.13923 26.3974 2.78465 26.3974C2.4189 26.3974 2.05316 26.2995 1.7209 26.1036C1.06752 25.723 0.678223 25.0423 0.678223 24.2873V6.03243C0.678223 2.54859 3.09212 0.55127 7.30124 0.55127H15.1851ZM15.1851 2.41097H7.30124C4.14099 2.41097 2.53793 3.62846 2.53793 6.03243V24.2873C2.53793 24.4038 2.60487 24.4671 2.66067 24.4993C2.71646 24.534 2.80448 24.5588 2.90615 24.5018L10.8186 20.0633C11.1012 19.9058 11.4471 19.9046 11.7311 20.0645L19.5753 24.4956C19.6782 24.5551 19.7662 24.5278 19.822 24.4943C19.8778 24.4609 19.9435 24.3976 19.9435 24.2811L19.9431 6.11804C19.9337 5.05097 19.7272 2.41097 15.1851 2.41097ZM15.7292 8.89328C16.2424 8.89328 16.659 9.30985 16.659 9.82313C16.659 10.3364 16.2424 10.753 15.7292 10.753H6.6563C6.14302 10.753 5.72645 10.3364 5.72645 9.82313C5.72645 9.30985 6.14302 8.89328 6.6563 8.89328H15.7292Z" fill="white"/>
</svg>
