<svg width="19" height="20" viewBox="0 0 19 20" fill="none" xmlns="http://www.w3.org/2000/svg">
<path d="M16.1547 7.64648C16.1547 7.64648 15.6263 14.1949 15.3198 16.9532C15.1739 18.2707 14.3595 19.0427 13.0255 19.067C10.4869 19.1127 7.94539 19.1156 5.40778 19.0621C4.12437 19.0359 3.32358 18.2542 3.18055 16.96C2.87211 14.1774 2.34668 7.64648 2.34668 7.64648" stroke="black" stroke-width="1.5" stroke-linecap="round" stroke-linejoin="round"/>
<path d="M17.5003 4.50745H1" stroke="black" stroke-width="1.5" stroke-linecap="round" stroke-linejoin="round"/>
<path d="M14.3204 4.50743C13.5566 4.50743 12.8988 3.96781 12.749 3.22012L12.5126 2.03781C12.3666 1.49236 11.8723 1.11511 11.3089 1.11511H7.19018C6.62681 1.11511 6.13252 1.49236 5.98657 2.03781L5.75013 3.22012C5.60028 3.96781 4.94253 4.50743 4.17871 4.50743" stroke="black" stroke-width="1.5" stroke-linecap="round" stroke-linejoin="round"/>
</svg>
