<svg width="22" height="24" viewBox="0 0 22 24" fill="none" xmlns="http://www.w3.org/2000/svg">
<path fill-rule="evenodd" clip-rule="evenodd" d="M20.5507 6.96236L19.8564 5.75764C19.2691 4.73826 17.9675 4.3866 16.9467 4.97151C16.4608 5.25774 15.881 5.33895 15.3352 5.19723C14.7893 5.0555 14.3223 4.70247 14.037 4.216C13.8535 3.90679 13.7549 3.5546 13.7511 3.19505C13.7677 2.61859 13.5502 2.05998 13.1482 1.64647C12.7463 1.23296 12.194 0.999763 11.6173 1H10.2186C9.65365 1 9.11195 1.22513 8.71341 1.62559C8.31487 2.02605 8.09233 2.56882 8.09505 3.13379C8.0783 4.30027 7.12786 5.23707 5.96126 5.23695C5.60171 5.23322 5.24952 5.13461 4.94031 4.95109C3.91953 4.36618 2.61793 4.71784 2.03059 5.73722L1.2853 6.96236C0.698672 7.98047 1.04555 9.28125 2.06122 9.87208C2.72142 10.2532 3.12813 10.9577 3.12813 11.72C3.12813 12.4823 2.72142 13.1868 2.06122 13.5679C1.04684 14.1548 0.699584 15.4524 1.2853 16.4674L1.98975 17.6824C2.26494 18.1789 2.72667 18.5453 3.27275 18.7005C3.81884 18.8557 4.40426 18.7869 4.89947 18.5093C5.38629 18.2253 5.96641 18.1474 6.51089 18.2931C7.05537 18.4389 7.51909 18.796 7.79897 19.2853C7.98249 19.5945 8.0811 19.9467 8.08484 20.3062C8.08484 21.4847 9.04017 22.44 10.2186 22.44H11.6173C12.7918 22.44 13.7455 21.4909 13.7511 20.3164C13.7484 19.7497 13.9723 19.2053 14.3731 18.8046C14.7738 18.4038 15.3182 18.1799 15.8849 18.1826C16.2436 18.1922 16.5943 18.2904 16.9059 18.4685C17.924 19.0551 19.2248 18.7082 19.8156 17.6926L20.5507 16.4674C20.8352 15.9791 20.9133 15.3974 20.7677 14.8513C20.622 14.3051 20.2647 13.8396 19.7747 13.5577C19.2848 13.2759 18.9275 12.8103 18.7818 12.2642C18.6362 11.718 18.7143 11.1364 18.9988 10.648C19.1838 10.325 19.4517 10.0571 19.7747 9.87208C20.7843 9.28157 21.1304 7.98839 20.5507 6.97257V6.96236Z" stroke="white" stroke-width="1.5" stroke-linecap="round" stroke-linejoin="round"/>
<path d="M10.9228 14.6605C12.5467 14.6605 13.8631 13.344 13.8631 11.7201C13.8631 10.0962 12.5467 8.77979 10.9228 8.77979C9.29886 8.77979 7.98242 10.0962 7.98242 11.7201C7.98242 13.344 9.29886 14.6605 10.9228 14.6605Z" stroke="white" stroke-width="1.5" stroke-linecap="round" stroke-linejoin="round"/>
</svg>
