<svg width="20" height="18" viewBox="0 0 20 18" fill="none" xmlns="http://www.w3.org/2000/svg">
<path d="M17.6219 2.38888C17.1818 1.94856 16.6593 1.59927 16.0842 1.36097C15.5091 1.12266 14.8927 1 14.2702 1C13.6476 1 13.0312 1.12266 12.4561 1.36097C11.881 1.59927 11.3585 1.94856 10.9184 2.38888L10.0051 3.30226L9.09178 2.38888C8.20285 1.49989 6.9972 1.00046 5.74006 1.00046C4.48292 1.00046 3.27726 1.49989 2.38833 2.38888C1.4994 3.27787 1 4.48359 1 5.74081C1 6.99803 1.4994 8.20376 2.38833 9.09275L3.30165 10.0061L10.0051 16.71L16.7086 10.0061L17.6219 9.09275C18.0622 8.65264 18.4114 8.13009 18.6497 7.55496C18.888 6.97982 19.0107 6.36337 19.0107 5.74081C19.0107 5.11826 18.888 4.50181 18.6497 3.92667C18.4114 3.35153 18.0622 2.82899 17.6219 2.38888Z" stroke="white" stroke-width="1.5" stroke-linecap="round" stroke-linejoin="round"/>
</svg>
