<svg width="19" height="19" viewBox="0 0 19 19" fill="none" xmlns="http://www.w3.org/2000/svg">
<path d="M17.8651 8.82627L10.2068 16.4789C9.26858 17.4164 7.9961 17.9431 6.66928 17.9431C5.34246 17.9431 4.06999 17.4164 3.13178 16.4789C2.19358 15.5414 1.6665 14.2699 1.6665 12.944C1.6665 11.6182 2.19358 10.3467 3.13178 9.40917L10.7901 1.75652C11.4156 1.13152 12.2639 0.780396 13.1485 0.780396C14.033 0.780396 14.8813 1.13152 15.5068 1.75652C16.1323 2.38153 16.4836 3.22921 16.4836 4.1131C16.4836 4.99699 16.1323 5.84468 15.5068 6.46968L7.84012 14.1223C7.68527 14.2771 7.50143 14.3998 7.29911 14.4835C7.09679 14.5673 6.87994 14.6104 6.66095 14.6104C6.44196 14.6104 6.22511 14.5673 6.02279 14.4835C5.82047 14.3998 5.63663 14.2771 5.48178 14.1223C5.32693 13.9676 5.2041 13.7839 5.1203 13.5817C5.03649 13.3796 4.99336 13.1629 4.99336 12.944C4.99336 12.7252 5.03649 12.5085 5.1203 12.3064C5.2041 12.1042 5.32693 11.9205 5.48178 11.7657L12.5568 4.70433" stroke="black" stroke-width="1.5" stroke-linecap="round" stroke-linejoin="round"/>
</svg>
