<svg width="17" height="21" viewBox="0 0 17 21" fill="none" xmlns="http://www.w3.org/2000/svg">
<path fill-rule="evenodd" clip-rule="evenodd" d="M11.2787 1.34729H4.75786C2.73975 1.34729 1 2.98193 1 4.99952V15.492C1 17.6232 2.62605 19.3224 4.75786 19.3224H12.5882C14.6073 19.3224 16.2431 17.5105 16.2431 15.492V6.51467L11.2787 1.34729Z" fill="#F1F1F1" stroke="black" stroke-width="1.5" stroke-linecap="round" stroke-linejoin="round"/>
<path fill-rule="evenodd" clip-rule="evenodd" d="M11.0229 1.33582V4.18493C11.0229 5.57569 12.1491 6.70398 13.5399 6.70691C14.8308 6.70985 16.151 6.71083 16.2402 6.70495" fill="#F1F1F1"/>
<path d="M11.0229 1.33582V4.18493C11.0229 5.57569 12.1491 6.70398 13.5399 6.70691C14.8308 6.70985 16.151 6.71083 16.2402 6.70495" stroke="black" stroke-width="1.5" stroke-linecap="round" stroke-linejoin="round"/>
<path d="M10.8367 13.8796H5.54688" stroke="black" stroke-width="1.5" stroke-linecap="round" stroke-linejoin="round"/>
<path d="M8.83525 9.02954H5.5459" stroke="black" stroke-width="1.5" stroke-linecap="round" stroke-linejoin="round"/>
</svg>
