<svg width="20" height="20" viewBox="0 0 20 20" fill="none" xmlns="http://www.w3.org/2000/svg">
<path fill-rule="evenodd" clip-rule="evenodd" d="M19.0098 6.1348V14.0811C19.0098 17.0252 17.1659 19.1017 14.2195 19.1017H5.78049C2.83415 19.1017 1 17.0252 1 14.0811V6.1348C1 3.19064 2.8439 1.11511 5.78049 1.11511H14.2195C17.1659 1.11511 19.0098 3.19064 19.0098 6.1348Z" stroke="black" stroke-width="1.5" stroke-linecap="round" stroke-linejoin="round"/>
<path d="M3.46973 14.4521L4.96046 12.8797C5.47851 12.3308 6.34192 12.3045 6.89217 12.8212C6.90875 12.8377 7.80631 13.7493 7.80631 13.7493C8.34777 14.3001 9.23265 14.3088 9.78387 13.7688C9.81997 13.7337 12.0609 11.0176 12.0609 11.0176C12.6385 10.3167 13.6756 10.2163 14.378 10.7944C14.4248 10.8334 16.5419 13.0044 16.5419 13.0044" stroke="black" stroke-width="1.5" stroke-linecap="round" stroke-linejoin="round"/>
<path fill-rule="evenodd" clip-rule="evenodd" d="M8.37849 7.33763C8.37849 8.2823 7.61264 9.04758 6.66727 9.04758C5.72191 9.04758 4.95605 8.2823 4.95605 7.33763C4.95605 6.39297 5.72191 5.62769 6.66727 5.62769C7.61264 5.62866 8.37849 6.39297 8.37849 7.33763Z" stroke="black" stroke-width="1.5" stroke-linecap="round" stroke-linejoin="round"/>
</svg>
