<svg width="29" height="26" viewBox="0 0 29 26" fill="none" xmlns="http://www.w3.org/2000/svg">
<path d="M25.6261 3.70601C24.9895 3.07313 24.2336 2.57108 23.4016 2.22855C22.5697 1.88602 21.678 1.70972 20.7774 1.70972C19.8769 1.70972 18.9852 1.88602 18.1532 2.22855C17.3213 2.57108 16.5654 3.07313 15.9288 3.70601L14.6075 5.01885L13.2863 3.70601C12.0003 2.42823 10.2562 1.71038 8.43762 1.71038C6.61902 1.71038 4.8749 2.42823 3.58895 3.70601C2.303 4.98379 1.58057 6.71683 1.58057 8.52389C1.58057 10.3309 2.303 12.064 3.58895 13.3418L4.91018 14.6546L14.6075 24.2904L24.3049 14.6546L25.6261 13.3418C26.263 12.7092 26.7683 11.9581 27.113 11.1314C27.4577 10.3048 27.6352 9.41871 27.6352 8.52389C27.6352 7.62907 27.4577 6.74301 27.113 5.91634C26.7683 5.08968 26.263 4.3386 25.6261 3.70601Z" stroke="white" stroke-width="1.5" stroke-linecap="round" stroke-linejoin="round"/>
</svg>
