<svg width="151" height="151" viewBox="0 0 151 151" fill="none" xmlns="http://www.w3.org/2000/svg">
<g opacity="0.32">
<path d="M73.7851 1.39176C73.0975 2.06913 73.0975 3.18197 73.7851 3.85935C74.4629 4.53672 75.5765 4.53672 76.2543 3.85935C76.9419 3.18197 76.9419 2.06913 76.2543 1.39176C75.5765 0.704701 74.4726 0.704701 73.7851 1.39176Z" fill="#7166F0"/>
<path d="M80.5357 8.12669C79.8579 8.80406 79.8579 9.9169 80.5357 10.5943C81.2232 11.2813 82.3272 11.2813 83.005 10.5943C83.6925 9.9169 83.6925 8.80406 83.005 8.12669C82.3272 7.44931 81.2136 7.44931 80.5357 8.12669Z" fill="#7166F0"/>
<path d="M88.5162 17.8518C89.4788 17.8518 90.2592 17.072 90.2592 16.11C90.2592 15.148 89.4788 14.3682 88.5162 14.3682C87.5536 14.3682 86.7732 15.148 86.7732 16.11C86.7732 17.072 87.5536 17.8518 88.5162 17.8518Z" fill="#7166F0"/>
<path d="M94.0252 21.6161C93.3377 22.2935 93.3377 23.4063 94.0252 24.0837C94.7127 24.7611 95.8167 24.7611 96.4945 24.0837C97.182 23.4063 97.182 22.2935 96.4945 21.6161C95.8167 20.9291 94.7127 20.9291 94.0252 21.6161Z" fill="#7166F0"/>
<path d="M100.776 28.3513C100.098 29.0287 100.098 30.1415 100.776 30.8189C101.463 31.4963 102.567 31.4963 103.245 30.8189C103.923 30.1318 103.923 29.0287 103.245 28.3513C102.567 27.6739 101.454 27.6739 100.776 28.3513Z" fill="#7166F0"/>
<path d="M107.524 35.0962C106.836 35.7735 106.836 36.8864 107.524 37.5638C108.201 38.2411 109.315 38.2411 109.993 37.5638C110.68 36.8864 110.68 35.7735 109.993 35.0962C109.305 34.4188 108.201 34.4188 107.524 35.0962Z" fill="#7166F0"/>
<path d="M114.26 41.841C113.572 42.5184 113.572 43.6312 114.26 44.3086C114.947 44.9859 116.051 44.9859 116.729 44.3086C117.416 43.6312 117.416 42.5184 116.729 41.841C116.051 41.1539 114.947 41.1539 114.26 41.841Z" fill="#7166F0"/>
<path d="M121.01 48.5856C120.332 49.2727 120.332 50.3758 121.01 51.0532C121.698 51.7306 122.802 51.7306 123.479 51.0532C124.157 50.3758 124.157 49.263 123.479 48.5856C122.802 47.8985 121.698 47.8985 121.01 48.5856Z" fill="#7166F0"/>
<path d="M127.764 55.3208C127.076 55.9982 127.076 57.111 127.764 57.7884C128.441 58.4657 129.555 58.4657 130.233 57.7884C130.92 57.1013 130.92 55.9982 130.233 55.3208C129.555 54.6434 128.441 54.6434 127.764 55.3208Z" fill="#7166F0"/>
<path d="M134.51 62.0654C133.832 62.7428 133.832 63.8556 134.51 64.533C135.198 65.2201 136.302 65.2201 136.979 64.533C137.667 63.8556 137.667 62.7428 136.979 62.0654C136.292 61.388 135.188 61.388 134.51 62.0654Z" fill="#7166F0"/>
<path d="M142.489 71.781C143.452 71.781 144.232 71.0012 144.232 70.0392C144.232 69.0772 143.452 68.2974 142.489 68.2974C141.526 68.2974 140.746 69.0772 140.746 70.0392C140.746 71.0012 141.526 71.781 142.489 71.781Z" fill="#7166F0"/>
<path d="M148 75.5451C147.312 76.2225 147.312 77.3354 148 78.0127C148.687 78.6901 149.791 78.6901 150.469 78.0127C151.157 77.3354 151.157 76.2225 150.469 75.5451C149.791 74.8678 148.687 74.8678 148 75.5451Z" fill="#7166F0"/>
<path d="M72.1021 9.81052C71.4243 10.4976 71.4243 11.6007 72.1021 12.2781C72.7897 12.9555 73.8936 12.9555 74.5714 12.2781C75.2492 11.5911 75.2492 10.4879 74.5714 9.81052C73.8936 9.13315 72.78 9.13315 72.1021 9.81052Z" fill="#7166F0"/>
<path d="M78.8496 16.5549C78.1621 17.2323 78.1621 18.3451 78.8496 19.0225C79.5275 19.7096 80.6411 19.7096 81.3189 19.0225C82.0064 18.3451 82.0064 17.2323 81.3189 16.5549C80.6314 15.8775 79.5275 15.8775 78.8496 16.5549Z" fill="#7166F0"/>
<path d="M85.5918 23.3C84.9043 23.9773 84.9043 25.0902 85.5918 25.7676C86.2793 26.4449 87.3832 26.4449 88.0611 25.7676C88.7486 25.0902 88.7486 23.9773 88.0611 23.3C87.3832 22.6129 86.2793 22.6129 85.5918 23.3Z" fill="#7166F0"/>
<path d="M92.3424 30.0446C91.6645 30.722 91.6645 31.8348 92.3424 32.5122C93.0299 33.1896 94.1338 33.1896 94.8116 32.5122C95.4895 31.8348 95.4895 30.722 94.8116 30.0446C94.1338 29.3575 93.0299 29.3575 92.3424 30.0446Z" fill="#7166F0"/>
<path d="M99.0901 36.7798C98.4026 37.4571 98.4026 38.57 99.0901 39.2474C99.7679 39.9247 100.882 39.9247 101.559 39.2474C102.247 38.5603 102.247 37.4571 101.559 36.7798C100.882 36.1024 99.7679 36.1024 99.0901 36.7798Z" fill="#7166F0"/>
<path d="M105.842 43.5246C105.165 44.202 105.165 45.3148 105.842 45.9922C106.53 46.6793 107.634 46.6793 108.312 45.9922C108.999 45.3148 108.999 44.202 108.312 43.5246C107.624 42.8473 106.52 42.8473 105.842 43.5246Z" fill="#7166F0"/>
<path d="M112.578 50.2692C111.901 50.9466 111.901 52.0594 112.578 52.7368C113.266 53.4142 114.37 53.4142 115.048 52.7368C115.726 52.0594 115.726 50.9466 115.048 50.2692C114.37 49.5821 113.266 49.5821 112.578 50.2692Z" fill="#7166F0"/>
<path d="M119.33 57.0044C118.643 57.6817 118.643 58.7946 119.33 59.472C120.008 60.1493 121.122 60.1493 121.799 59.472C122.487 58.7946 122.487 57.6817 121.799 57.0044C121.122 56.327 120.008 56.327 119.33 57.0044Z" fill="#7166F0"/>
<path d="M126.077 63.749C125.399 64.4264 125.399 65.5392 126.077 66.2166C126.764 66.894 127.868 66.894 128.546 66.2166C129.234 65.5295 129.234 64.4264 128.546 63.749C127.858 63.0716 126.755 63.0716 126.077 63.749Z" fill="#7166F0"/>
<path d="M132.816 70.4938C132.129 71.1712 132.129 72.284 132.816 72.9614C133.494 73.6388 134.608 73.6388 135.286 72.9614C135.964 72.284 135.964 71.1712 135.286 70.4938C134.608 69.8068 133.504 69.8068 132.816 70.4938Z" fill="#7166F0"/>
<path d="M139.566 77.2384C138.879 77.9158 138.879 79.0286 139.566 79.706C140.254 80.3834 141.358 80.3834 142.036 79.706C142.723 79.0286 142.723 77.9158 142.036 77.2384C141.358 76.5514 140.254 76.5514 139.566 77.2384Z" fill="#7166F0"/>
<path d="M63.6706 11.5041C62.9928 12.1911 62.9928 13.2943 63.6706 13.9717C64.3581 14.649 65.462 14.649 66.1399 13.9717C66.8177 13.2943 66.8177 12.1814 66.1399 11.5041C65.462 10.817 64.3581 10.817 63.6706 11.5041Z" fill="#7166F0"/>
<path d="M70.4181 18.239C69.7306 18.9164 69.7306 20.0292 70.4181 20.7066C71.0959 21.3936 72.2095 21.3936 72.8874 20.7066C73.5749 20.0292 73.5749 18.9164 72.8874 18.239C72.1998 17.5616 71.0959 17.5616 70.4181 18.239Z" fill="#7166F0"/>
<path d="M77.155 24.9836C76.4771 25.661 76.4771 26.7738 77.155 27.4512C77.8425 28.1383 78.9464 28.1383 79.6243 27.4512C80.3118 26.7738 80.3118 25.661 79.6243 24.9836C78.9464 24.3062 77.8425 24.3062 77.155 24.9836Z" fill="#7166F0"/>
<path d="M83.905 31.7287C83.2271 32.406 83.2271 33.5189 83.905 34.1963C84.5925 34.8736 85.6964 34.8736 86.3743 34.1963C87.0521 33.5189 87.0521 32.406 86.3743 31.7287C85.6964 31.0416 84.5925 31.0416 83.905 31.7287Z" fill="#7166F0"/>
<path d="M90.6583 38.4733C89.9708 39.1604 89.9708 40.2635 90.6583 40.9409C91.3362 41.6183 92.4498 41.6183 93.1276 40.9409C93.8151 40.2635 93.8151 39.1507 93.1276 38.4733C92.4498 37.7862 91.3362 37.7862 90.6583 38.4733Z" fill="#7166F0"/>
<path d="M97.403 45.2082C96.7252 45.8953 96.7252 46.9984 97.403 47.6758C98.0906 48.3629 99.1945 48.3629 99.8723 47.6758C100.56 46.9984 100.56 45.8856 99.8723 45.2082C99.1848 44.5309 98.0809 44.5309 97.403 45.2082Z" fill="#7166F0"/>
<path d="M104.145 51.9531C103.457 52.6305 103.457 53.7433 104.145 54.4207C104.823 55.1077 105.936 55.1077 106.614 54.4207C107.292 53.7433 107.292 52.6305 106.614 51.9531C105.936 51.2757 104.832 51.2757 104.145 51.9531Z" fill="#7166F0"/>
<path d="M110.893 58.6979C110.205 59.3753 110.205 60.4881 110.893 61.1655C111.571 61.8429 112.684 61.8429 113.362 61.1655C114.05 60.4881 114.05 59.3753 113.362 58.6979C112.684 58.0109 111.571 58.0109 110.893 58.6979Z" fill="#7166F0"/>
<path d="M117.643 65.4328C116.965 66.1199 116.965 67.223 117.643 67.9004C118.331 68.5778 119.435 68.5778 120.113 67.9004C120.8 67.223 120.8 66.1102 120.113 65.4328C119.435 64.7555 118.321 64.7555 117.643 65.4328Z" fill="#7166F0"/>
<path d="M124.393 72.1777C123.705 72.8551 123.705 73.9679 124.393 74.6453C125.071 75.3324 126.184 75.3324 126.862 74.6453C127.54 73.9679 127.54 72.8551 126.862 72.1777C126.174 71.5003 125.071 71.5003 124.393 72.1777Z" fill="#7166F0"/>
<path d="M131.133 78.9223C130.445 79.5997 130.445 80.7125 131.133 81.3899C131.82 82.0672 132.924 82.0672 133.602 81.3899C134.29 80.7125 134.29 79.5997 133.602 78.9223C132.924 78.2352 131.82 78.2352 131.133 78.9223Z" fill="#7166F0"/>
<path d="M137.88 85.6671C137.202 86.3445 137.202 87.4574 137.88 88.1347C138.567 88.8121 139.671 88.8121 140.349 88.1347C141.027 87.4574 141.027 86.3445 140.349 85.6671C139.671 84.9801 138.557 84.9801 137.88 85.6671Z" fill="#7166F0"/>
<path d="M61.9846 19.9323C61.2971 20.6193 61.2971 21.7225 61.9846 22.3999C62.6625 23.0772 63.7761 23.0772 64.4539 22.3999C65.1414 21.7128 65.1414 20.6097 64.4539 19.9323C63.7761 19.2452 62.6625 19.2452 61.9846 19.9323Z" fill="#7166F0"/>
<path d="M68.7293 26.6672C68.0515 27.3446 68.0515 28.4574 68.7293 29.1348C69.4169 29.8219 70.5208 29.8219 71.1986 29.1348C71.8861 28.4574 71.8861 27.3446 71.1986 26.6672C70.5111 25.9898 69.4072 25.9898 68.7293 26.6672Z" fill="#7166F0"/>
<path d="M75.4715 33.4123C74.7937 34.0897 74.7937 35.2025 75.4715 35.8799C76.159 36.567 77.263 36.567 77.9408 35.8799C78.6186 35.2025 78.6186 34.0897 77.9408 33.4123C77.263 32.735 76.159 32.735 75.4715 33.4123Z" fill="#7166F0"/>
<path d="M82.2249 40.1569C81.5373 40.8343 81.5373 41.9471 82.2249 42.6245C82.9027 43.3019 84.0163 43.3019 84.6941 42.6245C85.3817 41.9471 85.3817 40.8343 84.6941 40.1569C84.0163 39.4698 82.9027 39.4698 82.2249 40.1569Z" fill="#7166F0"/>
<path d="M90.2003 49.8726C91.1629 49.8726 91.9433 49.0927 91.9433 48.1307C91.9433 47.1688 91.1629 46.3889 90.2003 46.3889C89.2377 46.3889 88.4573 47.1688 88.4573 48.1307C88.4573 49.0927 89.2377 49.8726 90.2003 49.8726Z" fill="#7166F0"/>
<path d="M95.7092 53.6369C95.0217 54.3143 95.0217 55.4271 95.7092 56.1045C96.3871 56.7819 97.5007 56.7819 98.1785 56.1045C98.8564 55.4175 98.8564 54.3143 98.1785 53.6369C97.5007 52.9596 96.3968 52.9596 95.7092 53.6369Z" fill="#7166F0"/>
<path d="M102.459 60.3815C101.772 61.0589 101.772 62.1717 102.459 62.8491C103.147 63.5265 104.251 63.5265 104.929 62.8491C105.616 62.1717 105.616 61.0589 104.929 60.3815C104.251 59.6944 103.147 59.6944 102.459 60.3815Z" fill="#7166F0"/>
<path d="M109.21 67.1264C108.532 67.8038 108.532 68.9166 109.21 69.594C109.897 70.2713 111.001 70.2713 111.679 69.594C112.357 68.9166 112.357 67.8038 111.679 67.1264C111.001 66.4393 109.888 66.4393 109.21 67.1264Z" fill="#7166F0"/>
<path d="M117.19 76.8418C118.153 76.8418 118.933 76.062 118.933 75.1C118.933 74.138 118.153 73.3582 117.19 73.3582C116.228 73.3582 115.447 74.138 115.447 75.1C115.447 76.062 116.228 76.8418 117.19 76.8418Z" fill="#7166F0"/>
<path d="M122.699 80.6059C122.012 81.2833 122.012 82.3961 122.699 83.0735C123.377 83.7606 124.491 83.7606 125.169 83.0735C125.856 82.3961 125.856 81.2833 125.169 80.6059C124.491 79.9286 123.387 79.9286 122.699 80.6059Z" fill="#7166F0"/>
<path d="M129.444 87.3507C128.766 88.0281 128.766 89.141 129.444 89.8183C130.132 90.4957 131.236 90.4957 131.913 89.8183C132.591 89.141 132.591 88.0281 131.913 87.3507C131.236 86.6637 130.132 86.6637 129.444 87.3507Z" fill="#7166F0"/>
<path d="M53.5449 21.6164C52.8574 22.2937 52.8574 23.4066 53.5449 24.0839C54.2228 24.7613 55.3364 24.7613 56.0142 24.0839C56.7017 23.4066 56.7017 22.2937 56.0142 21.6164C55.3364 20.9293 54.2228 20.9293 53.5449 21.6164Z" fill="#7166F0"/>
<path d="M60.2955 28.3513C59.6176 29.0287 59.6176 30.1415 60.2955 30.8189C60.983 31.4963 62.0869 31.4963 62.7648 30.8189C63.4523 30.1318 63.4523 29.0287 62.7648 28.3513C62.0772 27.6739 60.9733 27.6739 60.2955 28.3513Z" fill="#7166F0"/>
<path d="M67.0352 35.0959C66.3477 35.7733 66.3477 36.8861 67.0352 37.5635C67.713 38.2409 68.8266 38.2409 69.5044 37.5635C70.1823 36.8861 70.1823 35.7733 69.5044 35.0959C68.8266 34.4185 67.7227 34.4185 67.0352 35.0959Z" fill="#7166F0"/>
<path d="M73.7852 41.8407C73.0977 42.5181 73.0977 43.6309 73.7852 44.3083C74.463 44.9857 75.5766 44.9857 76.2545 44.3083C76.942 43.6309 76.942 42.5181 76.2545 41.8407C75.5766 41.1537 74.4727 41.1537 73.7852 41.8407Z" fill="#7166F0"/>
<path d="M80.5358 48.5856C79.8579 49.2727 79.8579 50.3758 80.5358 51.0532C81.2233 51.7306 82.3272 51.7306 83.0051 51.0532C83.6926 50.3758 83.6926 49.263 83.0051 48.5856C82.3272 47.8985 81.2136 47.8985 80.5358 48.5856Z" fill="#7166F0"/>
<path d="M87.2832 55.3205C86.5957 55.9979 86.5957 57.1107 87.2832 57.7881C87.9611 58.4655 89.0746 58.4655 89.7525 57.7881C90.4303 57.1011 90.4303 55.9979 89.7525 55.3205C89.065 54.6432 87.9611 54.6432 87.2832 55.3205Z" fill="#7166F0"/>
<path d="M94.0254 62.0654C93.3379 62.7428 93.3379 63.8556 94.0254 64.533C94.7129 65.2201 95.8168 65.2201 96.4947 64.533C97.1822 63.8556 97.1822 62.7428 96.4947 62.0654C95.8168 61.388 94.7129 61.388 94.0254 62.0654Z" fill="#7166F0"/>
<path d="M100.776 68.81C100.098 69.4873 100.098 70.6002 100.776 71.2776C101.463 71.9549 102.567 71.9549 103.245 71.2776C103.923 70.6002 103.923 69.4873 103.245 68.81C102.567 68.1229 101.454 68.1229 100.776 68.81Z" fill="#7166F0"/>
<path d="M107.524 75.5451C106.836 76.2225 106.836 77.3354 107.524 78.0127C108.201 78.6901 109.315 78.6901 109.993 78.0127C110.68 77.3354 110.68 76.2225 109.993 75.5451C109.305 74.8678 108.201 74.8678 107.524 75.5451Z" fill="#7166F0"/>
<path d="M114.26 82.29C113.572 82.9674 113.572 84.0802 114.26 84.7576C114.947 85.435 116.051 85.435 116.729 84.7576C117.417 84.0705 117.417 82.9674 116.729 82.29C116.051 81.6126 114.947 81.6126 114.26 82.29Z" fill="#7166F0"/>
<path d="M121.012 89.0346C120.334 89.712 120.334 90.8248 121.012 91.5022C121.7 92.1892 122.804 92.1892 123.482 91.5022C124.159 90.8248 124.159 89.712 123.482 89.0346C122.804 88.3475 121.7 88.3475 121.012 89.0346Z" fill="#7166F0"/>
<path d="M127.76 95.7792C127.072 96.4566 127.072 97.5694 127.76 98.2468C128.438 98.9242 129.551 98.9242 130.229 98.2468C130.917 97.5694 130.917 96.4566 130.229 95.7792C129.551 95.0922 128.438 95.0922 127.76 95.7792Z" fill="#7166F0"/>
<path d="M51.8619 30.0446C51.1841 30.722 51.1841 31.8348 51.8619 32.5122C52.5494 33.1896 53.6533 33.1896 54.3312 32.5122C55.0187 31.8348 55.0187 30.722 54.3312 30.0446C53.6533 29.3575 52.5397 29.3575 51.8619 30.0446Z" fill="#7166F0"/>
<path d="M58.6094 36.7795C57.9219 37.4569 57.9219 38.5697 58.6094 39.2471C59.2872 39.9245 60.4008 39.9245 61.0787 39.2471C61.7565 38.5601 61.7565 37.4569 61.0787 36.7795C60.3911 36.1021 59.2872 36.1021 58.6094 36.7795Z" fill="#7166F0"/>
<path d="M65.3516 43.5244C64.6641 44.2018 64.6641 45.3146 65.3516 45.992C66.0391 46.679 67.143 46.679 67.8209 45.992C68.5084 45.3146 68.5084 44.2018 67.8209 43.5244C67.143 42.847 66.0391 42.847 65.3516 43.5244Z" fill="#7166F0"/>
<path d="M72.1021 50.2692C71.4243 50.9466 71.4243 52.0594 72.1021 52.7368C72.7897 53.4142 73.8936 53.4142 74.5714 52.7368C75.2492 52.0594 75.2492 50.9466 74.5714 50.2692C73.8936 49.5821 72.78 49.5821 72.1021 50.2692Z" fill="#7166F0"/>
<path d="M78.8496 57.0041C78.1621 57.6815 78.1621 58.7943 78.8496 59.4717C79.5275 60.1491 80.6411 60.1491 81.3189 59.4717C82.0064 58.7943 82.0064 57.6815 81.3189 57.0041C80.6314 56.3267 79.5275 56.3267 78.8496 57.0041Z" fill="#7166F0"/>
<path d="M85.5918 63.749C84.9043 64.4264 84.9043 65.5392 85.5918 66.2166C86.2793 66.894 87.3832 66.894 88.0611 66.2166C88.7486 65.5295 88.7486 64.4264 88.0611 63.749C87.3832 63.0716 86.2793 63.0716 85.5918 63.749Z" fill="#7166F0"/>
<path d="M93.5809 73.4744C94.5436 73.4744 95.3239 72.6945 95.3239 71.7326C95.3239 70.7706 94.5436 69.9907 93.5809 69.9907C92.6183 69.9907 91.8379 70.7706 91.8379 71.7326C91.8379 72.6945 92.6183 73.4744 93.5809 73.4744Z" fill="#7166F0"/>
<path d="M99.0899 77.2384C98.4023 77.9158 98.4023 79.0286 99.0899 79.706C99.7677 80.3834 100.881 80.3834 101.559 79.706C102.247 79.0286 102.247 77.9158 101.559 77.2384C100.881 76.5514 99.7677 76.5514 99.0899 77.2384Z" fill="#7166F0"/>
<path d="M105.84 83.9736C105.163 84.651 105.163 85.7638 105.84 86.4412C106.528 87.1186 107.632 87.1186 108.31 86.4412C108.997 85.7638 108.997 84.651 108.31 83.9736C107.622 83.2962 106.518 83.2962 105.84 83.9736Z" fill="#7166F0"/>
<path d="M112.579 90.7182C111.901 91.3956 111.901 92.5085 112.579 93.1858C113.266 93.8729 114.37 93.8729 115.048 93.1858C115.726 92.5085 115.726 91.3956 115.048 90.7182C114.37 90.0409 113.266 90.0409 112.579 90.7182Z" fill="#7166F0"/>
<path d="M119.324 97.463C118.637 98.1404 118.637 99.2533 119.324 99.9306C120.002 100.608 121.116 100.608 121.794 99.9306C122.481 99.2533 122.481 98.1404 121.794 97.463C121.116 96.776 120.002 96.776 119.324 97.463Z" fill="#7166F0"/>
<path d="M43.4283 31.7287C42.7505 32.406 42.7505 33.5189 43.4283 34.1963C44.1158 34.8736 45.2197 34.8736 45.8976 34.1963C46.5851 33.5189 46.5851 32.406 45.8976 31.7287C45.2197 31.0416 44.1061 31.0416 43.4283 31.7287Z" fill="#7166F0"/>
<path d="M50.1758 38.4733C49.4883 39.1604 49.4883 40.2635 50.1758 40.9409C50.8536 41.6183 51.9672 41.6183 52.6451 40.9409C53.3229 40.2635 53.3229 39.1507 52.6451 38.4733C51.9576 37.7862 50.8536 37.7862 50.1758 38.4733Z" fill="#7166F0"/>
<path d="M56.918 45.2082C56.2305 45.8953 56.2305 46.9984 56.918 47.6758C57.6055 48.3629 58.7094 48.3629 59.3873 47.6758C60.0748 46.9984 60.0748 45.8856 59.3873 45.2082C58.7094 44.5309 57.6055 44.5309 56.918 45.2082Z" fill="#7166F0"/>
<path d="M63.6685 51.9531C62.9907 52.6305 62.9907 53.7433 63.6685 54.4207C64.3561 55.1077 65.46 55.1077 66.1378 54.4207C66.8156 53.7433 66.8156 52.6305 66.1378 51.9531C65.46 51.2757 64.3561 51.2757 63.6685 51.9531Z" fill="#7166F0"/>
<path d="M70.416 58.6977C69.7285 59.375 69.7285 60.4879 70.416 61.1653C71.0939 61.8426 72.2075 61.8426 72.8853 61.1653C73.5728 60.4879 73.5728 59.375 72.8853 58.6977C72.1978 58.0106 71.0939 58.0106 70.416 58.6977Z" fill="#7166F0"/>
<path d="M77.1588 65.4328C76.4809 66.1199 76.4809 67.223 77.1588 67.9004C77.8463 68.5778 78.9502 68.5778 79.628 67.9004C80.3156 67.223 80.3156 66.1102 79.628 65.4328C78.9502 64.7555 77.8463 64.7555 77.1588 65.4328Z" fill="#7166F0"/>
<path d="M83.9029 72.1777C83.2251 72.8551 83.2251 73.9679 83.9029 74.6453C84.5904 75.3324 85.6943 75.3324 86.3722 74.6453C87.05 73.9679 87.05 72.8551 86.3722 72.1777C85.6943 71.5003 84.5904 71.5003 83.9029 72.1777Z" fill="#7166F0"/>
<path d="M90.6563 78.9225C89.9687 79.5999 89.9687 80.7127 90.6563 81.3901C91.3341 82.0675 92.4477 82.0675 93.1255 81.3901C93.8131 80.7127 93.8131 79.5999 93.1255 78.9225C92.4477 78.2355 91.3341 78.2355 90.6563 78.9225Z" fill="#7166F0"/>
<path d="M97.4068 85.6671C96.729 86.3445 96.729 87.4574 97.4068 88.1347C98.0943 88.8121 99.1983 88.8121 99.8761 88.1347C100.564 87.4574 100.564 86.3445 99.8761 85.6671C99.1886 84.9801 98.0847 84.9801 97.4068 85.6671Z" fill="#7166F0"/>
<path d="M104.148 92.4023C103.461 93.0894 103.461 94.1925 104.148 94.8699C104.826 95.5473 105.94 95.5473 106.618 94.8699C107.296 94.1829 107.296 93.0797 106.618 92.4023C105.94 91.7249 104.836 91.7249 104.148 92.4023Z" fill="#7166F0"/>
<path d="M110.891 99.1469C110.203 99.8243 110.203 100.937 110.891 101.615C111.568 102.302 112.682 102.302 113.36 101.615C114.047 100.937 114.047 99.8243 113.36 99.1469C112.682 98.4696 111.568 98.4696 110.891 99.1469Z" fill="#7166F0"/>
<path d="M117.643 105.892C116.965 106.569 116.965 107.682 117.643 108.359C118.331 109.046 119.435 109.046 120.112 108.359C120.8 107.682 120.8 106.569 120.112 105.892C119.435 105.205 118.321 105.205 117.643 105.892Z" fill="#7166F0"/>
<path d="M41.7443 40.1571C41.0568 40.8345 41.0568 41.9474 41.7443 42.6247C42.4222 43.3021 43.5358 43.3021 44.2136 42.6247C44.8915 41.9474 44.8915 40.8345 44.2136 40.1571C43.5261 39.4701 42.4222 39.4701 41.7443 40.1571Z" fill="#7166F0"/>
<path d="M48.4865 46.8923C47.799 47.5794 47.799 48.6825 48.4865 49.3599C49.1741 50.0373 50.278 50.0373 50.9558 49.3599C51.6433 48.6728 51.6433 47.5697 50.9558 46.8923C50.278 46.2149 49.1741 46.2149 48.4865 46.8923Z" fill="#7166F0"/>
<path d="M55.2312 53.6369C54.5534 54.3143 54.5534 55.4271 55.2312 56.1045C55.9187 56.7819 57.0227 56.7819 57.7005 56.1045C58.3783 55.4175 58.3783 54.3143 57.7005 53.6369C57.0227 52.9596 55.9187 52.9596 55.2312 53.6369Z" fill="#7166F0"/>
<path d="M61.9846 60.3817C61.2971 61.0591 61.2971 62.1719 61.9846 62.8493C62.6624 63.5267 63.776 63.5267 64.4539 62.8493C65.1414 62.1719 65.1414 61.0591 64.4539 60.3817C63.776 59.6947 62.6624 59.6947 61.9846 60.3817Z" fill="#7166F0"/>
<path d="M68.7293 67.1264C68.0514 67.8038 68.0514 68.9166 68.7293 69.594C69.4168 70.2713 70.5207 70.2713 71.1985 69.594C71.8861 68.9166 71.8861 67.8038 71.1985 67.1264C70.511 66.4393 69.4071 66.4393 68.7293 67.1264Z" fill="#7166F0"/>
<path d="M75.4713 73.8615C74.7935 74.5486 74.7935 75.6518 75.4713 76.3291C76.1589 77.0065 77.2628 77.0065 77.9406 76.3291C78.6184 75.6421 78.6184 74.5389 77.9406 73.8615C77.2628 73.1842 76.1589 73.1842 75.4713 73.8615Z" fill="#7166F0"/>
<path d="M82.219 80.6062C81.5315 81.2836 81.5315 82.3964 82.219 83.0738C82.8969 83.7608 84.0104 83.7608 84.6883 83.0738C85.3758 82.3964 85.3758 81.2836 84.6883 80.6062C84.0104 79.9288 82.8969 79.9288 82.219 80.6062Z" fill="#7166F0"/>
<path d="M88.9696 87.351C88.2918 88.0284 88.2918 89.1412 88.9696 89.8186C89.6571 90.496 90.7611 90.496 91.4389 89.8186C92.1264 89.1412 92.1264 88.0284 91.4389 87.351C90.7514 86.6639 89.6475 86.6639 88.9696 87.351Z" fill="#7166F0"/>
<path d="M95.7094 94.0862C95.0218 94.7635 95.0218 95.8764 95.7094 96.5538C96.3872 97.2311 97.5008 97.2311 98.1786 96.5538C98.8565 95.8764 98.8565 94.7635 98.1786 94.0862C97.5008 93.4088 96.3969 93.4088 95.7094 94.0862Z" fill="#7166F0"/>
<path d="M102.459 100.831C101.772 101.508 101.772 102.621 102.459 103.298C103.147 103.976 104.251 103.976 104.928 103.298C105.616 102.611 105.616 101.508 104.928 100.831C104.251 100.153 103.147 100.153 102.459 100.831Z" fill="#7166F0"/>
<path d="M109.21 107.576C108.532 108.253 108.532 109.366 109.21 110.043C109.897 110.73 111.001 110.73 111.679 110.043C112.357 109.366 112.357 108.253 111.679 107.576C111.001 106.889 109.888 106.889 109.21 107.576Z" fill="#7166F0"/>
<path d="M34.5438 44.8118C35.5064 44.8118 36.2868 44.0319 36.2868 43.0699C36.2868 42.108 35.5064 41.3281 34.5438 41.3281C33.5812 41.3281 32.8008 42.108 32.8008 43.0699C32.8008 44.0319 33.5812 44.8118 34.5438 44.8118Z" fill="#7166F0"/>
<path d="M40.0606 48.5856C39.373 49.2727 39.373 50.3758 40.0606 51.0532C40.7481 51.7306 41.852 51.7306 42.5298 51.0532C43.2174 50.3758 43.2174 49.263 42.5298 48.5856C41.8423 47.8985 40.7384 47.8985 40.0606 48.5856Z" fill="#7166F0"/>
<path d="M46.8033 55.3208C46.1255 55.9982 46.1255 57.111 46.8033 57.7884C47.4908 58.4657 48.5947 58.4657 49.2726 57.7884C49.9504 57.1013 49.9504 55.9982 49.2726 55.3208C48.5947 54.6434 47.4908 54.6434 46.8033 55.3208Z" fill="#7166F0"/>
<path d="M53.5528 62.0657C52.8652 62.743 52.8652 63.8559 53.5528 64.5332C54.2306 65.2203 55.3442 65.2203 56.022 64.5332C56.7096 63.8559 56.7096 62.743 56.022 62.0657C55.3442 61.3883 54.2306 61.3883 53.5528 62.0657Z" fill="#7166F0"/>
<path d="M60.2974 68.81C59.6196 69.4873 59.6196 70.6002 60.2974 71.2776C60.985 71.9549 62.0889 71.9549 62.7667 71.2776C63.4542 70.6002 63.4542 69.4873 62.7667 68.81C62.0792 68.1229 60.9753 68.1229 60.2974 68.81Z" fill="#7166F0"/>
<path d="M67.0369 75.5454C66.3494 76.2228 66.3494 77.3356 67.0369 78.013C67.7148 78.6904 68.8284 78.6904 69.5062 78.013C70.1841 77.3356 70.1841 76.2228 69.5062 75.5454C68.8284 74.868 67.7245 74.868 67.0369 75.5454Z" fill="#7166F0"/>
<path d="M73.791 82.29C73.1035 82.9674 73.1035 84.0802 73.791 84.7576C74.4689 85.435 75.5825 85.435 76.2603 84.7576C76.9478 84.0705 76.9478 82.9674 76.2603 82.29C75.5825 81.6126 74.4786 81.6126 73.791 82.29Z" fill="#7166F0"/>
<path d="M80.5377 89.0346C79.8598 89.712 79.8598 90.8248 80.5377 91.5022C81.2252 92.1892 82.3291 92.1892 83.007 91.5022C83.6945 90.8248 83.6945 89.712 83.007 89.0346C82.3291 88.3475 81.2155 88.3475 80.5377 89.0346Z" fill="#7166F0"/>
<path d="M87.2852 95.7797C86.5977 96.4571 86.5977 97.5699 87.2852 98.2473C87.963 98.9247 89.0766 98.9247 89.7544 98.2473C90.4323 97.5699 90.4323 96.4571 89.7544 95.7797C89.0669 95.0926 87.963 95.0926 87.2852 95.7797Z" fill="#7166F0"/>
<path d="M94.0274 102.515C93.3398 103.202 93.3398 104.305 94.0274 104.982C94.7149 105.66 95.8188 105.66 96.4966 104.982C97.1842 104.305 97.1842 103.192 96.4966 102.515C95.8188 101.837 94.7149 101.837 94.0274 102.515Z" fill="#7166F0"/>
<path d="M100.778 109.259C100.1 109.947 100.1 111.05 100.778 111.727C101.465 112.404 102.569 112.404 103.247 111.727C103.925 111.04 103.925 109.937 103.247 109.259C102.569 108.582 101.456 108.582 100.778 109.259Z" fill="#7166F0"/>
<path d="M107.525 116.004C106.838 116.681 106.838 117.794 107.525 118.471C108.203 119.149 109.317 119.149 109.995 118.471C110.682 117.794 110.682 116.681 109.995 116.004C109.307 115.317 108.203 115.317 107.525 116.004Z" fill="#7166F0"/>
<path d="M31.6269 50.2692C30.9394 50.9466 30.9394 52.0594 31.6269 52.7368C32.3144 53.4142 33.4183 53.4142 34.0962 52.7368C34.7837 52.0594 34.7837 50.9466 34.0962 50.2692C33.4087 49.5821 32.3047 49.5821 31.6269 50.2692Z" fill="#7166F0"/>
<path d="M38.3638 57.0041C37.6859 57.6815 37.6859 58.7943 38.3638 59.4717C39.0513 60.1491 40.1552 60.1491 40.8331 59.4717C41.5109 58.7943 41.5109 57.6815 40.8331 57.0041C40.1552 56.3267 39.0513 56.3267 38.3638 57.0041Z" fill="#7166F0"/>
<path d="M45.1113 63.7488C44.4238 64.4261 44.4238 65.539 45.1113 66.2163C45.7891 66.8937 46.9027 66.8937 47.5806 66.2163C48.2681 65.5293 48.2681 64.4261 47.5806 63.7488C46.9027 63.0714 45.7988 63.0714 45.1113 63.7488Z" fill="#7166F0"/>
<path d="M53.0926 73.4744C54.0552 73.4744 54.8356 72.6945 54.8356 71.7326C54.8356 70.7706 54.0552 69.9907 53.0926 69.9907C52.1299 69.9907 51.3495 70.7706 51.3495 71.7326C51.3495 72.6945 52.1299 73.4744 53.0926 73.4744Z" fill="#7166F0"/>
<path d="M59.8426 80.2092C60.8052 80.2092 61.5856 79.4294 61.5856 78.4674C61.5856 77.5054 60.8052 76.7256 59.8426 76.7256C58.8799 76.7256 58.0995 77.5054 58.0995 78.4674C58.0995 79.4294 58.8799 80.2092 59.8426 80.2092Z" fill="#7166F0"/>
<path d="M65.3515 83.9734C64.664 84.6507 64.664 85.7636 65.3515 86.441C66.039 87.1183 67.143 87.1183 67.8208 86.441C68.5083 85.7636 68.5083 84.6507 67.8208 83.9734C67.143 83.296 66.039 83.296 65.3515 83.9734Z" fill="#7166F0"/>
<path d="M72.1021 90.7185C71.4242 91.3959 71.4242 92.5087 72.1021 93.1861C72.7896 93.8731 73.8935 93.8731 74.5713 93.1861C75.2492 92.5087 75.2492 91.3959 74.5713 90.7185C73.8935 90.0411 72.7799 90.0411 72.1021 90.7185Z" fill="#7166F0"/>
<path d="M78.8515 97.463C78.164 98.1404 78.164 99.2533 78.8515 99.9306C79.5294 100.608 80.643 100.608 81.3208 99.9306C82.0083 99.2533 82.0083 98.1404 81.3208 97.463C80.6333 96.776 79.5294 96.776 78.8515 97.463Z" fill="#7166F0"/>
<path d="M85.5937 104.208C84.9062 104.885 84.9062 105.998 85.5937 106.675C86.2812 107.353 87.3851 107.353 88.063 106.675C88.7505 105.998 88.7505 104.885 88.063 104.208C87.3851 103.521 86.2812 103.521 85.5937 104.208Z" fill="#7166F0"/>
<path d="M92.3443 110.943C91.6664 111.63 91.6664 112.733 92.3443 113.41C93.0318 114.088 94.1357 114.088 94.8135 113.41C95.4914 112.733 95.4914 111.62 94.8135 110.943C94.1357 110.265 93.0318 110.265 92.3443 110.943Z" fill="#7166F0"/>
<path d="M99.0898 117.688C98.4023 118.365 98.4023 119.478 99.0898 120.155C99.7676 120.833 100.881 120.833 101.559 120.155C102.247 119.468 102.247 118.365 101.559 117.688C100.881 117.001 99.7676 117.001 99.0898 117.688Z" fill="#7166F0"/>
<path d="M23.1953 51.9529C22.5078 52.6302 22.5078 53.7431 23.1953 54.4204C23.8829 55.1075 24.9868 55.1075 25.6646 54.4204C26.3521 53.7431 26.3521 52.6302 25.6646 51.9529C24.9868 51.2755 23.8732 51.2755 23.1953 51.9529Z" fill="#7166F0"/>
<path d="M29.9324 58.6977C29.2546 59.375 29.2546 60.4879 29.9324 61.1653C30.6199 61.8426 31.7238 61.8426 32.4017 61.1653C33.0795 60.4879 33.0795 59.375 32.4017 58.6977C31.7238 58.0106 30.6199 58.0106 29.9324 58.6977Z" fill="#7166F0"/>
<path d="M36.6797 65.4328C35.9922 66.1199 35.9922 67.223 36.6797 67.9004C37.3575 68.5778 38.4711 68.5778 39.149 67.9004C39.8365 67.223 39.8365 66.1102 39.149 65.4328C38.4711 64.7555 37.3672 64.7555 36.6797 65.4328Z" fill="#7166F0"/>
<path d="M43.4322 72.1775C42.7544 72.8548 42.7544 73.9677 43.4322 74.6451C44.1197 75.3321 45.2236 75.3321 45.9015 74.6451C46.589 73.9677 46.589 72.8548 45.9015 72.1775C45.2236 71.5001 44.11 71.5001 43.4322 72.1775Z" fill="#7166F0"/>
<path d="M50.1798 78.9223C49.4922 79.5997 49.4922 80.7125 50.1798 81.3899C50.8576 82.0672 51.9712 82.0672 52.649 81.3899C53.3269 80.7125 53.3269 79.5997 52.649 78.9223C51.9615 78.2352 50.8576 78.2352 50.1798 78.9223Z" fill="#7166F0"/>
<path d="M56.9199 85.6669C56.2324 86.3443 56.2324 87.4571 56.9199 88.1345C57.6075 88.8119 58.7114 88.8119 59.3892 88.1345C60.0767 87.4571 60.0767 86.3443 59.3892 85.6669C58.7114 84.9798 57.6075 84.9798 56.9199 85.6669Z" fill="#7166F0"/>
<path d="M63.6724 92.4021C62.9946 93.0891 62.9946 94.1923 63.6724 94.8697C64.36 95.547 65.4639 95.547 66.1417 94.8697C66.8195 94.1826 66.8195 93.0795 66.1417 92.4021C65.4639 91.7247 64.36 91.7247 63.6724 92.4021Z" fill="#7166F0"/>
<path d="M70.4199 99.1467C69.7324 99.8241 69.7324 100.937 70.4199 101.614C71.0978 102.301 72.2114 102.301 72.8892 101.614C73.5767 100.937 73.5767 99.8241 72.8892 99.1467C72.2017 98.4693 71.0978 98.4693 70.4199 99.1467Z" fill="#7166F0"/>
<path d="M77.1568 105.892C76.479 106.569 76.479 107.682 77.1568 108.359C77.8443 109.046 78.9483 109.046 79.6261 108.359C80.3136 107.682 80.3136 106.569 79.6261 105.892C78.9483 105.205 77.8443 105.205 77.1568 105.892Z" fill="#7166F0"/>
<path d="M83.9068 112.627C83.229 113.304 83.229 114.417 83.9068 115.094C84.5943 115.772 85.6983 115.772 86.3761 115.094C87.0539 114.417 87.0539 113.304 86.3761 112.627C85.6983 111.949 84.5943 111.949 83.9068 112.627Z" fill="#7166F0"/>
<path d="M90.6602 119.371C89.9727 120.058 89.9727 121.162 90.6602 121.839C91.338 122.516 92.4516 122.516 93.1295 121.839C93.817 121.162 93.817 120.049 93.1295 119.371C92.4516 118.694 91.338 118.694 90.6602 119.371Z" fill="#7166F0"/>
<path d="M97.405 126.116C96.7272 126.793 96.7272 127.906 97.405 128.583C98.0926 129.271 99.1965 129.271 99.8743 128.583C100.562 127.906 100.562 126.793 99.8743 126.116C99.1868 125.429 98.0829 125.429 97.405 126.116Z" fill="#7166F0"/>
<path d="M21.5099 60.3817C20.8224 61.0591 20.8224 62.1719 21.5099 62.8493C22.1877 63.5267 23.3013 63.5267 23.9792 62.8493C24.657 62.1719 24.657 61.0591 23.9792 60.3817C23.2917 59.6947 22.1877 59.6947 21.5099 60.3817Z" fill="#7166F0"/>
<path d="M28.2462 67.1264C27.5587 67.8038 27.5587 68.9166 28.2462 69.594C28.9241 70.2713 30.0377 70.2713 30.7155 69.594C31.403 68.9166 31.403 67.8038 30.7155 67.1264C30.0377 66.4393 28.9338 66.4393 28.2462 67.1264Z" fill="#7166F0"/>
<path d="M34.9968 73.8615C34.319 74.5486 34.319 75.6518 34.9968 76.3291C35.6844 77.0065 36.7883 77.0065 37.4661 76.3291C38.1536 75.6421 38.1536 74.5389 37.4661 73.8615C36.7883 73.1842 35.6747 73.1842 34.9968 73.8615Z" fill="#7166F0"/>
<path d="M41.7443 80.6062C41.0568 81.2836 41.0568 82.3964 41.7443 83.0738C42.4221 83.7608 43.5357 83.7608 44.2136 83.0738C44.8914 82.3964 44.8914 81.2836 44.2136 80.6062C43.526 79.9288 42.4221 79.9288 41.7443 80.6062Z" fill="#7166F0"/>
<path d="M48.4865 87.351C47.7989 88.0284 47.7989 89.1412 48.4865 89.8186C49.174 90.496 50.2779 90.496 50.9557 89.8186C51.6433 89.1412 51.6433 88.0284 50.9557 87.351C50.2779 86.6639 49.174 86.6639 48.4865 87.351Z" fill="#7166F0"/>
<path d="M55.237 94.0862C54.5592 94.7635 54.5592 95.8764 55.237 96.5538C55.9245 97.2311 57.0285 97.2311 57.7063 96.5538C58.3841 95.8764 58.3841 94.7635 57.7063 94.0862C57.0285 93.4088 55.9245 93.4088 55.237 94.0862Z" fill="#7166F0"/>
<path d="M61.9845 100.831C61.297 101.508 61.297 102.621 61.9845 103.298C62.6624 103.976 63.776 103.976 64.4538 103.298C65.1413 102.611 65.1413 101.508 64.4538 100.831C63.776 100.153 62.6624 100.153 61.9845 100.831Z" fill="#7166F0"/>
<path d="M68.7351 107.576C68.0572 108.253 68.0572 109.366 68.7351 110.043C69.4226 110.73 70.5265 110.73 71.2043 110.043C71.8919 109.366 71.8919 108.253 71.2043 107.576C70.5168 106.889 69.4129 106.889 68.7351 107.576Z" fill="#7166F0"/>
<path d="M75.4714 114.32C74.7936 114.998 74.7936 116.11 75.4714 116.788C76.1589 117.465 77.2628 117.465 77.9407 116.788C78.6185 116.11 78.6185 114.998 77.9407 114.32C77.2628 113.633 76.1589 113.633 75.4714 114.32Z" fill="#7166F0"/>
<path d="M82.2247 121.055C81.5372 121.733 81.5372 122.846 82.2247 123.523C82.9026 124.2 84.0162 124.2 84.694 123.523C85.3815 122.846 85.3815 121.733 84.694 121.055C84.0162 120.378 82.9026 120.378 82.2247 121.055Z" fill="#7166F0"/>
<path d="M90.2002 130.78C91.1628 130.78 91.9432 130 91.9432 129.038C91.9432 128.076 91.1628 127.297 90.2002 127.297C89.2375 127.297 88.4572 128.076 88.4572 129.038C88.4572 130 89.2375 130.78 90.2002 130.78Z" fill="#7166F0"/>
<path d="M13.0703 62.0654C12.3828 62.7428 12.3828 63.8556 13.0703 64.533C13.7482 65.2201 14.8618 65.2201 15.5396 64.533C16.2174 63.8556 16.2174 62.7428 15.5396 62.0654C14.8521 61.388 13.7482 61.388 13.0703 62.0654Z" fill="#7166F0"/>
<path d="M19.8131 68.81C19.1352 69.4873 19.1352 70.6002 19.8131 71.2776C20.5006 71.9549 21.6045 71.9549 22.2823 71.2776C22.9699 70.6002 22.9699 69.4873 22.2823 68.81C21.6045 68.1229 20.5006 68.1229 19.8131 68.81Z" fill="#7166F0"/>
<path d="M26.5631 75.5451C25.8853 76.2225 25.8853 77.3354 26.5631 78.0127C27.2507 78.6901 28.3546 78.6901 29.0324 78.0127C29.7199 77.3354 29.7199 76.2225 29.0324 75.5451C28.3546 74.8678 27.2507 74.8678 26.5631 75.5451Z" fill="#7166F0"/>
<path d="M33.3106 82.2898C32.623 82.9671 32.623 84.08 33.3106 84.7573C33.9884 85.4347 35.102 85.4347 35.7798 84.7573C36.4577 84.0703 36.4577 82.9671 35.7798 82.2898C35.102 81.6124 33.9884 81.6124 33.3106 82.2898Z" fill="#7166F0"/>
<path d="M40.0606 89.0346C39.373 89.712 39.373 90.8248 40.0606 91.5022C40.7481 92.1892 41.852 92.1892 42.5298 91.5022C43.2174 90.8248 43.2174 89.712 42.5298 89.0346C41.8423 88.3475 40.7384 88.3475 40.0606 89.0346Z" fill="#7166F0"/>
<path d="M46.7974 95.7792C46.1196 96.4566 46.1196 97.5694 46.7974 98.2468C47.485 98.9242 48.5889 98.9242 49.2667 98.2468C49.9446 97.5694 49.9446 96.4566 49.2667 95.7792C48.5889 95.0922 47.485 95.0922 46.7974 95.7792Z" fill="#7166F0"/>
<path d="M53.5449 102.515C52.8574 103.202 52.8574 104.305 53.5449 104.982C54.2228 105.66 55.3364 105.66 56.0142 104.982C56.7017 104.305 56.7017 103.192 56.0142 102.515C55.3364 101.837 54.2228 101.837 53.5449 102.515Z" fill="#7166F0"/>
<path d="M60.2955 109.259C59.6176 109.947 59.6176 111.05 60.2955 111.727C60.983 112.404 62.0869 112.404 62.7648 111.727C63.4523 111.04 63.4523 109.937 62.7648 109.259C62.0772 108.582 60.9733 108.582 60.2955 109.259Z" fill="#7166F0"/>
<path d="M67.0371 116.004C66.3496 116.681 66.3496 117.794 67.0371 118.471C67.715 119.149 68.8286 119.149 69.5064 118.471C70.1842 117.794 70.1842 116.681 69.5064 116.004C68.8286 115.317 67.7246 115.317 67.0371 116.004Z" fill="#7166F0"/>
<path d="M73.7852 122.739C73.0977 123.416 73.0977 124.529 73.7852 125.207C74.463 125.884 75.5766 125.884 76.2545 125.207C76.942 124.529 76.942 123.416 76.2545 122.739C75.5766 122.062 74.4727 122.062 73.7852 122.739Z" fill="#7166F0"/>
<path d="M80.5357 129.484C79.8579 130.161 79.8579 131.274 80.5357 131.951C81.2232 132.629 82.3272 132.629 83.005 131.951C83.6925 131.274 83.6925 130.161 83.005 129.484C82.3272 128.806 81.2136 128.806 80.5357 129.484Z" fill="#7166F0"/>
<path d="M88.5164 139.209C89.4791 139.209 90.2595 138.429 90.2595 137.467C90.2595 136.505 89.4791 135.725 88.5164 135.725C87.5538 135.725 86.7734 136.505 86.7734 137.467C86.7734 138.429 87.5538 139.209 88.5164 139.209Z" fill="#7166F0"/>
<path d="M11.3869 70.4938C10.6993 71.1712 10.6993 72.284 11.3869 72.9614C12.0647 73.6388 13.1783 73.6388 13.8561 72.9614C14.5437 72.284 14.5437 71.1712 13.8561 70.4938C13.1686 69.8068 12.0647 69.8068 11.3869 70.4938Z" fill="#7166F0"/>
<path d="M18.1296 77.2384C17.4518 77.9158 17.4518 79.0286 18.1296 79.706C18.8171 80.3834 19.921 80.3834 20.5989 79.706C21.2864 79.0286 21.2864 77.9158 20.5989 77.2384C19.921 76.5514 18.8171 76.5514 18.1296 77.2384Z" fill="#7166F0"/>
<path d="M24.8772 83.9736C24.1896 84.651 24.1896 85.7638 24.8772 86.4412C25.555 87.1186 26.6686 87.1186 27.3464 86.4412C28.0243 85.7638 28.0243 84.651 27.3464 83.9736C26.6686 83.2962 25.555 83.2962 24.8772 83.9736Z" fill="#7166F0"/>
<path d="M31.6271 90.7182C30.9396 91.3956 30.9396 92.5085 31.6271 93.1858C32.3146 93.8729 33.4185 93.8729 34.0964 93.1858C34.7839 92.5085 34.7839 91.3956 34.0964 90.7182C33.4088 90.0409 32.3049 90.0409 31.6271 90.7182Z" fill="#7166F0"/>
<path d="M38.364 97.463C37.6861 98.1404 37.6861 99.2533 38.364 99.9306C39.0515 100.608 40.1554 100.608 40.8332 99.9306C41.5111 99.2533 41.5111 98.1404 40.8332 97.463C40.1554 96.776 39.0515 96.776 38.364 97.463Z" fill="#7166F0"/>
<path d="M45.1115 104.208C44.424 104.885 44.424 105.998 45.1115 106.676C45.7894 107.353 46.903 107.353 47.5808 106.676C48.2683 105.998 48.2683 104.885 47.5808 104.208C46.903 103.521 45.7991 103.521 45.1115 104.208Z" fill="#7166F0"/>
<path d="M51.862 110.943C51.1842 111.63 51.1842 112.733 51.862 113.41C52.5495 114.088 53.6535 114.088 54.3313 113.41C55.0188 112.733 55.0188 111.62 54.3313 110.943C53.6535 110.265 52.5399 110.265 51.862 110.943Z" fill="#7166F0"/>
<path d="M58.6115 117.688C57.9239 118.365 57.9239 119.478 58.6115 120.155C59.2893 120.833 60.4029 120.833 61.0807 120.155C61.7586 119.468 61.7586 118.365 61.0807 117.688C60.3932 117.001 59.2893 117.001 58.6115 117.688Z" fill="#7166F0"/>
<path d="M65.3518 124.433C64.6643 125.11 64.6643 126.223 65.3518 126.9C66.0393 127.587 67.1433 127.587 67.8211 126.9C68.5086 126.223 68.5086 125.11 67.8211 124.433C67.1433 123.745 66.0393 123.745 65.3518 124.433Z" fill="#7166F0"/>
<path d="M72.1024 131.167C71.4245 131.855 71.4245 132.958 72.1024 133.635C72.7899 134.312 73.8938 134.312 74.5717 133.635C75.2495 132.958 75.2495 131.845 74.5717 131.167C73.8938 130.49 72.7802 130.49 72.1024 131.167Z" fill="#7166F0"/>
<path d="M78.8497 137.912C78.1622 138.599 78.1622 139.703 78.8497 140.38C79.5276 141.057 80.6412 141.057 81.319 140.38C82.0065 139.693 82.0065 138.59 81.319 137.912C80.6315 137.235 79.5276 137.235 78.8497 137.912Z" fill="#7166F0"/>
<path d="M2.95326 72.1777C2.26574 72.8551 2.26574 73.9679 2.95326 74.6453C3.6311 75.3324 4.74469 75.3324 5.42253 74.6453C6.11006 73.9679 6.11006 72.8551 5.42253 72.1777C4.73501 71.5003 3.6311 71.5003 2.95326 72.1777Z" fill="#7166F0"/>
<path d="M9.696 78.9223C9.01816 79.5997 9.01816 80.7125 9.696 81.3899C10.3835 82.0672 11.4874 82.0672 12.1653 81.3899C12.8431 80.7125 12.8431 79.5997 12.1653 78.9223C11.4874 78.2352 10.3835 78.2352 9.696 78.9223Z" fill="#7166F0"/>
<path d="M16.4401 85.6674C15.7623 86.3448 15.7623 87.4576 16.4401 88.135C17.118 88.8124 18.2316 88.8124 18.9094 88.135C19.5873 87.4576 19.5873 86.3448 18.9094 85.6674C18.2316 84.9803 17.118 84.9803 16.4401 85.6674Z" fill="#7166F0"/>
<path d="M23.1935 92.4026C22.506 93.0896 22.506 94.1928 23.1935 94.8702C23.881 95.5475 24.9849 95.5475 25.6628 94.8702C26.3503 94.1831 26.3503 93.0799 25.6628 92.4026C24.9849 91.7252 23.8713 91.7252 23.1935 92.4026Z" fill="#7166F0"/>
<path d="M29.9304 99.1472C29.2525 99.8246 29.2525 100.937 29.9304 101.615C30.6179 102.302 31.7218 102.302 32.3996 101.615C33.0775 100.937 33.0775 99.8246 32.3996 99.1472C31.7218 98.4698 30.6179 98.4698 29.9304 99.1472Z" fill="#7166F0"/>
<path d="M36.6779 105.892C35.9904 106.569 35.9904 107.682 36.6779 108.36C37.3558 109.047 38.4694 109.047 39.1472 108.36C39.8347 107.682 39.8347 106.569 39.1472 105.892C38.4694 105.205 37.3655 105.205 36.6779 105.892Z" fill="#7166F0"/>
<path d="M43.4284 112.627C42.7506 113.305 42.7506 114.417 43.4284 115.095C44.1159 115.772 45.2199 115.772 45.8977 115.095C46.5852 114.417 46.5852 113.305 45.8977 112.627C45.2199 111.95 44.1063 111.95 43.4284 112.627Z" fill="#7166F0"/>
<path d="M50.1779 119.372C49.4904 120.059 49.4904 121.162 50.1779 121.839C50.8557 122.517 51.9693 122.517 52.6472 121.839C53.325 121.162 53.325 120.049 52.6472 119.372C51.9596 118.694 50.8557 118.694 50.1779 119.372Z" fill="#7166F0"/>
<path d="M56.9182 126.116C56.2307 126.794 56.2307 127.907 56.9182 128.584C57.6058 129.271 58.7097 129.271 59.3875 128.584C60.075 127.907 60.075 126.794 59.3875 126.116C58.7097 125.429 57.6058 125.429 56.9182 126.116Z" fill="#7166F0"/>
<path d="M63.6688 132.861C62.9909 133.538 62.9909 134.651 63.6688 135.329C64.3563 136.016 65.4602 136.016 66.138 135.329C66.8159 134.651 66.8159 133.538 66.138 132.861C65.4602 132.174 64.3563 132.174 63.6688 132.861Z" fill="#7166F0"/>
<path d="M70.4162 139.596C69.7286 140.273 69.7286 141.386 70.4162 142.064C71.094 142.741 72.2076 142.741 72.8854 142.064C73.5729 141.386 73.5729 140.273 72.8854 139.596C72.1979 138.919 71.094 138.919 70.4162 139.596Z" fill="#7166F0"/>
<path d="M77.1608 146.341C76.483 147.028 76.483 148.131 77.1608 148.809C77.8484 149.486 78.9523 149.486 79.6301 148.809C80.3176 148.122 80.3176 147.018 79.6301 146.341C78.9523 145.664 77.8484 145.664 77.1608 146.341Z" fill="#7166F0"/>
<path d="M1.25643 80.6059C0.578587 81.2833 0.578587 82.3961 1.25643 83.0735C1.94395 83.7606 3.04786 83.7606 3.7257 83.0735C4.40354 82.3961 4.40354 81.2833 3.7257 80.6059C3.04786 79.9286 1.94395 79.9286 1.25643 80.6059Z" fill="#7166F0"/>
<path d="M8.00392 87.351C7.3164 88.0284 7.3164 89.1412 8.00392 89.8186C8.68176 90.496 9.79535 90.496 10.4732 89.8186C11.1607 89.1412 11.1607 88.0284 10.4732 87.351C9.78567 86.6736 8.69145 86.664 8.00392 87.351Z" fill="#7166F0"/>
<path d="M14.7598 94.0859C14.0723 94.7633 14.0723 95.8761 14.7598 96.5535C15.4473 97.2309 16.5512 97.2309 17.2291 96.5535C17.9166 95.8761 17.9166 94.7633 17.2291 94.0859C16.5512 93.4085 15.4376 93.4085 14.7598 94.0859Z" fill="#7166F0"/>
<path d="M21.5078 100.831C20.8203 101.508 20.8203 102.621 21.5078 103.298C22.1857 103.976 23.2993 103.976 23.9771 103.298C24.6549 102.611 24.6549 101.508 23.9771 100.831C23.2896 100.153 22.1857 100.153 21.5078 100.831Z" fill="#7166F0"/>
<path d="M28.2442 107.575C27.5566 108.253 27.5566 109.366 28.2442 110.043C28.922 110.73 30.0356 110.73 30.7134 110.043C31.401 109.366 31.401 108.253 30.7134 107.575C30.0356 106.888 28.9317 106.888 28.2442 107.575Z" fill="#7166F0"/>
<path d="M34.9947 114.32C34.3169 114.997 34.3169 116.11 34.9947 116.788C35.6822 117.465 36.7861 117.465 37.464 116.788C38.1515 116.11 38.1515 114.997 37.464 114.32C36.7861 113.633 35.6725 113.633 34.9947 114.32Z" fill="#7166F0"/>
<path d="M41.7442 121.055C41.0566 121.733 41.0566 122.846 41.7442 123.523C42.422 124.2 43.5356 124.2 44.2134 123.523C44.8913 122.846 44.8913 121.733 44.2134 121.055C43.5259 120.378 42.422 120.378 41.7442 121.055Z" fill="#7166F0"/>
<path d="M48.4844 127.8C47.7969 128.487 47.7969 129.59 48.4844 130.268C49.1719 130.945 50.2758 130.945 50.9537 130.268C51.6412 129.581 51.6412 128.477 50.9537 127.8C50.2758 127.123 49.1719 127.123 48.4844 127.8Z" fill="#7166F0"/>
<path d="M55.2349 134.545C54.5571 135.222 54.5571 136.335 55.2349 137.012C55.9225 137.699 57.0264 137.699 57.7042 137.012C58.3821 136.335 58.3821 135.222 57.7042 134.545C57.0264 133.858 55.9225 133.858 55.2349 134.545Z" fill="#7166F0"/>
<path d="M61.9844 141.28C61.2969 141.957 61.2969 143.07 61.9844 143.748C62.6622 144.425 63.7758 144.425 64.4537 143.748C65.1412 143.07 65.1412 141.957 64.4537 141.28C63.7758 140.603 62.6622 140.603 61.9844 141.28Z" fill="#7166F0"/>
<path d="M68.7309 148.024C68.0531 148.711 68.0531 149.815 68.7309 150.492C69.4184 151.169 70.5224 151.169 71.2002 150.492C71.8877 149.815 71.8877 148.702 71.2002 148.024C70.5127 147.347 69.4088 147.347 68.7309 148.024Z" fill="#7166F0"/>
</g>
</svg>
