<svg width="69" height="16" viewBox="0 0 69 16" fill="none" xmlns="http://www.w3.org/2000/svg">
<path d="M66.1 10.8699C64.82 10.8699 63.79 11.8999 63.79 13.1799C63.79 14.4599 64.82 15.4899 66.1 15.4899C67.38 15.4899 68.41 14.4599 68.41 13.1799C68.41 11.8999 67.38 10.8699 66.1 10.8699Z" stroke="white" stroke-miterlimit="10"/>
<path d="M66.1 0.709961C64.82 0.709961 63.79 1.73996 63.79 3.01996C63.79 4.29996 64.82 5.32996 66.1 5.32996C67.38 5.32996 68.41 4.29996 68.41 3.01996C68.41 1.73996 67.38 0.709961 66.1 0.709961Z" stroke="white" stroke-miterlimit="10"/>
<path d="M55.6301 10.8699C54.3501 10.8699 53.3201 11.8999 53.3201 13.1799C53.3201 14.4599 54.3501 15.4899 55.6301 15.4899C56.9101 15.4899 57.9401 14.4599 57.9401 13.1799C57.9401 11.8999 56.9101 10.8699 55.6301 10.8699Z" stroke="white" stroke-miterlimit="10"/>
<path d="M55.6301 0.709961C54.3501 0.709961 53.3201 1.73996 53.3201 3.01996C53.3201 4.29996 54.3501 5.32996 55.6301 5.32996C56.9101 5.32996 57.9401 4.29996 57.9401 3.01996C57.9401 1.73996 56.9101 0.709961 55.6301 0.709961Z" stroke="white" stroke-miterlimit="10"/>
<path d="M45.1601 10.8699C43.8801 10.8699 42.8501 11.8999 42.8501 13.1799C42.8501 14.4599 43.8801 15.4899 45.1601 15.4899C46.4401 15.4899 47.4701 14.4599 47.4701 13.1799C47.4701 11.8999 46.4401 10.8699 45.1601 10.8699Z" stroke="white" stroke-miterlimit="10"/>
<path d="M45.1601 0.709961C43.8801 0.709961 42.8501 1.73996 42.8501 3.01996C42.8501 4.29996 43.8801 5.32996 45.1601 5.32996C46.4401 5.32996 47.4701 4.29996 47.4701 3.01996C47.4701 1.73996 46.4401 0.709961 45.1601 0.709961Z" stroke="white" stroke-miterlimit="10"/>
<path d="M35.05 10.8699C33.77 10.8699 32.74 11.8999 32.74 13.1799C32.74 14.4599 33.77 15.4899 35.05 15.4899C36.33 15.4899 37.36 14.4599 37.36 13.1799C37.36 11.8999 36.32 10.8699 35.05 10.8699Z" stroke="white" stroke-miterlimit="10"/>
<path d="M35.05 0.709961C33.77 0.709961 32.74 1.73996 32.74 3.01996C32.74 4.29996 33.77 5.32996 35.05 5.32996C36.33 5.32996 37.36 4.29996 37.36 3.01996C37.36 1.73996 36.32 0.709961 35.05 0.709961Z" stroke="white" stroke-miterlimit="10"/>
<path d="M24.58 10.8699C23.3 10.8699 22.27 11.8999 22.27 13.1799C22.27 14.4599 23.3 15.4899 24.58 15.4899C25.86 15.4899 26.89 14.4599 26.89 13.1799C26.89 11.8999 25.85 10.8699 24.58 10.8699Z" stroke="white" stroke-miterlimit="10"/>
<path d="M24.58 0.709961C23.3 0.709961 22.27 1.73996 22.27 3.01996C22.27 4.29996 23.3 5.32996 24.58 5.32996C25.86 5.32996 26.89 4.29996 26.89 3.01996C26.89 1.73996 25.85 0.709961 24.58 0.709961Z" stroke="white" stroke-miterlimit="10"/>
<path d="M14.11 10.8699C12.83 10.8699 11.8 11.8999 11.8 13.1799C11.8 14.4599 12.83 15.4899 14.11 15.4899C15.39 15.4899 16.42 14.4599 16.42 13.1799C16.42 11.8999 15.38 10.8699 14.11 10.8699Z" stroke="white" stroke-miterlimit="10"/>
<path d="M14.11 0.709961C12.83 0.709961 11.8 1.73996 11.8 3.01996C11.8 4.29996 12.83 5.32996 14.11 5.32996C15.39 5.32996 16.42 4.29996 16.42 3.01996C16.42 1.73996 15.38 0.709961 14.11 0.709961Z" stroke="white" stroke-miterlimit="10"/>
<path d="M3.64008 10.8699C2.36008 10.8699 1.33008 11.8999 1.33008 13.1799C1.33008 14.4599 2.36008 15.4899 3.64008 15.4899C4.92008 15.4899 5.95007 14.4599 5.95007 13.1799C5.95007 11.8999 4.91008 10.8699 3.64008 10.8699Z" stroke="white" stroke-miterlimit="10"/>
<path d="M3.64008 0.709961C2.36008 0.709961 1.33008 1.73996 1.33008 3.01996C1.33008 4.29996 2.36008 5.32996 3.64008 5.32996C4.92008 5.32996 5.95007 4.29996 5.95007 3.01996C5.95007 1.73996 4.91008 0.709961 3.64008 0.709961Z" stroke="white" stroke-miterlimit="10"/>
</svg>
