<svg width="260" height="503" viewBox="0 0 260 503" fill="none" xmlns="http://www.w3.org/2000/svg">
<g opacity="0.3">
<path d="M3.51365e-05 0.000367443L1.12465 0.000367541L1.12461 372.748C1.12461 443.814 58.9343 501.624 130 501.624C201.066 501.624 258.875 443.814 258.875 372.748L258.875 0.000390075L260 0.000390173L260 372.748C260 444.436 201.688 502.748 130 502.748C58.3122 502.748 -3.71728e-06 444.436 2.54987e-06 372.748L3.51365e-05 0.000367443Z" fill="#F2C94C"/>
<path d="M18.8774 0.000461516L20.0019 0.000461614L20.0019 372.748C20.0019 433.406 69.3411 482.745 129.998 482.745C190.655 482.745 239.995 433.406 239.995 372.748L239.995 0.000480847L241.119 0.000480945L241.119 372.748C241.119 434.028 191.277 483.869 129.998 483.869C68.719 483.869 18.8773 434.028 18.8773 372.748L18.8774 0.000461516Z" fill="#F2C94C"/>
<path d="M37.758 0.00021502L38.8827 0.000215118L38.8826 372.748C38.8826 422.997 79.7753 463.889 130.024 463.889C180.272 463.889 221.141 422.997 221.141 372.748L221.141 0.000231052L222.266 0.00023115L222.266 372.748C222.266 423.619 180.87 464.99 130.024 464.99C79.1532 464.99 37.7819 423.619 37.7819 372.748L37.782 0.000215022L37.758 0.00021502Z" fill="#F2C94C"/>
<path d="M56.6368 0.000394025L57.7614 0.000394123L57.7614 372.748C57.7614 412.588 90.1836 445.011 130.023 445.011C169.863 445.011 202.286 412.588 202.286 372.748L202.286 0.000406758L203.41 0.000406856L203.41 372.748C203.41 413.21 170.485 446.135 130.023 446.135C89.5615 446.135 56.6367 413.21 56.6367 372.748L56.6368 0.000394025Z" fill="#F2C94C"/>
<path d="M75.4906 0.000317814L76.6152 0.000317912L76.6152 372.748C76.6152 402.18 100.567 426.131 129.998 426.131C159.429 426.131 183.381 402.18 183.381 372.748L183.381 0.000327246L184.506 0.000327344L184.506 372.748C184.506 402.802 160.052 427.256 129.998 427.256C99.9448 427.256 75.4906 402.802 75.4906 372.748L75.4906 0.000317814Z" fill="#F2C94C"/>
</g>
</svg>
