<svg width="286" height="286" viewBox="0 0 286 286" fill="none" xmlns="http://www.w3.org/2000/svg">
<g opacity="0.2">
<path d="M2.36653 169.619L116.07 283.322C120.055 284.073 124.122 284.667 128.205 285.08L0.609375 157.484C1.02185 161.576 1.60757 165.634 2.36653 169.619Z" fill="#7166F0"/>
<path d="M11.1582 87.14L198.547 274.528C200.931 273.514 203.323 272.433 205.674 271.278L14.4085 80.0124C13.2536 82.3635 12.1646 84.7476 11.1582 87.14Z" fill="#7166F0"/>
<path d="M147.452 0.0743069C145.876 0.0248097 144.284 6.10352e-05 142.717 6.10352e-05C140.852 6.10352e-05 138.98 0.0330592 137.115 0.107305L285.591 148.583C285.723 145.151 285.731 141.686 285.624 138.238L147.452 0.0743069Z" fill="#7166F0"/>
<path d="M221.336 23.4865L262.204 64.3548C256.883 56.2867 250.737 48.7549 243.841 41.85C236.936 34.9534 229.404 28.8075 221.336 23.4865Z" fill="#7166F0"/>
<path d="M0 136.835L148.855 285.69C152.072 285.55 155.298 285.311 158.499 284.956L0.73421 127.183C0.379479 130.384 0.140242 133.618 0 136.835Z" fill="#7166F0"/>
<path d="M21.5781 67.1348L218.553 264.109C220.673 262.781 222.76 261.395 224.789 259.968L25.7111 60.8982C24.284 62.9276 22.8981 65.023 21.5781 67.1348Z" fill="#7166F0"/>
<path d="M3.67188 110.082L175.609 282.019C178.381 281.367 181.128 280.641 183.809 279.841L5.84976 101.882C5.0578 104.563 4.32359 107.302 3.67188 110.082Z" fill="#7166F0"/>
<path d="M183.781 5.98099C179.277 4.63631 174.673 3.50612 170.037 2.61517L283.081 115.659C282.181 111.014 281.059 106.411 279.715 101.915L183.781 5.98099Z" fill="#7166F0"/>
<path d="M41.7168 243.972C54.9985 257.254 70.3344 267.574 87.4027 274.718L10.9707 198.286C18.1231 215.346 28.435 230.682 41.7168 243.972Z" fill="#7166F0"/>
<path d="M110.293 3.72062L281.966 175.394C282.634 172.523 283.212 169.627 283.698 166.748L118.938 1.98822C116.051 2.47494 113.156 3.05241 110.293 3.72062Z" fill="#7166F0"/>
<path d="M49.7344 34.4336L251.254 235.954C252.855 234.089 254.414 232.175 255.915 230.237L55.4431 29.7726C53.5044 31.2741 51.5988 32.8332 49.7344 34.4336Z" fill="#7166F0"/>
<path d="M87.3145 11.1617L274.53 198.377C275.569 195.902 276.543 193.394 277.433 190.903L94.7885 8.25781C92.2889 9.14876 89.7893 10.1222 87.3145 11.1617Z" fill="#7166F0"/>
<path d="M34.498 49.6293L236.051 251.182C237.899 249.59 239.714 247.932 241.487 246.241L39.4395 44.1929C37.7484 45.9665 36.0985 47.7897 34.498 49.6293Z" fill="#7166F0"/>
<path d="M67.2676 21.5478L264.143 218.423C265.479 216.278 266.766 214.092 267.979 211.881L73.8095 17.7036C71.5986 18.9245 69.4125 20.2114 67.2676 21.5478Z" fill="#7166F0"/>
</g>
</svg>
