<svg width="226" height="203" viewBox="0 0 226 203" fill="none" xmlns="http://www.w3.org/2000/svg">
<path d="M40.9101 379.44C142.823 379.44 225.44 294.719 225.44 190.21C225.44 85.7011 142.823 0.97998 40.9101 0.97998C-61.003 0.97998 -143.62 85.7011 -143.62 190.21C-143.62 294.719 -61.003 379.44 40.9101 379.44Z" stroke="#60E4FF" stroke-width="0.75" stroke-miterlimit="10"/>
<path d="M40.9102 6.71997C139.73 6.70997 219.84 88.8599 219.85 190.22C219.86 291.56 139.73 373.72 40.9102 373.72C-57.9098 373.72 -138.04 291.56 -138.04 190.21C-138.04 88.86 -57.9198 6.72997 40.9102 6.71997Z" stroke="#60E4FF" stroke-width="0.75" stroke-miterlimit="10"/>
<path d="M40.91 12.45C136.63 12.43 214.24 92.0099 214.26 190.22C214.28 288.4 136.65 367.99 40.91 367.99C-54.8299 367.99 -132.45 288.39 -132.45 190.21C-132.45 92.03 -54.8299 12.47 40.91 12.45Z" stroke="#60E4FF" stroke-width="0.75" stroke-miterlimit="10"/>
<path d="M40.9101 18.1799C133.54 18.1499 208.64 95.1599 208.68 190.22C208.71 285.23 133.57 362.26 40.9101 362.26C-51.7399 362.26 -126.86 285.24 -126.86 190.22C-126.86 95.1999 -51.7499 18.2099 40.9101 18.1799Z" stroke="#60E4FF" stroke-width="0.75" stroke-miterlimit="10"/>
<path d="M40.9102 23.9099C130.44 23.8699 203.04 98.3099 203.09 190.22C203.13 282.07 130.48 356.53 40.9102 356.53C-48.6598 356.53 -121.27 282.06 -121.27 190.21C-121.27 98.3599 -48.6598 23.9499 40.9102 23.9099Z" stroke="#60E4FF" stroke-width="0.75" stroke-miterlimit="10"/>
<path d="M40.9101 29.6399C127.35 29.5899 197.45 101.47 197.5 190.22C197.55 278.9 127.39 350.8 40.9101 350.8C-45.5699 350.8 -115.68 278.9 -115.68 190.21C-115.68 101.52 -45.5699 29.6899 40.9101 29.6399Z" stroke="#60E4FF" stroke-width="0.75" stroke-miterlimit="10"/>
<path d="M40.9102 35.3699C124.26 35.3099 191.85 104.62 191.91 190.22C191.97 275.74 124.3 345.07 40.9102 345.07C-42.4898 345.07 -110.09 275.74 -110.09 190.22C-110.09 104.7 -42.4898 35.4299 40.9102 35.3699Z" stroke="#60E4FF" stroke-width="0.75" stroke-miterlimit="10"/>
<path d="M40.9102 41.0999C121.16 41.0299 186.25 107.77 186.32 190.21C186.39 272.56 121.22 339.32 40.9102 339.32C-39.3997 339.32 -104.5 272.56 -104.5 190.21C-104.5 107.86 -39.3997 41.1699 40.9102 41.0999Z" stroke="#60E4FF" stroke-width="0.75" stroke-miterlimit="10"/>
<path d="M40.9101 46.8299C118.07 46.7499 180.65 110.92 180.74 190.21C180.82 269.4 118.14 333.59 40.9101 333.59C-36.3199 333.59 -98.9199 269.4 -98.9199 190.21C-98.9199 111.02 -36.3099 46.9099 40.9101 46.8299Z" stroke="#60E4FF" stroke-width="0.75" stroke-miterlimit="10"/>
<path d="M40.9102 52.5599C114.97 52.4699 175.05 114.07 175.15 190.21C175.24 266.23 115.05 327.86 40.9102 327.86C-33.2298 327.86 -93.3298 266.23 -93.3298 190.21C-93.3298 114.19 -33.2298 52.6499 40.9102 52.5599Z" stroke="#60E4FF" stroke-width="0.75" stroke-miterlimit="10"/>
<path d="M40.91 58.2899C111.88 58.1899 169.45 117.22 169.56 190.21C169.66 263.07 111.96 322.13 40.91 322.13C-30.14 322.13 -87.74 263.07 -87.74 190.21C-87.74 117.35 -30.14 58.3899 40.91 58.2899Z" stroke="#60E4FF" stroke-width="0.75" stroke-miterlimit="10"/>
<path d="M40.9101 64.0199C108.78 63.9099 163.85 120.37 163.97 190.21C164.08 259.9 108.87 316.4 40.9101 316.4C-27.0599 316.4 -82.1499 259.9 -82.1499 190.21C-82.1499 120.52 -27.0499 64.1299 40.9101 64.0199Z" stroke="#60E4FF" stroke-width="0.75" stroke-miterlimit="10"/>
<path d="M40.9102 69.75C105.69 69.63 158.25 123.52 158.38 190.21C158.5 256.74 105.79 310.67 40.9102 310.67C-23.9698 310.67 -76.5598 256.74 -76.5598 190.21C-76.5598 123.68 -23.9598 69.87 40.9102 69.75Z" stroke="#60E4FF" stroke-width="0.75" stroke-miterlimit="10"/>
<path d="M40.91 75.48C102.59 75.35 152.65 126.68 152.8 190.21C152.93 253.57 102.71 304.94 40.91 304.94C-20.89 304.94 -70.97 253.57 -70.97 190.21C-70.97 126.85 -20.88 75.61 40.91 75.48Z" stroke="#60E4FF" stroke-width="0.75" stroke-miterlimit="10"/>
<path d="M40.9101 81.2C99.5001 81.06 147.05 129.82 147.21 190.2C147.36 250.4 99.6201 299.2 40.9101 299.2C-17.7999 299.2 -65.3899 250.4 -65.3899 190.2C-65.3899 130 -17.7899 81.35 40.9101 81.2Z" stroke="#60E4FF" stroke-width="0.75" stroke-miterlimit="10"/>
<path d="M40.9102 86.9301C96.4002 86.7801 141.45 132.97 141.62 190.2C141.78 247.23 96.5302 293.47 40.9102 293.47C-14.7098 293.47 -59.7998 247.23 -59.7998 190.2C-59.7998 133.17 -14.6998 87.0901 40.9102 86.9301Z" stroke="#60E4FF" stroke-width="0.75" stroke-miterlimit="10"/>
<path d="M40.91 92.6601C93.31 92.5001 135.85 136.12 136.03 190.2C136.2 244.07 93.44 287.74 40.91 287.74C-11.62 287.74 -54.21 244.07 -54.21 190.2C-54.21 136.34 -11.62 92.8301 40.91 92.6601Z" stroke="#60E4FF" stroke-width="0.75" stroke-miterlimit="10"/>
<path d="M40.9101 98.3899C90.2101 98.2199 130.26 139.27 130.44 190.2C130.62 240.9 90.3501 282.01 40.9101 282.01C-8.52987 282.01 -48.6199 240.9 -48.6199 190.2C-48.6199 139.5 -8.52987 98.5699 40.9101 98.3899Z" stroke="#60E4FF" stroke-width="0.75" stroke-miterlimit="10"/>
<path d="M40.9102 104.12C87.1202 103.94 124.66 142.42 124.85 190.2C125.04 237.74 87.2702 276.28 40.9102 276.28C-5.44978 276.28 -43.0298 237.74 -43.0298 190.2C-43.0298 142.66 -5.43978 104.31 40.9102 104.12Z" stroke="#60E4FF" stroke-width="0.75" stroke-miterlimit="10"/>
<path d="M40.91 109.85C84.0201 109.66 119.06 145.57 119.27 190.2C119.47 234.57 84.19 270.55 40.91 270.55C-2.36995 270.55 -37.45 234.58 -37.45 190.2C-37.44 145.83 -2.35995 110.05 40.91 109.85Z" stroke="#60E4FF" stroke-width="0.75" stroke-miterlimit="10"/>
<path d="M40.9201 115.58C80.9401 115.38 113.47 148.72 113.69 190.2C113.9 231.41 81.1101 264.82 40.9201 264.82C0.730145 264.82 -31.8499 231.41 -31.8499 190.2C-31.8499 148.99 0.730145 115.79 40.9201 115.58Z" stroke="#60E4FF" stroke-width="0.75" stroke-miterlimit="10"/>
<path d="M40.9202 121.31C77.8502 121.1 107.87 151.88 108.1 190.2C108.32 228.24 78.0202 259.09 40.9202 259.09C3.82024 259.09 -26.2598 228.25 -26.2598 190.2C-26.2598 152.16 3.82024 121.54 40.9202 121.31Z" stroke="#60E4FF" stroke-width="0.75" stroke-miterlimit="10"/>
<path d="M40.9201 127.04C74.7501 126.82 102.27 155.03 102.51 190.2C102.74 225.08 74.9301 253.36 40.9201 253.36C6.91008 253.36 -20.6699 225.08 -20.6699 190.2C-20.6799 155.32 6.91008 127.28 40.9201 127.04Z" stroke="#60E4FF" stroke-width="0.75" stroke-miterlimit="10"/>
<path d="M40.9202 132.77C71.6602 132.54 96.6702 158.18 96.9202 190.2C97.1602 221.91 71.8502 247.63 40.9202 247.63C9.99017 247.63 -15.0798 221.92 -15.0798 190.2C-15.0898 158.49 9.99017 133.02 40.9202 132.77Z" stroke="#60E4FF" stroke-width="0.75" stroke-miterlimit="10"/>
<path d="M40.92 138.5C68.56 138.26 91.07 161.33 91.34 190.2C91.59 218.75 68.77 241.9 40.92 241.9C13.08 241.9 -9.5 218.75 -9.5 190.2C-9.5 161.65 13.08 138.76 40.92 138.5Z" stroke="#60E4FF" stroke-width="0.75" stroke-miterlimit="10"/>
<path d="M40.9201 144.23C65.4701 143.98 85.4701 164.48 85.7501 190.2C86.0101 215.58 65.6801 236.17 40.9201 236.17C16.1601 236.17 -3.90991 215.59 -3.90991 190.2C-3.90991 164.81 16.1701 144.5 40.9201 144.23Z" stroke="#60E4FF" stroke-width="0.75" stroke-miterlimit="10"/>
<path d="M40.9202 149.96C62.3702 149.7 79.8702 167.63 80.1602 190.2C80.4302 212.42 62.5902 230.44 40.9202 230.44C19.2502 230.44 1.68018 212.42 1.68018 190.2C1.68018 167.98 19.2502 150.24 40.9202 149.96Z" stroke="#60E4FF" stroke-width="0.75" stroke-miterlimit="10"/>
<path d="M40.92 155.69C59.28 155.42 74.27 170.78 74.57 190.2C74.85 209.25 59.5 224.71 40.92 224.71C22.33 224.71 7.27002 209.26 7.27002 190.2C7.27002 171.14 22.34 155.98 40.92 155.69Z" stroke="#60E4FF" stroke-width="0.75" stroke-miterlimit="10"/>
<path d="M40.9201 161.42C56.1801 161.14 68.6701 173.94 68.9801 190.2C69.2701 206.09 56.4201 218.98 40.9201 218.98C25.4201 218.98 12.8601 206.1 12.8601 190.2C12.8601 174.3 25.4301 161.72 40.9201 161.42Z" stroke="#60E4FF" stroke-width="0.75" stroke-miterlimit="10"/>
<path d="M40.9202 167.15C53.0902 166.86 63.0802 177.09 63.4002 190.2C63.7002 202.92 53.3402 213.25 40.9202 213.25C28.5102 213.25 18.4402 202.93 18.4402 190.2C18.4402 177.47 28.5102 167.46 40.9202 167.15Z" stroke="#60E4FF" stroke-width="0.75" stroke-miterlimit="10"/>
<path d="M40.92 172.88C49.99 172.58 57.48 180.24 57.81 190.2C58.12 199.76 50.25 207.52 40.92 207.52C31.59 207.52 24.03 199.77 24.03 190.2C24.03 180.64 31.6 173.2 40.92 172.88Z" stroke="#60E4FF" stroke-width="0.75" stroke-miterlimit="10"/>
<path d="M52.2201 190.2C52.5401 196.59 47.1601 201.79 40.9201 201.79C34.6801 201.79 29.6201 196.6 29.6201 190.2C29.6201 183.8 34.6901 178.94 40.9201 178.61C46.9001 178.3 51.8801 183.39 52.2201 190.2Z" stroke="#60E4FF" stroke-width="0.75" stroke-miterlimit="10"/>
</svg>
