<svg width="56" height="15" viewBox="0 0 56 15" fill="none" xmlns="http://www.w3.org/2000/svg">
<g clip-path="url(#clip0_316_3130)">
<path d="M34.8243 2.78728C28.7068 1.92936 21.5778 2.84939 15.8259 4.96507C12.564 6.16461 9.55807 7.94644 6.74305 9.90684C5.28475 10.92 3.89146 11.9915 2.5469 13.1367C2.15694 13.4705 0.832701 15.1514 0.316815 14.9922C-1.4177 14.4565 4.4764 9.43712 5.15477 8.94023C8.01042 6.83619 11.0204 4.83697 14.3432 3.46663C19.9164 1.16461 26.562 -0.326077 32.6551 0.0698855C36.2013 0.302805 39.7597 0.496904 43.2166 1.47517C44.6708 1.88666 46.0885 2.42625 47.433 3.09007C48.3876 3.55979 49.3503 4.06057 50.2359 4.64287C50.8899 5.07377 51.4992 5.94722 52.1897 6.25001C52.2628 4.96507 51.1173 3.57532 51.0889 2.23603C51.0564 0.64442 52.2466 1.33541 52.8112 2.24768C53.7049 3.69954 54.3386 5.27951 55.0413 6.81678C55.6425 8.12889 56.7433 9.66616 55.2525 10.691C53.9446 11.5916 52.2263 12.0264 50.768 12.6398C49.7931 13.0474 47.892 14.4177 46.7953 13.8005C43.3709 11.8828 51.8566 10.0971 52.3766 9.73215C51.9338 9.30902 51.2351 9.06833 50.7152 8.71507C49.9637 8.20653 49.2935 7.60094 48.5379 7.09628C47.1121 6.1452 45.532 5.31057 43.9356 4.64675C41.1693 3.4938 37.8384 2.81057 34.8243 2.78728C35.2589 2.79116 32.6104 2.47672 34.8243 2.78728Z" fill="white"/>
</g>
<defs>
<clipPath id="clip0_316_3130">
<rect width="56" height="15" fill="white"/>
</clipPath>
</defs>
</svg>
