<svg width="20" height="20" viewBox="0 0 20 20" fill="none" xmlns="http://www.w3.org/2000/svg">
<path d="M18.75 9.9259H1.25C0.56082 9.9259 0 10.4867 0 11.1759C0 11.8651 0.56082 12.4259 1.25 12.4259H18.75C19.4392 12.4259 20 11.8651 20 11.1759C20 10.4867 19.4392 9.9259 18.75 9.9259ZM18.75 11.5925H1.25C1.02082 11.5925 0.83332 11.4059 0.83332 11.1759C0.83332 10.9459 1.02082 10.7592 1.25 10.7592H18.75C18.9792 10.7592 19.1667 10.9459 19.1667 11.1759C19.1667 11.4059 18.9792 11.5925 18.75 11.5925Z" fill="#7166F0"/>
<path d="M18.8649 11.6083C18.6391 11.5458 18.4124 11.6733 18.3499 11.895L17.2016 15.915C16.9474 16.8042 16.1233 17.4258 15.1983 17.4258H4.80243C3.87743 17.4258 3.05411 16.8041 2.79911 15.915L1.65075 11.895C1.58825 11.6733 1.36075 11.5458 1.13575 11.6083C0.914067 11.6716 0.786567 11.9016 0.849927 12.1233L1.99825 16.1433C2.35407 17.3891 3.50657 18.2591 4.80243 18.2591H15.1974C16.4932 18.2591 17.6466 17.3891 18.0024 16.1433L19.1507 12.1233C19.2141 11.9025 19.0866 11.6716 18.8649 11.6083Z" fill="#7166F0"/>
<path d="M4.80259 15.7599C4.61759 15.7599 4.45341 15.6349 4.40177 15.4574L3.86095 13.5624C3.79845 13.3416 3.56927 13.2124 3.34595 13.2757C3.12513 13.3391 2.99677 13.5691 3.06013 13.7907L3.60095 15.6857C3.75263 16.2199 4.24763 16.5924 4.80263 16.5924C5.03263 16.5924 5.21931 16.4066 5.21931 16.1766C5.21927 15.9466 5.03259 15.7599 4.80259 15.7599Z" fill="#7166F0"/>
<path d="M5.60247 17.4691C5.39665 17.3683 5.14747 17.4491 5.04329 17.6558L4.20997 19.3225C4.10747 19.5283 4.19079 19.7783 4.39665 19.8817C4.45747 19.9117 4.52083 19.9259 4.58333 19.9259C4.73583 19.9259 4.88251 19.8417 4.95583 19.695L5.78915 18.0284C5.89165 17.8225 5.80829 17.5725 5.60247 17.4691Z" fill="#7166F0"/>
<path d="M15.79 19.3234L14.9567 17.6567C14.8534 17.45 14.6034 17.3675 14.3975 17.47C14.1917 17.5733 14.1083 17.8233 14.2108 18.0292L15.0441 19.6959C15.1175 19.8417 15.2641 19.9259 15.4166 19.9259C15.4791 19.9259 15.5425 19.9117 15.6033 19.8825C15.8092 19.7792 15.8925 19.5292 15.79 19.3234Z" fill="#7166F0"/>
<path d="M16.7375 0C16.3125 0 15.9125 0.16582 15.6117 0.46668L14.2892 1.78918C14.1267 1.95168 14.1267 2.21586 14.2892 2.37836C14.4517 2.54086 14.7159 2.54086 14.8784 2.37836L16.2008 1.05668C16.3433 0.913359 16.5341 0.83418 16.7416 0.83418C17.16 0.83418 17.5 1.17418 17.5 1.5925V10.3425C17.5 10.5725 17.6866 10.7592 17.9166 10.7592C18.1466 10.7592 18.3333 10.5725 18.3341 10.3417V1.59168C18.3342 0.71418 17.6208 0 16.7375 0Z" fill="#7166F0"/>
<path d="M15.2958 2.20674L14.4625 1.37342C14.3667 1.2776 14.2342 1.23342 14.1 1.25674L12.0167 1.59842C11.8633 1.6226 11.7375 1.73092 11.6883 1.87842C11.6392 2.02592 11.6767 2.18842 11.785 2.29924L14.285 4.87424C14.3633 4.95674 14.4725 5.00092 14.5833 5.00092C14.6225 5.00092 14.6625 4.9951 14.7025 4.98424C14.8508 4.94092 14.9633 4.81842 14.9933 4.66674L15.41 2.58342C15.4375 2.44674 15.3942 2.30506 15.2958 2.20674ZM14.33 3.72506L12.9375 2.29092L14.0233 2.11342L14.5475 2.6376L14.33 3.72506Z" fill="#7166F0"/>
<path d="M9.8775 5.04839C9.715 4.88589 9.45083 4.88589 9.28833 5.04839L8.455 5.88171C8.2925 6.04421 8.2925 6.30839 8.455 6.47089C8.53668 6.55171 8.64333 6.59257 8.75 6.59257C8.85668 6.59257 8.96333 6.55175 9.04418 6.47089L9.8775 5.63757C10.04 5.47503 10.04 5.21089 9.8775 5.04839Z" fill="#7166F0"/>
<path d="M11.5442 6.71501C11.3817 6.55251 11.1175 6.55251 10.955 6.71501L10.1217 7.54834C9.95919 7.71084 9.95919 7.97501 10.1217 8.13751C10.2034 8.21833 10.31 8.25919 10.4167 8.25919C10.5234 8.25919 10.63 8.21837 10.7109 8.13751L11.5442 7.30419C11.7067 7.14169 11.7067 6.87751 11.5442 6.71501Z" fill="#7166F0"/>
<path d="M12.3776 4.21501C12.2151 4.05251 11.9509 4.05251 11.7884 4.21501L10.9551 5.04834C10.7926 5.21084 10.7926 5.47501 10.9551 5.63751C11.0367 5.71833 11.1434 5.75919 11.2501 5.75919C11.3567 5.75919 11.4634 5.71837 11.5442 5.63751L12.3776 4.80419C12.5401 4.64169 12.5401 4.37751 12.3776 4.21501Z" fill="#7166F0"/>
</svg>
