<svg width="20" height="20" viewBox="0 0 20 20" fill="none" xmlns="http://www.w3.org/2000/svg">
<path d="M18.75 9.92578H1.25C0.56082 9.92578 0 10.4866 0 11.1758C0 11.865 0.56082 12.4258 1.25 12.4258H18.75C19.4392 12.4258 20 11.865 20 11.1758C20 10.4866 19.4392 9.92578 18.75 9.92578ZM18.75 11.5924H1.25C1.02082 11.5924 0.83332 11.4057 0.83332 11.1757C0.83332 10.9457 1.02082 10.7591 1.25 10.7591H18.75C18.9792 10.7591 19.1667 10.9457 19.1667 11.1757C19.1667 11.4057 18.9792 11.5924 18.75 11.5924Z" fill="#F2C94C"/>
<path d="M18.865 11.6084C18.6392 11.5459 18.4125 11.6734 18.35 11.8951L17.2017 15.9151C16.9475 16.8043 16.1233 17.4259 15.1983 17.4259H4.80249C3.87749 17.4259 3.05417 16.8043 2.79917 15.9151L1.65081 11.8951C1.58831 11.6734 1.36081 11.5459 1.13581 11.6084C0.914128 11.6717 0.786628 11.9017 0.849988 12.1234L1.99831 16.1434C2.35413 17.3892 3.50663 18.2592 4.80249 18.2592H15.1975C16.4933 18.2592 17.6467 17.3892 18.0025 16.1434L19.1508 12.1234C19.2142 11.9026 19.0867 11.6718 18.865 11.6084Z" fill="#F2C94C"/>
<path d="M4.80259 15.76C4.61759 15.76 4.45341 15.635 4.40177 15.4575L3.86095 13.5625C3.79845 13.3417 3.56927 13.2125 3.34595 13.2759C3.12513 13.3392 2.99677 13.5692 3.06013 13.7909L3.60095 15.6859C3.75263 16.22 4.24763 16.5925 4.80263 16.5925C5.03263 16.5925 5.21931 16.4067 5.21931 16.1767C5.21927 15.9467 5.03259 15.76 4.80259 15.76Z" fill="#F2C94C"/>
<path d="M5.60235 17.4693C5.39653 17.3685 5.14735 17.4493 5.04317 17.656L4.20985 19.3226C4.10735 19.5285 4.19067 19.7785 4.39653 19.8818C4.45735 19.9118 4.52071 19.926 4.58321 19.926C4.73571 19.926 4.88239 19.8418 4.95571 19.6952L5.78903 18.0285C5.89153 17.8226 5.80817 17.5726 5.60235 17.4693Z" fill="#F2C94C"/>
<path d="M15.79 19.3234L14.9567 17.6567C14.8534 17.45 14.6034 17.3675 14.3975 17.47C14.1917 17.5733 14.1083 17.8233 14.2108 18.0292L15.0441 19.6959C15.1175 19.8417 15.2641 19.9259 15.4166 19.9259C15.4791 19.9259 15.5425 19.9117 15.6033 19.8825C15.8092 19.7792 15.8925 19.5292 15.79 19.3234Z" fill="#F2C94C"/>
<path d="M16.7374 0C16.3124 0 15.9124 0.16582 15.6116 0.46668L14.2891 1.78918C14.1266 1.95168 14.1266 2.21586 14.2891 2.37836C14.4516 2.54086 14.7158 2.54086 14.8783 2.37836L16.2008 1.05668C16.3433 0.913359 16.5341 0.83418 16.7416 0.83418C17.1599 0.83418 17.4999 1.17418 17.4999 1.5925V10.3425C17.4999 10.5725 17.6866 10.7592 17.9166 10.7592C18.1466 10.7592 18.3333 10.5725 18.3341 10.3417V1.59168C18.3341 0.71418 17.6208 0 16.7374 0Z" fill="#F2C94C"/>
<path d="M15.2957 2.20686L14.4624 1.37354C14.3666 1.27772 14.2341 1.23354 14.0999 1.25686L12.0166 1.59854C11.8633 1.62272 11.7374 1.73104 11.6883 1.87854C11.6391 2.02604 11.6766 2.18854 11.785 2.29936L14.285 4.87436C14.3633 4.95686 14.4725 5.00104 14.5833 5.00104C14.6225 5.00104 14.6625 4.99522 14.7025 4.98436C14.8508 4.94104 14.9633 4.81854 14.9933 4.66686L15.41 2.58354C15.4374 2.44686 15.3941 2.30518 15.2957 2.20686ZM14.3299 3.72518L12.9374 2.29104L14.0232 2.11354L14.5474 2.63772L14.3299 3.72518Z" fill="#F2C94C"/>
<path d="M9.87763 5.04839C9.71513 4.88589 9.45095 4.88589 9.28845 5.04839L8.45513 5.88171C8.29263 6.04421 8.29263 6.30839 8.45513 6.47089C8.53681 6.55171 8.64345 6.59257 8.75013 6.59257C8.85681 6.59257 8.96345 6.55175 9.04431 6.47089L9.87763 5.63757C10.0401 5.47503 10.0401 5.21089 9.87763 5.04839Z" fill="#F2C94C"/>
<path d="M11.5441 6.71489C11.3816 6.55239 11.1175 6.55239 10.955 6.71489L10.1216 7.54821C9.95913 7.71071 9.95913 7.97489 10.1216 8.13739C10.2033 8.21821 10.31 8.25907 10.4166 8.25907C10.5233 8.25907 10.63 8.21825 10.7108 8.13739L11.5441 7.30407C11.7066 7.14157 11.7066 6.87739 11.5441 6.71489Z" fill="#F2C94C"/>
<path d="M12.3776 4.21489C12.2151 4.05239 11.9509 4.05239 11.7884 4.21489L10.9551 5.04821C10.7926 5.21071 10.7926 5.47489 10.9551 5.63739C11.0368 5.71821 11.1434 5.75907 11.2501 5.75907C11.3568 5.75907 11.4634 5.71825 11.5443 5.63739L12.3776 4.80407C12.5401 4.64157 12.5401 4.37739 12.3776 4.21489Z" fill="#F2C94C"/>
</svg>
