<svg width="1920" height="907" viewBox="0 0 1920 907" fill="none" xmlns="http://www.w3.org/2000/svg">
<rect width="1923" height="907" fill="white"/>
<g opacity="0.04">
<path opacity="0.56" d="M705.28 907L65.28 0H0V99.897L569.51 907H705.28Z" fill="#111111"/>
<path opacity="0.56" d="M527.514 907L0 159.414V254.286L460.57 907H527.514Z" fill="#111111"/>
<path opacity="0.56" d="M970.906 907L330.906 0H110.721L750.721 907H970.906Z" fill="#111111"/>
<path opacity="0.56" d="M1727.31 907L1087.31 0H951.539L1591.54 907H1727.31Z" fill="#111111"/>
<path opacity="0.56" d="M1920 643.934L1465.63 0H1398.68L1920 738.806V643.934Z" fill="#111111"/>
<path opacity="0.56" d="M1920 907V803.638L1352.93 0H1132.74L1772.74 907H1920Z" fill="#111111"/>
<path opacity="0.23" d="M1402.37 907L762.368 0H654.541L1294.54 907H1402.37Z" fill="#111111"/>
<path opacity="0.23" d="M1078.44 907H1254.69L614.694 0H438.438L1078.44 907Z" fill="#111111"/>
</g>
</svg>
