<svg width="21" height="20" viewBox="0 0 21 20" fill="none" xmlns="http://www.w3.org/2000/svg">
<path d="M20 3.62212C20 5.86393 20 8.10573 20 10.3475C19.9462 10.2986 19.8973 10.2496 19.8434 10.2056C19.4374 9.84337 19.0362 9.47137 18.6204 9.11894C18.4932 9.01126 18.4295 8.92315 18.4344 8.75184C18.4491 8.28683 18.4393 7.81694 18.4393 7.34704C12.8033 7.34704 7.19178 7.34704 1.56556 7.34704C1.56556 7.43025 1.56556 7.50367 1.56556 7.5722C1.56556 10.8811 1.56556 14.1899 1.56556 17.4988C1.56556 18.1351 1.8591 18.4337 2.49511 18.4337C4.51566 18.4337 6.53131 18.4435 8.55186 18.4239C8.88454 18.419 9.11448 18.4875 9.25147 18.7959C9.28082 18.8595 9.33464 18.9134 9.38356 18.9672C9.70646 19.3098 10.0342 19.6574 10.3571 20C7.59785 20 4.83855 20 2.07436 20C1.99119 19.9804 1.91292 19.9608 1.82975 19.9413C0.728963 19.6769 0.00489237 18.7567 0 17.6114C0 15.4919 0 13.3676 0 11.2433C0 8.80568 0 6.37298 0 3.93539C0 2.79001 0.72407 1.85022 1.82975 1.62017C2.22603 1.53696 2.64188 1.57122 3.05284 1.55164C3.12622 1.54674 3.19961 1.55164 3.29256 1.55164C3.29256 1.01322 3.29256 0.509055 3.29256 0C3.81605 0 4.32485 0 4.84834 0C4.84834 0.518845 4.84834 1.02301 4.84834 1.53696C8.28767 1.53696 11.7123 1.53696 15.1614 1.53696C15.1614 1.01811 15.1614 0.504161 15.1614 0C15.6947 0 16.2035 0 16.727 0C16.727 0.518845 16.727 1.0279 16.727 1.55164C17.0646 1.55164 17.3875 1.54185 17.7153 1.55164C18.4687 1.58101 19.0753 1.89917 19.5401 2.49633C19.7945 2.82917 19.9119 3.22075 20 3.62212ZM15.1614 3.12775C11.7074 3.12775 8.28278 3.12775 4.83855 3.12775C4.83855 3.6466 4.83855 4.15076 4.83855 4.66471C4.31507 4.66471 3.80626 4.66471 3.27299 4.66471C3.27299 4.14097 3.27299 3.63191 3.27299 3.11307C2.95988 3.11307 2.66634 3.10817 2.3728 3.11307C1.88845 3.12286 1.56556 3.44102 1.56067 3.9256C1.55577 4.40039 1.56067 4.87518 1.56067 5.34998C1.56067 5.48213 1.56067 5.61919 1.56067 5.75135C7.19667 5.75135 12.8131 5.75135 18.4344 5.75135C18.4344 5.10524 18.4442 4.47381 18.4296 3.84239C18.4198 3.47528 18.1458 3.15712 17.7789 3.12286C17.4315 3.09349 17.0793 3.11796 16.7123 3.11796C16.7123 3.6417 16.7123 4.15076 16.7123 4.65981C16.184 4.65981 15.68 4.65981 15.1614 4.65981C15.1614 4.15076 15.1614 3.6466 15.1614 3.12775Z" fill="#7166F0"/>
<path d="M14.3464 19.9972C13.8376 19.8749 13.3043 19.8112 12.82 19.6203C11.2153 18.984 10.1243 17.824 9.6791 16.1549C9.10669 14.0354 9.66442 12.1901 11.3083 10.7315C12.502 9.6693 13.9306 9.26303 15.5108 9.51266C17.409 9.81124 18.7642 10.8685 19.5519 12.6062C19.7672 13.0761 19.8357 13.6145 19.9726 14.1186C19.9922 14.1872 19.9971 14.2557 20.0118 14.3242C20.0118 14.5836 20.0118 14.8431 20.0118 15.1074C19.9433 15.45 19.909 15.8024 19.8063 16.1353C19.3171 17.7897 18.275 18.9693 16.6703 19.6106C16.1811 19.8063 15.6429 19.87 15.1292 19.9972C14.865 19.9972 14.6057 19.9972 14.3464 19.9972ZM14.7329 18.4358C16.773 18.4358 18.4462 16.7618 18.4462 14.7207C18.4413 12.6845 16.7828 11.0203 14.7476 11.0105C12.7075 11.0007 11.0294 12.6698 11.0245 14.7158C11.0196 16.7569 12.6928 18.4309 14.7329 18.4358Z" fill="#7166F0"/>
<path d="M2.97656 10.5301C2.97656 10.0113 2.97656 9.50713 2.97656 8.98828C3.49026 8.98828 3.99418 8.98828 4.51277 8.98828C4.51277 9.49244 4.51277 10.0064 4.51277 10.5301C4.00885 10.5301 3.50005 10.5301 2.97656 10.5301Z" fill="#7166F0"/>
<path d="M7.64755 8.98828C7.64755 9.50713 7.64755 10.0113 7.64755 10.5252C7.12896 10.5252 6.62015 10.5252 6.10156 10.5252C6.10156 10.0113 6.10156 9.50713 6.10156 8.98828C6.61037 8.98828 7.11917 8.98828 7.64755 8.98828Z" fill="#7166F0"/>
<path d="M10.7784 8.98828C10.7784 9.50713 10.7784 10.0113 10.7784 10.5252C10.2647 10.5252 9.76078 10.5252 9.24219 10.5252C9.24219 10.0211 9.24219 9.51202 9.24219 8.98828C9.7461 8.98828 10.2549 8.98828 10.7784 8.98828Z" fill="#7166F0"/>
<path d="M2.97656 13.6502C2.97656 13.1363 2.97656 12.6272 2.97656 12.1133C3.49515 12.1133 4.00396 12.1133 4.52255 12.1133C4.52255 12.6272 4.52255 13.1314 4.52255 13.6502C4.01374 13.6502 3.50494 13.6502 2.97656 13.6502Z" fill="#7166F0"/>
<path d="M6.10156 13.6551C6.10156 13.1363 6.10156 12.6321 6.10156 12.1133C6.61526 12.1133 7.11917 12.1133 7.63777 12.1133C7.63777 12.6174 7.63777 13.1314 7.63777 13.6551C7.13385 13.6551 6.62505 13.6551 6.10156 13.6551Z" fill="#7166F0"/>
<path d="M2.97656 15.2383C3.49515 15.2383 3.99907 15.2383 4.51277 15.2383C4.51277 15.7522 4.51277 16.2564 4.51277 16.7752C4.00885 16.7752 3.50005 16.7752 2.97656 16.7752C2.97656 16.2711 2.97656 15.762 2.97656 15.2383Z" fill="#7166F0"/>
<path d="M7.64755 15.25C7.64755 15.764 7.64755 16.2681 7.64755 16.787C7.12896 16.787 6.62015 16.787 6.10156 16.787C6.10156 16.2779 6.10156 15.7688 6.10156 15.25C6.60548 15.25 7.11428 15.25 7.64755 15.25Z" fill="#7166F0"/>
<path d="M13.9297 12.1133C14.4483 12.1133 14.9522 12.1133 15.4757 12.1133C15.4757 12.7202 15.4757 13.3174 15.4757 13.9341C15.9209 13.9341 16.3514 13.9341 16.7966 13.9341C16.7966 14.4628 16.7966 14.9669 16.7966 15.4858C15.8524 15.4858 14.8984 15.4858 13.9297 15.4858C13.9297 14.3698 13.9297 13.2489 13.9297 12.1133Z" fill="#7166F0"/>
</svg>
