<svg width="17" height="17" viewBox="0 0 17 17" fill="none" xmlns="http://www.w3.org/2000/svg">
<path d="M8.50485 16.9537C7.11942 16.9442 5.80965 16.6281 4.58026 15.9865C4.44313 15.9157 4.32965 15.9063 4.18307 15.9488C3.05771 16.2743 1.93234 16.5951 0.802251 16.9159C0.423977 17.0244 0.0977163 16.8688 0.02679 16.5243C0.00314794 16.4017 0.02679 16.2554 0.059889 16.128C0.376693 15.0005 0.698226 13.8776 1.02449 12.7547C1.05759 12.6321 1.04813 12.5377 0.986659 12.4245C-1.61397 7.54614 1.16161 1.47418 6.55674 0.223927C11.2662 -0.865913 15.9001 2.12997 16.8411 6.87148C17.73 11.3394 14.7984 15.7931 10.3442 16.7414C9.74369 16.8688 9.12427 16.9159 8.50958 17.0009C8.50958 16.9867 8.50485 16.9678 8.50485 16.9537ZM1.40276 15.5572C1.48314 15.5383 1.53043 15.5289 1.57298 15.5194C2.4241 15.2788 3.27521 15.0476 4.1216 14.7929C4.41476 14.7032 4.66064 14.741 4.92543 14.8872C6.51891 15.7742 8.21641 16.0431 9.99903 15.6751C14.0135 14.8448 16.5573 10.9289 15.692 6.92809C14.7795 2.71027 10.4009 0.181466 6.28722 1.48833C3.28467 2.44607 1.25618 5.12585 1.15688 8.31044C1.11433 9.65505 1.44059 10.9242 2.1073 12.0942C2.24442 12.3348 2.27279 12.5566 2.19241 12.8161C2.08365 13.1558 1.98908 13.5049 1.88979 13.8493C1.72902 14.406 1.57298 14.9627 1.40276 15.5572Z" fill="#7166F0"/>
<path d="M8.47806 6.21871C7.36216 6.21871 6.24625 6.21871 5.13507 6.21871C4.70478 6.21871 4.42108 5.83184 4.57239 5.45441C4.66223 5.23267 4.83245 5.11 5.0736 5.09585C5.14926 5.09113 5.22491 5.09585 5.30529 5.09585C7.46618 5.09585 9.62234 5.09585 11.7832 5.09585C11.8589 5.09585 11.9393 5.09113 12.0102 5.11C12.2939 5.16662 12.4878 5.43554 12.4594 5.71861C12.431 6.00169 12.1946 6.22343 11.8967 6.22343C11.126 6.22815 10.3505 6.22343 9.57978 6.22343C9.21097 6.21871 8.84688 6.21871 8.47806 6.21871Z" fill="#7166F0"/>
<path d="M8.49268 9.04374C7.37204 9.04374 6.25141 9.04374 5.13077 9.04374C4.70049 9.04374 4.42151 8.65216 4.57282 8.27C4.65793 8.05298 4.86125 7.91616 5.11186 7.91616C5.44285 7.91144 5.77384 7.91616 6.10483 7.91616C8.01511 7.91616 9.92539 7.91616 11.8357 7.91616C12.2849 7.91616 12.5686 8.29359 12.422 8.68046C12.3369 8.91164 12.1288 9.04374 11.8499 9.04374C10.734 9.04374 9.61332 9.04374 8.49268 9.04374Z" fill="#7166F0"/>
<path d="M8.5004 10.7383C9.62104 10.7383 10.7417 10.7383 11.8623 10.7383C12.302 10.7383 12.5858 11.1393 12.4203 11.5215C12.3162 11.7621 12.1176 11.8706 11.8576 11.8706C10.8788 11.8706 9.90001 11.8706 8.92123 11.8706C7.66347 11.8706 6.41044 11.8706 5.15268 11.8706C4.70821 11.8706 4.42923 11.479 4.58054 11.0968C4.67038 10.8704 4.8737 10.743 5.15741 10.743C6.27331 10.7383 7.38449 10.7383 8.5004 10.7383Z" fill="#7166F0"/>
</svg>
