<svg width="28" height="26" viewBox="0 0 28 26" fill="none" xmlns="http://www.w3.org/2000/svg">
<path d="M11.9516 5.80432H8.06427C7.71103 5.80432 7.42383 6.09161 7.42383 6.44496V12.7967C7.42383 13.1499 7.71103 13.4373 8.06427 13.4373H11.9516C12.3048 13.4373 12.592 13.1499 12.592 12.7967V6.44496C12.592 6.09161 12.3048 5.80432 11.9516 5.80432ZM9.62356 12.6686H8.19236V11.0966H9.62356V12.6686ZM9.62356 10.3278H8.19236V8.91363H9.62356V10.3278ZM9.62356 8.14486H8.19236V6.57309H9.62356V8.14486ZM11.8235 12.6686H10.3921V11.0966H11.8235V12.6686ZM11.8235 10.3278H10.3921V8.91363H11.8235V10.3278ZM11.8235 8.14486H10.3921V6.57309H11.8235V8.14486Z" fill="white"/>
<path d="M17.1241 21.2294C16.9044 21.2294 16.7266 21.3993 16.7266 21.6088V22.5197C16.7266 22.7292 16.9044 22.8991 17.1241 22.8991C17.3438 22.8991 17.5217 22.7292 17.5217 22.5197V21.6088C17.5217 21.3993 17.3438 21.2294 17.1241 21.2294Z" fill="white"/>
<path d="M27.3783 17.3058C27.3604 17.17 27.2909 17.0489 27.1827 16.9651L18.9905 10.6246C18.8088 10.4842 18.5917 10.4098 18.3625 10.4098C18.1331 10.4098 17.916 10.4842 17.7342 10.6248L16.4952 11.5837V10.4729C16.4952 10.2591 16.3222 10.0861 16.1085 10.0861C15.8948 10.0861 15.7218 10.2591 15.7218 10.4729V12.1823L9.54253 16.9649C9.43498 17.0479 9.36349 17.173 9.34657 17.3074C9.32905 17.4434 9.3655 17.5784 9.44908 17.6874L10.076 18.5031C10.1745 18.6306 10.3231 18.7037 10.4841 18.7037C10.5972 18.7037 10.709 18.6657 10.7988 18.5962L18.3625 12.7421L24.0796 17.167V25.2262H20.9652V24.5009C20.9652 24.2872 20.7922 24.1141 20.5785 24.1141C20.3648 24.1141 20.1918 24.2872 20.1918 24.5009V25.2262H16.5326V19.3005H20.1918V22.683C20.1918 22.8967 20.3648 23.0698 20.5785 23.0698C20.7922 23.0698 20.9652 22.8967 20.9652 22.683V19.1715C20.9652 18.8161 20.676 18.5268 20.3207 18.5268H16.4039C16.0485 18.5268 15.7593 18.8161 15.7593 19.1715V25.2262H12.8209V24.1711C12.8209 23.8156 12.5319 23.5265 12.1764 23.5265H11.8062C11.8371 23.3726 11.8538 23.2136 11.8538 23.0508C11.8538 21.7121 10.7648 20.623 9.42653 20.623C8.70008 20.623 8.02037 20.9565 7.56581 21.4972C7.39382 21.4428 7.21095 21.4132 7.02123 21.4132C6.88187 21.4132 6.74492 21.4287 6.61179 21.4597C6.19067 20.7381 5.40481 20.2739 4.55532 20.2739C4.46489 20.2739 4.37547 20.2795 4.28726 20.2898V7.342L10.0045 2.91674L15.722 7.342V8.66761C15.722 8.88136 15.895 9.05441 16.1087 9.05441C16.3222 9.05441 16.4954 8.88136 16.4954 8.66761V7.94054L17.5684 8.77096C17.6581 8.84046 17.7698 8.87854 17.883 8.87854C18.0443 8.87854 18.1932 8.8052 18.2912 8.67748C18.2927 8.67567 18.2941 8.67365 18.2955 8.67184L18.896 7.86036L18.8999 7.85552C18.9395 7.80576 19.0449 7.67381 19.0203 7.48061C19.0024 7.34422 18.9327 7.22314 18.8247 7.13994L10.6327 0.799393C10.451 0.658975 10.2339 0.584636 10.0045 0.584636C9.77514 0.584636 9.55804 0.658975 9.37618 0.799594L7.12697 2.54041V2.05288C7.43108 2.0013 7.66349 1.73658 7.66349 1.41808V0.644671C7.66349 0.289095 7.37428 0 7.01902 0H3.88547C3.53021 0 3.241 0.289095 3.241 0.644671V1.41787C3.241 1.73658 3.47341 2.0011 3.77752 2.05288V5.13279L1.18513 7.13933C1.07718 7.22233 1.00569 7.34764 0.988769 7.48161C0.971046 7.6178 1.0073 7.75278 1.09108 7.86197L1.71803 8.67768C1.81631 8.80541 1.96494 8.87854 2.12606 8.87854C2.23925 8.87854 2.35082 8.84046 2.44105 8.77096L3.51389 7.94054V20.5173C2.90003 20.8195 2.42735 21.3795 2.25173 22.0627C1.66869 22.2875 1.26811 22.854 1.26811 23.4971C1.26811 23.568 1.27314 23.6377 1.28241 23.7062C1.15976 23.8236 1.08322 23.9884 1.08322 24.1711V25.3553C1.08322 25.7107 1.37223 26 1.7277 26H25.9738C26.1874 26 26.3604 25.8267 26.3604 25.6132C26.3604 25.3994 26.1874 25.2264 25.9738 25.2264H24.853V17.7655L25.9262 18.5962C26.0159 18.6655 26.1276 18.7037 26.2408 18.7037C26.4021 18.7037 26.551 18.6304 26.649 18.5025C26.6505 18.5007 26.6519 18.4988 26.6533 18.497L27.254 17.6854L27.2581 17.6803C27.2975 17.6308 27.4027 17.4988 27.3783 17.3058ZM9.42653 21.3966C10.3385 21.3966 11.0804 22.1388 11.0804 23.0508C11.0804 23.2162 11.0554 23.3758 11.0101 23.5265H8.80441C8.82112 23.4282 8.83039 23.327 8.83039 23.2239C8.83039 22.6991 8.60583 22.2261 8.24835 21.8949C8.55407 21.5844 8.97701 21.3966 9.42653 21.3966ZM4.01437 0.773606H6.89012V1.28894H4.01437V0.773606ZM6.3536 2.06255V3.13895L4.55089 4.53426V2.06255H6.3536ZM2.17299 8.00037L1.86102 7.59443L9.84926 1.41143C9.89498 1.37617 9.94714 1.35824 10.0045 1.35824C10.0619 1.35824 10.1141 1.37617 10.1596 1.41123L18.137 7.58577L17.8325 7.99735L10.2412 2.12177C10.1018 2.01399 9.90726 2.01399 9.76789 2.12177L2.17299 8.00037ZM12.0475 25.2264H1.85659V24.3001H5.41851C5.63199 24.3001 5.80519 24.127 5.80519 23.9133C5.80519 23.6995 5.63199 23.5265 5.41851 23.5265H2.04248C2.04208 23.5166 2.04147 23.5069 2.04147 23.4971C2.04147 23.1322 2.30067 22.8169 2.65815 22.7476C2.81988 22.7162 2.94394 22.5859 2.9673 22.4229C3.08008 21.639 3.76282 21.0477 4.55532 21.0477C5.21349 21.0477 5.81526 21.4609 6.05271 22.0758C6.09138 22.1761 6.16992 22.2557 6.26982 22.2958C6.36971 22.3356 6.48149 22.332 6.57876 22.2861C6.71773 22.2204 6.86676 22.187 7.02123 22.187C7.5924 22.187 8.05702 22.6521 8.05702 23.2241C8.05702 23.3294 8.04051 23.4308 8.0111 23.5265H7.27459C7.06091 23.5265 6.88791 23.6997 6.88791 23.9133C6.88791 24.127 7.06091 24.3001 7.27459 24.3001H12.0475V25.2264ZM26.1905 17.8225L18.5992 11.9472C18.4598 11.8392 18.2653 11.8392 18.1259 11.9472L10.5308 17.8256L10.2188 17.4196L18.2073 11.2368C18.253 11.2014 18.3051 11.1834 18.3625 11.1834C18.4197 11.1834 18.4721 11.2014 18.5176 11.2366L26.495 17.411L26.1905 17.8225Z" fill="white"/>
</svg>
