<svg width="30" height="24" viewBox="0 0 30 24" fill="none" xmlns="http://www.w3.org/2000/svg">
<path d="M9.93689 3.57481C10.2612 2.80574 10.6365 2.12007 11.2017 1.54906C13.7984 -1.06969 18.1754 -0.254301 19.6162 3.13699C19.7703 3.49952 19.8351 3.5667 20.178 3.28988C21.4323 2.27527 22.8442 2.07142 24.2943 2.78026C25.7062 3.46941 26.4764 4.63806 26.4926 6.24684C26.4996 6.98 26.488 7.71432 26.4949 8.44748C26.5065 9.66941 26.012 10.6551 25.0923 11.4311C24.8479 11.6372 24.695 11.8446 24.7599 12.1689C24.8259 12.5036 25.1317 12.4723 25.3564 12.5302C26.1023 12.7225 26.8772 12.8175 27.5628 13.2008C28.9596 13.9803 29.7067 15.1652 29.7322 16.7717C29.7519 17.9878 29.7403 19.2039 29.7345 20.4201C29.731 21.166 29.5642 21.3281 28.8044 21.3316C27.5883 21.3362 26.3722 21.349 25.1572 21.3247C24.695 21.3154 24.4993 21.437 24.5155 21.9374C24.5746 23.7929 24.5109 23.6527 22.7654 23.6504C21.0281 23.6481 19.2908 23.6492 17.5546 23.6492C17.3021 23.6492 17.0461 23.655 16.8562 23.4465C16.6847 23.2566 16.6465 23.0331 16.738 22.8003C16.8411 22.5396 17.0554 22.418 17.3299 22.4157C18.0445 22.4099 18.7591 22.3868 19.4714 22.4169C19.9394 22.4366 20.083 22.2501 20.0621 21.8076C20.0355 21.2494 20.0517 20.6888 20.0598 20.1282C20.0668 19.6788 20.2069 19.2954 20.7362 19.3047C21.2308 19.314 21.3675 19.6846 21.3744 20.1085C21.3848 20.7062 21.3918 21.305 21.3767 21.9038C21.3675 22.2756 21.5134 22.4041 21.8875 22.4157C23.2496 22.4574 23.2461 22.4702 23.216 21.0907C23.2067 20.6668 23.2229 20.2417 23.2125 19.8178C23.1662 17.8002 21.9686 16.2852 20.0216 15.7906C19.3116 15.61 18.5854 15.486 17.887 15.2706C17.3681 15.1108 17.1642 15.3077 16.9801 15.7559C16.5492 16.8087 16.0744 17.8442 15.6157 18.8866C15.4663 19.2248 15.3308 19.585 14.8686 19.585C14.4053 19.5862 14.2698 19.226 14.1216 18.8878C13.6479 17.8106 13.1649 16.7369 12.7109 15.6517C12.5475 15.2613 12.3379 15.1224 11.9117 15.2451C11.2272 15.4432 10.5276 15.5903 9.83381 15.7617C7.81039 16.262 6.58382 17.7156 6.468 19.7946C6.42862 20.507 6.46916 21.2227 6.45294 21.9362C6.44483 22.2872 6.58614 22.4157 6.93245 22.4099C8.63736 22.3821 8.32464 22.6149 8.35823 21.0838C8.36402 20.7942 8.35823 20.5046 8.36054 20.2151C8.36518 19.7599 8.44278 19.314 9.01031 19.3047C9.57668 19.2954 9.67861 19.7298 9.68092 20.1919C9.6844 20.771 9.69251 21.3501 9.68092 21.9293C9.67397 22.2721 9.80833 22.418 10.1593 22.4099C10.7963 22.396 11.4333 22.4065 12.0704 22.4099C12.4943 22.4122 12.8035 22.5825 12.7977 23.0446C12.7919 23.472 12.4966 23.6458 12.097 23.6469C10.0319 23.6492 7.96675 23.6504 5.90162 23.6446C5.45802 23.6434 5.22753 23.3991 5.21943 22.9566C5.21248 22.5895 5.1951 22.2223 5.21943 21.8563C5.24607 21.4416 5.06422 21.3235 4.67274 21.3281C3.43807 21.3444 2.20224 21.3363 0.966409 21.3328C0.166073 21.3305 0.0073957 21.1764 0.00392101 20.3946C-0.000711902 19.1982 -0.00187013 18.0017 0.00392101 16.8041C0.0143451 14.9498 1.16331 13.4151 2.94814 12.887C3.46471 12.7341 3.99749 12.6333 4.51986 12.4955C5.04801 12.3565 5.20553 11.9013 4.7932 11.5759C3.53305 10.5798 3.1323 9.26634 3.2377 7.72822C3.26897 7.26724 3.24465 6.80163 3.24349 6.33834C3.23654 4.68207 4.00444 3.47172 5.46845 2.77215C6.96951 2.05521 8.39761 2.30886 9.67629 3.37559C9.74579 3.43118 9.82107 3.48562 9.93689 3.57481ZM18.7649 7.50931C18.9607 6.86186 18.59 6.40899 17.9044 6.11133C17.6055 5.98161 17.3229 5.8044 17.0554 5.61676C16.694 5.36195 16.3963 5.32373 16.0419 5.66425C15.7836 5.91211 15.4396 6.07774 15.1211 6.25611C14.0185 6.87692 12.8024 6.92325 11.5827 6.91398C11.1438 6.9105 10.926 7.04833 10.9747 7.51278C11.0129 7.87647 11.0175 8.24363 11.0581 8.60615C11.3233 10.9643 13.6131 12.5129 15.896 11.8839C17.7318 11.3801 18.7638 9.85472 18.7649 7.50931ZM28.494 18.2473C28.4929 18.2473 28.4917 18.2473 28.4917 18.2473C28.4917 17.8233 28.5068 17.3983 28.4894 16.9744C28.4222 15.3795 27.652 14.432 26.115 14.0394C25.7421 13.9444 25.3564 13.8865 24.9927 13.7649C24.6267 13.6421 24.4634 13.7869 24.3383 14.1077C24.0928 14.7355 23.8438 15.3644 23.5588 15.9748C23.4106 16.291 23.4187 16.5261 23.6237 16.8192C24.1287 17.543 24.4113 18.3631 24.5063 19.2399C24.5978 20.0877 24.5885 20.0564 25.4317 20.0993C26.0027 20.1282 26.2459 19.9765 26.1903 19.3661C26.1394 18.8113 26.1799 18.2484 26.1822 17.689C26.1834 17.2697 26.3409 16.95 26.8053 16.9524C27.271 16.9547 27.4204 17.279 27.4204 17.6971C27.4215 18.2183 27.4053 18.7395 27.4273 19.2584C27.4424 19.6174 27.2327 20.0935 27.9439 20.1016C28.6898 20.1097 28.4686 19.6093 28.4917 19.2306C28.5103 18.904 28.494 18.575 28.494 18.2473ZM1.24554 18.1731C1.24554 18.7175 1.26176 19.1611 1.24091 19.6035C1.22122 19.9962 1.40654 20.0923 1.76327 20.0958C2.13854 20.0981 2.34123 20.0124 2.32501 19.5827C2.29953 18.948 2.31806 18.311 2.32154 17.6751C2.32385 17.2523 2.49527 16.9442 2.95856 16.9535C3.38711 16.9616 3.55273 17.257 3.55737 17.6542C3.562 18.0978 3.55505 18.5414 3.562 18.9839C3.58285 20.1942 3.33499 20.0773 4.73297 20.0912C5.07349 20.0946 5.22522 19.9765 5.21827 19.6221C5.19626 18.5611 5.57732 17.6218 6.14717 16.7531C6.28963 16.5365 6.33248 16.3489 6.23056 16.1103C5.93521 15.42 5.64566 14.7262 5.36073 14.0313C5.25881 13.7834 5.12561 13.6607 4.83142 13.7464C4.25925 13.9132 3.66508 14.0139 3.10334 14.2097C2.11074 14.556 1.54437 15.2868 1.33473 16.3142C1.20153 16.9651 1.26523 17.6207 1.24554 18.1731ZM18.7719 5.11988C18.7232 4.82801 18.6989 4.6786 18.6746 4.52919C18.3514 2.53356 16.5388 1.11704 14.5339 1.29541C12.5568 1.47146 10.9758 3.21923 10.9851 5.20791C10.9862 5.46619 11.065 5.59823 11.343 5.61213C13.012 5.69321 14.586 5.49052 15.7906 4.15855C16.116 3.79834 16.4728 3.7775 16.877 4.01841C17.4689 4.36935 18.0677 4.71103 18.7719 5.11988ZM9.72957 7.84983C9.72957 7.62166 9.72146 7.44792 9.73073 7.27535C9.7481 6.96031 9.62765 6.90935 9.35199 7.03444C8.04087 7.62745 6.64057 7.712 5.23101 7.73401C4.48048 7.74559 4.40635 7.82898 4.52333 8.58415C4.5407 8.69765 4.56271 8.81116 4.58356 8.92582C4.79667 10.0945 5.77654 10.9388 7.01352 11.0234C8.11847 11.0987 9.28713 10.2682 9.58132 9.16789C9.70061 8.72198 9.76316 8.261 9.72957 7.84983ZM22.6473 11.0292C23.9943 11.013 25.0101 10.0354 25.2232 8.5494C25.3263 7.83361 25.2475 7.75022 24.5306 7.73285C23.3967 7.70621 22.2674 7.65756 21.1636 7.33094C20.7953 7.22207 20.3332 6.79121 20.0865 7.06802C19.8722 7.30778 19.9938 7.87531 20.0181 8.29459C20.1096 9.90453 21.218 11.0465 22.6473 11.0292ZM5.64681 6.42405C6.83284 6.42984 7.97833 6.25495 9.0717 5.75807C9.53036 5.54959 9.56742 5.3052 9.3045 4.9114C8.72886 4.04852 7.92852 3.64314 6.90233 3.71843C5.919 3.79024 5.19742 4.28827 4.77583 5.17664C4.272 6.23989 4.39477 6.42521 5.53215 6.42521C5.56921 6.42405 5.60743 6.42405 5.64681 6.42405ZM24.014 6.42173C24.3024 6.42173 24.5908 6.41826 24.8804 6.42289C25.1607 6.42752 25.2325 6.30475 25.2047 6.02562C25.0912 4.92298 24.2839 3.99177 23.2032 3.75549C22.1064 3.51458 20.991 4.00219 20.4154 4.94151C20.1791 5.32721 20.2278 5.55306 20.6517 5.7488C21.7207 6.24336 22.8477 6.41942 24.014 6.42173ZM13.495 13.8448C13.6606 14.9683 14.271 15.9424 14.7169 16.9744C14.8675 17.323 15.0111 17.0253 15.0841 16.8643C15.347 16.2875 15.5948 15.7038 15.852 15.1258C16.0466 14.688 16.2527 14.2641 16.2423 13.7568C16.233 13.3294 16.1114 13.1476 15.662 13.2541C15.1709 13.3699 14.6602 13.3862 14.1749 13.2669C13.6444 13.1348 13.3884 13.2298 13.495 13.8448ZM9.22922 12.0195C9.19331 12.3495 9.41685 12.4295 9.68208 12.492C10.3909 12.66 11.1102 12.7966 11.7901 13.0711C11.8943 13.1128 12.009 13.2055 12.1097 13.1221C12.2256 13.026 12.1734 12.8708 12.1653 12.7399C12.1526 12.5163 11.9696 12.4214 11.8179 12.3079C11.4461 12.031 11.1137 11.716 10.8299 11.3465C10.3527 10.7257 10.3446 10.7246 9.77822 11.2631C9.55236 11.4786 9.18984 11.6013 9.22922 12.0195ZM20.5104 12.0137C20.5104 11.987 20.5115 11.9673 20.5104 11.9488C20.5011 11.8353 19.5849 10.7917 19.4761 10.7662C19.3892 10.7454 19.3232 10.7801 19.2803 10.8496C18.8599 11.5307 18.2831 12.0588 17.6576 12.5464C17.5013 12.6692 17.5268 12.9055 17.5986 13.0885C17.6449 13.2055 17.7665 13.1545 17.8511 13.1163C18.5773 12.7932 19.3579 12.6657 20.1212 12.477C20.383 12.4121 20.5358 12.2916 20.5104 12.0137ZM7.13398 14.776C7.3413 14.2873 7.52546 13.8923 7.6795 13.4869C8.10458 12.3634 7.98296 12.2291 6.90928 12.2893C6.34754 12.3206 6.20276 12.4492 6.3626 12.9924C6.53286 13.5761 6.76682 14.1425 7.13398 14.776ZM22.638 14.8015C22.8535 14.3 23.0226 13.9189 23.1812 13.5333C23.6457 12.4086 23.5472 12.2824 22.3647 12.2835C21.891 12.2835 21.7728 12.5024 21.8632 12.887C22.0103 13.5217 22.2987 14.1008 22.638 14.8015ZM18.9317 14.0962C18.9363 14.1251 18.941 14.1541 18.9468 14.183C19.6579 14.3602 20.3679 14.5374 21.115 14.7228C20.7964 13.6398 20.7964 13.6398 19.8189 13.8796C19.5224 13.9525 19.2271 14.0243 18.9317 14.0962ZM10.7106 14.1946C10.7164 14.1564 10.721 14.1193 10.7268 14.0811C10.3434 13.985 9.94963 13.9213 9.58016 13.7858C9.12498 13.619 8.89217 13.7846 8.78098 14.212C8.73928 14.3695 8.59335 14.505 8.67674 14.7147C9.35546 14.5409 10.033 14.3672 10.7106 14.1946Z" fill="white"/>
<path d="M14.8733 10.7858C14.4471 10.809 14.0753 10.6689 13.7637 10.3874C13.51 10.1581 13.4104 9.86852 13.6097 9.56159C13.8135 9.24771 14.1216 9.13305 14.454 9.34384C14.7412 9.52569 14.9833 9.48746 15.2578 9.33458C15.5717 9.15969 15.8694 9.22686 16.0686 9.51989C16.2852 9.83841 16.196 10.1465 15.925 10.3967C15.6308 10.67 15.2787 10.8055 14.8733 10.7858Z" fill="white"/>
<path d="M17.4323 7.94466C17.364 8.30834 17.1567 8.55505 16.7802 8.54694C16.4003 8.53883 16.1768 8.27823 16.1838 7.9076C16.1907 7.53117 16.4362 7.29605 16.8161 7.31111C17.1891 7.32616 17.3976 7.5636 17.4323 7.94466Z" fill="white"/>
<path d="M13.5326 7.98764C13.4793 8.35364 13.2488 8.56676 12.877 8.53896C12.504 8.51116 12.2851 8.25751 12.3153 7.87877C12.3454 7.50003 12.6071 7.29039 12.9754 7.31123C13.3553 7.33324 13.5407 7.58573 13.5326 7.98764Z" fill="white"/>
</svg>
