<svg width="32" height="35" viewBox="0 0 32 35" fill="none" xmlns="http://www.w3.org/2000/svg">
<path d="M17.9152 20.7235C18.26 20.7235 18.5087 20.7235 18.7618 20.7235C20.9307 20.7235 23.0996 20.7192 25.2684 20.7235C27.6512 20.7321 28.716 22.5066 27.5901 24.5476C27.5115 24.6851 27.5202 24.93 27.5901 25.0761C28.0526 26.0342 27.961 26.9108 27.3239 27.7658C27.2104 27.9205 27.1755 28.217 27.2409 28.406C27.5639 29.347 27.4373 30.1806 26.8089 30.9669C26.678 31.1302 26.6256 31.4524 26.6867 31.6587C27.1886 33.3215 26.1063 34.8425 24.3346 34.8511C20.2281 34.8683 16.1216 34.8597 12.0152 34.8554C10.994 34.8554 10.9155 34.7609 10.9155 33.777C10.9155 29.2095 10.9067 24.6421 10.9329 20.079C10.9373 19.6923 11.0944 19.2325 11.3344 18.9274C12.8705 17.0154 13.8742 14.8885 14.2451 12.4738C14.4983 10.8195 15.502 10.3769 16.9421 11.2836C18.3123 12.1472 18.8142 13.4749 18.9102 14.9916C19.0193 16.6717 18.6309 18.2829 18.1596 19.8813C18.0941 20.1219 18.0243 20.3583 17.9152 20.7235Z" fill="#7166F0"/>
<path d="M9.25694 27.4984C9.25694 29.4964 9.25694 31.4943 9.25694 33.4923C9.25694 34.3474 8.85982 34.8329 8.00012 34.8458C6.0189 34.8802 4.03331 34.8845 2.05208 34.8458C1.10074 34.8286 0.520338 34.0853 0.520338 33.0154C0.515974 29.5866 0.520338 26.1578 0.520338 22.729C0.520338 22.4111 0.507246 22.0931 0.524702 21.7751C0.572705 20.7998 1.2142 20.1467 2.19173 20.1381C4.08131 20.1209 5.97089 20.1166 7.86048 20.1381C8.84237 20.1467 9.25694 20.6021 9.25694 21.5689C9.25694 23.5454 9.25694 25.5219 9.25694 27.4984ZM3.7191 23.9536C4.48716 23.9622 4.90173 23.6786 4.90173 23.1415C4.90173 22.6259 4.49152 22.3251 3.78893 22.3208C3.07324 22.3165 2.66739 22.5958 2.64558 23.1071C2.61939 23.6313 3.02087 23.945 3.7191 23.9536Z" fill="#7166F0"/>
<path d="M11.6973 9.53033C11.8326 8.87723 11.9461 8.11241 12.1512 7.36907C12.2821 6.89643 12.1337 6.61285 11.7803 6.32497C11.2479 5.891 10.7155 5.44414 10.266 4.93283C10.0434 4.68362 9.84267 4.21097 9.93868 3.94887C10.039 3.68248 10.4929 3.45475 10.8289 3.38171C11.501 3.23562 12.1948 3.16687 12.8843 3.13679C13.3469 3.11531 13.5782 2.93914 13.744 2.52666C14.0146 1.85207 14.307 1.18178 14.6692 0.554456C14.8176 0.296652 15.1754 -0.00841595 15.4285 0.000177517C15.7165 0.0130677 16.1006 0.288059 16.2577 0.554456C16.646 1.22045 16.9035 1.95949 17.2701 2.63837C17.3836 2.84461 17.6716 3.04226 17.9116 3.08523C18.636 3.21843 19.3822 3.22702 20.0979 3.38171C20.4339 3.45475 20.8878 3.68677 20.9882 3.95317C21.0842 4.21527 20.8834 4.68791 20.6609 4.93712C20.1939 5.46132 19.6397 5.92107 19.0942 6.37223C18.7756 6.63433 18.6578 6.88354 18.7669 7.30462C18.9546 8.00499 19.1117 8.71825 19.1859 9.4401C19.2164 9.75376 19.1073 10.2479 18.8891 10.3811C18.6316 10.5358 18.1429 10.4885 17.833 10.351C17.1435 10.0459 16.5108 9.61197 15.83 9.28112C15.6292 9.18229 15.2932 9.18659 15.0925 9.28542C14.3724 9.63775 13.6917 10.0674 12.976 10.4369C12.2603 10.7979 11.6537 10.4112 11.6973 9.53033Z" fill="#7166F0"/>
<path d="M1.40436 11.7772C1.55274 11.0167 1.70111 10.4194 1.7753 9.81361C1.80148 9.59018 1.70984 9.28941 1.5571 9.12613C1.19053 8.72224 0.710498 8.41288 0.361383 8.00039C0.151914 7.75118 -0.0619187 7.3301 0.0166322 7.068C0.0908191 6.81019 0.535941 6.47505 0.806505 6.48794C2.46044 6.55669 3.44232 5.84773 3.86562 4.27082C3.93108 4.02591 4.37184 3.71225 4.62058 3.72944C4.91297 3.74233 5.36682 4.0388 5.43228 4.29661C5.83812 5.86491 6.82001 6.53091 8.44339 6.47505C8.72705 6.46645 9.1809 6.81879 9.2769 7.09378C9.35982 7.33439 9.14162 7.84571 8.90161 8.00039C7.57497 8.85114 7.23458 9.93821 7.7888 11.3905C7.89354 11.6612 7.71898 12.2198 7.48333 12.3831C7.25204 12.5463 6.66291 12.5206 6.43598 12.3358C5.19662 11.3389 4.04891 11.3991 2.82264 12.353C2.59572 12.5291 2.10696 12.5248 1.81457 12.4131C1.59201 12.3229 1.49601 11.9319 1.40436 11.7772Z" fill="#7166F0"/>
<path d="M31.002 7.40751C30.906 7.54501 30.7969 7.85867 30.5787 7.99617C29.2739 8.82544 28.8287 9.88243 29.4222 11.3562C29.5313 11.6312 29.3829 12.2156 29.156 12.3574C28.8898 12.5249 28.292 12.5077 28.0476 12.3144C26.8562 11.3691 25.7522 11.3734 24.5521 12.2972C24.299 12.4948 23.7447 12.5163 23.4262 12.3874C22.9461 12.1898 22.9811 11.6613 23.1513 11.2488C23.7098 9.89962 23.3564 8.89418 22.1301 8.09069C21.8508 7.90594 21.6282 7.4204 21.637 7.08096C21.6501 6.56965 22.165 6.39349 22.6189 6.43216C24.2117 6.56965 25.0408 5.79194 25.4685 4.35683C25.5514 4.07325 26.0053 3.7467 26.3064 3.72521C26.5595 3.70803 27.0133 4.06036 27.0875 4.32676C27.5065 5.8478 28.4491 6.55247 30.055 6.44934C30.5612 6.41927 30.9321 6.69426 31.002 7.40751Z" fill="#7166F0"/>
</svg>
