<svg width="31" height="34" viewBox="0 0 31 34" fill="none" xmlns="http://www.w3.org/2000/svg">
<path d="M10.9887 20.6744C7.53282 22.4642 6.68048 23.3311 5.2138 26.561C4.2245 25.6156 3.25381 24.6888 2.25386 23.7327C2.83628 22.7846 3.40141 21.8645 3.9652 20.943C4.35215 20.3087 3.88143 19.1319 3.16605 18.9537C2.11557 18.6931 1.06377 18.4418 0 18.1825C0 16.1547 0 14.1628 0 12.0937C1.03319 11.8451 2.07967 11.5978 3.1235 11.3411C3.88941 11.1523 4.36545 9.98747 3.9559 9.31597C3.40273 8.41043 2.84559 7.50623 2.31104 6.63527C3.76309 5.18189 5.18455 3.76176 6.64457 2.30306C7.52218 2.8416 8.44368 3.40938 9.36916 3.97318C9.96753 4.33752 11.1523 3.86415 11.3198 3.18998C11.5818 2.13818 11.8318 1.08239 12.0951 0C14.1189 0 16.1268 0 18.1918 0C18.4351 1.01723 18.6798 2.0451 18.9298 3.07164C19.1292 3.88941 20.2741 4.37077 20.9829 3.93595C21.8871 3.38146 22.7886 2.82697 23.6463 2.3004C25.097 3.75112 26.5052 5.15929 27.9758 6.63128C27.4546 7.48362 26.8908 8.40112 26.3296 9.32129C25.9214 9.99013 26.4028 11.1483 27.1714 11.3371C28.2005 11.5898 29.2337 11.8331 30.2829 12.0858C30.2829 14.1269 30.2829 16.1387 30.2829 18.1918C29.3069 18.4232 28.3388 18.6506 27.3721 18.8806C26.319 19.1319 25.8696 20.2023 26.4307 21.1158C26.9506 21.9629 27.4692 22.8112 28.0091 23.6902C27.0849 24.6795 26.186 25.6409 25.2247 26.6687C24.1582 23.7487 22.2408 21.786 19.4218 20.7036C23.0559 17.4219 22.27 12.861 19.8061 10.5553C17.1573 8.07535 13.0099 8.14449 10.4462 10.7268C8.02349 13.1681 7.53548 17.5961 10.9887 20.6744Z" fill="#7166F0"/>
<path d="M23.6335 34C17.9942 34 12.4347 34 6.77545 34C6.77545 33.6211 6.77013 33.2541 6.77678 32.8871C6.80205 31.4483 6.70897 29.9936 6.88449 28.5721C7.3326 24.9633 10.238 22.3464 13.8788 22.2307C15.2431 22.1869 16.6486 22.1802 17.9756 22.4501C21.1603 23.099 23.4341 25.825 23.6176 29.0894C23.708 30.6984 23.6335 32.3166 23.6335 34Z" fill="#7166F0"/>
<path d="M15.1832 20.1026C12.589 20.0866 10.4867 17.9577 10.5239 15.3874C10.5625 12.7998 12.6927 10.7188 15.271 10.7494C17.8161 10.7786 19.9064 12.8995 19.8971 15.4432C19.8891 18.0295 17.7748 20.1185 15.1832 20.1026Z" fill="#7166F0"/>
</svg>
