<svg width="35" height="35" viewBox="0 0 35 35" fill="none" xmlns="http://www.w3.org/2000/svg">
<path d="M32.1769 10.8048L20.8979 0.452548C20.5274 0.156204 20.0849 0 19.6182 0C19.1517 0 18.7081 0.156204 18.3376 0.452548L7.0598 10.7739C6.17589 11.4798 6.02933 12.769 6.73932 13.6555C7.44296 14.5367 8.73382 14.6868 9.621 13.976L19.6182 4.74841L29.6176 14.0079C30.443 14.6726 31.8264 14.5292 32.4973 13.6855C33.2063 12.8027 33.0617 11.5114 32.1769 10.8048Z" fill="#7166F0"/>
<path d="M29.8727 0.00195312H25.7714C25.2047 0.00195312 24.7461 0.460517 24.7461 1.0273V1.18904L30.898 6.86312V1.0273C30.8981 0.460517 30.4395 0.00195312 29.8727 0.00195312Z" fill="#7166F0"/>
<path d="M3.21268 16.4766H1.02534C0.458633 16.4766 0 16.9351 0 17.5019V33.9754C0 34.5421 0.458564 35.0008 1.02534 35.0008H3.21268C4.90885 35.0008 6.28865 33.621 6.28865 31.9248V19.5525C6.28865 17.8564 4.90892 16.4766 3.21268 16.4766Z" fill="#7166F0"/>
<path d="M34.1575 18.9169C33.3167 18.3017 32.1479 18.4247 31.4507 19.1835L25.9139 26.0736C25.5242 26.4837 24.786 26.7298 24.3964 26.7298H15.517C14.9428 26.7298 14.4917 26.2788 14.4917 25.7045C14.4917 25.1302 14.9427 24.6791 15.517 24.6791C20.1105 24.6791 18.6135 24.6791 23.7197 24.6791C24.8475 24.6791 25.7703 23.7563 25.7703 22.6285C25.7703 21.5006 24.8475 20.5779 23.7197 20.5779C18.9043 20.5779 23.4975 20.5779 18.347 20.5779C17.836 20.5779 17.5811 20.2538 17.1781 19.9011C16.5629 19.3475 15.8657 18.9374 15.148 18.6503C12.9258 17.7428 10.3581 18.0174 8.33984 19.421C8.33984 23.1545 8.33984 28.7176 8.33984 32.9501H23.7197C25.6474 32.9501 27.493 32.0273 28.6414 30.4893L34.5882 21.8082C35.2648 20.906 35.0803 19.5936 34.1575 18.9169Z" fill="#7166F0"/>
<path d="M19.6165 7.54102L10.3906 16.0573V16.3355C11.0675 16.1796 11.7574 16.074 12.4633 16.074C13.6579 16.074 14.8213 16.3023 15.9227 16.7519C16.1399 16.8388 16.3347 16.9617 16.5425 17.0639V15.4512C16.5425 14.8845 17.001 14.4259 17.5678 14.4259H21.6691C22.2358 14.4259 22.6945 14.8845 22.6945 15.4512V18.5272H23.7199C25.365 18.5272 26.7868 19.5005 27.4397 20.9012L28.8465 19.1506V16.0817L19.6165 7.54102Z" fill="#7166F0"/>
<path d="M18.5938 16.4763V18.4156L18.7169 18.527H20.6444V16.4763H18.5938Z" fill="#7166F0"/>
</svg>
