<svg width="32" height="31" viewBox="0 0 32 31" fill="none" xmlns="http://www.w3.org/2000/svg">
<path d="M31.0628 13.3414L16.8879 0.425245C16.2657 -0.141769 15.3275 -0.141707 14.7055 0.425184L0.530549 13.3414C0.0321514 13.7956 -0.13248 14.4953 0.111011 15.1241C0.354564 15.7528 0.947557 16.159 1.62182 16.159H3.8858V29.1C3.8858 29.6131 4.30182 30.0291 4.81491 30.0291H12.5845C13.0976 30.0291 13.5136 29.6131 13.5136 29.1V21.2426H18.08V29.1001C18.08 29.6131 18.496 30.0292 19.0091 30.0292H26.7783C27.2914 30.0292 27.7074 29.6132 27.7074 29.1001V16.159H29.9719C30.6461 16.159 31.2391 15.7527 31.4827 15.1241C31.7259 14.4953 31.5612 13.7956 31.0628 13.3414Z" fill="#7166F0"/>
<path d="M27.4623 1.85425H21.2227L28.3914 8.3726V2.78329C28.3914 2.27021 27.9754 1.85425 27.4623 1.85425Z" fill="#7166F0"/>
</svg>
