<svg width="35" height="35" viewBox="0 0 35 35" fill="none" xmlns="http://www.w3.org/2000/svg">
<path fill-rule="evenodd" clip-rule="evenodd" d="M20.3773 2.93173C22.3394 3.31707 24.1624 4.08933 25.7647 5.16496L28.6378 3.88896L31.111 6.36214L29.8354 9.23426C30.9116 10.8367 31.6836 12.6604 32.069 14.6229L35 15.7511V19.2488L32.0683 20.3774C31.6829 22.3394 30.9107 24.1624 29.835 25.7647L31.111 28.6378L28.6378 31.111L25.7657 29.8354C24.1633 30.9115 22.3394 31.6835 20.3771 32.069L19.2489 35H15.7512L14.6227 32.0683C12.6606 31.6829 10.8376 30.9107 9.23535 29.835L6.36228 31.111L3.88896 28.6378L5.16462 25.7657C4.08844 24.1633 3.31652 22.3394 2.93104 20.377L0 19.2488V15.7511L2.93152 14.6227C3.31687 12.6605 4.08898 10.8371 5.16482 9.23501L3.88896 6.36228L6.36221 3.88903L9.23515 5.16503C10.8375 4.08939 12.6606 3.31714 14.6226 2.9318L15.7512 0H19.2488L20.3773 2.93173ZM12.0806 17.2739L12.7058 16.8197V22.4953C12.7058 23.3067 13.3696 23.9705 14.1809 23.9705H16.0701V19.0218C16.0701 18.6402 16.3824 18.3279 16.764 18.3279H18.236C18.6177 18.3279 18.9299 18.6402 18.9299 19.0218V23.9705H20.8191C21.6305 23.9705 22.2943 23.3067 22.2943 22.4953V16.8197L22.9195 17.2739C23.3808 17.6082 24.0259 17.5052 24.3602 17.0438C24.6945 16.5825 24.5915 15.9374 24.1302 15.6031L18.1233 11.2388C17.7708 10.9715 17.2715 10.9528 16.8947 11.2258L10.87 15.6031C10.4087 15.9374 10.3057 16.5824 10.64 17.0438C10.9742 17.5052 11.6192 17.6082 12.0806 17.2739ZM17.5 7.36135C11.9005 7.36135 7.36135 11.9006 7.36135 17.5C7.36135 23.0994 11.9006 27.6386 17.5 27.6386C23.0994 27.6386 27.6386 23.0994 27.6386 17.5C27.6387 11.9006 23.0994 7.36135 17.5 7.36135Z" fill="#7166F0"/>
</svg>
