<svg width="16" height="16" viewBox="0 0 16 16" fill="none" xmlns="http://www.w3.org/2000/svg">
<path d="M9.8182 12.3637H8.36367V13.8182H9.8182V12.3637Z" fill="#7166F0"/>
<path d="M9.8182 9.81816H8.36367V11.2727H9.8182V9.81816Z" fill="#7166F0"/>
<path d="M7.63637 7.27266H6.18184V8.72719H7.63637V7.27266Z" fill="#7166F0"/>
<path d="M7.63637 9.81816H6.18184V11.2727H7.63637V9.81816Z" fill="#7166F0"/>
<path d="M11.9999 9.81816H10.5454V11.2727H11.9999V9.81816Z" fill="#7166F0"/>
<path d="M14.1818 9.81816H12.7272V11.2727H14.1818V9.81816Z" fill="#7166F0"/>
<path d="M14.1818 7.27266H12.7272V8.72719H14.1818V7.27266Z" fill="#7166F0"/>
<path d="M11.9999 7.27266H10.5454V8.72719H11.9999V7.27266Z" fill="#7166F0"/>
<path d="M9.8182 7.27266H8.36367V8.72719H9.8182V7.27266Z" fill="#7166F0"/>
<path d="M3.2727 9.81816H1.81816V11.2727H3.2727V9.81816Z" fill="#7166F0"/>
<path d="M3.2727 12.3637H1.81816V13.8182H3.2727V12.3637Z" fill="#7166F0"/>
<path d="M14.5455 1.45453H13.0909V0.363625C13.0909 0.162812 12.9281 0 12.7273 0C12.5264 0 12.3637 0.162812 12.3637 0.363625V1.45453H3.63637V0.363625C3.63637 0.162812 3.47356 0 3.27272 0C3.07187 0 2.90909 0.162812 2.90909 0.363625V1.45453H1.45453C0.651219 1.45453 0 2.10578 0 2.90909V14.5455C0 15.3488 0.651219 16 1.45453 16H14.5454C15.3488 16 16 15.3488 16 14.5455V2.90909C16 2.10578 15.3488 1.45453 14.5455 1.45453ZM15.2727 14.5455C15.2727 14.9471 14.9471 15.2727 14.5454 15.2727H1.45453C1.05287 15.2727 0.72725 14.9471 0.72725 14.5455V5.81819H15.2727V14.5455ZM15.2727 5.09091H0.727281V2.90909C0.727281 2.50744 1.05291 2.18181 1.45456 2.18181H2.90909V3.27272C2.90909 3.47356 3.07191 3.63634 3.27272 3.63634C3.47356 3.63634 3.63634 3.47353 3.63634 3.27272V2.18181H12.3636V3.27272C12.3636 3.47356 12.5264 3.63634 12.7273 3.63634C12.9281 3.63634 13.0909 3.47353 13.0909 3.27272V2.18181H14.5454C14.9471 2.18181 15.2727 2.50744 15.2727 2.90909L15.2727 5.09091Z" fill="#7166F0"/>
<path d="M3.2727 7.27266H1.81816V8.72719H3.2727V7.27266Z" fill="#7166F0"/>
<path d="M7.63637 12.3637H6.18184V13.8182H7.63637V12.3637Z" fill="#7166F0"/>
<path d="M5.45453 12.3637H4V13.8182H5.45453V12.3637Z" fill="#7166F0"/>
<path d="M5.45453 7.27266H4V8.72719H5.45453V7.27266Z" fill="#7166F0"/>
<path d="M5.45453 9.81816H4V11.2727H5.45453V9.81816Z" fill="#7166F0"/>
</svg>
