<svg width="23" height="28" viewBox="0 0 23 28" fill="none" xmlns="http://www.w3.org/2000/svg">
<path d="M14.8747 9.90173C14.5212 9.90173 14.2347 10.1883 14.2347 10.5418V22.6386C14.2347 22.9919 14.5212 23.2786 14.8747 23.2786C15.2282 23.2786 15.5148 22.9919 15.5148 22.6386V10.5418C15.5148 10.1883 15.2282 9.90173 14.8747 9.90173Z" fill="white"/>
<path d="M7.32217 9.90173C6.96865 9.90173 6.68213 10.1883 6.68213 10.5418V22.6386C6.68213 22.9919 6.96865 23.2786 7.32217 23.2786C7.67569 23.2786 7.96221 22.9919 7.96221 22.6386V10.5418C7.96221 10.1883 7.67569 9.90173 7.32217 9.90173Z" fill="white"/>
<path d="M1.81782 8.13637V23.9057C1.81782 24.8377 2.1596 25.713 2.75664 26.3411C3.35093 26.9709 4.17798 27.3284 5.04354 27.3299H17.1533C18.0191 27.3284 18.8462 26.9709 19.4402 26.3411C20.0373 25.713 20.3791 24.8377 20.3791 23.9057V8.13637C21.5659 7.82135 22.3349 6.67478 22.1762 5.45695C22.0172 4.23936 20.9798 3.32855 19.7518 3.3283H16.4748V2.52825C16.4785 1.85546 16.2125 1.20941 15.7362 0.734133C15.26 0.259101 14.6129 -0.00541627 13.9401 8.40963e-05H8.25675C7.58396 -0.00541627 6.93691 0.259101 6.46063 0.734133C5.98435 1.20941 5.71833 1.85546 5.72208 2.52825V3.3283H2.44512C1.21704 3.32855 0.179716 4.23936 0.0207057 5.45695C-0.138055 6.67478 0.630996 7.82135 1.81782 8.13637ZM17.1533 26.0498H5.04354C3.94922 26.0498 3.09791 25.1097 3.09791 23.9057V8.19263H19.099V23.9057C19.099 25.1097 18.2477 26.0498 17.1533 26.0498ZM7.00217 2.52825C6.99792 2.19498 7.12893 1.87421 7.36544 1.63894C7.60171 1.40368 7.92323 1.27442 8.25675 1.28017H13.9401C14.2737 1.27442 14.5952 1.40368 14.8314 1.63894C15.068 1.87396 15.199 2.19498 15.1947 2.52825V3.3283H7.00217V2.52825ZM2.44512 4.60839H19.7518C20.3881 4.60839 20.9038 5.12417 20.9038 5.76047C20.9038 6.39676 20.3881 6.91254 19.7518 6.91254H2.44512C1.80882 6.91254 1.29304 6.39676 1.29304 5.76047C1.29304 5.12417 1.80882 4.60839 2.44512 4.60839Z" fill="white"/>
<path d="M11.0984 9.90173C10.7449 9.90173 10.4584 10.1883 10.4584 10.5418V22.6386C10.4584 22.9919 10.7449 23.2786 11.0984 23.2786C11.4519 23.2786 11.7385 22.9919 11.7385 22.6386V10.5418C11.7385 10.1883 11.4519 9.90173 11.0984 9.90173Z" fill="white"/>
</svg>
