<svg width="1920" height="456" viewBox="0 0 1920 456" fill="none" xmlns="http://www.w3.org/2000/svg">
<rect width="1920" height="456" fill="#7166F0"/>
<mask id="mask0_1201_102" style="mask-type:alpha" maskUnits="userSpaceOnUse" x="0" y="0" width="1920" height="456">
<rect width="1920" height="456" fill="#7166F0"/>
</mask>
<g mask="url(#mask0_1201_102)">
<g opacity="0.63">
<mask id="mask1_1201_102" style="mask-type:alpha" maskUnits="userSpaceOnUse" x="-15" y="0" width="1935" height="456">
<rect x="-15" width="1935" height="456" fill="#7166F0"/>
</mask>
<g mask="url(#mask1_1201_102)">
<g opacity="0.2">
<mask id="mask2_1201_102" style="mask-type:luminance" maskUnits="userSpaceOnUse" x="1259" y="115" width="392" height="391">
<path d="M1316.26 448.74C1392.61 525.087 1516.39 525.087 1592.74 448.74C1669.09 372.391 1669.09 248.61 1592.74 172.261C1516.39 95.9117 1392.61 95.9143 1316.26 172.261C1239.91 248.61 1239.91 372.391 1316.26 448.74Z" fill="white"/>
</mask>
<g mask="url(#mask2_1201_102)">
<path d="M1591.81 171.343L1315.33 447.819L1317.18 449.662L1593.65 173.186L1591.81 171.343Z" fill="white"/>
<path d="M1602.45 181.973L1325.97 458.449L1327.81 460.293L1604.29 183.816L1602.45 181.973Z" fill="white"/>
<path d="M1338.45 470.931L1614.93 194.449L1613.08 192.606L1570.45 235.244L1336.61 469.088L1338.45 470.931Z" fill="white"/>
<path d="M1623.71 203.242L1347.24 479.718L1349.08 481.561L1625.56 205.085L1623.71 203.242Z" fill="white"/>
<path d="M1634.35 213.874L1357.87 490.35L1359.72 492.193L1636.19 215.717L1634.35 213.874Z" fill="white"/>
<path d="M1644.98 224.507L1368.5 500.983L1370.35 502.826L1646.82 226.35L1644.98 224.507Z" fill="white"/>
<path d="M1655.62 235.145L1379.14 511.621L1380.98 513.465L1657.46 236.988L1655.62 235.145Z" fill="white"/>
<path d="M1666.25 245.776L1389.77 522.253L1391.61 524.096L1668.09 247.62L1666.25 245.776Z" fill="white"/>
<path d="M1676.88 256.414L1400.41 532.89L1402.25 534.733L1678.72 258.257L1676.88 256.414Z" fill="white"/>
<path d="M1687.51 267.047L1411.04 543.523L1412.88 545.366L1689.36 268.89L1687.51 267.047Z" fill="white"/>
<path d="M1698.15 277.676L1421.67 554.152L1423.51 555.996L1699.99 279.519L1698.15 277.676Z" fill="white"/>
<path d="M1708.78 288.311L1432.31 564.787L1434.15 566.631L1710.63 290.154L1708.78 288.311Z" fill="white"/>
<path d="M1719.42 298.946L1442.94 575.422L1444.78 577.265L1721.26 300.789L1719.42 298.946Z" fill="white"/>
<path d="M1730.05 309.582L1453.57 586.058L1455.41 587.902L1731.89 311.425L1730.05 309.582Z" fill="white"/>
<path d="M1453.57 33.1023L1177.1 309.579L1178.94 311.422L1455.42 34.9455L1453.57 33.1023Z" fill="white"/>
<path d="M1464.21 43.7368L1187.73 320.213L1189.57 322.056L1466.05 45.58L1464.21 43.7368Z" fill="white"/>
<path d="M1474.84 54.3677L1198.37 330.844L1200.21 332.687L1476.68 56.2109L1474.84 54.3677Z" fill="white"/>
<path d="M1485.48 65.0044L1209 341.481L1210.84 343.324L1487.32 66.8476L1485.48 65.0044Z" fill="white"/>
<path d="M1496.11 75.6382L1219.63 352.115L1221.47 353.958L1497.95 77.4814L1496.11 75.6382Z" fill="white"/>
<path d="M1506.74 86.2715L1230.26 362.748L1232.11 364.591L1508.58 88.1147L1506.74 86.2715Z" fill="white"/>
<path d="M1517.38 96.9036L1240.9 373.38L1242.74 375.223L1519.22 98.7468L1517.38 96.9036Z" fill="white"/>
<path d="M1528.01 107.537L1251.53 384.013L1253.38 385.856L1529.85 109.38L1528.01 107.537Z" fill="white"/>
<path d="M1538.64 118.17L1262.17 394.646L1264.01 396.49L1540.49 120.013L1538.64 118.17Z" fill="white"/>
<path d="M1549.28 128.809L1272.8 405.285L1274.65 407.128L1551.12 130.652L1549.28 128.809Z" fill="white"/>
<path d="M1559.91 139.441L1283.43 415.918L1285.28 417.761L1561.75 141.285L1559.91 139.441Z" fill="white"/>
<path d="M1570.54 150.071L1294.07 426.547L1295.91 428.391L1572.39 151.914L1570.54 150.071Z" fill="white"/>
<path d="M1581.18 160.704L1304.7 437.18L1306.54 439.023L1583.02 162.547L1581.18 160.704Z" fill="white"/>
</g>
</g>
<mask id="mask3_1201_102" style="mask-type:luminance" maskUnits="userSpaceOnUse" x="-11" y="0" width="1916" height="456">
<path d="M1905 0H-10.8999V456H1905V0Z" fill="white"/>
</mask>
<g mask="url(#mask3_1201_102)">
<path opacity="0.54" d="M18.16 164.32C81.7611 164.32 133.32 112.761 133.32 49.16C133.32 -14.4411 81.7611 -66 18.16 -66C-45.4411 -66 -97 -14.4411 -97 49.16C-97 112.761 -45.4411 164.32 18.16 164.32Z" fill="url(#paint0_linear_1201_102)"/>
<path d="M379.313 581.398C421.38 575.155 450.421 535.993 444.178 493.926C437.935 451.86 398.773 422.819 356.706 429.061C314.64 435.304 285.599 474.467 291.841 516.533C298.084 558.6 337.247 587.641 379.313 581.398Z" stroke="#F200D7" stroke-miterlimit="10"/>
<path d="M40.9101 632.44C142.823 632.44 225.44 547.719 225.44 443.21C225.44 338.701 142.823 253.98 40.9101 253.98C-61.003 253.98 -143.62 338.701 -143.62 443.21C-143.62 547.719 -61.003 632.44 40.9101 632.44Z" stroke="#60E4FF" stroke-width="0.75" stroke-miterlimit="10"/>
<path d="M40.9101 259.72C139.73 259.71 219.84 341.86 219.85 443.22C219.86 544.56 139.73 626.72 40.9101 626.72C-57.9099 626.72 -138.04 544.56 -138.04 443.21C-138.04 341.86 -57.9199 259.73 40.9101 259.72Z" stroke="#60E4FF" stroke-width="0.75" stroke-miterlimit="10"/>
<path d="M40.9102 265.45C136.63 265.43 214.24 345.01 214.26 443.22C214.28 541.4 136.65 620.99 40.9102 620.99C-54.8298 620.99 -132.45 541.39 -132.45 443.21C-132.45 345.03 -54.8298 265.47 40.9102 265.45Z" stroke="#60E4FF" stroke-width="0.75" stroke-miterlimit="10"/>
<path d="M40.9101 271.18C133.54 271.15 208.64 348.16 208.68 443.22C208.71 538.23 133.57 615.26 40.9101 615.26C-51.7399 615.26 -126.86 538.24 -126.86 443.22C-126.86 348.2 -51.7499 271.21 40.9101 271.18Z" stroke="#60E4FF" stroke-width="0.75" stroke-miterlimit="10"/>
<path d="M40.9101 276.91C130.44 276.87 203.04 351.31 203.09 443.22C203.13 535.07 130.48 609.53 40.9101 609.53C-48.6599 609.53 -121.27 535.06 -121.27 443.21C-121.27 351.36 -48.6599 276.95 40.9101 276.91Z" stroke="#60E4FF" stroke-width="0.75" stroke-miterlimit="10"/>
<path d="M40.9101 282.64C127.35 282.59 197.45 354.47 197.5 443.22C197.55 531.9 127.39 603.8 40.9101 603.8C-45.5699 603.8 -115.68 531.9 -115.68 443.21C-115.68 354.52 -45.5699 282.69 40.9101 282.64Z" stroke="#60E4FF" stroke-width="0.75" stroke-miterlimit="10"/>
<path d="M40.9102 288.37C124.26 288.31 191.85 357.62 191.91 443.22C191.97 528.74 124.3 598.07 40.9102 598.07C-42.4898 598.07 -110.09 528.74 -110.09 443.22C-110.09 357.7 -42.4898 288.43 40.9102 288.37Z" stroke="#60E4FF" stroke-width="0.75" stroke-miterlimit="10"/>
<path d="M40.9101 294.1C121.16 294.03 186.25 360.77 186.32 443.21C186.39 525.56 121.22 592.32 40.9101 592.32C-39.3999 592.32 -104.5 525.56 -104.5 443.21C-104.5 360.86 -39.3999 294.17 40.9101 294.1Z" stroke="#60E4FF" stroke-width="0.75" stroke-miterlimit="10"/>
<path d="M40.9101 299.83C118.07 299.75 180.65 363.92 180.74 443.21C180.82 522.4 118.14 586.59 40.9101 586.59C-36.3199 586.59 -98.9199 522.4 -98.9199 443.21C-98.9199 364.02 -36.3099 299.91 40.9101 299.83Z" stroke="#60E4FF" stroke-width="0.75" stroke-miterlimit="10"/>
<path d="M40.9102 305.56C114.97 305.47 175.05 367.07 175.15 443.21C175.24 519.23 115.05 580.86 40.9102 580.86C-33.2298 580.86 -93.3298 519.23 -93.3298 443.21C-93.3298 367.19 -33.2298 305.65 40.9102 305.56Z" stroke="#60E4FF" stroke-width="0.75" stroke-miterlimit="10"/>
<path d="M40.9101 311.29C111.88 311.19 169.45 370.22 169.56 443.21C169.66 516.07 111.96 575.13 40.9101 575.13C-30.1399 575.13 -87.7399 516.07 -87.7399 443.21C-87.7399 370.35 -30.1399 311.39 40.9101 311.29Z" stroke="#60E4FF" stroke-width="0.75" stroke-miterlimit="10"/>
<path d="M40.9101 317.02C108.78 316.91 163.85 373.37 163.97 443.21C164.08 512.9 108.87 569.4 40.9101 569.4C-27.0599 569.4 -82.1499 512.9 -82.1499 443.21C-82.1499 373.52 -27.0499 317.13 40.9101 317.02Z" stroke="#60E4FF" stroke-width="0.75" stroke-miterlimit="10"/>
<path d="M40.9102 322.75C105.69 322.63 158.25 376.52 158.38 443.21C158.5 509.74 105.79 563.67 40.9102 563.67C-23.9698 563.67 -76.5598 509.74 -76.5598 443.21C-76.5598 376.68 -23.9598 322.87 40.9102 322.75Z" stroke="#60E4FF" stroke-width="0.75" stroke-miterlimit="10"/>
<path d="M40.9102 328.48C102.59 328.35 152.65 379.68 152.8 443.21C152.93 506.57 102.71 557.94 40.9102 557.94C-20.8898 557.94 -70.9698 506.57 -70.9698 443.21C-70.9698 379.85 -20.8798 328.61 40.9102 328.48Z" stroke="#60E4FF" stroke-width="0.75" stroke-miterlimit="10"/>
<path d="M40.9101 334.2C99.5001 334.06 147.05 382.82 147.21 443.2C147.36 503.4 99.6201 552.2 40.9101 552.2C-17.7999 552.2 -65.3899 503.4 -65.3899 443.2C-65.3899 383 -17.7899 334.35 40.9101 334.2Z" stroke="#60E4FF" stroke-width="0.75" stroke-miterlimit="10"/>
<path d="M40.9101 339.93C96.4001 339.78 141.45 385.97 141.62 443.2C141.78 500.23 96.5301 546.47 40.9101 546.47C-14.7099 546.47 -59.7999 500.23 -59.7999 443.2C-59.7999 386.17 -14.6999 340.09 40.9101 339.93Z" stroke="#60E4FF" stroke-width="0.75" stroke-miterlimit="10"/>
<path d="M40.9102 345.66C93.3102 345.5 135.85 389.12 136.03 443.2C136.2 497.07 93.4402 540.74 40.9102 540.74C-11.6198 540.74 -54.2098 497.07 -54.2098 443.2C-54.2098 389.34 -11.6198 345.83 40.9102 345.66Z" stroke="#60E4FF" stroke-width="0.75" stroke-miterlimit="10"/>
<path d="M40.9101 351.39C90.2101 351.22 130.26 392.27 130.44 443.2C130.62 493.9 90.3501 535.01 40.9101 535.01C-8.52987 535.01 -48.6199 493.9 -48.6199 443.2C-48.6199 392.5 -8.52987 351.57 40.9101 351.39Z" stroke="#60E4FF" stroke-width="0.75" stroke-miterlimit="10"/>
<path d="M40.9102 357.12C87.1202 356.94 124.66 395.42 124.85 443.2C125.04 490.74 87.2702 529.28 40.9102 529.28C-5.44984 529.28 -43.0298 490.74 -43.0298 443.2C-43.0298 395.66 -5.43984 357.31 40.9102 357.12Z" stroke="#60E4FF" stroke-width="0.75" stroke-miterlimit="10"/>
<path d="M40.9101 362.85C84.0201 362.66 119.06 398.57 119.27 443.2C119.47 487.57 84.1901 523.55 40.9101 523.55C-2.36989 523.55 -37.4499 487.58 -37.4499 443.2C-37.4399 398.83 -2.35989 363.05 40.9101 362.85Z" stroke="#60E4FF" stroke-width="0.75" stroke-miterlimit="10"/>
<path d="M40.9201 368.58C80.9401 368.38 113.47 401.72 113.69 443.2C113.9 484.41 81.1101 517.82 40.9201 517.82C0.730145 517.82 -31.8499 484.41 -31.8499 443.2C-31.8499 401.99 0.730145 368.79 40.9201 368.58Z" stroke="#60E4FF" stroke-width="0.75" stroke-miterlimit="10"/>
<path d="M40.9201 374.31C77.8501 374.1 107.87 404.88 108.1 443.2C108.32 481.24 78.0201 512.09 40.9201 512.09C3.82011 512.09 -26.2599 481.25 -26.2599 443.2C-26.2599 405.16 3.82011 374.54 40.9201 374.31Z" stroke="#60E4FF" stroke-width="0.75" stroke-miterlimit="10"/>
<path d="M40.9201 380.04C74.7501 379.82 102.27 408.03 102.51 443.2C102.74 478.08 74.9301 506.36 40.9201 506.36C6.91014 506.36 -20.6699 478.08 -20.6699 443.2C-20.6799 408.32 6.91014 380.28 40.9201 380.04Z" stroke="#60E4FF" stroke-width="0.75" stroke-miterlimit="10"/>
<path d="M40.9201 385.77C71.6601 385.54 96.6701 411.18 96.9201 443.2C97.1601 474.91 71.8501 500.63 40.9201 500.63C9.99011 500.63 -15.0799 474.92 -15.0799 443.2C-15.0899 411.49 9.99011 386.02 40.9201 385.77Z" stroke="#60E4FF" stroke-width="0.75" stroke-miterlimit="10"/>
<path d="M40.9201 391.5C68.5601 391.26 91.0701 414.33 91.3401 443.2C91.5901 471.75 68.7701 494.9 40.9201 494.9C13.0801 494.9 -9.49988 471.75 -9.49988 443.2C-9.49988 414.65 13.0801 391.76 40.9201 391.5Z" stroke="#60E4FF" stroke-width="0.75" stroke-miterlimit="10"/>
<path d="M40.9201 397.23C65.4701 396.98 85.4701 417.48 85.7501 443.2C86.0101 468.58 65.6801 489.17 40.9201 489.17C16.1601 489.17 -3.90991 468.59 -3.90991 443.2C-3.90991 417.81 16.1701 397.5 40.9201 397.23Z" stroke="#60E4FF" stroke-width="0.75" stroke-miterlimit="10"/>
<path d="M40.9201 402.96C62.3701 402.7 79.8701 420.63 80.1601 443.2C80.4301 465.42 62.5901 483.44 40.9201 483.44C19.2501 483.44 1.68011 465.42 1.68011 443.2C1.68011 420.98 19.2501 403.24 40.9201 402.96Z" stroke="#60E4FF" stroke-width="0.75" stroke-miterlimit="10"/>
<path d="M40.9201 408.69C59.2801 408.42 74.2701 423.78 74.5701 443.2C74.8501 462.25 59.5001 477.71 40.9201 477.71C22.3301 477.71 7.27014 462.26 7.27014 443.2C7.27014 424.14 22.3401 408.98 40.9201 408.69Z" stroke="#60E4FF" stroke-width="0.75" stroke-miterlimit="10"/>
<path d="M40.9201 414.42C56.1801 414.14 68.6701 426.94 68.9801 443.2C69.2701 459.09 56.4201 471.98 40.9201 471.98C25.4201 471.98 12.8601 459.1 12.8601 443.2C12.8601 427.3 25.4301 414.72 40.9201 414.42Z" stroke="#60E4FF" stroke-width="0.75" stroke-miterlimit="10"/>
<path d="M40.9201 420.15C53.0901 419.86 63.0801 430.09 63.4001 443.2C63.7001 455.92 53.3401 466.25 40.9201 466.25C28.5101 466.25 18.4401 455.93 18.4401 443.2C18.4401 430.47 28.5101 420.46 40.9201 420.15Z" stroke="#60E4FF" stroke-width="0.75" stroke-miterlimit="10"/>
<path d="M40.9202 425.88C49.9902 425.58 57.4802 433.24 57.8102 443.2C58.1202 452.76 50.2502 460.52 40.9202 460.52C31.5902 460.52 24.0302 452.77 24.0302 443.2C24.0302 433.64 31.6002 426.2 40.9202 425.88Z" stroke="#60E4FF" stroke-width="0.75" stroke-miterlimit="10"/>
<path d="M52.2201 443.2C52.5401 449.59 47.1601 454.79 40.9201 454.79C34.6801 454.79 29.6201 449.6 29.6201 443.2C29.6201 436.8 34.6901 431.94 40.9201 431.61C46.9001 431.3 51.8801 436.39 52.2201 443.2Z" stroke="#60E4FF" stroke-width="0.75" stroke-miterlimit="10"/>
<path d="M687.23 91.46C753.631 91.46 807.46 37.6312 807.46 -28.77C807.46 -95.1712 753.631 -149 687.23 -149C620.829 -149 567 -95.1712 567 -28.77C567 37.6312 620.829 91.46 687.23 91.46Z" stroke="white" stroke-width="0.75" stroke-miterlimit="10" stroke-linecap="round" stroke-linejoin="round"/>
<path d="M174.987 11.3554C179.208 -18.3228 158.57 -45.8035 128.892 -50.0244C99.2139 -54.2453 71.7332 -33.6081 67.5123 -3.92984C63.2914 25.7484 83.9287 53.2291 113.607 57.45C143.285 61.6709 170.766 41.0336 174.987 11.3554Z" stroke="#60E4FF" stroke-width="0.75" stroke-miterlimit="10"/>
<g opacity="0.77">
<path d="M875.83 790.46C916.62 776.33 942.1 751.13 959.74 721.21C969.25 705.07 977.06 687.39 984.81 668.85C987.06 663.46 989.28 658.05 991.59 652.66C1009.41 611.16 1024.92 567.3 1038.11 522.23C1042.7 506.54 1047 490.08 1052.18 473.91C1058.87 453.01 1066.85 432.48 1078.69 414.57C1113.15 362.44 1157.36 350.22 1207.21 341.02C1237.23 335.48 1269.36 332.42 1302.15 323.46C1324.5 317.3 1342.02 306.8 1356.34 293.52C1389.47 262.66 1406.11 215.66 1426.09 173.17C1446.21 130.16 1459.96 98.9899 1503.07 74.6699C1554.35 45.7399 1590 21.1299 1604.09 -35.8401" stroke="white" stroke-width="0.75" stroke-miterlimit="10" stroke-linecap="round" stroke-linejoin="round"/>
<path d="M871.64 780.54C911.3 765.88 937.42 741.01 955.45 712.07C965.2 696.42 973.37 679.36 981.47 661.44C983.83 656.22 986.13 650.98 988.56 645.77C1007.39 605.46 1023.16 562.02 1036.3 517.11C1040.88 501.48 1045.14 485.08 1050.27 468.97C1056.89 448.16 1064.71 427.68 1076.31 409.75C1109.89 357.84 1153.08 344.63 1202.21 334.46C1231.9 328.31 1263.86 325.1 1296.51 316.52C1318.71 310.61 1336.28 300.61 1350.71 287.94C1384.1 258.49 1401.74 213.13 1422.16 171.12C1442.68 128.64 1455.72 96.8899 1498.2 72.3399C1548.55 43.2399 1585.13 18.9999 1599.22 -37.3601" stroke="white" stroke-width="0.75" stroke-miterlimit="10" stroke-linecap="round" stroke-linejoin="round"/>
<path d="M867.44 770.62C905.98 755.43 932.72 730.89 951.15 702.93C961.14 687.78 969.66 671.33 978.11 654.02C980.57 648.98 982.96 643.89 985.51 638.87C1005.36 599.73 1021.37 556.72 1034.47 511.98C1039.03 496.41 1043.26 480.08 1048.33 464.03C1054.88 443.31 1062.54 422.87 1073.89 404.93C1106.59 353.24 1148.75 339.04 1197.16 327.9C1226.53 321.14 1258.3 317.78 1290.82 309.57C1312.87 303.91 1330.48 294.41 1345.04 282.35C1378.69 254.31 1397.33 210.59 1418.2 169.06C1439.13 127.11 1451.46 94.7699 1493.3 69.9999C1542.71 40.7399 1580.23 16.8599 1594.33 -38.9001" stroke="white" stroke-width="0.75" stroke-miterlimit="10" stroke-linecap="round" stroke-linejoin="round"/>
<path d="M863.25 760.7C900.67 744.98 928.04 720.76 946.86 693.79C957.09 679.13 965.97 663.3 974.76 646.61C977.32 641.74 979.81 636.82 982.47 631.98C1003.35 594.01 1019.59 551.43 1032.65 506.86C1037.19 491.36 1041.39 475.08 1046.41 459.1C1052.89 438.48 1060.39 418.08 1071.5 400.11C1103.32 348.64 1144.46 333.45 1192.15 321.34C1221.2 313.96 1252.8 310.54 1285.17 302.62C1307.09 297.26 1324.72 288.21 1339.41 276.76C1373.31 250.14 1392.95 208.05 1414.28 166.99C1435.61 125.57 1447.24 92.6499 1488.44 67.6499C1536.92 38.2199 1575.37 14.7099 1589.47 -40.4501" stroke="white" stroke-width="0.75" stroke-miterlimit="10" stroke-linecap="round" stroke-linejoin="round"/>
<path d="M859.05 750.78C895.35 734.53 923.35 710.64 942.56 684.65C953.03 670.48 962.27 655.27 971.4 639.2C974.07 634.51 976.65 629.75 979.42 625.09C1001.34 588.28 1017.81 546.14 1030.82 501.73C1035.34 486.29 1039.51 470.08 1044.48 454.16C1050.89 433.63 1058.23 413.28 1069.1 395.29C1100.05 344.05 1140.16 327.85 1187.12 314.77C1215.85 306.77 1247.27 303.22 1279.51 295.66C1301.29 290.55 1318.98 282.03 1333.77 271.16C1367.98 246.02 1388.57 205.5 1410.34 164.92C1432.08 124.03 1442.99 90.5299 1483.55 65.2899C1531.1 35.6999 1570.48 12.5499 1584.59 -42.0101" stroke="white" stroke-width="0.75" stroke-miterlimit="10" stroke-linecap="round" stroke-linejoin="round"/>
<path d="M854.86 740.87C890.03 724.09 918.68 700.53 938.27 675.52C948.98 661.84 958.58 647.25 968.05 631.79C970.82 627.27 973.5 622.68 976.38 618.2C999.36 582.55 1016.03 540.85 1029 496.61C1033.51 481.23 1037.64 465.09 1042.55 449.23C1048.89 428.79 1056.08 408.49 1066.7 390.48C1096.78 339.46 1135.86 322.26 1182.1 308.22C1210.51 299.6 1241.75 295.92 1273.85 288.72C1295.48 283.87 1313.21 275.84 1328.13 265.59C1362.61 241.88 1384.27 203.02 1406.41 162.87C1428.64 122.55 1438.76 88.4398 1478.68 62.9598C1525.3 33.2098 1565.62 10.4198 1579.72 -43.5302" stroke="white" stroke-width="0.75" stroke-miterlimit="10" stroke-linecap="round" stroke-linejoin="round"/>
<path d="M850.67 730.95C884.72 713.64 914.01 690.41 933.98 666.38C944.94 653.2 954.89 639.22 964.7 624.38C967.57 620.03 970.35 615.61 973.34 611.31C997.4 576.82 1014.25 535.57 1027.18 491.49C1031.67 476.17 1035.77 460.09 1040.63 444.3C1046.9 423.95 1053.93 403.71 1064.3 385.67C1093.52 334.88 1131.56 316.66 1177.08 301.67C1205.17 292.42 1236.22 288.62 1268.19 281.78C1289.68 277.18 1307.45 269.66 1322.48 260.01C1357.21 237.72 1379.89 200.5 1402.47 160.82C1425.11 121.04 1434.52 86.3399 1473.8 60.6299C1519.49 30.7199 1560.74 8.28994 1574.84 -45.0601" stroke="white" stroke-width="0.75" stroke-miterlimit="10" stroke-linecap="round" stroke-linejoin="round"/>
<path d="M846.47 721.03C879.4 703.19 909.33 680.28 929.68 657.24C940.89 644.55 951.19 631.19 961.34 616.97C964.32 612.8 967.19 608.54 970.3 604.42C995.45 571.08 1012.48 530.28 1025.35 486.36C1029.82 471.11 1033.89 455.09 1038.7 439.36C1044.9 419.1 1051.77 398.91 1061.9 380.85C1090.25 330.3 1127.26 311.04 1172.05 295.11C1199.82 285.23 1230.69 281.31 1262.53 274.83C1283.87 270.48 1301.68 263.46 1316.84 254.42C1351.83 233.55 1375.51 197.96 1398.53 158.76C1421.58 119.51 1430.28 84.2399 1468.92 58.2899C1513.68 28.2299 1555.86 6.1499 1569.97 -46.6001" stroke="white" stroke-width="0.75" stroke-miterlimit="10" stroke-linecap="round" stroke-linejoin="round"/>
<path d="M842.28 711.11C874.09 692.74 904.67 670.16 925.39 648.1C936.85 635.9 947.5 623.16 957.99 609.55C961.07 605.55 964.05 601.45 967.26 597.52C993.51 565.34 1010.7 524.98 1023.53 481.23C1027.99 466.04 1032.02 450.09 1036.77 434.42C1042.9 414.25 1049.62 394.11 1059.5 376.03C1086.99 325.71 1122.96 305.42 1167.03 288.54C1194.48 278.03 1225.16 273.99 1256.87 267.87C1278.07 263.78 1295.92 257.25 1311.2 248.82C1346.45 229.38 1371.13 195.42 1394.6 156.68C1418.06 117.97 1426.05 82.1199 1464.04 55.9299C1507.88 25.7199 1550.98 3.98985 1565.09 -48.1501" stroke="white" stroke-width="0.75" stroke-miterlimit="10" stroke-linecap="round" stroke-linejoin="round"/>
<path d="M838.08 701.19C868.77 682.29 900 660.04 921.09 638.96C932.8 627.25 943.81 615.14 954.63 602.14C957.82 598.31 960.89 594.38 964.21 590.63C991.59 559.61 1008.91 519.69 1021.7 476.11C1026.14 460.98 1030.13 445.09 1034.84 429.49C1040.9 409.41 1047.47 389.33 1057.1 371.22C1083.73 321.14 1118.66 299.8 1162 281.99C1189.13 270.84 1219.63 266.69 1251.2 260.93C1272.25 257.09 1290.14 251.06 1305.55 243.24C1341.06 225.22 1366.74 192.89 1390.66 154.63C1414.53 116.45 1421.81 80.0298 1459.16 53.5998C1502.07 23.2398 1546.1 1.85983 1560.22 -49.6802" stroke="white" stroke-width="0.75" stroke-miterlimit="10" stroke-linecap="round" stroke-linejoin="round"/>
<path d="M833.89 691.27C863.45 671.83 895.35 649.92 916.8 629.82C928.77 618.61 940.12 607.11 951.28 594.73C954.57 591.08 957.75 587.31 961.17 583.73C989.68 553.88 1007.14 514.39 1019.88 470.98C1024.3 455.91 1028.26 440.09 1032.91 424.55C1038.9 404.56 1045.31 384.53 1054.7 366.4C1080.48 316.56 1114.36 294.17 1156.98 275.43C1183.79 263.64 1214.1 259.38 1245.54 253.98C1266.45 250.39 1284.37 244.87 1299.9 237.66C1335.66 221.06 1362.35 190.36 1386.71 152.58C1410.98 114.93 1417.56 77.9399 1454.27 51.2699C1496.25 20.7599 1541.21 -0.270084 1555.33 -51.2101" stroke="white" stroke-width="0.75" stroke-miterlimit="10" stroke-linecap="round" stroke-linejoin="round"/>
<path d="M829.69 681.35C858.13 661.38 890.69 639.81 912.5 620.68C924.73 609.96 936.43 599.08 947.92 587.31C951.32 583.83 954.61 580.23 958.12 576.83C987.79 548.15 1005.35 509.1 1018.05 465.84C1022.46 450.84 1026.38 435.08 1030.98 419.6C1036.9 399.7 1043.16 379.73 1052.29 361.57C1077.22 311.97 1110.05 288.52 1151.94 268.86C1178.43 256.43 1208.56 252.06 1239.87 247.02C1260.63 243.68 1278.59 238.66 1294.25 232.06C1330.27 216.88 1357.96 187.81 1382.77 150.5C1407.45 113.38 1413.32 75.8298 1449.39 48.8998C1490.45 18.2498 1536.33 -2.44015 1550.46 -52.7802" stroke="white" stroke-width="0.75" stroke-miterlimit="10" stroke-linecap="round" stroke-linejoin="round"/>
<path d="M825.5 671.43C852.82 650.93 886.04 629.69 908.21 611.54C920.7 601.32 932.75 591.05 944.57 579.9C948.07 576.6 951.47 573.16 955.08 569.94C985.92 542.44 1003.57 503.81 1016.23 460.72C1020.62 445.78 1024.51 430.08 1029.06 414.67C1034.91 394.86 1041.02 374.95 1049.9 356.76C1073.98 307.41 1105.76 282.88 1146.93 262.3C1173.1 249.22 1203.04 244.74 1234.22 240.07C1254.84 236.98 1272.83 232.46 1288.62 226.47C1324.89 212.71 1353.59 185.28 1378.85 148.44C1403.94 111.85 1409.11 73.7299 1444.53 46.5599C1484.67 15.7699 1531.48 -4.58006 1545.6 -54.3101" stroke="white" stroke-width="0.75" stroke-miterlimit="10" stroke-linecap="round" stroke-linejoin="round"/>
<path d="M821.3 661.51C847.5 640.48 881.39 619.58 903.91 602.4C916.66 592.68 929.06 583.02 941.21 572.49C944.82 569.36 948.32 566.1 952.03 563.05C984.05 536.75 1001.79 498.52 1014.4 455.6C1018.77 440.72 1022.63 425.09 1027.12 409.74C1032.9 390.02 1038.87 370.16 1047.49 351.94C1070.73 302.84 1101.44 277.23 1141.89 255.74C1167.74 242.01 1197.49 237.43 1228.54 233.12C1249.01 230.28 1267.04 226.26 1282.96 220.88C1319.48 208.53 1349.19 182.74 1374.89 146.37C1400.38 110.32 1404.85 71.6299 1439.62 44.2099C1478.84 13.2799 1526.57 -6.73011 1540.7 -55.8601" stroke="white" stroke-width="0.75" stroke-miterlimit="10" stroke-linecap="round" stroke-linejoin="round"/>
<path d="M817.11 651.6C842.18 630.04 876.75 609.48 899.62 593.27C912.63 584.05 925.38 575.01 937.86 565.08C941.58 562.13 945.19 559.03 948.99 556.16C982.21 531.07 1000.01 493.23 1012.58 450.47C1016.93 435.65 1020.76 420.08 1025.2 404.8C1030.91 385.17 1036.73 365.37 1045.1 347.12C1067.5 298.26 1097.14 271.57 1136.88 249.18C1162.4 234.8 1191.98 230.11 1222.9 226.18C1243.22 223.59 1261.3 220.07 1277.34 215.3C1314.11 204.37 1344.82 180.21 1370.98 144.32C1396.87 108.8 1400.65 69.5599 1434.77 41.8799C1473.07 10.8199 1521.72 -8.86014 1535.85 -57.3901" stroke="white" stroke-width="0.75" stroke-miterlimit="10" stroke-linecap="round" stroke-linejoin="round"/>
<path d="M812.92 641.68C836.87 619.59 872.12 599.38 895.33 584.13C908.61 575.41 921.7 566.98 934.51 557.67C938.33 554.89 942.06 551.97 945.96 549.27C980.39 525.4 998.24 487.95 1010.77 445.35C1015.11 430.6 1018.9 415.09 1023.29 399.87C1028.93 380.33 1034.6 360.59 1042.71 342.31C1064.28 293.71 1092.84 265.92 1131.87 242.63C1157.06 227.59 1186.46 222.8 1217.25 219.24C1237.43 216.9 1255.54 213.88 1271.7 209.73C1308.72 200.21 1340.44 177.69 1367.05 142.28C1393.35 107.29 1396.43 67.4899 1429.9 39.5599C1467.28 8.35987 1516.85 -10.9901 1530.99 -58.9001" stroke="white" stroke-width="0.75" stroke-miterlimit="10" stroke-linecap="round" stroke-linejoin="round"/>
<path d="M808.72 631.76C831.55 609.14 867.48 589.28 891.03 574.99C904.58 566.77 918.01 558.96 931.15 550.26C935.08 547.66 938.92 544.91 942.91 542.38C978.56 519.75 996.46 482.66 1008.93 440.23C1013.25 425.54 1017.01 410.1 1021.34 394.94C1026.91 375.49 1032.44 355.81 1040.29 337.5C1061.03 289.15 1088.51 260.27 1126.82 236.08C1151.69 220.38 1180.91 215.5 1211.56 212.3C1231.59 210.21 1249.74 207.69 1266.03 204.15C1303.3 196.05 1336.02 175.16 1363.08 140.22C1389.78 105.76 1392.17 65.4099 1424.99 37.2199C1461.46 5.89994 1511.94 -13.1301 1526.08 -60.4401" stroke="white" stroke-width="0.75" stroke-miterlimit="10" stroke-linecap="round" stroke-linejoin="round"/>
<path d="M804.53 621.84C826.24 598.69 862.85 579.19 886.74 565.85C900.56 558.14 914.34 550.94 927.8 542.84C931.84 540.41 935.79 537.84 939.87 535.48C976.75 514.12 994.68 477.36 1007.11 435.1C1011.41 420.47 1015.14 405.09 1019.42 390C1024.92 370.64 1030.31 351.02 1037.9 332.68C1057.81 284.58 1084.2 254.6 1121.81 229.51C1146.34 213.15 1175.39 208.17 1205.91 205.34C1225.8 203.5 1243.98 201.48 1260.4 198.55C1297.93 191.86 1331.64 172.61 1359.16 138.15C1386.26 104.21 1387.96 63.3199 1420.12 34.8699C1455.67 3.41989 1507.07 -15.2801 1521.21 -61.9901" stroke="white" stroke-width="0.75" stroke-miterlimit="10" stroke-linecap="round" stroke-linejoin="round"/>
<path d="M800.33 611.92C820.91 588.24 858.21 569.1 882.45 556.71C896.54 549.51 910.66 542.92 924.45 535.43C928.6 533.18 932.66 530.78 936.83 528.59C974.94 508.51 992.9 472.07 1005.29 429.97C1009.58 415.4 1013.27 400.09 1017.5 385.05C1022.93 365.78 1028.18 346.23 1035.51 327.85C1054.6 280.01 1079.88 248.91 1116.79 222.94C1140.99 205.91 1169.86 200.84 1200.26 198.38C1220 196.78 1238.22 195.27 1254.77 192.95C1292.55 187.67 1327.27 170.06 1355.24 136.07C1382.74 102.66 1383.75 61.22 1415.26 32.5C1449.9 0.919954 1502.22 -17.4501 1516.36 -63.5601" stroke="white" stroke-width="0.75" stroke-miterlimit="10" stroke-linecap="round" stroke-linejoin="round"/>
<path d="M796.14 602C815.6 577.79 853.59 559.02 878.16 547.57C892.52 540.88 906.99 534.9 921.1 528.02C925.36 525.95 929.53 523.73 933.79 521.7C973.14 502.92 991.13 466.78 1003.47 424.85C1007.74 410.35 1011.4 395.1 1015.57 380.12C1020.93 360.94 1026.04 341.45 1033.1 323.04C1051.37 275.46 1075.55 243.24 1111.76 216.39C1135.62 198.69 1164.32 193.53 1194.59 191.44C1214.18 190.09 1232.44 189.07 1249.11 187.37C1287.14 183.49 1322.86 167.52 1351.29 134.02C1379.19 101.14 1379.52 59.1599 1410.37 30.1699C1444.11 -1.53008 1497.33 -19.5801 1511.47 -65.0801" stroke="white" stroke-width="0.75" stroke-miterlimit="10" stroke-linecap="round" stroke-linejoin="round"/>
<path d="M791.94 592.08C810.28 567.34 848.95 548.94 873.86 538.43C888.49 532.26 903.3 526.88 917.74 520.61C922.1 518.71 926.39 516.68 930.74 514.81C971.32 497.35 989.34 461.5 1001.64 419.73C1005.89 405.29 1009.52 390.1 1013.64 375.19C1018.93 356.1 1023.9 336.67 1030.7 318.23C1048.16 270.91 1071.22 237.57 1106.73 209.84C1130.26 191.47 1158.79 186.21 1188.92 184.5C1208.37 183.39 1226.66 182.88 1243.46 181.8C1281.74 179.33 1318.46 165 1347.34 131.98C1375.64 99.6199 1375.29 57.0999 1405.48 27.8499C1438.31 -3.97012 1492.44 -21.7001 1506.59 -66.6001" stroke="white" stroke-width="0.75" stroke-miterlimit="10" stroke-linecap="round" stroke-linejoin="round"/>
<path d="M787.75 582.16C804.97 556.89 844.33 538.86 869.57 529.29C884.47 523.64 899.63 518.87 914.39 513.19C918.86 511.47 923.26 509.62 927.7 507.9C969.52 491.78 987.56 456.19 999.82 414.58C1004.06 400.2 1007.64 385.08 1011.72 370.23C1016.94 351.23 1021.77 331.86 1028.31 313.39C1044.96 266.33 1066.89 231.87 1101.72 203.25C1124.9 184.2 1153.27 178.86 1183.28 177.52C1202.58 176.66 1220.91 176.65 1237.84 176.18C1276.37 175.11 1314.09 162.43 1343.43 129.88C1372.13 98.0498 1371.1 54.9898 1400.62 25.4698C1432.55 -6.46017 1487.58 -23.8802 1501.73 -68.1802" stroke="white" stroke-width="0.75" stroke-miterlimit="10" stroke-linecap="round" stroke-linejoin="round"/>
<path d="M783.56 572.25C799.66 546.45 839.7 528.81 865.28 520.16C880.45 515.03 895.95 510.86 911.04 505.79C915.62 504.25 920.13 502.58 924.66 501.02C967.71 486.26 985.79 450.91 998 409.47C1002.22 395.15 1005.77 380.1 1009.79 365.31C1014.94 346.4 1019.64 327.1 1025.91 308.59C1041.75 261.79 1062.55 226.2 1096.69 196.71C1119.53 176.99 1147.73 171.56 1177.61 170.59C1196.76 169.97 1215.13 170.46 1232.19 170.61C1270.97 170.95 1309.69 159.9 1339.49 127.84C1368.58 96.5298 1366.89 52.9498 1395.74 23.1498C1426.77 -8.90017 1482.7 -26.0002 1496.86 -69.6902" stroke="white" stroke-width="0.75" stroke-miterlimit="10" stroke-linecap="round" stroke-linejoin="round"/>
<path d="M779.36 562.33C794.33 536 835.07 518.74 860.98 511.03C876.42 506.43 892.27 502.86 907.69 498.39C912.38 497.03 917 495.54 921.63 494.14C965.91 480.76 984.02 445.63 996.19 404.36C1000.39 390.11 1003.91 375.11 1007.88 360.39C1012.96 341.57 1017.53 322.33 1023.52 303.79C1038.56 257.25 1058.22 220.53 1091.68 190.17C1114.17 169.77 1142.22 164.25 1171.96 163.66C1190.97 163.28 1209.37 164.27 1226.56 165.04C1265.6 166.78 1305.31 157.37 1335.56 125.8C1365.05 95.0199 1362.69 50.8999 1390.87 20.8299C1421.01 -11.3301 1477.83 -28.1201 1491.99 -71.2101" stroke="white" stroke-width="0.75" stroke-miterlimit="10" stroke-linecap="round" stroke-linejoin="round"/>
<path d="M775.17 552.41C789.02 525.55 830.44 508.69 856.69 501.89C872.4 497.82 888.59 494.85 904.34 490.97C909.14 489.79 913.87 488.48 918.59 487.24C964.09 475.26 982.24 440.33 994.37 399.22C998.55 385.03 1002.04 370.1 1005.96 355.44C1010.97 336.71 1015.41 317.53 1021.13 298.95C1035.38 252.68 1053.87 214.81 1086.66 183.59C1108.79 162.51 1136.69 156.9 1166.3 156.69C1185.16 156.56 1203.6 158.05 1220.91 159.43C1260.2 162.57 1300.85 154.75 1331.62 123.71C1361.45 93.3898 1358.48 48.8098 1385.99 18.4498C1415.24 -13.8202 1472.95 -30.3002 1487.12 -72.7902" stroke="white" stroke-width="0.75" stroke-miterlimit="10" stroke-linecap="round" stroke-linejoin="round"/>
<path d="M770.97 542.49C783.7 515.1 825.8 498.63 852.39 492.75C868.37 489.21 884.9 486.84 900.98 483.56C905.88 482.56 910.73 481.44 915.54 480.35C962.25 469.78 980.46 435.05 992.53 394.1C996.7 379.97 1000.15 365.11 1004.01 350.51C1008.94 331.87 1013.26 312.76 1018.71 294.14C1032.17 248.13 1049.5 209.13 1081.62 177.03C1103.4 155.27 1131.15 149.57 1160.63 149.74C1179.35 149.85 1197.83 151.81 1215.26 153.85C1254.82 158.32 1296.45 152.22 1327.68 121.66C1357.91 91.8699 1354.28 46.7499 1381.11 16.1199C1409.47 -16.2601 1468.08 -32.4301 1482.24 -74.3201" stroke="white" stroke-width="0.75" stroke-miterlimit="10" stroke-linecap="round" stroke-linejoin="round"/>
<path d="M766.78 532.57C778.39 504.65 821.16 488.58 848.1 483.61C864.35 480.61 881.22 478.83 897.63 476.15C902.64 475.33 907.6 474.4 912.5 473.46C960.42 464.31 978.68 429.76 990.71 388.98C994.86 374.91 998.28 360.11 1002.09 345.58C1006.95 327.03 1011.15 307.98 1016.32 289.33C1029 243.58 1045.15 203.45 1076.61 170.48C1098.03 148.04 1125.63 142.25 1154.98 142.8C1173.55 143.15 1192.07 145.62 1209.63 148.27C1249.44 154.15 1292.08 149.68 1323.75 119.6C1354.39 90.3399 1350.09 44.6899 1376.23 13.7799C1403.7 -18.7001 1463.2 -34.5701 1477.37 -75.8501" stroke="white" stroke-width="0.75" stroke-miterlimit="10" stroke-linecap="round" stroke-linejoin="round"/>
<path d="M762.58 522.65C773.06 494.2 816.52 478.54 843.8 474.47C860.32 472 877.53 470.82 894.27 468.73C899.39 468.09 904.45 467.34 909.45 466.56C958.56 458.85 976.89 424.46 988.88 383.85C993.01 369.85 996.4 355.11 1000.16 340.64C1004.95 322.18 1009.03 303.2 1013.92 284.51C1025.82 239.02 1040.78 197.75 1071.58 163.92C1092.63 140.8 1120.1 134.87 1149.31 135.85C1167.74 136.41 1186.3 139.42 1203.98 142.68C1244.05 149.97 1287.69 147.14 1319.81 117.54C1350.85 88.8099 1345.89 42.6399 1371.35 11.4399C1397.94 -21.1501 1458.32 -36.7101 1472.49 -77.3901" stroke="white" stroke-width="0.75" stroke-miterlimit="10" stroke-linecap="round" stroke-linejoin="round"/>
<path d="M758.39 512.73C767.75 483.75 811.88 468.5 839.51 465.33C856.29 463.4 873.86 462.85 890.92 461.32C896.14 460.87 901.32 460.3 906.41 459.67C956.71 453.41 975.12 419.17 987.06 378.72C991.18 364.78 994.53 350.1 998.23 335.7C1002.95 317.33 1006.91 298.41 1011.51 279.69C1022.63 234.47 1036.4 192.05 1066.55 157.36C1087.23 133.55 1114.56 127.55 1143.65 128.91C1161.93 129.72 1180.53 133.23 1198.33 137.1C1238.66 145.81 1283.29 144.61 1315.87 115.49C1347.32 87.2898 1341.7 40.5898 1366.47 9.10983C1392.19 -23.5802 1453.44 -38.8402 1467.61 -78.9202" stroke="white" stroke-width="0.75" stroke-miterlimit="10" stroke-linecap="round" stroke-linejoin="round"/>
<path d="M754.2 502.81C762.44 473.29 807.24 458.46 835.22 456.19C852.26 454.81 870.17 454.83 887.57 453.91C892.9 453.64 898.18 453.26 903.37 452.78C954.84 447.98 973.34 413.88 985.24 373.6C989.34 359.72 992.66 345.11 996.31 330.77C1000.96 312.49 1004.83 293.64 1009.12 274.88C1019.55 229.93 1031.98 186.32 1061.53 150.8C1081.8 126.28 1109.04 120.24 1137.99 121.96C1156.13 123.01 1174.76 127.03 1192.69 131.51C1233.27 141.63 1278.91 142.07 1311.93 113.42C1343.78 85.7499 1337.56 38.5599 1361.59 6.7599C1386.48 -26.0001 1448.56 -40.9901 1462.74 -80.4601" stroke="white" stroke-width="0.75" stroke-miterlimit="10" stroke-linecap="round" stroke-linejoin="round"/>
<path d="M750 492.89C757.12 462.84 802.58 448.42 830.92 447.05C853.53 445.95 877.77 447.31 900.32 445.88C971.08 441.39 980.32 381.57 994.37 325.83C1009.86 264.38 1015.51 195.99 1056.5 144.24C1088.88 103.35 1140.07 112.66 1187.04 125.92C1227.88 137.45 1274.52 139.53 1307.99 111.36C1340.25 84.2099 1333.33 36.4699 1356.7 4.41988C1380.68 -28.4701 1443.67 -43.1301 1457.85 -82.0001" stroke="white" stroke-width="0.75" stroke-miterlimit="10" stroke-linecap="round" stroke-linejoin="round"/>
</g>
</g>
<path opacity="0.24" d="M1857.97 532.94C1912.63 532.94 1956.94 488.63 1956.94 433.97C1956.94 379.31 1912.63 335 1857.97 335C1803.31 335 1759 379.31 1759 433.97C1759 488.63 1803.31 532.94 1857.97 532.94Z" fill="white"/>
</g>
</g>
</g>
<defs>
<linearGradient id="paint0_linear_1201_102" x1="-121.24" y1="-125.987" x2="86.6952" y2="135.265" gradientUnits="userSpaceOnUse">
<stop offset="0.00072338" stop-color="#60E4FF"/>
<stop offset="0.9893" stop-color="#2C0063"/>
</linearGradient>
</defs>
</svg>
