<svg width="93" height="91" viewBox="0 0 93 91" fill="none" xmlns="http://www.w3.org/2000/svg">
<path d="M13.0391 77.6477H27.0036V88.6333H13.0391V77.6477Z" fill="#DAE8F0"/>
<path d="M46.0547 77.6475H60.0193V88.6331H46.0547V77.6475Z" fill="#DAE8F0"/>
<path d="M7.77344 9.82324H86.3584V18.9416H7.77344V9.82324Z" fill="#DAE8F0"/>
<path d="M65.834 24.7544H75.2793V70.6731H65.834V24.7544Z" fill="#5BBE88"/>
<path d="M60.0215 76.4851H76.1875V88.6332H60.0215V76.4851Z" fill="#DAE8F0"/>
<path d="M18.8537 25.7422H32.1789V39.0673H18.8537V25.7422Z" fill="#7166F0"/>
<path d="M40.8848 25.7422H54.2099V39.0673H40.8848V25.7422Z" fill="#7166F0"/>
<path d="M18.8537 45.7112H32.1789V59.0363H18.8537V45.7112Z" fill="#7166F0"/>
<path d="M40.8848 45.7112H54.2099V59.0363H40.8848V45.7112Z" fill="#7166F0"/>
<path d="M25.043 1.45312H69.0872V9.82312H25.043V1.45312Z" fill="#DAE8F0"/>
<path d="M91.5469 87.1733H77.6414V77.938H81.0926C81.8958 77.938 82.5457 77.2874 82.5457 76.4849V20.3941H86.3602C87.1634 20.3941 87.8133 19.7435 87.8133 18.941V9.82278C87.8133 9.02029 87.1634 8.36965 86.3602 8.36965H70.5418V1.45313C70.5418 0.650637 69.8919 0 69.0887 0H25.0451C24.2419 0 23.592 0.650637 23.592 1.45313V8.36967H7.77508C6.97189 8.36967 6.32195 9.0203 6.32195 9.82279V18.941C6.32195 19.7435 6.97189 20.3941 7.77508 20.3941H11.5895V87.1733H1.45312C0.649939 87.1733 0 87.824 0 88.6264C0 89.4289 0.649939 90.0796 1.45312 90.0796C38.6949 90.0889 46.2846 90.0858 91.5469 90.0796C92.3501 90.0796 93 89.4289 93 88.6264C93 87.824 92.3501 87.1733 91.5469 87.1733ZM74.7352 87.1733H61.4754V77.938H74.7352V87.1733ZM44.6041 87.1733H28.4594V76.2089C28.4594 71.7537 32.078 68.1294 36.5254 68.1294C40.9336 68.1294 44.6041 71.6707 44.6041 76.2089V87.1733ZM79.6395 75.0318C73.1862 75.0318 72.6072 75.0318 61.4754 75.0318V20.3941H79.6395V75.0318ZM26.4982 2.90625H67.6356V8.36967H26.4982V2.90625ZM9.2282 11.2759H84.9071V17.4879C49.5989 17.4879 43.7208 17.4879 9.2282 17.4879V11.2759ZM14.4958 20.3941H58.5692V87.1733H47.5104V76.2089C47.5104 70.0725 42.5485 65.2232 36.5254 65.2232C30.4759 65.2232 25.5532 70.1516 25.5532 76.2089V87.1733H14.4958V20.3941Z" fill="#7E8BA0"/>
</svg>
