<svg width="98" height="98" viewBox="0 0 98 98" fill="none" xmlns="http://www.w3.org/2000/svg">
<path d="M43.0978 39.8723H51.2619V48.0364H43.0978V39.8723Z" fill="#7166F0"/>
<path d="M56.8557 39.8723H65.0198V48.0364H56.8557V39.8723Z" fill="#7166F0"/>
<path d="M43.0976 53.6501H51.2617V61.8143H43.0976V53.6501Z" fill="#7166F0"/>
<path d="M56.8555 53.6501H65.0196V61.8143H56.8555V53.6501Z" fill="#7166F0"/>
<path d="M43.0976 67.428H51.2617V75.5921H43.0976V67.428Z" fill="#7166F0"/>
<path d="M56.8555 67.428H65.0196V75.5921H56.8555V67.428Z" fill="#7166F0"/>
<path d="M43.0976 81.2041H51.2617V89.3682H43.0976V81.2041Z" fill="#7166F0"/>
<path d="M56.8555 81.2041H65.0196V89.3682H56.8555V81.2041Z" fill="#7166F0"/>
<path d="M24.7207 49.3035H44.1668V95.5844H24.7207V49.3035Z" fill="#DAE8F0"/>
<path d="M39.8518 21.4338H68.2691V33.6641H39.8518V21.4338Z" fill="#DAE8F0"/>
<path d="M43.4749 12.2151H64.646V21.4337H43.4749V12.2151Z" fill="#DAE8F0"/>
<path d="M95.5844 94.067H86.5759V80.6892C86.5759 79.8513 85.8973 79.172 85.0587 79.172C84.2201 79.172 83.5415 79.8513 83.5415 80.6892V94.067H73.8989V33.6587C73.8989 32.8208 73.2203 32.1414 72.3817 32.1414H69.7859V21.4343C69.7859 20.5964 69.1072 19.9171 68.2686 19.9171H66.1632V12.2147C66.1632 11.3768 65.4846 10.6975 64.646 10.6975H55.5768V1.51721C55.5768 0.679331 54.8982 0 54.0596 0C53.221 0 52.5424 0.679331 52.5424 1.51721V10.6975H43.4747C42.6361 10.6975 41.9575 11.3768 41.9575 12.2147V19.9171H39.8521C39.0135 19.9171 38.3349 20.5964 38.3349 21.4343V32.1414H35.739C34.9004 32.1414 34.2218 32.8208 34.2218 33.6587V47.7862H24.72C23.8814 47.7862 23.2028 48.4655 23.2028 49.3034V94.067H13.5602V80.6892C13.5602 79.8513 12.8816 79.172 12.043 79.172C11.2044 79.172 10.5258 79.8513 10.5258 80.6892V94.067H1.51733C0.678725 94.067 0.00012207 94.7464 0.00012207 95.5842C0.00012207 96.4221 0.678725 97.1014 1.51733 97.1014H95.5844C96.423 97.1014 97.1016 96.4221 97.1016 95.5842C97.1016 94.7464 96.423 94.067 95.5844 94.067ZM66.7514 32.1414H61.739V22.9515C62.0113 22.9515 66.9684 22.9515 66.7514 22.9515V32.1414ZM58.7046 32.1414H49.4132V22.9515H58.7046V32.1414ZM44.9919 13.7319H63.1288V19.9171C55.302 19.9171 53.103 19.9171 44.9919 19.9171V13.7319ZM41.3693 22.9515C41.9449 22.9515 46.5345 22.9515 46.3787 22.9515V32.1414H41.3693V22.9515ZM26.2372 50.8206H42.6494V94.067H26.2372V50.8206ZM45.6838 94.067V49.3034C45.6838 48.4655 45.0052 47.7862 44.1666 47.7862H37.2562V35.1759C39.6065 35.1759 71.0717 35.1757 70.8645 35.1759V94.067H45.6838Z" fill="#7E8BA0"/>
<path d="M37.9379 59.3564H30.9489C30.1103 59.3564 29.4317 60.0358 29.4317 60.8737C29.4317 61.7115 30.1103 62.3909 30.9489 62.3909H37.9379C38.7765 62.3909 39.4551 61.7115 39.4551 60.8737C39.4551 60.0358 38.7765 59.3564 37.9379 59.3564Z" fill="#7E8BA0"/>
<path d="M37.9379 70.9268H30.9489C30.1103 70.9268 29.4317 71.6061 29.4317 72.444C29.4317 73.2818 30.1103 73.9612 30.9489 73.9612H37.9379C38.7765 73.9612 39.4551 73.2818 39.4551 72.444C39.4551 71.6061 38.7765 70.9268 37.9379 70.9268Z" fill="#7E8BA0"/>
<path d="M37.9379 82.4968H30.9489C30.1103 82.4968 29.4317 83.1762 29.4317 84.014C29.4317 84.8519 30.1103 85.5312 30.9489 85.5312H37.9379C38.7765 85.5312 39.4551 84.8519 39.4551 84.014C39.4551 83.1762 38.7765 82.4968 37.9379 82.4968Z" fill="#7E8BA0"/>
<path d="M89.8118 68.6877V77.7838C89.8118 80.4153 87.6822 82.5449 85.066 82.5449H85.0508C82.4345 82.5449 80.305 80.4153 80.305 77.7838V68.6877C80.305 66.0714 82.4345 63.9419 85.0508 63.9419H85.066C87.6822 63.9419 89.8118 66.0714 89.8118 68.6877Z" fill="#5BBE88"/>
<path d="M16.796 68.6877V77.7838C16.796 80.4153 14.6665 82.5449 12.0502 82.5449H12.035C9.41876 82.5449 7.28918 80.4153 7.28918 77.7838V68.6877C7.28918 66.0714 9.41876 63.9419 12.035 63.9419H12.0502C14.6665 63.9419 16.796 66.0714 16.796 68.6877Z" fill="#5BBE88"/>
</svg>
