<svg width="99" height="93" viewBox="0 0 99 93" fill="none" xmlns="http://www.w3.org/2000/svg">
<path d="M7.45508 79.959H32.1001V91.4985H7.45508V79.959Z" fill="#DAE8F0"/>
<path d="M66.8984 79.959H91.5434V91.4985H66.8984V79.959Z" fill="#DAE8F0"/>
<path d="M32.0996 82.71H41.4596V91.5H32.0996V82.71Z" fill="#DAE8F0"/>
<path d="M57.541 82.7102H66.901V91.5002H57.541V82.7102Z" fill="#DAE8F0"/>
<path d="M38.1017 27.6194H60.8972V35.6474H38.1017V27.6194Z" fill="#7166F0"/>
<path d="M38.1017 40.3337H60.8972V48.3617H38.1017V40.3337Z" fill="#7166F0"/>
<path d="M35.4705 11.1631H63.531V21.6196H35.4705V11.1631Z" fill="#DAE8F0"/>
<path d="M24.5361 46.4612H15.0234C14.1943 46.4612 13.5234 47.1328 13.5234 47.9612C13.5234 48.7896 14.1943 49.4612 15.0234 49.4612H24.5361C25.3652 49.4612 26.0361 48.7896 26.0361 47.9612C26.0361 47.1328 25.3652 46.4612 24.5361 46.4612Z" fill="#7E8BA0"/>
<path d="M24.5361 58.7207H15.0234C14.1943 58.7207 13.5234 59.3923 13.5234 60.2207C13.5234 61.0491 14.1943 61.7207 15.0234 61.7207H24.5361C25.3652 61.7207 26.0361 61.0491 26.0361 60.2207C26.0361 59.3923 25.3652 58.7207 24.5361 58.7207Z" fill="#7E8BA0"/>
<path d="M24.5361 70.9797H15.0234C14.1943 70.9797 13.5234 71.6514 13.5234 72.4797C13.5234 73.3081 14.1943 73.9797 15.0234 73.9797H24.5361C25.3652 73.9797 26.0361 73.3081 26.0361 72.4797C26.0361 71.6514 25.3652 70.9797 24.5361 70.9797Z" fill="#7E8BA0"/>
<path d="M24.5361 83.239H15.0234C14.1943 83.239 13.5234 83.9106 13.5234 84.739C13.5234 85.5674 14.1943 86.239 15.0234 86.239H24.5361C25.3652 86.239 26.0361 85.5674 26.0361 84.739C26.0361 83.9106 25.3652 83.239 24.5361 83.239Z" fill="#7E8BA0"/>
<path d="M83.4477 82.0564H74.9941C74.165 82.0564 73.4941 82.728 73.4941 83.5564C73.4941 84.3848 74.165 85.0564 74.9941 85.0564H83.4477C84.2768 85.0564 84.9477 84.3848 84.9477 83.5564C84.9477 82.728 84.2768 82.0564 83.4477 82.0564Z" fill="#7E8BA0"/>
<path d="M83.4477 69.4385H74.9941C74.165 69.4385 73.4941 70.1101 73.4941 70.9385C73.4941 71.7669 74.165 72.4385 74.9941 72.4385H83.4477C84.2768 72.4385 84.9477 71.7669 84.9477 70.9385C84.9477 70.1101 84.2768 69.4385 83.4477 69.4385Z" fill="#7E8BA0"/>
<path d="M83.4477 56.822H74.9941C74.165 56.822 73.4941 57.4936 73.4941 58.322C73.4941 59.1504 74.165 59.822 74.9941 59.822H83.4477C84.2768 59.822 84.9477 59.1504 84.9477 58.322C84.9477 57.4936 84.2768 56.822 83.4477 56.822Z" fill="#7E8BA0"/>
<path d="M97.5 90H93.044V54.7632C93.044 54.2161 92.7466 53.7129 92.2676 53.4492L80.9326 47.2114V26.4815C80.9326 25.6531 80.2617 24.9815 79.4326 24.9815H68.3994V21.6196C68.3994 20.7913 67.7285 20.1196 66.8994 20.1196H65.0303V11.1629C65.0303 10.3345 64.3594 9.66285 63.5303 9.66285H51V1.5C51 0.671625 50.3291 0 49.5 0C48.6709 0 48 0.671625 48 1.5V9.66283H35.4697C34.6406 9.66283 33.9697 10.3345 33.9697 11.1628V20.1196C33.3717 20.2389 30.602 19.5436 30.602 21.6196V39.7009H7.45752C6.62843 39.7009 5.95752 40.3725 5.95752 41.2009V90H1.5C0.670905 90 0 90.6716 0 91.5C0 92.3284 0.670905 93 1.5 93H97.5C98.3291 93 99 92.3284 99 91.5C99 90.6716 98.3291 90 97.5 90ZM77.9326 27.9815V45.5605L68.3994 40.3142V27.9815H77.9326ZM36.9697 12.6628H62.0303V20.1196H36.9697V12.6628ZM8.95752 42.7009H30.6021V90H8.95752V42.7009ZM33.6021 23.1196H65.3994V90H59.0361V63.2512C59.0361 62.4228 58.3652 61.7512 57.5361 61.7512H41.4668C40.6377 61.7512 39.9668 62.4228 39.9668 63.2512V90H33.6021C33.6021 74.1919 33.6021 38.8311 33.6021 23.1196ZM42.9668 64.7512H48.0015V90H42.9668V64.7512ZM51.0015 90V64.7512H56.0361V90H51.0015ZM68.3994 90V43.7388L90.044 55.6502V90H68.3994Z" fill="#7E8BA0"/>
</svg>
