<svg width="93" height="96" viewBox="0 0 93 96" fill="none" xmlns="http://www.w3.org/2000/svg">
<path d="M18.3022 39.7253L10.7034 57.5654H1.49222L9.091 39.7253H18.3022Z" fill="#DAE8F0"/>
<path d="M74.3555 39.7251L81.9543 57.5652H91.1655L83.5667 39.7251H74.3555Z" fill="#DAE8F0"/>
<path d="M11.7498 69.0525H22.7584V82.6751H11.7498V69.0525Z" fill="#DAE8F0"/>
<path d="M69.8962 69.0525H80.9048V82.6751H69.8962V69.0525Z" fill="#DAE8F0"/>
<path d="M46.3242 22.4551L65.1054 34.3795V21.121L46.3242 9.45557L27.543 21.121V34.3795L46.3242 22.4551Z" fill="#DAE8F0"/>
<path d="M91.1598 92.5593H88.3781V59.0553H91.1656C91.6671 59.0553 92.1351 58.8038 92.4106 58.3854C92.6876 57.9677 92.7357 57.4384 92.5389 56.9778L84.9462 39.1454C84.7114 38.5943 84.172 38.2372 83.5728 38.2372H65.4117V35.8364C66.1468 35.6839 66.6014 35.0515 66.6014 34.3796V21.1207C66.6014 20.6046 66.3346 20.1249 65.8958 19.8523L47.8192 8.62514V1.49289C47.8192 0.668443 47.1515 0 46.3263 0C45.5012 0 44.8334 0.668443 44.8334 1.49289V8.62514L26.7584 19.8523C26.3195 20.1249 26.0527 20.6046 26.0527 21.1207V34.3796C26.0527 34.9241 26.3487 35.4256 26.8269 35.688C26.958 35.76 27.0974 35.8044 27.2395 35.8342V38.2372H9.09149C8.49229 38.2372 7.95283 38.5943 7.71815 39.1454L0.125388 56.9778C-0.0714646 57.4384 -0.023319 57.9677 0.253687 58.3854C0.52923 58.8038 0.997223 59.0553 1.49873 59.0553H4.28769V92.5593H1.49289C0.667726 92.5593 0 93.2278 0 94.0522C0 94.8767 0.667726 95.5451 1.49289 95.5451H91.1598C91.9849 95.5451 92.6526 94.8767 92.6526 94.0522C92.6526 93.2278 91.9849 92.5593 91.1598 92.5593ZM27.238 92.5579H7.27348V59.1712H27.238V92.5579ZM46.3263 24.2231L62.4259 34.4449V92.5579H56.2036V72.7909C56.2036 71.9664 55.5359 71.298 54.7107 71.298H37.939C37.1138 71.298 36.4461 71.9664 36.4461 72.7909V92.5579H30.2238C30.2238 -0.873307 30.2231 89.2587 30.2253 34.4467L46.3263 24.2231ZM65.4117 59.1712H85.3923V92.5579H65.4117V59.1712ZM47.8178 74.2838H53.2178V92.5579H47.8178V74.2838ZM44.832 92.5579H39.4319V74.2838H44.832V92.5579ZM88.9073 56.0695H65.4117V41.2229H82.5858L88.9073 56.0695ZM29.0385 21.9509L46.3263 11.2127L63.6156 21.9509V31.6635L47.1267 21.1943C46.8818 21.039 46.6048 20.9617 46.3263 20.9617C46.0479 20.9617 45.7709 21.039 45.5259 21.1943L29.0385 31.6635V21.9509ZM10.0785 41.2229H27.238V56.0695H3.75701L10.0785 41.2229Z" fill="#7E8BA0"/>
<path d="M11.7527 84.1685H22.7613C23.5864 84.1685 24.2542 83.5 24.2542 82.6756V69.053C24.2542 68.2285 23.5864 67.5601 22.7613 67.5601H11.7527C10.9275 67.5601 10.2598 68.2285 10.2598 69.053V82.6756C10.2598 83.5 10.9275 84.1685 11.7527 84.1685ZM13.2456 70.5458H21.2684V81.1827H13.2456V70.5458Z" fill="#7E8BA0"/>
<path d="M80.9058 67.5601H69.8972C69.072 67.5601 68.4043 68.2285 68.4043 69.053V82.6756C68.4043 83.5 69.072 84.1685 69.8972 84.1685H80.9058C81.731 84.1685 82.3987 83.5 82.3987 82.6756V69.053C82.3987 68.2285 81.731 67.5601 80.9058 67.5601ZM79.4129 81.1827H71.3901V70.5458H79.4129V81.1827Z" fill="#7E8BA0"/>
<path d="M54.4798 42.6952C54.4798 47.1855 50.851 50.8273 46.3606 50.8273C41.8702 50.8273 38.2285 47.1855 38.2285 42.6952C38.2285 38.2049 41.8702 34.563 46.3606 34.563C50.851 34.563 54.4798 38.2049 54.4798 42.6952Z" fill="#7166F0"/>
</svg>
