<svg width="37" height="37" viewBox="0 0 37 37" fill="none" xmlns="http://www.w3.org/2000/svg">
<path d="M17.0079 24.7201C17.2767 24.4507 17.2767 24.0148 17.0079 23.7454C16.7388 23.4768 16.3028 23.4768 16.0335 23.7454C15.7649 24.0148 15.7649 24.4507 16.0335 24.7201C16.3028 24.9887 16.7388 24.9887 17.0079 24.7201Z" fill="#7166F0"/>
<path d="M13.7461 8.37245C13.7461 12.5498 17.1446 15.9485 21.3219 15.9485C25.4992 15.9485 28.8978 12.5498 28.8978 8.37245C28.8978 4.19514 25.4992 0.796616 21.3219 0.796616C17.1446 0.796616 13.7461 4.19514 13.7461 8.37245ZM27.5205 8.37245C27.5205 11.7903 24.7398 14.571 21.3219 14.571C17.904 14.571 15.1234 11.7903 15.1234 8.37245C15.1234 4.95482 17.904 2.17416 21.3219 2.17416C24.7398 2.17416 27.5205 4.95482 27.5205 8.37245Z" fill="#7166F0"/>
<path d="M8.72974 35.8649C8.99669 36.1341 9.4313 36.137 9.70175 35.8706L13.0408 32.5811C13.6081 32.0138 13.7806 31.1739 13.5311 30.4438L14.2493 29.7512C14.636 29.3776 15.1452 29.1718 15.6834 29.1718H24.8391C26.4635 29.1718 27.9987 28.548 29.1626 27.4153C29.2105 27.3688 28.799 27.8534 35.4088 19.9536C36.3891 18.7938 36.2425 17.0521 35.0815 16.0707C33.9279 15.0984 32.1997 15.2381 31.2167 16.378L27.1526 20.555C26.6395 19.9235 25.8569 19.5298 25.0114 19.5298H17.3314C16.2386 19.0726 15.079 18.8411 13.8826 18.8411C10.5661 18.8411 7.67028 20.3729 6.1162 23.2447C5.46147 23.1207 4.77094 23.3188 4.27418 23.8155L0.997829 27.1016C0.730339 27.3699 0.729801 27.8039 0.996753 28.073L8.72974 35.8649ZM13.8823 20.2184C14.9372 20.2184 15.9571 20.4307 16.9143 20.8494C17.0015 20.8877 17.0954 20.9073 17.1904 20.9073H25.0114C25.7581 20.9073 26.3889 21.5163 26.3889 22.2846C26.3889 23.0443 25.7711 23.6621 25.0114 23.6621H19.3922C19.012 23.6621 18.7036 23.9705 18.7036 24.3508C18.7036 24.7313 19.012 25.0394 19.3922 25.0394H25.0114C26.5305 25.0394 27.7662 23.8037 27.7662 22.2846C27.7662 22.1635 27.7576 22.0435 27.742 21.9245C31.6733 17.8834 32.2277 17.3156 32.2514 17.2873C32.7422 16.7079 33.6136 16.6345 34.1932 17.1232C34.7734 17.6137 34.8469 18.4846 34.3547 19.0672L28.1774 26.4519C27.2754 27.3179 26.091 27.7945 24.8391 27.7945H15.6834C14.7862 27.7945 13.9369 28.1376 13.2927 28.76L12.7074 29.3249L7.31183 23.9296C8.57285 21.5639 10.9391 20.2184 13.8823 20.2184ZM5.24887 24.7889C5.476 24.5617 5.82476 24.5208 6.10167 24.692C6.22088 24.7647 5.87858 24.453 12.0669 30.6327C12.3422 30.908 12.3274 31.3467 12.0707 31.6034L9.22409 34.4077L2.45691 27.5889L5.24887 24.7889Z" fill="#7166F0"/>
<path d="M20.4938 4.24032V5.04737C19.6922 5.33154 19.1163 6.09714 19.1163 6.99515C19.1163 8.13426 20.0431 9.06133 21.1825 9.06133C21.5622 9.06133 21.8711 9.37026 21.8711 9.74997C21.8711 10.1297 21.5622 10.4386 21.1825 10.4386C20.8883 10.4386 20.5705 10.2537 20.2882 9.91762C20.0434 9.62645 19.609 9.58904 19.3178 9.83366C19.0267 10.0785 18.989 10.5129 19.2339 10.8041C19.602 11.2419 20.035 11.547 20.4938 11.701V12.5048C20.4938 12.8853 20.8022 13.1934 21.1825 13.1934C21.5627 13.1934 21.8711 12.8853 21.8711 12.5048V11.6977C22.6728 11.4133 23.2487 10.6477 23.2487 9.74997C23.2487 8.61058 22.3219 7.68378 21.1825 7.68378C20.8028 7.68378 20.4938 7.37485 20.4938 6.99515C20.4938 6.61544 20.8028 6.30624 21.1825 6.30624C21.4266 6.30624 21.6841 6.43083 21.9274 6.6663C22.2008 6.93083 22.6367 6.92356 22.9012 6.65042C23.1658 6.37701 23.1585 5.94106 22.8854 5.67653C22.5358 5.33827 22.186 5.14694 21.8711 5.04252V4.24032C21.8711 3.85981 21.5627 3.55141 21.1825 3.55141C20.8022 3.55141 20.4938 3.85981 20.4938 4.24032Z" fill="#7166F0"/>
</svg>
