<svg width="39" height="36" viewBox="0 0 39 36" fill="none" xmlns="http://www.w3.org/2000/svg">
<path d="M32.5161 26.8103C33.5362 27.0884 34.4731 27.4542 35.3028 28.049C37.7193 29.7814 38.4227 32.2143 38.1595 35.0397C38.1193 35.4635 37.8665 35.7178 37.4427 35.7639C37.1721 35.7922 36.8985 35.7847 36.6263 35.7847C24.9306 35.7862 13.2348 35.7862 1.53911 35.7847C0.0832765 35.7847 9.67275e-07 35.6985 9.67275e-07 34.2114C-0.00148609 30.3287 1.71161 28.0267 5.44265 26.8906C5.50659 26.8713 5.56012 26.8177 5.62704 26.7746C2.89531 25.1686 1.97333 23.4659 2.58005 21.1758C3.09904 19.2189 4.87161 17.8463 6.89551 17.8344C9.00416 17.8225 10.7767 19.1281 11.3374 21.1074C11.9887 23.4079 11.0771 25.1255 8.2636 26.8073C9.56032 27.1568 10.7485 27.6193 11.7195 28.507C11.9114 28.6825 12.0705 28.6171 12.2222 28.4357C13.6393 26.7315 15.4863 25.7634 17.7064 25.3322C14.075 23.6711 12.5344 21.2115 13.1813 18.1987C13.7776 15.4194 16.1257 13.4149 18.8336 13.3747C21.8568 13.3301 24.2778 15.1592 24.9469 17.9935C25.6845 21.1208 24.2614 23.4942 20.4902 25.3396C22.7045 25.7604 24.5454 26.7404 25.9626 28.4461C26.1574 28.6795 26.3254 28.6305 26.5247 28.455C27.4764 27.6163 28.6066 27.1375 29.9688 26.8207C27.2207 25.5032 25.9834 23.5298 27.0318 20.6122C27.7069 18.7311 29.6059 17.6887 31.7398 17.8463C33.5154 17.9772 35.1764 19.4389 35.6196 21.2606C36.1668 23.512 35.3147 25.0571 32.5161 26.8103ZM19.1013 34.1891C21.3036 34.1891 23.5045 34.1757 25.7068 34.1995C26.2451 34.2055 26.434 34.0984 26.3805 33.4976C26.0236 29.5212 22.3476 26.501 18.3786 26.9635C14.7799 27.3828 12.0913 30.0833 11.7983 33.5229C11.7522 34.0701 11.9054 34.204 12.4229 34.198C14.649 34.1772 16.8752 34.1891 19.1013 34.1891ZM23.4807 19.3765C23.4852 17.0329 21.5029 15.0298 19.1296 14.9792C16.7845 14.9302 14.7011 16.9927 14.6966 19.3676C14.6922 21.7112 16.6744 23.7142 19.0478 23.7648C21.3929 23.8154 23.4762 21.7528 23.4807 19.3765ZM5.85308 34.1876C7.068 34.1876 8.28145 34.1772 9.49638 34.1936C9.93357 34.1995 10.1195 34.0449 10.1269 33.5928C10.1418 32.6663 10.3455 31.7578 10.7425 30.9324C11.0608 30.2722 10.8912 29.8796 10.3455 29.5063C8.54763 28.2795 6.64122 28.0044 4.65004 28.9323C2.7243 29.8305 1.76663 31.4187 1.60305 33.5184C1.56588 33.9854 1.7012 34.204 2.20977 34.195C3.4247 34.1727 4.63963 34.1876 5.85308 34.1876ZM32.2499 34.1876C33.4886 34.1876 34.7288 34.1772 35.9676 34.1936C36.4033 34.1995 36.61 34.0597 36.5787 33.5928C36.43 31.3994 35.4278 29.7532 33.392 28.8729C31.3235 27.9776 29.3784 28.3182 27.6043 29.6967C27.237 29.9822 27.1567 30.2781 27.3575 30.7213C27.7575 31.6061 28.0207 32.5414 28.0445 33.5169C28.0564 34.0374 28.2512 34.2069 28.7568 34.195C29.9197 34.1713 31.084 34.1891 32.2499 34.1876ZM9.82948 22.3298C9.82353 20.7297 8.52532 19.4538 6.93268 19.4821C5.34896 19.5103 4.1147 20.7535 4.10875 22.3283C4.1028 23.9373 5.36829 25.2162 6.96837 25.2162C8.56696 25.2162 9.83543 23.9373 9.82948 22.3298ZM28.3479 22.3774C28.3583 23.9745 29.6654 25.2504 31.2565 25.2132C32.8432 25.176 34.0656 23.9328 34.0686 22.3551C34.0716 20.7505 32.7942 19.4717 31.1971 19.4806C29.594 19.488 28.3374 20.7654 28.3479 22.3774Z" fill="white"/>
<path d="M15.0499 10.4139C15.1689 9.72687 15.276 8.99226 15.4306 8.26657C15.5496 7.70744 15.4514 7.26578 15.0038 6.87171C14.4477 6.38098 13.9406 5.83523 13.4112 5.31476C13.1212 5.03073 12.9933 4.69763 13.1227 4.30356C13.2476 3.92436 13.5748 3.79498 13.9287 3.73996C14.6618 3.62546 15.3934 3.48567 16.131 3.43214C16.702 3.3905 17.0277 3.13621 17.2508 2.62764C17.5497 1.94954 17.8991 1.29226 18.2293 0.62754C18.4018 0.278081 18.6293 0 19.068 0C19.5022 0 19.7386 0.266184 19.9111 0.620105C20.2561 1.33241 20.6115 2.04025 20.9402 2.76147C21.1246 3.16595 21.4175 3.35927 21.8517 3.41132C22.5878 3.49906 23.321 3.61802 24.0541 3.7236C24.4898 3.78606 24.8898 3.91395 25.0341 4.38832C25.1679 4.83444 24.9047 5.14969 24.6162 5.43075C24.0853 5.94973 23.5529 6.46723 23.0027 6.96688C22.683 7.25686 22.5447 7.54535 22.6533 8.00634C22.8392 8.79894 22.9537 9.60939 23.0696 10.4169C23.1946 11.2764 22.5789 11.7404 21.7848 11.3701C21.0681 11.0355 20.3662 10.6652 19.6791 10.2726C19.2702 10.0392 18.9118 10.0168 18.4984 10.2503C17.7861 10.6503 17.0694 11.0444 16.3288 11.3864C15.5704 11.7344 14.9919 11.2942 15.0499 10.4139ZM19.062 2.78081C18.5698 4.48498 17.5184 5.26568 15.7414 5.1036C15.902 5.34599 15.9362 5.44562 16.0061 5.49915C17.0084 6.26796 17.5571 7.16318 17.0842 8.49558C16.8879 9.04579 17.2805 9.07256 17.6553 8.82125C18.5237 8.23832 19.3817 8.00783 20.3082 8.72013C20.497 8.86586 20.7736 9.13353 21.0294 8.92386C21.2435 8.74838 21.0636 8.44651 20.9922 8.22494C20.6859 7.25835 20.9134 6.494 21.7387 5.88281C21.9603 5.71924 22.222 5.54228 22.3217 5.10806C20.6457 5.25081 19.5557 4.52662 19.062 2.78081Z" fill="white"/>
<path d="M3.31389 14.0884C4.0143 12.7739 3.35553 11.7419 2.18075 10.7797C1.57849 10.286 1.8759 9.42502 2.67148 9.38338C4.17044 9.30457 5.10729 8.69339 5.63222 7.24201C5.92963 6.41967 6.87689 6.45238 7.1862 7.28663C7.67842 8.62052 8.47846 9.3581 9.9447 9.32093C10.3477 9.31052 10.7269 9.4964 10.8682 9.94252C11.0124 10.3946 10.7373 10.6935 10.4607 10.9849C10.3759 11.0742 10.2956 11.1753 10.196 11.2437C9.28147 11.8683 9.00339 12.6847 9.393 13.736C9.47627 13.9606 9.47627 14.2253 9.46587 14.4706C9.43612 15.1651 8.85617 15.6067 8.31042 15.2216C6.98247 14.2832 5.7839 14.3412 4.45596 15.2246C3.86559 15.6142 3.25144 15.0521 3.31389 14.0884ZM7.57432 12.9553C7.35721 12.1523 7.40034 11.5233 7.9788 11.0281C8.17361 10.86 8.00855 10.6875 7.81374 10.6771C7.22933 10.6444 6.85607 10.3529 6.62558 9.83099C6.50067 9.54696 6.33411 9.49342 6.18095 9.81612C5.94153 10.3202 5.5891 10.6414 4.99427 10.6697C4.6924 10.6831 4.57789 10.8764 4.84259 11.098C5.2902 11.4742 5.40173 11.9382 5.30804 12.4884C5.27681 12.6713 5.34968 12.9152 5.56976 12.7739C6.22705 12.353 6.83228 12.5806 7.57432 12.9553Z" fill="white"/>
<path d="M28.5751 14.3475C28.639 13.9698 28.6777 13.5207 28.7937 13.0939C28.9573 12.4947 28.8145 12.0396 28.3312 11.6515C28.0234 11.4046 27.7349 11.1266 27.4747 10.8291C26.9393 10.218 27.1312 9.43428 27.9134 9.39264C29.4391 9.31085 30.3938 8.68331 30.9306 7.2141C31.2161 6.43339 32.1619 6.46165 32.4474 7.25127C32.9411 8.62235 33.7813 9.26773 35.255 9.35249C36.2989 9.41198 36.4863 10.1823 35.7695 10.957C35.7189 11.0121 35.6714 11.0715 35.6104 11.1132C34.5992 11.8195 34.2676 12.7177 34.6973 13.9193C34.8505 14.346 34.8639 14.871 34.3865 15.1981C33.9315 15.5104 33.5374 15.2323 33.1404 15.0346C32.9857 14.9572 32.8207 14.8888 32.6853 14.7847C32.0295 14.2806 31.3871 14.2836 30.712 14.7594C30.4324 14.9572 30.1068 15.103 29.7856 15.2294C29.1268 15.4911 28.584 15.1134 28.5751 14.3475ZM32.8043 12.9274C32.6898 12.166 32.6645 11.5191 33.2623 11.0269C33.4601 10.8648 33.2906 10.6879 33.0958 10.6775C32.5113 10.6462 32.1381 10.3518 31.9076 9.83133C31.7812 9.54432 31.6146 9.49971 31.4645 9.81794C31.225 10.3235 30.8711 10.6418 30.2778 10.67C29.9744 10.6849 29.8659 10.8797 30.1276 11.0983C30.5767 11.4745 30.6852 11.9385 30.5915 12.4887C30.5603 12.6716 30.6347 12.914 30.8548 12.7727C31.5106 12.3534 32.1158 12.5854 32.8043 12.9274Z" fill="white"/>
<path d="M21.8437 29.1046C22.1902 29.1016 22.4043 29.2131 22.6125 29.3574C23.4021 29.9061 23.9925 30.6214 24.4297 31.472C24.678 31.9538 24.6795 32.3984 24.1665 32.6869C23.6891 32.9546 23.2876 32.7523 23.0363 32.3181C22.6452 31.643 22.1367 31.0868 21.5255 30.6065C21.2147 30.3626 21.0422 30.031 21.1909 29.625C21.3143 29.2934 21.5716 29.1194 21.8437 29.1046Z" fill="white"/>
</svg>
