<svg width="37" height="37" viewBox="0 0 37 37" fill="none" xmlns="http://www.w3.org/2000/svg">
<path d="M18.3441 0.000357568C23.6361 0.000357568 28.9281 -0.0010727 34.2187 0.00178784C35.895 0.00321811 36.7159 0.824193 36.7174 2.50047C36.7202 6.88711 36.7188 11.2723 36.7174 15.659C36.7174 15.8735 36.7288 16.0938 36.6845 16.2997C36.5987 16.6959 36.3283 16.9333 35.9221 16.9162C35.5231 16.899 35.2456 16.663 35.207 16.2497C35.1712 15.8706 35.1856 15.4873 35.1856 15.1069C35.1841 12.7469 35.1698 10.387 35.1956 8.02703C35.2027 7.44348 35.0297 7.24468 34.4275 7.24468C23.7248 7.26041 13.0221 7.26041 2.31937 7.24325C1.67289 7.24182 1.52128 7.46065 1.52271 8.06994C1.53987 15.4587 1.53272 22.8489 1.53558 30.2377C1.53558 31.2432 1.75298 31.4634 2.74559 31.4649C7.01209 31.4677 11.2786 31.4677 15.5465 31.4649C16.5463 31.4634 16.6721 31.2332 16.3031 30.3092C16.0743 29.7342 15.8369 29.3137 15.0903 29.401C14.5825 29.4596 14.3136 29.0935 14.3108 28.5857C14.3036 27.5845 14.3007 26.5834 14.3108 25.5822C14.3165 24.9829 14.6755 24.6854 15.2347 24.7569C16.1158 24.8699 16.0929 24.1276 16.3861 23.6627C16.6793 23.1979 16.4261 22.9233 16.1215 22.6229C15.6681 22.1767 15.6581 21.7033 16.1086 21.2456C16.7608 20.5834 17.4202 19.9269 18.0795 19.2718C18.5629 18.7912 19.0507 18.817 19.5098 19.2976C19.793 19.5936 20.0619 19.8196 20.491 19.5421C20.9472 19.2461 21.711 19.2947 21.6094 18.4079C21.535 17.76 21.8969 17.4439 22.552 17.4482C23.4573 17.4554 24.3641 17.4611 25.2695 17.4454C25.9489 17.4339 26.3436 17.73 26.2678 18.4237C26.1691 19.319 26.9515 19.2461 27.402 19.5464C27.8354 19.8353 28.1 19.5707 28.3775 19.2847C28.848 18.8027 29.3315 18.807 29.8092 19.2818C30.4514 19.9212 31.0907 20.5634 31.7314 21.2027C32.2063 21.6761 32.2235 22.1581 31.7443 22.6358C31.4668 22.9133 31.1865 23.1679 31.4683 23.6113C31.7729 24.0904 31.7357 24.8728 32.6597 24.7583C33.2733 24.6811 33.5751 25.053 33.5736 25.6694C33.5708 26.5991 33.5665 27.5288 33.5751 28.4584C33.5808 29.1092 33.2833 29.421 32.6239 29.4282C32.0661 29.4339 31.2309 30.458 31.3481 30.9929C31.4168 31.3061 31.6742 31.4549 31.9918 31.4577C32.7784 31.4634 33.5651 31.482 34.3517 31.452C35.0368 31.4263 35.1913 30.9557 35.1898 30.3607C35.1827 28.0251 35.187 25.6894 35.187 23.3524C35.187 23.1378 35.1913 22.9233 35.1884 22.7088C35.1841 22.1753 35.4158 21.7977 35.9708 21.8091C36.5286 21.8206 36.7245 22.2182 36.7217 22.7431C36.7159 23.9831 36.7217 25.2217 36.7217 26.4618C36.7217 27.8921 36.7317 29.3223 36.7174 30.7526C36.7045 32.0999 35.8063 33.0982 34.4718 32.9681C32.5453 32.7807 31.0063 33.2313 29.8192 34.8432C29.3686 35.4539 28.9324 35.3924 28.3603 34.8532C28.0557 34.5671 27.7968 34.3655 27.372 34.6315C26.9071 34.9233 26.162 34.8904 26.2678 35.7757C26.3451 36.4308 25.956 36.7254 25.3095 36.7183C24.3799 36.7082 23.4502 36.714 22.5205 36.7154C21.9012 36.7168 21.5379 36.4079 21.6151 35.7957C21.7253 34.9175 21.0001 34.929 20.5296 34.6372C20.0676 34.3512 19.7901 34.5786 19.4869 34.8918C19.0135 35.3781 18.5272 35.3466 18.0566 34.8718C18.0237 34.8374 17.9808 34.8103 17.9551 34.7717C16.8781 33.1597 15.3391 32.8994 13.5027 32.9624C9.83687 33.0882 6.16251 33.0024 2.491 32.9981C0.821876 32.9967 0.00376173 32.1729 0.00376173 30.488C-0.000529083 21.1698 -0.000529083 11.8501 0.000901187 2.53051C0.000901187 0.80846 0.811864 0.00321811 2.54106 0.00178784C7.80875 -0.0010727 13.0764 0.000357568 18.3441 0.000357568ZM18.367 5.72144C23.7033 5.72144 29.0382 5.71286 34.3746 5.73288C34.9867 5.73574 35.2442 5.57984 35.197 4.93336C35.1469 4.24683 35.187 3.55315 35.1856 2.86233C35.1827 1.71668 35.0053 1.53647 33.8611 1.53647C28.4776 1.53504 23.094 1.53647 17.7105 1.53647C12.7804 1.53647 7.84879 1.53647 2.91865 1.53647C1.70721 1.53647 1.53987 1.70095 1.53701 2.87663C1.53558 3.52025 1.58135 4.16673 1.52414 4.80464C1.46121 5.51977 1.69291 5.74289 2.43236 5.7386C7.74295 5.70714 13.055 5.72144 18.367 5.72144ZM18.3942 23.0449C18.3813 23.1035 18.3813 23.2337 18.3255 23.3324C17.8979 24.1076 17.5746 24.9228 17.3143 25.7681C17.1942 26.1586 16.8538 26.3102 16.4619 26.273C15.7825 26.2086 15.8311 26.6577 15.8326 27.104C15.834 27.5288 15.7954 27.9464 16.4304 27.8935C17.0097 27.8463 17.29 28.1753 17.4259 28.7059C17.5846 29.3309 17.8192 29.9331 18.1582 30.4837C18.4757 30.9986 18.4914 31.4792 18.0295 31.9011C17.5517 32.3373 17.9823 32.5504 18.2283 32.8065C18.4843 33.0711 18.7117 33.4501 19.1365 32.9752C19.5284 32.5376 19.9961 32.5376 20.491 32.8379C21.0645 33.1855 21.6852 33.4358 22.3346 33.6003C22.8738 33.7361 23.1713 34.0408 23.1284 34.6115C23.0783 35.2651 23.5346 35.1821 23.9393 35.1836C24.347 35.185 24.7961 35.2565 24.7446 34.6072C24.7002 34.0336 25.0049 33.7361 25.5412 33.5988C26.1906 33.4344 26.8113 33.1855 27.3849 32.8365C27.8812 32.5347 28.346 32.5447 28.7393 32.9781C29.1641 33.4472 29.3901 33.0711 29.6475 32.8036C29.8964 32.5462 30.3155 32.3302 29.8392 31.8968C29.3758 31.4749 29.3987 30.9929 29.7148 30.4794C30.0537 29.9288 30.2883 29.3266 30.4471 28.7002C30.5829 28.1681 30.8676 27.8434 31.4454 27.8906C32.0847 27.9421 32.049 27.5173 32.0361 27.0968C32.0247 26.7035 32.1419 26.2258 31.4783 26.2744C30.8647 26.3188 30.5744 25.9855 30.4356 25.4248C30.2854 24.8227 30.0595 24.2406 29.7305 23.7128C29.3958 23.175 29.3815 22.6859 29.8621 22.2353C30.3498 21.7777 29.8335 21.5874 29.6161 21.3357C29.3887 21.074 29.1613 20.7307 28.7651 21.1669C28.3474 21.6246 27.8697 21.6318 27.3505 21.3114C26.7799 20.9581 26.152 20.725 25.5041 20.5562C24.9977 20.4246 24.7017 20.1314 24.7474 19.5922C24.8004 18.97 24.4085 18.97 23.9708 18.98C23.5389 18.9901 23.0683 18.9028 23.1255 19.5951C23.1698 20.1357 22.8709 20.426 22.366 20.5576C21.7181 20.7264 21.0917 20.9624 20.521 21.3142C20.0004 21.6346 19.5241 21.6232 19.1065 21.1655C18.7074 20.7278 18.4829 21.0811 18.2554 21.34C18.0337 21.5903 17.5274 21.7819 18.0109 22.2411C18.2197 22.4413 18.3899 22.6744 18.3942 23.0449Z" fill="white"/>
<path d="M9.63305 22.1369C9.18108 22.1369 8.72768 22.1298 8.27572 22.1384C7.63782 22.1498 7.31315 21.8709 7.28883 21.2058C7.25594 20.309 6.61947 19.9572 5.78848 20.3691C5.20493 20.658 4.78443 20.5236 4.46691 19.9772C4.00064 19.1748 3.53437 18.3725 3.06954 17.5686C2.75488 17.0223 2.85213 16.5918 3.38706 16.2242C4.12221 15.7179 4.12651 15.0356 3.39993 14.5222C2.84641 14.1317 2.75345 13.6897 3.09671 13.1162C3.56012 12.3396 4.0035 11.5515 4.45976 10.7706C4.79301 10.2013 5.21923 10.0612 5.83425 10.3915C6.59372 10.8006 7.26023 10.4058 7.28883 9.54339C7.31029 8.88976 7.60492 8.58082 8.25427 8.58511C9.18108 8.59083 10.1108 8.59655 11.039 8.58225C11.6898 8.57224 11.9873 8.90263 12.0702 9.51622C12.2047 10.506 12.6681 10.7706 13.5663 10.3486C14.1255 10.0855 14.5346 10.2142 14.8364 10.7248C15.3069 11.5243 15.7718 12.3296 16.2266 13.1377C16.5441 13.7026 16.4612 14.1646 15.8862 14.5408C15.1811 15.0027 15.1839 15.695 15.8619 16.1856C16.4869 16.639 16.5727 16.9593 16.198 17.6359C15.7603 18.4268 15.3026 19.2077 14.8435 19.9872C14.5246 20.5279 14.0969 20.6566 13.5162 20.3591C12.7296 19.9558 12.1861 20.2561 12.0759 21.1143C11.9715 21.9295 11.7556 22.1241 10.9203 22.1369C10.4898 22.1441 10.0607 22.1384 9.63305 22.1369ZM5.6526 12.1679C5.24498 12.3281 5.1849 12.7758 4.95749 13.089C4.77299 13.3451 4.90314 13.5253 5.13342 13.6754C5.53818 13.94 5.64831 14.3076 5.57823 14.7868C5.52102 15.1815 5.52388 15.5977 5.57537 15.9939C5.63401 16.4473 5.53246 16.8049 5.14343 17.0394C4.64712 17.3398 4.94319 17.6502 5.13055 17.9305C5.31649 18.2065 5.35368 18.7071 5.94438 18.4468C6.4793 18.2123 8.5203 19.1834 8.752 19.7269C8.79777 19.8328 8.82351 19.9586 8.81779 20.073C8.79062 20.6208 9.16249 20.6294 9.53436 20.5908C9.88763 20.5536 10.4197 20.8082 10.4454 20.1288C10.464 19.6239 10.773 19.3794 11.1906 19.1848C11.5339 19.0261 11.8714 18.8387 12.1789 18.6185C12.5565 18.3481 12.9227 18.2208 13.3718 18.4282C14.024 18.7286 14.0268 18.0835 14.2557 17.7875C14.4573 17.5286 14.5875 17.2583 14.1613 17.0423C13.8009 16.8592 13.7179 16.5174 13.7279 16.1326C13.7422 15.6092 13.7394 15.0857 13.7279 14.5622C13.7193 14.2018 13.8051 13.8871 14.1384 13.7141C14.6476 13.4509 14.403 13.1391 14.2056 12.8459C14.0054 12.547 13.9711 12.0235 13.3446 12.2909C12.7768 12.5341 10.7286 11.5114 10.5084 10.935C10.4826 10.8693 10.4583 10.7963 10.4612 10.7277C10.4984 9.98249 9.95486 10.1513 9.52578 10.1212C9.0781 10.0898 8.77774 10.1899 8.80921 10.7305C8.82494 11.0109 8.68335 11.3083 8.42876 11.3656C7.49765 11.5772 6.89265 12.9102 5.6526 12.1679Z" fill="white"/>
<path d="M24.2887 15.693C23.1473 15.693 22.006 15.6901 20.8661 15.6944C20.3526 15.6958 19.9392 15.5299 19.9207 14.9621C19.9006 14.3528 20.3211 14.1611 20.8689 14.1611C23.1745 14.164 25.4815 14.1626 27.7871 14.1626C28.3063 14.1626 28.6911 14.3514 28.6911 14.9292C28.6911 15.5084 28.302 15.693 27.7843 15.693C26.6186 15.693 25.4544 15.693 24.2887 15.693Z" fill="white"/>
<path d="M29.0216 12.2605C28.0447 12.2605 27.0692 12.2577 26.0924 12.262C25.576 12.2648 25.1655 12.0875 25.1527 11.5211C25.1398 10.9104 25.5646 10.7273 26.1124 10.7287C28.0418 10.733 29.9698 10.7316 31.8993 10.7301C32.4113 10.7301 32.8204 10.8903 32.8332 11.471C32.8461 12.0946 32.4242 12.2648 31.8792 12.2634C30.9267 12.2577 29.9741 12.2605 29.0216 12.2605Z" fill="white"/>
<path d="M6.71175 29.707C6.04667 29.7085 5.3816 29.7142 4.71652 29.7056C4.21879 29.6999 3.88268 29.4725 3.88268 28.9433C3.88411 28.4126 4.22165 28.1852 4.71938 28.1838C6.09673 28.1781 7.47408 28.1781 8.85143 28.1867C9.31913 28.1895 9.63808 28.4284 9.65382 28.9118C9.67098 29.4324 9.35203 29.6942 8.84857 29.7042C8.13773 29.717 7.42402 29.7056 6.71175 29.707Z" fill="white"/>
<path d="M9.61662 24.7496C10.1873 24.7496 10.758 24.7396 11.3286 24.7525C11.7963 24.7639 12.1139 24.9956 12.1267 25.4834C12.1396 26.0083 11.8164 26.2657 11.3143 26.27C10.173 26.2815 9.03021 26.28 7.88885 26.2686C7.41972 26.2643 7.09362 26.0111 7.08075 25.5391C7.06644 25.0257 7.40256 24.7654 7.90315 24.7525C8.47383 24.7382 9.04594 24.7496 9.61662 24.7496Z" fill="white"/>
<path d="M21.5796 10.7493C21.8885 10.7493 22.2032 10.715 22.5064 10.7579C22.9083 10.8137 23.1415 11.0783 23.1429 11.4931C23.1443 11.9078 22.9155 12.2039 22.5136 12.2297C21.8513 12.2726 21.1791 12.2783 20.5183 12.2239C20.1207 12.191 19.9005 11.875 19.9148 11.4645C19.9276 11.0869 20.1465 10.8194 20.5126 10.7665C20.8616 10.7164 21.2249 10.755 21.581 10.755C21.5796 10.7536 21.5796 10.7508 21.5796 10.7493Z" fill="white"/>
<path d="M31.473 15.6948C30.5305 15.6934 30.1128 15.4603 30.1114 14.9296C30.1085 14.399 30.529 14.1602 31.4687 14.1602C32.4971 14.1587 32.8675 14.3747 32.8432 14.9611C32.8203 15.5204 32.4914 15.6963 31.473 15.6948Z" fill="white"/>
<path d="M24.4389 2.86126C26.7731 2.86126 29.1087 2.86126 31.4429 2.86126C31.6331 2.86126 31.8248 2.85983 32.015 2.86698C32.5185 2.88414 32.8431 3.11728 32.836 3.64648C32.8288 4.13706 32.5199 4.36447 32.0493 4.38736C31.8591 4.39737 31.6689 4.39451 31.4772 4.39451C26.7359 4.39451 21.9945 4.39451 17.2546 4.39451C17.1116 4.39451 16.9686 4.39165 16.8256 4.39308C16.3107 4.39737 15.9102 4.22431 15.8987 3.64362C15.8873 3.06722 16.2663 2.86412 16.7912 2.86126C16.9814 2.85983 17.1731 2.8584 17.3633 2.8584C19.7218 2.86126 22.0804 2.86126 24.4389 2.86126Z" fill="white"/>
<path d="M23.9236 22.333C26.5123 22.3273 28.6749 24.4684 28.6892 27.0543C28.7035 29.6717 26.5309 31.8486 23.9135 31.8372C21.3276 31.8257 19.1822 29.666 19.1836 27.0787C19.1851 24.4927 21.3362 22.3387 23.9236 22.333ZM23.9436 30.2024C25.7157 30.1995 27.0573 28.8508 27.053 27.0758C27.0487 25.3008 25.7071 23.9664 23.9278 23.9692C22.1529 23.9721 20.8184 25.3137 20.8199 27.093C20.8227 28.8679 22.1643 30.2038 23.9436 30.2024Z" fill="white"/>
<path d="M9.64887 17.8419C8.23434 17.8405 7.15877 16.7692 7.1602 15.3604C7.16163 13.9631 8.25007 12.8818 9.66032 12.8789C11.0648 12.8761 12.1504 13.9631 12.1461 15.369C12.1433 16.7793 11.0706 17.8434 9.64887 17.8419ZM9.64029 14.5094C9.09107 14.5237 8.7664 14.8741 8.80072 15.4234C8.83362 15.9611 9.15114 16.2744 9.66175 16.2615C10.1924 16.2486 10.5371 15.9139 10.5671 15.3604C10.5929 14.8684 10.1638 14.4951 9.64029 14.5094Z" fill="white"/>
</svg>
