<svg width="19" height="20" viewBox="0 0 19 20" fill="none" xmlns="http://www.w3.org/2000/svg">
<path d="M0.996094 5.25655C1.16824 4.84167 1.39908 4.46304 1.64948 4.10052C3.11666 1.96972 5.08464 0.612288 7.58081 0.165182C10.48 -0.354428 13.0818 0.354497 15.308 2.3846C15.3901 2.46113 15.394 2.50141 15.3158 2.58197C14.5098 3.40368 13.7078 4.22942 12.9096 5.05918C12.8235 5.1478 12.7844 5.13169 12.7022 5.05918C11.6107 4.06024 10.3235 3.60911 8.87584 3.74203C6.50487 3.96357 4.93597 5.30086 4.05566 7.54445C4.04001 7.5807 4.02436 7.61293 4.01262 7.64918C3.77005 7.45181 3.52356 7.25846 3.27707 7.06512C2.79584 6.68246 2.31851 6.29175 1.83337 5.91312C1.55558 5.69158 1.29344 5.4499 0.996094 5.25655Z" fill="#C34131"/>
<path d="M15.3197 16.7282C14.8463 17.1874 14.3142 17.57 13.743 17.8882C12.6631 18.4924 11.505 18.8268 10.2804 18.9476C8.90324 19.0886 7.55343 18.9597 6.24275 18.4884C4.09479 17.711 2.4359 16.3133 1.26998 14.2953C1.16434 14.114 1.05479 13.9408 0.988281 13.7394C1.02349 13.7153 1.06262 13.6991 1.09392 13.6709C1.62602 13.248 2.15811 12.821 2.69412 12.3981C3.13232 12.0477 3.57052 11.7013 4.00872 11.3508C4.20434 11.8866 4.43909 12.4021 4.77165 12.8694C5.71456 14.1986 6.96265 15.0244 8.55111 15.2338C9.88136 15.407 11.1529 15.1694 12.3071 14.4242C12.3345 14.4081 12.3658 14.392 12.3932 14.3758C12.5771 14.5168 12.7649 14.6538 12.9448 14.7988C13.5669 15.2942 14.189 15.7897 14.8072 16.2932C14.9872 16.4382 15.1789 16.551 15.3197 16.7282Z" fill="#61A053"/>
<path d="M14.2618 11.4717C14.2618 11.4596 14.2579 11.4475 14.2579 11.4395C14.2149 11.367 14.1445 11.3871 14.0819 11.3871C12.5443 11.3871 11.0067 11.3871 9.46905 11.3871C9.28125 11.3871 9.28125 11.3871 9.28125 11.1978C9.28125 10.1264 9.28125 9.05491 9.28125 7.97944C9.28125 7.78207 9.28125 7.77804 9.47687 7.77804C12.2195 7.77804 14.9583 7.77804 17.7009 7.77804C17.7244 7.77804 17.7479 7.77804 17.7713 7.77804C17.8535 7.76998 17.8887 7.81429 17.9005 7.89082C17.9122 7.99555 17.9161 8.10028 17.9357 8.20098C18.01 8.57155 18.0257 8.95018 18.0374 9.32478C18.0491 9.73967 18.0648 10.1545 18.0139 10.5654C17.9748 10.8796 17.967 11.1978 17.9044 11.508C17.8535 11.7698 17.8105 12.0356 17.744 12.2974C17.6853 12.5311 17.6383 12.7647 17.5601 12.9943C17.4583 13.2923 17.3566 13.5904 17.2236 13.8764C17.1101 14.1221 17.0045 14.3678 16.8754 14.6055C16.8167 14.7142 16.7228 14.8149 16.7345 14.9559C16.5702 15.0244 16.5389 15.1855 16.488 15.3305C16.3198 15.4393 16.2376 15.6165 16.1516 15.7897C16.1359 15.7978 16.1124 15.7978 16.1007 15.8098C15.9129 16.0072 15.7525 16.2288 15.5451 16.406C15.4982 16.4463 15.4278 16.4664 15.4043 16.5389C15.3808 16.6195 15.3339 16.6114 15.2791 16.5711C15.0952 16.4302 14.9035 16.2972 14.7274 16.1442C14.2501 15.7333 13.7454 15.3668 13.2642 14.968C13.0568 14.7948 12.8416 14.6377 12.6303 14.4725C12.556 14.4162 12.513 14.3678 12.6225 14.2832C12.9159 14.0577 13.1781 13.7999 13.405 13.5058C13.4637 13.4293 13.5459 13.3608 13.538 13.248C13.5967 13.244 13.628 13.2037 13.6515 13.1554C13.761 12.9379 13.9058 12.7486 13.9958 12.5149C14.121 12.1927 14.2227 11.8664 14.301 11.5321C14.3088 11.4918 14.2931 11.4798 14.2618 11.4717Z" fill="#557BE8"/>
<path d="M4.01274 11.355C3.57454 11.7054 3.13634 12.0518 2.69814 12.4022C2.16604 12.8252 1.63395 13.2521 1.09794 13.6751C1.06664 13.6992 1.02751 13.7194 0.9923 13.7436C0.839713 13.518 0.753639 13.2602 0.655827 13.0105C0.299791 12.1042 0.0963414 11.1616 0.0259167 10.1868C-0.0718954 8.84553 0.108079 7.54852 0.550189 6.28373C0.663652 5.96149 0.792764 5.64328 0.941438 5.33715C0.957088 5.30896 0.964913 5.2727 0.996213 5.25659C1.29356 5.44994 1.5557 5.69161 1.83348 5.90913C2.31863 6.28776 2.79595 6.67847 3.27719 7.06113C3.51976 7.25447 3.76625 7.44781 4.01274 7.64116C3.88754 8.10438 3.77408 8.57162 3.74278 9.05498C3.69191 9.77196 3.76234 10.4728 3.96579 11.1576C3.98535 11.2261 3.99709 11.2905 4.01274 11.355Z" fill="#DFB32B"/>
<path d="M16.7307 14.9641C16.719 14.8231 16.8129 14.7224 16.8716 14.6137C17.0007 14.376 17.1063 14.1263 17.2198 13.8846C17.3528 13.5986 17.4584 13.3006 17.5562 13.0025C17.6306 12.7769 17.6775 12.5393 17.7401 12.3056C17.8066 12.0438 17.8497 11.778 17.9005 11.5162C17.9631 11.206 17.971 10.8878 18.0101 10.5736C18.061 10.1628 18.0453 9.74788 18.0336 9.333C18.0218 8.95839 18.0062 8.57976 17.9318 8.20919C17.9123 8.10849 17.9084 8.00376 17.8966 7.89903C17.8888 7.81847 17.8497 7.77819 17.7675 7.78625C17.744 7.79028 17.7206 7.78625 17.6971 7.78625C14.9544 7.78625 12.2157 7.78625 9.47306 7.78625C9.27743 7.78625 9.27743 7.78625 9.27743 7.98765C9.27743 9.05909 9.27743 10.1305 9.27743 11.206C9.27743 11.3953 9.27743 11.3953 9.46523 11.3953C11.0028 11.3953 12.5404 11.3953 14.078 11.3953C14.1406 11.3953 14.2111 11.3712 14.2541 11.4477C13.4481 11.4477 12.6422 11.4437 11.8362 11.4437C11.0107 11.4437 10.189 11.4396 9.36351 11.4477C9.25396 11.4477 9.22266 11.4195 9.22266 11.3027C9.22657 10.1547 9.22657 9.00673 9.22266 7.85472C9.22266 7.74597 9.25396 7.71777 9.35568 7.71777C12.157 7.7218 14.9584 7.7218 17.7597 7.71777C17.8614 7.71777 17.924 7.72986 17.9436 7.86278C18.1901 9.46995 18.1353 11.065 17.7167 12.6359C17.5054 13.4335 17.1924 14.1907 16.7777 14.9037C16.7698 14.9238 16.7503 14.9399 16.7307 14.9641Z" fill="#6282CA"/>
<path d="M13.5409 13.248C13.5487 13.3608 13.4665 13.4293 13.4079 13.5058C13.1809 13.7999 12.9188 14.0577 12.6254 14.2832C12.5158 14.3678 12.5588 14.4162 12.6332 14.4726C12.8445 14.6377 13.0636 14.7988 13.267 14.968C13.7482 15.3708 14.2569 15.7373 14.7303 16.1442C14.9063 16.2972 15.0981 16.4302 15.2819 16.5711C15.3367 16.6154 15.3837 16.6195 15.4071 16.5389C15.4306 16.4664 15.501 16.4463 15.548 16.406C15.7553 16.2288 15.9158 16.0072 16.1036 15.8098C16.1153 15.7978 16.1349 15.7978 16.1544 15.7897C16.1309 15.8944 16.0488 15.9549 15.9862 16.0274C15.7788 16.2731 15.5636 16.5107 15.3211 16.7242C15.1802 16.547 14.9846 16.4302 14.8124 16.2932C14.1943 15.7897 13.5722 15.2943 12.9501 14.7988C12.7701 14.6538 12.5823 14.5169 12.3984 14.3759C12.8366 14.0617 13.2161 13.6831 13.5409 13.248Z" fill="#6282CA"/>
<path d="M14.2629 11.4717C14.2942 11.4757 14.3098 11.4918 14.302 11.5281C14.2237 11.8624 14.122 12.1927 13.9968 12.5109C13.9068 12.7405 13.7621 12.9338 13.6525 13.1514C13.629 13.1997 13.5977 13.24 13.5391 13.244C13.7621 12.8654 13.9851 12.4867 14.1064 12.0598C14.1611 11.8664 14.2081 11.6691 14.2629 11.4717Z" fill="#6282CA"/>
<path d="M16.1523 15.7978C16.2384 15.6246 16.3167 15.4474 16.4888 15.3386C16.4027 15.5118 16.2971 15.6689 16.1523 15.7978Z" fill="#6282CA"/>
<path d="M16.4844 15.3385C16.5352 15.1935 16.5665 15.0323 16.7309 14.9639C16.6643 15.0968 16.5939 15.2337 16.4844 15.3385Z" fill="#6282CA"/>
</svg>
