<svg width="43" height="39" viewBox="0 0 43 39" fill="none" xmlns="http://www.w3.org/2000/svg">
<path d="M42.5538 23.2309C42.3476 22.9288 41.9349 22.8514 41.6325 23.0574C40.0294 24.1522 38.425 25.3176 36.8624 26.5215C36.6375 26.6953 36.231 26.8288 36.093 26.6343L30.6917 18.3985C30.7539 18.2825 30.8642 18.152 31.0432 18.0436C32.1998 17.3394 33.352 16.6069 34.4672 15.8666C34.7724 15.6643 34.8556 15.2528 34.653 14.9475C34.451 14.6429 34.0392 14.5594 33.7343 14.762C32.6329 15.4926 31.4957 16.2158 30.3549 16.9102C29.9688 17.1443 29.6708 17.4698 29.491 17.8358C29.417 17.8358 13.3414 17.8358 13.4167 17.8358C13.2371 17.4699 12.9393 17.1446 12.5541 16.9112C11.412 16.2159 10.2747 15.4927 9.17341 14.762C8.8688 14.5584 8.45731 14.6422 8.25469 14.9475C8.05207 15.2528 8.13523 15.6642 8.44051 15.8666C9.55578 16.6069 10.7079 17.3395 11.8658 18.0446C12.0292 18.1435 12.1979 18.3694 12.198 18.3694C11.7172 19.1088 10.3696 21.1812 6.97657 26.3991C6.91029 26.426 6.76255 27.0749 6.04459 26.5209C4.48263 25.3177 2.87828 24.1523 1.2752 23.0574C0.973209 22.8509 0.560704 22.9283 0.35386 23.2309C0.147355 23.5333 0.225026 23.9457 0.527355 24.1523C2.10941 25.2332 3.69333 26.3834 5.23461 27.5704C6.11804 28.2537 7.32634 28.232 7.90888 27.3833L8.18943 26.9747C8.85606 27.5817 8.99755 27.8825 9.25775 28.4625C9.09675 28.5878 8.94487 28.7279 8.81764 28.8996C8.0714 29.9083 8.26305 31.3518 9.29836 32.1181L9.38127 32.1793C9.81471 32.4999 10.3192 32.6645 10.9589 32.6049C11.0093 33.2622 11.3232 33.8958 11.8934 34.3178H11.8937C12.3778 34.6761 12.973 34.8524 13.6802 34.7339C13.7585 35.348 14.0728 35.931 14.6084 36.3275C15.1217 36.7076 15.76 36.8824 16.4907 36.7292C16.5874 37.2395 16.8625 37.7173 17.3118 38.05C17.6935 38.3325 18.1393 38.4689 18.5815 38.4689C19.1518 38.4689 19.7067 38.2294 20.1197 37.7973C21.259 38.4248 22.6108 38.0446 23.2936 37.0493C23.5156 36.7259 23.6536 36.3621 23.7018 35.9836L24.0077 36.2018C25.1139 36.961 26.6292 36.678 27.3877 35.5732C27.6104 35.2491 27.7484 34.8842 27.7962 34.5048C28.8768 35.146 30.3021 34.859 31.0374 33.7881C31.2613 33.4622 31.3996 33.0951 31.4468 32.7134L31.4695 32.7289C32.5756 33.4881 34.0913 33.2054 34.8498 32.1006C35.6047 31.0006 35.3289 29.493 34.2363 28.7309L34.1229 28.6441L35.4747 27.8258C36.1611 28.2339 37.0307 28.0671 37.6724 27.571C39.2143 26.3833 40.7983 25.2331 42.3803 24.1522C42.6827 23.9456 42.7604 23.5332 42.5538 23.2309ZM11.6484 30.6964C11.5804 30.7904 11.3864 31.0584 11.3763 31.0727C11.0395 31.3574 10.5398 31.3869 10.1696 31.1129C10.1693 31.1125 10.169 31.1125 10.1686 31.1122L10.0867 31.0516C9.65489 30.7321 9.56363 30.1206 9.88343 29.6888C10.2013 29.2594 10.812 29.1637 11.247 29.4858L11.3289 29.5463C11.694 29.8166 11.8124 30.294 11.6484 30.6964ZM14.1174 33.038C13.7802 33.4929 13.1397 33.5894 12.6827 33.252C12.2436 32.9271 12.1431 32.3176 12.4389 31.8669C12.5446 31.7509 13.0339 31.0591 13.2094 30.8164C13.5509 30.3556 14.194 30.2689 14.6441 30.6023C15.0988 30.9389 15.1946 31.5819 14.8588 32.0364L14.1174 33.038ZM16.8321 35.0477C16.4882 35.5117 15.8437 35.592 15.3977 35.2617H15.3974C14.9405 34.9232 14.8466 34.282 15.1831 33.827L16.5832 31.9358C16.9186 31.4826 17.5616 31.3836 18.018 31.7215C18.4724 32.0582 18.5686 32.702 18.2322 33.1562L16.8321 35.0477ZM19.43 36.5543L19.2374 36.8142C18.9704 37.1749 18.4602 37.2512 18.1011 36.9842H18.1008C17.7408 36.7177 17.6647 36.2079 17.9312 35.8475L18.1237 35.5876C18.3905 35.227 18.9004 35.1517 19.2604 35.4176C19.6211 35.6848 19.6973 36.1932 19.43 36.5543ZM33.7567 31.3501C33.4123 31.8522 32.7237 31.981 32.2168 31.6333L25.3322 26.9219C25.0308 26.714 24.6177 26.7914 24.4105 27.0931C24.3315 27.208 24.2937 27.3391 24.294 27.4686C24.2943 27.6793 24.3946 27.8865 24.5818 28.0148L29.6591 31.5013C30.1551 31.841 30.2953 32.5267 29.9443 33.0373C29.6009 33.5387 28.914 33.6703 28.4083 33.3232L23.3306 29.837C23.0726 29.6586 22.7253 29.6875 22.4984 29.903L22.4453 29.9535C22.2993 30.0927 22.2241 30.2908 22.242 30.4919C22.2598 30.6933 22.3679 30.8752 22.5362 30.9869L26.009 33.2867C26.5124 33.632 26.6405 34.3191 26.2949 34.8227C25.9495 35.3248 25.2603 35.4527 24.7679 35.115L21.4993 32.7845C21.204 32.5747 20.7942 32.6398 20.5802 32.9318C20.3656 33.2238 20.4251 33.634 20.7139 33.8528L21.9152 34.7625C22.4173 35.1076 22.5455 35.7965 22.2004 36.2989C21.8818 36.7636 21.2703 36.9033 20.8209 36.6786C21.0901 35.7754 20.7507 34.8712 20.0493 34.3517C19.8076 34.173 19.5401 34.0546 19.2643 33.9907L19.2979 33.9451C20.0691 32.9034 19.8489 31.4275 18.8068 30.6558C18.0208 30.0741 16.9893 30.0574 16.1982 30.5307C16.0409 30.1485 15.7889 29.7999 15.4333 29.5366C14.9282 29.1627 14.3077 29.0079 13.6865 29.1006C13.3837 29.1458 13.0994 29.2492 12.8431 29.3997C12.6838 29.0398 12.4424 28.7207 12.1171 28.48L12.0352 28.4194C11.575 28.0786 11.0289 27.9456 10.4981 27.9852C10.128 27.1672 9.88707 26.6919 8.95956 25.8831C15.6314 16.1201 12.4405 20.7893 13.3398 19.4734C13.407 19.3755 13.4585 19.2704 13.5004 19.1616H16.5019C15.0842 19.976 14.2035 21.488 14.2035 23.1259V23.952C14.2035 25.0212 15.2395 25.7788 16.2585 25.46C17.0024 25.2279 17.6188 24.6843 18.0409 23.8879C18.9093 22.2481 21.1848 22.243 22.1344 23.5493C22.6274 24.2275 23.5863 25.0359 25.3529 25.0359C26.0476 25.0359 26.719 25.2418 27.2949 25.6315L32.5056 29.1597C32.5088 29.162 32.5121 29.1643 32.5153 29.1666L33.4683 29.8118C33.4692 29.8124 33.47 29.813 33.4709 29.8137C33.9733 30.1585 34.1014 30.8477 33.7567 31.3501ZM32.9069 27.8303L28.0381 24.5335C27.2421 23.9948 26.3133 23.7099 25.3529 23.7099C24.3827 23.7099 23.6608 23.3933 23.2069 22.7695C21.6942 20.6878 18.2072 20.7411 16.8691 23.267C16.6107 23.7548 16.2724 24.0666 15.8639 24.1942C15.6946 24.246 15.5295 24.1237 15.5295 23.952V23.1259C15.5295 21.9492 16.1678 20.8621 17.1954 20.2884L19.2141 19.1615H29.4076C29.4496 19.2702 29.5012 19.3754 29.5684 19.4733L34.6016 26.8044L32.9069 27.8303Z" fill="#7166F0"/>
<path d="M21.4515 14.7978C25.3666 14.7978 28.552 11.6152 28.552 7.7037C28.552 3.79217 25.3666 0.609985 21.4515 0.609985C17.5399 0.609985 14.3574 3.79217 14.3574 7.7037C14.3574 11.6152 17.5399 14.7978 21.4515 14.7978ZM21.4515 1.93589C24.6356 1.93589 27.226 4.52338 27.226 7.7037C27.226 10.8843 24.6356 13.4718 21.4515 13.4718C18.2709 13.4718 15.6834 10.8843 15.6834 7.7037C15.6833 4.52338 18.2709 1.93589 21.4515 1.93589Z" fill="#7166F0"/>
<path d="M20.0032 9.73941C20.2616 9.99784 20.6814 9.99876 20.9406 9.73941L24.0739 6.60611C24.3329 6.34709 24.3329 5.92758 24.0739 5.66864C23.8149 5.40963 23.3954 5.40963 23.1365 5.66864L20.4719 8.33287L19.7704 7.63138C19.5114 7.37236 19.0919 7.37236 18.8329 7.63138C18.5739 7.89006 18.5739 8.30991 18.8329 8.56884L20.0032 9.73941Z" fill="#7166F0"/>
</svg>
