<svg width="1009" height="995" viewBox="0 0 1009 995" fill="none" xmlns="http://www.w3.org/2000/svg">
<g opacity="0.06">
<path d="M1004.31 864.032V785.446L930.147 742.655V826.787L861.075 866.652V783.996L788.185 826.049L717.84 785.472V708.336C719.978 707.776 721.555 705.843 721.555 703.527C721.555 703.069 721.479 702.637 721.352 702.23L788.796 663.306L789.432 662.95V577.368L716.567 619.421L644.95 578.08L573.332 619.396L502.987 578.792V497.612L575.877 455.558L502.987 413.505V329.373L429.461 371.808L428.825 372.164V453.345L363.29 415.515C363.392 415.108 363.494 414.675 363.494 414.217C363.494 411.902 361.916 409.969 359.778 409.409V249.642L430.759 208.683L431.395 208.327V122.77L357.945 165.18L357.309 165.536V248.192L286.964 288.795L217.917 248.956L287.626 208.734L288.262 208.378V122.77L214.736 165.18L214.1 165.536V329.373L148.565 291.543C148.667 291.136 148.768 290.703 148.768 290.246C148.768 287.93 147.19 285.997 145.053 285.437V206.902L74.7076 166.299L143.78 126.434L145.053 127.172V125.696L146.325 124.958L145.053 124.22V41.5895L76.9472 2.28382C77.049 1.87677 77.1508 1.44428 77.1508 0.98635C77.1508 -1.76123 74.9112 -4 72.1625 -4C69.4139 -4 67.1742 -1.76123 67.1742 0.98635C67.1742 3.30144 68.7522 5.23492 70.89 5.79462V82.905L-2 124.984L69.6175 166.299L-0.0912183 206.521L-0.727479 206.902V289.559L-2 290.271L-0.727479 291.009V373.665L69.5666 414.243L-0.167569 454.49L-0.80383 454.846V540.428L72.7224 497.993L73.3587 497.637V416.431L73.4096 416.456V332.324L140.192 293.782C140.802 294.392 141.591 294.85 142.457 295.079V373.665L212.802 414.243L143.093 454.464L142.457 454.821V537.502L75.751 576.045C74.8348 575.129 73.5878 574.569 72.2134 574.569C69.4648 574.569 67.2252 576.808 67.2252 579.556C67.2252 581.871 68.8031 583.804 70.9409 584.364V744.029L-0.142119 785.064L-0.77838 785.421V871.003L-0.676578 870.926V952.184L70.9409 993.499V994.975L72.2134 994.237L73.486 994.975V993.499L144.442 952.565L145.078 952.209V866.627L75.751 906.645C74.8348 905.729 73.5878 905.169 72.2134 905.169C70.8137 905.169 69.5666 905.729 68.6758 906.645L3.09008 868.764L70.9409 829.611V829.687L143.831 787.634L216.721 829.687V745.53L287.626 704.596L288.262 704.24V625.654C290.4 625.094 291.978 623.161 291.978 620.846C291.978 618.098 289.738 615.859 286.99 615.859C284.241 615.859 282.001 618.098 282.001 620.846C282.001 621.304 282.078 621.736 282.205 622.143L214.761 661.067L214.125 661.423V742.579L145.129 702.764V538.902L215.398 498.349L288.237 540.428V456.322L355.019 417.779C355.629 418.39 356.418 418.848 357.284 419.077V497.662L425.363 536.943C425.262 537.35 425.16 537.782 425.16 538.24C425.16 538.698 425.236 539.131 425.363 539.538L357.92 578.462L357.284 578.818V744.029L290.909 782.342C289.993 781.07 288.517 780.231 286.837 780.231C284.088 780.231 281.849 782.47 281.849 785.217C281.849 787.532 283.426 789.466 285.564 790.025V871.003L357.182 829.687V910.868L431.344 953.659V868.077L361.076 827.525L430.174 787.634L496.981 826.176C496.879 826.583 496.777 827.016 496.777 827.474C496.777 830.221 499.017 832.46 501.766 832.46C504.514 832.46 506.754 830.221 506.754 827.474C506.754 825.159 505.176 823.225 503.038 822.666V662.924L573.383 622.321L642.456 662.187L572.747 702.408L572.111 702.764V785.421L570.838 786.158L572.111 786.896V868.077L501.129 909.036L500.493 909.392V994.975L574.019 952.54L574.656 952.184V871.003L643.728 910.868V912.344L645.001 911.606L717.891 953.659V873.623C718.756 873.394 719.545 872.936 720.156 872.326L786.963 910.893V995L858.581 953.685V953.71L932.107 911.275L932.743 910.919V829.738L998.278 867.568C998.176 867.975 998.074 868.408 998.074 868.866C998.074 871.613 1000.31 873.852 1003.06 873.852C1005.81 873.852 1008.05 871.613 1008.05 868.866C1008.05 866.525 1006.45 864.592 1004.31 864.032ZM216.645 167.037L285.717 127.172V206.877L216.645 246.742V167.037ZM70.8137 496.161L1.76666 536.027V456.322L70.8391 416.456V496.161H70.8137ZM142.533 871.003V950.708L73.4605 990.573V914.939C75.5983 914.379 77.1763 912.445 77.1763 910.13C77.1763 909.672 77.0999 909.24 76.9727 908.833L142.533 871.003ZM70.9409 914.939V990.573L1.86846 950.733V871.028L67.4033 908.858C67.3015 909.265 67.1997 909.698 67.1997 910.156C67.1997 912.445 68.8031 914.379 70.9409 914.939ZM858.555 868.077L789.508 907.942V828.237L858.581 788.372V868.077H858.555ZM715.346 864.032C714.48 864.261 713.691 864.693 713.081 865.329L647.571 827.525L715.371 788.397V864.032H715.346ZM646.273 744.131V664.425L711.808 702.255C711.706 702.662 711.604 703.095 711.604 703.553C711.604 705.868 713.182 707.802 715.32 708.361V783.996L646.273 744.131ZM715.346 698.719C714.48 698.948 713.691 699.406 713.081 700.017L647.571 662.212L715.371 623.084V698.719H715.346ZM645.001 746.318L714.073 786.184L682.693 804.298L645.001 826.049L575.928 786.184L607.309 768.07L645.001 746.318ZM646.273 829.713L711.808 867.543C711.706 867.95 711.604 868.382 711.604 868.84C711.604 869.298 711.681 869.731 711.808 870.138L646.273 907.968V829.713V829.713ZM786.963 661.474L720.181 700.017C719.57 699.406 718.781 698.948 717.916 698.719V621.609L786.963 581.769V661.474ZM431.472 533.432V457.797L500.544 497.662V577.368L435.009 539.538C435.111 539.131 435.213 538.698 435.213 538.24C435.187 535.925 433.609 533.992 431.472 533.432ZM431.472 543.048C432.337 542.819 433.126 542.362 433.737 541.751L499.246 579.556L431.472 618.683V543.048ZM501.791 495.424L432.719 455.558L466.593 436.02L501.791 415.718L570.864 455.584L501.791 495.424ZM431.472 373.665L500.544 333.8V413.505L431.472 453.37V373.665ZM359.854 167.037L428.927 127.172V206.877L359.854 246.742V167.037ZM357.309 330.874L334.709 343.925L288.237 370.739V291.034L357.309 251.169V330.874ZM285.692 453.37L251.155 433.45L216.619 413.53V333.825L251.155 353.745L285.692 373.665V453.37V453.37ZM216.645 251.169L285.717 291.034V370.739L251.181 350.82L216.645 330.9V251.169ZM142.482 285.463C141.617 285.692 140.828 286.124 140.217 286.76L73.4351 248.218V168.512L142.507 208.378V285.463H142.482ZM142.482 43.065V122.77L73.4351 82.905V5.79462C74.3004 5.56565 75.0893 5.13316 75.7001 4.49715L142.482 43.065ZM72.1625 85.1183L141.21 124.984L73.4351 164.086L72.1625 164.824L70.89 164.086L3.09008 124.984L72.1625 85.1183ZM1.81756 208.352L70.89 168.487V248.192L1.81756 288.083V208.352ZM1.81756 292.484L70.89 332.35V412.055L1.81756 372.19V292.484ZM72.1625 330.136L3.09008 290.271L34.4705 272.157L72.1625 250.406L138.97 288.948C138.868 289.355 138.766 289.788 138.766 290.246C138.766 290.703 138.843 291.136 138.97 291.543L72.1625 330.136ZM145.027 295.079C145.892 294.85 146.681 294.418 147.292 293.782L214.074 332.324V412.03L145.002 372.164V295.079H145.027ZM145.027 456.322L214.1 416.456V496.161L145.027 536.027V456.322V456.322ZM73.486 584.364C75.6238 583.804 77.2017 581.871 77.2017 579.556C77.2017 579.098 77.1254 578.665 76.9981 578.258L142.533 540.428V620.133L73.486 659.999V584.364ZM142.533 702.79L73.4605 742.655V662.95L142.533 623.084V702.79ZM70.8137 826.736L1.76666 866.601V786.896L70.8391 747.031V826.736H70.8137ZM73.486 745.581L142.558 705.715V785.421L73.486 825.286V745.581V745.581ZM216.645 662.95L283.426 624.382C284.037 624.992 284.826 625.45 285.692 625.679V702.79L216.619 742.655V662.95H216.645ZM214.15 747.031V825.311L145.078 785.446V705.741L214.074 745.555V747.056L214.15 747.031ZM285.692 536.027L216.645 496.161V416.456L251.181 436.376L285.717 456.296V536.027H285.692ZM288.237 453.37V373.665L327.71 350.896L357.309 333.825V409.46C355.171 410.02 353.593 411.953 353.593 414.268C353.593 414.726 353.67 415.159 353.797 415.566L288.237 453.37ZM359.854 496.161V419.051C360.719 418.822 361.508 418.39 362.119 417.754L428.901 456.296V533.406C428.036 533.635 427.247 534.068 426.636 534.704L359.854 496.161ZM359.854 580.293L426.636 541.751C427.247 542.362 428.036 542.819 428.901 543.048V620.159L427.629 620.897L359.854 659.999V580.293ZM359.854 745.581L428.927 705.715V785.421L359.854 825.286V745.581ZM428.927 702.79L359.854 742.655V662.95L428.927 623.084V702.79ZM288.135 866.601V790.051C290.273 789.491 291.851 787.558 291.851 785.243C291.851 785.09 291.825 784.937 291.8 784.785L357.182 747.056V826.762L288.135 866.601ZM428.799 949.258L359.727 909.392V829.687L428.799 869.553V949.258V949.258ZM500.519 822.691C499.653 822.92 498.864 823.352 498.254 823.989L431.472 785.446V705.741L500.544 745.606V822.691H500.519ZM431.472 702.79V623.084L500.544 662.95V742.655L431.472 702.79ZM501.791 660.736L432.719 620.871L501.766 581.006L503.038 581.744L570.838 620.871L501.791 660.736ZM645.001 581.006L714.073 620.871L646.273 659.999L645.001 660.736L643.728 659.999L575.928 620.871L645.001 581.006ZM574.681 704.265L643.754 664.4V744.105L574.681 783.971V704.265V704.265ZM572.136 950.759L503.064 990.624V910.919L572.136 871.054V950.759V950.759ZM574.681 868.102V788.397L643.754 828.263V907.968L574.681 868.102ZM647.546 910.156L713.055 872.351C713.666 872.962 714.455 873.42 715.32 873.649V949.283L647.546 910.156ZM717.891 864.032V788.397L786.963 828.237V907.942L721.428 870.112C721.53 869.705 721.632 869.273 721.632 868.815C721.606 866.525 720.028 864.592 717.891 864.032ZM789.508 990.573V910.893L858.581 871.028V950.733L789.508 990.573ZM930.173 909.418L861.1 949.283V869.578L930.173 829.713V909.418ZM932.718 826.762V747.056L1001.79 786.922V864.032C1000.92 864.261 1000.14 864.693 999.525 865.329L932.718 826.762Z" fill="#7166F0"/>
</g>
</svg>
