<svg width="27" height="27" viewBox="0 0 27 27" fill="none" xmlns="http://www.w3.org/2000/svg">
<path d="M9.16086 7.42598C9.64023 7.90535 9.64023 8.68197 9.16086 9.16147C8.92117 9.40115 8.60711 9.52106 8.29317 9.52106C7.97924 9.52106 7.66518 9.40115 7.42549 9.16147L3.95403 5.68939C3.47465 5.21002 3.47465 4.4334 3.95403 3.9539C4.4334 3.47441 5.21002 3.47453 5.68951 3.9539L9.16086 7.42598ZM21.3107 3.9539L17.8393 7.42598C17.3599 7.90535 17.3599 8.68197 17.8393 9.16147C18.079 9.40115 18.393 9.52106 18.707 9.52106C19.0209 9.52106 19.3349 9.40115 19.5746 9.16147L23.0461 5.68939C23.5255 5.21002 23.5255 4.4334 23.0461 3.9539C22.5667 3.47441 21.7902 3.47453 21.3107 3.9539ZM7.36364 13.5C7.36364 12.8217 6.81406 12.2727 6.13636 12.2727H1.22727C0.549573 12.2727 0 12.8217 0 13.5C0 14.1783 0.549573 14.7273 1.22727 14.7273H6.13636C6.81406 14.7273 7.36364 14.1783 7.36364 13.5ZM7.42537 17.8387L3.95391 21.3107C3.47453 21.7901 3.47453 22.5667 3.95391 23.0462C4.19359 23.2859 4.50765 23.4058 4.82159 23.4058C5.13552 23.4058 5.44958 23.2859 5.68927 23.0462L9.16073 19.5741C9.64011 19.0948 9.64011 18.3181 9.16073 17.8387C8.68136 17.3592 7.90486 17.3593 7.42537 17.8387ZM13.5 0C12.8223 0 12.2727 0.548959 12.2727 1.22727V6.13636C12.2727 6.81468 12.8223 7.36364 13.5 7.36364C14.1777 7.36364 14.7273 6.81468 14.7273 6.13636V1.22727C14.7273 0.548959 14.1777 0 13.5 0Z" fill="#111111"/>
<path opacity="0.3" d="M23.0468 21.3107C23.5262 21.7901 23.5262 22.5667 23.0468 23.0462C22.8071 23.2859 22.4931 23.4058 22.1791 23.4058C21.8652 23.4058 21.5511 23.2859 21.3114 23.0462L17.84 19.5741C17.3606 19.0947 17.3606 18.3181 17.84 17.8386C18.3194 17.3591 19.096 17.3593 19.5755 17.8386L23.0468 21.3107ZM25.7734 12.2727H20.8643C20.1866 12.2727 19.6371 12.8217 19.6371 13.5C19.6371 14.1783 20.1866 14.7273 20.8643 14.7273H25.7734C26.4511 14.7273 27.0007 14.1783 27.0007 13.5C27.0007 12.8217 26.4511 12.2727 25.7734 12.2727ZM13.5007 19.6363C12.823 19.6363 12.2734 20.1853 12.2734 20.8636V25.7727C12.2734 26.451 12.823 27 13.5007 27C14.1784 27 14.728 26.451 14.728 25.7727V20.8636C14.728 20.1853 14.1784 19.6363 13.5007 19.6363Z" fill="#111111"/>
</svg>
