<svg width="16" height="16" viewBox="0 0 16 16" fill="none" xmlns="http://www.w3.org/2000/svg">
<mask id="mask0_311_631" style="mask-type:luminance" maskUnits="userSpaceOnUse" x="0" y="0" width="16" height="16">
<path d="M0 -3.17891e-07H16V16H0V-3.17891e-07Z" fill="white"/>
</mask>
<g mask="url(#mask0_311_631)">
<path fill-rule="evenodd" clip-rule="evenodd" d="M8.1429 16C8.29814 16 8.4431 15.9217 8.52921 15.7913C8.88233 15.2565 9.28566 14.6862 9.71252 14.0827C9.84075 13.9014 9.97111 13.717 10.1029 13.5298C10.6698 12.724 11.2576 11.8708 11.7884 10.9995C12.84 9.27324 13.7143 7.40427 13.7143 5.625C13.7143 2.52296 11.2154 -3.17891e-07 8.1429 -3.17891e-07C5.0704 -3.17891e-07 2.57147 2.52296 2.57147 5.625C2.57147 7.40427 3.44585 9.27324 4.49743 10.9995C5.02821 11.8708 5.61598 12.724 6.18293 13.5298C6.31469 13.717 6.44505 13.9014 6.57328 14.0827C7.00015 14.6862 7.40347 15.2565 7.75659 15.7913C7.8427 15.9217 7.98767 16 8.1429 16ZM5.28838 10.5083C4.25067 8.80488 3.50004 7.12698 3.50004 5.625C3.50004 3.04073 5.58324 0.9375 8.1429 0.9375C10.7026 0.9375 12.7858 3.04073 12.7858 5.625C12.7858 7.12698 12.0351 8.80488 10.9974 10.5083C10.4836 11.3519 9.91062 12.1842 9.34587 12.9868C9.21772 13.169 9.08972 13.3499 8.96288 13.5293C8.67991 13.9294 8.40278 14.3212 8.1429 14.6991C7.88302 14.3212 7.60588 13.9293 7.32291 13.5293C7.19608 13.3499 7.06808 13.169 6.93993 12.9868C6.37518 12.1842 5.80224 11.3519 5.28838 10.5083Z" fill="#7166F0"/>
<path fill-rule="evenodd" clip-rule="evenodd" d="M5.14276 5.71439C5.14276 7.29018 6.42412 8.57153 7.9999 8.57153C9.57569 8.57153 10.857 7.29018 10.857 5.71439C10.857 4.1386 9.57569 2.85725 7.9999 2.85725C6.42412 2.85725 5.14276 4.1386 5.14276 5.71439ZM7.9999 7.61915C6.9501 7.61915 6.09514 6.76419 6.09514 5.71439C6.09514 4.66459 6.9501 3.80963 7.9999 3.80963C9.04971 3.80963 9.90467 4.66459 9.90467 5.71439C9.90467 6.76419 9.04971 7.61915 7.9999 7.61915Z" fill="#7166F0"/>
</g>
</svg>
