<svg width="18" height="22" viewBox="0 0 18 22" fill="none" xmlns="http://www.w3.org/2000/svg">
<path d="M3 20.25C2.58579 20.25 2.25 20.5858 2.25 21C2.25 21.4142 2.58579 21.75 3 21.75V20.25ZM15 21.75C15.4142 21.75 15.75 21.4142 15.75 21C15.75 20.5858 15.4142 20.25 15 20.25V21.75ZM15.75 8.5C15.75 10.2065 14.6599 12.4136 13.1547 14.2468C12.4148 15.1481 11.6072 15.9179 10.8465 16.4554C10.0624 17.0094 9.42269 17.25 9 17.25V18.75C9.88982 18.75 10.8438 18.294 11.7121 17.6804C12.6038 17.0504 13.5071 16.1815 14.314 15.1987C15.9026 13.2638 17.25 10.7209 17.25 8.5H15.75ZM9 17.25C8.59247 17.25 7.95947 16.9993 7.171 16.4074C6.409 15.8353 5.59932 15.0178 4.85679 14.0668C3.34675 12.1327 2.25 9.82498 2.25 8.11111H0.75C0.75 10.3246 2.09075 12.9614 3.67446 14.9899C4.4788 16.0201 5.38006 16.9385 6.27041 17.6069C7.13428 18.2555 8.09503 18.75 9 18.75V17.25ZM2.25 8.11111C2.25 4.48059 5.47857 1.75 9 1.75V0.25C4.78944 0.25 0.75 3.51941 0.75 8.11111H2.25ZM9 1.75C12.4938 1.75 15.75 4.45503 15.75 8.5H17.25C17.25 3.54497 13.2382 0.25 9 0.25V1.75ZM11.25 8C11.25 9.24264 10.2426 10.25 9 10.25V11.75C11.0711 11.75 12.75 10.0711 12.75 8H11.25ZM9 10.25C7.75736 10.25 6.75 9.24264 6.75 8H5.25C5.25 10.0711 6.92893 11.75 9 11.75V10.25ZM6.75 8C6.75 6.75736 7.75736 5.75 9 5.75V4.25C6.92893 4.25 5.25 5.92893 5.25 8H6.75ZM9 5.75C10.2426 5.75 11.25 6.75736 11.25 8H12.75C12.75 5.92893 11.0711 4.25 9 4.25V5.75ZM3 21.75H15V20.25H3V21.75Z" fill="#7E8BA0"/>
</svg>
