<svg width="20" height="20" viewBox="0 0 20 20" fill="none" xmlns="http://www.w3.org/2000/svg">
<mask id="mask0_316_396" style="mask-type:luminance" maskUnits="userSpaceOnUse" x="0" y="0" width="20" height="20">
<path d="M0 -7.94728e-08H20V20H0V-7.94728e-08Z" fill="white"/>
</mask>
<g mask="url(#mask0_316_396)">
<path fill-rule="evenodd" clip-rule="evenodd" d="M10.1786 20C10.3727 20 10.5539 19.9021 10.6615 19.7391C11.1029 19.0706 11.6071 18.3578 12.1407 17.6033C12.301 17.3767 12.4639 17.1463 12.6286 16.9122C13.3373 15.905 14.072 14.8385 14.7355 13.7493C16.05 11.5916 17.1429 9.25533 17.1429 7.03125C17.1429 3.1537 14.0193 -7.94728e-08 10.1786 -7.94728e-08C6.33802 -7.94728e-08 3.21436 3.1537 3.21436 7.03125C3.21436 9.25533 4.30732 11.5916 5.6218 13.7493C6.28527 14.8385 7.01999 15.905 7.72867 16.9122C7.89337 17.1463 8.05633 17.3767 8.21662 17.6033C8.7502 18.3578 9.25435 19.0706 9.69576 19.7391C9.80339 19.9021 9.9846 20 10.1786 20ZM6.61048 13.1354C5.31335 11.0061 4.37507 8.90873 4.37507 7.03125C4.37507 3.80091 6.97907 1.17187 10.1786 1.17187C13.3782 1.17187 15.9822 3.80091 15.9822 7.03125C15.9822 8.90873 15.0439 11.0061 13.7468 13.1354C13.1045 14.1898 12.3883 15.2302 11.6824 16.2335C11.5222 16.4612 11.3622 16.6874 11.2036 16.9116C10.8499 17.4117 10.5035 17.9015 10.1786 18.3739C9.85379 17.9015 9.50737 17.4117 9.15365 16.9116C8.99511 16.6874 8.83511 16.4612 8.67493 16.2335C7.96899 15.2302 7.25281 14.1898 6.61048 13.1354Z" fill="#F2C94C"/>
<path fill-rule="evenodd" clip-rule="evenodd" d="M6.42847 7.14293C6.42847 9.11266 8.03016 10.7144 9.9999 10.7144C11.9696 10.7144 13.5713 9.11266 13.5713 7.14293C13.5713 5.17319 11.9696 3.5715 9.9999 3.5715C8.03016 3.5715 6.42847 5.17319 6.42847 7.14293ZM9.9999 9.52388C8.68764 9.52388 7.61894 8.45518 7.61894 7.14293C7.61894 5.83068 8.68764 4.76197 9.9999 4.76197C11.3121 4.76197 12.3808 5.83068 12.3808 7.14293C12.3808 8.45518 11.3121 9.52388 9.9999 9.52388Z" fill="#F2C94C"/>
</g>
</svg>
