<svg width="24" height="24" viewBox="0 0 24 24" fill="none" xmlns="http://www.w3.org/2000/svg">
<mask id="mask0_961_178310" style="mask-type:luminance" maskUnits="userSpaceOnUse" x="0" y="0" width="24" height="24">
<path d="M0 -1.90735e-06H24V24H0V-1.90735e-06Z" fill="white"/>
</mask>
<g mask="url(#mask0_961_178310)">
<path fill-rule="evenodd" clip-rule="evenodd" d="M12.2126 24C12.4455 24 12.6629 23.8825 12.7921 23.6869C13.3218 22.8847 13.9267 22.0293 14.567 21.124C14.7594 20.852 14.9549 20.5755 15.1526 20.2947C16.003 19.086 16.8847 17.8062 17.6808 16.4992C19.2582 13.9099 20.5698 11.1064 20.5698 8.4375C20.5698 3.78444 16.8214 -1.90735e-06 12.2126 -1.90735e-06C7.60387 -1.90735e-06 3.85547 3.78444 3.85547 8.4375C3.85547 11.1064 5.16703 13.9099 6.7444 16.4992C7.54057 17.8062 8.42223 19.086 9.27265 20.2947C9.47029 20.5755 9.66583 20.852 9.85819 21.124C10.4985 22.0293 11.1035 22.8847 11.6331 23.6869C11.7623 23.8825 11.9798 24 12.2126 24ZM7.93082 15.7625C6.37427 13.2073 5.24833 10.6905 5.24833 8.4375C5.24833 4.56109 8.37312 1.40625 12.2126 1.40625C16.0521 1.40625 19.1769 4.56109 19.1769 8.4375C19.1769 10.6905 18.051 13.2073 16.4944 15.7625C15.7236 17.0278 14.8642 18.2763 14.0171 19.4803C13.8248 19.7534 13.6328 20.0249 13.4426 20.2939C13.0181 20.894 12.6024 21.4818 12.2126 22.0486C11.8228 21.4818 11.4071 20.894 10.9826 20.2939C10.7924 20.0249 10.6004 19.7534 10.4082 19.4803C9.56102 18.2763 8.70162 17.0278 7.93082 15.7625Z" fill="white"/>
<path fill-rule="evenodd" clip-rule="evenodd" d="M7.71289 8.57146C7.71289 10.9351 9.63493 12.8572 11.9986 12.8572C14.3623 12.8572 16.2843 10.9351 16.2843 8.57146C16.2843 6.20778 14.3623 4.28575 11.9986 4.28575C9.63493 4.28575 7.71289 6.20778 7.71289 8.57146ZM11.9986 11.4286C10.4239 11.4286 9.14146 10.1462 9.14146 8.57146C9.14146 6.99676 10.4239 5.71432 11.9986 5.71432C13.5733 5.71432 14.8557 6.99676 14.8557 8.57146C14.8557 10.1462 13.5733 11.4286 11.9986 11.4286Z" fill="white"/>
</g>
</svg>
