<svg width="41" height="40" viewBox="0 0 41 40" fill="none" xmlns="http://www.w3.org/2000/svg">
<path d="M22.8516 36.6465H35.9083V39.3525H22.8516V36.6465Z" fill="#DAE8F0"/>
<path d="M33.6608 18.058V8.68701H29.9395V14.2637" fill="#DAE8F0"/>
<path d="M26.7961 18.664C26.7961 20.5594 25.2578 22.0977 23.3624 22.0977C21.467 22.0977 19.9287 20.5594 19.9287 18.664C19.9287 16.7548 21.467 15.2166 23.3624 15.2166C25.2578 15.2166 26.7961 16.7548 26.7961 18.664Z" fill="#5BBE88"/>
<path d="M39.985 38.7017H36.5517V21.9382L39.6934 25.1471C39.9465 25.4052 40.3564 25.4051 40.6093 25.1572C40.8648 24.9068 40.8692 24.4969 40.6194 24.2414C40.3754 23.9922 34.7526 18.2489 34.3082 17.795V8.68671C34.3082 8.32871 34.0185 8.03902 33.6606 8.03902H29.9395C29.5815 8.03902 29.2918 8.32871 29.2918 8.68671V12.6711L24.2912 7.56337C24.0471 7.31416 23.6094 7.31416 23.3652 7.56337C21.0292 9.9494 11.1444 20.046 7.03703 24.2413C6.78719 24.4969 6.79162 24.9067 7.04716 25.1572C7.30269 25.4071 7.71255 25.4033 7.96303 25.1471L11.1047 21.9382V38.7017H7.67144C7.31345 38.7017 7.02376 38.9914 7.02376 39.3494C7.02376 39.7074 7.31345 39.9971 7.67144 39.9971C7.73693 39.9971 42.1737 40.0035 39.985 39.9971C40.343 39.9971 40.6327 39.7074 40.6327 39.3494C40.6327 38.9914 40.343 38.7017 39.985 38.7017ZM30.5872 9.3344H33.0129V16.4719L30.5872 13.9942V9.3344ZM12.4001 20.6151L23.8282 8.94224C27.6737 12.87 31.0212 16.2892 35.2564 20.6151V38.7017H23.5012V26.3836C23.5012 26.0257 23.2115 25.736 22.8535 25.736H15.0775C14.7195 25.736 14.4298 26.0257 14.4298 26.3836V38.7017H12.4001V20.6151ZM15.7252 38.5493V27.0313H22.2058V38.5493H15.7252Z" fill="#7E8BA0"/>
<path d="M21.0524 31.1692H20.8342C20.4762 31.1692 20.1865 31.4589 20.1865 31.8169C20.1865 32.1749 20.4762 32.4646 20.8342 32.4646H21.0524C21.4104 32.4646 21.7001 32.1749 21.7001 31.8169C21.7001 31.4589 21.4104 31.1692 21.0524 31.1692Z" fill="#7E8BA0"/>
<path d="M25.9309 34.3283H33.2275C33.5855 34.3283 33.8752 34.0386 33.8752 33.6806C33.8752 31.1287 33.8752 28.9359 33.8752 26.384C33.8752 26.026 33.5855 25.7363 33.2275 25.7363C30.6756 25.7363 28.4828 25.7363 25.9309 25.7363C25.5729 25.7363 25.2832 26.026 25.2832 26.384V33.6806C25.2832 34.0386 25.5729 34.3283 25.9309 34.3283ZM26.5786 30.68H28.9315V33.0329H26.5786V30.68ZM32.5798 33.0329H30.2269V30.68H32.5798V33.0329ZM32.5798 29.3846H30.2269V27.0317H32.5798V29.3846ZM26.5786 27.0317H28.9315V29.3846H26.5786V27.0317Z" fill="#7E8BA0"/>
<path d="M31.8236 6.34997V4.7351H14.9018V6.34997L10.3926 3.17496L14.9018 0V1.61486H31.8236V0L36.333 3.17496L31.8236 6.34997Z" fill="#7166F0"/>
<path d="M6.35003 4.50939L4.73516 4.50939L4.73515 21.4312L6.35002 21.4313L3.17499 25.9404L0 21.4312L1.61487 21.4312L1.61487 4.50936L0 4.50935L3.17499 0L6.35003 4.50939Z" fill="#7166F0"/>
</svg>
