<svg width="52" height="32" viewBox="0 0 52 32" fill="none" xmlns="http://www.w3.org/2000/svg">
<path d="M20.2119 9.26465H31.8233V20.8761H20.2119V9.26465Z" fill="#7166F0"/>
<path d="M47.6566 12.6848V17.3179C47.6566 22.2017 44.3254 26.3093 39.8054 27.4898C38.9564 27.7081 38.0671 27.8293 37.1452 27.8293H14.5053C13.5917 27.8293 12.7022 27.7162 11.8532 27.4898C9.24961 26.8105 7.03414 25.1611 5.61914 22.9456C6.53293 23.5277 7.54364 23.9724 8.61889 24.2555C9.46793 24.4819 10.3574 24.595 11.271 24.595H33.9109C34.8328 24.595 35.7221 24.4738 36.5712 24.2555C41.0911 23.075 44.4223 18.9674 44.4223 14.0836V12.6848L47.6566 12.6848Z" fill="#DAE8F0"/>
<path d="M49.1429 8.45756H4.79945V3.50993C4.79945 2.46475 5.64994 1.61427 6.69511 1.61427C7.74028 1.61427 8.59077 2.46475 8.59077 3.50993V4.38327C8.59077 4.8294 8.95177 5.1904 9.3979 5.1904C9.84403 5.1904 10.205 4.8294 10.205 4.38327V3.50993C10.205 1.57486 8.63018 0 6.69511 0C4.76004 0 3.18518 1.57486 3.18518 3.50993V8.45756H2.51283C1.12715 8.45756 0 9.58865 0 10.9791C0 12.3638 1.12803 13.4919 2.51283 13.4919H3.18518V17.3179C3.18518 22.2625 6.39086 26.5999 11.0445 28.0871V31.1929C11.0445 31.639 11.4055 32 11.8516 32H14.6821C15.0802 32 15.4191 31.7092 15.4798 31.3158L15.8916 28.6367H35.7642L36.1768 31.3158C36.2375 31.7091 36.5764 32 36.9744 32H39.8041C40.2503 32 40.6113 31.639 40.6113 31.1929V28.0859C45.2621 26.5901 48.4627 22.2545 48.4627 17.3179V13.4919H49.1429C50.5286 13.4919 51.6566 12.3647 51.6566 10.9791C51.6566 9.58865 50.5286 8.45756 49.1429 8.45756ZM13.9893 30.3857H12.6588V28.4877C13.0939 28.5596 13.8667 28.6258 14.2588 28.6343L13.9893 30.3857ZM38.997 30.3857H37.6665L37.3969 28.6335C37.8666 28.6233 38.5911 28.5507 38.997 28.4838V30.3857ZM49.1429 11.8776C44.1289 11.8776 40.2078 11.8776 33.4409 11.8776C32.9947 11.8776 32.6337 12.2386 32.6337 12.6848C32.6337 13.1309 32.9947 13.4919 33.4409 13.4919H46.8484V17.3179C46.8484 22.6945 42.4906 27.0224 37.1439 27.0224C33.235 27.0224 20.1485 27.0224 14.504 27.0224C9.14446 27.0224 4.79945 22.6808 4.79945 17.3179V13.4919H18.5956C19.0417 13.4919 19.4027 13.1309 19.4027 12.6848C19.4027 12.2386 19.0417 11.8776 18.5956 11.8776C16.419 11.8776 6.34038 11.8776 2.51283 11.8776C2.02055 11.8776 1.61427 11.4716 1.61427 10.9791C1.61427 10.4785 2.01704 10.0718 2.51283 10.0718H49.1429C49.6387 10.0718 50.0423 10.4785 50.0423 10.9791C50.0423 11.4749 49.6387 11.8776 49.1429 11.8776Z" fill="#7E8BA0"/>
</svg>
