<svg width="42" height="40" viewBox="0 0 42 40" fill="none" xmlns="http://www.w3.org/2000/svg">
<path d="M32.7109 2.24438V11.256L37.8801 16.325H38.193V2.24438H32.7109Z" fill="#DAE8F0"/>
<path d="M10.0721 27.5055C10.0721 28.7823 9.41229 29.9012 8.4081 30.5324C7.8486 30.891 7.18877 31.0919 6.48577 31.0919C5.78286 31.0919 5.12302 30.891 4.56353 30.5324C3.55934 29.9012 2.89941 28.7823 2.89941 27.5055C2.89941 25.5259 4.50609 23.9192 6.48577 23.9192C8.46545 23.9192 10.0721 25.5259 10.0721 27.5055Z" fill="#7166F0"/>
<path d="M26.9528 13.5052C26.9528 15.1301 26.1131 16.5541 24.835 17.3575C24.123 17.8139 23.2832 18.0695 22.3885 18.0695C21.4939 18.0695 20.6542 17.8139 19.9421 17.3575C18.6641 16.5541 17.8242 15.1301 17.8242 13.5052C17.8242 10.9857 19.869 8.94092 22.3885 8.94092C24.908 8.94092 26.9528 10.9857 26.9528 13.5052Z" fill="#5BBE88"/>
<path d="M41.7978 19.2159L38.867 16.3423C38.8724 -5.37241 38.8697 5.32588 38.8705 2.24437C38.8705 1.87026 38.5675 1.56695 38.1931 1.56695H32.7115C32.3371 1.56695 32.0341 1.87026 32.0341 2.24437V9.64281L22.3967 0.193585C22.1334 -0.0644176 21.7114 -0.0647494 21.4481 0.193917L2.05364 19.2159C1.85716 19.4084 1.79696 19.7008 1.90082 19.9559C2.00468 20.2106 2.25276 20.3769 2.52796 20.3769H8.04192V21.7519C8.04192 22.1261 8.34491 22.4294 8.71934 22.4294C9.09377 22.4294 9.39676 22.1261 9.39676 21.7519V19.6995C9.39676 19.3254 9.09377 19.0221 8.71934 19.0221H4.18579L21.9224 1.62615L32.2364 11.7386C32.2367 11.739 32.2369 11.7394 32.2372 11.7398C32.2891 11.7907 38.4401 17.8212 39.665 19.0221H35.1116C34.7372 19.0221 34.4342 19.3254 34.4342 19.6995V38.0441H27.1718V26.7089C27.1718 24.0716 25.0264 21.9263 22.3895 21.9263C19.7519 21.9263 17.6065 24.0716 17.6065 26.7089V38.0441H14.9994C14.6249 38.0441 14.3219 38.3474 14.3219 38.7215C14.3219 39.0956 14.6249 39.3989 14.9994 39.3989H35.1116C35.486 39.3989 35.789 39.0956 35.789 38.7215V20.3769H41.3235C41.5987 20.3769 41.8468 20.2105 41.9506 19.9555C42.0545 19.7008 41.9943 19.4084 41.7978 19.2159ZM33.3889 2.92179H37.5156V15.0174L33.3889 10.9712V2.92179ZM18.9613 26.7089C18.9613 24.8189 20.4994 23.2811 22.3895 23.2811C24.2795 23.2811 25.8169 24.8189 25.8169 26.7089V37.9217H18.9613V26.7089Z" fill="#7E8BA0"/>
<path d="M9.97607 30.7588C9.66052 30.5584 9.24176 30.652 9.04132 30.9676C8.8402 31.2831 8.93415 31.7019 9.2497 31.9027C10.8015 32.8888 11.6114 34.5388 11.6114 36.2219V38.0441H1.35485V36.2219C1.35485 34.4625 2.23999 32.8503 3.72317 31.9093C4.03872 31.7088 4.13266 31.2904 3.93221 30.9745C3.73176 30.6583 3.31235 30.5647 2.99679 30.7655C1.12066 31.9563 0 33.9961 0 36.2219V38.7215C0 39.0956 0.30299 39.3989 0.67742 39.3989H12.2888C12.6633 39.3989 12.9662 39.0956 12.9662 38.7215V36.2219C12.9663 34.0462 11.8971 31.9796 9.97607 30.7588Z" fill="#7E8BA0"/>
</svg>
