<svg width="40" height="40" viewBox="0 0 40 40" fill="none" xmlns="http://www.w3.org/2000/svg">
<path d="M38.3935 3.06787V39.0054H5.70365C4.30219 39.0054 3.02874 38.4388 2.10866 37.5126C1.69433 37.0983 1.35312 36.6169 1.10938 36.0868C1.76745 36.3976 2.49863 36.5682 3.26638 36.5682H35.9563V3.06787H38.3935Z" fill="#DAE8F0"/>
<path d="M14.1357 24.1523V9.06348H33.7957V33.011H14.1357V30.1594V24.1523Z" fill="#7166F0"/>
<path d="M9.53054 3.81708V3.85363C9.06745 3.7257 8.59224 3.66475 8.11695 3.66475C6.67284 3.66475 5.22266 4.24971 4.18074 5.41959C3.83343 5.81566 3.6628 6.33966 3.6628 6.86367V31.6568C2.46246 31.9859 1.36566 32.7414 0.616211 33.9174V3.81708C0.616211 3.29307 0.786839 2.76907 1.13416 2.373C2.17607 1.20312 3.62625 0.618164 5.07033 0.618164C6.52051 0.618164 7.97072 1.20312 9.01263 2.373C9.35999 2.76907 9.53054 3.29307 9.53054 3.81708Z" fill="#DAE8F0"/>
<path d="M38.3968 2.44942H9.80801C9.16875 1.26605 7.26984 0 5.07359 0C2.8267 0 0 1.49949 0 3.81774V33.9182C0 37.0963 2.58317 39.6255 5.70725 39.6255H38.3968C38.7391 39.6255 39.016 39.3486 39.016 39.0063V3.06858C39.016 2.72635 38.7391 2.44942 38.3968 2.44942ZM1.23832 3.81773C1.23832 2.27835 3.51206 1.23831 5.07359 1.23831C6.63692 1.23831 8.91431 2.27426 8.91431 3.81773V32.2657C6.73522 30.398 3.42234 30.3737 1.23833 32.2591L1.23832 3.81773ZM37.7777 38.3872H5.70726C3.3018 38.3872 1.34172 36.4841 1.24289 34.1096C3.05856 31.4582 6.86089 31.4629 8.73654 33.8632C8.83389 33.9866 8.92519 34.1166 9.01165 34.2514C9.15979 34.483 9.44216 34.5906 9.707 34.5126C9.97123 34.4352 10.1526 34.1933 10.1526 33.9182C10.1526 27.955 10.1526 18.3025 10.1526 3.68773H37.7777L37.7777 38.3872Z" fill="#7E8BA0"/>
<path d="M21.4837 21.6256H18.7676C18.4254 21.6256 18.1484 21.3487 18.1484 21.0065C18.1484 20.6642 18.4254 20.3873 18.7676 20.3873H20.8645V9.06349C20.8645 8.72127 21.1414 8.44434 21.4837 8.44434C21.8259 8.44434 22.1028 8.72127 22.1028 9.06349V21.0065C22.1028 21.3487 21.8259 21.6256 21.4837 21.6256Z" fill="white"/>
<path d="M16.1432 21.626H14.1358C13.7935 21.626 13.5166 21.3491 13.5166 21.0069C13.5166 20.6646 13.7935 20.3877 14.1358 20.3877H16.1432C16.4854 20.3877 16.7623 20.6646 16.7623 21.0069C16.7623 21.3491 16.4854 21.626 16.1432 21.626Z" fill="white"/>
<path d="M24.471 17.4615H21.4834C21.1412 17.4615 20.8643 17.1845 20.8643 16.8423C20.8643 16.5001 21.1412 16.2231 21.4834 16.2231H24.471C24.8132 16.2231 25.0901 16.5001 25.0901 16.8423C25.0901 17.1845 24.8132 17.4615 24.471 17.4615Z" fill="white"/>
<path d="M33.7954 17.4615H27.5488C27.2066 17.4615 26.9297 17.1845 26.9297 16.8423C26.9297 16.5001 27.2066 16.2231 27.5488 16.2231H33.7954C34.1377 16.2231 34.4146 16.5001 34.4146 16.8423C34.4146 17.1845 34.1377 17.4615 33.7954 17.4615Z" fill="white"/>
<path d="M29.0879 18.8056C28.7457 18.8056 28.4688 18.5287 28.4688 18.1864V16.8423C28.4688 16.5001 28.7457 16.2231 29.0879 16.2231C29.4301 16.2231 29.7071 16.5001 29.7071 16.8423V18.1864C29.7071 18.5287 29.4301 18.8056 29.0879 18.8056Z" fill="white"/>
<path d="M33.7954 23.4361H28.3633C28.0211 23.4361 27.7441 23.1591 27.7441 22.8169C27.7441 22.4747 28.0211 22.1978 28.3633 22.1978H33.7954C34.1377 22.1978 34.4146 22.4747 34.4146 22.8169C34.4146 23.1591 34.1377 23.4361 33.7954 23.4361Z" fill="white"/>
<path d="M28.3633 25.111C28.0211 25.111 27.7441 24.8341 27.7441 24.4918V21.1421C27.7441 20.7999 28.0211 20.5229 28.3633 20.5229C28.7055 20.5229 28.9825 20.7999 28.9825 21.1421V24.4918C28.9825 24.8341 28.7055 25.111 28.3633 25.111Z" fill="white"/>
<path d="M27.0508 33.6305C26.7086 33.6305 26.4316 33.3536 26.4316 33.0114V29.6846C26.4316 29.3424 26.7086 29.0654 27.0508 29.0654C27.393 29.0654 27.67 29.3424 27.67 29.6846V33.0114C27.67 33.3536 27.393 33.6305 27.0508 33.6305Z" fill="white"/>
</svg>
