<svg width="40" height="40" viewBox="0 0 40 40" fill="none" xmlns="http://www.w3.org/2000/svg">
<path d="M39.2369 36.1118C38.7556 37.9871 37.0554 39.3747 35.0302 39.3747C33.83 39.3747 32.7424 38.8872 31.9548 38.0996C31.1673 37.3182 30.6797 36.2306 30.6797 35.0305V26.3545H33.805V31.9051C33.805 33.1053 34.2926 34.1929 35.0801 34.9742C35.8677 35.7618 36.9554 36.2494 38.1555 36.2494C38.5305 36.2494 38.8931 36.1994 39.2369 36.1118Z" fill="#DAE8F0"/>
<path d="M17.4327 30.544V35.7627H12.3203V30.544C12.3203 29.1322 13.4648 27.9878 14.8765 27.9878C16.2883 27.9878 17.4327 29.1322 17.4327 30.544Z" fill="#DAE8F0"/>
<path d="M39.3752 25.7323H31.3055V3.04692C31.3055 1.36673 29.9387 0 28.2589 0H3.04722C1.36673 0 0 1.36673 0 3.04692V36.9531C0 38.6333 1.36673 40 3.04722 40H35.5241C35.6205 40 35.7092 39.9742 35.7907 39.9353C38.1709 39.5663 40.0003 37.5095 40.0003 35.0278V26.3574C40.0003 26.0122 39.7207 25.7323 39.3752 25.7323ZM3.04722 38.7499C2.05651 38.7499 1.25014 37.9438 1.25014 36.9531V3.04692C1.25014 2.0562 2.05651 1.25014 3.04722 1.25014H28.2588C29.2496 1.25014 30.0553 2.0562 30.0553 3.04692V35.0278C30.0553 36.5095 30.7103 37.8381 31.7419 38.7499L3.04722 38.7499ZM38.7502 35.0278C38.7502 37.0801 37.08 38.7499 35.0278 38.7499C32.9756 38.7499 31.3055 37.0801 31.3055 35.0278C31.3055 33.13 31.3055 28.8808 31.3055 26.9825H38.7502V35.0278Z" fill="#7E8BA0"/>
<path d="M25.016 25.3709L20.5715 21.412V18.9691C20.5715 18.6239 20.292 18.344 19.9465 18.344C19.601 18.344 19.3214 18.6239 19.3214 18.9691V20.2984L15.2914 16.7087C15.0552 16.4981 14.6974 16.4969 14.46 16.7087L4.73476 25.3709C4.47717 25.6004 4.45397 25.9956 4.68349 26.2532C4.91362 26.5108 5.30856 26.5334 5.56616 26.3042L8.03775 24.1028V35.7627C8.03775 36.1079 8.31733 36.3878 8.66283 36.3878H21.088C21.4335 36.3878 21.713 36.1079 21.713 35.7627V24.1027L24.1846 26.3042C24.4408 26.5328 24.8355 26.5124 25.0673 26.2532C25.2968 25.9956 25.2736 25.6004 25.016 25.3709ZM16.8065 35.1376H12.9443V30.5439C12.9443 29.479 13.8105 28.6128 14.8757 28.6128C15.9403 28.6128 16.8065 29.479 16.8065 30.5439V35.1376ZM20.4629 23.3376V35.1376H18.0566V30.5439C18.0566 28.7899 16.6294 27.3627 14.8757 27.3627C13.1213 27.3627 11.6942 28.7898 11.6942 30.5439V35.1376H9.2879V22.9894L14.8757 18.0126L20.5378 23.0559C20.4937 23.1416 20.4629 23.2346 20.4629 23.3376Z" fill="#7E8BA0"/>
<path d="M4.4375 5.13745H26.625V10.1374H4.4375V5.13745Z" fill="#7166F0"/>
</svg>
