<svg width="41" height="40" viewBox="0 0 41 40" fill="none" xmlns="http://www.w3.org/2000/svg">
<path d="M16.1934 28.0039H24.7702V30.6589H16.1934V28.0039Z" fill="#DAE8F0"/>
<path d="M11.9043 36.2434H20.4811V38.8984H11.9043V36.2434Z" fill="#DAE8F0"/>
<path d="M20.4824 36.2439H29.0593V38.8989H20.4824V36.2439Z" fill="#DAE8F0"/>
<path d="M17.5081 30.6592V33.8999L16.1568 33.1565L14.875 33.8999V30.6592H17.5081Z" fill="#7166F0"/>
<path d="M26.0882 30.6592V33.8999L24.7369 33.1565L23.4551 33.8999V30.6592H26.0882Z" fill="#7166F0"/>
<path d="M21.7991 22.4197V25.6604L20.4479 24.917L19.166 25.6604V22.4197H21.7991Z" fill="#7166F0"/>
<path d="M40.324 38.261H36.9237V13.9734L37.9956 14.8368C38.2719 15.0599 38.6744 15.0149 38.8951 14.7399C39.117 14.4649 39.0739 14.0617 38.7982 13.8404L22.4635 0.683504C21.3227 -0.227837 19.6669 -0.228458 18.525 0.68538L2.07521 13.9486C1.80018 14.1705 1.75705 14.573 1.97895 14.8487C2.1991 15.1222 2.60205 15.168 2.87904 14.9449L4.00227 14.0393V38.261H0.640063C0.286281 38.261 0 38.5472 0 38.901C0 39.2548 0.286281 39.5411 0.640063 39.5411C10.443 39.5435 14.7575 39.5424 40.324 39.5411C40.6778 39.5411 40.9641 39.2548 40.9641 38.901C40.9641 38.5472 40.6778 38.261 40.324 38.261ZM31.2868 18.0458H9.67657V16.1994H31.2868V18.0458ZM9.67657 19.326H31.2868V38.2591H29.6992V30.6596C29.6992 30.3058 29.4129 30.0195 29.0591 30.0195H25.4106V22.4194C25.4106 22.0656 25.1244 21.7793 24.7706 21.7793H16.1935C15.8397 21.7793 15.5534 22.0656 15.5534 22.4194V30.0195H11.9049C11.5511 30.0195 11.2649 30.3058 11.2649 30.6596V38.2591H9.67656L9.67657 19.326ZM21.1221 38.2591V31.2997H28.4191V38.2591L21.1221 38.2591ZM24.1305 30.0195C21.5785 30.0195 19.3856 30.0195 16.8335 30.0195V23.0595H24.1305V30.0195ZM12.545 31.2997H19.842V38.2591H12.545V31.2997ZM31.2868 14.9193H9.67657V13.0729H31.2868V14.9193ZM19.3269 1.6836C20.0039 1.14167 20.9858 1.14292 21.6628 1.68173L35.5866 12.8965V38.261H32.567V12.4328C32.567 12.079 32.2807 11.7927 31.9269 11.7927H9.0365C8.68273 11.7927 8.39644 12.079 8.39644 12.4328V38.261H5.33928V12.9613L19.3269 1.6836Z" fill="#7E8BA0"/>
</svg>
