<svg width="1920" height="605" viewBox="0 0 1920 605" fill="none" xmlns="http://www.w3.org/2000/svg">
<rect width="1920" height="605" fill="#F7F7FD"/>
<g opacity="0.8">
<g opacity="0.32">
<path d="M1788.79 430.392C1788.1 431.069 1788.1 432.182 1788.79 432.859C1789.46 433.537 1790.58 433.537 1791.25 432.859C1791.94 432.182 1791.94 431.069 1791.25 430.392C1790.58 429.705 1789.47 429.705 1788.79 430.392Z" fill="#7166F0"/>
<path d="M1795.54 437.127C1794.86 437.804 1794.86 438.917 1795.54 439.594C1796.22 440.281 1797.33 440.281 1798 439.594C1798.69 438.917 1798.69 437.804 1798 437.127C1797.33 436.449 1796.21 436.449 1795.54 437.127Z" fill="#7166F0"/>
<path d="M1803.52 446.852C1804.48 446.852 1805.26 446.072 1805.26 445.11C1805.26 444.148 1804.48 443.368 1803.52 443.368C1802.55 443.368 1801.77 444.148 1801.77 445.11C1801.77 446.072 1802.55 446.852 1803.52 446.852Z" fill="#7166F0"/>
<path d="M1809.03 450.616C1808.34 451.293 1808.34 452.406 1809.03 453.084C1809.71 453.761 1810.82 453.761 1811.49 453.084C1812.18 452.406 1812.18 451.293 1811.49 450.616C1810.82 449.929 1809.71 449.929 1809.03 450.616Z" fill="#7166F0"/>
<path d="M1815.78 457.351C1815.1 458.029 1815.1 459.142 1815.78 459.819C1816.46 460.496 1817.57 460.496 1818.25 459.819C1818.92 459.132 1818.92 458.029 1818.25 457.351C1817.57 456.674 1816.45 456.674 1815.78 457.351Z" fill="#7166F0"/>
<path d="M1822.52 464.096C1821.84 464.774 1821.84 465.886 1822.52 466.564C1823.2 467.241 1824.31 467.241 1824.99 466.564C1825.68 465.886 1825.68 464.774 1824.99 464.096C1824.31 463.419 1823.2 463.419 1822.52 464.096Z" fill="#7166F0"/>
<path d="M1829.26 470.841C1828.57 471.518 1828.57 472.631 1829.26 473.309C1829.95 473.986 1831.05 473.986 1831.73 473.309C1832.42 472.631 1832.42 471.518 1831.73 470.841C1831.05 470.154 1829.95 470.154 1829.26 470.841Z" fill="#7166F0"/>
<path d="M1836.01 477.586C1835.33 478.273 1835.33 479.376 1836.01 480.053C1836.7 480.731 1837.8 480.731 1838.48 480.053C1839.16 479.376 1839.16 478.263 1838.48 477.586C1837.8 476.899 1836.7 476.899 1836.01 477.586Z" fill="#7166F0"/>
<path d="M1842.76 484.321C1842.08 484.998 1842.08 486.111 1842.76 486.788C1843.44 487.466 1844.56 487.466 1845.23 486.788C1845.92 486.101 1845.92 484.998 1845.23 484.321C1844.56 483.643 1843.44 483.643 1842.76 484.321Z" fill="#7166F0"/>
<path d="M1849.51 491.065C1848.83 491.743 1848.83 492.856 1849.51 493.533C1850.2 494.22 1851.3 494.22 1851.98 493.533C1852.67 492.856 1852.67 491.743 1851.98 491.065C1851.29 490.388 1850.19 490.388 1849.51 491.065Z" fill="#7166F0"/>
<path d="M1857.49 500.781C1858.45 500.781 1859.23 500.001 1859.23 499.039C1859.23 498.077 1858.45 497.297 1857.49 497.297C1856.53 497.297 1855.75 498.077 1855.75 499.039C1855.75 500.001 1856.53 500.781 1857.49 500.781Z" fill="#7166F0"/>
<path d="M1863 504.545C1862.31 505.223 1862.31 506.335 1863 507.013C1863.69 507.69 1864.79 507.69 1865.47 507.013C1866.16 506.335 1866.16 505.223 1865.47 504.545C1864.79 503.868 1863.69 503.868 1863 504.545Z" fill="#7166F0"/>
<path d="M1787.1 438.811C1786.42 439.498 1786.42 440.601 1787.1 441.278C1787.79 441.955 1788.89 441.955 1789.57 441.278C1790.25 440.591 1790.25 439.488 1789.57 438.811C1788.89 438.133 1787.78 438.133 1787.1 438.811Z" fill="#7166F0"/>
<path d="M1793.85 445.555C1793.16 446.232 1793.16 447.345 1793.85 448.022C1794.53 448.71 1795.64 448.71 1796.32 448.022C1797.01 447.345 1797.01 446.232 1796.32 445.555C1795.63 444.878 1794.53 444.878 1793.85 445.555Z" fill="#7166F0"/>
<path d="M1800.59 452.3C1799.9 452.977 1799.9 454.09 1800.59 454.768C1801.28 455.445 1802.38 455.445 1803.06 454.768C1803.75 454.09 1803.75 452.977 1803.06 452.3C1802.38 451.613 1801.28 451.613 1800.59 452.3Z" fill="#7166F0"/>
<path d="M1807.34 459.045C1806.66 459.722 1806.66 460.835 1807.34 461.512C1808.03 462.19 1809.13 462.19 1809.81 461.512C1810.49 460.835 1810.49 459.722 1809.81 459.045C1809.13 458.358 1808.03 458.358 1807.34 459.045Z" fill="#7166F0"/>
<path d="M1814.09 465.78C1813.4 466.457 1813.4 467.57 1814.09 468.247C1814.77 468.925 1815.88 468.925 1816.56 468.247C1817.25 467.56 1817.25 466.457 1816.56 465.78C1815.88 465.102 1814.77 465.102 1814.09 465.78Z" fill="#7166F0"/>
<path d="M1820.84 472.525C1820.16 473.202 1820.16 474.315 1820.84 474.992C1821.53 475.679 1822.63 475.679 1823.31 474.992C1824 474.315 1824 473.202 1823.31 472.525C1822.62 471.847 1821.52 471.847 1820.84 472.525Z" fill="#7166F0"/>
<path d="M1827.58 479.269C1826.9 479.947 1826.9 481.059 1827.58 481.737C1828.27 482.414 1829.37 482.414 1830.05 481.737C1830.73 481.059 1830.73 479.947 1830.05 479.269C1829.37 478.582 1828.27 478.582 1827.58 479.269Z" fill="#7166F0"/>
<path d="M1834.33 486.004C1833.64 486.682 1833.64 487.795 1834.33 488.472C1835.01 489.149 1836.12 489.149 1836.8 488.472C1837.49 487.795 1837.49 486.682 1836.8 486.004C1836.12 485.327 1835.01 485.327 1834.33 486.004Z" fill="#7166F0"/>
<path d="M1841.08 492.749C1840.4 493.426 1840.4 494.539 1841.08 495.217C1841.76 495.894 1842.87 495.894 1843.55 495.217C1844.23 494.53 1844.23 493.426 1843.55 492.749C1842.86 492.072 1841.75 492.072 1841.08 492.749Z" fill="#7166F0"/>
<path d="M1847.82 499.494C1847.13 500.171 1847.13 501.284 1847.82 501.961C1848.49 502.639 1849.61 502.639 1850.29 501.961C1850.96 501.284 1850.96 500.171 1850.29 499.494C1849.61 498.807 1848.5 498.807 1847.82 499.494Z" fill="#7166F0"/>
<path d="M1854.57 506.238C1853.88 506.916 1853.88 508.029 1854.57 508.706C1855.25 509.383 1856.36 509.383 1857.04 508.706C1857.72 508.029 1857.72 506.916 1857.04 506.238C1856.36 505.551 1855.25 505.551 1854.57 506.238Z" fill="#7166F0"/>
<path d="M1778.67 440.504C1777.99 441.191 1777.99 442.294 1778.67 442.972C1779.36 443.649 1780.46 443.649 1781.14 442.972C1781.82 442.294 1781.82 441.181 1781.14 440.504C1780.46 439.817 1779.36 439.817 1778.67 440.504Z" fill="#7166F0"/>
<path d="M1785.42 447.239C1784.73 447.916 1784.73 449.029 1785.42 449.707C1786.1 450.394 1787.21 450.394 1787.89 449.707C1788.57 449.029 1788.57 447.916 1787.89 447.239C1787.2 446.562 1786.1 446.562 1785.42 447.239Z" fill="#7166F0"/>
<path d="M1792.15 453.984C1791.48 454.661 1791.48 455.774 1792.15 456.451C1792.84 457.138 1793.95 457.138 1794.62 456.451C1795.31 455.774 1795.31 454.661 1794.62 453.984C1793.95 453.306 1792.84 453.306 1792.15 453.984Z" fill="#7166F0"/>
<path d="M1798.9 460.729C1798.23 461.406 1798.23 462.519 1798.9 463.196C1799.59 463.874 1800.7 463.874 1801.37 463.196C1802.05 462.519 1802.05 461.406 1801.37 460.729C1800.7 460.042 1799.59 460.042 1798.9 460.729Z" fill="#7166F0"/>
<path d="M1805.66 467.473C1804.97 468.16 1804.97 469.264 1805.66 469.941C1806.34 470.618 1807.45 470.618 1808.13 469.941C1808.82 469.264 1808.82 468.151 1808.13 467.473C1807.45 466.786 1806.34 466.786 1805.66 467.473Z" fill="#7166F0"/>
<path d="M1812.4 474.208C1811.73 474.895 1811.73 475.998 1812.4 476.676C1813.09 477.363 1814.19 477.363 1814.87 476.676C1815.56 475.998 1815.56 474.886 1814.87 474.208C1814.18 473.531 1813.08 473.531 1812.4 474.208Z" fill="#7166F0"/>
<path d="M1819.14 480.953C1818.46 481.63 1818.46 482.743 1819.14 483.421C1819.82 484.108 1820.94 484.108 1821.61 483.421C1822.29 482.743 1822.29 481.63 1821.61 480.953C1820.94 480.276 1819.83 480.276 1819.14 480.953Z" fill="#7166F0"/>
<path d="M1825.89 487.698C1825.21 488.375 1825.21 489.488 1825.89 490.165C1826.57 490.843 1827.68 490.843 1828.36 490.165C1829.05 489.488 1829.05 488.375 1828.36 487.698C1827.68 487.011 1826.57 487.011 1825.89 487.698Z" fill="#7166F0"/>
<path d="M1832.64 494.433C1831.97 495.12 1831.97 496.223 1832.64 496.9C1833.33 497.578 1834.43 497.578 1835.11 496.9C1835.8 496.223 1835.8 495.11 1835.11 494.433C1834.43 493.755 1833.32 493.755 1832.64 494.433Z" fill="#7166F0"/>
<path d="M1839.39 501.178C1838.71 501.855 1838.71 502.968 1839.39 503.645C1840.07 504.332 1841.18 504.332 1841.86 503.645C1842.54 502.968 1842.54 501.855 1841.86 501.178C1841.17 500.5 1840.07 500.5 1839.39 501.178Z" fill="#7166F0"/>
<path d="M1846.13 507.922C1845.45 508.6 1845.45 509.712 1846.13 510.39C1846.82 511.067 1847.92 511.067 1848.6 510.39C1849.29 509.712 1849.29 508.6 1848.6 507.922C1847.92 507.235 1846.82 507.235 1846.13 507.922Z" fill="#7166F0"/>
<path d="M1852.88 514.667C1852.2 515.345 1852.2 516.457 1852.88 517.135C1853.57 517.812 1854.67 517.812 1855.35 517.135C1856.03 516.457 1856.03 515.345 1855.35 514.667C1854.67 513.98 1853.56 513.98 1852.88 514.667Z" fill="#7166F0"/>
<path d="M1776.98 448.932C1776.3 449.619 1776.3 450.722 1776.98 451.4C1777.66 452.077 1778.78 452.077 1779.45 451.4C1780.14 450.713 1780.14 449.61 1779.45 448.932C1778.78 448.245 1777.66 448.245 1776.98 448.932Z" fill="#7166F0"/>
<path d="M1783.73 455.667C1783.05 456.345 1783.05 457.457 1783.73 458.135C1784.42 458.822 1785.52 458.822 1786.2 458.135C1786.89 457.457 1786.89 456.345 1786.2 455.667C1785.51 454.99 1784.41 454.99 1783.73 455.667Z" fill="#7166F0"/>
<path d="M1790.47 462.412C1789.79 463.09 1789.79 464.203 1790.47 464.88C1791.16 465.567 1792.26 465.567 1792.94 464.88C1793.62 464.203 1793.62 463.09 1792.94 462.412C1792.26 461.735 1791.16 461.735 1790.47 462.412Z" fill="#7166F0"/>
<path d="M1797.22 469.157C1796.54 469.834 1796.54 470.947 1797.22 471.624C1797.9 472.302 1799.02 472.302 1799.69 471.624C1800.38 470.947 1800.38 469.834 1799.69 469.157C1799.02 468.47 1797.9 468.47 1797.22 469.157Z" fill="#7166F0"/>
<path d="M1805.2 478.873C1806.16 478.873 1806.94 478.093 1806.94 477.131C1806.94 476.169 1806.16 475.389 1805.2 475.389C1804.24 475.389 1803.46 476.169 1803.46 477.131C1803.46 478.093 1804.24 478.873 1805.2 478.873Z" fill="#7166F0"/>
<path d="M1810.71 482.637C1810.02 483.314 1810.02 484.427 1810.71 485.105C1811.39 485.782 1812.5 485.782 1813.18 485.105C1813.86 484.417 1813.86 483.314 1813.18 482.637C1812.5 481.96 1811.4 481.96 1810.71 482.637Z" fill="#7166F0"/>
<path d="M1817.46 489.382C1816.77 490.059 1816.77 491.172 1817.46 491.849C1818.15 492.526 1819.25 492.526 1819.93 491.849C1820.62 491.172 1820.62 490.059 1819.93 489.382C1819.25 488.694 1818.15 488.694 1817.46 489.382Z" fill="#7166F0"/>
<path d="M1824.21 496.126C1823.53 496.804 1823.53 497.917 1824.21 498.594C1824.9 499.271 1826 499.271 1826.68 498.594C1827.36 497.917 1827.36 496.804 1826.68 496.126C1826 495.439 1824.89 495.439 1824.21 496.126Z" fill="#7166F0"/>
<path d="M1832.19 505.842C1833.15 505.842 1833.93 505.062 1833.93 504.1C1833.93 503.138 1833.15 502.358 1832.19 502.358C1831.23 502.358 1830.45 503.138 1830.45 504.1C1830.45 505.062 1831.23 505.842 1832.19 505.842Z" fill="#7166F0"/>
<path d="M1837.7 509.606C1837.01 510.283 1837.01 511.396 1837.7 512.074C1838.38 512.761 1839.49 512.761 1840.17 512.074C1840.86 511.396 1840.86 510.283 1840.17 509.606C1839.49 508.929 1838.39 508.929 1837.7 509.606Z" fill="#7166F0"/>
<path d="M1844.44 516.351C1843.77 517.028 1843.77 518.141 1844.44 518.818C1845.13 519.496 1846.24 519.496 1846.91 518.818C1847.59 518.141 1847.59 517.028 1846.91 516.351C1846.24 515.664 1845.13 515.664 1844.44 516.351Z" fill="#7166F0"/>
<path d="M1768.54 450.616C1767.86 451.294 1767.86 452.407 1768.54 453.084C1769.22 453.761 1770.34 453.761 1771.01 453.084C1771.7 452.407 1771.7 451.294 1771.01 450.616C1770.34 449.929 1769.22 449.929 1768.54 450.616Z" fill="#7166F0"/>
<path d="M1775.3 457.351C1774.62 458.029 1774.62 459.142 1775.3 459.819C1775.98 460.496 1777.09 460.496 1777.76 459.819C1778.45 459.132 1778.45 458.029 1777.76 457.351C1777.08 456.674 1775.97 456.674 1775.3 457.351Z" fill="#7166F0"/>
<path d="M1782.04 464.096C1781.35 464.773 1781.35 465.886 1782.04 466.564C1782.71 467.241 1783.83 467.241 1784.5 466.564C1785.18 465.886 1785.18 464.773 1784.5 464.096C1783.83 463.419 1782.72 463.419 1782.04 464.096Z" fill="#7166F0"/>
<path d="M1788.79 470.841C1788.1 471.518 1788.1 472.631 1788.79 473.308C1789.46 473.986 1790.58 473.986 1791.25 473.308C1791.94 472.631 1791.94 471.518 1791.25 470.841C1790.58 470.154 1789.47 470.154 1788.79 470.841Z" fill="#7166F0"/>
<path d="M1795.54 477.586C1794.86 478.273 1794.86 479.376 1795.54 480.053C1796.22 480.731 1797.33 480.731 1798 480.053C1798.69 479.376 1798.69 478.263 1798 477.586C1797.33 476.899 1796.21 476.899 1795.54 477.586Z" fill="#7166F0"/>
<path d="M1802.28 484.321C1801.6 484.998 1801.6 486.111 1802.28 486.788C1802.96 487.466 1804.07 487.466 1804.75 486.788C1805.43 486.101 1805.43 484.998 1804.75 484.321C1804.06 483.643 1802.96 483.643 1802.28 484.321Z" fill="#7166F0"/>
<path d="M1809.03 491.065C1808.34 491.743 1808.34 492.856 1809.03 493.533C1809.71 494.22 1810.82 494.22 1811.49 493.533C1812.18 492.856 1812.18 491.743 1811.49 491.065C1810.82 490.388 1809.71 490.388 1809.03 491.065Z" fill="#7166F0"/>
<path d="M1815.78 497.81C1815.1 498.487 1815.1 499.6 1815.78 500.278C1816.46 500.955 1817.57 500.955 1818.25 500.278C1818.92 499.6 1818.92 498.487 1818.25 497.81C1817.57 497.123 1816.45 497.123 1815.78 497.81Z" fill="#7166F0"/>
<path d="M1822.52 504.545C1821.84 505.223 1821.84 506.335 1822.52 507.013C1823.2 507.69 1824.31 507.69 1824.99 507.013C1825.68 506.335 1825.68 505.223 1824.99 504.545C1824.31 503.868 1823.2 503.868 1822.52 504.545Z" fill="#7166F0"/>
<path d="M1829.26 511.29C1828.57 511.967 1828.57 513.08 1829.26 513.758C1829.95 514.435 1831.05 514.435 1831.73 513.758C1832.42 513.071 1832.42 511.967 1831.73 511.29C1831.05 510.613 1829.95 510.613 1829.26 511.29Z" fill="#7166F0"/>
<path d="M1836.01 518.035C1835.33 518.712 1835.33 519.825 1836.01 520.502C1836.7 521.189 1837.8 521.189 1838.48 520.502C1839.16 519.825 1839.16 518.712 1838.48 518.035C1837.8 517.348 1836.7 517.348 1836.01 518.035Z" fill="#7166F0"/>
<path d="M1842.76 524.779C1842.07 525.457 1842.07 526.569 1842.76 527.247C1843.44 527.924 1844.55 527.924 1845.23 527.247C1845.92 526.569 1845.92 525.457 1845.23 524.779C1844.55 524.092 1843.44 524.092 1842.76 524.779Z" fill="#7166F0"/>
<path d="M1766.86 459.045C1766.18 459.722 1766.18 460.835 1766.86 461.512C1767.55 462.19 1768.65 462.19 1769.33 461.512C1770.02 460.835 1770.02 459.722 1769.33 459.045C1768.65 458.358 1767.54 458.358 1766.86 459.045Z" fill="#7166F0"/>
<path d="M1773.61 465.78C1772.92 466.457 1772.92 467.57 1773.61 468.247C1774.29 468.924 1775.4 468.924 1776.08 468.247C1776.76 467.56 1776.76 466.457 1776.08 465.78C1775.39 465.102 1774.29 465.102 1773.61 465.78Z" fill="#7166F0"/>
<path d="M1780.35 472.524C1779.66 473.202 1779.66 474.315 1780.35 474.992C1781.04 475.679 1782.14 475.679 1782.82 474.992C1783.51 474.315 1783.51 473.202 1782.82 472.524C1782.14 471.847 1781.04 471.847 1780.35 472.524Z" fill="#7166F0"/>
<path d="M1787.1 479.269C1786.42 479.947 1786.42 481.059 1787.1 481.737C1787.79 482.414 1788.89 482.414 1789.57 481.737C1790.25 481.059 1790.25 479.947 1789.57 479.269C1788.89 478.582 1787.78 478.582 1787.1 479.269Z" fill="#7166F0"/>
<path d="M1793.85 486.004C1793.16 486.682 1793.16 487.794 1793.85 488.472C1794.53 489.149 1795.64 489.149 1796.32 488.472C1797.01 487.794 1797.01 486.682 1796.32 486.004C1795.63 485.327 1794.53 485.327 1793.85 486.004Z" fill="#7166F0"/>
<path d="M1800.59 492.749C1799.9 493.426 1799.9 494.539 1800.59 495.217C1801.28 495.894 1802.38 495.894 1803.06 495.217C1803.75 494.53 1803.75 493.426 1803.06 492.749C1802.38 492.072 1801.28 492.072 1800.59 492.749Z" fill="#7166F0"/>
<path d="M1808.58 502.474C1809.54 502.474 1810.32 501.695 1810.32 500.733C1810.32 499.771 1809.54 498.991 1808.58 498.991C1807.62 498.991 1806.84 499.771 1806.84 500.733C1806.84 501.695 1807.62 502.474 1808.58 502.474Z" fill="#7166F0"/>
<path d="M1814.09 506.238C1813.4 506.916 1813.4 508.029 1814.09 508.706C1814.77 509.383 1815.88 509.383 1816.56 508.706C1817.25 508.029 1817.25 506.916 1816.56 506.238C1815.88 505.551 1814.77 505.551 1814.09 506.238Z" fill="#7166F0"/>
<path d="M1820.84 512.974C1820.16 513.651 1820.16 514.764 1820.84 515.441C1821.53 516.119 1822.63 516.119 1823.31 515.441C1824 514.764 1824 513.651 1823.31 512.974C1822.62 512.296 1821.52 512.296 1820.84 512.974Z" fill="#7166F0"/>
<path d="M1827.58 519.718C1826.9 520.396 1826.9 521.508 1827.58 522.186C1828.27 522.873 1829.37 522.873 1830.05 522.186C1830.73 521.508 1830.73 520.396 1830.05 519.718C1829.37 519.041 1828.27 519.041 1827.58 519.718Z" fill="#7166F0"/>
<path d="M1834.32 526.463C1833.64 527.14 1833.64 528.253 1834.32 528.931C1835 529.608 1836.12 529.608 1836.79 528.931C1837.48 528.253 1837.48 527.14 1836.79 526.463C1836.12 525.776 1835 525.776 1834.32 526.463Z" fill="#7166F0"/>
<path d="M1758.43 460.729C1757.75 461.406 1757.75 462.519 1758.43 463.196C1759.12 463.874 1760.22 463.874 1760.9 463.196C1761.59 462.519 1761.59 461.406 1760.9 460.729C1760.22 460.042 1759.11 460.042 1758.43 460.729Z" fill="#7166F0"/>
<path d="M1765.18 467.473C1764.49 468.16 1764.49 469.264 1765.18 469.941C1765.85 470.618 1766.97 470.618 1767.65 469.941C1768.32 469.264 1768.32 468.151 1767.65 467.473C1766.96 466.786 1765.85 466.786 1765.18 467.473Z" fill="#7166F0"/>
<path d="M1771.92 474.208C1771.23 474.895 1771.23 475.998 1771.92 476.676C1772.61 477.363 1773.71 477.363 1774.39 476.676C1775.07 475.998 1775.07 474.886 1774.39 474.208C1773.71 473.531 1772.61 473.531 1771.92 474.208Z" fill="#7166F0"/>
<path d="M1778.67 480.953C1777.99 481.63 1777.99 482.743 1778.67 483.421C1779.36 484.108 1780.46 484.108 1781.14 483.421C1781.82 482.743 1781.82 481.63 1781.14 480.953C1780.46 480.276 1779.36 480.276 1778.67 480.953Z" fill="#7166F0"/>
<path d="M1785.42 487.698C1784.73 488.375 1784.73 489.488 1785.42 490.165C1786.09 490.843 1787.21 490.843 1787.89 490.165C1788.57 489.488 1788.57 488.375 1787.89 487.698C1787.2 487.011 1786.09 487.011 1785.42 487.698Z" fill="#7166F0"/>
<path d="M1792.16 494.433C1791.48 495.12 1791.48 496.223 1792.16 496.9C1792.85 497.578 1793.95 497.578 1794.63 496.9C1795.32 496.223 1795.32 495.11 1794.63 494.433C1793.95 493.755 1792.85 493.755 1792.16 494.433Z" fill="#7166F0"/>
<path d="M1798.9 501.178C1798.23 501.855 1798.23 502.968 1798.9 503.645C1799.59 504.332 1800.69 504.332 1801.37 503.645C1802.05 502.968 1802.05 501.855 1801.37 501.178C1800.69 500.5 1799.59 500.5 1798.9 501.178Z" fill="#7166F0"/>
<path d="M1805.66 507.923C1804.97 508.6 1804.97 509.713 1805.66 510.39C1806.33 511.067 1807.45 511.067 1808.13 510.39C1808.81 509.713 1808.81 508.6 1808.13 507.923C1807.45 507.235 1806.33 507.235 1805.66 507.923Z" fill="#7166F0"/>
<path d="M1812.41 514.667C1811.73 515.345 1811.73 516.457 1812.41 517.135C1813.09 517.812 1814.2 517.812 1814.88 517.135C1815.56 516.457 1815.56 515.345 1814.88 514.667C1814.19 513.98 1813.08 513.98 1812.41 514.667Z" fill="#7166F0"/>
<path d="M1819.15 521.402C1818.46 522.089 1818.46 523.193 1819.15 523.87C1819.83 524.547 1820.94 524.547 1821.62 523.87C1822.3 523.183 1822.3 522.08 1821.62 521.402C1820.94 520.725 1819.84 520.725 1819.15 521.402Z" fill="#7166F0"/>
<path d="M1825.89 528.147C1825.2 528.824 1825.2 529.937 1825.89 530.615C1826.57 531.302 1827.68 531.302 1828.36 530.615C1829.05 529.937 1829.05 528.824 1828.36 528.147C1827.68 527.47 1826.57 527.47 1825.89 528.147Z" fill="#7166F0"/>
<path d="M1832.64 534.892C1831.97 535.569 1831.97 536.682 1832.64 537.359C1833.33 538.046 1834.43 538.046 1835.11 537.359C1835.8 536.682 1835.8 535.569 1835.11 534.892C1834.43 534.205 1833.32 534.205 1832.64 534.892Z" fill="#7166F0"/>
<path d="M1756.74 469.157C1756.06 469.835 1756.06 470.947 1756.74 471.625C1757.42 472.302 1758.54 472.302 1759.21 471.625C1759.89 470.947 1759.89 469.835 1759.21 469.157C1758.53 468.47 1757.42 468.47 1756.74 469.157Z" fill="#7166F0"/>
<path d="M1763.49 475.892C1762.8 476.579 1762.8 477.683 1763.49 478.36C1764.17 479.037 1765.28 479.037 1765.96 478.36C1766.64 477.673 1766.64 476.57 1765.96 475.892C1765.28 475.215 1764.17 475.215 1763.49 475.892Z" fill="#7166F0"/>
<path d="M1770.23 482.637C1769.55 483.314 1769.55 484.427 1770.23 485.105C1770.92 485.782 1772.02 485.782 1772.7 485.105C1773.38 484.417 1773.38 483.314 1772.7 482.637C1772.02 481.96 1770.92 481.96 1770.23 482.637Z" fill="#7166F0"/>
<path d="M1776.98 489.382C1776.3 490.059 1776.3 491.172 1776.98 491.849C1777.66 492.527 1778.78 492.527 1779.45 491.849C1780.14 491.172 1780.14 490.059 1779.45 489.382C1778.78 488.695 1777.66 488.695 1776.98 489.382Z" fill="#7166F0"/>
<path d="M1783.73 496.126C1783.05 496.804 1783.05 497.917 1783.73 498.594C1784.42 499.271 1785.52 499.271 1786.2 498.594C1786.89 497.917 1786.89 496.804 1786.2 496.126C1785.51 495.439 1784.41 495.439 1783.73 496.126Z" fill="#7166F0"/>
<path d="M1790.47 502.862C1789.79 503.549 1789.79 504.652 1790.47 505.329C1791.16 506.007 1792.26 506.007 1792.94 505.329C1793.62 504.642 1793.62 503.539 1792.94 502.862C1792.26 502.184 1791.16 502.184 1790.47 502.862Z" fill="#7166F0"/>
<path d="M1797.22 509.606C1796.53 510.284 1796.53 511.396 1797.22 512.074C1797.9 512.761 1799.01 512.761 1799.69 512.074C1800.38 511.396 1800.38 510.284 1799.69 509.606C1799.01 508.929 1797.9 508.929 1797.22 509.606Z" fill="#7166F0"/>
<path d="M1803.97 516.351C1803.29 517.028 1803.29 518.141 1803.97 518.819C1804.66 519.496 1805.76 519.496 1806.44 518.819C1807.13 518.141 1807.13 517.028 1806.44 516.351C1805.75 515.664 1804.65 515.664 1803.97 516.351Z" fill="#7166F0"/>
<path d="M1810.71 523.086C1810.02 523.764 1810.02 524.876 1810.71 525.554C1811.39 526.231 1812.5 526.231 1813.18 525.554C1813.86 524.876 1813.86 523.764 1813.18 523.086C1812.5 522.409 1811.4 522.409 1810.71 523.086Z" fill="#7166F0"/>
<path d="M1817.46 529.831C1816.77 530.508 1816.77 531.621 1817.46 532.298C1818.15 532.976 1819.25 532.976 1819.93 532.298C1820.62 531.611 1820.62 530.508 1819.93 529.831C1819.25 529.153 1818.15 529.153 1817.46 529.831Z" fill="#7166F0"/>
<path d="M1824.21 536.576C1823.53 537.253 1823.53 538.366 1824.21 539.043C1824.9 539.73 1826 539.73 1826.68 539.043C1827.36 538.366 1827.36 537.253 1826.68 536.576C1826 535.889 1824.89 535.889 1824.21 536.576Z" fill="#7166F0"/>
<path d="M1749.54 473.812C1750.51 473.812 1751.29 473.032 1751.29 472.07C1751.29 471.108 1750.51 470.328 1749.54 470.328C1748.58 470.328 1747.8 471.108 1747.8 472.07C1747.8 473.032 1748.58 473.812 1749.54 473.812Z" fill="#7166F0"/>
<path d="M1755.06 477.586C1754.37 478.273 1754.37 479.376 1755.06 480.053C1755.75 480.731 1756.85 480.731 1757.53 480.053C1758.22 479.376 1758.22 478.263 1757.53 477.586C1756.84 476.899 1755.74 476.899 1755.06 477.586Z" fill="#7166F0"/>
<path d="M1761.8 484.321C1761.13 484.998 1761.13 486.111 1761.8 486.788C1762.49 487.466 1763.59 487.466 1764.27 486.788C1764.95 486.101 1764.95 484.998 1764.27 484.321C1763.59 483.643 1762.49 483.643 1761.8 484.321Z" fill="#7166F0"/>
<path d="M1768.55 491.066C1767.87 491.743 1767.87 492.856 1768.55 493.533C1769.23 494.22 1770.34 494.22 1771.02 493.533C1771.71 492.856 1771.71 491.743 1771.02 491.066C1770.34 490.388 1769.23 490.388 1768.55 491.066Z" fill="#7166F0"/>
<path d="M1775.3 497.81C1774.62 498.487 1774.62 499.6 1775.3 500.278C1775.98 500.955 1777.09 500.955 1777.77 500.278C1778.45 499.6 1778.45 498.487 1777.77 497.81C1777.08 497.123 1775.98 497.123 1775.3 497.81Z" fill="#7166F0"/>
<path d="M1782.04 504.545C1781.35 505.223 1781.35 506.336 1782.04 507.013C1782.71 507.69 1783.83 507.69 1784.51 507.013C1785.18 506.336 1785.18 505.223 1784.51 504.545C1783.83 503.868 1782.72 503.868 1782.04 504.545Z" fill="#7166F0"/>
<path d="M1788.79 511.29C1788.1 511.967 1788.1 513.08 1788.79 513.758C1789.47 514.435 1790.58 514.435 1791.26 513.758C1791.95 513.071 1791.95 511.967 1791.26 511.29C1790.58 510.613 1789.48 510.613 1788.79 511.29Z" fill="#7166F0"/>
<path d="M1795.54 518.035C1794.86 518.712 1794.86 519.825 1795.54 520.502C1796.23 521.189 1797.33 521.189 1798.01 520.502C1798.69 519.825 1798.69 518.712 1798.01 518.035C1797.33 517.348 1796.22 517.348 1795.54 518.035Z" fill="#7166F0"/>
<path d="M1802.29 524.78C1801.6 525.457 1801.6 526.57 1802.29 527.247C1802.96 527.925 1804.08 527.925 1804.75 527.247C1805.43 526.57 1805.43 525.457 1804.75 524.78C1804.07 524.093 1802.96 524.093 1802.29 524.78Z" fill="#7166F0"/>
<path d="M1809.03 531.515C1808.34 532.202 1808.34 533.305 1809.03 533.982C1809.71 534.66 1810.82 534.66 1811.5 533.982C1812.18 533.305 1812.18 532.192 1811.5 531.515C1810.82 530.837 1809.71 530.837 1809.03 531.515Z" fill="#7166F0"/>
<path d="M1815.78 538.259C1815.1 538.947 1815.1 540.05 1815.78 540.727C1816.47 541.404 1817.57 541.404 1818.25 540.727C1818.93 540.04 1818.93 538.937 1818.25 538.259C1817.57 537.582 1816.46 537.582 1815.78 538.259Z" fill="#7166F0"/>
<path d="M1822.53 545.004C1821.84 545.681 1821.84 546.794 1822.53 547.471C1823.2 548.149 1824.32 548.149 1824.99 547.471C1825.68 546.794 1825.68 545.681 1824.99 545.004C1824.31 544.317 1823.2 544.317 1822.53 545.004Z" fill="#7166F0"/>
<path d="M1746.63 479.269C1745.94 479.947 1745.94 481.059 1746.63 481.737C1747.31 482.414 1748.42 482.414 1749.1 481.737C1749.78 481.059 1749.78 479.947 1749.1 479.269C1748.41 478.582 1747.3 478.582 1746.63 479.269Z" fill="#7166F0"/>
<path d="M1753.36 486.004C1752.69 486.682 1752.69 487.794 1753.36 488.472C1754.05 489.149 1755.16 489.149 1755.83 488.472C1756.51 487.794 1756.51 486.682 1755.83 486.004C1755.16 485.327 1754.05 485.327 1753.36 486.004Z" fill="#7166F0"/>
<path d="M1760.11 492.749C1759.42 493.426 1759.42 494.539 1760.11 495.216C1760.79 495.894 1761.9 495.894 1762.58 495.216C1763.27 494.529 1763.27 493.426 1762.58 492.749C1761.9 492.071 1760.8 492.071 1760.11 492.749Z" fill="#7166F0"/>
<path d="M1768.09 502.474C1769.06 502.474 1769.84 501.695 1769.84 500.733C1769.84 499.771 1769.06 498.991 1768.09 498.991C1767.13 498.991 1766.35 499.771 1766.35 500.733C1766.35 501.695 1767.13 502.474 1768.09 502.474Z" fill="#7166F0"/>
<path d="M1774.84 509.209C1775.81 509.209 1776.59 508.429 1776.59 507.467C1776.59 506.505 1775.81 505.726 1774.84 505.726C1773.88 505.726 1773.1 506.505 1773.1 507.467C1773.1 508.429 1773.88 509.209 1774.84 509.209Z" fill="#7166F0"/>
<path d="M1780.35 512.973C1779.66 513.651 1779.66 514.764 1780.35 515.441C1781.04 516.118 1782.14 516.118 1782.82 515.441C1783.51 514.764 1783.51 513.651 1782.82 512.973C1782.14 512.296 1781.04 512.296 1780.35 512.973Z" fill="#7166F0"/>
<path d="M1787.1 519.718C1786.42 520.396 1786.42 521.509 1787.1 522.186C1787.79 522.873 1788.89 522.873 1789.57 522.186C1790.25 521.509 1790.25 520.396 1789.57 519.718C1788.89 519.041 1787.78 519.041 1787.1 519.718Z" fill="#7166F0"/>
<path d="M1793.85 526.463C1793.16 527.14 1793.16 528.253 1793.85 528.931C1794.53 529.608 1795.64 529.608 1796.32 528.931C1797.01 528.253 1797.01 527.14 1796.32 526.463C1795.63 525.776 1794.53 525.776 1793.85 526.463Z" fill="#7166F0"/>
<path d="M1800.59 533.208C1799.91 533.885 1799.91 534.998 1800.59 535.675C1801.28 536.353 1802.39 536.353 1803.06 535.675C1803.75 534.998 1803.75 533.885 1803.06 533.208C1802.39 532.521 1801.28 532.521 1800.59 533.208Z" fill="#7166F0"/>
<path d="M1807.34 539.943C1806.67 540.63 1806.67 541.733 1807.34 542.41C1808.03 543.088 1809.14 543.088 1809.81 542.41C1810.49 541.733 1810.49 540.62 1809.81 539.943C1809.14 539.265 1808.03 539.265 1807.34 539.943Z" fill="#7166F0"/>
<path d="M1814.09 546.688C1813.4 547.365 1813.4 548.478 1814.09 549.155C1814.77 549.833 1815.88 549.833 1816.56 549.155C1817.25 548.468 1817.25 547.365 1816.56 546.688C1815.88 546.001 1814.77 546.001 1814.09 546.688Z" fill="#7166F0"/>
<path d="M1738.2 480.953C1737.51 481.63 1737.51 482.743 1738.2 483.42C1738.88 484.108 1739.99 484.108 1740.66 483.42C1741.35 482.743 1741.35 481.63 1740.66 480.953C1739.99 480.275 1738.87 480.275 1738.2 480.953Z" fill="#7166F0"/>
<path d="M1744.93 487.698C1744.25 488.375 1744.25 489.488 1744.93 490.165C1745.62 490.843 1746.72 490.843 1747.4 490.165C1748.08 489.488 1748.08 488.375 1747.4 487.698C1746.72 487.011 1745.62 487.011 1744.93 487.698Z" fill="#7166F0"/>
<path d="M1751.68 494.433C1750.99 495.12 1750.99 496.223 1751.68 496.9C1752.36 497.578 1753.47 497.578 1754.15 496.9C1754.84 496.223 1754.84 495.11 1754.15 494.433C1753.47 493.755 1752.37 493.755 1751.68 494.433Z" fill="#7166F0"/>
<path d="M1758.43 501.177C1757.75 501.855 1757.75 502.968 1758.43 503.645C1759.12 504.332 1760.22 504.332 1760.9 503.645C1761.59 502.968 1761.59 501.855 1760.9 501.177C1760.22 500.5 1759.11 500.5 1758.43 501.177Z" fill="#7166F0"/>
<path d="M1765.18 507.922C1764.49 508.6 1764.49 509.712 1765.18 510.39C1765.86 511.067 1766.97 511.067 1767.65 510.39C1768.33 509.712 1768.33 508.6 1767.65 507.922C1766.96 507.235 1765.86 507.235 1765.18 507.922Z" fill="#7166F0"/>
<path d="M1771.92 514.667C1771.23 515.344 1771.23 516.457 1771.92 517.134C1772.61 517.812 1773.71 517.812 1774.39 517.134C1775.08 516.457 1775.08 515.344 1774.39 514.667C1773.71 513.98 1772.61 513.98 1771.92 514.667Z" fill="#7166F0"/>
<path d="M1778.67 521.402C1777.99 522.089 1777.99 523.192 1778.67 523.87C1779.36 524.547 1780.46 524.547 1781.14 523.87C1781.82 523.183 1781.82 522.079 1781.14 521.402C1780.46 520.725 1779.36 520.725 1778.67 521.402Z" fill="#7166F0"/>
<path d="M1785.42 528.147C1784.73 528.824 1784.73 529.937 1785.42 530.614C1786.1 531.301 1787.21 531.301 1787.89 530.614C1788.58 529.937 1788.58 528.824 1787.89 528.147C1787.2 527.469 1786.1 527.469 1785.42 528.147Z" fill="#7166F0"/>
<path d="M1792.16 534.892C1791.48 535.569 1791.48 536.682 1792.16 537.359C1792.84 538.046 1793.95 538.046 1794.63 537.359C1795.31 536.682 1795.31 535.569 1794.63 534.892C1793.95 534.205 1792.84 534.205 1792.16 534.892Z" fill="#7166F0"/>
<path d="M1798.91 541.627C1798.23 542.304 1798.23 543.417 1798.91 544.094C1799.59 544.772 1800.7 544.772 1801.38 544.094C1802.05 543.417 1802.05 542.304 1801.38 541.627C1800.7 540.949 1799.59 540.949 1798.91 541.627Z" fill="#7166F0"/>
<path d="M1805.66 548.371C1804.97 549.058 1804.97 550.162 1805.66 550.839C1806.34 551.516 1807.45 551.516 1808.13 550.839C1808.82 550.162 1808.82 549.049 1808.13 548.371C1807.45 547.694 1806.34 547.694 1805.66 548.371Z" fill="#7166F0"/>
<path d="M1812.4 555.116C1811.73 555.793 1811.73 556.906 1812.4 557.583C1813.09 558.271 1814.2 558.271 1814.87 557.583C1815.56 556.906 1815.56 555.793 1814.87 555.116C1814.19 554.429 1813.08 554.429 1812.4 555.116Z" fill="#7166F0"/>
<path d="M1736.51 489.382C1735.82 490.059 1735.82 491.172 1736.51 491.849C1737.19 492.527 1738.3 492.527 1738.98 491.849C1739.66 491.172 1739.66 490.059 1738.98 489.382C1738.29 488.695 1737.19 488.695 1736.51 489.382Z" fill="#7166F0"/>
<path d="M1743.25 496.126C1742.56 496.804 1742.56 497.917 1743.25 498.594C1743.92 499.271 1745.04 499.271 1745.72 498.594C1746.4 497.917 1746.4 496.804 1745.72 496.126C1745.04 495.439 1743.93 495.439 1743.25 496.126Z" fill="#7166F0"/>
<path d="M1750 502.862C1749.32 503.549 1749.32 504.652 1750 505.329C1750.68 506.007 1751.79 506.007 1752.47 505.329C1753.15 504.642 1753.15 503.539 1752.47 502.862C1751.79 502.184 1750.67 502.184 1750 502.862Z" fill="#7166F0"/>
<path d="M1756.74 509.606C1756.06 510.284 1756.06 511.396 1756.74 512.074C1757.42 512.761 1758.54 512.761 1759.21 512.074C1759.89 511.396 1759.89 510.284 1759.21 509.606C1758.53 508.929 1757.42 508.929 1756.74 509.606Z" fill="#7166F0"/>
<path d="M1763.49 516.351C1762.8 517.028 1762.8 518.141 1763.49 518.819C1764.17 519.496 1765.28 519.496 1765.96 518.819C1766.64 518.141 1766.64 517.028 1765.96 516.351C1765.28 515.664 1764.17 515.664 1763.49 516.351Z" fill="#7166F0"/>
<path d="M1770.24 523.086C1769.56 523.764 1769.56 524.876 1770.24 525.554C1770.92 526.231 1772.03 526.231 1772.71 525.554C1773.38 524.876 1773.38 523.764 1772.71 523.086C1772.03 522.409 1770.92 522.409 1770.24 523.086Z" fill="#7166F0"/>
<path d="M1776.98 529.831C1776.3 530.508 1776.3 531.621 1776.98 532.298C1777.66 532.976 1778.78 532.976 1779.45 532.298C1780.14 531.611 1780.14 530.508 1779.45 529.831C1778.78 529.153 1777.66 529.153 1776.98 529.831Z" fill="#7166F0"/>
<path d="M1783.73 536.576C1783.06 537.253 1783.06 538.366 1783.73 539.043C1784.42 539.73 1785.53 539.73 1786.2 539.043C1786.89 538.366 1786.89 537.253 1786.2 536.576C1785.52 535.889 1784.41 535.889 1783.73 536.576Z" fill="#7166F0"/>
<path d="M1790.47 543.32C1789.79 543.998 1789.79 545.11 1790.47 545.788C1791.16 546.465 1792.26 546.465 1792.94 545.788C1793.62 545.11 1793.62 543.998 1792.94 543.32C1792.26 542.633 1791.16 542.633 1790.47 543.32Z" fill="#7166F0"/>
<path d="M1797.22 550.055C1796.54 550.733 1796.54 551.846 1797.22 552.523C1797.9 553.2 1799.02 553.2 1799.69 552.523C1800.38 551.846 1800.38 550.733 1799.69 550.055C1799.02 549.378 1797.9 549.378 1797.22 550.055Z" fill="#7166F0"/>
<path d="M1805.2 559.78C1806.16 559.78 1806.94 559 1806.94 558.038C1806.94 557.076 1806.16 556.297 1805.2 556.297C1804.24 556.297 1803.46 557.076 1803.46 558.038C1803.46 559 1804.24 559.78 1805.2 559.78Z" fill="#7166F0"/>
<path d="M1728.07 491.065C1727.38 491.743 1727.38 492.856 1728.07 493.533C1728.75 494.22 1729.86 494.22 1730.54 493.533C1731.22 492.856 1731.22 491.743 1730.54 491.065C1729.85 490.388 1728.75 490.388 1728.07 491.065Z" fill="#7166F0"/>
<path d="M1734.81 497.81C1734.14 498.487 1734.14 499.6 1734.81 500.278C1735.5 500.955 1736.6 500.955 1737.28 500.278C1737.97 499.6 1737.97 498.487 1737.28 497.81C1736.6 497.123 1735.5 497.123 1734.81 497.81Z" fill="#7166F0"/>
<path d="M1741.56 504.545C1740.89 505.223 1740.89 506.335 1741.56 507.013C1742.25 507.69 1743.35 507.69 1744.03 507.013C1744.72 506.335 1744.72 505.223 1744.03 504.545C1743.35 503.868 1742.25 503.868 1741.56 504.545Z" fill="#7166F0"/>
<path d="M1748.31 511.29C1747.62 511.967 1747.62 513.08 1748.31 513.757C1748.99 514.435 1750.1 514.435 1750.78 513.757C1751.46 513.07 1751.46 511.967 1750.78 511.29C1750.1 510.612 1748.99 510.612 1748.31 511.29Z" fill="#7166F0"/>
<path d="M1755.06 518.035C1754.37 518.712 1754.37 519.825 1755.06 520.502C1755.75 521.189 1756.85 521.189 1757.53 520.502C1758.22 519.825 1758.22 518.712 1757.53 518.035C1756.84 517.348 1755.74 517.348 1755.06 518.035Z" fill="#7166F0"/>
<path d="M1761.8 524.779C1761.12 525.457 1761.12 526.569 1761.8 527.247C1762.48 527.924 1763.59 527.924 1764.27 527.247C1764.94 526.569 1764.94 525.457 1764.27 524.779C1763.59 524.092 1762.48 524.092 1761.8 524.779Z" fill="#7166F0"/>
<path d="M1768.54 531.515C1767.86 532.202 1767.86 533.305 1768.54 533.982C1769.22 534.66 1770.34 534.66 1771.01 533.982C1771.7 533.305 1771.7 532.192 1771.01 531.515C1770.34 530.837 1769.22 530.837 1768.54 531.515Z" fill="#7166F0"/>
<path d="M1775.3 538.259C1774.62 538.947 1774.62 540.05 1775.3 540.727C1775.98 541.404 1777.09 541.404 1777.76 540.727C1778.45 540.04 1778.45 538.937 1777.76 538.259C1777.08 537.582 1775.97 537.582 1775.3 538.259Z" fill="#7166F0"/>
<path d="M1782.04 545.004C1781.35 545.681 1781.35 546.794 1782.04 547.471C1782.71 548.149 1783.83 548.149 1784.51 547.471C1785.18 546.794 1785.18 545.681 1784.51 545.004C1783.83 544.317 1782.72 544.317 1782.04 545.004Z" fill="#7166F0"/>
<path d="M1788.79 551.739C1788.1 552.416 1788.1 553.529 1788.79 554.207C1789.46 554.884 1790.58 554.884 1791.25 554.207C1791.94 553.529 1791.94 552.416 1791.25 551.739C1790.58 551.062 1789.47 551.062 1788.79 551.739Z" fill="#7166F0"/>
<path d="M1795.54 558.484C1794.86 559.161 1794.86 560.274 1795.54 560.951C1796.22 561.629 1797.33 561.629 1798 560.951C1798.69 560.274 1798.69 559.161 1798 558.484C1797.33 557.806 1796.21 557.806 1795.54 558.484Z" fill="#7166F0"/>
<path d="M1803.52 568.209C1804.48 568.209 1805.26 567.429 1805.26 566.467C1805.26 565.505 1804.48 564.725 1803.52 564.725C1802.55 564.725 1801.77 565.505 1801.77 566.467C1801.77 567.429 1802.55 568.209 1803.52 568.209Z" fill="#7166F0"/>
<path d="M1726.39 499.494C1725.7 500.171 1725.7 501.284 1726.39 501.961C1727.06 502.639 1728.18 502.639 1728.86 501.961C1729.54 501.284 1729.54 500.171 1728.86 499.494C1728.17 498.807 1727.06 498.807 1726.39 499.494Z" fill="#7166F0"/>
<path d="M1733.13 506.238C1732.45 506.916 1732.45 508.029 1733.13 508.706C1733.82 509.383 1734.92 509.383 1735.6 508.706C1736.29 508.029 1736.29 506.916 1735.6 506.238C1734.92 505.551 1733.82 505.551 1733.13 506.238Z" fill="#7166F0"/>
<path d="M1739.88 512.974C1739.19 513.651 1739.19 514.764 1739.88 515.441C1740.55 516.119 1741.67 516.119 1742.35 515.441C1743.02 514.764 1743.02 513.651 1742.35 512.974C1741.67 512.296 1740.55 512.296 1739.88 512.974Z" fill="#7166F0"/>
<path d="M1746.63 519.718C1745.94 520.396 1745.94 521.508 1746.63 522.186C1747.31 522.873 1748.42 522.873 1749.1 522.186C1749.78 521.508 1749.78 520.396 1749.1 519.718C1748.41 519.041 1747.3 519.041 1746.63 519.718Z" fill="#7166F0"/>
<path d="M1753.36 526.463C1752.69 527.14 1752.69 528.253 1753.36 528.931C1754.05 529.608 1755.16 529.608 1755.83 528.931C1756.51 528.253 1756.51 527.14 1755.83 526.463C1755.16 525.776 1754.05 525.776 1753.36 526.463Z" fill="#7166F0"/>
<path d="M1760.11 533.208C1759.42 533.885 1759.42 534.998 1760.11 535.676C1760.79 536.353 1761.9 536.353 1762.58 535.676C1763.27 534.998 1763.27 533.885 1762.58 533.208C1761.9 532.521 1760.8 532.521 1760.11 533.208Z" fill="#7166F0"/>
<path d="M1766.86 539.943C1766.18 540.63 1766.18 541.733 1766.86 542.41C1767.55 543.088 1768.65 543.088 1769.33 542.41C1770.02 541.733 1770.02 540.62 1769.33 539.943C1768.65 539.265 1767.54 539.265 1766.86 539.943Z" fill="#7166F0"/>
<path d="M1773.61 546.688C1772.92 547.365 1772.92 548.478 1773.61 549.155C1774.29 549.833 1775.4 549.833 1776.08 549.155C1776.76 548.468 1776.76 547.365 1776.08 546.688C1775.39 546.001 1774.29 546.001 1773.61 546.688Z" fill="#7166F0"/>
<path d="M1780.35 553.433C1779.66 554.11 1779.66 555.223 1780.35 555.9C1781.04 556.587 1782.14 556.587 1782.82 555.9C1783.51 555.223 1783.51 554.11 1782.82 553.433C1782.14 552.745 1781.04 552.745 1780.35 553.433Z" fill="#7166F0"/>
<path d="M1787.1 560.167C1786.42 560.855 1786.42 561.958 1787.1 562.635C1787.79 563.312 1788.89 563.312 1789.57 562.635C1790.25 561.958 1790.25 560.845 1789.57 560.167C1788.89 559.49 1787.78 559.49 1787.1 560.167Z" fill="#7166F0"/>
<path d="M1793.85 566.912C1793.16 567.599 1793.16 568.703 1793.85 569.38C1794.53 570.057 1795.64 570.057 1796.32 569.38C1797.01 568.693 1797.01 567.59 1796.32 566.912C1795.63 566.235 1794.53 566.235 1793.85 566.912Z" fill="#7166F0"/>
<path d="M1717.95 501.178C1717.27 501.855 1717.27 502.968 1717.95 503.645C1718.63 504.332 1719.74 504.332 1720.42 503.645C1721.11 502.968 1721.11 501.855 1720.42 501.178C1719.73 500.5 1718.63 500.5 1717.95 501.178Z" fill="#7166F0"/>
<path d="M1724.7 507.922C1724.02 508.6 1724.02 509.712 1724.7 510.39C1725.38 511.067 1726.49 511.067 1727.17 510.39C1727.84 509.712 1727.84 508.6 1727.17 507.922C1726.49 507.235 1725.38 507.235 1724.7 507.922Z" fill="#7166F0"/>
<path d="M1731.44 514.667C1730.76 515.345 1730.76 516.458 1731.44 517.135C1732.12 517.812 1733.23 517.812 1733.91 517.135C1734.59 516.458 1734.59 515.345 1733.91 514.667C1733.23 513.98 1732.12 513.98 1731.44 514.667Z" fill="#7166F0"/>
<path d="M1738.19 521.403C1737.51 522.09 1737.51 523.193 1738.19 523.87C1738.88 524.548 1739.98 524.548 1740.66 523.87C1741.35 523.183 1741.35 522.08 1740.66 521.403C1739.98 520.725 1738.87 520.725 1738.19 521.403Z" fill="#7166F0"/>
<path d="M1744.93 528.147C1744.25 528.825 1744.25 529.937 1744.93 530.615C1745.62 531.302 1746.72 531.302 1747.4 530.615C1748.08 529.937 1748.08 528.825 1747.4 528.147C1746.72 527.47 1745.62 527.47 1744.93 528.147Z" fill="#7166F0"/>
<path d="M1751.68 534.892C1750.99 535.569 1750.99 536.682 1751.68 537.36C1752.36 538.047 1753.47 538.047 1754.15 537.36C1754.83 536.682 1754.83 535.569 1754.15 534.892C1753.47 534.205 1752.37 534.205 1751.68 534.892Z" fill="#7166F0"/>
<path d="M1758.43 541.627C1757.75 542.305 1757.75 543.417 1758.43 544.095C1759.12 544.772 1760.22 544.772 1760.9 544.095C1761.59 543.417 1761.59 542.305 1760.9 541.627C1760.22 540.95 1759.11 540.95 1758.43 541.627Z" fill="#7166F0"/>
<path d="M1765.18 548.372C1764.49 549.059 1764.49 550.162 1765.18 550.839C1765.86 551.517 1766.97 551.517 1767.65 550.839C1768.32 550.162 1768.32 549.049 1767.65 548.372C1766.96 547.694 1765.86 547.694 1765.18 548.372Z" fill="#7166F0"/>
<path d="M1771.92 555.116C1771.23 555.794 1771.23 556.907 1771.92 557.584C1772.61 558.271 1773.71 558.271 1774.39 557.584C1775.07 556.907 1775.07 555.794 1774.39 555.116C1773.71 554.429 1772.61 554.429 1771.92 555.116Z" fill="#7166F0"/>
<path d="M1778.67 561.861C1777.99 562.538 1777.99 563.651 1778.67 564.329C1779.36 565.016 1780.46 565.016 1781.14 564.329C1781.82 563.651 1781.82 562.538 1781.14 561.861C1780.46 561.174 1779.36 561.174 1778.67 561.861Z" fill="#7166F0"/>
<path d="M1785.42 568.596C1784.73 569.273 1784.73 570.386 1785.42 571.064C1786.09 571.741 1787.21 571.741 1787.89 571.064C1788.57 570.386 1788.57 569.273 1787.89 568.596C1787.2 567.919 1786.09 567.919 1785.42 568.596Z" fill="#7166F0"/>
<path d="M1792.16 575.341C1791.48 576.028 1791.48 577.131 1792.16 577.809C1792.85 578.486 1793.95 578.486 1794.63 577.809C1795.32 577.122 1795.32 576.018 1794.63 575.341C1793.95 574.664 1792.85 574.664 1792.16 575.341Z" fill="#7166F0"/>
<path d="M1716.26 509.606C1715.58 510.283 1715.58 511.396 1716.26 512.074C1716.94 512.761 1718.05 512.761 1718.73 512.074C1719.4 511.396 1719.4 510.283 1718.73 509.606C1718.05 508.929 1716.94 508.929 1716.26 509.606Z" fill="#7166F0"/>
<path d="M1723 516.351C1722.32 517.028 1722.32 518.141 1723 518.819C1723.68 519.496 1724.8 519.496 1725.47 518.819C1726.16 518.141 1726.16 517.028 1725.47 516.351C1724.79 515.674 1723.69 515.664 1723 516.351Z" fill="#7166F0"/>
<path d="M1729.76 523.086C1729.07 523.763 1729.07 524.876 1729.76 525.554C1730.45 526.231 1731.55 526.231 1732.23 525.554C1732.92 524.876 1732.92 523.763 1732.23 523.086C1731.55 522.409 1730.44 522.409 1729.76 523.086Z" fill="#7166F0"/>
<path d="M1736.51 529.831C1735.82 530.508 1735.82 531.621 1736.51 532.298C1737.19 532.976 1738.3 532.976 1738.98 532.298C1739.65 531.611 1739.65 530.508 1738.98 529.831C1738.29 529.153 1737.19 529.153 1736.51 529.831Z" fill="#7166F0"/>
<path d="M1743.24 536.575C1742.56 537.253 1742.56 538.366 1743.24 539.043C1743.92 539.73 1745.04 539.73 1745.71 539.043C1746.4 538.366 1746.4 537.253 1745.71 536.575C1745.04 535.888 1743.93 535.888 1743.24 536.575Z" fill="#7166F0"/>
<path d="M1749.99 543.32C1749.32 543.997 1749.32 545.11 1749.99 545.788C1750.68 546.465 1751.79 546.465 1752.46 545.788C1753.15 545.11 1753.15 543.997 1752.46 543.32C1751.79 542.633 1750.67 542.633 1749.99 543.32Z" fill="#7166F0"/>
<path d="M1756.74 550.055C1756.06 550.733 1756.06 551.846 1756.74 552.523C1757.42 553.2 1758.54 553.2 1759.21 552.523C1759.89 551.846 1759.89 550.733 1759.21 550.055C1758.53 549.378 1757.42 549.378 1756.74 550.055Z" fill="#7166F0"/>
<path d="M1763.48 556.8C1762.8 557.487 1762.8 558.59 1763.48 559.268C1764.17 559.945 1765.28 559.945 1765.95 559.268C1766.64 558.581 1766.64 557.477 1765.95 556.8C1765.28 556.123 1764.17 556.123 1763.48 556.8Z" fill="#7166F0"/>
<path d="M1770.23 563.545C1769.56 564.222 1769.56 565.335 1770.23 566.012C1770.92 566.699 1772.03 566.699 1772.7 566.012C1773.38 565.335 1773.38 564.222 1772.7 563.545C1772.03 562.858 1770.92 562.858 1770.23 563.545Z" fill="#7166F0"/>
<path d="M1776.98 570.28C1776.3 570.957 1776.3 572.07 1776.98 572.748C1777.66 573.425 1778.78 573.425 1779.45 572.748C1780.14 572.07 1780.14 570.957 1779.45 570.28C1778.78 569.603 1777.66 569.603 1776.98 570.28Z" fill="#7166F0"/>
<path d="M1783.73 577.024C1783.05 577.711 1783.05 578.815 1783.73 579.492C1784.42 580.169 1785.52 580.169 1786.2 579.492C1786.89 578.815 1786.89 577.702 1786.2 577.024C1785.51 576.347 1784.41 576.347 1783.73 577.024Z" fill="#7166F0"/>
</g>
<path d="M1626 358.754L1661.78 394.508L1697.56 358.754L1661.78 323L1626 358.754ZM1661.78 372.431L1648.09 358.754L1661.78 345.077L1675.46 358.754L1661.78 372.431Z" fill="#E6E4FF"/>
<path d="M1843.54 208C1831.65 208 1822 217.662 1822 229.537C1822 241.413 1831.67 251.075 1843.54 251.075C1855.42 251.075 1865.09 241.413 1865.09 229.537C1865.09 217.662 1855.42 208 1843.54 208ZM1843.54 235.454C1840.27 235.454 1837.62 232.801 1837.62 229.523C1837.62 226.26 1840.27 223.593 1843.54 223.593C1846.8 223.593 1849.47 226.246 1849.47 229.523C1849.47 232.801 1846.8 235.454 1843.54 235.454Z" fill="#E6E4FF"/>
<g opacity="0.32">
<path d="M217.785 278.392C217.098 279.069 217.098 280.182 217.785 280.859C218.463 281.536 219.577 281.536 220.254 280.859C220.942 280.182 220.942 279.069 220.254 278.392C219.577 277.704 218.473 277.704 217.785 278.392Z" fill="#7166F0"/>
<path d="M224.536 285.126C223.858 285.804 223.858 286.917 224.536 287.594C225.223 288.281 226.327 288.281 227.005 287.594C227.693 286.917 227.693 285.804 227.005 285.126C226.327 284.449 225.214 284.449 224.536 285.126Z" fill="#7166F0"/>
<path d="M232.516 294.852C233.479 294.852 234.259 294.072 234.259 293.11C234.259 292.148 233.479 291.368 232.516 291.368C231.554 291.368 230.773 292.148 230.773 293.11C230.773 294.072 231.554 294.852 232.516 294.852Z" fill="#7166F0"/>
<path d="M238.025 298.616C237.338 299.293 237.338 300.406 238.025 301.083C238.713 301.761 239.817 301.761 240.495 301.083C241.182 300.406 241.182 299.293 240.495 298.616C239.817 297.929 238.713 297.929 238.025 298.616Z" fill="#7166F0"/>
<path d="M244.776 305.351C244.098 306.029 244.098 307.142 244.776 307.819C245.463 308.496 246.567 308.496 247.245 307.819C247.923 307.132 247.923 306.029 247.245 305.351C246.567 304.674 245.454 304.674 244.776 305.351Z" fill="#7166F0"/>
<path d="M251.523 312.096C250.836 312.773 250.836 313.886 251.523 314.564C252.201 315.241 253.315 315.241 253.993 314.564C254.68 313.886 254.68 312.773 253.993 312.096C253.305 311.419 252.201 311.419 251.523 312.096Z" fill="#7166F0"/>
<path d="M258.26 318.841C257.572 319.518 257.572 320.631 258.26 321.308C258.947 321.986 260.051 321.986 260.729 321.308C261.417 320.631 261.417 319.518 260.729 318.841C260.051 318.154 258.947 318.154 258.26 318.841Z" fill="#7166F0"/>
<path d="M265.01 325.585C264.332 326.272 264.332 327.376 265.01 328.053C265.698 328.73 266.802 328.73 267.48 328.053C268.157 327.376 268.157 326.263 267.48 325.585C266.802 324.898 265.698 324.898 265.01 325.585Z" fill="#7166F0"/>
<path d="M271.764 332.321C271.076 332.998 271.076 334.111 271.764 334.788C272.442 335.466 273.555 335.466 274.233 334.788C274.92 334.101 274.92 332.998 274.233 332.321C273.555 331.643 272.442 331.643 271.764 332.321Z" fill="#7166F0"/>
<path d="M278.51 339.065C277.832 339.743 277.832 340.855 278.51 341.533C279.198 342.22 280.302 342.22 280.98 341.533C281.667 340.855 281.667 339.743 280.98 339.065C280.292 338.388 279.188 338.388 278.51 339.065Z" fill="#7166F0"/>
<path d="M286.489 348.781C287.452 348.781 288.232 348.001 288.232 347.039C288.232 346.077 287.452 345.297 286.489 345.297C285.526 345.297 284.746 346.077 284.746 347.039C284.746 348.001 285.526 348.781 286.489 348.781Z" fill="#7166F0"/>
<path d="M292 352.545C291.312 353.222 291.312 354.335 292 355.012C292.688 355.69 293.791 355.69 294.469 355.012C295.157 354.335 295.157 353.222 294.469 352.545C293.791 351.868 292.688 351.868 292 352.545Z" fill="#7166F0"/>
<path d="M216.102 286.81C215.424 287.497 215.424 288.6 216.102 289.278C216.79 289.955 217.894 289.955 218.571 289.278C219.249 288.591 219.249 287.488 218.571 286.81C217.894 286.133 216.78 286.133 216.102 286.81Z" fill="#7166F0"/>
<path d="M222.85 293.555C222.162 294.232 222.162 295.345 222.85 296.022C223.527 296.71 224.641 296.71 225.319 296.022C226.006 295.345 226.006 294.232 225.319 293.555C224.631 292.878 223.527 292.878 222.85 293.555Z" fill="#7166F0"/>
<path d="M229.592 300.3C228.904 300.977 228.904 302.09 229.592 302.767C230.279 303.445 231.383 303.445 232.061 302.767C232.749 302.09 232.749 300.977 232.061 300.3C231.383 299.613 230.279 299.613 229.592 300.3Z" fill="#7166F0"/>
<path d="M236.342 307.044C235.665 307.722 235.665 308.835 236.342 309.512C237.03 310.189 238.134 310.189 238.812 309.512C239.489 308.835 239.489 307.722 238.812 307.044C238.134 306.357 237.03 306.357 236.342 307.044Z" fill="#7166F0"/>
<path d="M243.09 313.78C242.402 314.457 242.402 315.57 243.09 316.247C243.768 316.924 244.881 316.924 245.559 316.247C246.247 315.56 246.247 314.457 245.559 313.78C244.881 313.102 243.768 313.102 243.09 313.78Z" fill="#7166F0"/>
<path d="M249.842 320.524C249.165 321.202 249.165 322.315 249.842 322.992C250.53 323.679 251.634 323.679 252.312 322.992C252.999 322.315 252.999 321.202 252.312 320.524C251.624 319.847 250.52 319.847 249.842 320.524Z" fill="#7166F0"/>
<path d="M256.579 327.269C255.901 327.946 255.901 329.059 256.579 329.737C257.266 330.414 258.37 330.414 259.048 329.737C259.726 329.059 259.726 327.946 259.048 327.269C258.37 326.582 257.266 326.582 256.579 327.269Z" fill="#7166F0"/>
<path d="M263.33 334.004C262.643 334.682 262.643 335.794 263.33 336.472C264.008 337.149 265.122 337.149 265.799 336.472C266.487 335.794 266.487 334.682 265.799 334.004C265.122 333.327 264.008 333.327 263.33 334.004Z" fill="#7166F0"/>
<path d="M270.077 340.749C269.399 341.426 269.399 342.539 270.077 343.216C270.764 343.894 271.868 343.894 272.546 343.216C273.234 342.529 273.234 341.426 272.546 340.749C271.858 340.071 270.755 340.071 270.077 340.749Z" fill="#7166F0"/>
<path d="M276.816 347.494C276.129 348.171 276.129 349.284 276.816 349.961C277.494 350.639 278.608 350.639 279.286 349.961C279.964 349.284 279.964 348.171 279.286 347.494C278.608 346.807 277.504 346.807 276.816 347.494Z" fill="#7166F0"/>
<path d="M283.566 354.238C282.879 354.916 282.879 356.029 283.566 356.706C284.254 357.383 285.358 357.383 286.036 356.706C286.723 356.029 286.723 354.916 286.036 354.238C285.358 353.551 284.254 353.551 283.566 354.238Z" fill="#7166F0"/>
<path d="M207.67 288.504C206.993 289.191 206.993 290.294 207.67 290.971C208.358 291.649 209.462 291.649 210.14 290.971C210.818 290.294 210.818 289.181 210.14 288.504C209.462 287.817 208.358 287.817 207.67 288.504Z" fill="#7166F0"/>
<path d="M214.418 295.239C213.73 295.916 213.73 297.029 214.418 297.707C215.096 298.394 216.209 298.394 216.887 297.707C217.575 297.029 217.575 295.916 216.887 295.239C216.2 294.562 215.096 294.562 214.418 295.239Z" fill="#7166F0"/>
<path d="M221.155 301.984C220.477 302.661 220.477 303.774 221.155 304.451C221.842 305.138 222.946 305.138 223.624 304.451C224.312 303.774 224.312 302.661 223.624 301.984C222.946 301.306 221.842 301.306 221.155 301.984Z" fill="#7166F0"/>
<path d="M227.905 308.728C227.227 309.406 227.227 310.519 227.905 311.196C228.592 311.873 229.696 311.873 230.374 311.196C231.052 310.519 231.052 309.406 230.374 308.728C229.696 308.041 228.592 308.041 227.905 308.728Z" fill="#7166F0"/>
<path d="M234.658 315.473C233.971 316.16 233.971 317.263 234.658 317.941C235.336 318.618 236.45 318.618 237.127 317.941C237.815 317.263 237.815 316.15 237.127 315.473C236.45 314.786 235.336 314.786 234.658 315.473Z" fill="#7166F0"/>
<path d="M241.403 322.208C240.725 322.895 240.725 323.998 241.403 324.676C242.09 325.363 243.194 325.363 243.872 324.676C244.56 323.998 244.56 322.886 243.872 322.208C243.185 321.531 242.081 321.531 241.403 322.208Z" fill="#7166F0"/>
<path d="M248.145 328.953C247.457 329.63 247.457 330.743 248.145 331.42C248.822 332.108 249.936 332.108 250.614 331.42C251.292 330.743 251.292 329.63 250.614 328.953C249.936 328.275 248.832 328.275 248.145 328.953Z" fill="#7166F0"/>
<path d="M254.893 335.698C254.205 336.375 254.205 337.488 254.893 338.165C255.57 338.843 256.684 338.843 257.362 338.165C258.049 337.488 258.049 336.375 257.362 335.698C256.684 335.011 255.57 335.011 254.893 335.698Z" fill="#7166F0"/>
<path d="M261.643 342.433C260.965 343.12 260.965 344.223 261.643 344.9C262.331 345.578 263.435 345.578 264.112 344.9C264.8 344.223 264.8 343.11 264.112 342.433C263.435 341.755 262.321 341.755 261.643 342.433Z" fill="#7166F0"/>
<path d="M268.393 349.177C267.705 349.855 267.705 350.968 268.393 351.645C269.07 352.332 270.184 352.332 270.862 351.645C271.54 350.968 271.54 349.855 270.862 349.177C270.174 348.5 269.07 348.5 268.393 349.177Z" fill="#7166F0"/>
<path d="M275.133 355.922C274.445 356.599 274.445 357.712 275.133 358.39C275.82 359.067 276.924 359.067 277.602 358.39C278.29 357.712 278.29 356.599 277.602 355.922C276.924 355.235 275.82 355.235 275.133 355.922Z" fill="#7166F0"/>
<path d="M281.879 362.667C281.202 363.345 281.202 364.457 281.879 365.135C282.567 365.812 283.671 365.812 284.349 365.135C285.027 364.457 285.027 363.345 284.349 362.667C283.671 361.98 282.557 361.98 281.879 362.667Z" fill="#7166F0"/>
<path d="M205.984 296.932C205.297 297.619 205.297 298.722 205.984 299.4C206.662 300.077 207.776 300.077 208.454 299.4C209.141 298.713 209.141 297.609 208.454 296.932C207.776 296.245 206.662 296.245 205.984 296.932Z" fill="#7166F0"/>
<path d="M212.729 303.667C212.051 304.345 212.051 305.457 212.729 306.135C213.417 306.822 214.521 306.822 215.198 306.135C215.886 305.457 215.886 304.345 215.198 303.667C214.511 302.99 213.407 302.99 212.729 303.667Z" fill="#7166F0"/>
<path d="M219.471 310.412C218.793 311.089 218.793 312.202 219.471 312.88C220.159 313.567 221.263 313.567 221.941 312.88C222.618 312.202 222.618 311.089 221.941 310.412C221.263 309.735 220.159 309.735 219.471 310.412Z" fill="#7166F0"/>
<path d="M226.225 317.157C225.537 317.834 225.537 318.947 226.225 319.624C226.902 320.302 228.016 320.302 228.694 319.624C229.381 318.947 229.381 317.834 228.694 317.157C228.016 316.47 226.902 316.47 226.225 317.157Z" fill="#7166F0"/>
<path d="M234.2 326.872C235.163 326.872 235.943 326.092 235.943 325.131C235.943 324.169 235.163 323.389 234.2 323.389C233.237 323.389 232.457 324.169 232.457 325.131C232.457 326.092 233.237 326.872 234.2 326.872Z" fill="#7166F0"/>
<path d="M239.709 330.637C239.021 331.314 239.021 332.427 239.709 333.104C240.387 333.782 241.5 333.782 242.178 333.104C242.856 332.417 242.856 331.314 242.178 330.637C241.5 329.959 240.397 329.959 239.709 330.637Z" fill="#7166F0"/>
<path d="M246.459 337.381C245.771 338.059 245.771 339.171 246.459 339.849C247.147 340.526 248.25 340.526 248.928 339.849C249.616 339.171 249.616 338.059 248.928 337.381C248.25 336.694 247.147 336.694 246.459 337.381Z" fill="#7166F0"/>
<path d="M253.21 344.126C252.532 344.804 252.532 345.916 253.21 346.594C253.897 347.271 255.001 347.271 255.679 346.594C256.357 345.916 256.357 344.804 255.679 344.126C255.001 343.439 253.887 343.439 253.21 344.126Z" fill="#7166F0"/>
<path d="M261.19 353.842C262.153 353.842 262.933 353.062 262.933 352.1C262.933 351.138 262.153 350.358 261.19 350.358C260.228 350.358 259.447 351.138 259.447 352.1C259.447 353.062 260.228 353.842 261.19 353.842Z" fill="#7166F0"/>
<path d="M266.699 357.606C266.012 358.283 266.012 359.396 266.699 360.073C267.377 360.76 268.491 360.76 269.169 360.073C269.856 359.396 269.856 358.283 269.169 357.606C268.491 356.928 267.387 356.928 266.699 357.606Z" fill="#7166F0"/>
<path d="M273.444 364.351C272.766 365.028 272.766 366.141 273.444 366.818C274.131 367.496 275.235 367.496 275.913 366.818C276.591 366.141 276.591 365.028 275.913 364.351C275.235 363.664 274.131 363.664 273.444 364.351Z" fill="#7166F0"/>
<path d="M197.545 298.616C196.857 299.293 196.857 300.406 197.545 301.084C198.223 301.761 199.336 301.761 200.014 301.084C200.702 300.406 200.702 299.293 200.014 298.616C199.336 297.929 198.223 297.929 197.545 298.616Z" fill="#7166F0"/>
<path d="M204.295 305.351C203.618 306.029 203.618 307.142 204.295 307.819C204.983 308.496 206.087 308.496 206.765 307.819C207.452 307.132 207.452 306.029 206.765 305.351C206.077 304.674 204.973 304.674 204.295 305.351Z" fill="#7166F0"/>
<path d="M211.035 312.096C210.348 312.773 210.348 313.886 211.035 314.564C211.713 315.241 212.827 315.241 213.504 314.564C214.182 313.886 214.182 312.773 213.504 312.096C212.827 311.419 211.723 311.419 211.035 312.096Z" fill="#7166F0"/>
<path d="M217.785 318.84C217.098 319.518 217.098 320.631 217.785 321.308C218.463 321.985 219.577 321.985 220.254 321.308C220.942 320.631 220.942 319.518 220.254 318.84C219.577 318.153 218.473 318.153 217.785 318.84Z" fill="#7166F0"/>
<path d="M224.536 325.585C223.858 326.272 223.858 327.376 224.536 328.053C225.223 328.73 226.327 328.73 227.005 328.053C227.693 327.376 227.693 326.263 227.005 325.585C226.327 324.898 225.214 324.898 224.536 325.585Z" fill="#7166F0"/>
<path d="M231.283 332.321C230.596 332.998 230.596 334.111 231.283 334.788C231.961 335.466 233.075 335.466 233.752 334.788C234.43 334.101 234.43 332.998 233.752 332.321C233.065 331.643 231.961 331.643 231.283 332.321Z" fill="#7166F0"/>
<path d="M238.025 339.065C237.338 339.743 237.338 340.855 238.025 341.533C238.713 342.22 239.817 342.22 240.495 341.533C241.182 340.855 241.182 339.743 240.495 339.065C239.817 338.388 238.713 338.388 238.025 339.065Z" fill="#7166F0"/>
<path d="M244.776 345.81C244.098 346.487 244.098 347.6 244.776 348.277C245.463 348.955 246.567 348.955 247.245 348.277C247.923 347.6 247.923 346.487 247.245 345.81C246.567 345.123 245.454 345.123 244.776 345.81Z" fill="#7166F0"/>
<path d="M251.523 352.545C250.836 353.222 250.836 354.335 251.523 355.012C252.201 355.69 253.315 355.69 253.993 355.012C254.68 354.335 254.68 353.222 253.993 352.545C253.305 351.868 252.201 351.868 251.523 352.545Z" fill="#7166F0"/>
<path d="M258.26 359.29C257.572 359.967 257.572 361.08 258.26 361.757C258.947 362.435 260.051 362.435 260.729 361.757C261.417 361.07 261.417 359.967 260.729 359.29C260.051 358.612 258.947 358.612 258.26 359.29Z" fill="#7166F0"/>
<path d="M265.012 366.034C264.334 366.712 264.334 367.825 265.012 368.502C265.7 369.189 266.804 369.189 267.482 368.502C268.159 367.825 268.159 366.712 267.482 366.034C266.804 365.347 265.7 365.347 265.012 366.034Z" fill="#7166F0"/>
<path d="M271.76 372.779C271.072 373.456 271.072 374.569 271.76 375.247C272.438 375.924 273.551 375.924 274.229 375.247C274.917 374.569 274.917 373.456 274.229 372.779C273.551 372.092 272.438 372.092 271.76 372.779Z" fill="#7166F0"/>
<path d="M195.862 307.044C195.184 307.722 195.184 308.835 195.862 309.512C196.549 310.189 197.653 310.189 198.331 309.512C199.019 308.835 199.019 307.722 198.331 307.044C197.653 306.357 196.54 306.357 195.862 307.044Z" fill="#7166F0"/>
<path d="M202.609 313.78C201.922 314.457 201.922 315.57 202.609 316.247C203.287 316.924 204.401 316.924 205.079 316.247C205.757 315.56 205.757 314.457 205.079 313.78C204.391 313.102 203.287 313.102 202.609 313.78Z" fill="#7166F0"/>
<path d="M209.352 320.524C208.664 321.202 208.664 322.314 209.352 322.992C210.039 323.679 211.143 323.679 211.821 322.992C212.508 322.314 212.508 321.202 211.821 320.524C211.143 319.847 210.039 319.847 209.352 320.524Z" fill="#7166F0"/>
<path d="M216.102 327.269C215.424 327.946 215.424 329.059 216.102 329.737C216.79 330.414 217.894 330.414 218.571 329.737C219.249 329.059 219.249 327.946 218.571 327.269C217.894 326.582 216.78 326.582 216.102 327.269Z" fill="#7166F0"/>
<path d="M222.85 334.004C222.162 334.682 222.162 335.794 222.85 336.472C223.527 337.149 224.641 337.149 225.319 336.472C226.006 335.794 226.006 334.682 225.319 334.004C224.631 333.327 223.527 333.327 222.85 334.004Z" fill="#7166F0"/>
<path d="M229.592 340.749C228.904 341.426 228.904 342.539 229.592 343.216C230.279 343.894 231.383 343.894 232.061 343.216C232.749 342.529 232.749 341.426 232.061 340.749C231.383 340.071 230.279 340.071 229.592 340.749Z" fill="#7166F0"/>
<path d="M237.581 350.474C238.544 350.474 239.324 349.694 239.324 348.732C239.324 347.77 238.544 346.99 237.581 346.99C236.618 346.99 235.838 347.77 235.838 348.732C235.838 349.694 236.618 350.474 237.581 350.474Z" fill="#7166F0"/>
<path d="M243.09 354.238C242.402 354.916 242.402 356.028 243.09 356.706C243.768 357.383 244.881 357.383 245.559 356.706C246.247 356.028 246.247 354.916 245.559 354.238C244.881 353.551 243.768 353.551 243.09 354.238Z" fill="#7166F0"/>
<path d="M249.84 360.973C249.163 361.651 249.163 362.764 249.84 363.441C250.528 364.118 251.632 364.118 252.31 363.441C252.997 362.764 252.997 361.651 252.31 360.973C251.622 360.296 250.518 360.296 249.84 360.973Z" fill="#7166F0"/>
<path d="M256.579 367.718C255.901 368.395 255.901 369.508 256.579 370.186C257.266 370.873 258.37 370.873 259.048 370.186C259.726 369.508 259.726 368.395 259.048 367.718C258.37 367.041 257.266 367.041 256.579 367.718Z" fill="#7166F0"/>
<path d="M263.324 374.463C262.637 375.14 262.637 376.253 263.324 376.931C264.002 377.608 265.116 377.608 265.794 376.931C266.481 376.253 266.481 375.14 265.794 374.463C265.116 373.776 264.002 373.776 263.324 374.463Z" fill="#7166F0"/>
<path d="M187.428 308.728C186.75 309.406 186.75 310.519 187.428 311.196C188.116 311.873 189.22 311.873 189.898 311.196C190.585 310.519 190.585 309.406 189.898 308.728C189.22 308.041 188.106 308.041 187.428 308.728Z" fill="#7166F0"/>
<path d="M194.176 315.473C193.488 316.16 193.488 317.263 194.176 317.941C194.854 318.618 195.967 318.618 196.645 317.941C197.323 317.263 197.323 316.15 196.645 315.473C195.958 314.786 194.854 314.786 194.176 315.473Z" fill="#7166F0"/>
<path d="M200.918 322.208C200.23 322.895 200.23 323.998 200.918 324.676C201.606 325.363 202.709 325.363 203.387 324.676C204.075 323.998 204.075 322.886 203.387 322.208C202.709 321.531 201.606 321.531 200.918 322.208Z" fill="#7166F0"/>
<path d="M207.669 328.953C206.991 329.63 206.991 330.743 207.669 331.42C208.356 332.108 209.46 332.108 210.138 331.42C210.816 330.743 210.816 329.63 210.138 328.953C209.46 328.275 208.356 328.275 207.669 328.953Z" fill="#7166F0"/>
<path d="M214.416 335.697C213.729 336.375 213.729 337.488 214.416 338.165C215.094 338.842 216.207 338.842 216.885 338.165C217.573 337.488 217.573 336.375 216.885 335.697C216.198 335.01 215.094 335.01 214.416 335.697Z" fill="#7166F0"/>
<path d="M221.159 342.433C220.481 343.12 220.481 344.223 221.159 344.9C221.846 345.578 222.95 345.578 223.628 344.9C224.316 344.223 224.316 343.11 223.628 342.433C222.95 341.755 221.846 341.755 221.159 342.433Z" fill="#7166F0"/>
<path d="M227.903 349.177C227.225 349.855 227.225 350.968 227.903 351.645C228.59 352.332 229.694 352.332 230.372 351.645C231.05 350.968 231.05 349.855 230.372 349.177C229.694 348.5 228.59 348.5 227.903 349.177Z" fill="#7166F0"/>
<path d="M234.656 355.922C233.969 356.599 233.969 357.712 234.656 358.39C235.334 359.067 236.448 359.067 237.126 358.39C237.813 357.712 237.813 356.599 237.126 355.922C236.448 355.235 235.334 355.235 234.656 355.922Z" fill="#7166F0"/>
<path d="M241.407 362.667C240.729 363.345 240.729 364.457 241.407 365.135C242.094 365.812 243.198 365.812 243.876 365.135C244.564 364.457 244.564 363.345 243.876 362.667C243.189 361.98 242.085 361.98 241.407 362.667Z" fill="#7166F0"/>
<path d="M248.148 369.402C247.461 370.089 247.461 371.192 248.148 371.87C248.826 372.547 249.94 372.547 250.618 371.87C251.296 371.183 251.296 370.079 250.618 369.402C249.94 368.725 248.836 368.725 248.148 369.402Z" fill="#7166F0"/>
<path d="M254.891 376.147C254.203 376.824 254.203 377.937 254.891 378.614C255.568 379.301 256.682 379.301 257.36 378.614C258.047 377.937 258.047 376.824 257.36 376.147C256.682 375.469 255.568 375.469 254.891 376.147Z" fill="#7166F0"/>
<path d="M261.643 382.891C260.965 383.569 260.965 384.681 261.643 385.359C262.331 386.046 263.435 386.046 264.112 385.359C264.8 384.681 264.8 383.569 264.112 382.891C263.435 382.204 262.321 382.204 261.643 382.891Z" fill="#7166F0"/>
<path d="M185.744 317.157C185.057 317.834 185.057 318.947 185.744 319.624C186.422 320.302 187.536 320.302 188.213 319.624C188.891 318.947 188.891 317.834 188.213 317.157C187.526 316.47 186.422 316.47 185.744 317.157Z" fill="#7166F0"/>
<path d="M192.486 323.892C191.799 324.579 191.799 325.682 192.486 326.359C193.174 327.037 194.278 327.037 194.956 326.359C195.643 325.672 195.643 324.569 194.956 323.892C194.278 323.214 193.174 323.214 192.486 323.892Z" fill="#7166F0"/>
<path d="M199.231 330.636C198.553 331.314 198.553 332.427 199.231 333.104C199.919 333.781 201.022 333.781 201.7 333.104C202.378 332.417 202.378 331.314 201.7 330.636C201.022 329.959 199.919 329.959 199.231 330.636Z" fill="#7166F0"/>
<path d="M205.984 337.382C205.297 338.059 205.297 339.172 205.984 339.849C206.662 340.526 207.776 340.526 208.454 339.849C209.141 339.172 209.141 338.059 208.454 337.382C207.776 336.694 206.662 336.694 205.984 337.382Z" fill="#7166F0"/>
<path d="M212.729 344.126C212.051 344.804 212.051 345.916 212.729 346.594C213.417 347.271 214.521 347.271 215.198 346.594C215.886 345.916 215.886 344.804 215.198 344.126C214.511 343.439 213.407 343.439 212.729 344.126Z" fill="#7166F0"/>
<path d="M219.471 350.861C218.793 351.548 218.793 352.652 219.471 353.329C220.159 354.006 221.263 354.006 221.941 353.329C222.618 352.642 222.618 351.539 221.941 350.861C221.263 350.184 220.159 350.184 219.471 350.861Z" fill="#7166F0"/>
<path d="M226.219 357.606C225.531 358.283 225.531 359.396 226.219 360.074C226.897 360.761 228.01 360.761 228.688 360.074C229.376 359.396 229.376 358.283 228.688 357.606C228.01 356.929 226.897 356.929 226.219 357.606Z" fill="#7166F0"/>
<path d="M232.969 364.351C232.291 365.028 232.291 366.141 232.969 366.818C233.657 367.496 234.761 367.496 235.439 366.818C236.126 366.141 236.126 365.028 235.439 364.351C234.751 363.664 233.647 363.664 232.969 364.351Z" fill="#7166F0"/>
<path d="M239.709 371.086C239.021 371.763 239.021 372.876 239.709 373.554C240.387 374.231 241.5 374.231 242.178 373.554C242.856 372.876 242.856 371.763 242.178 371.086C241.5 370.409 240.397 370.409 239.709 371.086Z" fill="#7166F0"/>
<path d="M246.459 377.831C245.771 378.508 245.771 379.621 246.459 380.298C247.147 380.976 248.25 380.976 248.928 380.298C249.616 379.611 249.616 378.508 248.928 377.831C248.25 377.153 247.147 377.153 246.459 377.831Z" fill="#7166F0"/>
<path d="M253.21 384.575C252.532 385.253 252.532 386.366 253.21 387.043C253.897 387.73 255.001 387.73 255.679 387.043C256.357 386.366 256.357 385.253 255.679 384.575C255.001 383.888 253.887 383.888 253.21 384.575Z" fill="#7166F0"/>
<path d="M178.544 321.812C179.506 321.812 180.287 321.032 180.287 320.07C180.287 319.108 179.506 318.328 178.544 318.328C177.581 318.328 176.801 319.108 176.801 320.07C176.801 321.032 177.581 321.812 178.544 321.812Z" fill="#7166F0"/>
<path d="M184.061 325.586C183.373 326.273 183.373 327.376 184.061 328.053C184.748 328.731 185.852 328.731 186.53 328.053C187.217 327.376 187.217 326.263 186.53 325.586C185.842 324.899 184.738 324.899 184.061 325.586Z" fill="#7166F0"/>
<path d="M190.803 332.321C190.125 332.998 190.125 334.111 190.803 334.788C191.491 335.466 192.595 335.466 193.273 334.788C193.95 334.101 193.95 332.998 193.273 332.321C192.595 331.643 191.491 331.643 190.803 332.321Z" fill="#7166F0"/>
<path d="M197.553 339.065C196.865 339.743 196.865 340.855 197.553 341.533C198.231 342.22 199.344 342.22 200.022 341.533C200.71 340.855 200.71 339.743 200.022 339.065C199.344 338.388 198.231 338.388 197.553 339.065Z" fill="#7166F0"/>
<path d="M204.297 345.81C203.62 346.487 203.62 347.6 204.297 348.277C204.985 348.955 206.089 348.955 206.767 348.277C207.454 347.6 207.454 346.487 206.767 345.81C206.079 345.123 204.975 345.123 204.297 345.81Z" fill="#7166F0"/>
<path d="M211.037 352.545C210.35 353.223 210.35 354.335 211.037 355.013C211.715 355.69 212.829 355.69 213.506 355.013C214.184 354.335 214.184 353.223 213.506 352.545C212.829 351.868 211.725 351.868 211.037 352.545Z" fill="#7166F0"/>
<path d="M217.791 359.29C217.104 359.967 217.104 361.08 217.791 361.757C218.469 362.435 219.582 362.435 220.26 361.757C220.948 361.07 220.948 359.967 220.26 359.29C219.582 358.612 218.479 358.612 217.791 359.29Z" fill="#7166F0"/>
<path d="M224.538 366.034C223.86 366.712 223.86 367.825 224.538 368.502C225.225 369.189 226.329 369.189 227.007 368.502C227.694 367.825 227.694 366.712 227.007 366.034C226.329 365.347 225.216 365.347 224.538 366.034Z" fill="#7166F0"/>
<path d="M231.285 372.779C230.598 373.457 230.598 374.57 231.285 375.247C231.963 375.924 233.077 375.924 233.754 375.247C234.432 374.57 234.432 373.457 233.754 372.779C233.067 372.092 231.963 372.092 231.285 372.779Z" fill="#7166F0"/>
<path d="M238.027 379.514C237.34 380.201 237.34 381.305 238.027 381.982C238.715 382.659 239.819 382.659 240.497 381.982C241.184 381.305 241.184 380.192 240.497 379.514C239.819 378.837 238.715 378.837 238.027 379.514Z" fill="#7166F0"/>
<path d="M244.778 386.259C244.1 386.946 244.1 388.049 244.778 388.727C245.465 389.404 246.569 389.404 247.247 388.727C247.925 388.04 247.925 386.937 247.247 386.259C246.569 385.582 245.456 385.582 244.778 386.259Z" fill="#7166F0"/>
<path d="M251.525 393.004C250.838 393.681 250.838 394.794 251.525 395.471C252.203 396.149 253.317 396.149 253.995 395.471C254.682 394.794 254.682 393.681 253.995 393.004C253.307 392.317 252.203 392.317 251.525 393.004Z" fill="#7166F0"/>
<path d="M175.627 327.269C174.939 327.946 174.939 329.059 175.627 329.737C176.314 330.414 177.418 330.414 178.096 329.737C178.784 329.059 178.784 327.946 178.096 327.269C177.409 326.582 176.305 326.582 175.627 327.269Z" fill="#7166F0"/>
<path d="M182.364 334.004C181.686 334.682 181.686 335.794 182.364 336.472C183.051 337.149 184.155 337.149 184.833 336.472C185.511 335.794 185.511 334.682 184.833 334.004C184.155 333.327 183.051 333.327 182.364 334.004Z" fill="#7166F0"/>
<path d="M189.111 340.749C188.424 341.426 188.424 342.539 189.111 343.216C189.789 343.894 190.903 343.894 191.581 343.216C192.268 342.529 192.268 341.426 191.581 340.749C190.903 340.071 189.799 340.071 189.111 340.749Z" fill="#7166F0"/>
<path d="M197.093 350.474C198.055 350.474 198.836 349.694 198.836 348.732C198.836 347.77 198.055 346.99 197.093 346.99C196.13 346.99 195.35 347.77 195.35 348.732C195.35 349.694 196.13 350.474 197.093 350.474Z" fill="#7166F0"/>
<path d="M203.843 357.209C204.805 357.209 205.586 356.429 205.586 355.467C205.586 354.505 204.805 353.726 203.843 353.726C202.88 353.726 202.1 354.505 202.1 355.467C202.1 356.429 202.88 357.209 203.843 357.209Z" fill="#7166F0"/>
<path d="M209.352 360.973C208.664 361.651 208.664 362.764 209.352 363.441C210.039 364.118 211.143 364.118 211.821 363.441C212.508 362.764 212.508 361.651 211.821 360.973C211.143 360.296 210.039 360.296 209.352 360.973Z" fill="#7166F0"/>
<path d="M216.102 367.718C215.424 368.395 215.424 369.508 216.102 370.186C216.79 370.873 217.894 370.873 218.571 370.186C219.249 369.508 219.249 368.395 218.571 367.718C217.894 367.041 216.78 367.041 216.102 367.718Z" fill="#7166F0"/>
<path d="M222.852 374.463C222.164 375.14 222.164 376.253 222.852 376.93C223.529 377.608 224.643 377.608 225.321 376.93C226.008 376.253 226.008 375.14 225.321 374.463C224.633 373.776 223.529 373.776 222.852 374.463Z" fill="#7166F0"/>
<path d="M229.594 381.208C228.906 381.885 228.906 382.998 229.594 383.675C230.281 384.353 231.385 384.353 232.063 383.675C232.751 382.998 232.751 381.885 232.063 381.208C231.385 380.521 230.281 380.521 229.594 381.208Z" fill="#7166F0"/>
<path d="M236.344 387.943C235.666 388.63 235.666 389.733 236.344 390.41C237.032 391.088 238.136 391.088 238.814 390.41C239.491 389.733 239.491 388.62 238.814 387.943C238.136 387.265 237.032 387.265 236.344 387.943Z" fill="#7166F0"/>
<path d="M243.09 394.687C242.402 395.365 242.402 396.478 243.09 397.155C243.768 397.832 244.881 397.832 245.559 397.155C246.247 396.468 246.247 395.365 245.559 394.687C244.881 394 243.768 394 243.09 394.687Z" fill="#7166F0"/>
<path d="M167.195 328.953C166.508 329.63 166.508 330.743 167.195 331.42C167.883 332.108 168.987 332.108 169.665 331.42C170.352 330.743 170.352 329.63 169.665 328.953C168.987 328.275 167.873 328.275 167.195 328.953Z" fill="#7166F0"/>
<path d="M173.932 335.698C173.254 336.375 173.254 337.488 173.932 338.165C174.62 338.843 175.724 338.843 176.401 338.165C177.079 337.488 177.079 336.375 176.401 335.698C175.724 335.011 174.62 335.011 173.932 335.698Z" fill="#7166F0"/>
<path d="M180.68 342.433C179.992 343.12 179.992 344.223 180.68 344.9C181.358 345.578 182.471 345.578 183.149 344.9C183.836 344.223 183.836 343.11 183.149 342.433C182.471 341.755 181.367 341.755 180.68 342.433Z" fill="#7166F0"/>
<path d="M187.432 349.177C186.754 349.855 186.754 350.968 187.432 351.645C188.12 352.332 189.224 352.332 189.901 351.645C190.589 350.968 190.589 349.855 189.901 349.177C189.224 348.5 188.11 348.5 187.432 349.177Z" fill="#7166F0"/>
<path d="M194.18 355.922C193.492 356.6 193.492 357.712 194.18 358.39C194.858 359.067 195.971 359.067 196.649 358.39C197.327 357.712 197.327 356.6 196.649 355.922C195.961 355.235 194.858 355.235 194.18 355.922Z" fill="#7166F0"/>
<path d="M200.92 362.667C200.232 363.344 200.232 364.457 200.92 365.134C201.607 365.812 202.711 365.812 203.389 365.134C204.077 364.457 204.077 363.344 203.389 362.667C202.711 361.98 201.607 361.98 200.92 362.667Z" fill="#7166F0"/>
<path d="M207.672 369.402C206.995 370.089 206.995 371.192 207.672 371.87C208.36 372.547 209.464 372.547 210.142 371.87C210.82 371.183 210.82 370.079 210.142 369.402C209.464 368.725 208.36 368.725 207.672 369.402Z" fill="#7166F0"/>
<path d="M214.42 376.147C213.732 376.824 213.732 377.937 214.42 378.614C215.098 379.301 216.211 379.301 216.889 378.614C217.577 377.937 217.577 376.824 216.889 376.147C216.202 375.469 215.098 375.469 214.42 376.147Z" fill="#7166F0"/>
<path d="M221.157 382.892C220.479 383.569 220.479 384.682 221.157 385.359C221.844 386.046 222.948 386.046 223.626 385.359C224.314 384.682 224.314 383.569 223.626 382.892C222.948 382.205 221.844 382.205 221.157 382.892Z" fill="#7166F0"/>
<path d="M227.907 389.627C227.229 390.304 227.229 391.417 227.907 392.094C228.594 392.772 229.698 392.772 230.376 392.094C231.054 391.417 231.054 390.304 230.376 389.627C229.698 388.949 228.594 388.949 227.907 389.627Z" fill="#7166F0"/>
<path d="M234.66 396.371C233.973 397.058 233.973 398.162 234.66 398.839C235.338 399.516 236.452 399.516 237.129 398.839C237.817 398.162 237.817 397.049 237.129 396.371C236.452 395.694 235.338 395.694 234.66 396.371Z" fill="#7166F0"/>
<path d="M241.405 403.116C240.727 403.793 240.727 404.906 241.405 405.583C242.092 406.271 243.196 406.271 243.874 405.583C244.562 404.906 244.562 403.793 243.874 403.116C243.187 402.429 242.083 402.429 241.405 403.116Z" fill="#7166F0"/>
<path d="M165.51 337.382C164.822 338.059 164.822 339.172 165.51 339.849C166.188 340.526 167.301 340.526 167.979 339.849C168.657 339.172 168.657 338.059 167.979 337.382C167.292 336.694 166.188 336.694 165.51 337.382Z" fill="#7166F0"/>
<path d="M172.246 344.126C171.559 344.804 171.559 345.916 172.246 346.594C172.924 347.271 174.038 347.271 174.715 346.594C175.403 345.916 175.403 344.804 174.715 344.126C174.038 343.439 172.934 343.439 172.246 344.126Z" fill="#7166F0"/>
<path d="M178.997 350.861C178.319 351.548 178.319 352.652 178.997 353.329C179.684 354.006 180.788 354.006 181.466 353.329C182.153 352.642 182.153 351.539 181.466 350.861C180.788 350.184 179.675 350.184 178.997 350.861Z" fill="#7166F0"/>
<path d="M185.744 357.606C185.057 358.283 185.057 359.396 185.744 360.074C186.422 360.761 187.536 360.761 188.213 360.074C188.891 359.396 188.891 358.283 188.213 357.606C187.526 356.929 186.422 356.929 185.744 357.606Z" fill="#7166F0"/>
<path d="M192.486 364.351C191.799 365.028 191.799 366.141 192.486 366.818C193.174 367.496 194.278 367.496 194.956 366.818C195.643 366.141 195.643 365.028 194.956 364.351C194.278 363.664 193.174 363.664 192.486 364.351Z" fill="#7166F0"/>
<path d="M199.237 371.086C198.559 371.763 198.559 372.876 199.237 373.554C199.924 374.231 201.028 374.231 201.706 373.554C202.384 372.876 202.384 371.763 201.706 371.086C201.028 370.409 199.924 370.409 199.237 371.086Z" fill="#7166F0"/>
<path d="M205.984 377.831C205.297 378.508 205.297 379.621 205.984 380.298C206.662 380.976 207.776 380.976 208.454 380.298C209.141 379.611 209.141 378.508 208.454 377.831C207.776 377.153 206.662 377.153 205.984 377.831Z" fill="#7166F0"/>
<path d="M212.735 384.575C212.057 385.253 212.057 386.366 212.735 387.043C213.422 387.73 214.526 387.73 215.204 387.043C215.892 386.366 215.892 385.253 215.204 384.575C214.517 383.888 213.413 383.888 212.735 384.575Z" fill="#7166F0"/>
<path d="M219.471 391.32C218.793 391.997 218.793 393.11 219.471 393.788C220.159 394.465 221.263 394.465 221.941 393.788C222.618 393.11 222.618 391.997 221.941 391.32C221.263 390.633 220.159 390.633 219.471 391.32Z" fill="#7166F0"/>
<path d="M226.225 398.055C225.537 398.733 225.537 399.845 226.225 400.523C226.902 401.2 228.016 401.2 228.694 400.523C229.381 399.845 229.381 398.733 228.694 398.055C228.016 397.378 226.902 397.378 226.225 398.055Z" fill="#7166F0"/>
<path d="M234.2 407.78C235.163 407.78 235.943 407 235.943 406.038C235.943 405.076 235.163 404.296 234.2 404.296C233.237 404.296 232.457 405.076 232.457 406.038C232.457 407 233.237 407.78 234.2 407.78Z" fill="#7166F0"/>
<path d="M157.07 339.065C156.383 339.743 156.383 340.855 157.07 341.533C157.748 342.22 158.862 342.22 159.54 341.533C160.217 340.855 160.217 339.743 159.54 339.065C158.852 338.388 157.748 338.388 157.07 339.065Z" fill="#7166F0"/>
<path d="M163.813 345.81C163.135 346.487 163.135 347.6 163.813 348.277C164.501 348.955 165.605 348.955 166.282 348.277C166.97 347.6 166.97 346.487 166.282 345.81C165.605 345.123 164.501 345.123 163.813 345.81Z" fill="#7166F0"/>
<path d="M170.563 352.545C169.885 353.222 169.885 354.335 170.563 355.012C171.251 355.69 172.355 355.69 173.032 355.012C173.72 354.335 173.72 353.222 173.032 352.545C172.355 351.868 171.251 351.868 170.563 352.545Z" fill="#7166F0"/>
<path d="M177.311 359.29C176.623 359.967 176.623 361.08 177.311 361.757C177.988 362.435 179.102 362.435 179.78 361.757C180.458 361.07 180.458 359.967 179.78 359.29C179.102 358.612 177.988 358.612 177.311 359.29Z" fill="#7166F0"/>
<path d="M184.061 366.034C183.373 366.712 183.373 367.825 184.061 368.502C184.748 369.189 185.852 369.189 186.53 368.502C187.217 367.825 187.217 366.712 186.53 366.034C185.842 365.347 184.738 365.347 184.061 366.034Z" fill="#7166F0"/>
<path d="M190.797 372.779C190.12 373.456 190.12 374.569 190.797 375.247C191.485 375.924 192.589 375.924 193.267 375.247C193.945 374.569 193.945 373.456 193.267 372.779C192.589 372.092 191.485 372.092 190.797 372.779Z" fill="#7166F0"/>
<path d="M197.545 379.514C196.857 380.201 196.857 381.305 197.545 381.982C198.223 382.659 199.336 382.659 200.014 381.982C200.702 381.305 200.702 380.192 200.014 379.514C199.336 378.837 198.223 378.837 197.545 379.514Z" fill="#7166F0"/>
<path d="M204.295 386.259C203.618 386.946 203.618 388.049 204.295 388.727C204.983 389.404 206.087 389.404 206.765 388.727C207.452 388.04 207.452 386.936 206.765 386.259C206.077 385.582 204.973 385.582 204.295 386.259Z" fill="#7166F0"/>
<path d="M211.037 393.004C210.35 393.681 210.35 394.794 211.037 395.471C211.715 396.149 212.829 396.149 213.506 395.471C214.184 394.794 214.184 393.681 213.506 393.004C212.829 392.317 211.725 392.317 211.037 393.004Z" fill="#7166F0"/>
<path d="M217.785 399.739C217.098 400.416 217.098 401.529 217.785 402.206C218.463 402.884 219.577 402.884 220.254 402.206C220.942 401.529 220.942 400.416 220.254 399.739C219.577 399.061 218.473 399.061 217.785 399.739Z" fill="#7166F0"/>
<path d="M224.536 406.484C223.858 407.161 223.858 408.274 224.536 408.951C225.223 409.629 226.327 409.629 227.005 408.951C227.693 408.274 227.693 407.161 227.005 406.484C226.327 405.806 225.214 405.806 224.536 406.484Z" fill="#7166F0"/>
<path d="M232.516 416.209C233.479 416.209 234.259 415.429 234.259 414.467C234.259 413.505 233.479 412.725 232.516 412.725C231.554 412.725 230.773 413.505 230.773 414.467C230.773 415.429 231.554 416.209 232.516 416.209Z" fill="#7166F0"/>
<path d="M155.387 347.494C154.699 348.171 154.699 349.284 155.387 349.961C156.065 350.639 157.178 350.639 157.856 349.961C158.544 349.284 158.544 348.171 157.856 347.494C157.168 346.807 156.065 346.807 155.387 347.494Z" fill="#7166F0"/>
<path d="M162.129 354.238C161.452 354.916 161.452 356.029 162.129 356.706C162.817 357.383 163.921 357.383 164.599 356.706C165.286 356.029 165.286 354.916 164.599 354.238C163.921 353.551 162.817 353.551 162.129 354.238Z" fill="#7166F0"/>
<path d="M168.877 360.973C168.189 361.651 168.189 362.764 168.877 363.441C169.555 364.118 170.668 364.118 171.346 363.441C172.024 362.764 172.024 361.651 171.346 360.973C170.668 360.296 169.555 360.296 168.877 360.973Z" fill="#7166F0"/>
<path d="M175.627 367.718C174.939 368.395 174.939 369.508 175.627 370.186C176.314 370.873 177.418 370.873 178.096 370.186C178.784 369.508 178.784 368.395 178.096 367.718C177.409 367.041 176.305 367.041 175.627 367.718Z" fill="#7166F0"/>
<path d="M182.364 374.463C181.686 375.14 181.686 376.253 182.364 376.931C183.051 377.608 184.155 377.608 184.833 376.931C185.511 376.253 185.511 375.14 184.833 374.463C184.155 373.776 183.051 373.776 182.364 374.463Z" fill="#7166F0"/>
<path d="M189.111 381.208C188.424 381.885 188.424 382.998 189.111 383.675C189.789 384.353 190.903 384.353 191.581 383.675C192.268 382.998 192.268 381.885 191.581 381.208C190.903 380.521 189.799 380.521 189.111 381.208Z" fill="#7166F0"/>
<path d="M195.862 387.943C195.184 388.63 195.184 389.733 195.862 390.41C196.549 391.088 197.653 391.088 198.331 390.41C199.019 389.733 199.019 388.62 198.331 387.943C197.653 387.265 196.54 387.265 195.862 387.943Z" fill="#7166F0"/>
<path d="M202.611 394.688C201.924 395.365 201.924 396.478 202.611 397.155C203.289 397.833 204.403 397.833 205.081 397.155C205.758 396.468 205.758 395.365 205.081 394.688C204.393 394.001 203.289 394.001 202.611 394.688Z" fill="#7166F0"/>
<path d="M209.352 401.432C208.664 402.11 208.664 403.222 209.352 403.9C210.039 404.587 211.143 404.587 211.821 403.9C212.508 403.222 212.508 402.11 211.821 401.432C211.143 400.745 210.039 400.745 209.352 401.432Z" fill="#7166F0"/>
<path d="M216.102 408.167C215.424 408.854 215.424 409.957 216.102 410.635C216.79 411.312 217.894 411.312 218.571 410.635C219.249 409.957 219.249 408.845 218.571 408.167C217.894 407.49 216.78 407.49 216.102 408.167Z" fill="#7166F0"/>
<path d="M222.85 414.912C222.162 415.599 222.162 416.702 222.85 417.379C223.527 418.057 224.641 418.057 225.319 417.379C226.006 416.692 226.006 415.589 225.319 414.912C224.631 414.234 223.527 414.234 222.85 414.912Z" fill="#7166F0"/>
<path d="M146.953 349.177C146.266 349.855 146.266 350.968 146.953 351.645C147.631 352.332 148.745 352.332 149.422 351.645C150.11 350.968 150.11 349.855 149.422 349.177C148.735 348.5 147.631 348.5 146.953 349.177Z" fill="#7166F0"/>
<path d="M153.696 355.922C153.018 356.599 153.018 357.712 153.696 358.39C154.383 359.067 155.487 359.067 156.165 358.39C156.843 357.712 156.843 356.599 156.165 355.922C155.487 355.235 154.383 355.235 153.696 355.922Z" fill="#7166F0"/>
<path d="M160.44 362.667C159.762 363.345 159.762 364.457 160.44 365.135C161.118 365.812 162.231 365.812 162.909 365.135C163.587 364.457 163.587 363.345 162.909 362.667C162.231 361.98 161.118 361.98 160.44 362.667Z" fill="#7166F0"/>
<path d="M167.193 369.402C166.506 370.089 166.506 371.192 167.193 371.87C167.881 372.547 168.985 372.547 169.663 371.87C170.35 371.183 170.35 370.079 169.663 369.402C168.985 368.725 167.871 368.725 167.193 369.402Z" fill="#7166F0"/>
<path d="M173.93 376.147C173.252 376.824 173.252 377.937 173.93 378.614C174.618 379.301 175.722 379.301 176.4 378.614C177.077 377.937 177.077 376.824 176.4 376.147C175.722 375.469 174.618 375.469 173.93 376.147Z" fill="#7166F0"/>
<path d="M180.678 382.892C179.99 383.569 179.99 384.682 180.678 385.359C181.356 386.046 182.469 386.046 183.147 385.359C183.835 384.682 183.835 383.569 183.147 382.892C182.469 382.205 181.365 382.205 180.678 382.892Z" fill="#7166F0"/>
<path d="M187.428 389.627C186.75 390.304 186.75 391.417 187.428 392.094C188.116 392.772 189.22 392.772 189.898 392.094C190.585 391.417 190.585 390.304 189.898 389.627C189.22 388.949 188.106 388.949 187.428 389.627Z" fill="#7166F0"/>
<path d="M194.178 396.371C193.49 397.058 193.49 398.162 194.178 398.839C194.856 399.516 195.969 399.516 196.647 398.839C197.325 398.162 197.325 397.049 196.647 396.371C195.96 395.694 194.856 395.694 194.178 396.371Z" fill="#7166F0"/>
<path d="M200.918 403.116C200.23 403.793 200.23 404.906 200.918 405.584C201.606 406.271 202.709 406.271 203.387 405.584C204.075 404.906 204.075 403.793 203.387 403.116C202.709 402.429 201.606 402.429 200.918 403.116Z" fill="#7166F0"/>
<path d="M207.669 409.861C206.991 410.538 206.991 411.651 207.669 412.328C208.356 413.015 209.46 413.015 210.138 412.328C210.816 411.651 210.816 410.538 210.138 409.861C209.46 409.174 208.356 409.174 207.669 409.861Z" fill="#7166F0"/>
<path d="M214.416 416.596C213.729 417.273 213.729 418.386 214.416 419.063C215.094 419.741 216.207 419.741 216.885 419.063C217.573 418.386 217.573 417.273 216.885 416.596C216.198 415.918 215.094 415.918 214.416 416.596Z" fill="#7166F0"/>
<path d="M221.161 423.341C220.483 424.028 220.483 425.131 221.161 425.808C221.848 426.486 222.952 426.486 223.63 425.808C224.318 425.121 224.318 424.018 223.63 423.341C222.952 422.663 221.848 422.663 221.161 423.341Z" fill="#7166F0"/>
<path d="M145.256 357.606C144.579 358.283 144.579 359.396 145.256 360.073C145.944 360.76 147.048 360.76 147.726 360.073C148.404 359.396 148.404 358.283 147.726 357.606C147.048 356.928 145.944 356.928 145.256 357.606Z" fill="#7166F0"/>
<path d="M152.004 364.351C151.316 365.028 151.316 366.141 152.004 366.818C152.682 367.496 153.795 367.496 154.473 366.818C155.161 366.141 155.161 365.028 154.473 364.351C153.786 363.673 152.691 363.663 152.004 364.351Z" fill="#7166F0"/>
<path d="M158.76 371.086C158.072 371.763 158.072 372.876 158.76 373.553C159.447 374.231 160.551 374.231 161.229 373.553C161.917 372.876 161.917 371.763 161.229 371.086C160.551 370.408 159.438 370.408 158.76 371.086Z" fill="#7166F0"/>
<path d="M165.508 377.83C164.82 378.508 164.82 379.621 165.508 380.298C166.186 380.975 167.299 380.975 167.977 380.298C168.655 379.611 168.655 378.508 167.977 377.83C167.29 377.153 166.186 377.153 165.508 377.83Z" fill="#7166F0"/>
<path d="M172.244 384.575C171.557 385.253 171.557 386.366 172.244 387.043C172.922 387.73 174.036 387.73 174.713 387.043C175.401 386.366 175.401 385.253 174.713 384.575C174.036 383.888 172.932 383.888 172.244 384.575Z" fill="#7166F0"/>
<path d="M178.995 391.32C178.317 391.997 178.317 393.11 178.995 393.788C179.682 394.465 180.786 394.465 181.464 393.788C182.152 393.11 182.152 391.997 181.464 391.32C180.786 390.633 179.673 390.633 178.995 391.32Z" fill="#7166F0"/>
<path d="M185.744 398.055C185.057 398.732 185.057 399.845 185.744 400.523C186.422 401.2 187.536 401.2 188.213 400.523C188.891 399.845 188.891 398.732 188.213 398.055C187.526 397.378 186.422 397.378 185.744 398.055Z" fill="#7166F0"/>
<path d="M192.484 404.8C191.797 405.487 191.797 406.59 192.484 407.267C193.172 407.945 194.276 407.945 194.954 407.267C195.641 406.58 195.641 405.477 194.954 404.8C194.276 404.122 193.172 404.122 192.484 404.8Z" fill="#7166F0"/>
<path d="M199.235 411.545C198.557 412.222 198.557 413.335 199.235 414.012C199.922 414.699 201.026 414.699 201.704 414.012C202.382 413.335 202.382 412.222 201.704 411.545C201.026 410.858 199.922 410.858 199.235 411.545Z" fill="#7166F0"/>
<path d="M205.984 418.28C205.297 418.957 205.297 420.07 205.984 420.747C206.662 421.424 207.776 421.424 208.454 420.747C209.141 420.07 209.141 418.957 208.454 418.28C207.776 417.602 206.662 417.602 205.984 418.28Z" fill="#7166F0"/>
<path d="M212.731 425.024C212.053 425.711 212.053 426.814 212.731 427.492C213.419 428.169 214.522 428.169 215.2 427.492C215.888 426.814 215.888 425.702 215.2 425.024C214.513 424.347 213.409 424.347 212.731 425.024Z" fill="#7166F0"/>
</g>
<path d="M55 206.754L90.7783 242.508L126.557 206.754L90.7783 171L55 206.754ZM90.7783 220.431L77.0917 206.754L90.7783 193.077L104.465 206.754L90.7783 220.431Z" fill="#E6E4FF"/>
<path d="M272.538 56C260.654 56 251 65.6621 251 77.5374C251 89.4128 260.669 99.0749 272.538 99.0749C284.421 99.0749 294.09 89.4128 294.09 77.5374C294.09 65.6621 284.421 56 272.538 56ZM272.538 83.4538C269.272 83.4538 266.617 80.8007 266.617 77.5232C266.617 74.26 269.272 71.5926 272.538 71.5926C275.803 71.5926 278.473 74.2458 278.473 77.5232C278.473 80.8007 275.803 83.4538 272.538 83.4538Z" fill="#E6E4FF"/>
</g>
</svg>
