<svg width="347" height="605" viewBox="0 0 347 605" fill="none" xmlns="http://www.w3.org/2000/svg">
<mask id="mask0_956_160935" style="mask-type:alpha" maskUnits="userSpaceOnUse" x="0" y="0" width="347" height="605">
<rect width="347" height="605" fill="#7166F0"/>
</mask>
<g mask="url(#mask0_956_160935)">
<path opacity="0.1" d="M20.8584 532.893C31.912 530.639 43.2899 529.824 54.5345 530.491C90.2821 532.614 136.712 555.83 168.36 528.464C199.248 501.749 182.105 447.132 227.666 433.371C250.645 426.434 276.225 428.39 292.545 407.798C308.127 388.139 310.673 360.312 331.952 345.035C349.404 332.503 377.601 328.823 387.678 352.196C394.962 369.094 388.164 394.58 391.388 413.404C396.166 441.312 403.309 469.03 409.247 496.719C413.312 515.702 417.37 535.563 412.281 554.302C406.307 576.311 388.57 593.229 369.493 605.713C348.57 619.407 325.118 629.22 300.688 634.51C273.317 640.439 245.044 640.691 217.061 639.575C157.406 637.195 98.1872 628.704 39.0879 620.218C8.4759 615.827 -84.3665 603.615 -32.6098 558.572C-17.6886 545.59 1.04591 536.929 20.8584 532.893Z" fill="white"/>
<path opacity="0.08" d="M59.2291 318.144C83.608 311.457 108.053 303.631 129.302 289.952C150.562 276.264 168.563 255.982 174.733 231.473C179.896 211.002 176.541 189.419 172.487 168.699C169.071 151.239 165.208 132.879 170.76 115.969C178.695 91.7814 207.438 76.6644 231.87 83.8226C250.483 89.2763 267.341 105.679 286.228 101.285C297.551 98.654 305.704 89.1164 315.329 82.5953C332.11 71.2315 353.387 69.1687 373.655 68.798C393.923 68.4272 414.702 69.3364 433.878 62.7917C453.062 56.2482 470.651 39.9957 471.547 19.7484C343.111 -17.3689 219.776 -83.425 86.0803 -84.2201C61.8045 -84.3599 35.2773 -81.3451 18.0673 -64.2214C9.46904 -55.6738 4.1465 -44.4575 -1.01602 -33.4839C-12.546 -8.96167 -24.0772 15.5705 -35.5973 40.0938C-47.6403 65.7027 -59.7833 91.642 -65.1483 119.431C-75.6572 173.837 -59.4596 228.775 -43.1453 280.302C-37.8107 297.137 -35.3447 311.1 -18.8644 319.561C4.24911 331.415 35.6305 324.621 59.2291 318.144Z" fill="white"/>
<g opacity="0.2">
<mask id="mask1_956_160935" style="mask-type:luminance" maskUnits="userSpaceOnUse" x="-26" y="-83" width="212" height="212">
<path d="M4.98939 97.6154C46.3086 138.933 113.297 138.933 154.615 97.6154C195.934 56.2962 195.934 -10.6919 154.615 -52.0111C113.297 -93.3303 46.3072 -93.3289 4.98939 -52.0111C-36.3298 -10.6919 -36.3298 56.2962 4.98939 97.6154Z" fill="white"/>
</mask>
<g mask="url(#mask1_956_160935)">
<path d="M154.112 -52.5079L4.4873 97.1172L5.48481 98.1147L155.11 -51.5104L154.112 -52.5079Z" fill="white"/>
<path d="M159.868 -46.7548L10.2432 102.87L11.2407 103.868L160.866 -45.7573L159.868 -46.7548Z" fill="white"/>
<path d="M16.9959 109.625L166.622 -40.0034L165.625 -41.0007L142.552 -17.926L16 108.627L16.9959 109.625Z" fill="white"/>
<path d="M171.377 -35.2445L21.752 114.381L22.7495 115.378L172.375 -34.247L171.377 -35.2445Z" fill="white"/>
<path d="M177.133 -29.4906L27.5078 120.135L28.5053 121.132L178.13 -28.4931L177.133 -29.4906Z" fill="white"/>
<path d="M182.887 -23.736L33.2617 125.889L34.2592 126.887L183.884 -22.7385L182.887 -23.736Z" fill="white"/>
<path d="M188.643 -17.9789L39.0176 131.646L40.0151 132.644L189.64 -16.9814L188.643 -17.9789Z" fill="white"/>
<path d="M194.397 -12.2262L44.7715 137.399L45.769 138.396L195.394 -11.2287L194.397 -12.2262Z" fill="white"/>
<path d="M200.151 -6.46887L50.5264 143.156L51.5239 144.154L201.149 -5.47137L200.151 -6.46887Z" fill="white"/>
<path d="M205.905 -0.714476L56.2803 148.911L57.2778 149.908L206.903 0.283025L205.905 -0.714476Z" fill="white"/>
<path d="M211.66 5.0382L62.0352 154.663L63.0327 155.661L212.658 6.0357L211.66 5.0382Z" fill="white"/>
<path d="M217.416 10.7938L67.791 160.419L68.7885 161.416L218.414 11.7913L217.416 10.7938Z" fill="white"/>
<path d="M223.17 16.549L73.5449 166.174L74.5424 167.172L224.168 17.5465L223.17 16.549Z" fill="white"/>
<path d="M228.924 22.3053L79.2988 171.93L80.2963 172.928L229.921 23.3028L228.924 22.3053Z" fill="white"/>
<path d="M79.2999 -127.322L-70.3252 22.3032L-69.3277 23.3007L80.2974 -126.324L79.2999 -127.322Z" fill="white"/>
<path d="M85.0558 -121.567L-64.5693 28.0586L-63.5718 29.0561L86.0533 -120.569L85.0558 -121.567Z" fill="white"/>
<path d="M90.8107 -115.813L-58.8145 33.8118L-57.817 34.8093L91.8082 -114.816L90.8107 -115.813Z" fill="white"/>
<path d="M96.5665 -110.057L-53.0586 39.5679L-52.0611 40.5654L97.564 -109.06L96.5665 -110.057Z" fill="white"/>
<path d="M102.319 -104.302L-47.3057 45.3228L-46.3082 46.3203L103.317 -103.305L102.319 -104.302Z" fill="white"/>
<path d="M108.073 -98.548L-41.5518 51.0771L-40.5543 52.0746L109.071 -97.5505L108.073 -98.548Z" fill="white"/>
<path d="M113.829 -92.7936L-35.7959 56.8315L-34.7984 57.829L114.827 -91.7961L113.829 -92.7936Z" fill="white"/>
<path d="M119.584 -87.0385L-30.041 62.5867L-29.0435 63.5842L120.582 -86.041L119.584 -87.0385Z" fill="white"/>
<path d="M125.34 -81.2848L-24.2852 68.3403L-23.2877 69.3378L126.337 -80.2873L125.34 -81.2848Z" fill="white"/>
<path d="M131.095 -75.5272L-18.5303 74.0979L-17.5328 75.0954L132.092 -74.5297L131.095 -75.5272Z" fill="white"/>
<path d="M136.849 -69.7726L-12.7764 79.8525L-11.7789 80.85L137.846 -68.7751L136.849 -69.7726Z" fill="white"/>
<path d="M142.604 -64.0201L-7.02148 85.605L-6.02398 86.6025L143.601 -63.0226L142.604 -64.0201Z" fill="white"/>
<path d="M148.358 -58.2657L-1.26758 91.3594L-0.270077 92.3569L149.355 -57.2682L148.358 -58.2657Z" fill="white"/>
</g>
</g>
</g>
</svg>
