<svg width="20" height="17" viewBox="0 0 20 17" fill="none" xmlns="http://www.w3.org/2000/svg">
<path d="M18.4438 5.98926V3.28373C18.4438 2.52959 17.9596 1.47626 15.6537 0.74081C14.1562 0.263066 12.1483 0 10 0C7.85172 0 5.84381 0.263066 4.34616 0.74081C2.04041 1.47626 1.55624 2.52959 1.55624 3.28373V5.98926C0.66925 6.16397 0 6.9178 0 7.81847V15.4042C0 15.8377 0.35141 16.1905 0.783234 16.1905H2.9245C3.35648 16.1905 3.70789 15.8378 3.70789 15.4042V14.0771H16.2923V15.4042C16.2923 15.8377 16.6435 16.1905 17.0755 16.1905H19.2168C19.6486 16.1905 20 15.8378 20 15.4042V7.81847C20 6.9178 19.3307 6.16397 18.4438 5.98926ZM2.34314 3.28373C2.34314 2.34799 3.74741 1.7603 4.5845 1.49326C6.00708 1.0394 7.9303 0.789656 10 0.789656C12.0695 0.789656 13.9928 1.0394 15.4153 1.49326C16.2524 1.7603 17.6569 2.34799 17.6569 3.28373V5.95098H16.7334V5.27142C16.7334 4.63351 16.2164 4.11473 15.5812 4.11473H12.1318C11.4964 4.11473 10.9796 4.63351 10.9796 5.27142V5.95098H9.13895V5.27142C9.13895 4.63351 8.62213 4.11473 7.98676 4.11473H4.53735C3.90213 4.11473 3.38516 4.63351 3.38516 5.27142V5.95098H2.34314V3.28373ZM11.7664 5.95098V5.27142C11.7664 5.07236 11.9337 4.90423 12.1318 4.90423H15.5812C15.7826 4.90423 15.9465 5.06899 15.9465 5.27142V5.95098H11.7664ZM4.17191 5.95098V5.27142C4.17191 5.06884 4.33594 4.90423 4.53735 4.90423H7.98676C8.18817 4.90423 8.3522 5.06899 8.3522 5.27142V5.95098H4.17191ZM0.786743 7.81847C0.786743 7.22404 1.30844 6.74063 1.94977 6.74063H18.0502C18.6916 6.74063 19.2133 7.22404 19.2133 7.81847V11.1732H11.5602C11.3429 11.1732 11.1668 11.3499 11.1668 11.568C11.1668 11.786 11.3429 11.9627 11.5602 11.9627H19.2133V13.2877H0.786743V11.9627H8.43979C8.65707 11.9627 8.83316 11.786 8.83316 11.568C8.83316 11.3499 8.65707 11.1732 8.43979 11.1732H0.786743V7.81847ZM2.92099 15.401H0.786743V14.0772H2.92099V15.401ZM17.079 15.401V14.0772H19.2133V15.401H17.079Z" fill="#7166F0"/>
</svg>
