<svg width="223" height="109" viewBox="0 0 223 109" fill="none" xmlns="http://www.w3.org/2000/svg">
<path d="M97.8437 12.7832C77.3578 12.7689 56.1304 13.0421 37.1108 20.2079C24.3069 25.0379 9.03968 34.042 4.77029 46.7576C-0.418699 62.2037 15.6938 73.9092 29.8647 79.0845C49.701 86.3235 71.3798 90.0189 92.4728 91.5854C113.99 93.1639 135.627 92.3213 156.844 89.4907C173.067 87.3312 190.482 84.5581 203.927 75.7567C214.411 68.8933 222.801 55.9547 217.177 43.8657C211.124 30.8424 189.947 26.575 176.668 23.3169C134.156 12.9181 88.6817 16.6726 49.6386 33.3966C47.4786 34.327 48.9619 37.497 51.14 36.5691C80.0359 24.1826 112.312 18.9195 144.606 21.5646C160.406 22.8557 176.111 25.9621 191.099 30.9788C198.964 33.6185 207.912 36.4621 212.504 43.242C218.101 51.5083 213.924 62.0072 207.401 68.4481C197.448 78.2654 181.655 82.0575 167.569 84.4279C150.963 87.2348 134.019 88.8374 117.027 88.9921C98.6254 89.1669 80.1314 87.6797 62.0172 84.1776C45.4007 80.9645 20.7028 76.7325 10.9136 62.438C-1.95633 43.6309 24.4868 27.5734 40.8515 21.7176C58.8488 15.2773 78.6846 14.4766 97.9294 13.3891C98.3918 13.3913 98.2677 12.7952 97.8437 12.7832Z" fill="#F2C94C"/>
</svg>
