<svg width="125" height="58" viewBox="0 0 125 58" fill="none" xmlns="http://www.w3.org/2000/svg">
<path d="M51.289 1.78837C39.5018 3.72352 27.3107 5.9295 16.9349 12.7321C9.95036 17.3158 1.87872 25.0439 0.427901 34.3159C-1.33608 45.5791 8.85949 52.2115 17.4216 54.4747C29.4064 57.639 42.171 58.1574 54.4302 57.247C66.9344 56.3047 79.3158 53.6627 91.2988 49.6744C100.462 46.6282 110.262 43.041 117.301 35.6272C122.79 29.8459 126.594 20.0273 122.403 12.1315C117.89 3.62523 105.369 2.66026 97.4715 1.64922C72.1909 -1.56534 46.3254 5.37036 25.1853 20.7391C24.0162 21.5929 25.1202 23.6625 26.3 22.8087C41.9451 11.428 60.0982 4.69345 78.887 3.47162C88.079 2.87173 97.3604 3.54657 106.38 5.62168C111.114 6.71552 116.487 7.84876 119.665 12.1404C123.538 17.3731 121.965 25.0905 118.722 30.2011C113.772 37.9917 104.985 42.1355 97.0689 45.1258C87.7372 48.6597 78.1153 51.3861 68.3516 53.1073C57.7787 54.9764 47.021 55.6953 36.3225 54.9733C26.5085 54.3105 11.9645 53.7045 5.20222 44.6665C-3.68934 32.7743 10.2543 19.0667 19.2063 13.4297C29.0514 7.22998 40.4001 4.78832 51.3862 2.2027C51.6524 2.16037 51.5339 1.75648 51.289 1.78837Z" fill="#F2C94C"/>
</svg>
