<svg width="345" height="178" viewBox="0 0 345 178" fill="none" xmlns="http://www.w3.org/2000/svg">
<path d="M152.422 19.881C120.758 20.2211 87.9425 21.0561 58.4173 33.4071C38.5408 41.7318 14.7827 57.0978 7.9577 78.4906C-0.337204 104.477 24.3595 123.815 46.1711 132.239C76.703 144.022 110.146 149.832 142.721 152.084C175.951 154.348 209.409 152.55 242.254 147.428C267.368 143.52 294.336 138.561 315.274 123.567C331.601 111.875 344.798 90.0353 336.321 69.8687C327.195 48.1436 294.539 41.3657 274.071 36.1396C208.546 19.4621 138.192 26.5642 77.5467 55.2947C74.1916 56.8927 76.4279 62.1807 79.8111 60.5864C124.695 39.3078 174.676 29.9111 224.546 33.7718C248.944 35.6555 273.164 40.5841 296.241 48.7281C308.351 53.0135 322.132 57.6217 329.109 68.9063C337.612 82.6648 330.969 100.34 320.773 111.253C305.214 127.888 280.736 134.526 258.921 138.75C233.205 143.751 206.986 146.738 180.719 147.3C152.273 147.92 123.714 145.755 95.7779 140.206C70.1512 135.115 32.0515 128.459 17.1747 104.669C-2.3839 73.3684 38.7737 45.9792 64.1722 35.8716C92.1046 24.755 122.778 23.0603 152.544 20.8952C153.259 20.8908 153.077 19.8936 152.422 19.881Z" fill="#F2C94C"/>
</svg>
