<svg width="20" height="20" viewBox="0 0 20 20" fill="none" xmlns="http://www.w3.org/2000/svg">
<path d="M3.75022 2.49945C3.64355 2.49945 3.53688 2.45862 3.45522 2.37778L2.08351 1.00524L0.711796 2.37778C0.549291 2.54029 0.285116 2.54029 0.122611 2.37778C-0.0398938 2.21528 -0.0398938 1.9511 0.122611 1.7886L1.78933 0.121879C1.95184 -0.0406263 2.21601 -0.0406263 2.37852 0.121879L4.04523 1.7886C4.20774 1.9511 4.20774 2.21528 4.04523 2.37778C3.96356 2.45862 3.85689 2.49945 3.75022 2.49945Z" fill="#F2C94C"/>
<path d="M17.9174 20.0001C17.8107 20.0001 17.704 19.9592 17.6224 19.8784C17.4599 19.7159 17.4599 19.4517 17.6224 19.2892L18.9941 17.9175L17.6224 16.5458C17.4599 16.3833 17.4599 16.1191 17.6224 15.9566C17.7849 15.7941 18.049 15.7941 18.2116 15.9566L19.8783 17.6233C20.0408 17.7858 20.0408 18.05 19.8783 18.2125L18.2116 19.8792C18.1307 19.9592 18.024 20.0001 17.9174 20.0001Z" fill="#F2C94C"/>
<path d="M2.08343 20C1.85342 20 1.66675 19.8134 1.66675 19.5834V0.624443C1.66675 0.394436 1.85342 0.207764 2.08343 0.207764C2.31343 0.207764 2.50011 0.394436 2.50011 0.624443V19.5834C2.50011 19.8134 2.31343 20 2.08343 20Z" fill="#F2C94C"/>
<path d="M19.3756 18.3334H0.41668C0.186673 18.3334 0 18.1467 0 17.9167C0 17.6867 0.186673 17.5 0.41668 17.5H19.3756C19.6056 17.5 19.7923 17.6867 19.7923 17.9167C19.7923 18.1467 19.6056 18.3334 19.3756 18.3334Z" fill="#F2C94C"/>
<path d="M10.8338 8.33316C10.7829 8.33316 10.7321 8.324 10.6838 8.30566L5.26692 6.22227C5.10608 6.1606 5.00024 6.00559 5.00024 5.83309C5.00024 5.66058 5.10608 5.50558 5.26692 5.44391L10.6838 3.36051C10.7796 3.32384 10.8871 3.32384 10.9829 3.36051L16.3998 5.44391C16.5614 5.50558 16.6673 5.66058 16.6673 5.83309C16.6673 6.00559 16.5614 6.1606 16.4006 6.22227L10.9838 8.30566C10.9354 8.324 10.8846 8.33316 10.8338 8.33316ZM6.57779 5.83309L10.8338 7.4698L15.0897 5.83309L10.8338 4.19637L6.57779 5.83309Z" fill="#F2C94C"/>
<path d="M10.8338 14.9999C10.7829 14.9999 10.7321 14.9907 10.6838 14.9724L5.26692 12.889C5.10608 12.8273 5.00024 12.6723 5.00024 12.4998V5.83294C5.00024 5.60293 5.18692 5.41626 5.41692 5.41626C5.64693 5.41626 5.8336 5.60293 5.8336 5.83294V12.214L10.8338 14.1374L15.8339 12.214V5.83294C15.8339 5.60293 16.0206 5.41626 16.2506 5.41626C16.4806 5.41626 16.6673 5.60293 16.6673 5.83294V12.4998C16.6673 12.6723 16.5614 12.8273 16.4006 12.889L10.9838 14.9724C10.9354 14.9907 10.8846 14.9999 10.8338 14.9999Z" fill="#F2C94C"/>
<path d="M10.8337 14.9997C10.6037 14.9997 10.417 14.8131 10.417 14.5831V7.91619C10.417 7.68618 10.6037 7.49951 10.8337 7.49951C11.0637 7.49951 11.2504 7.68618 11.2504 7.91619V14.5831C11.2504 14.8131 11.0637 14.9997 10.8337 14.9997Z" fill="#F2C94C"/>
</svg>
