<svg width="19" height="19" viewBox="0 0 19 19" fill="none" xmlns="http://www.w3.org/2000/svg">
<path d="M3.56281 2.37448C3.46147 2.37448 3.36014 2.33569 3.28255 2.25889L1.97943 0.954978L0.676304 2.25889C0.521924 2.41327 0.270958 2.41327 0.116578 2.25889C-0.0378015 2.10451 -0.0378015 1.85355 0.116578 1.69917L1.69996 0.115785C1.85434 -0.038595 2.10531 -0.038595 2.25969 0.115785L3.84307 1.69917C3.99745 1.85355 3.99745 2.10451 3.84307 2.25889C3.76548 2.33569 3.66415 2.37448 3.56281 2.37448Z" fill="#7166F0"/>
<path d="M17.0214 19C16.9201 19 16.8187 18.9612 16.7412 18.8845C16.5868 18.7301 16.5868 18.4791 16.7412 18.3247L18.0443 17.0216L16.7412 15.7185C16.5868 15.5641 16.5868 15.3131 16.7412 15.1588C16.8955 15.0044 17.1465 15.0044 17.3009 15.1588L18.8843 16.7421C19.0386 16.8965 19.0386 17.1475 18.8843 17.3019L17.3009 18.8852C17.2241 18.9612 17.1227 19 17.0214 19Z" fill="#7166F0"/>
<path d="M1.97916 18.9999C1.76065 18.9999 1.58331 18.8226 1.58331 18.6041V0.593111C1.58331 0.374605 1.76065 0.197266 1.97916 0.197266C2.19767 0.197266 2.375 0.374605 2.375 0.593111V18.6041C2.375 18.8226 2.19767 18.9999 1.97916 18.9999Z" fill="#7166F0"/>
<path d="M18.4068 17.4167H0.395846C0.177339 17.4167 0 17.2394 0 17.0208C0 16.8023 0.177339 16.625 0.395846 16.625H18.4068C18.6253 16.625 18.8027 16.8023 18.8027 17.0208C18.8027 17.2394 18.6253 17.4167 18.4068 17.4167Z" fill="#7166F0"/>
<path d="M10.292 7.91629C10.2437 7.91629 10.1954 7.90758 10.1495 7.89016L5.00346 5.91093C4.85067 5.85235 4.75012 5.70509 4.75012 5.54121C4.75012 5.37733 4.85067 5.23008 5.00346 5.17149L10.1495 3.19226C10.2405 3.15743 10.3426 3.15743 10.4337 3.19226L15.5797 5.17149C15.7333 5.23008 15.8338 5.37733 15.8338 5.54121C15.8338 5.70509 15.7333 5.85235 15.5805 5.91093L10.4345 7.89016C10.3885 7.90758 10.3403 7.91629 10.292 7.91629ZM6.24879 5.54121L10.292 7.09609L14.3351 5.54121L10.292 3.98633L6.24879 5.54121Z" fill="#7166F0"/>
<path d="M10.292 14.25C10.2437 14.25 10.1954 14.2413 10.1495 14.2238L5.00346 12.2446C4.85067 12.186 4.75012 12.0388 4.75012 11.8749V5.54135C4.75012 5.32285 4.92746 5.14551 5.14597 5.14551C5.36447 5.14551 5.54181 5.32285 5.54181 5.54135V11.6033L10.292 13.4306L15.0421 11.6033V5.54135C15.0421 5.32285 15.2194 5.14551 15.438 5.14551C15.6565 5.14551 15.8338 5.32285 15.8338 5.54135V11.8749C15.8338 12.0388 15.7333 12.186 15.5805 12.2446L10.4345 14.2238C10.3885 14.2413 10.3403 14.25 10.292 14.25Z" fill="#7166F0"/>
<path d="M10.2921 14.2499C10.0736 14.2499 9.89624 14.0725 9.89624 13.854V7.52048C9.89624 7.30197 10.0736 7.12463 10.2921 7.12463C10.5106 7.12463 10.6879 7.30197 10.6879 7.52048V13.854C10.6879 14.0725 10.5106 14.2499 10.2921 14.2499Z" fill="#7166F0"/>
</svg>
