<svg width="120" height="118" viewBox="0 0 120 118" fill="none" xmlns="http://www.w3.org/2000/svg">
<path d="M112.631 50.7867C112.163 37.429 106.753 24.938 97.2548 15.4396C87.2992 5.48203 74.0677 0 60 0C31.5872 0 8.37134 22.615 7.3706 50.7867C3.03473 52.7136 0 57.0533 0 62.0971V75.9926C0 82.816 5.55091 88.3688 12.3762 88.3688C16.7924 88.3688 20.384 84.7772 20.384 80.361V57.7268C20.384 53.5804 17.2038 50.1993 13.1607 49.7975C14.6532 25.2537 35.085 5.74035 60 5.74035C72.5369 5.74035 84.3257 10.6273 93.1983 19.5C101.346 27.6474 106.114 38.2671 106.832 49.7994C102.792 50.2051 99.618 53.5842 99.618 57.7268V80.3591C99.618 84.54 102.848 87.9421 106.939 88.2961V94.0154C106.939 100.456 101.698 105.695 95.2572 105.695H86.6065C86.1817 104.482 85.5158 103.361 84.5821 102.431C82.9461 100.787 80.7647 99.882 78.4418 99.882H69.5251C68.2451 99.882 67.0166 100.154 65.8915 100.678C62.8223 102.088 60.84 105.184 60.84 108.565C60.84 110.888 61.7451 113.069 63.3849 114.702C65.0247 116.345 67.206 117.25 69.5251 117.25H78.4418C82.1386 117.25 85.3972 114.86 86.6122 111.435H95.2572C104.865 111.435 112.679 103.621 112.679 94.0154V87.2743C116.988 85.336 120 81.0116 120 75.9888V62.0933C120 57.0533 116.965 52.7136 112.631 50.7867ZM14.6417 57.7268V80.3591C14.6417 81.6086 13.6257 82.6265 12.3743 82.6265C8.71576 82.6265 5.73843 79.6492 5.73843 75.9907V62.0952C5.73843 58.4348 8.71576 55.4594 12.3743 55.4594C13.6257 55.4594 14.6417 56.4773 14.6417 57.7268ZM81.3216 109.181C81.0365 110.532 79.8233 111.514 78.4399 111.514H69.5232C68.7387 111.514 68.002 111.208 67.4395 110.645C66.8846 110.092 66.5784 109.354 66.5784 108.569C66.5784 107.423 67.2501 106.376 68.3025 105.892C68.6775 105.716 69.0889 105.626 69.5232 105.626H78.4399C79.2244 105.626 79.9611 105.93 80.5217 106.493C81.0766 107.046 81.3828 107.785 81.3828 108.569C81.3847 108.78 81.3617 108.99 81.3216 109.181ZM114.26 75.9907C114.26 79.6492 111.282 82.6265 107.624 82.6265C106.374 82.6265 105.356 81.6105 105.356 80.3591V57.7268C105.356 56.4773 106.372 55.4594 107.624 55.4594C111.282 55.4594 114.26 58.4367 114.26 62.0952V75.9907Z" fill="white"/>
<path d="M78.5864 76.9798C85.2931 76.9798 90.7483 71.5227 90.7483 64.8179V40.0369C90.7483 36.7955 89.4816 33.7416 87.1817 31.4417C84.8817 29.1417 81.8297 27.875 78.5864 27.875H41.4158C34.7091 27.875 29.2539 33.3302 29.2539 40.0369V64.8179C29.2539 71.5246 34.7091 76.9798 41.4158 76.9798H41.6435V83.4014C41.6435 85.8506 43.1034 88.0242 45.3613 88.9408C46.0903 89.2335 46.8481 89.379 47.5981 89.379C49.1614 89.379 50.6845 88.759 51.8001 87.6052L62.4829 76.9798H78.5864ZM59.2778 72.0737L47.7168 83.5717C47.6651 83.6252 47.6268 83.6654 47.5178 83.6176C47.3857 83.564 47.3857 83.4779 47.3857 83.4014V74.1097C47.3857 72.5253 46.1018 71.2395 44.5156 71.2395H41.4177C37.8759 71.2395 34.9962 68.3578 34.9962 64.8179V40.0369C34.9962 36.4951 37.8759 33.6153 41.4177 33.6153H78.5884C80.299 33.6153 81.9082 34.2851 83.1251 35.5001C84.3421 36.717 85.0099 38.3282 85.0099 40.0369V64.8179C85.0099 68.3597 82.1282 71.2395 78.5884 71.2395H61.3023C60.5426 71.2395 59.8155 71.5399 59.2778 72.0737Z" fill="white"/>
<path d="M46.0548 48.6514C43.7204 48.6514 41.8203 50.5533 41.8203 52.8858C41.8203 55.2183 43.7223 57.1203 46.0548 57.1203C48.3911 57.1203 50.2931 55.2183 50.2931 52.8858C50.2931 50.5533 48.393 48.6514 46.0548 48.6514Z" fill="white"/>
<path d="M59.9962 48.6514C57.6618 48.6514 55.7617 50.5533 55.7617 52.8858C55.7617 55.2183 57.6637 57.1203 59.9962 57.1203C62.3344 57.1203 64.2345 55.2183 64.2345 52.8858C64.2345 50.5533 62.3344 48.6514 59.9962 48.6514Z" fill="white"/>
<path d="M73.9376 48.6514C71.6032 48.6514 69.7031 50.5533 69.7031 52.8858C69.7031 55.2183 71.6051 57.1203 73.9376 57.1203C76.2739 57.1203 78.1759 55.2183 78.1759 52.8858C78.1759 50.5533 76.2739 48.6514 73.9376 48.6514Z" fill="white"/>
</svg>
