<svg width="38" height="37" viewBox="0 0 38 37" fill="none" xmlns="http://www.w3.org/2000/svg">
<path d="M35.1325 16.1762C34.9888 12.082 33.3309 8.25359 30.4197 5.34237C27.3683 2.2904 23.3129 0.610168 19.0012 0.610168C10.2927 0.610168 3.17712 7.54162 2.8704 16.1762C1.54146 16.7667 0.611328 18.0968 0.611328 19.6428V23.9017C0.611328 25.993 2.31267 27.695 4.40459 27.695C5.75816 27.695 6.85896 26.5942 6.85896 25.2406V18.3033C6.85896 17.0324 5.88425 15.9961 4.64504 15.873C5.10249 8.35035 11.3648 2.36957 19.0012 2.36957C22.8437 2.36957 26.4569 3.8674 29.1763 6.58685C31.6735 9.08402 33.135 12.3389 33.3549 15.8735C32.1169 15.9979 31.1439 17.0336 31.1439 18.3033V25.24C31.1439 26.5214 32.1339 27.5642 33.3878 27.6727V29.4256C33.3878 31.3997 31.7814 33.0054 29.8074 33.0054H27.156C27.0258 32.6336 26.8217 32.2899 26.5355 32.0049C26.0341 31.5011 25.3655 31.2237 24.6535 31.2237H21.9206C21.5282 31.2237 21.1517 31.307 20.8069 31.4677C19.8662 31.8999 19.2586 32.8488 19.2586 33.8851C19.2586 34.5971 19.536 35.2656 20.0386 35.7659C20.5412 36.2697 21.2098 36.5471 21.9206 36.5471H24.6535C25.7866 36.5471 26.7853 35.8146 27.1577 34.7648H29.8074C32.752 34.7648 35.1472 32.3697 35.1472 29.4256V27.3595C36.4679 26.7654 37.391 25.44 37.391 23.9005V19.6416C37.391 18.0968 36.4608 16.7667 35.1325 16.1762ZM5.09897 18.3033V25.24C5.09897 25.623 4.78756 25.935 4.40401 25.935C3.28268 25.935 2.37014 25.0224 2.37014 23.9011V19.6422C2.37014 18.5203 3.28268 17.6083 4.40401 17.6083C4.78756 17.6083 5.09897 17.9203 5.09897 18.3033ZM25.5362 34.0739C25.4488 34.488 25.077 34.7888 24.6529 34.7888H21.92C21.6796 34.7888 21.4538 34.695 21.2813 34.5226C21.1113 34.3531 21.0174 34.1267 21.0174 33.8863C21.0174 33.535 21.2233 33.2142 21.5458 33.0658C21.6608 33.0119 21.7869 32.9843 21.92 32.9843H24.6529C24.8934 32.9843 25.1192 33.0775 25.291 33.25C25.4611 33.4194 25.5549 33.6458 25.5549 33.8863C25.5555 33.9508 25.5485 34.0153 25.5362 34.0739ZM35.6316 23.9011C35.6316 25.0224 34.719 25.935 33.5977 25.935C33.2148 25.935 32.9028 25.6236 32.9028 25.24V18.3033C32.9028 17.9203 33.2142 17.6083 33.5977 17.6083C34.719 17.6083 35.6316 18.5209 35.6316 19.6422V23.9011Z" fill="#7166F0"/>
<path d="M24.6965 24.2042C26.752 24.2042 28.424 22.5316 28.424 20.4766V12.8813C28.424 11.8878 28.0358 10.9518 27.3309 10.2469C26.6259 9.54196 25.6905 9.15372 24.6965 9.15372H13.3038C11.2482 9.15372 9.57617 10.8257 9.57617 12.8813V20.4766C9.57617 22.5322 11.2482 24.2042 13.3038 24.2042H13.3735V26.1724C13.3735 26.9231 13.821 27.5893 14.513 27.8702C14.7365 27.9599 14.9687 28.0045 15.1986 28.0045C15.6778 28.0045 16.1446 27.8145 16.4865 27.4609L19.7608 24.2042H24.6965ZM18.7784 22.7005L15.235 26.2246C15.2192 26.241 15.2074 26.2533 15.174 26.2387C15.1335 26.2222 15.1335 26.1958 15.1335 26.1724V23.3245C15.1335 22.8389 14.74 22.4448 14.2538 22.4448H13.3043C12.2188 22.4448 11.3362 21.5616 11.3362 20.4766V12.8813C11.3362 11.7957 12.2188 10.9131 13.3043 10.9131H24.697C25.2213 10.9131 25.7146 11.1184 26.0876 11.4908C26.4605 11.8638 26.6652 12.3576 26.6652 12.8813V20.4766C26.6652 21.5622 25.782 22.4448 24.697 22.4448H19.3989C19.1661 22.4448 18.9432 22.5369 18.7784 22.7005Z" fill="#7166F0"/>
<path d="M14.7275 15.5217C14.012 15.5217 13.4297 16.1047 13.4297 16.8196C13.4297 17.5345 14.0126 18.1174 14.7275 18.1174C15.4436 18.1174 16.0266 17.5345 16.0266 16.8196C16.0266 16.1047 15.4442 15.5217 14.7275 15.5217Z" fill="#7166F0"/>
<path d="M19.001 15.5217C18.2855 15.5217 17.7031 16.1047 17.7031 16.8196C17.7031 17.5345 18.2861 18.1174 19.001 18.1174C19.7176 18.1174 20.3 17.5345 20.3 16.8196C20.3 16.1047 19.7176 15.5217 19.001 15.5217Z" fill="#7166F0"/>
<path d="M23.2744 15.5217C22.5589 15.5217 21.9766 16.1047 21.9766 16.8196C21.9766 17.5345 22.5595 18.1174 23.2744 18.1174C23.9905 18.1174 24.5734 17.5345 24.5734 16.8196C24.5734 16.1047 23.9905 15.5217 23.2744 15.5217Z" fill="#7166F0"/>
</svg>
