<svg width="62" height="51" viewBox="0 0 62 51" fill="none" xmlns="http://www.w3.org/2000/svg">
<path d="M46.4023 12.3404C45.5208 8.81703 43.4875 5.68909 40.6252 3.45332C37.763 1.21755 34.2358 0.00211164 30.6038 2.74896e-06C26.9718 -0.00210615 23.4432 1.20924 20.5784 3.44168C17.7135 5.67413 15.6766 8.7997 14.791 12.3221C10.6139 12.7141 6.74834 14.7002 3.99728 17.8678C1.24621 21.0353 -0.178887 25.141 0.0179895 29.3318C0.214866 33.5227 2.01859 37.4766 5.05449 40.3723C8.09039 43.2681 12.1251 44.883 16.3206 44.8817H22.4389C22.9798 44.8817 23.4985 44.6668 23.881 44.2843C24.2635 43.9019 24.4783 43.3831 24.4783 42.8422C24.4783 42.3014 24.2635 41.7826 23.881 41.4001C23.4985 41.0177 22.9798 40.8028 22.4389 40.8028H16.3206C14.7137 40.8075 13.1215 40.4956 11.6351 39.885C10.1487 39.2744 8.79713 38.377 7.65754 37.244C5.35604 34.9559 4.05775 31.8472 4.04828 28.6019C4.03882 25.3565 5.31895 22.2403 7.60707 19.9388C9.89519 17.6373 13.0039 16.339 16.2492 16.3296C16.7725 16.369 17.2918 16.2126 17.7063 15.8908C18.1208 15.5689 18.401 15.1046 18.4926 14.5879C18.9079 11.6757 20.3599 9.0111 22.5819 7.08344C24.8039 5.15579 27.6468 4.09451 30.5885 4.09451C33.5301 4.09451 36.373 5.15579 38.5951 7.08344C40.8171 9.0111 42.2691 11.6757 42.6844 14.5879C42.7911 15.0867 43.0675 15.533 43.4666 15.8506C43.8657 16.1683 44.3627 16.3375 44.8727 16.3296C48.1181 16.3296 51.2305 17.6188 53.5253 19.9136C55.8201 22.2084 57.1093 25.3208 57.1093 28.5662C57.1093 31.8115 55.8201 34.924 53.5253 37.2188C51.2305 39.5136 48.1181 40.8028 44.8727 40.8028H38.7544C38.2135 40.8028 37.6948 41.0177 37.3123 41.4001C36.9298 41.7826 36.715 42.3014 36.715 42.8422C36.715 43.3831 36.9298 43.9019 37.3123 44.2843C37.6948 44.6668 38.2135 44.8817 38.7544 44.8817H44.8727C49.0375 44.8381 53.0279 43.2034 56.0263 40.3125C59.0246 37.4217 60.8039 33.4935 60.9995 29.3331C61.195 25.1727 59.7921 21.095 57.0781 17.9357C54.3641 14.7763 50.5446 12.7745 46.4023 12.3404Z" fill="black"/>
<path d="M39.3497 30.0081C39.7343 30.3796 40.2495 30.5852 40.7842 30.5806C41.319 30.5759 41.8305 30.3614 42.2086 29.9833C42.5867 29.6052 42.8012 29.0937 42.8059 28.5589C42.8105 28.0242 42.6049 27.509 42.2334 27.1244L32.0363 16.9272C31.6538 16.5449 31.1352 16.3301 30.5944 16.3301C30.0536 16.3301 29.5349 16.5449 29.1525 16.9272L18.9553 27.1244C18.5838 27.509 18.3782 28.0242 18.3829 28.5589C18.3875 29.0937 18.602 29.6052 18.9801 29.9833C19.3583 30.3614 19.8698 30.5759 20.4045 30.5806C20.9393 30.5852 21.4544 30.3796 21.8391 30.0081L28.5549 23.2923V48.9606C28.5549 49.5015 28.7698 50.0203 29.1523 50.4027C29.5347 50.7852 30.0535 51.0001 30.5944 51.0001C31.1353 51.0001 31.654 50.7852 32.0365 50.4027C32.4189 50.0203 32.6338 49.5015 32.6338 48.9606V23.2923L39.3497 30.0081Z" fill="black"/>
</svg>
