<svg width="440" height="407" viewBox="0 0 440 407" fill="none" xmlns="http://www.w3.org/2000/svg">
<path opacity="0.12" d="M1.62976 351.133V316.9L33.9366 298.259V334.909L64.026 352.275V316.268L95.7785 334.587L126.422 316.911V283.309C125.491 283.065 124.804 282.223 124.804 281.214C124.804 281.015 124.837 280.826 124.892 280.649L95.5124 263.693L95.2352 263.538V226.256L126.977 244.576L158.175 226.567L189.373 244.565L220.017 226.877V191.513L188.264 173.194L220.017 154.874V118.225L252.046 136.71L252.323 136.865V172.229L280.872 155.75C280.827 155.572 280.783 155.384 280.783 155.185C280.783 154.176 281.471 153.334 282.402 153.09V83.4921L251.481 65.6494L251.204 65.4942V28.2239L283.2 46.6983L283.477 46.8535V82.8604L314.121 100.548L344.199 83.1929L313.833 65.6715L313.556 65.5164V28.2239L345.585 46.6983L345.862 46.8535V118.225L374.411 101.745C374.366 101.568 374.322 101.379 374.322 101.18C374.322 100.171 375.009 99.3289 375.941 99.0851V64.8736L406.585 47.186L376.495 29.8198L375.941 30.1412V29.4984L375.386 29.177L375.941 28.8556V-7.14023L405.609 -24.2626C405.565 -24.44 405.52 -24.6284 405.52 -24.8278C405.52 -26.0247 406.496 -27 407.693 -27C408.891 -27 409.866 -26.0247 409.866 -24.8278C409.866 -23.8193 409.179 -22.9771 408.248 -22.7333V10.8577L440 29.1881L408.802 47.186L439.168 64.7073L439.446 64.8736V100.88L440 101.191L439.446 101.512V137.519L408.824 155.196L439.202 172.728L439.479 172.883V210.165L407.449 191.679L407.172 191.524V156.149L407.15 156.16V119.51L378.058 102.72C377.792 102.986 377.449 103.186 377.072 103.285V137.519L346.428 155.196L376.794 172.717L377.072 172.872V208.89L406.13 225.68C406.529 225.281 407.072 225.037 407.671 225.037C408.868 225.037 409.844 226.013 409.844 227.209C409.844 228.218 409.157 229.06 408.225 229.304V298.858L439.191 316.734L439.468 316.889V354.17L439.423 354.137V389.534L408.225 407.532V408.175L407.671 407.854L407.117 408.175V407.532L376.207 389.7L375.93 389.545V352.264L406.13 369.697C406.529 369.298 407.072 369.054 407.671 369.054C408.281 369.054 408.824 369.298 409.212 369.697L437.783 353.195L408.225 336.139V336.172L376.473 317.853L344.72 336.172V299.511L313.833 281.68L313.556 281.525V247.291C312.624 247.047 311.937 246.205 311.937 245.196C311.937 243.999 312.913 243.024 314.11 243.024C315.307 243.024 316.283 243.999 316.283 245.196C316.283 245.396 316.25 245.584 316.194 245.761L345.574 262.718L345.851 262.873V298.226L375.907 280.882V209.5L345.297 191.834L313.567 210.165V173.526L284.475 156.736C284.209 157.002 283.865 157.202 283.488 157.301V191.535L253.831 208.646C253.876 208.824 253.92 209.012 253.92 209.212C253.92 209.411 253.887 209.599 253.831 209.777L283.211 226.733L283.488 226.888V298.858L312.403 315.548C312.802 314.994 313.445 314.628 314.176 314.628C315.374 314.628 316.349 315.603 316.349 316.8C316.349 317.809 315.662 318.651 314.731 318.895V354.17L283.533 336.172V371.536L251.226 390.177V352.896L281.836 335.23L251.736 317.853L222.633 334.643C222.677 334.82 222.722 335.008 222.722 335.208C222.722 336.405 221.746 337.38 220.549 337.38C219.351 337.38 218.376 336.405 218.376 335.208C218.376 334.199 219.063 333.357 219.994 333.113V263.527L189.351 245.839L159.261 263.205L189.628 280.727L189.905 280.882V316.889L190.459 317.21L189.905 317.531V352.896L220.826 370.738L221.103 370.893V408.175L189.074 389.689L188.796 389.534V354.17L158.707 371.536V372.179L158.153 371.858L126.4 390.177V355.312C126.023 355.212 125.679 355.012 125.413 354.746L96.3106 371.547V408.186L65.1125 390.188V390.199L33.0829 371.714L32.8057 371.558V336.194L4.25732 352.674C4.30167 352.851 4.34601 353.04 4.34601 353.239C4.34601 354.436 3.37039 355.411 2.173 355.411C0.975647 355.411 0 354.436 0 353.239C0 352.22 0.698486 351.377 1.62976 351.133ZM344.754 47.5074L314.664 30.1412V64.8625L344.754 82.2287V47.5074ZM408.281 190.881L438.359 208.247V173.526L408.27 156.16V190.881H408.281ZM377.038 354.17V388.891L407.128 406.258V373.309C406.196 373.066 405.509 372.223 405.509 371.215C405.509 371.015 405.542 370.827 405.598 370.65L377.038 354.17ZM408.225 373.309V406.258L438.315 388.902V354.181L409.766 370.661C409.811 370.838 409.855 371.026 409.855 371.226C409.855 372.223 409.157 373.066 408.225 373.309ZM65.1236 352.896L95.202 370.262V335.54L65.1125 318.174V352.896H65.1236ZM127.509 351.133C127.886 351.233 128.229 351.422 128.495 351.699L157.033 335.23L127.498 318.185V351.133H127.509ZM157.598 298.902V264.181L129.05 280.66C129.094 280.837 129.138 281.026 129.138 281.225C129.138 282.234 128.451 283.076 127.52 283.32V316.268L157.598 298.902ZM127.509 279.12C127.886 279.219 128.229 279.419 128.495 279.685L157.033 263.216L127.498 246.172V279.12H127.509ZM158.153 299.855L128.063 317.221L141.733 325.112L158.153 334.587L188.242 317.221L174.572 309.33L158.153 299.855ZM157.598 336.183L129.05 352.663C129.094 352.84 129.138 353.029 129.138 353.228C129.138 353.428 129.105 353.616 129.05 353.793L157.598 370.273V336.183ZM96.3106 262.895L125.402 279.685C125.668 279.419 126.012 279.219 126.389 279.12V245.529L96.3106 228.174V262.895ZM251.17 207.117V174.169L221.081 191.535V226.256L249.629 209.777C249.585 209.599 249.541 209.411 249.541 209.212C249.552 208.203 250.239 207.361 251.17 207.117ZM251.17 211.306C250.793 211.206 250.45 211.007 250.184 210.741L221.646 227.209L251.17 244.254V211.306ZM220.538 190.56L250.627 173.194L235.871 164.682L220.538 155.838L190.448 173.205L220.538 190.56ZM251.17 137.519L221.081 120.153V154.874L251.17 172.24V137.519ZM282.369 47.5074L252.279 30.1412V64.8625L282.369 82.2287V47.5074ZM283.477 118.878L293.322 124.564L313.567 136.245V101.523L283.477 84.1571V118.878ZM314.675 172.24L329.72 163.563L344.765 154.885V120.164L329.72 128.842L314.675 137.519V172.24ZM344.754 84.1571L314.664 101.523V136.245L329.709 127.567L344.754 118.889V84.1571ZM377.061 99.0962C377.437 99.196 377.781 99.3844 378.047 99.6614L407.139 82.8715V48.1501L377.049 65.5164V99.0962H377.061ZM377.061 -6.49745V28.2239L407.139 10.8577V-22.7333C406.762 -22.833 406.418 -23.0214 406.152 -23.2985L377.061 -6.49745ZM407.693 11.8218L377.615 29.1881L407.139 46.2218L407.693 46.5432L408.248 46.2218L437.783 29.1881L407.693 11.8218ZM438.337 65.5053L408.248 48.1391V82.8604L438.337 100.238V65.5053ZM438.337 102.155L408.248 119.521V154.243L438.337 136.876V102.155ZM407.693 118.557L437.783 101.191L424.113 93.3001L407.693 83.8246L378.59 100.615C378.635 100.792 378.679 100.98 378.679 101.18C378.679 101.379 378.646 101.568 378.59 101.745L407.693 118.557ZM375.952 103.285C375.575 103.186 375.231 102.997 374.965 102.72L345.873 119.51V154.231L375.963 136.865V103.285H375.952ZM375.952 173.526L345.862 156.16V190.881L375.952 208.247V173.526ZM407.117 229.304C406.185 229.06 405.498 228.218 405.498 227.209C405.498 227.01 405.531 226.822 405.587 226.644L377.038 210.165V244.886L407.117 262.252V229.304ZM377.038 280.893L407.128 298.259V263.538L377.038 246.172V280.893ZM408.281 334.887L438.359 352.253V317.531L408.27 300.165V334.887H408.281ZM407.117 299.534L377.027 282.167V316.889L407.117 334.255V299.534ZM344.754 263.538L315.662 246.737C315.396 247.003 315.052 247.202 314.675 247.302V280.893L344.765 298.259V263.538H344.754ZM345.84 300.165V334.266L375.93 316.9V282.178L345.873 299.522V300.176L345.84 300.165ZM314.675 208.247L344.754 190.881V156.16L329.709 164.837L314.664 173.515V208.247H314.675ZM313.567 172.24V137.519L296.371 127.6L283.477 120.164V153.112C284.409 153.356 285.096 154.198 285.096 155.207C285.096 155.406 285.063 155.595 285.007 155.772L313.567 172.24ZM282.369 190.881V157.29C281.992 157.19 281.648 157.002 281.382 156.725L252.29 173.515V207.106C252.667 207.206 253.011 207.394 253.277 207.671L282.369 190.881ZM282.369 227.531L253.277 210.741C253.011 211.007 252.667 211.206 252.29 211.306V244.897L252.845 245.218L282.369 262.252V227.531ZM282.369 299.534L252.279 282.167V316.889L282.369 334.255V299.534ZM252.279 280.893L282.369 298.259V263.538L252.279 246.172V280.893ZM313.611 352.253V318.906C312.68 318.662 311.992 317.82 311.992 316.811C311.992 316.745 312.003 316.678 312.015 316.612L283.533 300.176V334.898L313.611 352.253ZM252.335 388.26L282.424 370.893V336.172L252.335 353.538V388.26ZM221.092 333.125C221.469 333.224 221.813 333.413 222.079 333.69L251.17 316.9V282.178L221.081 299.545V333.125H221.092ZM251.17 280.893V246.172L221.081 263.538V298.259L251.17 280.893ZM220.538 262.574L250.627 245.207L220.549 227.841L219.994 228.163L190.459 245.207L220.538 262.574ZM158.153 227.841L128.063 245.207L157.598 262.252L158.153 262.574L158.707 262.252L188.242 245.207L158.153 227.841ZM188.785 281.536L158.696 264.169V298.891L188.785 316.257V281.536ZM189.894 388.914L219.983 406.28V371.558L189.894 354.192V388.914ZM188.785 352.907V318.185L158.696 335.552V370.273L188.785 352.907ZM157.044 371.226L128.507 354.757C128.241 355.023 127.897 355.223 127.52 355.323V388.271L157.044 371.226ZM126.4 351.133V318.185L96.3106 335.54V370.262L124.859 353.782C124.815 353.605 124.77 353.416 124.77 353.217C124.781 352.22 125.469 351.377 126.4 351.133ZM95.202 406.258V371.547L65.1125 354.181V388.902L95.202 406.258ZM33.9255 370.905L64.0149 388.271V353.549L33.9255 336.183V370.905ZM32.8168 334.898V300.176L2.72736 317.543V351.133C3.10431 351.233 3.448 351.422 3.71408 351.699L32.8168 334.898Z" fill="white"/>
</svg>
