<svg width="440" height="436" viewBox="0 0 440 436" fill="none" xmlns="http://www.w3.org/2000/svg">
<g opacity="0.2">
<path d="M1.62976 378.133V343.9L33.9366 325.259V361.909L64.026 379.275V343.268L95.7785 361.587L126.422 343.911V310.309C125.491 310.065 124.804 309.223 124.804 308.214C124.804 308.015 124.837 307.826 124.892 307.649L95.5124 290.693L95.2352 290.538V253.256L126.977 271.576L158.175 253.567L189.373 271.565L220.017 253.877V218.513L188.264 200.194L220.017 181.874V145.225L252.046 163.71L252.323 163.865V199.229L280.872 182.75C280.827 182.572 280.783 182.384 280.783 182.185C280.783 181.176 281.471 180.334 282.402 180.09V110.492L251.481 92.6494L251.204 92.4942V55.2239L283.2 73.6983L283.477 73.8535V109.86L314.121 127.548L344.199 110.193L313.833 92.6715L313.556 92.5164V55.2239L345.585 73.6983L345.862 73.8535V145.225L374.411 128.745C374.366 128.568 374.322 128.379 374.322 128.18C374.322 127.171 375.009 126.329 375.941 126.085V91.8736L406.585 74.186L376.495 56.8198L375.941 57.1412V56.4984L375.386 56.177L375.941 55.8556V19.8598L405.609 2.73737C405.565 2.56005 405.52 2.37165 405.52 2.17216C405.52 0.975256 406.496 0 407.693 0C408.891 0 409.866 0.975256 409.866 2.17216C409.866 3.18067 409.179 4.02293 408.248 4.26675V37.8577L440 56.1881L408.802 74.186L439.168 91.7073L439.446 91.8736V127.88L440 128.191L439.446 128.512V164.519L408.824 182.196L439.202 199.728L439.479 199.883V237.165L407.449 218.679L407.172 218.524V183.149L407.15 183.16V146.51L378.058 129.72C377.792 129.986 377.449 130.186 377.072 130.285V164.519L346.428 182.196L376.794 199.717L377.072 199.872V235.89L406.13 252.68C406.529 252.281 407.072 252.037 407.671 252.037C408.868 252.037 409.844 253.013 409.844 254.209C409.844 255.218 409.157 256.06 408.225 256.304V325.858L439.191 343.734L439.468 343.889V381.17L439.423 381.137V416.534L408.225 434.532V435.175L407.671 434.854L407.117 435.175V434.532L376.207 416.7L375.93 416.545V379.264L406.13 396.697C406.529 396.298 407.072 396.054 407.671 396.054C408.281 396.054 408.824 396.298 409.212 396.697L437.783 380.195L408.225 363.139V363.172L376.473 344.853L344.72 363.172V326.511L313.833 308.68L313.556 308.525V274.291C312.624 274.047 311.937 273.205 311.937 272.196C311.937 270.999 312.913 270.024 314.11 270.024C315.307 270.024 316.283 270.999 316.283 272.196C316.283 272.396 316.25 272.584 316.194 272.761L345.574 289.718L345.851 289.873V325.226L375.907 307.882V236.5L345.297 218.834L313.567 237.165V200.526L284.475 183.736C284.209 184.002 283.865 184.202 283.488 184.301V218.535L253.831 235.646C253.876 235.824 253.92 236.012 253.92 236.212C253.92 236.411 253.887 236.599 253.831 236.777L283.211 253.733L283.488 253.888V325.858L312.403 342.548C312.802 341.994 313.445 341.628 314.176 341.628C315.374 341.628 316.349 342.603 316.349 343.8C316.349 344.809 315.662 345.651 314.731 345.895V381.17L283.533 363.172V398.536L251.226 417.177V379.896L281.836 362.23L251.736 344.853L222.633 361.643C222.677 361.82 222.722 362.008 222.722 362.208C222.722 363.405 221.746 364.38 220.549 364.38C219.351 364.38 218.376 363.405 218.376 362.208C218.376 361.199 219.063 360.357 219.994 360.113V290.527L189.351 272.839L159.261 290.205L189.628 307.727L189.905 307.882V343.889L190.459 344.21L189.905 344.531V379.896L220.826 397.738L221.103 397.893V435.175L189.074 416.689L188.796 416.534V381.17L158.707 398.536V399.179L158.153 398.858L126.4 417.177V382.312C126.023 382.212 125.679 382.012 125.413 381.746L96.3106 398.547V435.186L65.1125 417.188V417.199L33.0829 398.714L32.8057 398.558V363.194L4.25732 379.674C4.30167 379.851 4.34601 380.04 4.34601 380.239C4.34601 381.436 3.37039 382.411 2.173 382.411C0.975647 382.411 0 381.436 0 380.239C0 379.22 0.698486 378.377 1.62976 378.133ZM344.754 74.5074L314.664 57.1412V91.8625L344.754 109.229V74.5074ZM408.281 217.881L438.359 235.247V200.526L408.27 183.16V217.881H408.281ZM377.038 381.17V415.891L407.128 433.258V400.309C406.196 400.066 405.509 399.223 405.509 398.215C405.509 398.015 405.542 397.827 405.598 397.65L377.038 381.17ZM408.225 400.309V433.258L438.315 415.902V381.181L409.766 397.661C409.811 397.838 409.855 398.026 409.855 398.226C409.855 399.223 409.157 400.066 408.225 400.309ZM65.1236 379.896L95.202 397.262V362.54L65.1125 345.174V379.896H65.1236ZM127.509 378.133C127.886 378.233 128.229 378.422 128.495 378.699L157.033 362.23L127.498 345.185V378.133H127.509ZM157.598 325.902V291.181L129.05 307.66C129.094 307.837 129.138 308.026 129.138 308.225C129.138 309.234 128.451 310.076 127.52 310.32V343.268L157.598 325.902ZM127.509 306.12C127.886 306.219 128.229 306.419 128.495 306.685L157.033 290.216L127.498 273.172V306.12H127.509ZM158.153 326.855L128.063 344.221L141.733 352.112L158.153 361.587L188.242 344.221L174.572 336.33L158.153 326.855ZM157.598 363.183L129.05 379.663C129.094 379.84 129.138 380.029 129.138 380.228C129.138 380.428 129.105 380.616 129.05 380.793L157.598 397.273V363.183ZM96.3106 289.895L125.402 306.685C125.668 306.419 126.012 306.219 126.389 306.12V272.529L96.3106 255.174V289.895ZM251.17 234.117V201.169L221.081 218.535V253.256L249.629 236.777C249.585 236.599 249.541 236.411 249.541 236.212C249.552 235.203 250.239 234.361 251.17 234.117ZM251.17 238.306C250.793 238.206 250.45 238.007 250.184 237.741L221.646 254.209L251.17 271.254V238.306ZM220.538 217.56L250.627 200.194L235.871 191.682L220.538 182.838L190.448 200.205L220.538 217.56ZM251.17 164.519L221.081 147.153V181.874L251.17 199.24V164.519ZM282.369 74.5074L252.279 57.1412V91.8625L282.369 109.229V74.5074ZM283.477 145.878L293.322 151.564L313.567 163.245V128.523L283.477 111.157V145.878ZM314.675 199.24L329.72 190.563L344.765 181.885V147.164L329.72 155.842L314.675 164.519V199.24ZM344.754 111.157L314.664 128.523V163.245L329.709 154.567L344.754 145.889V111.157ZM377.061 126.096C377.437 126.196 377.781 126.384 378.047 126.661L407.139 109.871V75.1501L377.049 92.5164V126.096H377.061ZM377.061 20.5025V55.2239L407.139 37.8577V4.26675C406.762 4.167 406.418 3.9786 406.152 3.70154L377.061 20.5025ZM407.693 38.8218L377.615 56.1881L407.139 73.2218L407.693 73.5432L408.248 73.2218L437.783 56.1881L407.693 38.8218ZM438.337 92.5053L408.248 75.1391V109.86L438.337 127.238V92.5053ZM438.337 129.155L408.248 146.521V181.243L438.337 163.876V129.155ZM407.693 145.557L437.783 128.191L424.113 120.3L407.693 110.825L378.59 127.615C378.635 127.792 378.679 127.98 378.679 128.18C378.679 128.379 378.646 128.568 378.59 128.745L407.693 145.557ZM375.952 130.285C375.575 130.186 375.231 129.997 374.965 129.72L345.873 146.51V181.231L375.963 163.865V130.285H375.952ZM375.952 200.526L345.862 183.16V217.881L375.952 235.247V200.526ZM407.117 256.304C406.185 256.06 405.498 255.218 405.498 254.209C405.498 254.01 405.531 253.822 405.587 253.644L377.038 237.165V271.886L407.117 289.252V256.304ZM377.038 307.893L407.128 325.259V290.538L377.038 273.172V307.893ZM408.281 361.887L438.359 379.253V344.531L408.27 327.165V361.887H408.281ZM407.117 326.534L377.027 309.167V343.889L407.117 361.255V326.534ZM344.754 290.538L315.662 273.737C315.396 274.003 315.052 274.202 314.675 274.302V307.893L344.765 325.259V290.538H344.754ZM345.84 327.165V361.266L375.93 343.9V309.178L345.873 326.522V327.176L345.84 327.165ZM314.675 235.247L344.754 217.881V183.16L329.709 191.837L314.664 200.515V235.247H314.675ZM313.567 199.24V164.519L296.371 154.6L283.477 147.164V180.112C284.409 180.356 285.096 181.198 285.096 182.207C285.096 182.406 285.063 182.595 285.007 182.772L313.567 199.24ZM282.369 217.881V184.29C281.992 184.19 281.648 184.002 281.382 183.725L252.29 200.515V234.106C252.667 234.206 253.011 234.394 253.277 234.671L282.369 217.881ZM282.369 254.531L253.277 237.741C253.011 238.007 252.667 238.206 252.29 238.306V271.897L252.845 272.218L282.369 289.252V254.531ZM282.369 326.534L252.279 309.167V343.889L282.369 361.255V326.534ZM252.279 307.893L282.369 325.259V290.538L252.279 273.172V307.893ZM313.611 379.253V345.906C312.68 345.662 311.992 344.82 311.992 343.811C311.992 343.745 312.003 343.678 312.015 343.612L283.533 327.176V361.898L313.611 379.253ZM252.335 415.26L282.424 397.893V363.172L252.335 380.538V415.26ZM221.092 360.125C221.469 360.224 221.813 360.413 222.079 360.69L251.17 343.9V309.178L221.081 326.545V360.125H221.092ZM251.17 307.893V273.172L221.081 290.538V325.259L251.17 307.893ZM220.538 289.574L250.627 272.207L220.549 254.841L219.994 255.163L190.459 272.207L220.538 289.574ZM158.153 254.841L128.063 272.207L157.598 289.252L158.153 289.574L158.707 289.252L188.242 272.207L158.153 254.841ZM188.785 308.536L158.696 291.169V325.891L188.785 343.257V308.536ZM189.894 415.914L219.983 433.28V398.558L189.894 381.192V415.914ZM188.785 379.907V345.185L158.696 362.552V397.273L188.785 379.907ZM157.044 398.226L128.507 381.757C128.241 382.023 127.897 382.223 127.52 382.323V415.271L157.044 398.226ZM126.4 378.133V345.185L96.3106 362.54V397.262L124.859 380.782C124.815 380.605 124.77 380.416 124.77 380.217C124.781 379.22 125.469 378.377 126.4 378.133ZM95.202 433.258V398.547L65.1125 381.181V415.902L95.202 433.258ZM33.9255 397.905L64.0149 415.271V380.549L33.9255 363.183V397.905ZM32.8168 361.898V327.176L2.72736 344.543V378.133C3.10431 378.233 3.448 378.422 3.71408 378.699L32.8168 361.898Z" fill="white"/>
</g>
</svg>
