<svg width="457" height="407" viewBox="0 0 457 407" fill="none" xmlns="http://www.w3.org/2000/svg">
<path opacity="0.12" d="M455.307 348.743V313.187L421.752 293.826V331.892L390.5 349.929V312.531L357.521 331.558L325.693 313.198V278.298C326.661 278.045 327.374 277.17 327.374 276.123C327.374 275.915 327.34 275.72 327.282 275.536L357.797 257.924L358.085 257.763V219.041L325.117 238.068L292.714 219.364L260.31 238.057L228.483 219.686V182.955L261.462 163.928L228.483 144.901V106.835L195.216 126.035L194.928 126.196V162.927L165.276 145.811C165.322 145.626 165.368 145.431 165.368 145.223C165.368 144.176 164.654 143.301 163.687 143.048V70.7611L195.803 52.229L196.091 52.0678V13.3575L162.858 32.5458L162.57 32.7069V70.105L130.743 88.476L99.502 70.4503L131.042 52.252L131.33 52.0909V13.3575L98.0626 32.5458L97.7748 32.7069V106.835L68.1234 89.7192C68.1694 89.535 68.2155 89.3393 68.2155 89.1321C68.2155 88.0847 67.5015 87.2098 66.5343 86.9566V51.4232L34.7065 33.0523L65.9585 15.0151L66.5343 15.3489V14.6813L67.11 14.3475L66.5343 14.0137V-23.3729L35.7199 -41.1569C35.7659 -41.341 35.812 -41.5367 35.812 -41.7439C35.812 -42.9871 34.7986 -44 33.555 -44C32.3114 -44 31.2981 -42.9871 31.2981 -41.7439C31.2981 -40.6964 32.012 -39.8216 32.9793 -39.5684V-4.67964L0 14.359L32.4035 33.0523L0.863633 51.2506L0.575755 51.4232V88.8213L0 89.1436L0.575755 89.4774V126.876L32.3805 145.235L0.829088 163.445L0.54121 163.606V202.328L33.8084 183.128L34.0962 182.967V146.225L34.1193 146.236V108.171L64.3349 90.7321C64.6113 91.0084 64.9682 91.2155 65.3597 91.3191V126.876L97.1875 145.235L65.6476 163.433L65.3597 163.594V201.004L35.1786 218.443C34.7641 218.028 34.1999 217.775 33.578 217.775C32.3344 217.775 31.3211 218.788 31.3211 220.031C31.3211 221.079 32.035 221.953 33.0023 222.207V294.448L0.840603 313.014L0.552725 313.175V351.897L0.598785 351.863V388.628L33.0023 407.321V407.989L33.578 407.655L34.1538 407.989V407.321L66.2579 388.8L66.5458 388.639V349.917L35.1786 368.024C34.7641 367.609 34.1999 367.356 33.578 367.356C32.9447 367.356 32.3805 367.609 31.9774 368.024L2.30302 350.884L33.0023 333.169V333.204L65.9816 314.177L98.9608 333.204V295.127L131.042 276.606L131.33 276.445V240.888C132.297 240.635 133.011 239.76 133.011 238.713C133.011 237.47 131.998 236.457 130.754 236.457C129.51 236.457 128.497 237.47 128.497 238.713C128.497 238.92 128.532 239.116 128.589 239.3L98.0742 256.911L97.7863 257.072V293.791L66.5688 275.777V201.637L98.362 183.289L131.318 202.328V164.274L161.534 146.835C161.81 147.111 162.167 147.318 162.559 147.422V182.978L193.362 200.751C193.316 200.935 193.27 201.131 193.27 201.338C193.27 201.545 193.304 201.741 193.362 201.925L162.847 219.536L162.559 219.697V294.448L132.527 311.783C132.113 311.207 131.445 310.827 130.685 310.827C129.441 310.827 128.428 311.84 128.428 313.083C128.428 314.131 129.142 315.005 130.109 315.259V351.897L162.513 333.204V369.934L196.068 389.295V350.573L164.275 332.225L195.538 314.177L225.765 331.615C225.719 331.8 225.673 331.995 225.673 332.202C225.673 333.446 226.686 334.459 227.93 334.459C229.174 334.459 230.187 333.446 230.187 332.202C230.187 331.155 229.473 330.28 228.506 330.027V257.752L260.334 239.381L291.586 257.418L260.046 275.616L259.758 275.777V313.175L259.182 313.509L259.758 313.843V350.573L227.642 369.106L227.354 369.267V407.989L260.621 388.789L260.909 388.628V351.897L292.161 369.934V370.602L292.737 370.268L325.716 389.295V353.083C326.108 352.979 326.465 352.772 326.741 352.496L356.968 369.946V408L389.372 389.307V389.318L422.639 370.118L422.927 369.957V333.227L452.578 350.343C452.532 350.527 452.486 350.723 452.486 350.93C452.486 352.173 453.499 353.186 454.743 353.186C455.987 353.186 457 352.173 457 350.93C457 349.871 456.275 348.996 455.307 348.743ZM98.9263 33.3861L130.178 15.3489V51.4117L98.9263 69.4489V33.3861ZM32.9447 182.299L1.70424 200.336V164.274L32.9562 146.236V182.299H32.9447ZM65.3943 351.897V387.96L34.1423 405.997V371.776C35.1096 371.523 35.8235 370.648 35.8235 369.601C35.8235 369.393 35.789 369.198 35.7314 369.013L65.3943 351.897ZM33.0023 371.776V405.997L1.7503 387.971V351.909L31.4017 369.025C31.3556 369.209 31.3096 369.405 31.3096 369.612C31.3096 370.648 32.035 371.523 33.0023 371.776ZM389.36 350.573L358.12 368.611V332.548L389.372 314.511V350.573H389.36ZM324.565 348.743C324.173 348.847 323.816 349.042 323.54 349.33L293.9 332.225L324.576 314.522V348.743H324.565ZM293.313 294.494V258.431L322.964 275.547C322.918 275.731 322.872 275.927 322.872 276.134C322.872 277.182 323.586 278.056 324.553 278.31V312.531L293.313 294.494ZM324.565 273.947C324.173 274.051 323.816 274.258 323.54 274.534L293.9 257.429L324.576 239.726V273.947H324.565ZM292.737 295.483L323.989 313.521L309.791 321.716L292.737 331.558L261.485 313.521L275.683 305.325L292.737 295.483ZM293.313 333.215L322.964 350.332C322.918 350.516 322.872 350.712 322.872 350.919C322.872 351.126 322.907 351.322 322.964 351.506L293.313 368.622V333.215ZM356.968 257.095L326.753 274.534C326.476 274.258 326.119 274.051 325.728 273.947V239.058L356.968 221.033V257.095ZM196.125 199.162V164.941L227.377 182.978V219.041L197.726 201.925C197.772 201.741 197.818 201.545 197.818 201.338C197.806 200.29 197.093 199.416 196.125 199.162ZM196.125 203.513C196.517 203.41 196.874 203.203 197.15 202.926L226.79 220.031L196.125 237.735V203.513ZM227.942 181.965L196.69 163.928L212.016 155.088L227.942 145.903L259.194 163.94L227.942 181.965ZM196.125 126.876L227.377 108.838V144.901L196.125 162.938V126.876ZM163.722 33.3861L194.974 15.3489V51.4117L163.722 69.4489V33.3861ZM162.57 107.515L152.345 113.42L131.318 125.552V89.489L162.57 71.4518V107.515ZM130.167 162.938L114.541 153.926L98.9148 144.913V108.85L114.541 117.863L130.167 126.876V162.938ZM98.9263 71.4518L130.178 89.489V125.552L114.552 116.539L98.9263 107.526V71.4518ZM65.3713 86.9681C64.9797 87.0717 64.6228 87.2674 64.3464 87.5552L34.1308 70.1165V34.0537L65.3828 52.0909V86.9681H65.3713ZM65.3713 -22.7053V13.3575L34.1308 -4.67964V-39.5684C34.5223 -39.672 34.8793 -39.8677 35.1556 -40.1554L65.3713 -22.7053ZM33.555 -3.67821L64.7955 14.359L34.1308 32.0508L33.555 32.3846L32.9793 32.0508L2.30302 14.359L33.555 -3.67821ZM1.72727 52.0794L32.9793 34.0422V70.105L1.72727 88.1537V52.0794ZM1.72727 90.1451L32.9793 108.182V144.245L1.72727 126.208V90.1451ZM33.555 107.181L2.30302 89.1436L16.5011 80.9481L33.555 71.1065L63.7822 88.5451C63.7361 88.7292 63.6901 88.9249 63.6901 89.1321C63.6901 89.3393 63.7246 89.535 63.7822 89.7192L33.555 107.181ZM66.5228 91.3191C66.9143 91.2155 67.2712 91.0199 67.5476 90.7321L97.7633 108.171V144.234L66.5113 126.196V91.3191H66.5228ZM66.5228 164.274L97.7748 146.236V182.299L66.5228 200.336V164.274ZM34.1538 222.207C35.1211 221.953 35.835 221.079 35.835 220.031C35.835 219.824 35.8005 219.628 35.7429 219.444L65.3943 202.328V238.391L34.1538 256.428V222.207ZM65.3943 275.789L34.1423 293.826V257.763L65.3943 239.726V275.789ZM32.9447 331.869L1.70424 349.906V313.843L32.9562 295.806V331.869H32.9447ZM34.1538 295.15L65.4058 277.112V313.175L34.1538 331.212V295.15ZM98.9263 257.763L129.142 240.313C129.418 240.589 129.775 240.796 130.167 240.9V275.789L98.9148 293.826V257.763H98.9263ZM97.7978 295.806V331.224L66.5458 313.187V277.124L97.7633 295.138V295.817L97.7978 295.806ZM130.167 200.336L98.9263 182.299V146.236L114.552 155.249L130.178 164.262V200.336H130.167ZM131.318 162.938V126.876L149.178 116.574L162.57 108.85V143.071C161.603 143.324 160.889 144.199 160.889 145.247C160.889 145.454 160.924 145.649 160.981 145.834L131.318 162.938ZM163.722 182.299V147.411C164.113 147.307 164.47 147.111 164.747 146.823L194.962 164.262V199.151C194.571 199.254 194.214 199.45 193.937 199.738L163.722 182.299ZM163.722 220.365L193.937 202.926C194.214 203.203 194.571 203.41 194.962 203.513V238.402L194.387 238.736L163.722 256.428V220.365ZM163.722 295.15L194.974 277.112V313.175L163.722 331.212V295.15ZM194.974 275.789L163.722 293.826V257.763L194.974 239.726V275.789ZM131.272 349.906V315.27C132.239 315.017 132.953 314.142 132.953 313.095C132.953 313.026 132.942 312.957 132.93 312.888L162.513 295.817V331.88L131.272 349.906ZM194.916 387.304L163.664 369.267V333.204L194.916 351.241V387.304ZM227.366 330.038C226.974 330.142 226.617 330.338 226.341 330.625L196.125 313.187V277.124L227.377 295.161V330.038H227.366ZM196.125 275.789V239.726L227.377 257.763V293.826L196.125 275.789ZM227.942 256.762L196.69 238.724L227.93 220.687L228.506 221.021L259.182 238.724L227.942 256.762ZM292.737 220.687L323.989 238.724L293.313 256.428L292.737 256.762L292.161 256.428L261.485 238.724L292.737 220.687ZM260.921 276.456L292.173 258.419V294.482L260.921 312.519V276.456ZM259.769 387.983L228.517 406.02V369.957L259.769 351.92V387.983ZM260.921 350.585V314.522L292.173 332.559V368.622L260.921 350.585ZM293.889 369.612L323.528 352.507C323.805 352.783 324.162 352.991 324.553 353.094V387.315L293.889 369.612ZM325.716 348.743V314.522L356.968 332.548V368.611L327.317 351.494C327.363 351.31 327.409 351.114 327.409 350.907C327.397 349.871 326.684 348.996 325.716 348.743ZM358.12 405.997V369.946L389.372 351.909V387.971L358.12 405.997ZM421.764 369.278L390.512 387.315V351.253L421.764 333.215V369.278ZM422.915 331.88V295.817L454.167 313.854V348.743C453.776 348.847 453.419 349.042 453.142 349.33L422.915 331.88Z" fill="white"/>
</svg>
