<svg width="561" height="480" viewBox="0 0 561 480" fill="none" xmlns="http://www.w3.org/2000/svg">
<rect width="561" height="469" fill="#111111"/>
<g opacity="0.2">
<path d="M71.7964 416.806V379.071L107.407 358.524V398.922L140.574 418.064V378.375L175.574 398.568L209.352 379.084V342.045C208.325 341.776 207.568 340.848 207.568 339.736C207.568 339.516 207.604 339.309 207.665 339.113L175.281 320.423L174.975 320.252V279.158L209.963 299.35L244.352 279.5L278.741 299.338L312.518 279.842V240.861L277.518 220.668L312.518 200.475V160.077L347.824 180.453L348.129 180.624V219.605L379.597 201.44C379.548 201.245 379.5 201.037 379.5 200.817C379.5 199.705 380.257 198.777 381.284 198.508V121.792L347.2 102.125L346.895 101.954V60.8718L382.164 81.2357L382.469 81.4067V121.096L416.247 140.593L449.402 121.463L415.929 102.149L415.624 101.978V60.8718L450.929 81.2357L451.235 81.4067V160.077L482.703 141.912C482.654 141.717 482.605 141.509 482.605 141.289C482.605 140.177 483.363 139.249 484.389 138.98V101.27L518.167 81.7732L485 62.6309L484.389 62.9851V62.2766L483.778 61.9224L484.389 61.5681V21.8909L517.092 3.01733C517.043 2.82187 516.994 2.6142 516.994 2.39432C516.994 1.075 518.069 0 519.389 0C520.709 0 521.784 1.075 521.784 2.39432C521.784 3.50596 521.027 4.43437 520 4.70312V41.7295L555 61.9346L520.611 81.7732L554.083 101.087L554.389 101.27V140.959L555 141.301L554.389 141.655V181.345L520.636 200.829L554.12 220.155L554.426 220.326V261.42L519.12 241.044L518.815 240.873V201.88L518.79 201.892V161.494L486.723 142.987C486.43 143.28 486.051 143.5 485.636 143.61V181.345L451.858 200.829L485.33 220.143L485.636 220.314V260.015L517.666 278.522C518.106 278.083 518.705 277.814 519.365 277.814C520.684 277.814 521.76 278.889 521.76 280.208C521.76 281.32 521.002 282.248 519.976 282.517V359.184L554.108 378.888L554.413 379.059V420.153L554.365 420.117V459.134L519.976 478.973V479.681L519.365 479.327L518.754 479.681V478.973L484.683 459.318L484.377 459.147V418.052L517.666 437.268C518.106 436.828 518.705 436.559 519.365 436.559C520.037 436.559 520.636 436.828 521.063 437.268L552.556 419.078L519.976 400.278V400.315L484.976 380.122L449.976 400.315V359.905L415.929 340.249L415.624 340.078V302.343C414.597 302.075 413.84 301.146 413.84 300.035C413.84 298.715 414.915 297.64 416.235 297.64C417.555 297.64 418.63 298.715 418.63 300.035C418.63 300.254 418.593 300.462 418.532 300.658L450.917 319.348L451.222 319.519V358.488L484.353 339.37V260.687L450.611 241.215L415.636 261.42V221.034L383.569 202.527C383.276 202.82 382.897 203.04 382.481 203.15V240.885L349.791 259.747C349.84 259.942 349.889 260.15 349.889 260.37C349.889 260.589 349.852 260.797 349.791 260.993L382.176 279.683L382.481 279.854V359.184L414.353 377.581C414.793 376.97 415.502 376.567 416.308 376.567C417.628 376.567 418.703 377.642 418.703 378.961C418.703 380.073 417.946 381.001 416.919 381.27V420.153L382.53 400.315V439.296L346.919 459.843V418.749L380.661 399.276L347.482 380.122L315.402 398.629C315.451 398.824 315.5 399.032 315.5 399.252C315.5 400.571 314.425 401.646 313.105 401.646C311.785 401.646 310.71 400.571 310.71 399.252C310.71 398.14 311.467 397.212 312.494 396.943V320.24L278.716 300.743L245.549 319.885L279.022 339.199L279.327 339.37V379.059L279.938 379.413L279.327 379.768V418.749L313.41 438.416L313.716 438.587V479.681L278.411 459.305L278.105 459.134V420.153L244.938 439.296V440.004L244.327 439.65L209.327 459.843V421.412C208.912 421.302 208.533 421.082 208.24 420.789L176.161 439.308V479.694L141.772 459.855V459.867L106.466 439.491L106.161 439.32V400.339L74.6927 418.504C74.7416 418.7 74.7904 418.907 74.7904 419.127C74.7904 420.447 73.715 421.522 72.3952 421.522C71.0754 421.522 70 420.447 70 419.127C70 418.003 70.7699 417.075 71.7964 416.806ZM450.013 82.1274L416.846 62.9851V101.258L450.013 120.4V82.1274ZM520.037 240.164L553.191 259.307V221.034L520.025 201.892V240.164H520.037ZM485.599 420.153V458.426L518.766 477.568V441.25C517.739 440.981 516.982 440.053 516.982 438.941C516.982 438.722 517.018 438.514 517.079 438.318L485.599 420.153ZM519.976 441.25V477.568L553.142 458.438V420.166L521.674 438.331C521.723 438.526 521.772 438.734 521.772 438.954C521.772 440.053 521.002 440.981 519.976 441.25ZM141.784 418.749L174.939 437.891V399.618L141.772 380.476V418.749H141.784ZM210.549 416.806C210.965 416.916 211.344 417.124 211.637 417.429L243.093 399.276L210.537 380.488V416.806H210.549ZM243.716 359.233V320.96L212.248 339.125C212.297 339.321 212.346 339.529 212.346 339.748C212.346 340.86 211.588 341.788 210.562 342.057V378.375L243.716 359.233ZM210.549 337.427C210.965 337.537 211.344 337.757 211.637 338.05L243.093 319.898L210.537 301.11V337.427H210.549ZM244.327 360.283L211.16 379.426L226.228 388.123L244.327 398.568L277.494 379.426L262.426 370.728L244.327 360.283ZM243.716 400.327L212.248 418.492C212.297 418.687 212.346 418.895 212.346 419.115C212.346 419.335 212.309 419.543 212.248 419.738L243.716 437.903V400.327ZM176.161 319.543L208.227 338.05C208.521 337.757 208.9 337.537 209.315 337.427V300.401L176.161 281.271V319.543ZM346.858 258.061V221.743L313.691 240.885V279.158L345.16 260.993C345.111 260.797 345.062 260.589 345.062 260.37C345.074 259.258 345.832 258.329 346.858 258.061ZM346.858 262.678C346.443 262.568 346.064 262.349 345.771 262.055L314.315 280.208L346.858 298.996V262.678ZM313.093 239.81L346.259 220.668L329.994 211.286L313.093 201.538L279.926 220.68L313.093 239.81ZM346.858 181.345L313.691 162.203V200.475L346.858 219.617V181.345ZM381.247 82.1274L348.08 62.9851V101.258L381.247 120.4V82.1274ZM382.469 160.798L393.321 167.065L415.636 179.94V141.668L382.469 122.525V160.798ZM416.858 219.617L433.441 210.052L450.025 200.487V162.215L433.441 171.78L416.858 181.345V219.617ZM450.013 122.525L416.846 141.668V179.94L433.429 170.375L450.013 160.81V122.525ZM485.623 138.992C486.039 139.102 486.418 139.31 486.711 139.615L518.778 121.108V82.836L485.611 101.978V138.992H485.623ZM485.623 22.5994V60.8718L518.778 41.7295V4.70312C518.363 4.59318 517.984 4.38551 517.69 4.08011L485.623 22.5994ZM519.389 42.7923L486.235 61.9346L518.778 80.7104L519.389 81.0647L520 80.7104L552.556 61.9346L519.389 42.7923ZM553.167 101.966L520 82.8238V121.096L553.167 140.251V101.966ZM553.167 142.364L520 161.506V199.779L553.167 180.636V142.364ZM519.389 160.444L552.556 141.301L537.488 132.604L519.389 122.159L487.31 140.666C487.359 140.861 487.408 141.069 487.408 141.289C487.408 141.509 487.371 141.717 487.31 141.912L519.389 160.444ZM484.401 143.61C483.986 143.5 483.607 143.292 483.314 142.987L451.247 161.494V199.766L484.414 180.624V143.61H484.401ZM484.401 221.034L451.235 201.892V240.164L484.401 259.307V221.034ZM518.754 282.517C517.727 282.248 516.969 281.32 516.969 280.208C516.969 279.988 517.006 279.781 517.067 279.585L485.599 261.42V299.692L518.754 318.835V282.517ZM485.599 339.382L518.766 358.524V320.252L485.599 301.11V339.382ZM520.037 398.898L553.191 418.04V379.768L520.025 360.625V398.898H520.037ZM518.754 359.929L485.587 340.787V379.059L518.754 398.201V359.929ZM450.013 320.252L417.946 301.733C417.652 302.026 417.274 302.246 416.858 302.356V339.382L450.025 358.524V320.252H450.013ZM451.21 360.625V398.214L484.377 379.071V340.799L451.247 359.917V360.638L451.21 360.625ZM416.858 259.307L450.013 240.164V201.892L433.429 211.457L416.846 221.022V259.307H416.858ZM415.636 219.617V181.345L396.682 170.412L382.469 162.215V198.533C383.496 198.801 384.253 199.73 384.253 200.841C384.253 201.061 384.217 201.269 384.156 201.464L415.636 219.617ZM381.247 240.164V203.138C380.832 203.028 380.453 202.82 380.159 202.515L348.093 221.022V258.049C348.508 258.158 348.887 258.366 349.18 258.672L381.247 240.164ZM381.247 280.562L349.18 262.055C348.887 262.349 348.508 262.568 348.093 262.678V299.705L348.704 300.059L381.247 318.835V280.562ZM381.247 359.929L348.08 340.787V379.059L381.247 398.201V359.929ZM348.08 339.382L381.247 358.524V320.252L348.08 301.11V339.382ZM415.685 418.04V381.282C414.658 381.014 413.901 380.085 413.901 378.974C413.901 378.9 413.913 378.827 413.925 378.754L382.53 360.638V398.91L415.685 418.04ZM348.141 457.729L381.308 438.587V400.315L348.141 419.457V457.729ZM313.704 396.955C314.119 397.065 314.498 397.273 314.791 397.578L346.858 379.071V340.799L313.691 359.941V396.955H313.704ZM346.858 339.382V301.11L313.691 320.252V358.524L346.858 339.382ZM313.093 319.189L346.259 300.047L313.105 280.904L312.494 281.259L279.938 300.047L313.093 319.189ZM244.327 280.904L211.16 300.047L243.716 318.835L244.327 319.189L244.938 318.835L277.494 300.047L244.327 280.904ZM278.093 340.09L244.926 320.948V359.221L278.093 378.363V340.09ZM279.315 458.45L312.482 477.592V439.32L279.315 420.178V458.45ZM278.093 418.761V380.488L244.926 399.631V437.903L278.093 418.761ZM243.105 438.954L211.649 420.801C211.356 421.094 210.977 421.314 210.562 421.424V457.742L243.105 438.954ZM209.327 416.806V380.488L176.161 399.618V437.891L207.629 419.726C207.58 419.53 207.531 419.323 207.531 419.103C207.543 418.003 208.301 417.075 209.327 416.806ZM174.939 477.568V439.308L141.772 420.166V458.438L174.939 477.568ZM107.395 438.599L140.562 457.742V419.469L107.395 400.327V438.599ZM106.173 398.91V360.638L73.0063 379.78V416.806C73.4218 416.916 73.8006 417.124 74.0939 417.429L106.173 398.91Z" fill="white"/>
</g>
</svg>
