<svg width="960" height="950" viewBox="0 0 960 950" fill="none" xmlns="http://www.w3.org/2000/svg">
<rect width="960" height="950" fill="#7166F0"/>
<mask id="mask0_1046_259071" style="mask-type:alpha" maskUnits="userSpaceOnUse" x="0" y="0" width="960" height="950">
<rect width="960" height="950" fill="#7166F0"/>
</mask>
<g mask="url(#mask0_1046_259071)">
<mask id="mask1_1046_259071" style="mask-type:luminance" maskUnits="userSpaceOnUse" x="0" y="0" width="750" height="748">
<path d="M750 0H0V747.09H750V0Z" fill="white"/>
</mask>
<g mask="url(#mask1_1046_259071)">
<g opacity="0.51">
<path d="M-130.398 330.02C-94.4584 339.582 -65.2384 327.509 -39.8784 305.381C-26.1984 293.442 -13.1284 278.754 0.241562 263.08C4.13156 258.523 8.00155 253.921 11.9216 249.409C42.2016 214.624 71.7616 175.805 100.092 134.222C109.962 119.744 119.932 104.234 130.422 89.5913C143.982 70.6749 158.352 52.939 174.482 40.4776C221.432 4.22876 259.122 18.0051 299.722 38.5949C324.162 50.9966 349.152 67.4326 377.052 77.7723C396.092 84.7501 413.362 83.9881 429.412 78.1608C466.612 64.5488 498.292 22.9658 530.572 -11.5797C563.172 -46.6182 586.182 -72.5123 628.052 -72.7663C677.852 -73.0502 714.322 -78.2201 748.232 -132.369" stroke="#60E4FF" stroke-width="0.75" stroke-miterlimit="10" stroke-linecap="round" stroke-linejoin="round"/>
<path d="M-129.41 316.497C-94.0802 324.79 -64.5402 313.449 -39.2802 292.65C-25.6302 281.399 -12.5501 267.623 0.819855 252.845C4.70985 248.542 8.57985 244.179 12.5199 239.935C43.0599 207.078 72.6298 168.887 100.86 127.454C110.69 113.035 120.61 97.57 131.04 82.9718C144.51 64.1004 158.74 46.3196 174.7 33.6938C220.91 -2.86877 258.25 9.20421 298.72 28.2849C323.18 39.82 348.09 55.972 375.74 66.6405C394.57 73.8125 411.66 73.6034 427.55 68.5381C464.35 56.6444 496.1 17.482 528.51 -16.2716C561.19 -50.4733 583.92 -77.4582 625.42 -78.3398C674.6 -79.3857 711.61 -83.5694 745.28 -137.061" stroke="#60E4FF" stroke-width="0.75" stroke-miterlimit="10" stroke-linecap="round" stroke-linejoin="round"/>
<path d="M-128.41 302.96C-93.6902 309.968 -63.8202 299.389 -38.6802 279.92C-25.0502 269.371 -11.9702 256.476 1.39984 242.595C5.29984 238.546 9.15985 234.422 13.1098 230.448C43.9198 199.518 73.4898 161.939 101.62 120.67C111.41 106.311 121.28 90.9061 131.64 76.3229C145.03 57.5111 159.12 39.6856 174.91 26.8954C220.38 -9.966 257.37 0.373738 297.71 17.9453C322.18 28.5988 347.02 44.4969 374.42 55.4791C393.04 62.8305 409.96 63.204 425.68 58.8858C462.09 48.7105 493.9 11.9686 526.45 -20.9781C559.21 -54.3431 581.66 -82.4188 622.78 -83.9428C671.34 -85.7508 708.89 -88.9483 742.31 -141.768" stroke="#60E4FF" stroke-width="0.75" stroke-miterlimit="10" stroke-linecap="round" stroke-linejoin="round"/>
<path d="M-127.41 289.437C-93.3002 295.175 -63.1002 285.343 -38.0702 267.189C-24.4702 257.327 -11.3802 245.344 1.99985 232.345C5.89985 228.55 9.76984 224.665 13.7298 220.959C44.8098 191.957 74.3799 154.991 102.41 113.886C112.16 99.5869 121.98 84.2267 132.28 69.6884C145.58 50.9364 159.53 33.066 175.15 20.0965C219.89 -17.0488 256.52 -8.4423 296.73 7.60518C321.22 17.3771 345.97 33.0959 373.13 44.3172C391.53 51.9226 408.28 52.8041 423.85 49.248C459.87 40.7909 491.74 6.46962 524.42 -25.6702C557.26 -58.1985 579.43 -87.3499 620.17 -89.5314C668.11 -92.1014 706.2 -94.3128 739.37 -146.475" stroke="#60E4FF" stroke-width="0.75" stroke-miterlimit="10" stroke-linecap="round" stroke-linejoin="round"/>
<path d="M-126.418 275.915C-92.918 280.368 -62.378 271.298 -37.478 254.474C-23.898 245.3 -10.808 234.228 2.57204 222.11C6.47204 218.569 10.342 214.923 14.322 211.486C45.702 184.412 75.242 148.073 103.182 107.103C112.892 92.8634 122.662 77.5481 132.892 63.0545C146.102 44.3623 159.912 26.4471 175.362 13.2984C219.362 -24.1458 255.652 -17.2726 295.722 -2.73421C320.232 6.15616 344.892 21.6209 371.812 33.156C390.002 40.9556 406.572 42.4647 421.982 39.5959C457.612 32.9617 489.542 0.956416 522.362 -30.3765C555.282 -62.083 577.172 -92.2953 617.532 -95.1193C664.852 -98.4364 703.472 -99.6915 736.402 -151.166" stroke="#60E4FF" stroke-width="0.75" stroke-miterlimit="10" stroke-linecap="round" stroke-linejoin="round"/>
<path d="M-125.418 262.378C-92.528 265.561 -61.658 257.238 -36.868 241.728C-23.318 233.256 -10.208 223.066 3.16203 211.86C7.07203 208.587 10.942 205.166 14.922 202.013C46.602 176.866 76.112 141.14 103.952 100.334C113.622 86.1544 123.342 70.8838 133.512 56.4351C146.632 37.7878 160.312 19.8427 175.582 6.52954C218.842 -31.1985 254.792 -26.0884 294.722 -13.0442C319.252 -5.03542 343.832 10.1753 370.502 22.0242C388.472 30.0031 404.882 32.0949 420.122 29.9732C455.362 25.0723 487.392 -4.4228 520.302 -35.0535C553.352 -65.8186 574.902 -97.2114 614.892 -100.693C661.592 -104.757 700.752 -105.041 733.432 -155.858" stroke="#60E4FF" stroke-width="0.75" stroke-miterlimit="10" stroke-linecap="round" stroke-linejoin="round"/>
<path d="M-124.418 248.856C-92.138 250.753 -60.928 243.193 -36.268 228.998C-22.738 221.213 -9.62796 211.935 3.74203 201.61C7.65203 198.592 11.532 195.409 15.522 192.525C47.522 169.321 76.982 134.207 104.722 93.5508C114.362 79.4308 124.022 64.22 134.122 49.7863C147.152 31.1987 160.692 13.2087 175.792 -0.283718C218.322 -38.2956 253.932 -34.9337 293.722 -23.3987C318.272 -16.2864 342.772 -1.31468 369.192 10.8479C386.952 19.0211 403.182 21.6807 418.262 20.3061C453.102 17.1384 485.202 -9.9361 518.252 -39.7898C551.382 -69.7182 572.652 -102.187 612.262 -106.326C658.332 -111.137 698.042 -110.45 730.482 -160.594" stroke="#60E4FF" stroke-width="0.75" stroke-miterlimit="10" stroke-linecap="round" stroke-linejoin="round"/>
<path d="M-123.43 235.318C-91.7597 235.946 -60.2097 229.132 -35.6697 216.268C-22.1597 209.185 -9.03968 200.803 4.32032 191.36C8.24032 188.595 12.1203 185.667 16.1103 183.037C48.4303 161.775 77.8503 127.259 105.48 86.767C115.08 72.6919 124.69 57.5409 134.73 43.1519C147.67 24.6241 161.08 6.58935 176.01 -7.08239C217.8 -45.3633 253.07 -43.7795 292.72 -33.7386C317.3 -27.5078 341.7 -12.7902 367.88 -0.313757C385.43 8.05365 401.48 11.2811 416.4 10.6684C450.85 9.23404 483.01 -15.4349 516.19 -44.4817C549.4 -73.5584 570.38 -107.103 609.62 -111.899C655.07 -117.457 695.32 -115.799 727.51 -165.286" stroke="#60E4FF" stroke-width="0.75" stroke-miterlimit="10" stroke-linecap="round" stroke-linejoin="round"/>
<path d="M-122.43 221.796C-91.3597 221.138 -59.4697 215.102 -35.0697 203.537C-21.5697 197.142 -8.44969 189.671 4.90031 181.124C8.82031 178.614 12.7103 175.924 16.7103 173.563C49.3703 154.259 78.7203 120.326 106.25 79.9829C115.81 65.9675 125.37 50.8613 135.34 36.5172C148.19 18.0492 161.46 -0.0154656 176.22 -13.8815C217.28 -52.4313 252.21 -52.6405 291.71 -44.0788C316.31 -38.7446 340.63 -24.2809 366.56 -11.4758C383.9 -2.91417 399.77 0.895986 414.53 1.01552C448.58 1.29941 480.81 -20.934 514.13 -49.1889C547.43 -77.4289 568.12 -112.049 606.98 -117.503C651.81 -123.793 692.6 -121.179 724.54 -170.008" stroke="#60E4FF" stroke-width="0.75" stroke-miterlimit="10" stroke-linecap="round" stroke-linejoin="round"/>
<path d="M-121.43 208.274C-90.9697 206.346 -58.7297 201.072 -34.4697 190.822C-20.9897 185.129 -7.86968 178.555 5.49032 170.89C9.42032 168.633 13.3203 166.198 17.3103 164.091C50.3203 146.759 79.5903 113.408 107.02 73.2151C116.54 59.2594 126.05 44.1981 135.96 29.8839C148.72 11.4606 161.86 -6.6339 176.44 -20.6642C216.77 -59.483 251.36 -61.4852 290.71 -54.4028C315.34 -49.9651 339.57 -35.7405 365.25 -22.6216C382.38 -13.8807 398.07 -9.48777 412.67 -8.62114C446.32 -6.604 478.63 -26.4318 512.07 -53.8799C545.45 -81.2831 565.85 -116.964 604.34 -123.09C648.55 -130.128 689.88 -126.557 721.57 -174.699" stroke="#60E4FF" stroke-width="0.75" stroke-miterlimit="10" stroke-linecap="round" stroke-linejoin="round"/>
<path d="M-120.43 194.736C-90.5797 191.524 -57.9897 187.026 -33.8597 178.076C-20.3997 173.085 -7.26969 167.408 6.08031 160.624C10.0203 158.622 13.9203 156.44 17.9203 154.587C51.2903 139.242 80.4703 106.445 107.8 66.416C117.28 52.5201 126.74 37.5036 136.59 23.2342C149.26 4.87073 162.26 -13.2537 176.67 -27.4783C216.27 -66.566 250.53 -70.3612 289.72 -64.758C314.38 -61.2318 338.52 -47.2313 363.95 -33.7986C380.87 -24.8634 396.38 -19.9028 410.82 -18.2741C444.07 -14.5387 476.45 -31.9309 510.03 -58.602C543.49 -85.1685 563.61 -121.91 601.72 -128.694C645.3 -136.449 687.18 -131.936 718.62 -179.421" stroke="#60E4FF" stroke-width="0.75" stroke-miterlimit="10" stroke-linecap="round" stroke-linejoin="round"/>
<path d="M-119.438 181.214C-90.1975 176.731 -57.2575 172.996 -33.2675 165.361C-19.8175 161.072 -6.6875 156.291 6.6525 150.404C10.5925 148.656 14.5125 146.713 18.5025 145.145C52.2425 131.802 81.3225 99.5571 108.553 59.6775C117.993 45.8413 127.402 30.8846 137.182 16.6451C149.762 -1.65863 162.632 -19.8279 176.872 -34.2317C215.742 -73.5735 249.663 -79.1916 288.703 -75.0527C313.393 -72.423 337.433 -58.6765 362.633 -44.9151C379.343 -35.8006 394.672 -30.2572 408.952 -27.8815C441.802 -22.4128 474.242 -37.3994 507.962 -63.2636C541.502 -88.9934 561.332 -126.796 599.072 -134.252C642.032 -142.739 684.452 -137.27 715.652 -184.083" stroke="#60E4FF" stroke-width="0.75" stroke-miterlimit="10" stroke-linecap="round" stroke-linejoin="round"/>
<path d="M-118.438 167.692C-89.8075 161.925 -56.5175 158.981 -32.6575 152.631C-19.2175 149.06 -6.08749 145.16 7.24251 140.154C11.1925 138.675 15.1125 136.987 19.1125 135.657C53.2325 124.346 82.2025 92.6096 109.333 52.8794C118.743 39.103 128.092 24.1911 137.812 9.9964C150.302 -8.24753 163.043 -26.4466 177.103 -41.0298C215.253 -80.6256 248.832 -88.0815 287.712 -85.392C312.432 -83.6887 336.382 -70.1514 361.332 -56.0762C377.822 -46.7675 392.982 -40.6563 407.102 -37.5334C439.562 -30.3464 472.062 -42.9125 505.922 -67.9699C539.542 -92.8629 559.092 -131.727 596.452 -139.855C638.792 -149.074 681.752 -142.649 712.702 -188.804" stroke="#60E4FF" stroke-width="0.75" stroke-miterlimit="10" stroke-linecap="round" stroke-linejoin="round"/>
<path d="M-117.438 154.154C-89.4175 147.116 -55.7675 144.965 -32.0575 139.9C-18.6375 137.031 -5.49749 134.027 7.82251 129.903C11.7825 128.678 15.7125 127.244 19.7125 126.168C54.2125 116.904 83.0725 85.6758 110.103 46.0949C119.473 32.3784 128.773 17.5113 138.423 3.34646C150.823 -14.8377 163.422 -33.0667 177.312 -47.8441C214.732 -87.679 247.972 -96.9877 286.712 -95.7475C311.462 -94.9556 335.322 -81.6574 360.022 -67.2535C376.302 -57.7655 391.283 -51.0716 405.253 -47.2016C437.313 -38.2963 469.882 -48.4418 503.872 -72.6923C537.572 -96.7486 556.832 -136.658 593.822 -145.459C635.542 -155.395 679.032 -148.044 709.742 -193.512" stroke="#60E4FF" stroke-width="0.75" stroke-miterlimit="10" stroke-linecap="round" stroke-linejoin="round"/>
<path d="M-116.449 140.632C-89.0392 132.309 -55.0392 130.95 -31.4592 127.169C-18.0492 125.018 -4.90923 122.911 8.40077 119.654C12.3608 118.682 16.3108 117.502 20.3008 116.68C55.1808 109.478 83.9408 78.728 110.861 39.3115C120.191 25.6547 129.441 10.8324 139.031 -3.28759C151.351 -21.4269 163.811 -39.6708 177.521 -54.6425C214.221 -94.7164 247.121 -105.878 285.701 -106.087C310.481 -106.222 334.251 -93.1475 358.701 -78.4149C374.771 -68.7326 389.571 -61.4709 403.381 -56.839C435.041 -46.2154 467.681 -53.9403 501.811 -77.3839C535.591 -100.603 554.571 -141.559 591.181 -151.047C632.271 -161.701 676.311 -153.408 706.771 -198.218" stroke="#60E4FF" stroke-width="0.75" stroke-miterlimit="10" stroke-linecap="round" stroke-linejoin="round"/>
<path d="M-115.449 127.095C-88.6492 117.502 -54.2892 116.949 -30.8592 114.439C-17.4592 113.005 -4.30922 111.779 8.99078 109.419C12.9608 108.716 16.9208 107.79 20.9108 107.207C56.1808 102.112 84.8208 71.7951 111.641 32.543C120.931 18.9459 130.131 4.18344 139.651 -9.90667C151.881 -27.9862 164.211 -46.2601 177.741 -61.426C213.721 -101.739 246.271 -114.768 284.701 -116.412C309.511 -117.473 333.181 -104.623 357.391 -89.5614C373.251 -79.6998 387.871 -71.8554 401.521 -66.4763C432.781 -54.1493 465.491 -59.4387 499.751 -82.0905C533.611 -104.473 552.301 -146.475 588.541 -156.65C629.011 -168.006 673.591 -158.787 703.801 -202.925" stroke="#60E4FF" stroke-width="0.75" stroke-miterlimit="10" stroke-linecap="round" stroke-linejoin="round"/>
<path d="M-114.449 113.573C-88.2592 102.695 -53.5392 102.949 -30.2492 101.709C-16.8592 100.992 -3.70922 100.663 9.58078 99.1687C13.5608 98.7204 17.5208 98.063 21.5108 97.7193C57.1708 94.7459 85.6908 64.8623 112.411 25.7447C121.661 12.2074 130.811 -2.51026 140.271 -16.5705C152.411 -34.5903 164.611 -52.894 177.971 -68.2392C213.231 -108.791 245.441 -123.703 283.711 -126.766C308.551 -128.754 332.131 -116.113 356.091 -100.753C371.741 -90.7117 386.181 -82.2995 399.671 -76.1584C430.531 -62.1131 463.311 -64.9819 497.701 -86.8268C531.631 -108.373 550.051 -151.42 585.911 -162.268C625.761 -174.341 670.881 -164.181 700.851 -207.661" stroke="#60E4FF" stroke-width="0.75" stroke-miterlimit="10" stroke-linecap="round" stroke-linejoin="round"/>
<path d="M-113.449 100.05C-87.8692 87.9026 -52.7892 88.9634 -29.6492 88.9933C-16.2692 89.0082 -3.11922 89.5611 10.1608 88.9336C14.1408 88.7542 18.1208 88.3508 22.1108 88.2612C58.1508 87.4394 86.5608 57.9443 113.181 18.991C122.391 5.51351 131.491 -9.15934 140.881 -23.1747C152.931 -41.1348 165.001 -59.4534 178.181 -75.0078C212.731 -115.784 244.581 -132.594 282.701 -137.076C307.571 -140.005 331.061 -127.573 354.771 -111.884C370.211 -101.649 384.471 -92.6691 397.801 -85.7809C428.271 -70.0173 461.101 -70.4655 495.641 -91.5036C529.651 -112.228 547.781 -156.291 583.271 -167.841C622.501 -180.616 668.161 -169.53 697.881 -212.338" stroke="#60E4FF" stroke-width="0.75" stroke-miterlimit="10" stroke-linecap="round" stroke-linejoin="round"/>
<path d="M-112.457 86.5128C-87.487 73.0801 -52.057 74.9777 -29.047 76.2478C-15.677 76.9949 -2.52703 78.4293 10.743 78.6833C14.733 78.758 18.723 78.6235 22.703 78.773C59.123 80.1177 87.423 51.0111 113.943 12.2072C123.123 -1.21048 132.163 -15.8385 141.493 -29.8091C153.453 -47.7243 165.393 -66.0579 178.393 -81.8065C212.223 -122.807 243.733 -141.514 281.693 -147.401C306.593 -151.256 329.993 -139.049 353.453 -123.031C368.683 -112.617 382.763 -103.054 395.933 -95.4036C426.003 -77.9366 458.903 -75.9493 493.573 -96.1805C527.663 -116.068 545.513 -161.162 580.623 -173.415C619.233 -186.877 665.433 -174.894 694.903 -217.03" stroke="#60E4FF" stroke-width="0.75" stroke-miterlimit="10" stroke-linecap="round" stroke-linejoin="round"/>
<path d="M-111.457 72.991C-87.097 58.2883 -51.307 61.0077 -28.447 63.5328C-15.087 65.0121 -1.93703 67.3281 11.323 68.4487C15.323 68.7924 19.323 68.9119 23.303 69.3004C60.103 72.8416 88.293 44.0786 114.713 5.43913C123.853 -7.93378 132.843 -22.4871 142.103 -36.4278C153.973 -54.2832 165.793 -72.6317 178.603 -88.5746C211.723 -129.799 242.873 -150.419 280.693 -157.71C305.613 -162.522 328.933 -150.523 352.143 -134.162C367.163 -123.568 381.063 -113.438 394.073 -105.026C423.743 -85.8552 456.713 -81.4474 491.523 -100.872C525.693 -119.937 543.263 -166.048 577.993 -178.987C615.983 -193.152 662.723 -180.243 691.943 -221.706" stroke="#60E4FF" stroke-width="0.75" stroke-miterlimit="10" stroke-linecap="round" stroke-linejoin="round"/>
<path d="M-110.457 59.4682C-86.707 43.4805 -50.567 47.0366 -27.847 50.802C-14.497 53.0133 -1.34704 56.2109 11.903 58.1981C15.903 58.7958 19.913 59.1992 23.893 59.8119C61.063 65.5794 89.153 37.1302 115.473 -1.35986C124.573 -14.673 133.513 -29.1815 142.713 -43.0923C154.493 -60.888 166.183 -79.2514 178.813 -95.4035C211.233 -136.837 242.013 -159.399 279.683 -168.08C304.633 -173.833 327.863 -162.044 350.823 -145.354C365.633 -134.581 379.353 -123.868 392.203 -114.708C421.483 -93.8346 454.503 -86.9913 489.453 -105.609C523.703 -123.853 540.993 -170.964 575.353 -184.621C612.723 -199.473 660.003 -185.652 688.973 -226.458" stroke="#60E4FF" stroke-width="0.75" stroke-miterlimit="10" stroke-linecap="round" stroke-linejoin="round"/>
<path d="M-109.469 45.9311C-86.3288 28.6733 -49.8287 33.0662 -27.2487 38.0717C-13.9187 41.0302 -0.758743 45.1093 12.4913 47.9482C16.5013 48.8148 20.5213 49.4723 24.5013 50.324C62.0213 58.3328 90.0413 30.1974 116.251 -8.14329C125.311 -21.3967 134.201 -35.8603 143.331 -49.7263C155.021 -67.4622 166.591 -85.8556 179.041 -102.202C210.751 -143.845 241.171 -168.334 278.691 -178.42C303.661 -185.129 326.811 -173.534 349.521 -156.515C364.121 -145.563 377.661 -134.282 390.351 -124.346C419.241 -101.754 452.321 -92.5047 487.411 -110.3C521.731 -127.722 538.751 -175.835 572.731 -190.209C609.481 -205.749 657.301 -191.016 686.031 -231.165" stroke="#60E4FF" stroke-width="0.75" stroke-miterlimit="10" stroke-linecap="round" stroke-linejoin="round"/>
<path d="M-108.469 32.4085C-85.9387 13.8657 -49.0888 19.1103 -26.6488 25.341C-13.3288 29.0466 -0.168741 33.9923 13.0713 37.7128C17.0913 38.8335 21.1113 39.7748 25.1013 40.8506C62.9713 51.1156 90.9113 23.2641 117.021 -14.9122C126.041 -28.1058 134.881 -42.5246 143.951 -56.3458C155.551 -74.0369 166.991 -92.4302 179.261 -108.971C210.271 -150.823 240.311 -177.27 277.691 -188.73C302.691 -196.395 325.761 -184.995 348.211 -167.647C362.611 -156.516 375.961 -144.652 388.491 -133.968C416.981 -109.673 450.131 -97.9886 485.351 -114.977C519.751 -131.563 536.491 -180.691 570.091 -195.768C606.221 -211.98 654.571 -196.365 683.061 -235.827" stroke="#60E4FF" stroke-width="0.75" stroke-miterlimit="10" stroke-linecap="round" stroke-linejoin="round"/>
<path d="M-107.469 18.8861C-85.5487 -0.926753 -48.3587 5.15456 -26.0387 12.6255C-12.7387 17.0781 0.431255 22.9054 13.6613 27.4776C17.6813 28.8672 21.7112 30.0775 25.7012 31.3924C63.9112 43.9435 91.7813 16.3609 117.801 -21.666C126.781 -34.7998 135.571 -49.1589 144.581 -62.9651C156.091 -80.5964 167.411 -99.0047 179.491 -115.754C209.801 -157.816 239.471 -186.205 276.701 -199.055C301.721 -207.691 324.711 -196.485 346.911 -178.794C361.101 -167.483 374.281 -155.051 386.651 -143.606C414.751 -117.607 447.951 -103.502 483.321 -119.684C517.801 -135.448 534.261 -185.577 567.481 -201.371C603.001 -218.255 651.881 -201.744 680.121 -240.548" stroke="#60E4FF" stroke-width="0.75" stroke-miterlimit="10" stroke-linecap="round" stroke-linejoin="round"/>
<path d="M-106.469 5.34921C-85.1588 -15.7486 -47.6188 -8.80068 -25.4388 -0.119495C-12.1588 5.08025 1.02126 11.7891 14.2413 17.213C18.2713 18.8715 22.3013 20.3508 26.3013 21.8898C64.8413 36.727 92.6513 9.39843 118.571 -28.4641C127.521 -41.5382 136.251 -55.8524 145.191 -69.6138C156.611 -87.1853 167.811 -105.594 179.701 -122.568C209.321 -164.823 238.601 -195.185 275.691 -209.409C300.731 -219.017 323.641 -207.99 345.591 -189.97C359.571 -178.48 372.571 -165.465 384.781 -153.273C412.491 -125.571 445.731 -109.15 481.251 -124.405C515.781 -139.452 531.991 -190.463 564.831 -206.989C599.741 -224.545 649.151 -207.138 677.141 -245.27" stroke="#60E4FF" stroke-width="0.75" stroke-miterlimit="10" stroke-linecap="round" stroke-linejoin="round"/>
<path d="M-105.477 -8.17356C-84.7766 -30.5414 -46.8966 -22.7418 -24.8366 -12.8354C-11.5766 -6.88856 1.60344 0.68694 14.8234 6.99238C18.8534 8.90493 22.8934 10.6681 26.8934 12.4312C65.7434 29.5844 93.5134 2.49488 119.333 -35.2332C128.243 -48.2475 136.923 -62.5169 145.803 -76.2334C157.133 -93.7452 168.213 -112.168 179.923 -129.352C208.853 -171.801 237.733 -204.135 274.693 -219.734C299.753 -230.313 322.583 -219.48 344.283 -201.117C358.053 -189.462 370.893 -175.895 382.923 -162.896C410.283 -133.58 443.543 -114.634 479.203 -129.083C513.813 -143.292 529.753 -195.305 562.203 -212.547C596.503 -230.776 646.443 -212.473 674.183 -249.947" stroke="#60E4FF" stroke-width="0.75" stroke-miterlimit="10" stroke-linecap="round" stroke-linejoin="round"/>
<path d="M-104.477 -21.7107C-84.3866 -45.3486 -46.1766 -36.6973 -24.2366 -25.5806C-10.9966 -18.8718 2.19343 -10.4297 15.4034 -3.27256C19.4434 -1.09106 23.4834 0.941042 27.4934 2.9283C66.6434 22.3825 94.3834 -4.46788 120.103 -42.0316C128.973 -54.9861 137.603 -69.2107 146.413 -82.8824C157.663 -100.334 168.613 -118.773 180.133 -136.15C208.373 -178.794 236.863 -213.115 273.693 -230.074C298.763 -241.624 321.533 -230.986 342.973 -212.278C356.543 -200.444 369.193 -186.295 381.063 -172.548C408.023 -141.514 441.353 -120.147 477.143 -133.789C511.833 -147.177 527.503 -200.176 559.563 -218.151C593.253 -237.037 643.723 -217.852 671.223 -254.653" stroke="#60E4FF" stroke-width="0.75" stroke-miterlimit="10" stroke-linecap="round" stroke-linejoin="round"/>
<path d="M-103.477 -35.2326C-83.9966 -60.1556 -45.4466 -50.6376 -23.6266 -38.2957C-10.4166 -30.8248 2.78343 -21.5161 16.0034 -13.5073C20.0434 -11.0568 24.0934 -8.75576 28.1034 -6.54437C67.5434 15.2408 95.2634 -11.4005 120.883 -48.7998C129.713 -61.6946 138.293 -75.8743 147.043 -89.5162C158.203 -106.923 169.043 -125.347 180.363 -142.948C207.923 -185.786 236.003 -222.095 272.703 -240.413C297.783 -252.935 320.513 -242.535 341.673 -223.439C355.043 -211.456 367.503 -196.694 379.213 -182.2C405.783 -149.448 439.173 -125.66 475.103 -138.495C509.873 -151.046 525.273 -205.031 556.943 -223.753C590.023 -243.297 641.023 -223.245 668.273 -259.375" stroke="#60E4FF" stroke-width="0.75" stroke-miterlimit="10" stroke-linecap="round" stroke-linejoin="round"/>
</g>
</g>
<g opacity="0.13">
<mask id="mask2_1046_259071" style="mask-type:luminance" maskUnits="userSpaceOnUse" x="0" y="451" width="750" height="500">
<path d="M750 451H0V951H750V451Z" fill="white"/>
</mask>
<g mask="url(#mask2_1046_259071)">
<path d="M72.9083 973.04L20.1983 1003.47L-32.5117 973.04V912.18L20.1983 881.75L72.9083 912.18V973.04Z" fill="url(#paint0_linear_1046_259071)"/>
<path d="M200.45 957.7L149.09 987.36L97.7305 957.7V898.4L149.09 868.74L200.45 898.4V957.7Z" fill="url(#paint1_linear_1046_259071)"/>
<path d="M148.86 807.37L123.29 822.13L97.7305 807.37V777.86L123.29 763.1L148.86 777.86V807.37Z" fill="url(#paint2_linear_1046_259071)"/>
<path opacity="0.5" d="M97.5397 867.7L19.7297 912.62L-58.0703 867.7V777.86L19.7297 732.93L97.5397 777.86V867.7Z" fill="url(#paint3_linear_1046_259071)"/>
<path d="M57.7297 830.48L18.8297 852.95L-20.0703 830.48V785.56L18.8297 763.1L57.7297 785.56V830.48Z" fill="url(#paint4_linear_1046_259071)"/>
<path opacity="0.5" d="M71.6995 777.47L19.7295 807.48L-32.2305 777.47V717.47L19.7295 687.46L71.6995 717.47V777.47Z" fill="url(#paint5_linear_1046_259071)"/>
<path opacity="0.5" d="M149.698 897.2L97.7278 927.2L45.7578 897.2V837.19L97.7278 807.19L149.698 837.19V897.2Z" fill="url(#paint6_linear_1046_259071)"/>
<path opacity="0.5" d="M280.028 1003.36L228.068 1033.36L176.098 1003.36V943.35L228.068 913.35L280.028 943.35V1003.36Z" fill="url(#paint7_linear_1046_259071)"/>
<path opacity="0.5" d="M18.8284 1033.56L-33.1416 1063.56L-85.1016 1033.56V973.56L-33.1416 943.55L18.8284 973.56V1033.56Z" fill="url(#paint8_linear_1046_259071)"/>
<path d="M97.5386 747.84L51.1786 774.61L4.80859 747.84V694.3L51.1786 667.54L97.5386 694.3V747.84Z" fill="url(#paint9_linear_1046_259071)"/>
</g>
</g>
<g opacity="0.14">
<mask id="mask3_1046_259071" style="mask-type:luminance" maskUnits="userSpaceOnUse" x="210" y="2" width="750" height="500">
<path d="M960 2H210V502H960V2Z" fill="white"/>
</mask>
<g mask="url(#mask3_1046_259071)">
<path d="M872.418 -20.4699L925.128 -50.8999L977.838 -20.4699V40.3901L925.128 70.8201L872.418 40.3901V-20.4699Z" fill="url(#paint10_linear_1046_259071)"/>
<path d="M744.879 -5.13004L796.239 -34.79L847.599 -5.13004V54.17L796.239 83.83L744.879 54.17V-5.13004Z" fill="url(#paint11_linear_1046_259071)"/>
<path d="M203.109 238.74L261.359 205.1L319.619 238.74V306.01L261.359 339.64L203.109 306.01V238.74Z" stroke="white" stroke-miterlimit="10" stroke-linecap="round" stroke-linejoin="round"/>
<path d="M296.32 438.64L358.63 402.66L420.95 438.64V510.59L358.63 546.56L296.32 510.59V438.64Z" stroke="white" stroke-miterlimit="10" stroke-linecap="round" stroke-linejoin="round"/>
<path d="M831.84 195.52L894.15 159.55L956.46 195.52V267.47L894.15 303.45L831.84 267.47V195.52Z" stroke="white" stroke-miterlimit="10" stroke-linecap="round" stroke-linejoin="round"/>
<path d="M864.188 -26.9597L926.498 -62.9297L988.808 -26.9597V44.9903L926.498 80.9703L864.188 44.9903V-26.9597Z" stroke="white" stroke-miterlimit="10" stroke-linecap="round" stroke-linejoin="round"/>
<path d="M793.449 143.45L822.039 126.95L850.619 143.45V176.46L822.039 192.96L793.449 176.46V143.45Z" stroke="white" stroke-miterlimit="10" stroke-linecap="round" stroke-linejoin="round"/>
<path d="M302 326.24L333.39 308.11L364.79 326.24V362.49L333.39 380.62L302 362.49V326.24Z" stroke="white" stroke-miterlimit="10" stroke-linecap="round" stroke-linejoin="round"/>
<path d="M796.469 145.2L822.039 130.44L847.599 145.2V174.71L822.039 189.47L796.469 174.71V145.2Z" fill="url(#paint12_linear_1046_259071)"/>
<path opacity="0.5" d="M847.789 84.8702L925.599 39.9502L1003.4 84.8702V174.71L925.599 219.64L847.789 174.71V84.8702Z" fill="url(#paint13_linear_1046_259071)"/>
<path d="M887.598 122.09L926.498 99.6201L965.398 122.09V167.01L926.498 189.47L887.598 167.01V122.09Z" fill="url(#paint14_linear_1046_259071)"/>
<path opacity="0.5" d="M873.629 175.1L925.599 145.09L977.559 175.1V235.1L925.599 265.11L873.629 235.1V175.1Z" fill="url(#paint15_linear_1046_259071)"/>
<path opacity="0.5" d="M795.629 55.3701L847.599 25.3701L899.569 55.3701V115.38L847.599 145.38L795.629 115.38V55.3701Z" fill="url(#paint16_linear_1046_259071)"/>
<path opacity="0.5" d="M951.629 234.78L1003.59 204.78L1055.56 234.78V294.79L1003.59 324.79L951.629 294.79V234.78Z" fill="url(#paint17_linear_1046_259071)"/>
<path opacity="0.5" d="M665.301 -50.79L717.261 -80.79L769.231 -50.79V9.21996L717.261 39.22L665.301 9.21996V-50.79Z" fill="url(#paint18_linear_1046_259071)"/>
<path opacity="0.5" d="M926.5 -80.9897L978.47 -110.99L1030.43 -80.9897V-20.9897L978.47 9.02026L926.5 -20.9897V-80.9897Z" fill="url(#paint19_linear_1046_259071)"/>
<path d="M847.789 204.73L894.149 177.96L940.519 204.73V258.27L894.149 285.03L847.789 258.27V204.73Z" fill="url(#paint20_linear_1046_259071)"/>
</g>
</g>
<mask id="mask4_1046_259071" style="mask-type:luminance" maskUnits="userSpaceOnUse" x="0" y="171" width="865" height="577">
<path d="M864.781 171H0V747.09H864.781V171Z" fill="white"/>
</mask>
<g mask="url(#mask4_1046_259071)">
<g opacity="0.75">
<path d="M57.8912 371.203C57.8912 371.986 57.257 372.62 56.4729 372.62C55.6889 372.62 55.0547 371.986 55.0547 371.203C55.0547 370.42 55.6889 369.786 56.4729 369.786C57.2455 369.774 57.8912 370.42 57.8912 371.203Z" fill="white"/>
<path d="M77.887 372.62C78.6703 372.62 79.3052 371.986 79.3052 371.203C79.3052 370.42 78.6703 369.786 77.887 369.786C77.1037 369.786 76.4688 370.42 76.4688 371.203C76.4688 371.986 77.1037 372.62 77.887 372.62Z" fill="white"/>
<path d="M100.739 371.203C100.739 371.986 100.105 372.62 99.3206 372.62C98.5365 372.62 97.9023 371.986 97.9023 371.203C97.9023 370.42 98.5365 369.786 99.3206 369.786C100.105 369.774 100.739 370.42 100.739 371.203Z" fill="white"/>
<path d="M120.742 372.62C121.526 372.62 122.161 371.986 122.161 371.203C122.161 370.42 121.526 369.786 120.742 369.786C119.959 369.786 119.324 370.42 119.324 371.203C119.324 371.986 119.959 372.62 120.742 372.62Z" fill="white"/>
<path d="M142.168 372.62C142.952 372.62 143.586 371.986 143.586 371.203C143.586 370.42 142.952 369.786 142.168 369.786C141.385 369.786 140.75 370.42 140.75 371.203C140.75 371.986 141.385 372.62 142.168 372.62Z" fill="white"/>
<path d="M68.6021 387.506C68.6021 388.29 67.9679 388.923 67.1839 388.923C66.3998 388.923 65.7656 388.29 65.7656 387.506C65.7656 386.723 66.3998 386.089 67.1839 386.089C67.9564 386.089 68.6021 386.723 68.6021 387.506Z" fill="white"/>
<path d="M90.024 387.506C90.024 388.29 89.3898 388.923 88.6058 388.923C87.8217 388.923 87.1875 388.29 87.1875 387.506C87.1875 386.723 87.8217 386.089 88.6058 386.089C89.3898 386.089 90.024 386.723 90.024 387.506Z" fill="white"/>
<path d="M111.45 387.506C111.45 388.29 110.816 388.923 110.032 388.923C109.247 388.923 108.613 388.29 108.613 387.506C108.613 386.723 109.247 386.089 110.032 386.089C110.816 386.089 111.45 386.723 111.45 387.506Z" fill="white"/>
<path d="M132.872 387.506C132.872 388.29 132.237 388.923 131.453 388.923C130.669 388.923 130.035 388.29 130.035 387.506C130.035 386.723 130.669 386.089 131.453 386.089C132.237 386.089 132.872 386.723 132.872 387.506Z" fill="white"/>
<path d="M57.8912 403.902C57.8912 404.685 57.257 405.319 56.4729 405.319C55.6889 405.319 55.0547 404.685 55.0547 403.902C55.0547 403.118 55.6889 402.485 56.4729 402.485C57.2455 402.473 57.8912 403.118 57.8912 403.902Z" fill="white"/>
<path d="M79.3131 403.902C79.3131 404.685 78.6789 405.319 77.8948 405.319C77.1107 405.319 76.4766 404.685 76.4766 403.902C76.4766 403.118 77.1107 402.485 77.8948 402.485C78.6789 402.473 79.3131 403.118 79.3131 403.902Z" fill="white"/>
<path d="M100.739 403.902C100.739 404.685 100.105 405.319 99.3206 405.319C98.5365 405.319 97.9023 404.685 97.9023 403.902C97.9023 403.118 98.5365 402.485 99.3206 402.485C100.105 402.473 100.739 403.118 100.739 403.902Z" fill="white"/>
<path d="M122.161 403.902C122.161 404.685 121.527 405.319 120.742 405.319C119.958 405.319 119.324 404.685 119.324 403.902C119.324 403.118 119.958 402.485 120.742 402.485C121.527 402.473 122.161 403.118 122.161 403.902Z" fill="white"/>
<path d="M143.586 403.902C143.586 404.685 142.952 405.319 142.168 405.319C141.384 405.319 140.75 404.685 140.75 403.902C140.75 403.118 141.384 402.485 142.168 402.485C142.952 402.473 143.586 403.118 143.586 403.902Z" fill="white"/>
<path d="M68.6021 420.205C68.6021 420.988 67.9679 421.622 67.1839 421.622C66.3998 421.622 65.7656 420.988 65.7656 420.205C65.7656 419.421 66.3998 418.788 67.1839 418.788C67.9564 418.788 68.6021 419.421 68.6021 420.205Z" fill="white"/>
<path d="M90.024 420.205C90.024 420.988 89.3898 421.622 88.6058 421.622C87.8217 421.622 87.1875 420.988 87.1875 420.205C87.1875 419.421 87.8217 418.788 88.6058 418.788C89.3898 418.788 90.024 419.421 90.024 420.205Z" fill="white"/>
<path d="M111.45 420.205C111.45 420.988 110.816 421.622 110.032 421.622C109.247 421.622 108.613 420.988 108.613 420.205C108.613 419.421 109.247 418.788 110.032 418.788C110.816 418.788 111.45 419.421 111.45 420.205Z" fill="white"/>
<path d="M132.872 420.205C132.872 420.988 132.237 421.622 131.453 421.622C130.669 421.622 130.035 420.988 130.035 420.205C130.035 419.421 130.669 418.788 131.453 418.788C132.237 418.788 132.872 419.421 132.872 420.205Z" fill="white"/>
<path d="M57.8912 436.6C57.8912 437.384 57.257 438.018 56.4729 438.018C55.6889 438.018 55.0547 437.384 55.0547 436.6C55.0547 435.817 55.6889 435.183 56.4729 435.183C57.2455 435.172 57.8912 435.817 57.8912 436.6Z" fill="white"/>
<path d="M79.3131 436.6C79.3131 437.384 78.6789 438.018 77.8948 438.018C77.1107 438.018 76.4766 437.384 76.4766 436.6C76.4766 435.817 77.1107 435.183 77.8948 435.183C78.6789 435.172 79.3131 435.817 79.3131 436.6Z" fill="white"/>
<path d="M100.739 436.6C100.739 437.384 100.105 438.018 99.3206 438.018C98.5365 438.018 97.9023 437.384 97.9023 436.6C97.9023 435.817 98.5365 435.183 99.3206 435.183C100.105 435.172 100.739 435.817 100.739 436.6Z" fill="white"/>
<path d="M122.161 436.6C122.161 437.384 121.527 438.018 120.742 438.018C119.958 438.018 119.324 437.384 119.324 436.6C119.324 435.817 119.958 435.183 120.742 435.183C121.527 435.172 122.161 435.817 122.161 436.6Z" fill="white"/>
<path d="M143.586 436.6C143.586 437.384 142.952 438.018 142.168 438.018C141.384 438.018 140.75 437.384 140.75 436.6C140.75 435.817 141.384 435.183 142.168 435.183C142.952 435.172 143.586 435.817 143.586 436.6Z" fill="white"/>
<path d="M68.6021 452.904C68.6021 453.687 67.9679 454.321 67.1839 454.321C66.3998 454.321 65.7656 453.687 65.7656 452.904C65.7656 452.12 66.3998 451.486 67.1839 451.486C67.9564 451.486 68.6021 452.12 68.6021 452.904Z" fill="white"/>
<path d="M90.024 452.904C90.024 453.687 89.3898 454.321 88.6058 454.321C87.8217 454.321 87.1875 453.687 87.1875 452.904C87.1875 452.12 87.8217 451.486 88.6058 451.486C89.3898 451.486 90.024 452.12 90.024 452.904Z" fill="white"/>
<path d="M110.032 454.321C110.815 454.321 111.45 453.686 111.45 452.904C111.45 452.121 110.815 451.486 110.032 451.486C109.248 451.486 108.613 452.121 108.613 452.904C108.613 453.686 109.248 454.321 110.032 454.321Z" fill="white"/>
<path d="M132.872 452.904C132.872 453.687 132.237 454.321 131.453 454.321C130.669 454.321 130.035 453.687 130.035 452.904C130.035 452.12 130.669 451.486 131.453 451.486C132.237 451.486 132.872 452.12 132.872 452.904Z" fill="white"/>
</g>
<path d="M709.49 198.065C709.49 198.883 708.822 199.551 708.003 199.551C707.184 199.551 706.516 198.883 706.516 198.065C706.516 197.247 707.184 196.579 708.003 196.579C708.822 196.579 709.49 197.247 709.49 198.065Z" fill="white"/>
<path d="M731.869 198.065C731.869 198.883 731.201 199.551 730.382 199.551C729.563 199.551 728.895 198.883 728.895 198.065C728.895 197.247 729.563 196.579 730.382 196.579C731.201 196.579 731.869 197.247 731.869 198.065Z" fill="white"/>
<path d="M754.26 198.065C754.26 198.883 753.591 199.551 752.773 199.551C751.954 199.551 751.285 198.883 751.285 198.065C751.285 197.247 751.954 196.579 752.773 196.579C753.591 196.579 754.26 197.247 754.26 198.065Z" fill="white"/>
<path d="M775.155 199.551C775.977 199.551 776.643 198.886 776.643 198.065C776.643 197.244 775.977 196.579 775.155 196.579C774.334 196.579 773.668 197.244 773.668 198.065C773.668 198.886 774.334 199.551 775.155 199.551Z" fill="white"/>
<path d="M797.55 199.551C798.371 199.551 799.037 198.886 799.037 198.065C799.037 197.244 798.371 196.579 797.55 196.579C796.728 196.579 796.062 197.244 796.062 198.065C796.062 198.886 796.728 199.551 797.55 199.551Z" fill="white"/>
<path d="M720.686 215.106C720.686 215.924 720.017 216.592 719.198 216.592C718.38 216.592 717.711 215.924 717.711 215.106C717.711 214.288 718.38 213.62 719.198 213.62C720.017 213.62 720.686 214.276 720.686 215.106Z" fill="white"/>
<path d="M743.065 215.106C743.065 215.924 742.396 216.592 741.577 216.592C740.759 216.592 740.09 215.924 740.09 215.106C740.09 214.288 740.759 213.62 741.577 213.62C742.396 213.62 743.065 214.276 743.065 215.106Z" fill="white"/>
<path d="M765.448 215.106C765.448 215.924 764.779 216.592 763.96 216.592C763.141 216.592 762.473 215.924 762.473 215.106C762.473 214.288 763.141 213.62 763.96 213.62C764.79 213.62 765.448 214.276 765.448 215.106Z" fill="white"/>
<path d="M787.838 215.106C787.838 215.924 787.169 216.592 786.351 216.592C785.532 216.592 784.863 215.924 784.863 215.106C784.863 214.288 785.532 213.62 786.351 213.62C787.169 213.62 787.838 214.276 787.838 215.106Z" fill="white"/>
<path d="M709.49 232.227C709.49 233.045 708.822 233.713 708.003 233.713C707.184 233.713 706.516 233.045 706.516 232.227C706.516 231.409 707.184 230.741 708.003 230.741C708.822 230.741 709.49 231.409 709.49 232.227Z" fill="white"/>
<path d="M731.869 232.227C731.869 233.045 731.201 233.713 730.382 233.713C729.563 233.713 728.895 233.045 728.895 232.227C728.895 231.409 729.563 230.741 730.382 230.741C731.201 230.741 731.869 231.409 731.869 232.227Z" fill="white"/>
<path d="M754.26 232.227C754.26 233.045 753.591 233.713 752.773 233.713C751.954 233.713 751.285 233.045 751.285 232.227C751.285 231.409 751.954 230.741 752.773 230.741C753.591 230.741 754.26 231.409 754.26 232.227Z" fill="white"/>
<path d="M776.643 232.227C776.643 233.045 775.974 233.713 775.155 233.713C774.337 233.713 773.668 233.045 773.668 232.227C773.668 231.409 774.337 230.741 775.155 230.741C775.974 230.741 776.643 231.409 776.643 232.227Z" fill="white"/>
<path d="M799.037 232.227C799.037 233.045 798.369 233.713 797.55 233.713C796.731 233.713 796.062 233.045 796.062 232.227C796.062 231.409 796.731 230.741 797.55 230.741C798.369 230.741 799.037 231.409 799.037 232.227Z" fill="white"/>
<path d="M720.686 249.268C720.686 250.086 720.017 250.754 719.198 250.754C718.38 250.754 717.711 250.086 717.711 249.268C717.711 248.45 718.38 247.781 719.198 247.781C720.017 247.781 720.686 248.45 720.686 249.268Z" fill="white"/>
<path d="M743.065 249.268C743.065 250.086 742.396 250.754 741.577 250.754C740.759 250.754 740.09 250.086 740.09 249.268C740.09 248.45 740.759 247.781 741.577 247.781C742.396 247.781 743.065 248.45 743.065 249.268Z" fill="white"/>
<path d="M765.448 249.268C765.448 250.086 764.779 250.754 763.96 250.754C763.141 250.754 762.473 250.086 762.473 249.268C762.473 248.45 763.141 247.781 763.96 247.781C764.79 247.781 765.448 248.45 765.448 249.268Z" fill="white"/>
<path d="M787.838 249.268C787.838 250.086 787.169 250.754 786.351 250.754C785.532 250.754 784.863 250.086 784.863 249.268C784.863 248.45 785.532 247.781 786.351 247.781C787.169 247.781 787.838 248.45 787.838 249.268Z" fill="white"/>
<path d="M709.49 266.389C709.49 267.207 708.822 267.875 708.003 267.875C707.184 267.875 706.516 267.207 706.516 266.389C706.516 265.571 707.184 264.903 708.003 264.903C708.822 264.903 709.49 265.571 709.49 266.389Z" fill="white"/>
<path d="M731.869 266.389C731.869 267.207 731.201 267.875 730.382 267.875C729.563 267.875 728.895 267.207 728.895 266.389C728.895 265.571 729.563 264.903 730.382 264.903C731.201 264.903 731.869 265.571 731.869 266.389Z" fill="white"/>
<path d="M754.26 266.389C754.26 267.207 753.591 267.875 752.773 267.875C751.954 267.875 751.285 267.207 751.285 266.389C751.285 265.571 751.954 264.903 752.773 264.903C753.591 264.903 754.26 265.571 754.26 266.389Z" fill="white"/>
<path d="M776.643 266.389C776.643 267.207 775.974 267.875 775.155 267.875C774.337 267.875 773.668 267.207 773.668 266.389C773.668 265.571 774.337 264.903 775.155 264.903C775.974 264.903 776.643 265.571 776.643 266.389Z" fill="white"/>
<path d="M799.037 266.389C799.037 267.207 798.369 267.875 797.55 267.875C796.731 267.875 796.062 267.207 796.062 266.389C796.062 265.571 796.731 264.903 797.55 264.903C798.369 264.903 799.037 265.571 799.037 266.389Z" fill="white"/>
<path d="M720.686 283.43C720.686 284.248 720.017 284.916 719.198 284.916C718.38 284.916 717.711 284.248 717.711 283.43C717.711 282.612 718.38 281.943 719.198 281.943C720.017 281.943 720.686 282.612 720.686 283.43Z" fill="white"/>
<path d="M743.065 283.43C743.065 284.248 742.396 284.916 741.577 284.916C740.759 284.916 740.09 284.248 740.09 283.43C740.09 282.612 740.759 281.943 741.577 281.943C742.396 281.943 743.065 282.612 743.065 283.43Z" fill="white"/>
<path d="M765.448 283.43C765.448 284.248 764.779 284.916 763.96 284.916C763.141 284.916 762.473 284.248 762.473 283.43C762.473 282.612 763.141 281.943 763.96 281.943C764.79 281.943 765.448 282.612 765.448 283.43Z" fill="white"/>
<path d="M787.838 283.43C787.838 284.248 787.169 284.916 786.351 284.916C785.532 284.916 784.863 284.248 784.863 283.43C784.863 282.612 785.532 281.943 786.351 281.943C787.169 281.943 787.838 282.612 787.838 283.43Z" fill="white"/>
<path d="M384.023 624.348C384.023 625.282 383.262 626.042 382.328 626.042C381.394 626.042 380.633 625.282 380.633 624.348C380.633 623.415 381.394 622.655 382.328 622.655C383.262 622.655 384.023 623.415 384.023 624.348Z" fill="white"/>
<path d="M409.507 624.348C409.507 625.282 408.746 626.042 407.812 626.042C406.878 626.042 406.117 625.282 406.117 624.348C406.117 623.415 406.878 622.655 407.812 622.655C408.746 622.655 409.507 623.415 409.507 624.348Z" fill="white"/>
<path d="M434.988 624.348C434.988 625.282 434.227 626.042 433.293 626.042C432.359 626.042 431.598 625.282 431.598 624.348C431.598 623.415 432.359 622.655 433.293 622.655C434.227 622.655 434.988 623.415 434.988 624.348Z" fill="white"/>
<path d="M460.472 624.348C460.472 625.282 459.711 626.042 458.777 626.042C457.843 626.042 457.082 625.282 457.082 624.348C457.082 623.415 457.843 622.655 458.777 622.655C459.711 622.655 460.472 623.415 460.472 624.348Z" fill="white"/>
<path d="M485.941 624.348C485.941 625.282 485.18 626.042 484.246 626.042C483.312 626.042 482.551 625.282 482.551 624.348C482.551 623.415 483.312 622.655 484.246 622.655C485.191 622.655 485.941 623.415 485.941 624.348Z" fill="white"/>
<path d="M396.765 643.739C396.765 644.673 396.004 645.433 395.07 645.433C394.136 645.433 393.375 644.673 393.375 643.739C393.375 642.806 394.136 642.046 395.07 642.046C396.004 642.046 396.765 642.806 396.765 643.739Z" fill="white"/>
<path d="M422.249 643.739C422.249 644.673 421.488 645.433 420.554 645.433C419.62 645.433 418.859 644.673 418.859 643.739C418.859 642.806 419.62 642.046 420.554 642.046C421.488 642.046 422.249 642.806 422.249 643.739Z" fill="white"/>
<path d="M447.73 643.739C447.73 644.673 446.969 645.433 446.035 645.433C445.101 645.433 444.34 644.673 444.34 643.739C444.34 642.806 445.101 642.046 446.035 642.046C446.969 642.046 447.73 642.806 447.73 643.739Z" fill="white"/>
<path d="M473.214 643.739C473.214 644.673 472.453 645.433 471.519 645.433C470.585 645.433 469.824 644.673 469.824 643.739C469.824 642.806 470.585 642.046 471.519 642.046C472.453 642.046 473.214 642.806 473.214 643.739Z" fill="white"/>
<path d="M384.023 663.234C384.023 664.168 383.262 664.928 382.328 664.928C381.394 664.928 380.633 664.168 380.633 663.234C380.633 662.301 381.394 661.541 382.328 661.541C383.262 661.541 384.023 662.301 384.023 663.234Z" fill="white"/>
<path d="M409.507 663.234C409.507 664.168 408.746 664.928 407.812 664.928C406.878 664.928 406.117 664.168 406.117 663.234C406.117 662.301 406.878 661.541 407.812 661.541C408.746 661.541 409.507 662.301 409.507 663.234Z" fill="white"/>
<path d="M434.988 663.234C434.988 664.168 434.227 664.928 433.293 664.928C432.359 664.928 431.598 664.168 431.598 663.234C431.598 662.301 432.359 661.541 433.293 661.541C434.227 661.541 434.988 662.301 434.988 663.234Z" fill="white"/>
<path d="M460.472 663.234C460.472 664.168 459.711 664.928 458.777 664.928C457.843 664.928 457.082 664.168 457.082 663.234C457.082 662.301 457.843 661.541 458.777 661.541C459.711 661.541 460.472 662.301 460.472 663.234Z" fill="white"/>
<path d="M485.941 663.234C485.941 664.168 485.18 664.928 484.246 664.928C483.312 664.928 482.551 664.168 482.551 663.234C482.551 662.301 483.312 661.541 484.246 661.541C485.191 661.541 485.941 662.301 485.941 663.234Z" fill="white"/>
<path d="M396.765 682.626C396.765 683.559 396.004 684.319 395.07 684.319C394.136 684.319 393.375 683.559 393.375 682.626C393.375 681.692 394.136 680.932 395.07 680.932C396.004 680.943 396.765 681.692 396.765 682.626Z" fill="white"/>
<path d="M422.249 682.626C422.249 683.559 421.488 684.319 420.554 684.319C419.62 684.319 418.859 683.559 418.859 682.626C418.859 681.692 419.62 680.932 420.554 680.932C421.488 680.943 422.249 681.692 422.249 682.626Z" fill="white"/>
<path d="M447.73 682.626C447.73 683.559 446.969 684.319 446.035 684.319C445.101 684.319 444.34 683.559 444.34 682.626C444.34 681.692 445.101 680.932 446.035 680.932C446.969 680.932 447.73 681.692 447.73 682.626Z" fill="white"/>
<path d="M473.214 682.626C473.214 683.559 472.453 684.319 471.519 684.319C470.585 684.319 469.824 683.559 469.824 682.626C469.824 681.692 470.585 680.932 471.519 680.932C472.453 680.943 473.214 681.692 473.214 682.626Z" fill="white"/>
<path d="M384.023 702.12C384.023 703.054 383.262 703.814 382.328 703.814C381.394 703.814 380.633 703.054 380.633 702.12C380.633 701.187 381.394 700.427 382.328 700.427C383.262 700.427 384.023 701.187 384.023 702.12Z" fill="white"/>
<path d="M409.507 702.12C409.507 703.054 408.746 703.814 407.812 703.814C406.878 703.814 406.117 703.054 406.117 702.12C406.117 701.187 406.878 700.427 407.812 700.427C408.746 700.427 409.507 701.187 409.507 702.12Z" fill="white"/>
<path d="M434.988 702.12C434.988 703.054 434.227 703.814 433.293 703.814C432.359 703.814 431.598 703.054 431.598 702.12C431.598 701.187 432.359 700.427 433.293 700.427C434.227 700.427 434.988 701.187 434.988 702.12Z" fill="white"/>
<path d="M460.472 702.12C460.472 703.054 459.711 703.814 458.777 703.814C457.843 703.814 457.082 703.054 457.082 702.12C457.082 701.187 457.843 700.427 458.777 700.427C459.711 700.427 460.472 701.187 460.472 702.12Z" fill="white"/>
<path d="M485.941 702.12C485.941 703.054 485.18 703.814 484.246 703.814C483.312 703.814 482.551 703.054 482.551 702.12C482.551 701.187 483.312 700.427 484.246 700.427C485.191 700.427 485.941 701.187 485.941 702.12Z" fill="white"/>
<path d="M396.765 721.523C396.765 722.457 396.004 723.217 395.07 723.217C394.136 723.217 393.375 722.457 393.375 721.523C393.375 720.59 394.136 719.83 395.07 719.83C396.004 719.83 396.765 720.579 396.765 721.523Z" fill="white"/>
<path d="M422.249 721.523C422.249 722.457 421.488 723.217 420.554 723.217C419.62 723.217 418.859 722.457 418.859 721.523C418.859 720.59 419.62 719.83 420.554 719.83C421.488 719.83 422.249 720.579 422.249 721.523Z" fill="white"/>
<path d="M447.73 721.523C447.73 722.457 446.969 723.217 446.035 723.217C445.101 723.217 444.34 722.457 444.34 721.523C444.34 720.59 445.101 719.83 446.035 719.83C446.969 719.83 447.73 720.579 447.73 721.523Z" fill="white"/>
<path d="M473.214 721.523C473.214 722.457 472.453 723.217 471.519 723.217C470.585 723.217 469.824 722.457 469.824 721.523C469.824 720.59 470.585 719.83 471.519 719.83C472.453 719.83 473.214 720.579 473.214 721.523Z" fill="white"/>
</g>
<mask id="mask5_1046_259071" style="mask-type:luminance" maskUnits="userSpaceOnUse" x="0" y="0" width="960" height="950">
<path d="M960 0H0V950H960V0Z" fill="white"/>
</mask>
<g mask="url(#mask5_1046_259071)">
<g opacity="0.36">
<path d="M916.037 1190.27C1017.93 1190.27 1100.52 1067.67 1100.52 916.427C1100.52 765.186 1017.93 642.58 916.037 642.58C814.148 642.58 731.551 765.186 731.551 916.427C731.551 1067.67 814.148 1190.27 916.037 1190.27Z" stroke="white" stroke-miterlimit="10" stroke-linecap="round" stroke-linejoin="round"/>
<path d="M1033.58 1090.93C1098.51 994.558 1098.51 838.3 1033.58 741.923C968.656 645.546 863.388 645.546 798.46 741.923C733.533 838.3 733.533 994.558 798.46 1090.93C863.388 1187.31 968.656 1187.31 1033.58 1090.93Z" stroke="white" stroke-miterlimit="10" stroke-linecap="round" stroke-linejoin="round"/>
<path d="M916.044 1136.24C997.828 1136.24 1064.13 1037.83 1064.13 916.427C1064.13 795.029 997.828 696.616 916.044 696.616C834.26 696.616 767.961 795.029 767.961 916.427C767.961 1037.83 834.26 1136.24 916.044 1136.24Z" stroke="white" stroke-miterlimit="10" stroke-linecap="round" stroke-linejoin="round"/>
</g>
</g>
</g>
<defs>
<linearGradient id="paint0_linear_1046_259071" x1="-31.8798" y1="973.122" x2="73.451" y2="911.413" gradientUnits="userSpaceOnUse">
<stop stop-color="#F200D7"/>
<stop offset="1" stop-color="#9600A9"/>
</linearGradient>
<linearGradient id="paint1_linear_1046_259071" x1="98.3458" y1="957.781" x2="200.988" y2="897.648" gradientUnits="userSpaceOnUse">
<stop stop-color="#F200D7"/>
<stop offset="1" stop-color="#9600A9"/>
</linearGradient>
<linearGradient id="paint2_linear_1046_259071" x1="98.0377" y1="807.413" x2="149.121" y2="777.485" gradientUnits="userSpaceOnUse">
<stop stop-color="#F200D7"/>
<stop offset="1" stop-color="#9600A9"/>
</linearGradient>
<linearGradient id="paint3_linear_1046_259071" x1="-57.1448" y1="867.819" x2="98.3489" y2="776.721" gradientUnits="userSpaceOnUse">
<stop stop-color="#F200D7"/>
<stop offset="1" stop-color="white" stop-opacity="0"/>
</linearGradient>
<linearGradient id="paint4_linear_1046_259071" x1="-19.6091" y1="830.543" x2="58.1377" y2="784.994" gradientUnits="userSpaceOnUse">
<stop stop-color="#F200D7"/>
<stop offset="1" stop-color="#9600A9"/>
</linearGradient>
<linearGradient id="paint5_linear_1046_259071" x1="-31.6123" y1="777.551" x2="72.2393" y2="716.709" gradientUnits="userSpaceOnUse">
<stop stop-color="#F200D7"/>
<stop offset="1" stop-color="white" stop-opacity="0"/>
</linearGradient>
<linearGradient id="paint6_linear_1046_259071" x1="46.3834" y1="897.276" x2="150.235" y2="836.434" gradientUnits="userSpaceOnUse">
<stop stop-color="#F200D7"/>
<stop offset="1" stop-color="white" stop-opacity="0"/>
</linearGradient>
<linearGradient id="paint7_linear_1046_259071" x1="176.717" y1="1003.44" x2="280.569" y2="942.595" gradientUnits="userSpaceOnUse">
<stop stop-color="#F200D7"/>
<stop offset="1" stop-color="white" stop-opacity="0"/>
</linearGradient>
<linearGradient id="paint8_linear_1046_259071" x1="-84.4837" y1="1033.64" x2="19.3674" y2="972.798" gradientUnits="userSpaceOnUse">
<stop stop-color="#F200D7"/>
<stop offset="1" stop-color="white" stop-opacity="0"/>
</linearGradient>
<linearGradient id="paint9_linear_1046_259071" x1="5.3649" y1="747.913" x2="98.0219" y2="693.629" gradientUnits="userSpaceOnUse">
<stop stop-color="#F200D7"/>
<stop offset="1" stop-color="#9600A9"/>
</linearGradient>
<linearGradient id="paint10_linear_1046_259071" x1="977.207" y1="-20.5519" x2="871.876" y2="41.1572" gradientUnits="userSpaceOnUse">
<stop stop-color="#F200D7"/>
<stop offset="1" stop-color="#9600A9"/>
</linearGradient>
<linearGradient id="paint11_linear_1046_259071" x1="846.984" y1="-5.21154" x2="744.342" y2="54.9222" gradientUnits="userSpaceOnUse">
<stop stop-color="#F200D7"/>
<stop offset="1" stop-color="#9600A9"/>
</linearGradient>
<linearGradient id="paint12_linear_1046_259071" x1="847.292" y1="145.157" x2="796.208" y2="175.085" gradientUnits="userSpaceOnUse">
<stop stop-color="#F200D7"/>
<stop offset="1" stop-color="#9600A9"/>
</linearGradient>
<linearGradient id="paint13_linear_1046_259071" x1="1002.47" y1="84.7515" x2="846.981" y2="175.849" gradientUnits="userSpaceOnUse">
<stop stop-color="#F200D7"/>
<stop offset="1" stop-color="white" stop-opacity="0"/>
</linearGradient>
<linearGradient id="paint14_linear_1046_259071" x1="964.937" y1="122.028" x2="887.19" y2="167.576" gradientUnits="userSpaceOnUse">
<stop stop-color="#F200D7"/>
<stop offset="1" stop-color="#9600A9"/>
</linearGradient>
<linearGradient id="paint15_linear_1046_259071" x1="976.941" y1="175.019" x2="873.09" y2="235.862" gradientUnits="userSpaceOnUse">
<stop stop-color="#F200D7"/>
<stop offset="1" stop-color="white" stop-opacity="0"/>
</linearGradient>
<linearGradient id="paint16_linear_1046_259071" x1="898.944" y1="55.294" x2="795.093" y2="116.136" gradientUnits="userSpaceOnUse">
<stop stop-color="#F200D7"/>
<stop offset="1" stop-color="white" stop-opacity="0"/>
</linearGradient>
<linearGradient id="paint17_linear_1046_259071" x1="1054.94" y1="234.703" x2="951.086" y2="295.545" gradientUnits="userSpaceOnUse">
<stop stop-color="#F200D7"/>
<stop offset="1" stop-color="white" stop-opacity="0"/>
</linearGradient>
<linearGradient id="paint18_linear_1046_259071" x1="768.612" y1="-50.8675" x2="664.76" y2="9.97475" gradientUnits="userSpaceOnUse">
<stop stop-color="#F200D7"/>
<stop offset="1" stop-color="white" stop-opacity="0"/>
</linearGradient>
<linearGradient id="paint19_linear_1046_259071" x1="1029.81" y1="-81.0695" x2="925.962" y2="-20.2272" gradientUnits="userSpaceOnUse">
<stop stop-color="#F200D7"/>
<stop offset="1" stop-color="white" stop-opacity="0"/>
</linearGradient>
<linearGradient id="paint20_linear_1046_259071" x1="939.964" y1="204.657" x2="847.306" y2="258.941" gradientUnits="userSpaceOnUse">
<stop stop-color="#F200D7"/>
<stop offset="1" stop-color="#9600A9"/>
</linearGradient>
</defs>
</svg>
