<svg width="38" height="37" viewBox="0 0 38 37" fill="none" xmlns="http://www.w3.org/2000/svg">
<path d="M19.0074 13.7308C19.1963 13.7308 19.3817 13.6546 19.5153 13.5203C19.6489 13.3874 19.7258 13.2021 19.7258 13.0124C19.7258 12.8235 19.6489 12.6382 19.5153 12.5046C19.3817 12.3709 19.1963 12.2941 19.0074 12.2941C18.8185 12.2941 18.6332 12.3709 18.4995 12.5046C18.3659 12.6382 18.2891 12.8235 18.2891 13.0124C18.2891 13.2021 18.3659 13.3874 18.4995 13.5203C18.6332 13.6546 18.8185 13.7308 19.0074 13.7308Z" fill="#7166F0"/>
<path d="M36.5178 17.1503C35.9616 16.6824 35.2318 16.4856 34.5158 16.6101C33.3366 16.8153 32.4806 17.833 32.4806 19.03V23.5907C32.4806 23.7633 32.4687 23.9341 32.4476 24.1026C32.3727 24.0028 32.2905 23.9069 32.1998 23.8163C31.7194 23.3358 31.0995 23.0782 30.4692 23.0425V13.727H32.0773C32.3763 13.727 32.644 13.5419 32.7495 13.2621C32.8549 12.9823 32.7762 12.6665 32.5516 12.4691L19.4774 0.97535C19.2063 0.736926 18.8 0.736926 18.5288 0.97535L5.45468 12.4691C5.23012 12.6665 5.15131 12.9823 5.25684 13.2621C5.36229 13.5419 5.63003 13.727 5.92901 13.727H7.53706V23.0424C6.90684 23.0782 6.2869 23.3358 5.80646 23.8162C5.7158 23.9069 5.63355 24.0028 5.55869 24.1026C5.53758 23.934 5.52565 23.7633 5.52565 23.5906V19.0298C5.52565 17.8329 4.66972 16.8152 3.49046 16.61C2.77454 16.4853 2.04476 16.6822 1.48853 17.1501C0.932234 17.618 0.613281 18.3032 0.613281 19.0299V23.1144C0.613281 26.2931 1.85116 29.2817 4.09891 31.5295L8.39091 35.8215C8.5312 35.9618 8.71503 36.0319 8.89886 36.0319C9.08269 36.0319 9.26659 35.9617 9.40681 35.8215C9.68733 35.541 9.68733 35.0861 9.40681 34.8055L5.11482 30.5135C3.13846 28.5371 2.05 25.9094 2.05 23.1144V19.0299C2.05 18.7283 2.1824 18.444 2.41328 18.2498C2.64409 18.0556 2.94688 17.9738 3.24414 18.0256C3.73363 18.1108 4.08886 18.5331 4.08886 19.0299V23.5907C4.08886 25.0568 4.65981 26.4351 5.69648 27.4718L9.88229 31.6576C10.1628 31.9381 10.6177 31.9381 10.8983 31.6576C11.1788 31.3771 11.1788 30.9222 10.8983 30.6417L6.82236 26.5657C6.34437 26.0878 6.34437 25.31 6.82236 24.8321C7.30029 24.3541 8.07806 24.3541 8.55598 24.8321L11.8223 28.0984C11.957 28.2331 12.1397 28.3088 12.3303 28.3088C13.7221 28.3088 15.0305 28.8508 16.0147 29.835C17.4785 31.299 18.2847 33.2453 18.2847 35.3155C18.2847 35.7123 18.6064 36.0339 19.0031 36.0339C19.3999 36.0339 19.7215 35.7123 19.7215 35.3155C19.7215 33.2454 20.5277 31.299 21.9916 29.8351C22.9757 28.8509 24.2842 28.3089 25.676 28.3089C25.8665 28.3089 26.0492 28.2332 26.1839 28.0985L29.4502 24.8322C29.9282 24.3542 30.7059 24.3543 31.1839 24.8322C31.6619 25.3102 31.6619 26.0879 31.1839 26.5659L27.108 30.6418C26.8274 30.9223 26.8274 31.3772 27.108 31.6578C27.3885 31.9382 27.8433 31.9382 28.1239 31.6578L32.3097 27.472C33.3464 26.4352 33.9174 25.0569 33.9174 23.5908V19.0301C33.9174 18.5332 34.2726 18.1108 34.7621 18.0257C35.0593 17.974 35.3621 18.0557 35.593 18.2499C35.8238 18.4441 35.9563 18.7285 35.9563 19.0301V23.1145C35.9563 25.9096 34.8678 28.5373 32.8915 30.5136L28.5994 34.8056C28.3189 35.0862 28.3189 35.541 28.5994 35.8216C28.7397 35.9619 28.9235 36.032 29.1074 36.032C29.2912 36.032 29.4751 35.9618 29.6153 35.8216L33.9073 31.5296C36.1551 29.2819 37.3929 26.2933 37.3929 23.1145V19.0301C37.393 18.3032 37.0741 17.618 36.5178 17.1503ZM25.3717 26.879C23.7105 26.9534 22.1592 27.6356 20.9757 28.8191C20.1226 29.6722 19.4585 30.6636 19.0031 31.7427C18.5478 30.6637 17.8836 29.6722 17.0306 28.8191C15.8471 27.6356 14.2959 26.9534 12.6346 26.879L9.57189 23.8162C9.39022 23.6345 9.18829 23.4854 8.97371 23.3673V13.727H15.7705C16.1672 13.727 16.4888 13.4054 16.4888 13.0087C16.4888 12.6119 16.1672 12.2903 15.7705 12.2903H7.8341L19.0032 2.47141L30.1722 12.2903H22.2358C21.8391 12.2903 21.5174 12.6119 21.5174 13.0087C21.5174 13.4054 21.8391 13.727 22.2358 13.727H29.0326V23.3673C28.818 23.4854 28.6161 23.6345 28.4343 23.8162L25.3717 26.879Z" fill="#7166F0"/>
<path d="M19.0012 17.7624C17.7187 16.6191 15.7445 16.6625 14.5144 17.8925C13.8968 18.5101 13.5566 19.3313 13.5566 20.2047C13.5566 21.0782 13.8968 21.8993 14.5144 22.517L17.6724 25.675C18.0388 26.0413 18.5199 26.2244 19.0012 26.2244C19.4824 26.2244 19.9636 26.0413 20.3299 25.675L23.4879 22.517C24.1056 21.8993 24.4457 21.0782 24.4457 20.2047C24.4457 19.3313 24.1056 18.5101 23.4879 17.8925C22.2579 16.6625 20.2837 16.6191 19.0012 17.7624ZM22.4719 21.501L19.3139 24.659C19.1415 24.8315 18.8608 24.8315 18.6884 24.659L15.5303 21.501C15.1841 21.1548 14.9934 20.6944 14.9934 20.2047C14.9934 19.7151 15.1841 19.2547 15.5303 18.9084C15.8877 18.5511 16.3572 18.3723 16.8266 18.3723C17.2961 18.3723 17.7655 18.5511 18.1229 18.9084L18.4931 19.2787C18.7737 19.5592 19.2285 19.5592 19.5091 19.2787L19.8794 18.9084C20.5943 18.1936 21.7573 18.1937 22.4719 18.9084C22.8182 19.2547 23.0089 19.7151 23.0089 20.2047C23.0089 20.6944 22.8182 21.1548 22.4719 21.501Z" fill="#7166F0"/>
</svg>
