<svg width="23" height="22" viewBox="0 0 23 22" fill="none" xmlns="http://www.w3.org/2000/svg">
<path d="M4.41429 21.5785C4.03274 21.5785 3.66554 21.4342 3.38598 21.1743C3.10643 20.9151 2.93567 20.56 2.90696 20.18L2.90318 20.0674V13.2674H1.55527C1.27647 13.2674 1.0022 13.1903 0.764959 13.0438C0.52696 12.8979 0.334293 12.6887 0.208115 12.4401C0.0811819 12.1907 0.0267815 11.9119 0.049448 11.6339C0.0721152 11.3559 0.171093 11.0891 0.335804 10.864L0.421937 10.7559L6.18683 4.22039L6.17398 4.20679L6.28127 4.11461L8.38171 1.73537C8.72776 1.34399 9.15087 1.02741 9.6246 0.807547C10.0991 0.58768 10.6136 0.469058 11.1357 0.45848C11.6586 0.447902 12.1769 0.545369 12.6597 0.745591C13.1425 0.945058 13.5784 1.24275 13.9403 1.61977L14.0469 1.73537L16.1458 4.11461L16.2546 4.20679L16.241 4.2219L22.0059 10.7559C22.256 11.0393 22.3912 11.4065 22.3837 11.7843C22.3769 12.1628 22.228 12.5239 21.9674 12.7982L21.8729 12.8896C21.6319 13.1019 21.3304 13.2311 21.0108 13.2606L20.8733 13.2674H19.5254V20.0674C19.5254 20.449 19.3818 20.8162 19.1227 21.095C18.8628 21.3745 18.5077 21.546 18.1276 21.5747L18.0143 21.5785H4.41429ZM18.0143 13.2674H4.41429V20.0674H8.19207V17.8007C8.19207 17.0255 8.48976 16.2798 9.02469 15.7177C9.55887 15.1563 10.2887 14.8201 11.0632 14.7815L11.2143 14.7785C11.9895 14.7785 12.7352 15.0755 13.2974 15.6104C13.8587 16.1446 14.1942 16.8752 14.2327 17.6496L14.2365 17.8007V20.0674H18.0143V13.2674ZM11.2143 16.2896C10.8327 16.2896 10.4655 16.4324 10.186 16.6916C9.90643 16.9515 9.73567 17.3066 9.70696 17.6867L9.70318 17.8007V20.0674H12.7254V17.8007C12.7254 17.4396 12.5962 17.0898 12.3612 16.8155C12.1255 16.542 11.7998 16.3614 11.4432 16.307L11.3269 16.2927L11.2143 16.2896ZM14.2365 8.73408C13.8572 8.73408 13.4961 8.8663 13.2324 9.10506C12.6778 9.59995 11.9585 9.87195 11.215 9.86741C10.4708 9.87195 9.75154 9.6007 9.1962 9.10506C8.91816 8.86177 8.56078 8.72955 8.19131 8.73408C7.8226 8.72955 7.46523 8.86252 7.18794 9.10506C6.63336 9.6007 5.91407 9.87346 5.16985 9.86893C4.61678 9.87044 4.07354 9.72084 3.59905 9.4375L1.55527 11.7563H20.8733L18.828 9.4375C18.3596 9.71933 17.8156 9.86741 17.2587 9.86741C16.5153 9.87195 15.796 9.59995 15.2414 9.10506C14.9641 8.86101 14.606 8.72955 14.2365 8.73408ZM14.2365 4.9563C13.867 4.95177 13.5089 5.08324 13.2316 5.32728C12.6763 5.82217 11.9578 6.09417 11.2143 6.08964C10.4708 6.09417 9.75154 5.82217 9.1962 5.32728C8.91891 5.08324 8.56078 4.95177 8.19131 4.9563C7.8702 4.9563 7.56269 5.05075 7.31563 5.22528L4.63643 8.26488C4.8034 8.32532 4.98398 8.3563 5.16985 8.3563C5.54989 8.3563 5.91029 8.22332 6.17398 7.98457C6.72931 7.48968 7.44785 7.21844 8.19131 7.22297C8.93931 7.22297 9.66163 7.48817 10.2102 7.98457C10.4746 8.22332 10.835 8.3563 11.215 8.3563C11.5943 8.3563 11.9547 8.22332 12.2184 7.98457C12.7738 7.48968 13.4923 7.21844 14.2365 7.22297C14.9845 7.22297 15.7068 7.48817 16.2554 7.98457C16.5198 8.22332 16.8794 8.3563 17.2595 8.3563C17.4454 8.3563 17.6259 8.32457 17.7929 8.26488L15.113 5.22452C14.8553 5.04697 14.5493 4.95404 14.2365 4.9563ZM9.61251 2.6307L9.51429 2.73497L8.82976 3.51017C9.2778 3.60235 9.6994 3.79728 10.0598 4.07986L10.2102 4.20679C10.4746 4.44555 10.8342 4.57852 11.215 4.57852C11.5467 4.57852 11.8648 4.47728 12.1149 4.29141L12.2184 4.20679C12.6083 3.85621 13.085 3.61595 13.5988 3.51017L12.9143 2.73497L12.8168 2.63221L12.7141 2.53475L12.6038 2.44484C12.1882 2.12221 11.6729 1.95448 11.147 1.96959C10.6204 1.98546 10.1165 2.18341 9.72056 2.53021L9.61251 2.6307Z" fill="#3C3C3C"/>
</svg>
