<svg width="21" height="27" viewBox="0 0 21 27" fill="none" xmlns="http://www.w3.org/2000/svg">
<path fill-rule="evenodd" clip-rule="evenodd" d="M10.4 13.4382C7.94541 13.4382 5.95557 11.4492 5.95557 8.99564C5.95557 6.54206 7.94541 4.55304 10.4 4.55304C12.8546 4.55304 14.8445 6.54206 14.8445 8.99564C14.8445 11.4492 12.8546 13.4382 10.4 13.4382ZM10.4 6.77438C9.17266 6.77438 8.17773 7.76869 8.17773 8.99522C8.17773 10.2218 9.17266 11.2161 10.4 11.2161C11.6273 11.2161 12.6222 10.2218 12.6222 8.99522C12.6222 7.76869 11.6273 6.77438 10.4 6.77438ZM11.0222 26.5771C11.2671 26.4124 11.4364 26.1571 11.4927 25.8675C11.549 25.5778 11.4876 25.2777 11.3222 25.0333C3.11114 12.8162 2.62225 11.961 2.62225 8.99555C2.62225 6.31889 4.68891 2.33165 10.4 2.33165C16.1111 2.33165 18.1778 6.31889 18.1778 8.99555C18.1778 11.4501 17.9667 12.3275 12.4445 20.6241C12.1444 21.1315 12.2931 21.7849 12.7833 22.1125C13.2735 22.4402 13.9344 22.328 14.2889 21.8569C19.6556 13.8158 20.4 12.2498 20.4 8.99555C20.4 5.56364 17.6889 0.110352 10.4 0.110352C3.11114 0.110352 0.400024 5.56364 0.400024 8.99555C0.400024 12.7051 1.16669 13.9602 9.4778 26.2773C9.64258 26.5221 9.89803 26.6912 10.1878 26.7475C10.4775 26.8038 10.7778 26.7425 11.0222 26.5771Z" fill="white"/>
</svg>
