<svg width="27" height="25" viewBox="0 0 27 25" fill="none" xmlns="http://www.w3.org/2000/svg">
<path d="M24.8867 14.0007C24.5865 13.6933 24.2301 13.4494 23.8379 13.283C23.4456 13.1166 23.0251 13.031 22.6005 13.031C22.1759 13.031 21.7554 13.1166 21.3631 13.283C20.9708 13.4494 20.6144 13.6933 20.3143 14.0007V14.0007C19.9726 14.3505 19.41 14.3505 19.0683 14.0007V14.0007C18.4619 13.38 17.6396 13.0313 16.7821 13.0313C15.9245 13.0313 15.1022 13.38 14.4958 14.0007C13.8895 14.6214 13.5488 15.4633 13.5488 16.3411C13.5488 17.2189 13.8895 18.0608 14.4958 18.6815L15.1188 19.3192L18.9759 23.2677C19.3683 23.6693 20.0143 23.6693 20.4066 23.2677L24.2637 19.3192L24.8867 18.6815C25.187 18.3742 25.4253 18.0093 25.5878 17.6078C25.7504 17.2062 25.834 16.7758 25.834 16.3411C25.834 15.9064 25.7504 15.476 25.5878 15.0744C25.4253 14.6729 25.187 14.308 24.8867 14.0007Z" stroke="white" stroke-width="1.5" stroke-linecap="round" stroke-linejoin="round"/>
<path d="M25.3394 10.2632L15.7255 2.17216C14.2345 0.917382 12.0563 0.919602 10.5679 2.17742L2.41812 9.0648C1.51879 9.82482 1 10.9425 1 12.1199V19.9814C1 22.1906 2.79086 23.9814 5 23.9814H13.1445" stroke="white" stroke-width="1.5"/>
</svg>
