<svg width="44" height="44" viewBox="0 0 44 44" fill="none" xmlns="http://www.w3.org/2000/svg">
<path d="M1 26.2834C1 18.3643 1 14.4037 3.4612 11.9446C5.9203 9.4834 9.8809 9.4834 17.8 9.4834H26.2C34.1191 9.4834 38.0797 9.4834 40.5388 11.9446C43 14.4037 43 18.3643 43 26.2834C43 34.2025 43 38.1631 40.5388 40.6222C38.0797 43.0834 34.1191 43.0834 26.2 43.0834H17.8C9.8809 43.0834 5.9203 43.0834 3.4612 40.6222C1 38.1631 1 34.2025 1 26.2834Z" stroke="black" stroke-width="1.5"/>
<path d="M30.4016 9.4835C30.4016 5.5229 30.4016 3.5447 29.171 2.3141C27.9404 1.0835 25.9622 1.0835 22.0016 1.0835C18.041 1.0835 16.0628 1.0835 14.8322 2.3141C13.6016 3.5447 13.6016 5.5229 13.6016 9.4835" stroke="black" stroke-width="1.5"/>
<path d="M25.1437 26.2833H18.8438M21.9937 23.1333V29.4333" stroke="black" stroke-width="1.5" stroke-linecap="round"/>
<path d="M22.0016 34.6838C26.6408 34.6838 30.4016 30.923 30.4016 26.2838C30.4016 21.6446 26.6408 17.8838 22.0016 17.8838C17.3624 17.8838 13.6016 21.6446 13.6016 26.2838C13.6016 30.923 17.3624 34.6838 22.0016 34.6838Z" stroke="black" stroke-width="1.5"/>
</svg>
