<svg width="46" height="42" viewBox="0 0 46 42" fill="none" xmlns="http://www.w3.org/2000/svg">
<path d="M5 18.7917C5 10.464 5 6.29912 7.58817 3.71317C10.1741 1.125 14.339 1.125 22.6667 1.125C30.9943 1.125 35.1592 1.125 37.7452 3.71317C40.3333 6.29912 40.3333 10.464 40.3333 18.7917V23.2083C40.3333 31.536 40.3333 35.7009 37.7452 38.2868C35.1592 40.875 30.9943 40.875 22.6667 40.875C14.339 40.875 10.1741 40.875 7.58817 38.2868C5 35.7009 5 31.536 5 23.2083V18.7917Z" stroke="black" stroke-width="1.5"/>
<path d="M9.66667 35.9063V38.8876C9.66667 39.4147 9.89494 39.9202 10.3013 40.293C10.7076 40.6657 11.2587 40.8751 11.8333 40.8751H15.0833C15.658 40.8751 16.2091 40.6657 16.6154 40.293C17.0217 39.9202 17.25 39.4147 17.25 38.8876V36.9001M35.6667 35.9063V38.8876C35.6667 39.4147 35.4384 39.9202 35.0321 40.293C34.6257 40.6657 34.0746 40.8751 33.5 40.8751H30.25C29.6754 40.8751 29.1243 40.6657 28.7179 40.293C28.3116 39.9202 28.0833 39.4147 28.0833 38.8876V36.9001M40 15.0376H42.1667C42.7413 15.0376 43.2924 15.247 43.6987 15.6197C44.1051 15.9925 44.3333 16.498 44.3333 17.0251V19.0126C44.3333 19.3211 44.255 19.6255 44.1046 19.9014C43.9542 20.1774 43.7358 20.4175 43.4667 20.6026L40 22.9876M5.33333 15.0376H3.16667C2.59203 15.0376 2.04093 15.247 1.6346 15.6197C1.22827 15.9925 1 16.498 1 17.0251V19.0126C1 19.3211 1.07831 19.6255 1.22874 19.9014C1.37917 20.1774 1.59758 20.4175 1.86667 20.6026L5.33333 22.9876" stroke="black" stroke-width="1.5" stroke-linecap="round" stroke-linejoin="round"/>
<path d="M5.32812 22.9873H39.9948" stroke="black" stroke-width="1.5" stroke-linecap="round" stroke-linejoin="round"/>
<path d="M30.2448 28.9497H33.4948M11.8281 28.9497H15.0781" stroke="black" stroke-width="1.5" stroke-linecap="round" stroke-linejoin="round"/>
<path d="M38.9219 7.0874H6.42188" stroke="black" stroke-width="1.5" stroke-linecap="round"/>
</svg>
