<svg width="18" height="18" viewBox="0 0 18 18" fill="none" xmlns="http://www.w3.org/2000/svg">
<rect x="0.5" y="0.49585" width="17" height="17" stroke="black" stroke-dasharray="3 3"/>
<path d="M13.1464 13.8494L13.5 14.203L14.2071 13.4958L13.8536 13.1423L13.1464 13.8494ZM6 5.49585C5.72386 5.49585 5.5 5.71971 5.5 5.99585L5.5 10.4959C5.5 10.772 5.72386 10.9959 6 10.9959C6.27614 10.9959 6.5 10.772 6.5 10.4959L6.5 6.49585L10.5 6.49585C10.7761 6.49585 11 6.27199 11 5.99585C11 5.71971 10.7761 5.49585 10.5 5.49585L6 5.49585ZM13.8536 13.1423L6.35355 5.6423L5.64645 6.3494L13.1464 13.8494L13.8536 13.1423Z" fill="black"/>
</svg>
