<svg width="25" height="27" viewBox="0 0 25 27" fill="none" xmlns="http://www.w3.org/2000/svg">
<path d="M0.474976 26.0667V24.3334H5.67411L5.67497 7.8667H3.94164C3.09664 7.8667 2.76731 6.79637 3.41298 6.3119L3.49618 6.2573L12.1628 1.0573C12.2798 0.9871 12.4124 0.9455 12.5485 0.935967C12.6854 0.926433 12.8224 0.948966 12.948 1.0027L13.0538 1.0573L21.7204 6.2573C22.4458 6.6915 22.1772 7.7783 21.3738 7.8615L21.275 7.8667H19.5416L19.5408 24.3334H24.7416V26.0667H0.474976ZM17.8074 24.3334L17.8083 7.8667H7.40831L7.40744 24.3334H9.14164V22.6C9.14164 21.6952 9.49524 20.8268 10.1262 20.1794C10.758 19.532 11.6177 19.1568 12.5216 19.1342C13.4256 19.1117 14.3026 19.4436 14.9656 20.0581C15.6286 20.6734 16.0256 21.5236 16.0706 22.4267L16.075 22.6V24.3334H17.8074ZM12.6083 20.8667C12.1706 20.8667 11.7494 21.0314 11.4288 21.3286C11.109 21.6268 10.9122 22.0341 10.8793 22.47L10.875 22.6V24.3334H14.3416V22.6C14.3416 22.1407 14.1588 21.6996 13.8338 21.3746C13.5088 21.0496 13.0676 20.8667 12.6083 20.8667ZM12.6083 11.3334C12.838 11.3334 13.059 11.4244 13.221 11.5873C13.384 11.7494 13.475 11.9704 13.475 12.2C13.475 12.4297 13.384 12.6507 13.221 12.8128C13.059 12.9757 12.838 13.0667 12.6083 13.0667C12.3786 13.0667 12.1576 12.9757 11.9956 12.8128C11.8326 12.6507 11.7416 12.4297 11.7416 12.2C11.7416 11.9704 11.8326 11.7494 11.9956 11.5873C12.1576 11.4244 12.3786 11.3334 12.6083 11.3334ZM12.6083 2.81057L7.06944 6.13337H18.1463L12.6083 2.81057Z" fill="#3C3C3C"/>
</svg>
