<svg width="20" height="20" viewBox="0 0 20 20" fill="none" xmlns="http://www.w3.org/2000/svg">
<rect x="0.5" y="0.581665" width="18.6024" height="18.6024" stroke="black" stroke-dasharray="3 3"/>
<path d="M14.3482 15.137L14.7018 15.4906L15.4089 14.7834L15.0553 14.4299L14.3482 15.137ZM6.5341 6.11577C6.25796 6.11577 6.0341 6.33962 6.0341 6.61577L6.0341 11.1158C6.0341 11.3919 6.25796 11.6158 6.5341 11.6158C6.81024 11.6158 7.0341 11.3919 7.0341 11.1158L7.0341 7.11577L11.0341 7.11577C11.3102 7.11577 11.5341 6.89191 11.5341 6.61577C11.5341 6.33962 11.3102 6.11577 11.0341 6.11577L6.5341 6.11577ZM15.0553 14.4299L6.88765 6.26221L6.18055 6.96932L14.3482 15.137L15.0553 14.4299Z" fill="black"/>
</svg>
