<svg width="32" height="32" viewBox="0 0 32 32" fill="none" xmlns="http://www.w3.org/2000/svg">
<rect x="0.5" y="0.5" width="31" height="31" stroke="white" stroke-dasharray="3 3"/>
<path d="M23.6386 24.3536L23.9922 24.7071L24.6993 24L24.3457 23.6464L23.6386 24.3536ZM10.6589 10.1667C10.3827 10.1667 10.1589 10.3905 10.1589 10.6667L10.1589 15.1667C10.1589 15.4428 10.3827 15.6667 10.6589 15.6667C10.935 15.6667 11.1589 15.4428 11.1589 15.1667L11.1589 11.1667L15.1589 11.1667C15.435 11.1667 15.6589 10.9428 15.6589 10.6667C15.6589 10.3905 15.435 10.1667 15.1589 10.1667L10.6589 10.1667ZM24.3457 23.6464L11.0124 10.3131L10.3053 11.0202L23.6386 24.3536L24.3457 23.6464Z" fill="white"/>
</svg>
