<svg width="114" height="106" viewBox="0 0 114 106" fill="none" xmlns="http://www.w3.org/2000/svg">
<path d="M61.75 61.7505H21.25C15.8794 61.7505 10.7287 63.884 6.93109 67.6816C3.13347 71.4792 1 76.6299 1 82.0005V92.1255" stroke="black" stroke-width="2" stroke-linecap="round" stroke-linejoin="round"/>
<path d="M41.5 41.5C52.6838 41.5 61.75 32.4338 61.75 21.25C61.75 10.0662 52.6838 1 41.5 1C30.3162 1 21.25 10.0662 21.25 21.25C21.25 32.4338 30.3162 41.5 41.5 41.5Z" stroke="black" stroke-width="2" stroke-linecap="round" stroke-linejoin="round"/>
<path d="M112.751 79.75C112.751 93.819 101.109 105.25 86.7154 105.25C72.3219 105.25 60.6797 93.819 60.6797 79.75C60.6797 65.681 72.3219 54.25 86.7154 54.25C101.109 54.25 112.751 65.681 112.751 79.75Z" fill="#FFAD8A" stroke="white" stroke-width="1.5"/>
<path d="M87.3145 67.4285V90.9999" stroke="black" stroke-width="2" stroke-linecap="round"/>
<path d="M76 79.6863L99.5714 79.6863" stroke="black" stroke-width="2" stroke-linecap="round"/>
</svg>
