<svg width="100" height="96" viewBox="0 0 100 96" fill="none" xmlns="http://www.w3.org/2000/svg">
<path d="M95.68 55.4961C94.4902 54.2775 93.0774 53.3109 91.5225 52.6513C89.9676 51.9918 88.301 51.6523 86.6179 51.6523C84.9348 51.6523 83.2682 51.9918 81.7133 52.6513C80.1584 53.3109 78.7457 54.2775 77.5558 55.4961L75.8018 57.2917C75.4095 57.6933 74.7635 57.6933 74.3711 57.2917L72.6171 55.4961C70.2137 53.0358 66.9539 51.6536 63.555 51.6536C60.1561 51.6536 56.8963 53.0358 54.4929 55.4961C52.0895 57.9565 50.7393 61.2934 50.7393 64.7728C50.7393 68.2522 52.0895 71.5891 54.4929 74.0495L56.9623 76.5773L74.3711 94.3983C74.7635 94.7999 75.4095 94.7999 75.8018 94.3983L93.2107 76.5773L95.68 74.0495C96.8704 72.8314 97.8147 71.3853 98.459 69.7935C99.1033 68.2018 99.4349 66.4957 99.4349 64.7728C99.4349 63.0498 99.1033 61.3438 98.459 59.7521C97.8147 58.1603 96.8704 56.7142 95.68 55.4961Z" fill="#FF6B2C"/>
<path d="M97.4755 40.6811L51.7189 2.17216C50.2279 0.91738 48.0497 0.919602 46.5613 2.17742L2.41812 39.4826C1.51879 40.2426 1 41.3603 1 42.5378V91.0568C1 93.2659 2.79086 95.0568 5 95.0568H49.1379" stroke="white" stroke-width="1.5"/>
</svg>
