<svg width="100" height="96" viewBox="0 0 100 96" fill="none" xmlns="http://www.w3.org/2000/svg">
<path d="M95.679 55.496C94.4892 54.2774 93.0765 53.3107 91.5215 52.6512C89.9666 51.9917 88.3 51.6522 86.6169 51.6522C84.9338 51.6522 83.2672 51.9917 81.7123 52.6512C80.1574 53.3107 78.7447 54.2774 77.5548 55.496L75.8008 57.2916C75.4085 57.6932 74.7625 57.6932 74.3702 57.2916L72.6161 55.496C70.2127 53.0357 66.953 51.6535 63.554 51.6535C60.1551 51.6535 56.8953 53.0357 54.4919 55.496C52.0885 57.9563 50.7383 61.2933 50.7383 64.7727C50.7383 68.2521 52.0885 71.589 54.4919 74.0493L56.9613 76.5772L74.3702 94.3982C74.7625 94.7998 75.4085 94.7998 75.8008 94.3982L93.2097 76.5772L95.679 74.0493C96.8694 72.8313 97.8138 71.3851 98.458 69.7934C99.1023 68.2017 99.4339 66.4956 99.4339 64.7727C99.4339 63.0497 99.1023 61.3437 98.458 59.7519C97.8138 58.1602 96.8694 56.714 95.679 55.496Z" fill="#FFAD8A"/>
<path d="M97.4755 40.6811L51.7189 2.17216C50.2279 0.91738 48.0497 0.919602 46.5613 2.17742L2.41812 39.4826C1.51879 40.2426 1 41.3603 1 42.5378V91.0568C1 93.2659 2.79086 95.0568 5 95.0568H49.1379" stroke="black" stroke-width="1.5"/>
</svg>
