<svg width="27" height="25" viewBox="0 0 27 25" fill="none" xmlns="http://www.w3.org/2000/svg">
<path d="M24.8864 14.2788C24.5862 13.9714 24.2298 13.7275 23.8375 13.5611C23.4452 13.3947 23.0247 13.3091 22.6001 13.3091C22.1755 13.3091 21.755 13.3947 21.3628 13.5611C20.9705 13.7275 20.6141 13.9714 20.3139 14.2788V14.2788C19.9722 14.6286 19.4096 14.6286 19.0679 14.2788V14.2788C18.4616 13.6581 17.6392 13.3094 16.7817 13.3094C15.9242 13.3094 15.1018 13.6581 14.4955 14.2788C13.8891 14.8995 13.5485 15.7414 13.5485 16.6192C13.5485 17.497 13.8891 18.3388 14.4955 18.9595L15.1184 19.5973L18.9756 23.5457C19.3679 23.9474 20.0139 23.9474 20.4062 23.5457L24.2634 19.5973L24.8864 18.9595C25.1867 18.6523 25.4249 18.2874 25.5875 17.8858C25.75 17.4843 25.8337 17.0539 25.8337 16.6192C25.8337 16.1845 25.75 15.7541 25.5875 15.3525C25.4249 14.951 25.1867 14.5861 24.8864 14.2788Z" stroke="white" stroke-width="1.5" stroke-linecap="round" stroke-linejoin="round"/>
<path d="M25.3394 10.5413L15.7255 2.45024C14.2345 1.19546 12.0563 1.19768 10.5679 2.4555L2.41812 9.34288C1.51879 10.1029 1 11.2205 1 12.398V20.2595C1 22.4687 2.79086 24.2595 5 24.2595H13.1445" stroke="white" stroke-width="1.5"/>
</svg>
