<svg width="23" height="22" viewBox="0 0 23 22" fill="none" xmlns="http://www.w3.org/2000/svg">
<path d="M10.4235 1.0108C10.6993 0.882359 10.9977 0.811337 11.3015 0.800759C11.6052 0.790936 11.9082 0.841559 12.1915 0.950359L12.332 1.0108L21.8369 5.42325C22.0802 5.53658 22.2888 5.71262 22.4414 5.93325C22.5948 6.15387 22.6862 6.41 22.7066 6.67747L22.7111 6.79458V8.95698C22.7111 9.07938 22.6816 9.20027 22.6242 9.30907C22.5668 9.41787 22.4844 9.5108 22.3832 9.58031C22.6008 10.1205 22.7111 10.6698 22.7111 11.2236C22.7111 11.9263 22.5336 12.6192 22.1868 13.2999L22.0795 13.5001L22.149 13.6384C22.4958 14.369 22.6794 15.2364 22.7073 16.236L22.7111 16.5125C22.7111 17.868 22.4406 19.2212 21.9019 20.5691C21.852 20.6953 21.7689 20.8056 21.6609 20.888C21.5536 20.9711 21.4259 21.0232 21.2914 21.0398L21.2 21.0459H1.55555C1.41501 21.0459 1.2775 21.0058 1.15812 20.9318C1.0395 20.8585 0.94279 20.7527 0.880078 20.6273C0.319456 19.506 0.0444336 18.1332 0.0444336 16.5125C0.0444336 15.2424 0.210656 14.2595 0.580878 13.5606L0.646612 13.445L0.568789 13.2999C0.256745 12.6872 0.0814557 12.0638 0.0497225 11.4337L0.0444336 11.2236C0.0444336 10.6698 0.154745 10.1198 0.371589 9.5788C0.283945 9.51836 0.2099 9.44054 0.154745 9.34911C0.0995891 9.25845 0.0640781 9.1572 0.0504783 9.05142L0.0444336 8.95698V6.79458C0.0444336 6.52636 0.116212 6.26267 0.251456 6.03071C0.3867 5.79951 0.581634 5.60836 0.815101 5.47689L0.919367 5.42476L10.4235 1.0108ZM21.0685 18.0236H1.6583C1.72781 18.5042 1.83359 18.9432 1.97412 19.3428L2.04666 19.5348H20.6741L20.7316 19.3708C20.8789 18.9205 20.9915 18.4717 21.0693 18.0236H21.0685ZM13.6444 9.71254H9.1111V16.5125H13.6444V9.71254ZM20.7769 9.71254H15.1556V16.5125H21.2C21.2 15.5832 21.0512 14.8299 20.764 14.2459H16.6667V12.7348H20.7769C21.0617 12.218 21.2 11.7163 21.2 11.2236C21.2 10.731 21.0617 10.2293 20.7769 9.71254ZM7.59999 9.71254H1.97866C1.69457 10.2301 1.55555 10.7325 1.55555 11.2236C1.55555 11.7148 1.69381 12.218 1.97866 12.7348H6.08888V14.2459H1.92803C1.69683 14.6614 1.55555 15.42 1.55555 16.5125H7.59999V9.71254ZM11.3778 11.2236C11.578 11.2236 11.7707 11.303 11.9119 11.445C12.054 11.5863 12.1333 11.779 12.1333 11.9792C12.1333 12.1794 12.054 12.3721 11.9119 12.5134C11.7707 12.6554 11.578 12.7348 11.3778 12.7348C11.1775 12.7348 10.9849 12.6554 10.8436 12.5134C10.7015 12.3721 10.6222 12.1794 10.6222 11.9792C10.6222 11.779 10.7015 11.5863 10.8436 11.445C10.9849 11.303 11.1775 11.2236 11.3778 11.2236ZM11.6959 2.38138C11.5243 2.30129 11.3287 2.28996 11.1481 2.34738L11.0597 2.38138L1.55555 6.79458V8.20142H21.2V6.79458L11.6959 2.38138Z" fill="#272727"/>
</svg>
