<svg width="32" height="31" viewBox="0 0 32 31" fill="none" xmlns="http://www.w3.org/2000/svg">
<path d="M30.6406 12.9911H28.749C28.5845 9.62328 27.1308 6.44777 24.6891 4.1224C22.2474 1.79703 19.0048 0.5 15.6329 0.5C12.2611 0.5 9.01847 1.79703 6.57676 4.1224C4.13504 6.44777 2.68138 9.62328 2.5169 12.9911H0.625318C0.459473 12.9911 0.300421 13.057 0.183151 13.1743C0.0658816 13.2915 0 13.4506 0 13.6164C0.00522263 16.5403 0.827731 19.4045 2.37466 21.8857C3.9216 24.3669 6.13135 26.3662 8.75445 27.6579V28.624C8.75445 29.1216 8.95209 29.5987 9.3039 29.9505C9.65571 30.3024 10.1329 30.5 10.6304 30.5H20.6355C21.133 30.5 21.6102 30.3024 21.962 29.9505C22.3138 29.5987 22.5114 29.1216 22.5114 28.624V27.6579C25.1345 26.3662 27.3443 24.3669 28.8912 21.8857C30.4382 19.4045 31.2607 16.5403 31.2659 13.6164C31.2659 13.4506 31.2 13.2915 31.0827 13.1743C30.9655 13.057 30.8064 12.9911 30.6406 12.9911ZM27.4968 12.9911H17.673C18.477 11.4938 19.5931 10.1866 20.946 9.15794C22.2988 8.12928 23.8568 7.40316 25.5145 7.0287C26.7022 8.80038 27.3873 10.861 27.4968 12.9911ZM24.7001 5.94534C22.8692 6.44064 21.1676 7.32702 19.7124 8.54338C18.2572 9.75975 17.083 11.2772 16.2708 12.9911H10.424C11.1151 10.4796 12.61 8.26376 14.6801 6.68269C16.7502 5.10161 19.2813 4.24243 21.8861 4.23665C22.2504 4.23665 22.6177 4.25698 22.9804 4.28981C23.6072 4.78316 24.1833 5.33775 24.7001 5.94534ZM15.6329 1.73538C17.4966 1.73376 19.3341 2.17359 20.995 3.01885C18.2173 3.21373 15.5729 4.28385 13.4413 6.07553C11.3098 7.86722 9.80084 10.2883 9.1312 12.9911H3.7691C3.9326 9.95384 5.25339 7.0946 7.45997 5.00112C9.66656 2.90763 12.5913 1.73898 15.6329 1.73538ZM21.6251 26.6949C21.5162 26.7449 21.424 26.8252 21.3595 26.926C21.2949 27.0269 21.2606 27.1442 21.2608 27.264V28.624C21.2608 28.7899 21.1949 28.9489 21.0777 29.0662C20.9604 29.1835 20.8013 29.2494 20.6355 29.2494H10.6304C10.4646 29.2494 10.3055 29.1835 10.1882 29.0662C10.071 28.9489 10.0051 28.7899 10.0051 28.624V27.264C10.0052 27.1442 9.971 27.0269 9.90643 26.926C9.84186 26.8252 9.74967 26.7449 9.64084 26.6949C7.23703 25.5868 5.18424 23.8389 3.70696 21.6426C2.22968 19.4462 1.38479 16.886 1.26471 14.2417H30.0012C29.8811 16.886 29.0362 19.4462 27.5589 21.6426C26.0816 23.8389 24.0289 25.5868 21.6251 26.6949Z" fill="white" fill-opacity="0.4"/>
</svg>
