<svg width="22" height="22" viewBox="0 0 22 22" fill="none" xmlns="http://www.w3.org/2000/svg">
<path d="M19.6889 0.422241V5.54944C20.6227 7.09833 21.1411 8.8618 21.1947 10.6691L21.2 11V20.0667C21.2 20.4482 21.0564 20.8154 20.7973 21.095C20.5374 21.3738 20.1823 21.5453 19.8022 21.574L19.6889 21.5778H1.55554C1.17399 21.5778 0.806789 21.4342 0.527234 21.1743C0.247678 20.9152 0.0769227 20.5601 0.0482115 20.18L0.0444336 20.0667V11C0.0444336 5.15806 4.78026 0.422241 10.6222 0.422241C13.5825 0.422241 16.2587 1.63869 18.1778 3.59784V0.422241H19.6889ZM10.6222 1.93335C5.69221 1.93335 1.68097 5.86904 1.55857 10.7696L1.55554 11V20.0667H6.84443V12.5111H5.33332V11H15.9111V12.5111H14.4V20.0667H19.6889V11C19.6889 5.99295 15.6293 1.93335 10.6222 1.93335ZM12.8889 12.5111H8.35555V20.0667H12.8889V12.5111ZM10.6222 7.22224C10.8224 7.22224 11.0151 7.30158 11.1564 7.44362C11.2984 7.58491 11.3778 7.77758 11.3778 7.9778C11.3778 8.17802 11.2984 8.37069 11.1564 8.51198C11.0151 8.65402 10.8224 8.73335 10.6222 8.73335C10.422 8.73335 10.2293 8.65402 10.088 8.51198C9.94599 8.37069 9.86666 8.17802 9.86666 7.9778C9.86666 7.77758 9.94599 7.58491 10.088 7.44362C10.2293 7.30158 10.422 7.22224 10.6222 7.22224Z" fill="#161616"/>
</svg>
