<svg width="38" height="36" viewBox="0 0 38 36" fill="none" xmlns="http://www.w3.org/2000/svg">
<path d="M36.7687 14.9893H34.4988C34.3014 10.9479 32.557 7.13732 29.627 4.34688C26.6969 1.55643 22.8057 0 18.7595 0C14.7133 0 10.8222 1.55643 7.89211 4.34688C4.96205 7.13732 3.21766 10.9479 3.02028 14.9893H0.750381C0.551368 14.9893 0.360505 15.0684 0.219782 15.2091C0.0790579 15.3498 0 15.5407 0 15.7397C0.00626716 19.2484 0.993277 22.6854 2.8496 25.6629C4.70592 28.6403 7.35762 31.0394 10.5053 32.5895V33.7489C10.5053 34.3459 10.7425 34.9185 11.1647 35.3407C11.5869 35.7628 12.1594 36 12.7565 36H24.7626C25.3596 36 25.9322 35.7628 26.3544 35.3407C26.7766 34.9185 27.0137 34.3459 27.0137 33.7489V32.5895C30.1614 31.0394 32.8131 28.6403 34.6695 25.6629C36.5258 22.6854 37.5128 19.2484 37.5191 15.7397C37.5191 15.5407 37.44 15.3498 37.2993 15.2091C37.1586 15.0684 36.9677 14.9893 36.7687 14.9893ZM32.9961 14.9893H21.2076C22.1724 13.1925 23.5118 11.6239 25.1352 10.3895C26.7586 9.15514 28.6282 8.2838 30.6174 7.83444C32.0427 9.96045 32.8647 12.4332 32.9961 14.9893ZM29.6401 6.5344C27.4431 7.12877 25.4011 8.19242 23.6548 9.65206C21.9086 11.1117 20.4996 12.9326 19.5249 14.9893H12.5089C13.3381 11.9755 15.132 9.31652 17.6161 7.41923C20.1002 5.52194 23.1376 4.49092 26.2633 4.48399C26.7004 4.48399 27.1413 4.50837 27.5765 4.54777C28.3286 5.1398 29.0199 5.8053 29.6401 6.5344ZM18.7595 1.48246C20.9959 1.48051 23.2009 2.0083 25.194 3.02262C21.8608 3.25648 18.6874 4.54062 16.1296 6.69064C13.5717 8.84066 11.761 11.746 10.9574 14.9893H4.52292C4.71912 11.3446 6.30406 7.91352 8.95197 5.40134C11.5999 2.88916 15.1095 1.48678 18.7595 1.48246ZM25.9501 31.4339C25.8195 31.4939 25.7088 31.5902 25.6313 31.7112C25.5539 31.8323 25.5128 31.973 25.513 32.1168V33.7489C25.513 33.9479 25.4339 34.1387 25.2932 34.2795C25.1525 34.4202 24.9616 34.4992 24.7626 34.4992H12.7565C12.5575 34.4992 12.3666 34.4202 12.2259 34.2795C12.0852 34.1387 12.0061 33.9479 12.0061 33.7489V32.1168C12.0063 31.973 11.9652 31.8323 11.8877 31.7112C11.8102 31.5902 11.6996 31.4939 11.569 31.4339C8.68444 30.1041 6.22109 28.0067 4.44835 25.3711C2.67561 22.7355 1.66175 19.6631 1.51765 16.4901H36.0014C35.8573 19.6631 34.8435 22.7355 33.0707 25.3711C31.298 28.0067 28.8346 30.1041 25.9501 31.4339Z" fill="white"/>
</svg>
