<svg width="30" height="30" viewBox="0 0 30 30" fill="none" xmlns="http://www.w3.org/2000/svg">
<rect x="0.5" y="0.5" width="29" height="29" stroke="black" stroke-dasharray="3 3"/>
<path d="M22.1386 22.8536L22.4922 23.2071L23.1993 22.5L22.8457 22.1464L22.1386 22.8536ZM9.99219 9.5C9.71605 9.5 9.49219 9.72386 9.49219 10L9.49219 14.5C9.49219 14.7761 9.71605 15 9.99219 15C10.2683 15 10.4922 14.7761 10.4922 14.5L10.4922 10.5L14.4922 10.5C14.7683 10.5 14.9922 10.2761 14.9922 10C14.9922 9.72386 14.7683 9.5 14.4922 9.5L9.99219 9.5ZM22.8457 22.1464L10.3457 9.64645L9.63864 10.3536L22.1386 22.8536L22.8457 22.1464Z" fill="black"/>
</svg>
