<svg width="24" height="24" viewBox="0 0 24 24" fill="none" xmlns="http://www.w3.org/2000/svg">
<path d="M22.2857 4.28571H15.4286V1.71429C15.4277 1.26 15.2469 0.823715 14.9254 0.502286C14.6049 0.181714 14.1686 0.000857489 13.7143 0H1.71429C1.26 0.000857489 0.823715 0.180858 0.502286 0.502286C0.180858 0.823715 0.000857489 1.26 0 1.71429V22.2857C0.000857489 22.74 0.181714 23.1763 0.502286 23.4969C0.823715 23.8183 1.26 23.9991 1.71429 24H22.2857C22.74 23.9991 23.1754 23.8183 23.4969 23.4969C23.8183 23.1754 23.9991 22.74 24 22.2857V6C23.9991 5.54571 23.8183 5.10943 23.4969 4.788C23.1763 4.46743 22.74 4.28657 22.2857 4.28571ZM9.42857 22.2857H6V18H9.42857V22.2857ZM13.7143 22.2857H11.1429V18C11.142 17.5457 10.9611 17.1094 10.6397 16.7889C10.3191 16.4674 9.88286 16.2866 9.42857 16.2857H6C5.54571 16.2866 5.10943 16.4674 4.788 16.7889C4.46743 17.1094 4.28657 17.5457 4.28571 18V22.2857H1.71429L1.71343 1.71429H13.7143V22.2857ZM22.2857 22.2857H15.4286V6H22.2857V22.2857ZM19.7143 12C19.7143 12.1697 19.6637 12.3351 19.5694 12.4766C19.476 12.6171 19.3414 12.7269 19.1854 12.792C19.0286 12.8571 18.8563 12.8734 18.69 12.8409C18.5237 12.8074 18.3711 12.726 18.2511 12.606C18.1311 12.486 18.0497 12.3334 18.0163 12.1671C17.9837 12.0009 18 11.8286 18.0651 11.6717C18.1303 11.5157 18.24 11.3811 18.3806 11.2877C18.522 11.1934 18.6874 11.1429 18.8571 11.1429C19.0843 11.1429 19.3029 11.2329 19.4631 11.394C19.6243 11.5543 19.7143 11.7729 19.7143 12ZM18 8.57143C18 8.40171 18.0506 8.23629 18.1449 8.09486C18.2383 7.95429 18.3729 7.84457 18.5289 7.77943C18.6857 7.71429 18.858 7.698 19.0243 7.73057C19.1906 7.764 19.3431 7.84543 19.4631 7.96543C19.5831 8.08543 19.6646 8.238 19.698 8.40429C19.7306 8.57057 19.7143 8.74286 19.6491 8.89971C19.584 9.05571 19.4743 9.19029 19.3337 9.28371C19.1923 9.378 19.0269 9.42857 18.8571 9.42857C18.63 9.42857 18.4114 9.33857 18.2511 9.17743C18.09 9.01714 18 8.79857 18 8.57143ZM11.1429 12C11.1429 12.1697 11.0923 12.3351 10.998 12.4766C10.9046 12.6171 10.77 12.7269 10.614 12.792C10.4571 12.8571 10.2849 12.8734 10.1186 12.8409C9.95229 12.8074 9.79971 12.726 9.67971 12.606C9.55971 12.486 9.47829 12.3334 9.44486 12.1671C9.41229 12.0009 9.42857 11.8286 9.49371 11.6717C9.55886 11.5157 9.66857 11.3811 9.80914 11.2877C9.95057 11.1934 10.116 11.1429 10.2857 11.1429C10.5129 11.1429 10.7314 11.2329 10.8917 11.394C11.0529 11.5543 11.1429 11.7729 11.1429 12ZM11.1429 8.57143C11.1429 8.74114 11.0923 8.90657 10.998 9.048C10.9046 9.18857 10.77 9.29829 10.614 9.36343C10.4571 9.42857 10.2849 9.44486 10.1186 9.41229C9.95229 9.37886 9.79971 9.29743 9.67971 9.17743C9.55971 9.05743 9.47829 8.90486 9.44486 8.73857C9.41229 8.57229 9.42857 8.4 9.49371 8.24314C9.55886 8.08714 9.66857 7.95257 9.80914 7.85914C9.95057 7.76486 10.116 7.71429 10.2857 7.71429C10.5129 7.71429 10.7314 7.80429 10.8917 7.96543C11.0529 8.12571 11.1429 8.34429 11.1429 8.57143ZM11.1429 5.14286C11.1429 5.31257 11.0923 5.478 10.998 5.61943C10.9046 5.76 10.77 5.86971 10.614 5.93486C10.4571 6 10.2849 6.01629 10.1186 5.98371C9.95229 5.95029 9.79971 5.86886 9.67971 5.74886C9.55971 5.62886 9.47829 5.47629 9.44486 5.31C9.41229 5.14371 9.42857 4.97143 9.49371 4.81457C9.55886 4.65857 9.66857 4.524 9.80914 4.43057C9.95057 4.33629 10.116 4.28571 10.2857 4.28571C10.5129 4.28571 10.7314 4.37571 10.8917 4.53686C11.0529 4.69714 11.1429 4.91571 11.1429 5.14286ZM6 12C6 12.1697 5.94943 12.3351 5.85514 12.4766C5.76171 12.6171 5.62714 12.7269 5.47114 12.792C5.31429 12.8571 5.142 12.8734 4.97571 12.8409C4.80943 12.8074 4.65686 12.726 4.53686 12.606C4.41686 12.486 4.33543 12.3334 4.302 12.1671C4.26943 12.0009 4.28571 11.8286 4.35086 11.6717C4.416 11.5157 4.52571 11.3811 4.66629 11.2877C4.80771 11.1934 4.97314 11.1429 5.14286 11.1429C5.37 11.1429 5.58857 11.2329 5.74886 11.394C5.91 11.5543 6 11.7729 6 12ZM6 8.57143C6 8.74114 5.94943 8.90657 5.85514 9.048C5.76171 9.18857 5.62714 9.29829 5.47114 9.36343C5.31429 9.42857 5.142 9.44486 4.97571 9.41229C4.80943 9.37886 4.65686 9.29743 4.53686 9.17743C4.41686 9.05743 4.33543 8.90486 4.302 8.73857C4.26943 8.57229 4.28571 8.4 4.35086 8.24314C4.416 8.08714 4.52571 7.95257 4.66629 7.85914C4.80771 7.76486 4.97314 7.71429 5.14286 7.71429C5.37 7.71429 5.58857 7.80429 5.74886 7.96543C5.91 8.12571 6 8.34429 6 8.57143ZM6 5.14286C6 5.31257 5.94943 5.478 5.85514 5.61943C5.76171 5.76 5.62714 5.86971 5.47114 5.93486C5.31429 6 5.142 6.01629 4.97571 5.98371C4.80943 5.95029 4.65686 5.86886 4.53686 5.74886C4.41686 5.62886 4.33543 5.47629 4.302 5.31C4.26943 5.14371 4.28571 4.97143 4.35086 4.81457C4.416 4.65857 4.52571 4.524 4.66629 4.43057C4.80771 4.33629 4.97314 4.28571 5.14286 4.28571C5.37 4.28571 5.58857 4.37571 5.74886 4.53686C5.91 4.69714 6 4.91571 6 5.14286Z" fill="#161616"/>
</svg>
