<svg width="115" height="115" viewBox="0 0 115 115" fill="none" xmlns="http://www.w3.org/2000/svg">
<circle cx="57.5" cy="57.5" r="57" fill="white" stroke="black"/>
<path d="M84.4918 60.0093C83.8698 59.3723 83.1313 58.867 82.3185 58.5222C81.5057 58.1774 80.6346 58 79.7548 58C78.875 58 78.0038 58.1774 77.191 58.5222C76.3782 58.867 75.6397 59.3723 75.0177 60.0093L74.4423 60.5984C74.0499 61 73.4039 61 73.0116 60.5984L72.4361 60.0093C71.1798 58.7232 69.4759 58.0007 67.6991 58.0007C65.9224 58.0007 64.2185 58.7232 62.9621 60.0093C61.7058 61.2953 61 63.0396 61 64.8584C61 66.6772 61.7058 68.4215 62.9621 69.7076L64.2529 71.0289L73.0116 79.995C73.4039 80.3966 74.0499 80.3966 74.4423 79.995L83.201 71.0289L84.4918 69.7076C85.114 69.0709 85.6076 68.3149 85.9444 67.4829C86.2812 66.6509 86.4545 65.759 86.4545 64.8584C86.4545 63.9578 86.2812 63.066 85.9444 62.2339C85.6076 61.4019 85.114 60.6459 84.4918 60.0093Z" fill="#FFE9D9" stroke="black" stroke-width="1.5" stroke-linecap="round" stroke-linejoin="round"/>
<path d="M85.4304 52.2651L62.744 33.1722C61.253 31.9174 59.0748 31.9196 57.5864 33.1774L36.4181 51.0667C35.5188 51.8267 35 52.9443 35 54.1218V76.6888C35 78.8979 36.7909 80.6888 39 80.6888H60.163" stroke="black" stroke-width="1.5"/>
</svg>
