<svg width="102" height="102" viewBox="0 0 102 102" fill="none" xmlns="http://www.w3.org/2000/svg">
<circle cx="51.255" cy="53.3077" r="20.5128" fill="#FFAD8A"/>
<path d="M101 46.4286V51.0286C100.994 61.8107 97.5025 72.302 91.0466 80.9377C84.5908 89.5735 75.5164 95.891 65.1768 98.9481C54.8371 102.005 43.7863 101.638 33.6723 97.9015C23.5584 94.1649 14.9233 87.2591 9.0548 78.2139C3.18633 69.1688 0.398956 58.4689 1.10838 47.7102C1.81781 36.9514 5.98603 26.7102 12.9914 18.514C19.9968 10.3177 29.4639 4.60553 39.9809 2.22935C50.4979 -0.146832 61.5013 0.940304 71.35 5.32862" stroke="black" stroke-width="1.6" stroke-linecap="round" stroke-linejoin="round"/>
<path d="M101 11.0291L51 61.079L36 46.079" stroke="black" stroke-width="1.6" stroke-linecap="round" stroke-linejoin="round"/>
</svg>
