<svg width="24" height="24" viewBox="0 0 24 24" fill="none" xmlns="http://www.w3.org/2000/svg">
<path d="M22.8139 0.746765L23.4894 2.0977L21.6405 3.0225V21.8222C21.6405 22.6186 21.024 23.2714 20.242 23.3288L20.1294 23.3333H3.50717C2.71082 23.3333 2.05802 22.7168 2.00059 21.9348L1.99606 21.8222V12.8447L0.822683 13.431L0.147217 12.0801L1.99606 11.1561V5.20001H3.50717V10.4005L22.8139 0.746765ZM20.1294 3.77805L3.50717 12.0892V21.8222H8.04051V14.2667C8.04051 13.4703 8.65704 12.8175 9.43904 12.7593L9.55162 12.7556H14.085C14.8813 12.7556 15.5341 13.3721 15.5923 14.1541L15.5961 14.2667V21.8222H20.1294V3.77805ZM14.085 14.2667H9.55162V21.8222H14.085V14.2667ZM17.8627 8.22223C18.2798 8.22223 18.6183 8.56072 18.6183 8.97779C18.6183 9.39486 18.2798 9.73335 17.8627 9.73335C17.4457 9.73335 17.1072 9.39486 17.1072 8.97779C17.1072 8.56072 17.4457 8.22223 17.8627 8.22223Z" fill="#161616"/>
</svg>
