<svg width="24" height="24" viewBox="0 0 24 24" fill="none" xmlns="http://www.w3.org/2000/svg">
<rect x="0.5" y="0.5" width="23" height="23" stroke="white" stroke-opacity="0.5" stroke-dasharray="3 3"/>
<path d="M17.6386 18.3536L17.9922 18.7071L18.6993 18L18.3457 17.6464L17.6386 18.3536ZM7.99219 7.5C7.71605 7.5 7.49219 7.72386 7.49219 8L7.49219 12.5C7.49219 12.7761 7.71605 13 7.99219 13C8.26833 13 8.49219 12.7761 8.49219 12.5L8.49219 8.5L12.4922 8.5C12.7683 8.5 12.9922 8.27615 12.9922 8C12.9922 7.72386 12.7683 7.5 12.4922 7.5L7.99219 7.5ZM18.3457 17.6464L8.34574 7.64645L7.63864 8.35356L17.6386 18.3536L18.3457 17.6464Z" fill="white" fill-opacity="0.5"/>
</svg>
