<svg width="115" height="115" viewBox="0 0 115 115" fill="none" xmlns="http://www.w3.org/2000/svg">
<circle cx="57.5" cy="57.5" r="57" stroke="black"/>
<rect x="26.75" y="48.4482" width="63.1031" height="30.8016" rx="5.25" fill="white" stroke="black" stroke-width="1.5"/>
<path d="M58 30L35.9126 48.1351" stroke="black" stroke-width="1.5"/>
<path d="M58.8652 28.9287L81.1271 48.1351" stroke="black" stroke-width="1.5"/>
<circle cx="59.265" cy="29.865" r="4.115" fill="#FFD4B6" stroke="black" stroke-width="1.5"/>
<path d="M40.3634 69.0003C40.2558 69.0003 40.1727 68.971 40.1141 68.9123C40.0554 68.8439 40.0261 68.7608 40.0261 68.663V59.0856C40.0261 58.9781 40.0554 58.895 40.1141 58.8363C40.1727 58.7679 40.2558 58.7336 40.3634 58.7336H43.9421C45.047 58.7336 45.9221 58.9928 46.5674 59.511C47.2127 60.0292 47.5354 60.7968 47.5354 61.8136C47.5354 62.5665 47.3447 63.1825 46.9634 63.6616C46.5918 64.131 46.0834 64.4585 45.4381 64.6443L47.6967 68.5456C47.7261 68.6043 47.7407 68.6581 47.7407 68.707C47.7407 68.7852 47.7065 68.8536 47.6381 68.9123C47.5794 68.971 47.511 69.0003 47.4327 69.0003H46.7287C46.5625 69.0003 46.4403 68.9563 46.3621 68.8683C46.2838 68.7803 46.2154 68.6923 46.1567 68.6043L44.0301 64.879H41.4634V68.663C41.4634 68.7608 41.4292 68.8439 41.3607 68.9123C41.3021 68.971 41.219 69.0003 41.1114 69.0003H40.3634ZM41.4634 63.6323H43.8834C44.6167 63.6323 45.1643 63.4808 45.5261 63.1776C45.8878 62.8648 46.0687 62.4052 46.0687 61.799C46.0687 61.2025 45.8878 60.7479 45.5261 60.435C45.1741 60.1221 44.6265 59.9656 43.8834 59.9656H41.4634V63.6323Z" fill="black"/>
<path d="M50.7074 69.0003C50.5998 69.0003 50.5167 68.971 50.4581 68.9123C50.3994 68.8439 50.3701 68.7608 50.3701 68.663V59.0856C50.3701 58.9781 50.3994 58.895 50.4581 58.8363C50.5167 58.7679 50.5998 58.7336 50.7074 58.7336H56.7647C56.8723 58.7336 56.9554 58.7679 57.0141 58.8363C57.0727 58.895 57.1021 58.9781 57.1021 59.0856V59.643C57.1021 59.7505 57.0727 59.8336 57.0141 59.8923C56.9554 59.951 56.8723 59.9803 56.7647 59.9803H51.7781V63.1923H56.4421C56.5496 63.1923 56.6327 63.2265 56.6914 63.295C56.7501 63.3536 56.7794 63.4368 56.7794 63.5443V64.087C56.7794 64.1848 56.7501 64.2679 56.6914 64.3363C56.6327 64.395 56.5496 64.4243 56.4421 64.4243H51.7781V67.7536H56.8821C56.9896 67.7536 57.0727 67.783 57.1314 67.8416C57.1901 67.9003 57.2194 67.9834 57.2194 68.091V68.663C57.2194 68.7608 57.1901 68.8439 57.1314 68.9123C57.0727 68.971 56.9896 69.0003 56.8821 69.0003H50.7074Z" fill="black"/>
<path d="M60.3353 69.0003C60.2277 69.0003 60.1446 68.971 60.0859 68.9123C60.0273 68.8439 59.9979 68.7608 59.9979 68.663V59.0856C59.9979 58.9781 60.0273 58.895 60.0859 58.8363C60.1446 58.7679 60.2277 58.7336 60.3353 58.7336H61.0099C61.1273 58.7336 61.2153 58.763 61.2739 58.8216C61.3326 58.8705 61.3668 58.9096 61.3766 58.939L66.2459 66.419V59.0856C66.2459 58.9781 66.2753 58.895 66.3339 58.8363C66.3926 58.7679 66.4757 58.7336 66.5833 58.7336H67.2873C67.3948 58.7336 67.4779 58.7679 67.5366 58.8363C67.605 58.895 67.6393 58.9781 67.6393 59.0856V68.6483C67.6393 68.7461 67.605 68.8292 67.5366 68.8976C67.4779 68.9661 67.3997 69.0003 67.3019 69.0003H66.5979C66.4904 69.0003 66.4073 68.971 66.3486 68.9123C66.2997 68.8536 66.2655 68.8145 66.2459 68.795L61.3913 61.3883V68.663C61.3913 68.7608 61.357 68.8439 61.2886 68.9123C61.2299 68.971 61.1468 69.0003 61.0393 69.0003H60.3353Z" fill="black"/>
<path d="M73.5105 69.0003C73.4127 69.0003 73.3296 68.971 73.2612 68.9123C73.2025 68.8439 73.1732 68.7608 73.1732 68.663V60.039H70.3572C70.2594 60.039 70.1763 60.0096 70.1079 59.951C70.0492 59.8825 70.0199 59.7994 70.0199 59.7016V59.0856C70.0199 58.9781 70.0492 58.895 70.1079 58.8363C70.1763 58.7679 70.2594 58.7336 70.3572 58.7336H77.4265C77.5341 58.7336 77.6172 58.7679 77.6758 58.8363C77.7443 58.895 77.7785 58.9781 77.7785 59.0856V59.7016C77.7785 59.7994 77.7443 59.8825 77.6758 59.951C77.6172 60.0096 77.5341 60.039 77.4265 60.039H74.6252V68.663C74.6252 68.7608 74.591 68.8439 74.5225 68.9123C74.4639 68.971 74.3807 69.0003 74.2732 69.0003H73.5105Z" fill="black"/>
</svg>
