<svg width="28" height="26" viewBox="0 0 28 26" fill="none" xmlns="http://www.w3.org/2000/svg">
<path d="M3.57016 9.39988L14.3702 0.999878L19.5195 4.8733L21.798 6.69608L25.1702 9.39988M3.57016 9.39988V22.5999C3.57016 23.2364 3.82302 23.8468 4.27311 24.2969C4.7232 24.747 5.33365 24.9999 5.97017 24.9999H22.7702C23.4067 24.9999 24.0171 24.747 24.4672 24.2969C24.9173 23.8468 25.1702 23.2364 25.1702 22.5999V9.39988M3.57016 9.39988L1.51953 11.0252M25.1702 9.39988L27.0385 10.8885" stroke="white" stroke-width="1.5" stroke-linecap="round" stroke-linejoin="round"/>
<path d="M14.6398 19.7072H13.8775V18.6286C11.9832 18.4644 11.0938 17.421 11.0938 16.0493V15.9789H11.9254V16.1313C11.9254 17.2569 12.6184 17.8665 14.4319 17.8665C15.9797 17.8665 16.6843 17.4327 16.6843 16.5417C16.6843 15.6624 16.1645 15.3458 15.0326 15.1113L13.3924 14.7948C12.1333 14.5486 11.1284 14.0093 11.1284 12.7079C11.1284 11.6996 11.9254 10.6913 13.8775 10.5741V9.5072H14.6398V10.5741C16.5457 10.7148 17.4005 11.8286 17.4005 13.1651V13.2355H16.5688V13.0948C16.5688 11.9575 15.8758 11.3479 14.1894 11.3479C12.6531 11.3479 11.9601 11.7934 11.9601 12.6493C11.9601 13.5403 12.4683 13.81 13.6118 14.0562L15.2405 14.3844C16.6266 14.6541 17.516 15.252 17.516 16.4713C17.516 17.5617 16.6381 18.5817 14.6398 18.652V19.7072Z" fill="white" stroke="white" stroke-width="0.5"/>
</svg>
