<svg width="17" height="17" viewBox="0 0 17 17" fill="none" xmlns="http://www.w3.org/2000/svg">
<rect x="0.5" y="0.5" width="16" height="16" stroke="black" stroke-opacity="0.4" stroke-dasharray="3 3"/>
<path d="M12.3964 13.1036L12.75 13.4571L13.4571 12.75L13.1036 12.3964L12.3964 13.1036ZM5.66667 5.16667C5.39052 5.16667 5.16667 5.39053 5.16667 5.66667L5.16667 10.1667C5.16667 10.4428 5.39052 10.6667 5.66667 10.6667C5.94281 10.6667 6.16667 10.4428 6.16667 10.1667L6.16667 6.16667L10.1667 6.16667C10.4428 6.16667 10.6667 5.94281 10.6667 5.66667C10.6667 5.39053 10.4428 5.16667 10.1667 5.16667L5.66667 5.16667ZM13.1036 12.3964L6.02022 5.31311L5.31311 6.02022L12.3964 13.1036L13.1036 12.3964Z" fill="black" fill-opacity="0.4"/>
</svg>
