<svg width="115" height="115" viewBox="0 0 115 115" fill="none" xmlns="http://www.w3.org/2000/svg">
<circle cx="57.5" cy="57.5" r="57" stroke="black"/>
<path d="M34.5 44.4333L58.2 26L69.5 34.5V28.5H74.5V38.5L81.9 44.4333M34.5 44.4333V73.4C34.5 74.7968 35.0549 76.1364 36.0426 77.1241C37.0303 78.1118 38.3699 78.6667 39.7667 78.6667H76.6333C78.0301 78.6667 79.3697 78.1118 80.3574 77.1241C81.3451 76.1364 81.9 74.7968 81.9 73.4V44.4333M34.5 44.4333L30 48M81.9 44.4333L86 47.7" stroke="#161616" stroke-width="1.5" stroke-linecap="round" stroke-linejoin="round"/>
<circle cx="58" cy="56" r="14.25" fill="#FFE9D9" stroke="black" stroke-width="1.5"/>
<path d="M59.2578 65H57.9125V63.0966C54.5695 62.8069 53 60.9655 53 58.5448V58.4207H54.4676V58.6897C54.4676 60.6759 55.6906 61.7517 58.8909 61.7517C61.6223 61.7517 62.8657 60.9862 62.8657 59.4138C62.8657 57.8621 61.9484 57.3034 59.9508 56.8897L57.0564 56.331C54.8345 55.8966 53.0612 54.9448 53.0612 52.6483C53.0612 50.869 54.4676 49.0897 57.9125 48.8828V47H59.2578V48.8828C62.6211 49.131 64.1295 51.0966 64.1295 53.4552V53.5793H62.6619V53.331C62.6619 51.3241 61.4388 50.2483 58.4628 50.2483C55.7518 50.2483 54.5288 51.0345 54.5288 52.5448C54.5288 54.1172 55.4257 54.5931 57.4436 55.0276L60.3177 55.6069C62.7638 56.0828 64.3333 57.1379 64.3333 59.2897C64.3333 61.2138 62.7842 63.0138 59.2578 63.1379V65Z" fill="black"/>
</svg>
