<svg width="28" height="27" viewBox="0 0 28 27" fill="none" xmlns="http://www.w3.org/2000/svg">
<path d="M3.05063 9.67808L13.8506 1.27808L19 5.15149L21.2785 6.97428L24.6506 9.67808M3.05063 9.67808V22.8781C3.05063 23.5146 3.30349 24.125 3.75358 24.5751C4.20366 25.0252 4.81411 25.2781 5.45063 25.2781H22.2506C22.8872 25.2781 23.4976 25.0252 23.9477 24.5751C24.3978 24.125 24.6506 23.5146 24.6506 22.8781V9.67808M3.05063 9.67808L1 11.3034M24.6506 9.67808L26.519 11.1667" stroke="white" stroke-width="1.5" stroke-linecap="round" stroke-linejoin="round"/>
<path d="M14.1203 19.9854H13.358V18.9068C11.4636 18.7426 10.5742 17.6992 10.5742 16.3275V16.2571H11.4059V16.4095C11.4059 17.5351 12.0989 18.1447 13.9124 18.1447C15.4602 18.1447 16.1648 17.7109 16.1648 16.8199C16.1648 15.9406 15.645 15.624 14.513 15.3895L12.8728 15.073C11.6138 14.8268 10.6089 14.2875 10.6089 12.9861C10.6089 11.9778 11.4059 10.9695 13.358 10.8523V9.7854H14.1203V10.8523C16.0262 10.993 16.8809 12.1068 16.8809 13.4433V13.5137H16.0493V13.373C16.0493 12.2357 15.3562 11.6261 13.6698 11.6261C12.1336 11.6261 11.4405 12.0716 11.4405 12.9275C11.4405 13.8185 11.9488 14.0882 13.0923 14.3344L14.7209 14.6626C16.107 14.9323 16.9964 15.5302 16.9964 16.7495C16.9964 17.8399 16.1186 18.8599 14.1203 18.9302V19.9854Z" fill="white" stroke="white" stroke-width="0.5"/>
</svg>
