<svg width="39" height="37" viewBox="0 0 39 37" fill="none" xmlns="http://www.w3.org/2000/svg">
<path d="M37.67 15.1975H35.3686C35.1684 11.1 33.3998 7.23645 30.4291 4.40725C27.4583 1.57805 23.5131 0 19.4107 0C15.3083 0 11.3631 1.57805 8.39234 4.40725C5.4216 7.23645 3.65297 11.1 3.45286 15.1975H1.15143C0.949651 15.1975 0.756138 15.2777 0.613459 15.4203C0.470781 15.563 0.390625 15.7565 0.390625 15.9583C0.396979 19.5157 1.3977 23.0005 3.2798 26.0193C5.1619 29.038 7.85044 31.4705 11.0419 33.0422V34.2176C11.0419 34.8229 11.2823 35.4035 11.7104 35.8315C12.1384 36.2595 12.7189 36.5 13.3243 36.5H25.4971C26.1025 36.5 26.683 36.2595 27.111 35.8315C27.5391 35.4035 27.7795 34.8229 27.7795 34.2176V33.0422C30.971 31.4705 33.6595 29.038 35.5416 26.0193C37.4237 23.0005 38.4244 19.5157 38.4308 15.9583C38.4308 15.7565 38.3506 15.563 38.208 15.4203C38.0653 15.2777 37.8718 15.1975 37.67 15.1975ZM33.845 15.1975H21.8928C22.871 13.3758 24.2289 11.7854 25.8749 10.5338C27.5209 9.28229 29.4164 8.39885 31.4333 7.94325C32.8783 10.0988 33.7118 12.6058 33.845 15.1975ZM30.4424 6.62516C28.2149 7.22778 26.1445 8.3062 24.374 9.78612C22.6035 11.266 21.1749 13.1122 20.1867 15.1975H13.0732C13.9139 12.1419 15.7328 9.44591 18.2514 7.52227C20.77 5.59863 23.8496 4.55329 27.0187 4.54626C27.4619 4.54626 27.9089 4.57099 28.3501 4.61093C29.1127 5.21118 29.8136 5.88593 30.4424 6.62516ZM19.4107 1.50305C21.6781 1.50107 23.9138 2.0362 25.9346 3.0646C22.5551 3.30171 19.3376 4.60368 16.7442 6.78357C14.1508 8.96345 12.315 11.9091 11.5003 15.1975H4.97637C5.17528 11.5022 6.78224 8.02343 9.46693 5.47636C12.1516 2.92929 15.71 1.50743 19.4107 1.50305ZM26.7011 31.8705C26.5687 31.9314 26.4565 32.0289 26.378 32.1517C26.2994 32.2744 26.2577 32.4171 26.2579 32.5628V34.2176C26.2579 34.4194 26.1778 34.6129 26.0351 34.7556C25.8924 34.8982 25.6989 34.9784 25.4971 34.9784H13.3243C13.1225 34.9784 12.929 34.8982 12.7863 34.7556C12.6436 34.6129 12.5635 34.4194 12.5635 34.2176V32.5628C12.5637 32.4171 12.522 32.2744 12.4434 32.1517C12.3649 32.0289 12.2527 31.9314 12.1203 31.8705C9.19568 30.5222 6.69812 28.3957 4.90076 25.7235C3.1034 23.0513 2.07545 19.9362 1.92935 16.7191H36.8921C36.746 19.9362 35.718 23.0513 33.9207 25.7235C32.1233 28.3957 29.6257 30.5222 26.7011 31.8705Z" fill="black"/>
</svg>
